G04*
G04 #@! TF.GenerationSoftware,Altium Limited,Altium Designer Agile,26.0.0 (14)*
G04*
G04 Layer_Physical_Order=1*
G04 Layer_Color=255*
%FSLAX44Y44*%
%MOMM*%
G71*
G04*
G04 #@! TF.SameCoordinates,AA4D6D32-D7F5-4280-AC7C-52558C787E6E*
G04*
G04*
G04 #@! TF.FilePolarity,Positive*
G04*
G01*
G75*
%ADD23C,0.3000*%
%ADD47R,0.8390X1.1906*%
%ADD59R,2.8956X5.4102*%
%ADD91R,1.0800X1.6300*%
%ADD92R,0.9000X0.9000*%
%ADD93R,0.9500X1.0000*%
%ADD94R,1.0000X0.9500*%
%ADD95R,0.9000X0.9000*%
%ADD96R,1.6000X0.7000*%
%ADD97R,2.2000X1.2000*%
%ADD98R,1.4000X1.6000*%
%ADD99R,1.6000X1.2000*%
%ADD100R,1.4500X0.6000*%
%ADD101R,0.3000X1.1400*%
%ADD102R,0.6000X1.1400*%
%ADD103R,0.8999X0.7000*%
%ADD104R,0.8001X2.0000*%
%ADD105R,1.6300X1.0800*%
G04:AMPARAMS|DCode=106|XSize=0.52mm|YSize=0.35mm|CornerRadius=0.0928mm|HoleSize=0mm|Usage=FLASHONLY|Rotation=0.000|XOffset=0mm|YOffset=0mm|HoleType=Round|Shape=RoundedRectangle|*
%AMROUNDEDRECTD106*
21,1,0.5200,0.1645,0,0,0.0*
21,1,0.3345,0.3500,0,0,0.0*
1,1,0.1855,0.1673,-0.0823*
1,1,0.1855,-0.1673,-0.0823*
1,1,0.1855,-0.1673,0.0823*
1,1,0.1855,0.1673,0.0823*
%
%ADD106ROUNDEDRECTD106*%
G04:AMPARAMS|DCode=107|XSize=0.52mm|YSize=0.35mm|CornerRadius=0.0928mm|HoleSize=0mm|Usage=FLASHONLY|Rotation=90.000|XOffset=0mm|YOffset=0mm|HoleType=Round|Shape=RoundedRectangle|*
%AMROUNDEDRECTD107*
21,1,0.5200,0.1645,0,0,90.0*
21,1,0.3345,0.3500,0,0,90.0*
1,1,0.1855,0.0823,0.1673*
1,1,0.1855,0.0823,-0.1673*
1,1,0.1855,-0.0823,-0.1673*
1,1,0.1855,-0.0823,0.1673*
%
%ADD107ROUNDEDRECTD107*%
%ADD108R,0.8500X1.2000*%
%ADD109R,0.6000X1.7000*%
%ADD110R,2.3000X1.2000*%
%ADD111O,1.8000X0.6000*%
%ADD112O,0.6000X1.8000*%
%ADD113R,1.5000X2.3000*%
%ADD114R,1.5500X2.6000*%
%ADD115R,0.9000X1.3500*%
%ADD116R,0.4000X1.2300*%
G04:AMPARAMS|DCode=117|XSize=0.6mm|YSize=1.35mm|CornerRadius=0.045mm|HoleSize=0mm|Usage=FLASHONLY|Rotation=90.000|XOffset=0mm|YOffset=0mm|HoleType=Round|Shape=RoundedRectangle|*
%AMROUNDEDRECTD117*
21,1,0.6000,1.2600,0,0,90.0*
21,1,0.5100,1.3500,0,0,90.0*
1,1,0.0900,0.6300,0.2550*
1,1,0.0900,0.6300,-0.2550*
1,1,0.0900,-0.6300,-0.2550*
1,1,0.0900,-0.6300,0.2550*
%
%ADD117ROUNDEDRECTD117*%
%ADD118R,1.7000X2.3000*%
%ADD119R,1.8000X1.7500*%
%ADD120R,0.6000X1.4500*%
%ADD121R,7.5000X3.0000*%
%ADD122R,0.6000X1.0000*%
%ADD123R,1.8000X2.2500*%
%ADD124R,1.2700X1.3970*%
%ADD125R,1.6000X3.2000*%
G04:AMPARAMS|DCode=126|XSize=1.97mm|YSize=0.6mm|CornerRadius=0.075mm|HoleSize=0mm|Usage=FLASHONLY|Rotation=90.000|XOffset=0mm|YOffset=0mm|HoleType=Round|Shape=RoundedRectangle|*
%AMROUNDEDRECTD126*
21,1,1.9700,0.4500,0,0,90.0*
21,1,1.8200,0.6000,0,0,90.0*
1,1,0.1500,0.2250,0.9100*
1,1,0.1500,0.2250,-0.9100*
1,1,0.1500,-0.2250,-0.9100*
1,1,0.1500,-0.2250,0.9100*
%
%ADD126ROUNDEDRECTD126*%
%ADD127R,3.3020X2.4130*%
%ADD128R,1.5500X1.9000*%
%ADD129R,1.9500X2.2000*%
%ADD130R,1.7500X1.8000*%
%ADD131R,0.7000X0.8999*%
%ADD132R,2.0000X0.8001*%
%ADD133R,1.3970X1.2700*%
%ADD134R,4.0000X4.0000*%
%ADD135R,1.7500X0.6000*%
%ADD136R,2.4100X3.3000*%
%ADD137R,1.0000X0.2000*%
%ADD138R,0.2000X1.0000*%
%ADD139C,0.1600*%
%ADD140C,0.8000*%
%ADD141C,0.4000*%
%ADD142C,1.5000*%
%ADD143C,0.5000*%
%ADD144C,1.0000*%
%ADD145C,1.6000*%
G04:AMPARAMS|DCode=146|XSize=1.6mm|YSize=1.6mm|CornerRadius=0.4mm|HoleSize=0mm|Usage=FLASHONLY|Rotation=180.000|XOffset=0mm|YOffset=0mm|HoleType=Round|Shape=RoundedRectangle|*
%AMROUNDEDRECTD146*
21,1,1.6000,0.8000,0,0,180.0*
21,1,0.8000,1.6000,0,0,180.0*
1,1,0.8000,-0.4000,0.4000*
1,1,0.8000,0.4000,0.4000*
1,1,0.8000,0.4000,-0.4000*
1,1,0.8000,-0.4000,-0.4000*
%
%ADD146ROUNDEDRECTD146*%
%ADD147C,1.0000*%
%ADD148C,3.2000*%
%ADD149R,3.0000X3.0000*%
%ADD150R,1.6000X1.6000*%
%ADD151C,0.6500*%
%ADD152O,1.0000X2.1000*%
%ADD153O,1.0000X1.8000*%
G04:AMPARAMS|DCode=154|XSize=2.7mm|YSize=2.7mm|CornerRadius=0.675mm|HoleSize=0mm|Usage=FLASHONLY|Rotation=0.000|XOffset=0mm|YOffset=0mm|HoleType=Round|Shape=RoundedRectangle|*
%AMROUNDEDRECTD154*
21,1,2.7000,1.3500,0,0,0.0*
21,1,1.3500,2.7000,0,0,0.0*
1,1,1.3500,0.6750,-0.6750*
1,1,1.3500,-0.6750,-0.6750*
1,1,1.3500,-0.6750,0.6750*
1,1,1.3500,0.6750,0.6750*
%
%ADD154ROUNDEDRECTD154*%
%ADD155C,2.7000*%
%ADD156C,0.8000*%
%ADD157C,0.6000*%
G36*
X997961Y2039D02*
X2039D01*
Y997961D01*
X997961D01*
Y2039D01*
D02*
G37*
%LPC*%
G36*
X952097Y984039D02*
X947903D01*
X947771Y984013D01*
X947636Y984022D01*
X943477Y983474D01*
X943350Y983431D01*
X943216Y983422D01*
X939164Y982337D01*
X939043Y982277D01*
X938912Y982251D01*
X935036Y980646D01*
X934924Y980571D01*
X934797Y980528D01*
X931164Y978430D01*
X931063Y978342D01*
X930942Y978282D01*
X927614Y975729D01*
X927526Y975627D01*
X927414Y975553D01*
X924448Y972586D01*
X924373Y972475D01*
X924272Y972386D01*
X921718Y969058D01*
X921659Y968937D01*
X921570Y968836D01*
X919473Y965203D01*
X919429Y965076D01*
X919354Y964964D01*
X917749Y961089D01*
X917723Y960957D01*
X917663Y960836D01*
X916578Y956784D01*
X916569Y956650D01*
X916526Y956523D01*
X915978Y952364D01*
X915987Y952230D01*
X915961Y952098D01*
Y947903D01*
X915987Y947771D01*
X915978Y947637D01*
X916526Y943478D01*
X916569Y943350D01*
X916578Y943216D01*
X917663Y939164D01*
X917723Y939044D01*
X917749Y938912D01*
X919354Y935036D01*
X919429Y934924D01*
X919473Y934797D01*
X921570Y931164D01*
X921659Y931063D01*
X921718Y930942D01*
X924272Y927615D01*
X924373Y927526D01*
X924448Y927414D01*
X927414Y924448D01*
X927526Y924373D01*
X927614Y924272D01*
X930942Y921718D01*
X931063Y921659D01*
X931164Y921570D01*
X934797Y919473D01*
X934924Y919429D01*
X935036Y919355D01*
X938912Y917749D01*
X939043Y917723D01*
X939164Y917664D01*
X943216Y916578D01*
X943350Y916569D01*
X943477Y916526D01*
X947636Y915978D01*
X947771Y915987D01*
X947903Y915961D01*
X952097D01*
X952229Y915987D01*
X952364Y915978D01*
X956522Y916526D01*
X956650Y916569D01*
X956784Y916578D01*
X960836Y917664D01*
X960956Y917723D01*
X961088Y917749D01*
X964964Y919355D01*
X965076Y919429D01*
X965203Y919473D01*
X968836Y921570D01*
X968937Y921659D01*
X969058Y921718D01*
X972386Y924272D01*
X972474Y924373D01*
X972586Y924448D01*
X975552Y927414D01*
X975627Y927526D01*
X975728Y927615D01*
X978282Y930942D01*
X978341Y931063D01*
X978430Y931164D01*
X980527Y934797D01*
X980571Y934924D01*
X980646Y935036D01*
X982251Y938912D01*
X982277Y939044D01*
X982337Y939164D01*
X983422Y943216D01*
X983431Y943350D01*
X983474Y943478D01*
X984022Y947637D01*
X984013Y947771D01*
X984039Y947903D01*
Y952098D01*
X984013Y952230D01*
X984022Y952364D01*
X983474Y956523D01*
X983431Y956650D01*
X983422Y956784D01*
X982337Y960836D01*
X982277Y960957D01*
X982251Y961089D01*
X980646Y964964D01*
X980571Y965076D01*
X980527Y965203D01*
X978430Y968836D01*
X978341Y968937D01*
X978282Y969058D01*
X975728Y972386D01*
X975627Y972475D01*
X975552Y972586D01*
X972586Y975553D01*
X972474Y975627D01*
X972386Y975729D01*
X969058Y978282D01*
X968937Y978342D01*
X968836Y978430D01*
X965203Y980528D01*
X965076Y980571D01*
X964964Y980646D01*
X961088Y982251D01*
X960957Y982277D01*
X960836Y982337D01*
X956784Y983422D01*
X956650Y983431D01*
X956522Y983474D01*
X952364Y984022D01*
X952229Y984013D01*
X952097Y984039D01*
D02*
G37*
G36*
X52097D02*
X47903D01*
X47771Y984013D01*
X47636Y984022D01*
X43478Y983474D01*
X43350Y983431D01*
X43216Y983422D01*
X39164Y982337D01*
X39043Y982277D01*
X38911Y982251D01*
X35036Y980646D01*
X34924Y980571D01*
X34797Y980528D01*
X31164Y978430D01*
X31063Y978342D01*
X30942Y978282D01*
X27614Y975729D01*
X27526Y975627D01*
X27414Y975553D01*
X24448Y972586D01*
X24373Y972475D01*
X24272Y972386D01*
X21718Y969058D01*
X21659Y968937D01*
X21570Y968836D01*
X19473Y965203D01*
X19429Y965076D01*
X19354Y964964D01*
X17749Y961089D01*
X17723Y960957D01*
X17664Y960836D01*
X16578Y956784D01*
X16569Y956650D01*
X16526Y956523D01*
X15978Y952364D01*
X15987Y952230D01*
X15961Y952098D01*
Y947903D01*
X15987Y947771D01*
X15978Y947637D01*
X16526Y943478D01*
X16569Y943350D01*
X16578Y943216D01*
X17664Y939164D01*
X17723Y939044D01*
X17749Y938912D01*
X19354Y935036D01*
X19429Y934924D01*
X19473Y934797D01*
X21570Y931164D01*
X21659Y931063D01*
X21718Y930942D01*
X24272Y927615D01*
X24373Y927526D01*
X24448Y927414D01*
X27414Y924448D01*
X27526Y924373D01*
X27614Y924272D01*
X30942Y921718D01*
X31063Y921659D01*
X31164Y921570D01*
X34797Y919473D01*
X34924Y919429D01*
X35036Y919355D01*
X38911Y917749D01*
X39043Y917723D01*
X39164Y917664D01*
X43216Y916578D01*
X43350Y916569D01*
X43478Y916526D01*
X47636Y915978D01*
X47771Y915987D01*
X47903Y915961D01*
X52097D01*
X52229Y915987D01*
X52364Y915978D01*
X56522Y916526D01*
X56650Y916569D01*
X56784Y916578D01*
X60836Y917664D01*
X60957Y917723D01*
X61089Y917749D01*
X64964Y919355D01*
X65076Y919429D01*
X65203Y919473D01*
X68836Y921570D01*
X68937Y921659D01*
X69058Y921718D01*
X72386Y924272D01*
X72474Y924373D01*
X72586Y924448D01*
X75552Y927414D01*
X75627Y927526D01*
X75728Y927615D01*
X78282Y930942D01*
X78341Y931063D01*
X78430Y931164D01*
X80527Y934797D01*
X80571Y934924D01*
X80646Y935036D01*
X82251Y938912D01*
X82277Y939044D01*
X82337Y939164D01*
X83422Y943216D01*
X83431Y943350D01*
X83474Y943478D01*
X84022Y947637D01*
X84013Y947771D01*
X84039Y947903D01*
Y952098D01*
X84013Y952230D01*
X84022Y952364D01*
X83474Y956523D01*
X83431Y956650D01*
X83422Y956784D01*
X82337Y960836D01*
X82277Y960957D01*
X82251Y961089D01*
X80646Y964964D01*
X80571Y965076D01*
X80527Y965203D01*
X78430Y968836D01*
X78341Y968937D01*
X78282Y969058D01*
X75728Y972386D01*
X75627Y972475D01*
X75552Y972586D01*
X72586Y975553D01*
X72474Y975627D01*
X72386Y975729D01*
X69058Y978282D01*
X68937Y978342D01*
X68836Y978430D01*
X65203Y980528D01*
X65076Y980571D01*
X64964Y980646D01*
X61089Y982251D01*
X60957Y982277D01*
X60836Y982337D01*
X56784Y983422D01*
X56650Y983431D01*
X56522Y983474D01*
X52364Y984022D01*
X52229Y984013D01*
X52097Y984039D01*
D02*
G37*
G36*
X612140Y993433D02*
X105410D01*
X103354Y993024D01*
X101610Y991860D01*
X92720Y982970D01*
X91556Y981226D01*
X91147Y979170D01*
Y737162D01*
X89608Y735623D01*
X57150D01*
X55094Y735214D01*
X53351Y734050D01*
X45823Y726521D01*
X44658Y724778D01*
X44249Y722722D01*
Y718677D01*
X43696D01*
Y718280D01*
X35227D01*
X33171Y717871D01*
X31428Y716706D01*
X30491Y715769D01*
X29326Y714026D01*
X28917Y711970D01*
Y584200D01*
Y459740D01*
X29326Y457684D01*
X30491Y455941D01*
X32594Y453837D01*
X34337Y452673D01*
X36393Y452264D01*
X41157D01*
Y451867D01*
X41234D01*
Y448407D01*
X41157D01*
Y436867D01*
X44816D01*
Y422974D01*
X44816Y422974D01*
X44977Y422166D01*
X45434Y421481D01*
X47375Y419540D01*
X48059Y419083D01*
X48867Y418922D01*
X49587Y417625D01*
Y408637D01*
X67126D01*
Y419109D01*
X83400D01*
X83400Y419109D01*
X84208Y419270D01*
X84892Y419728D01*
X89492Y424328D01*
X89950Y425012D01*
X90111Y425820D01*
X90111Y425820D01*
Y563126D01*
X109442Y582458D01*
X109900Y583142D01*
X110061Y583950D01*
X110061Y583950D01*
Y708722D01*
X110369Y708850D01*
X111570Y710051D01*
X112220Y711621D01*
Y713319D01*
X111570Y714889D01*
X110369Y716090D01*
X108799Y716740D01*
X107101D01*
X105531Y716090D01*
X104330Y714889D01*
X103680Y713319D01*
Y711621D01*
X104330Y710051D01*
X105531Y708850D01*
X105839Y708722D01*
Y706888D01*
X104239Y706570D01*
X103950Y707269D01*
X102749Y708470D01*
X101179Y709120D01*
X99481D01*
X97911Y708470D01*
X96710Y707269D01*
X96060Y705699D01*
Y704001D01*
X96710Y702431D01*
X97911Y701230D01*
X98219Y701102D01*
Y583804D01*
X83598Y569182D01*
X83140Y568498D01*
X82979Y567690D01*
X82979Y567690D01*
Y548964D01*
X81993Y547977D01*
X67126D01*
Y558637D01*
X50207D01*
X49404Y560161D01*
X49930Y561327D01*
X53966D01*
Y564986D01*
X63766D01*
Y560827D01*
X75806D01*
Y573367D01*
X75733D01*
Y576708D01*
X75331Y577681D01*
X74359Y578083D01*
X65215D01*
X64243Y577681D01*
X63840Y576708D01*
Y573367D01*
X63766D01*
Y569207D01*
X53966D01*
Y572867D01*
X53889D01*
Y576327D01*
X53966D01*
Y587867D01*
X42427D01*
Y587470D01*
X39663D01*
Y707534D01*
X43696D01*
Y707137D01*
X43774D01*
Y703677D01*
X43696D01*
Y692137D01*
X47356D01*
Y674880D01*
X47356Y674880D01*
X47517Y674072D01*
X47974Y673388D01*
X48911Y672450D01*
X48911Y672450D01*
X49596Y671993D01*
X50404Y671832D01*
X51107D01*
Y661173D01*
X68646D01*
Y671832D01*
X82123D01*
X82123Y671832D01*
X82930Y671993D01*
X83615Y672450D01*
X89122Y677958D01*
X89122Y677958D01*
X89580Y678642D01*
X89741Y679450D01*
X89741Y679450D01*
Y699832D01*
X90049Y699960D01*
X91250Y701161D01*
X91900Y702731D01*
Y704429D01*
X91250Y705999D01*
X90049Y707200D01*
X88479Y707850D01*
X86781D01*
X85211Y707200D01*
X84010Y705999D01*
X83360Y704429D01*
Y702731D01*
X84010Y701161D01*
X85211Y699960D01*
X85519Y699832D01*
Y680324D01*
X81249Y676053D01*
X68646D01*
Y686713D01*
X51577D01*
Y692137D01*
X55237D01*
Y695796D01*
X68847D01*
Y691637D01*
X80886D01*
Y704177D01*
X80813D01*
Y707510D01*
X80410Y708482D01*
X79439Y708885D01*
X70294D01*
X69323Y708482D01*
X68920Y707510D01*
Y704177D01*
X68847D01*
Y700017D01*
X55237D01*
Y703677D01*
X55159D01*
Y707137D01*
X55237D01*
Y718677D01*
X54995D01*
Y720496D01*
X59376Y724877D01*
X91834D01*
X93890Y725286D01*
X95633Y726451D01*
X100319Y731137D01*
X101484Y732880D01*
X101893Y734936D01*
Y976944D01*
X107636Y982687D01*
X147027D01*
Y976050D01*
X146510D01*
Y975971D01*
X143050D01*
Y976050D01*
X131510D01*
Y972391D01*
X107617D01*
X106810Y972230D01*
X106125Y971772D01*
X106125Y971772D01*
X105188Y970835D01*
X104730Y970150D01*
X104569Y969343D01*
X104569Y969343D01*
Y737537D01*
X104569Y737537D01*
X104730Y736730D01*
X105188Y736045D01*
X106125Y735108D01*
X106125Y735108D01*
X106810Y734650D01*
X107617Y734489D01*
X210820D01*
X210820Y734489D01*
X211628Y734650D01*
X212312Y735108D01*
X225012Y747807D01*
X225012Y747808D01*
X225470Y748492D01*
X225631Y749300D01*
X225631Y749300D01*
Y778050D01*
X226909D01*
X227480Y778286D01*
X229080Y777930D01*
Y777930D01*
X247620D01*
Y787470D01*
X247620D01*
Y788930D01*
X247620D01*
Y798470D01*
X247620D01*
Y799930D01*
X247620D01*
Y809470D01*
X247620D01*
Y810766D01*
X248016Y812366D01*
X256870D01*
Y809190D01*
X268910D01*
Y815675D01*
X270388Y816287D01*
X276051Y810624D01*
X276051Y810624D01*
X276736Y810167D01*
X277543Y810006D01*
X283286D01*
Y802227D01*
X279819D01*
X279819Y802227D01*
X279011Y802067D01*
X278327Y801609D01*
X244888Y768170D01*
X244430Y767485D01*
X244269Y766678D01*
X244269Y766677D01*
Y747968D01*
X243961Y747840D01*
X242760Y746639D01*
X242110Y745069D01*
Y743371D01*
X242760Y741801D01*
X243961Y740600D01*
X245531Y739950D01*
X247229D01*
X248799Y740600D01*
X250000Y741801D01*
X250650Y743371D01*
Y745069D01*
X250000Y746639D01*
X248799Y747840D01*
X248491Y747968D01*
Y765803D01*
X256536Y773849D01*
X258014Y773237D01*
Y757145D01*
X258014Y757145D01*
X258175Y756337D01*
X258633Y755653D01*
X260018Y754268D01*
X259890Y753959D01*
Y752261D01*
X260540Y750691D01*
X261741Y749490D01*
X263311Y748840D01*
X265009D01*
X266579Y749490D01*
X267780Y750691D01*
X268430Y752261D01*
Y752670D01*
X269446Y753973D01*
X269908Y753979D01*
X271150D01*
X272719Y754629D01*
X273920Y755830D01*
X274571Y757399D01*
Y759098D01*
X275883Y760110D01*
X276940Y760548D01*
X278141Y761749D01*
X278792Y763318D01*
Y765017D01*
X278141Y766587D01*
X277540Y767188D01*
X281808Y771455D01*
X283286Y770843D01*
Y769847D01*
X294555Y769847D01*
X295114Y769796D01*
X295207Y769767D01*
X296158Y769388D01*
X296253Y769313D01*
X296328Y769219D01*
X296707Y768267D01*
X296735Y768174D01*
X296786Y767616D01*
X296787Y760527D01*
X285896D01*
X285896Y760527D01*
X285089Y760367D01*
X284404Y759909D01*
X265262Y740767D01*
X259707D01*
Y734467D01*
X259080Y733107D01*
X258272Y732947D01*
X257588Y732489D01*
X257588Y732489D01*
X245974Y720876D01*
X245517Y720191D01*
X245356Y719383D01*
X245356Y719383D01*
Y713076D01*
X241447D01*
Y713076D01*
X240787D01*
Y713076D01*
X228747D01*
Y700536D01*
X228822D01*
Y697270D01*
X229225Y696298D01*
X230197Y695895D01*
X239341D01*
X240313Y696298D01*
X241897D01*
Y696298D01*
X242869Y695895D01*
X243342Y695895D01*
X252013D01*
X252985Y696298D01*
X253387Y697270D01*
Y700536D01*
X253487D01*
Y713076D01*
X249577D01*
Y718509D01*
X258228Y727160D01*
X259707Y726548D01*
Y721227D01*
X268247D01*
Y737782D01*
X270807Y740342D01*
X272407Y739679D01*
Y721227D01*
X280947D01*
X281099Y719690D01*
Y689610D01*
X281099Y689610D01*
X281260Y688802D01*
X281718Y688118D01*
X287449Y682386D01*
Y669767D01*
X285107D01*
Y650227D01*
X293647D01*
Y669767D01*
X291671D01*
Y683260D01*
X291510Y684068D01*
X291052Y684752D01*
X291052Y684753D01*
X285321Y690484D01*
Y721227D01*
X293647D01*
Y739569D01*
X297807D01*
Y721227D01*
X306347D01*
Y728886D01*
X315707D01*
X315707Y728886D01*
X316514Y729047D01*
X317199Y729504D01*
X324549Y736854D01*
X325006Y737539D01*
X325167Y738346D01*
X325167Y738347D01*
Y756347D01*
X337170D01*
X337307Y755662D01*
X337764Y754977D01*
X344427Y748314D01*
X344427Y748314D01*
X345112Y747857D01*
X345919Y747696D01*
X345920Y747696D01*
X356604D01*
X356604Y747696D01*
X357412Y747857D01*
X358097Y748314D01*
X361679Y751896D01*
X418563D01*
X419076Y750508D01*
X419076Y750296D01*
Y740808D01*
X416912D01*
Y744967D01*
X404872D01*
Y740808D01*
X381828D01*
X381828Y740808D01*
X381020Y740647D01*
X380335Y740190D01*
X380335Y740190D01*
X358536Y718391D01*
X352998D01*
X352870Y718699D01*
X351669Y719900D01*
X350099Y720550D01*
X348401D01*
X346831Y719900D01*
X345630Y718699D01*
X344980Y717129D01*
Y715431D01*
X345630Y713861D01*
X346831Y712660D01*
X348401Y712010D01*
X350099D01*
X351669Y712660D01*
X352870Y713861D01*
X352998Y714169D01*
X359410D01*
X359410Y714169D01*
X360218Y714330D01*
X360902Y714788D01*
X382702Y736587D01*
X404872D01*
Y732428D01*
X404946D01*
Y729145D01*
X405348Y728173D01*
X406320Y727770D01*
X415464D01*
X416436Y728173D01*
X416839Y729145D01*
Y732428D01*
X416912D01*
Y736587D01*
X419076D01*
Y735969D01*
X430116D01*
Y750296D01*
X430116Y750508D01*
X430628Y751896D01*
X437947D01*
X438328Y750454D01*
X438328D01*
Y735914D01*
X445187D01*
Y733922D01*
X445187Y733922D01*
X445348Y733114D01*
X445806Y732429D01*
X450160Y728075D01*
Y719520D01*
X461700D01*
Y728075D01*
X462880Y729255D01*
X464610Y729257D01*
X465583Y728855D01*
X474218D01*
X475191Y729257D01*
X476679Y728671D01*
Y714614D01*
X470296Y708231D01*
X352998D01*
X352870Y708539D01*
X351669Y709740D01*
X350099Y710390D01*
X348401D01*
X346831Y709740D01*
X345630Y708539D01*
X344980Y706969D01*
Y705271D01*
X345630Y703701D01*
X346831Y702500D01*
X348401Y701850D01*
X350099D01*
X351669Y702500D01*
X352870Y703701D01*
X352998Y704009D01*
X471170D01*
X471170Y704009D01*
X471978Y704170D01*
X472662Y704628D01*
X480282Y712248D01*
X480740Y712932D01*
X480901Y713740D01*
Y727575D01*
X482501Y728585D01*
X482586Y728549D01*
X491730D01*
X492702Y728952D01*
X493105Y729924D01*
Y733211D01*
X493178D01*
Y734774D01*
X494283Y735916D01*
X505323D01*
Y750456D01*
X494283D01*
Y746893D01*
X493178Y745751D01*
X481138D01*
Y741592D01*
X479727D01*
X478920Y741431D01*
X478235Y740974D01*
X478235Y740974D01*
X477298Y740036D01*
X477270Y739995D01*
X475670Y740481D01*
Y746060D01*
X464130D01*
Y736905D01*
X463748Y736546D01*
X463271Y736238D01*
X461708Y736965D01*
X461700Y736973D01*
Y746060D01*
X458041D01*
Y751467D01*
X457880Y752274D01*
X457422Y752959D01*
X457422Y752959D01*
X457094Y753288D01*
X457706Y754766D01*
X527489D01*
X530019Y752236D01*
Y746060D01*
X526360D01*
Y734520D01*
X526437D01*
Y731060D01*
X526360D01*
Y730337D01*
X524760Y729482D01*
X524617Y729577D01*
Y739681D01*
X524617Y739681D01*
X524577Y739885D01*
Y750402D01*
X513537D01*
Y735862D01*
X520396D01*
Y727174D01*
X520396Y727174D01*
X520556Y726366D01*
X521014Y725681D01*
X523018Y723678D01*
X523702Y723220D01*
X524510Y723059D01*
X526360D01*
Y719520D01*
X537900D01*
Y728075D01*
X539676Y729852D01*
X541272Y729184D01*
X541557Y728495D01*
X542529Y728092D01*
X551165D01*
X552137Y728495D01*
X552540Y729467D01*
Y733711D01*
X552618D01*
Y745251D01*
X541078D01*
Y737223D01*
X539500Y735645D01*
X537900Y736307D01*
Y746060D01*
X534241D01*
Y753110D01*
X534080Y753918D01*
X533622Y754602D01*
X533622Y754603D01*
X529856Y758369D01*
X529171Y758827D01*
X528363Y758987D01*
X528363Y758987D01*
X473233D01*
X472620Y760465D01*
X502524Y790369D01*
X521970D01*
X521970Y790369D01*
X522778Y790530D01*
X523462Y790988D01*
X531082Y798608D01*
X531540Y799292D01*
X531701Y800100D01*
Y817880D01*
X531540Y818688D01*
X531082Y819372D01*
X528103Y822352D01*
X527418Y822810D01*
X526610Y822970D01*
X526610Y822970D01*
X526259D01*
X525983Y823384D01*
X525256Y823869D01*
X524399Y824040D01*
X521054D01*
X520196Y823869D01*
X519945Y823701D01*
X518443Y824320D01*
X518345Y824410D01*
Y827544D01*
X518443Y827633D01*
X519945Y828252D01*
X520196Y828084D01*
X521054Y827914D01*
X524399D01*
X525256Y828084D01*
X525983Y828570D01*
X526469Y829297D01*
X526640Y830154D01*
Y831799D01*
X526469Y832657D01*
X525983Y833384D01*
X525256Y833869D01*
X524399Y834040D01*
X521054D01*
X520516Y834723D01*
X521535Y835772D01*
X540111D01*
X541287Y834747D01*
Y822207D01*
X541361D01*
Y818919D01*
X541764Y817947D01*
X542736Y817545D01*
X551880D01*
X552852Y817947D01*
X553255Y818919D01*
Y822207D01*
X553326D01*
Y825653D01*
X556526D01*
Y822207D01*
X556601D01*
Y818925D01*
X557004Y817953D01*
X557976Y817551D01*
X567120D01*
X568092Y817953D01*
X568495Y818925D01*
Y822207D01*
X568567D01*
Y825143D01*
X584176D01*
Y682170D01*
X581620Y679614D01*
X434010D01*
Y683060D01*
X421970D01*
Y679614D01*
X418520D01*
Y682560D01*
X406980D01*
Y671020D01*
X407058D01*
Y667560D01*
X406980D01*
Y666679D01*
X405380Y665662D01*
X404709Y665940D01*
X403011D01*
X401441Y665290D01*
X400240Y664089D01*
X399590Y662519D01*
Y660821D01*
X400240Y659251D01*
X401441Y658050D01*
X403011Y657400D01*
X404709D01*
X405380Y657678D01*
X406980Y656661D01*
Y656020D01*
X418520D01*
Y659680D01*
X421970D01*
Y655520D01*
X434010D01*
Y655520D01*
X435463Y655165D01*
Y651424D01*
X414710D01*
Y653350D01*
X403170D01*
Y651424D01*
X392859D01*
X391588Y652217D01*
X391588Y653024D01*
Y666757D01*
X389824D01*
X389162Y668357D01*
X389790Y668986D01*
X390440Y670555D01*
Y672254D01*
X389790Y673823D01*
X388589Y675024D01*
X387020Y675675D01*
X385321D01*
X383752Y675024D01*
X382550Y673823D01*
X381900Y672254D01*
Y670555D01*
X382550Y668986D01*
X383179Y668357D01*
X382516Y666757D01*
X380548D01*
Y653024D01*
X380548Y652217D01*
X379276Y651424D01*
X370510D01*
Y653850D01*
X358470D01*
Y653850D01*
X357560Y653350D01*
X346020D01*
Y641810D01*
X346097D01*
Y638350D01*
X346020D01*
Y626810D01*
X357560D01*
X358470Y626310D01*
Y626310D01*
X370510D01*
Y626310D01*
X371099Y627271D01*
X382138D01*
Y641811D01*
X372657D01*
X371804Y643262D01*
X371794Y643411D01*
X372007Y643736D01*
X403170D01*
Y641810D01*
X403247D01*
Y638350D01*
X403170D01*
Y636598D01*
X401392D01*
Y641757D01*
X390352D01*
Y627217D01*
X392691D01*
Y623817D01*
X392383Y623689D01*
X391182Y622488D01*
X390532Y620918D01*
Y619220D01*
X391182Y617650D01*
X392383Y616449D01*
X393952Y615799D01*
X395651D01*
X397220Y616449D01*
X398422Y617650D01*
X399072Y619220D01*
Y620918D01*
X398422Y622488D01*
X397220Y623689D01*
X396912Y623817D01*
Y627217D01*
X401392D01*
Y632376D01*
X403170D01*
Y626810D01*
X414710D01*
Y638350D01*
X414633D01*
Y641810D01*
X414710D01*
Y643736D01*
X467690D01*
Y639010D01*
X479730D01*
Y639010D01*
X480640Y639510D01*
X492180D01*
Y642466D01*
X498420D01*
Y640540D01*
X498497D01*
Y637080D01*
X498420D01*
Y625540D01*
X509960D01*
Y629199D01*
X512140D01*
Y625040D01*
X524180D01*
Y629199D01*
X526242D01*
Y625535D01*
X537282D01*
Y640075D01*
X526242D01*
Y633420D01*
X524180D01*
Y637580D01*
X524107D01*
Y640040D01*
X524180D01*
Y642466D01*
X559380D01*
Y640540D01*
X559457D01*
Y637080D01*
X559380D01*
Y634861D01*
X556535D01*
Y640021D01*
X545495D01*
Y625481D01*
X548904D01*
Y622169D01*
X548761Y622110D01*
X547560Y620909D01*
X546910Y619339D01*
Y617641D01*
X547560Y616071D01*
X548761Y614870D01*
X550331Y614220D01*
X552029D01*
X553599Y614870D01*
X554800Y616071D01*
X555450Y617641D01*
Y619339D01*
X554800Y620909D01*
X553599Y622110D01*
X553125Y622306D01*
Y625481D01*
X556535D01*
Y630640D01*
X559380D01*
Y625540D01*
X570920D01*
Y637080D01*
X570843D01*
Y640540D01*
X570920D01*
Y643156D01*
X574391D01*
X575015Y642532D01*
X576952Y641730D01*
X579048D01*
X580985Y642532D01*
X582468Y644015D01*
X583270Y645952D01*
Y648048D01*
X582468Y649985D01*
X580985Y651468D01*
X579048Y652270D01*
X576952D01*
X575015Y651468D01*
X574391Y650844D01*
X570920D01*
Y652080D01*
X559380D01*
Y650154D01*
X548196D01*
X546731Y650481D01*
X546731Y651754D01*
Y665021D01*
X535691D01*
Y661218D01*
X534091Y660668D01*
X533279Y661480D01*
X531709Y662130D01*
X530011D01*
X528441Y661480D01*
X527240Y660279D01*
X526590Y658709D01*
Y657011D01*
X527240Y655441D01*
X528441Y654240D01*
X530011Y653590D01*
X531709D01*
X533279Y654240D01*
X534091Y655052D01*
X535691Y654502D01*
X535691Y650481D01*
X534226Y650154D01*
X524180D01*
Y652580D01*
X512140D01*
Y650154D01*
X509960D01*
Y652080D01*
X498420D01*
Y650154D01*
X492180D01*
Y651050D01*
X492103D01*
Y654510D01*
X492180D01*
Y666050D01*
X480640D01*
X479730Y666550D01*
Y666550D01*
X467690D01*
Y660723D01*
X465755D01*
Y665882D01*
X454715D01*
Y651424D01*
X446503D01*
Y665937D01*
X435463D01*
Y665937D01*
X434010Y666292D01*
Y668060D01*
X433936D01*
Y670520D01*
X434010D01*
Y673966D01*
X582790D01*
X582790Y673966D01*
X583871Y674181D01*
X584787Y674793D01*
X588997Y679003D01*
X588997Y679003D01*
X589609Y679919D01*
X589824Y681000D01*
Y825143D01*
X806345D01*
Y821690D01*
X806748Y820718D01*
X806748Y820718D01*
X807974Y819492D01*
X808104Y819438D01*
X808183Y819321D01*
X808576Y819242D01*
X808946Y819089D01*
X809363Y817628D01*
X809368Y817578D01*
Y815592D01*
X809771Y814619D01*
X810743Y814217D01*
X819887D01*
X820859Y814619D01*
X821261Y815592D01*
Y818281D01*
X823338D01*
Y815587D01*
X823741Y814615D01*
X824713Y814213D01*
X833857D01*
X834829Y814615D01*
X835231Y815587D01*
Y818281D01*
X837328D01*
Y815595D01*
X837730Y814623D01*
X838702Y814220D01*
X847846D01*
X848818Y814623D01*
X849221Y815595D01*
Y818281D01*
X853832D01*
Y815330D01*
X854235Y814358D01*
X855207Y813956D01*
X864351D01*
X865323Y814358D01*
X865725Y815330D01*
Y817290D01*
X866733Y818526D01*
X867096Y818731D01*
X867502Y818899D01*
X867927Y819011D01*
X867977Y819096D01*
X868068Y819134D01*
X869315Y820381D01*
X870248Y819448D01*
X871220Y819045D01*
X871220Y819045D01*
X876692D01*
Y816600D01*
X877095Y815628D01*
X878067Y815226D01*
X887211D01*
X888183Y815628D01*
X888586Y816600D01*
Y819045D01*
X915065D01*
X928627Y804251D01*
X928656Y804238D01*
X928668Y804208D01*
X938791Y794084D01*
X947315Y784165D01*
Y412049D01*
X939231Y403965D01*
X902503Y403965D01*
Y406449D01*
X902101Y407421D01*
X901128Y407823D01*
X891984D01*
X891012Y407421D01*
X889400Y407421D01*
X888428Y407823D01*
X879285D01*
X879275Y407819D01*
X877675Y408873D01*
Y416560D01*
X877272Y417532D01*
X877272Y417532D01*
X874732Y420072D01*
X873760Y420475D01*
X873760Y420475D01*
X866709D01*
X864975Y422209D01*
Y426599D01*
X872577D01*
Y443639D01*
X864037D01*
Y443639D01*
X863017Y443217D01*
X859492Y446742D01*
X858520Y447145D01*
X858520Y447145D01*
X850900D01*
X849928Y446742D01*
X849928Y446742D01*
X848135Y444949D01*
X848068Y444912D01*
X846112Y444912D01*
X846045Y444949D01*
X845522Y445472D01*
X844550Y445875D01*
X844550Y445875D01*
X839470D01*
X839470Y445875D01*
X838498Y445472D01*
X838498Y445472D01*
X833821Y440795D01*
X822567D01*
Y441287D01*
X822493D01*
Y443174D01*
X824279D01*
X825251Y443577D01*
X825251Y443577D01*
X826472Y444798D01*
X826875Y445770D01*
X826875Y445770D01*
Y454091D01*
X850602Y477818D01*
X851005Y478790D01*
X851005Y478790D01*
Y496570D01*
X850852Y496940D01*
X850774Y497332D01*
X838305Y516036D01*
Y633730D01*
X838305Y633730D01*
X837902Y634702D01*
X834092Y638512D01*
X833120Y638915D01*
X833120Y638915D01*
X800100D01*
X799128Y638512D01*
X799128Y638512D01*
X792778Y632162D01*
X792375Y631190D01*
X792375Y631190D01*
Y447040D01*
X792778Y446068D01*
X795269Y443577D01*
X796241Y443174D01*
X796241Y443174D01*
X810600D01*
Y441287D01*
X810527D01*
Y440129D01*
X809495Y439438D01*
X809417Y439322D01*
X809288Y439268D01*
X809134Y438897D01*
X808912Y438563D01*
X808939Y438425D01*
X808885Y438296D01*
Y427990D01*
X808885Y427990D01*
X809288Y427018D01*
X809288Y427018D01*
X810558Y425748D01*
X811530Y425345D01*
X811530Y425345D01*
X844550D01*
X844550Y425345D01*
X845385Y425691D01*
X846078Y425444D01*
X846985Y424949D01*
Y373949D01*
X846118Y373082D01*
X845715Y372110D01*
X846118Y371138D01*
X853738Y363518D01*
X854710Y363115D01*
X854710Y363115D01*
X937961D01*
X947315Y353761D01*
Y297749D01*
X943041Y293475D01*
X927649D01*
Y296927D01*
X927727D01*
Y308467D01*
X927727D01*
Y309867D01*
X927727D01*
Y321407D01*
X927649D01*
Y325677D01*
X927246Y326649D01*
X926274Y327051D01*
X917638D01*
X916666Y326649D01*
X916264Y325677D01*
Y321407D01*
X916187D01*
Y309867D01*
X916187D01*
Y308467D01*
X916187D01*
Y304807D01*
X913534D01*
X912871Y306407D01*
X914102Y307638D01*
X914505Y308610D01*
X914505Y308610D01*
Y311150D01*
X914505Y311150D01*
X914505Y311150D01*
Y322580D01*
X914505Y322580D01*
X914102Y323552D01*
X914102Y323552D01*
X912832Y324822D01*
X911860Y325225D01*
X911860Y325225D01*
X905685D01*
X905043Y326185D01*
Y335329D01*
X904641Y336301D01*
X903669Y336703D01*
X903075D01*
Y347980D01*
X902672Y348952D01*
X902672Y348952D01*
X892512Y359112D01*
X891540Y359515D01*
X891540Y359515D01*
X782320D01*
X782320Y359515D01*
X781348Y359112D01*
X781348Y359112D01*
X776268Y354032D01*
X775865Y353060D01*
X775865Y353060D01*
Y337119D01*
X720791Y282045D01*
X685800D01*
X685800Y282045D01*
X684828Y281642D01*
X662176Y258990D01*
X660698Y257512D01*
X660295Y256540D01*
X660295Y256540D01*
Y226060D01*
X660295Y226060D01*
X660698Y225088D01*
X660698Y225088D01*
X665778Y220008D01*
X666750Y219605D01*
X666750Y219605D01*
X781751D01*
X821585Y179771D01*
Y176448D01*
X820976Y176044D01*
X820095Y175775D01*
X818657Y176563D01*
Y179133D01*
X818496Y179941D01*
X818039Y180626D01*
X818039Y180626D01*
X796717Y201948D01*
X796032Y202405D01*
X795225Y202566D01*
X795225Y202566D01*
X780986D01*
Y209472D01*
X765747D01*
Y192962D01*
Y176452D01*
X766794D01*
X767217Y175372D01*
X767268Y174852D01*
X763568Y171152D01*
X763165Y170180D01*
X763165Y170180D01*
Y131379D01*
X761431Y129645D01*
X723544Y129645D01*
Y178380D01*
X725980D01*
Y178457D01*
X729440D01*
Y178380D01*
X740980D01*
Y182039D01*
X742887D01*
Y176452D01*
X758127D01*
Y192962D01*
Y209472D01*
X742887D01*
Y203327D01*
X740917D01*
Y206987D01*
X729377D01*
Y206909D01*
X725916D01*
Y206987D01*
X714376D01*
Y204551D01*
X596187D01*
X594911Y204297D01*
X593829Y203574D01*
X569142Y178888D01*
X568420Y177806D01*
X568166Y176530D01*
Y151241D01*
X562177Y145252D01*
X560577Y145914D01*
Y146027D01*
X551889D01*
X551096Y147627D01*
X551285Y148082D01*
Y156718D01*
X550882Y157690D01*
X549910Y158093D01*
X545640D01*
Y158170D01*
X534100D01*
Y146630D01*
X534100D01*
X534036Y146027D01*
X534036D01*
X534036Y145056D01*
Y134487D01*
X537516D01*
Y129287D01*
X529607D01*
Y120747D01*
X549069D01*
Y118984D01*
X546713Y116628D01*
X541827D01*
X541622Y116587D01*
X529607D01*
Y109134D01*
X528007Y108472D01*
X525351Y111128D01*
Y132900D01*
X529010D01*
Y144440D01*
X528933D01*
Y147900D01*
X529010D01*
Y159440D01*
X525351D01*
Y162956D01*
X526061Y163666D01*
X535187D01*
Y160007D01*
X546726D01*
Y168186D01*
X548069Y169362D01*
X556704D01*
X557677Y169765D01*
X558079Y170737D01*
Y175007D01*
X558157D01*
Y186547D01*
X535187D01*
Y185413D01*
X533587Y184359D01*
X532979Y184610D01*
X531281D01*
X529711Y183960D01*
X528510Y182759D01*
X527860Y181189D01*
Y179491D01*
X528510Y177921D01*
X529711Y176720D01*
X531281Y176070D01*
X532979D01*
X533587Y176322D01*
X535187Y175267D01*
Y175007D01*
X535264D01*
Y171547D01*
X535187D01*
Y167887D01*
X525187D01*
X524379Y167727D01*
X523694Y167269D01*
X523694Y167269D01*
X521748Y165322D01*
X521290Y164638D01*
X521129Y163830D01*
X521129Y163830D01*
Y159440D01*
X517470D01*
Y158321D01*
X459407D01*
X458600Y158160D01*
X457915Y157702D01*
X457915Y157702D01*
X456978Y156765D01*
X456520Y156080D01*
X456359Y155273D01*
X456313Y153775D01*
X361950D01*
X360978Y153372D01*
X353358Y145752D01*
X352955Y144780D01*
X352955Y144780D01*
Y104140D01*
X353358Y103168D01*
X360978Y95548D01*
X361775Y95218D01*
X362024Y94408D01*
X362111Y93545D01*
X353358Y84792D01*
X352955Y83820D01*
X352955Y83820D01*
Y27940D01*
X353358Y26968D01*
X360978Y19348D01*
X361950Y18945D01*
X361950Y18945D01*
X572770D01*
X573742Y19348D01*
X585172Y30778D01*
X585575Y31750D01*
X585575Y31750D01*
Y74601D01*
X587175Y75171D01*
X588010Y74825D01*
X588010Y74825D01*
X603951D01*
X607358Y71418D01*
X608330Y71015D01*
X608330Y71015D01*
X640080D01*
X641052Y71418D01*
X641052Y71418D01*
X647402Y77768D01*
X647805Y78740D01*
X647805Y78740D01*
Y90871D01*
X654999Y98065D01*
X656485Y97289D01*
Y67310D01*
X656888Y66338D01*
X656888Y66338D01*
X674668Y48558D01*
X675640Y48155D01*
X675640Y48155D01*
X704850D01*
X704850Y48155D01*
X705822Y48558D01*
X709632Y52368D01*
X710035Y53340D01*
X710035Y53340D01*
Y78740D01*
X709632Y79712D01*
X709632Y79712D01*
X686772Y102572D01*
X685800Y102975D01*
X685800Y102975D01*
X662171D01*
X661395Y104460D01*
X676612Y119678D01*
X677015Y120650D01*
X677015Y120650D01*
Y145481D01*
X688042Y156508D01*
X688445Y157480D01*
X688445Y157480D01*
Y185420D01*
X688042Y186392D01*
X688042Y186392D01*
X685502Y188932D01*
X684530Y189335D01*
X684530Y189335D01*
X665480D01*
X665480Y189335D01*
X664508Y188932D01*
X660698Y185122D01*
X660295Y184150D01*
X660295Y184150D01*
Y161859D01*
X650538Y152102D01*
X650135Y151130D01*
X650135Y151130D01*
X650135Y122489D01*
X629351Y101705D01*
X617952D01*
X617290Y103305D01*
X635308Y121323D01*
X636031Y122404D01*
X636284Y123680D01*
Y126390D01*
X641970D01*
Y147930D01*
X623930D01*
Y126390D01*
X628961D01*
X629345Y124790D01*
X607506Y102951D01*
X605646D01*
Y103887D01*
X587175D01*
X585606Y103887D01*
X585575Y105474D01*
Y106460D01*
X585606Y108047D01*
X605646D01*
Y109493D01*
X608887D01*
X608887Y109493D01*
X609968Y109707D01*
X610884Y110320D01*
X612867Y112303D01*
X612867Y112303D01*
X613479Y113219D01*
X613694Y114300D01*
X613694Y114300D01*
Y138430D01*
X613694Y138430D01*
X613479Y139511D01*
X612867Y140427D01*
X612867Y140427D01*
X611597Y141697D01*
X610681Y142309D01*
X609600Y142524D01*
X609600Y142524D01*
X605590D01*
Y145720D01*
X605090D01*
Y156900D01*
X593550D01*
Y156823D01*
X590090D01*
Y156900D01*
X578550D01*
Y151971D01*
X577850D01*
X577042Y151810D01*
X576434Y151404D01*
X576118Y151468D01*
X574834Y152092D01*
Y175149D01*
X597568Y197883D01*
X714376D01*
Y195447D01*
X716812D01*
Y189920D01*
X714440D01*
Y178380D01*
X716876D01*
Y129645D01*
X716280D01*
X715308Y129242D01*
X715308Y129242D01*
X712768Y126702D01*
X712768Y126702D01*
X712365Y125730D01*
X712365Y125730D01*
X712365Y15240D01*
X712365Y15240D01*
X712768Y14268D01*
X712768Y14268D01*
X721658Y5378D01*
X722630Y4975D01*
X722630Y4975D01*
X895350D01*
X895350Y4975D01*
X896322Y5378D01*
X896322Y5378D01*
X901402Y10458D01*
X901805Y11430D01*
X901805Y11430D01*
X901805Y90871D01*
X911159Y100225D01*
X984250D01*
X984250Y100225D01*
X985222Y100628D01*
X985222Y100628D01*
X990302Y105708D01*
X990705Y106680D01*
X990705Y106680D01*
Y855583D01*
X990577Y855890D01*
X990548Y856221D01*
X990384Y856358D01*
X990302Y856555D01*
X989995Y856682D01*
X989740Y856895D01*
X950389Y869192D01*
X950308Y869185D01*
X949515Y869780D01*
X949093Y869888D01*
X948690Y870055D01*
X875030D01*
X875030Y870055D01*
X874058Y869652D01*
X874058Y869652D01*
X872788Y868382D01*
X872385Y867410D01*
X872385Y867410D01*
Y861060D01*
X872385Y861060D01*
X872788Y860088D01*
X872788Y860088D01*
X874058Y858818D01*
X875030Y858415D01*
X875030Y858415D01*
X890971D01*
X891435Y857951D01*
Y850199D01*
X890971Y849735D01*
X871220D01*
X871220Y849735D01*
X871217Y849734D01*
X870066Y849438D01*
X868819Y850165D01*
X868382Y850602D01*
X867410Y851005D01*
X867410Y851005D01*
X848653Y851005D01*
Y914733D01*
X848244Y916789D01*
X847079Y918532D01*
X846142Y919470D01*
X844399Y920634D01*
X842343Y921043D01*
X629606D01*
X625133Y925516D01*
Y952667D01*
Y980440D01*
X624724Y982496D01*
X623559Y984240D01*
X615939Y991860D01*
X614196Y993024D01*
X612140Y993433D01*
D02*
G37*
G36*
X865659Y867996D02*
X853059D01*
X852388Y867863D01*
X851819Y867483D01*
X851439Y866914D01*
X851305Y866243D01*
Y861142D01*
X851439Y860471D01*
X851819Y859902D01*
X852388Y859522D01*
X853059Y859389D01*
X865659D01*
X866330Y859522D01*
X866899Y859902D01*
X867279Y860471D01*
X867412Y861142D01*
Y866243D01*
X867279Y866914D01*
X866899Y867483D01*
X866330Y867863D01*
X865659Y867996D01*
D02*
G37*
G36*
X516611Y783624D02*
X501371D01*
Y779298D01*
X499771Y778522D01*
X498689Y778970D01*
X496991D01*
X495421Y778320D01*
X494220Y777119D01*
X493570Y775549D01*
Y773851D01*
X494220Y772281D01*
X495421Y771080D01*
X496991Y770430D01*
X498689D01*
X499771Y770878D01*
X501371Y770102D01*
Y767114D01*
X516611D01*
Y783624D01*
D02*
G37*
G36*
X539471D02*
X524231D01*
Y767114D01*
X539471D01*
Y773259D01*
X541321D01*
Y769599D01*
X552861D01*
Y769676D01*
X557131D01*
X558103Y770079D01*
X558506Y771051D01*
Y779687D01*
X558103Y780659D01*
X557131Y781062D01*
X552861D01*
Y781139D01*
X541321D01*
Y777480D01*
X539471D01*
Y783624D01*
D02*
G37*
G36*
X277709Y679910D02*
X276011D01*
X274441Y679260D01*
X273240Y678059D01*
X272590Y676489D01*
Y674791D01*
X273240Y673221D01*
X274441Y672020D01*
X274749Y671892D01*
Y669767D01*
X272407D01*
Y650227D01*
X280947D01*
Y669767D01*
X278971D01*
Y671892D01*
X279279Y672020D01*
X280480Y673221D01*
X281130Y674791D01*
Y676489D01*
X280480Y678059D01*
X279279Y679260D01*
X277709Y679910D01*
D02*
G37*
G36*
X265009D02*
X263311D01*
X261741Y679260D01*
X260540Y678059D01*
X259890Y676489D01*
Y674791D01*
X260540Y673221D01*
X261741Y672020D01*
X262049Y671892D01*
Y669767D01*
X259707D01*
Y650227D01*
X268247D01*
Y669767D01*
X266271D01*
Y671892D01*
X266579Y672020D01*
X267780Y673221D01*
X268430Y674791D01*
Y676489D01*
X267780Y678059D01*
X266579Y679260D01*
X265009Y679910D01*
D02*
G37*
G36*
X456306Y640937D02*
X445266D01*
Y626396D01*
X448676D01*
Y623481D01*
X448431Y623380D01*
X447230Y622179D01*
X446580Y620609D01*
Y618911D01*
X447230Y617341D01*
X448431Y616140D01*
X450001Y615490D01*
X451699D01*
X453269Y616140D01*
X454470Y617341D01*
X455120Y618911D01*
Y620609D01*
X454470Y622179D01*
X453269Y623380D01*
X452897Y623534D01*
Y626396D01*
X456306D01*
Y640937D01*
D02*
G37*
G36*
X843280Y793855D02*
X843280Y793855D01*
X811530D01*
X810558Y793452D01*
X810558Y793452D01*
X804208Y787102D01*
X803805Y786130D01*
X803805Y786130D01*
Y753781D01*
X748745D01*
X746456Y753480D01*
X744322Y752596D01*
X742490Y751190D01*
X730345Y739045D01*
X728939Y737213D01*
X728056Y735079D01*
X727754Y732790D01*
Y463404D01*
X623665Y359315D01*
X622259Y357483D01*
X621376Y355349D01*
X621074Y353060D01*
Y349393D01*
X592393D01*
Y397213D01*
X591906Y399660D01*
X590520Y401734D01*
X581734Y410520D01*
X579660Y411906D01*
X577213Y412393D01*
X555616D01*
Y412847D01*
X555540D01*
Y416307D01*
X555616D01*
Y427847D01*
X546889D01*
X546724Y427957D01*
X545917Y428117D01*
X545916Y428117D01*
X537781D01*
Y433627D01*
X521272D01*
Y418387D01*
X537781D01*
Y423896D01*
X544076D01*
Y416307D01*
X544154D01*
Y412847D01*
X544076D01*
Y401307D01*
X546661D01*
X548477Y400094D01*
X550923Y399607D01*
X574565D01*
X579607Y394565D01*
Y349393D01*
X560691D01*
X556886Y353198D01*
Y355697D01*
X556809D01*
Y359157D01*
X556886D01*
Y370697D01*
X548159D01*
X547994Y370807D01*
X547187Y370967D01*
X547187Y370967D01*
X537781D01*
Y376477D01*
X521272D01*
Y361237D01*
X537781D01*
Y366746D01*
X545346D01*
Y359157D01*
X545424D01*
Y355697D01*
X545346D01*
Y352577D01*
X545210Y352373D01*
X544724Y349927D01*
X545210Y347480D01*
X545346Y347276D01*
Y344157D01*
X547846D01*
X553523Y338480D01*
X555597Y337094D01*
X558043Y336607D01*
X621074D01*
Y276714D01*
X557676Y213316D01*
X441814D01*
X426465Y228665D01*
X424633Y230071D01*
X422499Y230954D01*
X420210Y231256D01*
X407727D01*
X407372Y232112D01*
X407372Y232112D01*
X405467Y234017D01*
X404495Y234420D01*
X404495Y234420D01*
X402546D01*
Y521000D01*
Y563880D01*
X402244Y566169D01*
X401361Y568303D01*
X399955Y570135D01*
X399955Y570135D01*
X385985Y584105D01*
X384153Y585511D01*
X382019Y586394D01*
X379730Y586696D01*
X371130D01*
Y587270D01*
X357790D01*
Y583564D01*
X356800Y582273D01*
X355916Y580139D01*
X355614Y577850D01*
X355916Y575561D01*
X356800Y573427D01*
X357790Y572136D01*
Y568430D01*
X371130D01*
Y569004D01*
X376066D01*
X384854Y560216D01*
Y523111D01*
X135186D01*
Y658279D01*
X138846D01*
Y658356D01*
X142305D01*
Y658279D01*
X152549D01*
Y654584D01*
X165889D01*
Y673424D01*
X152549D01*
Y669818D01*
X142305D01*
Y669741D01*
X138846D01*
Y669818D01*
X127306D01*
Y658279D01*
X130965D01*
Y521937D01*
X130965Y521937D01*
X131126Y521130D01*
X131583Y520445D01*
X132521Y519508D01*
X132521Y519508D01*
X133205Y519050D01*
X134013Y518889D01*
X384854D01*
Y234420D01*
X360614Y234420D01*
X358407Y236627D01*
X358520Y237359D01*
X359535Y238027D01*
X360277Y238254D01*
X361637Y237983D01*
X363303Y238315D01*
X364715Y239258D01*
X365659Y240671D01*
X365821Y241486D01*
X367452D01*
X367614Y240671D01*
X368558Y239258D01*
X369971Y238315D01*
X371637Y237983D01*
X373303Y238315D01*
X374715Y239258D01*
X375659Y240671D01*
X375990Y242337D01*
Y254337D01*
X375659Y256003D01*
X374715Y257415D01*
X373303Y258359D01*
X371637Y258690D01*
X369971Y258359D01*
X368558Y257415D01*
X367614Y256003D01*
X367452Y255188D01*
X365821D01*
X365659Y256003D01*
X364715Y257415D01*
X363303Y258359D01*
X361637Y258690D01*
X359971Y258359D01*
X359210Y257851D01*
X357896Y258339D01*
X357556Y258576D01*
X357207Y259417D01*
X357207D01*
X355937Y260687D01*
X354965Y261090D01*
X354965Y261090D01*
X339725D01*
X339725Y261090D01*
X338753Y260687D01*
X338753Y260687D01*
X337483Y259417D01*
X337080Y258445D01*
X337080Y258445D01*
Y256536D01*
X336705Y256395D01*
X335480Y256270D01*
X334715Y257415D01*
X333303Y258359D01*
X331637Y258690D01*
X329971Y258359D01*
X328558Y257415D01*
X327614Y256003D01*
X327452Y255188D01*
X325821D01*
X325659Y256003D01*
X324715Y257415D01*
X323303Y258359D01*
X321637Y258690D01*
X319971Y258359D01*
X318558Y257415D01*
X317614Y256003D01*
X317452Y255188D01*
X315821D01*
X315659Y256003D01*
X314715Y257415D01*
X313303Y258359D01*
X311637Y258690D01*
X309971Y258359D01*
X308558Y257415D01*
X307614Y256003D01*
X307452Y255188D01*
X305821D01*
X305659Y256003D01*
X304715Y257415D01*
X303303Y258359D01*
X301637Y258690D01*
X299971Y258359D01*
X298558Y257415D01*
X297614Y256003D01*
X297452Y255188D01*
X295821D01*
X295659Y256003D01*
X294715Y257415D01*
X293303Y258359D01*
X291637Y258690D01*
X289971Y258359D01*
X288558Y257415D01*
X287614Y256003D01*
X287452Y255188D01*
X285821D01*
X285659Y256003D01*
X284715Y257415D01*
X283303Y258359D01*
X281637Y258690D01*
X279971Y258359D01*
X278558Y257415D01*
X277614Y256003D01*
X277452Y255188D01*
X275821D01*
X275659Y256003D01*
X274715Y257415D01*
X273303Y258359D01*
X271637Y258690D01*
X269971Y258359D01*
X268558Y257415D01*
X267614Y256003D01*
X267452Y255188D01*
X265821D01*
X265659Y256003D01*
X264715Y257415D01*
X263303Y258359D01*
X261637Y258690D01*
X259971Y258359D01*
X258558Y257415D01*
X257614Y256003D01*
X257452Y255187D01*
X255821D01*
X255658Y256003D01*
X254715Y257415D01*
X253302Y258359D01*
X251636Y258690D01*
X249970Y258359D01*
X248558Y257415D01*
X247614Y256003D01*
X247452Y255188D01*
X245821D01*
X245658Y256003D01*
X244715Y257415D01*
X243302Y258359D01*
X241636Y258690D01*
X239970Y258359D01*
X238558Y257415D01*
X237614Y256003D01*
X237452Y255188D01*
X235821D01*
X235659Y256003D01*
X234715Y257415D01*
X233302Y258359D01*
X231636Y258690D01*
X229970Y258359D01*
X228558Y257415D01*
X227614Y256003D01*
X227452Y255188D01*
X225821D01*
X225659Y256003D01*
X224715Y257415D01*
X223302Y258359D01*
X221636Y258690D01*
X219970Y258359D01*
X218558Y257415D01*
X217614Y256003D01*
X217452Y255188D01*
X215821D01*
X215659Y256003D01*
X214715Y257415D01*
X213302Y258359D01*
X211636Y258690D01*
X209970Y258359D01*
X208558Y257415D01*
X207614Y256003D01*
X207452Y255188D01*
X205821D01*
X205659Y256003D01*
X204715Y257415D01*
X203302Y258359D01*
X201636Y258690D01*
X199970Y258359D01*
X198558Y257415D01*
X197614Y256003D01*
X197452Y255188D01*
X195821D01*
X195659Y256003D01*
X194715Y257415D01*
X193302Y258359D01*
X191636Y258690D01*
X189970Y258359D01*
X188558Y257415D01*
X187614Y256003D01*
X187452Y255188D01*
X185821D01*
X185659Y256003D01*
X184715Y257415D01*
X183302Y258359D01*
X181636Y258690D01*
X179970Y258359D01*
X178558Y257415D01*
X177614Y256003D01*
X177452Y255188D01*
X175821D01*
X175659Y256003D01*
X174715Y257415D01*
X173302Y258359D01*
X171636Y258690D01*
X169970Y258359D01*
X168558Y257415D01*
X167614Y256003D01*
X167452Y255188D01*
X165821D01*
X165659Y256003D01*
X164715Y257415D01*
X163302Y258359D01*
X161637Y258690D01*
X159970Y258359D01*
X158558Y257415D01*
X157614Y256003D01*
X157283Y254337D01*
Y242337D01*
X157614Y240671D01*
X158109Y239931D01*
X157286Y238331D01*
X111684D01*
X93590Y256425D01*
Y268280D01*
X92430D01*
Y270878D01*
X92430Y270878D01*
X92270Y271686D01*
X91812Y272371D01*
X91812Y272371D01*
X82230Y281953D01*
Y291008D01*
X81730D01*
Y301680D01*
X70190D01*
Y301603D01*
X66730D01*
Y301680D01*
X64358D01*
X63695Y303280D01*
X72641Y312226D01*
X105911D01*
X106558Y311258D01*
X107971Y310314D01*
X108785Y310152D01*
Y308521D01*
X107971Y308359D01*
X106558Y307415D01*
X105873Y306391D01*
X101579D01*
X101527Y306516D01*
X100326Y307717D01*
X98757Y308367D01*
X97058D01*
X95489Y307717D01*
X94287Y306516D01*
X93637Y304947D01*
Y303248D01*
X94287Y301679D01*
X95489Y300477D01*
X97058Y299827D01*
X98757D01*
X100326Y300477D01*
X101527Y301679D01*
X101731Y302170D01*
X105949D01*
X106558Y301258D01*
X107971Y300315D01*
X108785Y300152D01*
Y298521D01*
X107971Y298359D01*
X106558Y297415D01*
X105614Y296003D01*
X105283Y294337D01*
X105614Y292671D01*
X106558Y291258D01*
X107971Y290315D01*
X109637Y289983D01*
X121636D01*
X123303Y290315D01*
X124715Y291258D01*
X125659Y292671D01*
X125990Y294337D01*
X125659Y296003D01*
X124715Y297415D01*
X123303Y298359D01*
X122488Y298521D01*
Y300152D01*
X123303Y300315D01*
X124715Y301258D01*
X125659Y302671D01*
X125990Y304337D01*
X125659Y306003D01*
X124715Y307415D01*
X123303Y308359D01*
X122488Y308521D01*
Y310152D01*
X123303Y310314D01*
X124715Y311258D01*
X125659Y312671D01*
X125990Y314337D01*
X125659Y316003D01*
X124715Y317415D01*
X123303Y318359D01*
X122488Y318521D01*
Y320152D01*
X123303Y320314D01*
X124715Y321258D01*
X125659Y322671D01*
X125990Y324337D01*
X125659Y326003D01*
X124715Y327415D01*
X123303Y328359D01*
X122488Y328521D01*
Y330152D01*
X123303Y330314D01*
X124715Y331258D01*
X125659Y332671D01*
X125990Y334337D01*
X125659Y336003D01*
X124715Y337415D01*
X123303Y338359D01*
X122488Y338521D01*
Y340152D01*
X123303Y340314D01*
X124715Y341258D01*
X125659Y342671D01*
X125990Y344337D01*
X125659Y346003D01*
X124715Y347415D01*
X123586Y348169D01*
X123306Y349364D01*
X123309Y349989D01*
X123947Y350493D01*
X138054D01*
X139015Y349532D01*
X140952Y348730D01*
X143048D01*
X144985Y349532D01*
X146468Y351015D01*
X147270Y352952D01*
Y355048D01*
X146468Y356985D01*
X144985Y358468D01*
X143048Y359270D01*
X140952D01*
X139015Y358468D01*
X138728Y358181D01*
X123570D01*
X123303Y358359D01*
X122488Y358521D01*
Y360152D01*
X123303Y360314D01*
X124715Y361258D01*
X125659Y362671D01*
X125990Y364337D01*
X125659Y366003D01*
X124715Y367415D01*
X123303Y368359D01*
X122488Y368521D01*
Y370152D01*
X123303Y370314D01*
X124715Y371258D01*
X125659Y372671D01*
X125990Y374337D01*
X125659Y376003D01*
X124715Y377415D01*
X123303Y378359D01*
X122488Y378521D01*
Y380152D01*
X123303Y380314D01*
X124715Y381258D01*
X125659Y382671D01*
X125990Y384337D01*
X125659Y386003D01*
X124715Y387415D01*
X123303Y388359D01*
X122486Y388521D01*
Y390153D01*
X123303Y390315D01*
X124715Y391259D01*
X125659Y392671D01*
X125990Y394337D01*
X125659Y396003D01*
X124715Y397416D01*
X123303Y398359D01*
X122488Y398521D01*
Y400153D01*
X123303Y400315D01*
X124715Y401259D01*
X125659Y402671D01*
X125990Y404337D01*
X125659Y406003D01*
X124715Y407416D01*
X123303Y408359D01*
X122488Y408521D01*
Y410153D01*
X123303Y410315D01*
X124715Y411259D01*
X125659Y412671D01*
X125990Y414337D01*
X125659Y416003D01*
X124715Y417416D01*
X123303Y418359D01*
X122488Y418521D01*
Y420153D01*
X123303Y420315D01*
X124715Y421259D01*
X125659Y422671D01*
X125990Y424337D01*
X125659Y426003D01*
X124715Y427416D01*
X123303Y428359D01*
X122488Y428521D01*
Y430153D01*
X123303Y430315D01*
X124715Y431259D01*
X125659Y432671D01*
X125990Y434337D01*
X125659Y436003D01*
X124715Y437415D01*
X123303Y438359D01*
X122488Y438521D01*
Y440153D01*
X123303Y440315D01*
X124715Y441259D01*
X125659Y442671D01*
X125990Y444337D01*
X125659Y446003D01*
X124715Y447415D01*
X123303Y448359D01*
X122488Y448521D01*
Y450153D01*
X123303Y450315D01*
X124715Y451258D01*
X125659Y452671D01*
X125990Y454337D01*
X125659Y456003D01*
X124715Y457415D01*
X123303Y458359D01*
X122488Y458521D01*
Y460153D01*
X123303Y460315D01*
X124715Y461258D01*
X125523Y462468D01*
X129703D01*
X129730Y462401D01*
X130931Y461200D01*
X132501Y460550D01*
X134199D01*
X135769Y461200D01*
X136970Y462401D01*
X137620Y463971D01*
Y465669D01*
X136970Y467239D01*
X135769Y468440D01*
X134199Y469090D01*
X132501D01*
X130931Y468440D01*
X129730Y467239D01*
X129502Y466689D01*
X125200D01*
X124715Y467415D01*
X123303Y468359D01*
X122488Y468521D01*
Y470153D01*
X123303Y470315D01*
X124715Y471258D01*
X125577Y472548D01*
X129743D01*
X130931Y471360D01*
X132501Y470710D01*
X134199D01*
X135769Y471360D01*
X136970Y472561D01*
X137620Y474131D01*
Y475829D01*
X136970Y477399D01*
X135769Y478600D01*
X134199Y479250D01*
X132501D01*
X130931Y478600D01*
X129730Y477399D01*
X129469Y476769D01*
X125147D01*
X124715Y477415D01*
X123303Y478359D01*
X122488Y478521D01*
Y480153D01*
X123303Y480315D01*
X124715Y481258D01*
X125659Y482671D01*
X125662Y482686D01*
X127262Y482529D01*
Y482337D01*
X127664Y481365D01*
X128637Y480962D01*
X152636D01*
X153609Y481365D01*
X154011Y482337D01*
Y506337D01*
X153609Y507309D01*
X152636Y507711D01*
X128637D01*
X127664Y507309D01*
X127262Y506337D01*
Y496145D01*
X125662Y495988D01*
X125659Y496003D01*
X124715Y497415D01*
X123303Y498359D01*
X121636Y498690D01*
X109637D01*
X107971Y498359D01*
X106558Y497415D01*
X105614Y496003D01*
X105283Y494337D01*
X105614Y492671D01*
X106558Y491258D01*
X107971Y490315D01*
X108785Y490153D01*
Y488521D01*
X107971Y488359D01*
X106558Y487415D01*
X105614Y486003D01*
X105283Y484337D01*
X105614Y482671D01*
X106558Y481258D01*
X107971Y480315D01*
X108785Y480153D01*
Y478521D01*
X107971Y478359D01*
X106558Y477415D01*
X105614Y476003D01*
X105283Y474337D01*
X105614Y472671D01*
X106558Y471258D01*
X107971Y470315D01*
X108785Y470153D01*
Y468521D01*
X107971Y468359D01*
X106558Y467415D01*
X105614Y466003D01*
X105283Y464337D01*
X105614Y462671D01*
X106558Y461258D01*
X107971Y460315D01*
X108785Y460153D01*
Y458521D01*
X107971Y458359D01*
X106558Y457415D01*
X105614Y456003D01*
X105283Y454337D01*
X105614Y452671D01*
X106558Y451258D01*
X107971Y450315D01*
X108785Y450153D01*
Y448521D01*
X107971Y448359D01*
X106558Y447415D01*
X105614Y446003D01*
X105283Y444337D01*
X105614Y442671D01*
X106558Y441259D01*
X107971Y440315D01*
X108785Y440153D01*
Y438521D01*
X107971Y438359D01*
X106558Y437415D01*
X105614Y436003D01*
X105283Y434337D01*
X105614Y432671D01*
X106558Y431259D01*
X107971Y430315D01*
X108785Y430153D01*
Y428521D01*
X107971Y428359D01*
X106558Y427416D01*
X105614Y426003D01*
X105283Y424337D01*
X105614Y422671D01*
X106558Y421259D01*
X107971Y420315D01*
X108785Y420153D01*
Y418521D01*
X107971Y418359D01*
X106558Y417416D01*
X105614Y416003D01*
X105283Y414337D01*
X105614Y412671D01*
X106558Y411259D01*
X107971Y410315D01*
X108785Y410153D01*
Y408521D01*
X107971Y408359D01*
X106558Y407416D01*
X105614Y406003D01*
X105283Y404337D01*
X105614Y402671D01*
X106558Y401259D01*
X107971Y400315D01*
X108785Y400153D01*
Y398521D01*
X107971Y398359D01*
X106558Y397416D01*
X105614Y396003D01*
X105283Y394337D01*
X105614Y392671D01*
X106558Y391259D01*
X107971Y390315D01*
X108787Y390153D01*
Y388521D01*
X107971Y388359D01*
X106558Y387415D01*
X105614Y386003D01*
X105283Y384337D01*
X105614Y382671D01*
X106558Y381258D01*
X107971Y380314D01*
X108785Y380152D01*
Y378521D01*
X107971Y378359D01*
X106558Y377415D01*
X105614Y376003D01*
X105283Y374337D01*
X105614Y372671D01*
X106558Y371258D01*
X107971Y370314D01*
X108785Y370152D01*
Y368521D01*
X107971Y368359D01*
X106558Y367415D01*
X105614Y366003D01*
X105283Y364337D01*
X105614Y362671D01*
X106558Y361258D01*
X107971Y360314D01*
X108785Y360152D01*
Y358521D01*
X107971Y358359D01*
X106558Y357415D01*
X105614Y356003D01*
X105283Y354337D01*
X105614Y352671D01*
X106558Y351258D01*
X107971Y350314D01*
X108785Y350152D01*
Y348521D01*
X107971Y348359D01*
X106558Y347415D01*
X105614Y346003D01*
X105283Y344337D01*
X105614Y342671D01*
X106558Y341258D01*
X107971Y340314D01*
X108785Y340152D01*
Y338521D01*
X107971Y338359D01*
X106558Y337415D01*
X105911Y336447D01*
X77797D01*
X76989Y336287D01*
X76304Y335829D01*
X45498Y305022D01*
X45040Y304338D01*
X44879Y303530D01*
X44879Y303530D01*
Y184270D01*
X44879Y184270D01*
X45040Y183463D01*
X45498Y182778D01*
X50698Y177578D01*
X50698Y177578D01*
X51383Y177120D01*
X52190Y176959D01*
X52190Y176959D01*
X55310D01*
Y173300D01*
X63892D01*
X65173Y172212D01*
Y163068D01*
X65576Y162096D01*
X66548Y161693D01*
X69810D01*
Y161620D01*
X82350D01*
Y165529D01*
X184150D01*
X184150Y165529D01*
X184958Y165690D01*
X185642Y166148D01*
X191992Y172498D01*
X191992Y172498D01*
X192450Y173182D01*
X192611Y173990D01*
Y198990D01*
X195830D01*
X196270Y198990D01*
X197430D01*
X197870Y198990D01*
X208530D01*
X208970Y198990D01*
X210130D01*
X210570Y198990D01*
X221670D01*
Y215030D01*
X210570D01*
X210130Y215030D01*
X208970D01*
X208530Y215030D01*
X205311D01*
Y229870D01*
X205150Y230678D01*
X204692Y231362D01*
X204692Y231362D01*
X199049Y237006D01*
X199970Y238315D01*
X201636Y237983D01*
X203302Y238315D01*
X204715Y239258D01*
X205659Y240671D01*
X205821Y241486D01*
X207452D01*
X207614Y240671D01*
X208558Y239258D01*
X209970Y238315D01*
X211636Y237983D01*
X213302Y238315D01*
X214715Y239258D01*
X215659Y240671D01*
X215821Y241486D01*
X217452D01*
X217614Y240671D01*
X218558Y239258D01*
X219970Y238315D01*
X221636Y237983D01*
X223302Y238315D01*
X224715Y239258D01*
X225659Y240671D01*
X225821Y241486D01*
X227452D01*
X227614Y240671D01*
X228558Y239258D01*
X229970Y238315D01*
X231636Y237983D01*
X233302Y238315D01*
X234715Y239258D01*
X235659Y240671D01*
X235821Y241486D01*
X237452D01*
X237614Y240671D01*
X238558Y239258D01*
X239970Y238315D01*
X241636Y237983D01*
X243302Y238315D01*
X244715Y239258D01*
X245658Y240671D01*
X245821Y241486D01*
X247452D01*
X247614Y240671D01*
X248558Y239258D01*
X249970Y238315D01*
X251636Y237983D01*
X253302Y238315D01*
X254715Y239258D01*
X255658Y240671D01*
X255821Y241487D01*
X257452D01*
X257614Y240671D01*
X258558Y239258D01*
X259971Y238315D01*
X261637Y237983D01*
X263303Y238315D01*
X264715Y239258D01*
X265659Y240671D01*
X265821Y241486D01*
X267452D01*
X267614Y240671D01*
X268558Y239258D01*
X269971Y238315D01*
X271637Y237983D01*
X273303Y238315D01*
X274715Y239258D01*
X275659Y240671D01*
X275821Y241486D01*
X277452D01*
X277614Y240671D01*
X278558Y239258D01*
X279971Y238315D01*
X281637Y237983D01*
X283303Y238315D01*
X284715Y239258D01*
X285659Y240671D01*
X285821Y241486D01*
X287452D01*
X287614Y240671D01*
X288558Y239258D01*
X289971Y238315D01*
X291637Y237983D01*
X293303Y238315D01*
X294715Y239258D01*
X295659Y240671D01*
X295821Y241486D01*
X297452D01*
X297614Y240671D01*
X298558Y239258D01*
X299971Y238315D01*
X301637Y237983D01*
X303303Y238315D01*
X304715Y239258D01*
X305659Y240671D01*
X305821Y241486D01*
X307452D01*
X307614Y240671D01*
X308558Y239258D01*
X309971Y238315D01*
X311637Y237983D01*
X313303Y238315D01*
X314715Y239258D01*
X315659Y240671D01*
X315821Y241486D01*
X317452D01*
X317614Y240671D01*
X318558Y239258D01*
X319971Y238315D01*
X321637Y237983D01*
X323303Y238315D01*
X324715Y239258D01*
X325659Y240671D01*
X325821Y241486D01*
X327452D01*
X327614Y240671D01*
X328558Y239258D01*
X329971Y238315D01*
X331637Y237983D01*
X333303Y238315D01*
X334715Y239258D01*
X335480Y240404D01*
X336705Y240278D01*
X337080Y240138D01*
Y237424D01*
X334076Y234420D01*
X306705D01*
X306705Y234420D01*
X305733Y234017D01*
X305733Y234017D01*
X304463Y232747D01*
X304060Y231775D01*
X304060Y231775D01*
Y213995D01*
X304060Y213995D01*
X304463Y213023D01*
X304463Y213023D01*
X305733Y211753D01*
X306705Y211350D01*
X306705Y211350D01*
X335620Y211350D01*
Y209345D01*
X336022Y208373D01*
X336995Y207970D01*
X346138D01*
X347110Y208373D01*
X347513Y209345D01*
Y211350D01*
X404495Y211350D01*
X404495Y211350D01*
X405467Y211753D01*
X405467Y211753D01*
X407278Y213564D01*
X416546D01*
X431895Y198215D01*
X433727Y196809D01*
X435861Y195926D01*
X438150Y195624D01*
X561340D01*
X563629Y195926D01*
X565763Y196809D01*
X567595Y198215D01*
X636175Y266795D01*
X636175Y266795D01*
X637581Y268627D01*
X638464Y270761D01*
X638766Y273050D01*
X638766Y273050D01*
Y343000D01*
Y349396D01*
X742855Y453485D01*
X744261Y455317D01*
X745144Y457451D01*
X745446Y459740D01*
Y729126D01*
X752409Y736090D01*
X803805D01*
Y671830D01*
X804208Y670858D01*
X804208Y670858D01*
X810558Y664508D01*
X811530Y664105D01*
X811530Y664105D01*
X840919D01*
X841936Y662505D01*
X841905Y662432D01*
Y541528D01*
X842308Y540556D01*
X843280Y540153D01*
X894080D01*
X895052Y540556D01*
X895455Y541528D01*
Y573711D01*
X896421Y574125D01*
X897055Y574201D01*
X899458Y571798D01*
X900430Y571395D01*
X900430Y571395D01*
X924870D01*
Y497260D01*
X921210D01*
Y497183D01*
X917750D01*
Y497260D01*
X906210D01*
Y491730D01*
X885277D01*
Y498139D01*
X876737D01*
Y481099D01*
X885277D01*
Y487509D01*
X906210D01*
Y474290D01*
Y462860D01*
X909707D01*
X909762Y462853D01*
X910013Y462343D01*
X909019Y460743D01*
X904997D01*
Y456771D01*
X893684D01*
X870956Y479499D01*
X871618Y481099D01*
X872577D01*
Y498139D01*
X864037D01*
Y481099D01*
X866196D01*
Y479164D01*
X866196Y479163D01*
X866357Y478356D01*
X866814Y477671D01*
X891318Y453168D01*
X891318Y453168D01*
X892002Y452710D01*
X892810Y452549D01*
X892810Y452549D01*
X904997D01*
Y448703D01*
X909156D01*
Y446773D01*
X904997D01*
Y434734D01*
X917537D01*
Y434806D01*
X919997D01*
Y434734D01*
X932537D01*
Y446773D01*
X919997D01*
Y446700D01*
X917537D01*
Y446773D01*
X913377D01*
Y448703D01*
X917537D01*
Y448777D01*
X919997D01*
Y448703D01*
X932537D01*
Y460743D01*
X923983D01*
X923626Y461260D01*
X924465Y462860D01*
X932750D01*
Y474400D01*
X924571D01*
X923395Y475742D01*
Y484378D01*
X924571Y485720D01*
X932750D01*
Y497260D01*
X929091D01*
Y571395D01*
X932180D01*
X932180Y571395D01*
X933152Y571798D01*
X936962Y575608D01*
X937365Y576580D01*
X937365Y576580D01*
Y687070D01*
X936962Y688042D01*
X936962Y688042D01*
X930612Y694392D01*
X929640Y694795D01*
X929640Y694795D01*
X861629D01*
X849735Y706689D01*
Y787400D01*
X849735Y787400D01*
X849332Y788372D01*
X849332Y788372D01*
X844252Y793452D01*
X843280Y793855D01*
D02*
G37*
G36*
X187819Y683255D02*
X176279D01*
Y673715D01*
X175349Y673424D01*
Y654584D01*
X176029D01*
Y642374D01*
X176103D01*
Y639914D01*
X176029D01*
Y628974D01*
X175349D01*
Y610134D01*
X176029D01*
Y597924D01*
X176108D01*
Y595464D01*
X176029D01*
Y582924D01*
X174846Y582747D01*
Y563907D01*
X179526D01*
Y560062D01*
X178558Y559415D01*
X177614Y558003D01*
X177452Y557188D01*
X175821D01*
X175659Y558003D01*
X174715Y559415D01*
X173302Y560359D01*
X171636Y560690D01*
X169970Y560359D01*
X168558Y559415D01*
X167614Y558003D01*
X167452Y557188D01*
X165821D01*
X165659Y558003D01*
X164715Y559415D01*
X163302Y560359D01*
X161637Y560690D01*
X159970Y560359D01*
X158558Y559415D01*
X157614Y558003D01*
X157283Y556337D01*
Y544337D01*
X157614Y542671D01*
X158558Y541258D01*
X159970Y540314D01*
X161637Y539983D01*
X163302Y540314D01*
X164715Y541258D01*
X165659Y542671D01*
X165821Y543485D01*
X167452D01*
X167614Y542671D01*
X168558Y541258D01*
X169970Y540314D01*
X171636Y539983D01*
X173302Y540314D01*
X174715Y541258D01*
X175659Y542671D01*
X175821Y543485D01*
X177452D01*
X177614Y542671D01*
X178558Y541258D01*
X179970Y540314D01*
X181636Y539983D01*
X183302Y540314D01*
X184715Y541258D01*
X185659Y542671D01*
X185821Y543485D01*
X187452D01*
X187614Y542671D01*
X188558Y541258D01*
X189970Y540314D01*
X191636Y539983D01*
X193302Y540314D01*
X194715Y541258D01*
X195659Y542671D01*
X195821Y543485D01*
X197452D01*
X197614Y542671D01*
X198558Y541258D01*
X199970Y540314D01*
X201636Y539983D01*
X203302Y540314D01*
X204715Y541258D01*
X205659Y542671D01*
X205821Y543485D01*
X207452D01*
X207614Y542671D01*
X208558Y541258D01*
X209970Y540314D01*
X211636Y539983D01*
X213302Y540314D01*
X214715Y541258D01*
X215659Y542671D01*
X215821Y543485D01*
X217452D01*
X217614Y542671D01*
X218558Y541258D01*
X219970Y540314D01*
X221636Y539983D01*
X223302Y540314D01*
X224715Y541258D01*
X225659Y542671D01*
X225821Y543485D01*
X227452D01*
X227614Y542671D01*
X228558Y541258D01*
X229970Y540314D01*
X231636Y539983D01*
X233302Y540314D01*
X234715Y541258D01*
X235659Y542671D01*
X235821Y543485D01*
X237452D01*
X237614Y542671D01*
X238558Y541258D01*
X239970Y540314D01*
X241636Y539983D01*
X243302Y540314D01*
X244715Y541258D01*
X245658Y542671D01*
X245821Y543485D01*
X247452D01*
X247614Y542671D01*
X248558Y541258D01*
X249970Y540314D01*
X251636Y539983D01*
X253302Y540314D01*
X254715Y541258D01*
X255658Y542671D01*
X255821Y543487D01*
X257452D01*
X257614Y542671D01*
X258558Y541258D01*
X259971Y540314D01*
X261637Y539983D01*
X263303Y540314D01*
X264715Y541258D01*
X265659Y542671D01*
X265821Y543485D01*
X267452D01*
X267614Y542671D01*
X268558Y541258D01*
X269971Y540314D01*
X271637Y539983D01*
X273303Y540314D01*
X274715Y541258D01*
X275659Y542671D01*
X275821Y543485D01*
X277452D01*
X277614Y542671D01*
X278558Y541258D01*
X279971Y540314D01*
X281637Y539983D01*
X283303Y540314D01*
X284715Y541258D01*
X285659Y542671D01*
X285821Y543485D01*
X287452D01*
X287614Y542671D01*
X288558Y541258D01*
X289971Y540314D01*
X291637Y539983D01*
X293303Y540314D01*
X294715Y541258D01*
X295659Y542671D01*
X295821Y543485D01*
X297452D01*
X297614Y542671D01*
X298558Y541258D01*
X299971Y540314D01*
X301637Y539983D01*
X303303Y540314D01*
X304715Y541258D01*
X305659Y542671D01*
X305821Y543485D01*
X307452D01*
X307614Y542671D01*
X308558Y541258D01*
X309971Y540314D01*
X311637Y539983D01*
X313303Y540314D01*
X314715Y541258D01*
X315659Y542671D01*
X315821Y543485D01*
X317452D01*
X317614Y542671D01*
X318558Y541258D01*
X319971Y540314D01*
X321637Y539983D01*
X323303Y540314D01*
X324715Y541258D01*
X325659Y542671D01*
X325821Y543485D01*
X327452D01*
X327614Y542671D01*
X328558Y541258D01*
X329971Y540314D01*
X331637Y539983D01*
X333303Y540314D01*
X334715Y541258D01*
X334845Y541453D01*
X336445Y540968D01*
Y539750D01*
X336848Y538778D01*
X336848Y538778D01*
X339388Y536238D01*
X340360Y535835D01*
X340360Y535835D01*
X354330D01*
X355302Y536238D01*
X355302Y536238D01*
X357842Y538778D01*
X358178Y539588D01*
X358426Y539823D01*
X359845Y540399D01*
X359971Y540314D01*
X361637Y539983D01*
X363303Y540314D01*
X364715Y541258D01*
X365659Y542671D01*
X365821Y543485D01*
X367452D01*
X367614Y542671D01*
X368558Y541258D01*
X369971Y540314D01*
X371637Y539983D01*
X373303Y540314D01*
X374715Y541258D01*
X375659Y542671D01*
X375990Y544337D01*
Y556337D01*
X375659Y558003D01*
X374715Y559415D01*
X373303Y560359D01*
X371637Y560690D01*
X369971Y560359D01*
X368558Y559415D01*
X367614Y558003D01*
X367452Y557188D01*
X365821D01*
X365659Y558003D01*
X364715Y559415D01*
X363303Y560359D01*
X361637Y560690D01*
X359971Y560359D01*
X359845Y560275D01*
X358272Y561115D01*
X358245Y562610D01*
X358245Y562610D01*
X357842Y563582D01*
X357842Y563582D01*
X349355Y572069D01*
Y588970D01*
X351235D01*
X352207Y589373D01*
X352609Y590345D01*
Y599489D01*
X352207Y600461D01*
X351235Y600863D01*
X349355D01*
Y603250D01*
X349355Y603250D01*
X348952Y604222D01*
X348952Y604222D01*
X347682Y605492D01*
X346710Y605895D01*
X346710Y605895D01*
X273050D01*
X272078Y605492D01*
X272078Y605492D01*
X269538Y602952D01*
X269135Y601980D01*
X269135Y601980D01*
Y589280D01*
X269538Y588308D01*
X269538Y588308D01*
X272078Y585768D01*
X273050Y585365D01*
X273050Y585365D01*
X330901D01*
X332635Y583631D01*
Y568960D01*
X332635Y568960D01*
X333038Y567988D01*
X336445Y564581D01*
Y559706D01*
X334845Y559220D01*
X334715Y559415D01*
X333303Y560359D01*
X331637Y560690D01*
X329971Y560359D01*
X328558Y559415D01*
X327614Y558003D01*
X327452Y557188D01*
X325821D01*
X325659Y558003D01*
X324715Y559415D01*
X323303Y560359D01*
X321637Y560690D01*
X319971Y560359D01*
X318558Y559415D01*
X317614Y558003D01*
X317452Y557188D01*
X315821D01*
X315659Y558003D01*
X314715Y559415D01*
X313303Y560359D01*
X311637Y560690D01*
X309971Y560359D01*
X308558Y559415D01*
X307614Y558003D01*
X307452Y557188D01*
X305821D01*
X305659Y558003D01*
X304715Y559415D01*
X303303Y560359D01*
X301637Y560690D01*
X299971Y560359D01*
X298558Y559415D01*
X297614Y558003D01*
X297452Y557188D01*
X295821D01*
X295659Y558003D01*
X294715Y559415D01*
X294097Y559828D01*
X294155Y561379D01*
X294519Y561530D01*
X295720Y562731D01*
X296370Y564301D01*
Y565999D01*
X295720Y567569D01*
X294519Y568770D01*
X292949Y569420D01*
X291251D01*
X289681Y568770D01*
X288480Y567569D01*
X287830Y565999D01*
Y564301D01*
X288480Y562731D01*
X289532Y561679D01*
X289464Y560020D01*
X289464Y560020D01*
X288558Y559415D01*
X287614Y558003D01*
X287452Y557188D01*
X285821D01*
X285659Y558003D01*
X284715Y559415D01*
X283303Y560359D01*
X281637Y560690D01*
X279971Y560359D01*
X278558Y559415D01*
X277614Y558003D01*
X277452Y557188D01*
X275821D01*
X275659Y558003D01*
X274715Y559415D01*
X273303Y560359D01*
X271637Y560690D01*
X269971Y560359D01*
X268558Y559415D01*
X267614Y558003D01*
X267452Y557188D01*
X265821D01*
X265659Y558003D01*
X264715Y559415D01*
X263948Y559928D01*
X264014Y561520D01*
X264039Y561530D01*
X265240Y562731D01*
X265890Y564301D01*
Y565999D01*
X265240Y567569D01*
X264039Y568770D01*
X262469Y569420D01*
X260771D01*
X259201Y568770D01*
X258000Y567569D01*
X257350Y565999D01*
Y564301D01*
X258000Y562731D01*
X259201Y561530D01*
X259249Y561510D01*
X259315Y559921D01*
X258558Y559415D01*
X257614Y558003D01*
X257452Y557187D01*
X255821D01*
X255658Y558003D01*
X254715Y559415D01*
X253593Y560165D01*
Y561833D01*
X253747Y561897D01*
X254948Y563098D01*
X255598Y564667D01*
Y566366D01*
X254948Y567935D01*
X253747Y569136D01*
X252178Y569786D01*
X250479D01*
X248909Y569136D01*
X247708Y567935D01*
X247058Y566366D01*
Y564667D01*
X247708Y563098D01*
X248909Y561897D01*
X249372Y561705D01*
Y559959D01*
X248558Y559415D01*
X247614Y558003D01*
X247452Y557188D01*
X245821D01*
X245658Y558003D01*
X244715Y559415D01*
X243302Y560359D01*
X241636Y560690D01*
X239970Y560359D01*
X238558Y559415D01*
X237614Y558003D01*
X237452Y557188D01*
X235821D01*
X235659Y558003D01*
X234715Y559415D01*
X233302Y560359D01*
X231636Y560690D01*
X229970Y560359D01*
X228558Y559415D01*
X227614Y558003D01*
X227452Y557188D01*
X225821D01*
X225659Y558003D01*
X224715Y559415D01*
X223302Y560359D01*
X221636Y560690D01*
X219970Y560359D01*
X218558Y559415D01*
X217614Y558003D01*
X217452Y557188D01*
X215821D01*
X215659Y558003D01*
X214715Y559415D01*
X213302Y560359D01*
X211636Y560690D01*
X209970Y560359D01*
X208558Y559415D01*
X207614Y558003D01*
X207452Y557188D01*
X205821D01*
X205659Y558003D01*
X204715Y559415D01*
X203302Y560359D01*
X201636Y560690D01*
X199970Y560359D01*
X198558Y559415D01*
X197614Y558003D01*
X197452Y557188D01*
X195821D01*
X195659Y558003D01*
X194715Y559415D01*
X193302Y560359D01*
X191636Y560690D01*
X189970Y560359D01*
X188558Y559415D01*
X187614Y558003D01*
X187452Y557188D01*
X185821D01*
X185659Y558003D01*
X184715Y559415D01*
X183747Y560062D01*
Y563907D01*
X188186D01*
Y582747D01*
X188186D01*
X188069Y582924D01*
Y595464D01*
X188001D01*
Y597924D01*
X188069D01*
Y610134D01*
X188689D01*
Y628974D01*
X188069D01*
Y639914D01*
X187996D01*
Y642374D01*
X188069D01*
Y654584D01*
X188689D01*
Y673424D01*
X187819Y673715D01*
Y683255D01*
D02*
G37*
G36*
X423636Y508690D02*
X411637D01*
X409970Y508359D01*
X408558Y507415D01*
X407614Y506003D01*
X407283Y504337D01*
X407614Y502671D01*
X408558Y501258D01*
X409970Y500315D01*
X410785Y500153D01*
Y498521D01*
X409970Y498359D01*
X408558Y497415D01*
X407614Y496003D01*
X407283Y494337D01*
X407614Y492671D01*
X408558Y491258D01*
X409970Y490315D01*
X410785Y490153D01*
Y488521D01*
X409970Y488359D01*
X408558Y487415D01*
X407614Y486003D01*
X407283Y484337D01*
X407614Y482671D01*
X408558Y481258D01*
X409970Y480315D01*
X410785Y480153D01*
Y478521D01*
X409970Y478359D01*
X408558Y477415D01*
X407614Y476003D01*
X407283Y474337D01*
X407614Y472671D01*
X408558Y471258D01*
X409970Y470315D01*
X410785Y470153D01*
Y468521D01*
X409970Y468359D01*
X408558Y467415D01*
X407614Y466003D01*
X407283Y464337D01*
X407614Y462671D01*
X408558Y461258D01*
X409970Y460315D01*
X410785Y460153D01*
Y458521D01*
X409970Y458359D01*
X408558Y457415D01*
X407614Y456003D01*
X407283Y454337D01*
X407614Y452671D01*
X408558Y451258D01*
X409970Y450315D01*
X410785Y450153D01*
Y448521D01*
X409970Y448359D01*
X408558Y447415D01*
X407614Y446003D01*
X407283Y444337D01*
X407614Y442671D01*
X408558Y441259D01*
X409970Y440315D01*
X410785Y440153D01*
Y438521D01*
X409970Y438359D01*
X408558Y437415D01*
X407614Y436003D01*
X407283Y434337D01*
X407614Y432671D01*
X408558Y431259D01*
X409970Y430315D01*
X410785Y430153D01*
Y428521D01*
X409970Y428359D01*
X408558Y427416D01*
X407614Y426003D01*
X407283Y424337D01*
X407614Y422671D01*
X408558Y421259D01*
X409970Y420315D01*
X410785Y420153D01*
Y418521D01*
X409970Y418359D01*
X408558Y417416D01*
X407614Y416003D01*
X407283Y414337D01*
X407614Y412671D01*
X408558Y411259D01*
X409970Y410315D01*
X410785Y410153D01*
Y408521D01*
X409970Y408359D01*
X408558Y407416D01*
X407614Y406003D01*
X407283Y404337D01*
X407614Y402671D01*
X408558Y401259D01*
X409970Y400315D01*
X410785Y400153D01*
Y398521D01*
X409970Y398359D01*
X408558Y397416D01*
X407614Y396003D01*
X407283Y394337D01*
X407614Y392671D01*
X408558Y391259D01*
X409970Y390315D01*
X410787Y390153D01*
Y388521D01*
X409970Y388359D01*
X408558Y387415D01*
X407614Y386003D01*
X407283Y384337D01*
X407614Y382671D01*
X408558Y381258D01*
X409970Y380314D01*
X410785Y380152D01*
Y378521D01*
X409970Y378359D01*
X408558Y377415D01*
X407614Y376003D01*
X407283Y374337D01*
X407614Y372671D01*
X408558Y371258D01*
X409970Y370314D01*
X410785Y370152D01*
Y368521D01*
X409970Y368359D01*
X408558Y367415D01*
X407614Y366003D01*
X407283Y364337D01*
X407614Y362671D01*
X408558Y361258D01*
X409970Y360314D01*
X410785Y360152D01*
Y358521D01*
X409970Y358359D01*
X408558Y357415D01*
X407614Y356003D01*
X407283Y354337D01*
X407614Y352671D01*
X408558Y351258D01*
X409970Y350314D01*
X410785Y350152D01*
Y348521D01*
X409970Y348359D01*
X408558Y347415D01*
X407614Y346003D01*
X407283Y344337D01*
X407614Y342671D01*
X408558Y341258D01*
X409970Y340314D01*
X410785Y340152D01*
Y338521D01*
X409970Y338359D01*
X408558Y337415D01*
X407614Y336003D01*
X407283Y334337D01*
X407614Y332671D01*
X408558Y331258D01*
X409970Y330314D01*
X410785Y330152D01*
Y328521D01*
X409970Y328359D01*
X408558Y327415D01*
X407614Y326003D01*
X407283Y324337D01*
X407614Y322671D01*
X408558Y321258D01*
X409970Y320314D01*
X410785Y320152D01*
Y318521D01*
X409970Y318359D01*
X408558Y317415D01*
X407614Y316003D01*
X407283Y314337D01*
X407614Y312671D01*
X408558Y311258D01*
X409970Y310314D01*
X410785Y310152D01*
Y308521D01*
X409970Y308359D01*
X408558Y307415D01*
X407614Y306003D01*
X407283Y304337D01*
X407614Y302671D01*
X408558Y301258D01*
X409970Y300315D01*
X410785Y300152D01*
Y298521D01*
X409970Y298359D01*
X408558Y297415D01*
X407614Y296003D01*
X407283Y294337D01*
X407614Y292671D01*
X408558Y291258D01*
X409970Y290315D01*
X411637Y289983D01*
X423636D01*
X425303Y290315D01*
X426715Y291258D01*
X427362Y292226D01*
X438416D01*
Y287537D01*
X438490D01*
Y284275D01*
X438893Y283303D01*
X439865Y282900D01*
X449008D01*
X449981Y283303D01*
X450383Y284275D01*
Y287537D01*
X450457D01*
Y288157D01*
X460486D01*
Y288234D01*
X463947D01*
Y288157D01*
X473977D01*
Y287537D01*
X474050D01*
Y284275D01*
X474453Y283303D01*
X475424Y282900D01*
X484568D01*
X485541Y283303D01*
X485943Y284275D01*
Y287537D01*
X486017D01*
Y288157D01*
X497316D01*
Y288234D01*
X500777D01*
Y288157D01*
X504556D01*
Y282767D01*
X496646D01*
Y262227D01*
X516687D01*
Y282767D01*
X508777D01*
Y288157D01*
X512317D01*
Y291816D01*
X520187D01*
Y288157D01*
X529727D01*
Y299696D01*
X520187D01*
Y296037D01*
X512317D01*
Y299697D01*
X500777D01*
Y299619D01*
X497316D01*
Y299697D01*
X486017D01*
Y300077D01*
X473977D01*
Y299697D01*
X463947D01*
Y299619D01*
X460486D01*
Y299697D01*
X450457D01*
Y300077D01*
X438416D01*
Y296447D01*
X427362D01*
X426715Y297415D01*
X425303Y298359D01*
X424488Y298521D01*
Y300152D01*
X425303Y300315D01*
X426715Y301258D01*
X427659Y302671D01*
X427990Y304337D01*
X427659Y306003D01*
X426715Y307415D01*
X425303Y308359D01*
X424488Y308521D01*
Y310152D01*
X425303Y310314D01*
X426715Y311258D01*
X427659Y312671D01*
X427990Y314337D01*
X427659Y316003D01*
X426715Y317415D01*
X425303Y318359D01*
X424488Y318521D01*
Y320152D01*
X425303Y320314D01*
X426715Y321258D01*
X427659Y322671D01*
X427990Y324337D01*
X427659Y326003D01*
X426715Y327415D01*
X425303Y328359D01*
X424488Y328521D01*
Y330152D01*
X425303Y330314D01*
X426715Y331258D01*
X427659Y332671D01*
X427990Y334337D01*
X427659Y336003D01*
X426715Y337415D01*
X425303Y338359D01*
X424488Y338521D01*
Y340152D01*
X425303Y340314D01*
X426715Y341258D01*
X427659Y342671D01*
X427990Y344337D01*
X427659Y346003D01*
X426715Y347415D01*
X425303Y348359D01*
X424488Y348521D01*
Y350152D01*
X425303Y350314D01*
X426715Y351258D01*
X427659Y352671D01*
X427990Y354337D01*
X427659Y356003D01*
X426715Y357415D01*
X425303Y358359D01*
X424488Y358521D01*
Y360152D01*
X425303Y360314D01*
X426715Y361258D01*
X427659Y362671D01*
X427990Y364337D01*
X427659Y366003D01*
X426715Y367415D01*
X425303Y368359D01*
X424488Y368521D01*
Y370152D01*
X425303Y370314D01*
X426715Y371258D01*
X427659Y372671D01*
X427990Y374337D01*
X427659Y376003D01*
X426715Y377415D01*
X425303Y378359D01*
X424488Y378521D01*
Y380152D01*
X425303Y380314D01*
X426715Y381258D01*
X427362Y382226D01*
X437749D01*
X447469Y372506D01*
Y368157D01*
X443746D01*
Y356617D01*
X443824D01*
Y353157D01*
X443746D01*
Y341617D01*
X455286D01*
Y345276D01*
X461526D01*
Y341617D01*
X473066D01*
Y345276D01*
X482859D01*
Y338981D01*
X493899D01*
Y353521D01*
X482859D01*
Y349497D01*
X473066D01*
Y353157D01*
X472989D01*
Y357427D01*
X472587Y358399D01*
X471614Y358801D01*
X462979D01*
X462006Y358399D01*
X461604Y357427D01*
Y353157D01*
X461526D01*
Y349497D01*
X455286D01*
Y353157D01*
X455209D01*
Y356617D01*
X455286D01*
Y368157D01*
X451691D01*
Y373380D01*
X451530Y374188D01*
X451072Y374872D01*
X440116Y385829D01*
X439431Y386287D01*
X438624Y386447D01*
X438623Y386447D01*
X427362D01*
X426715Y387415D01*
X425303Y388359D01*
X424486Y388521D01*
Y390153D01*
X425303Y390315D01*
X426715Y391259D01*
X427659Y392671D01*
X427990Y394337D01*
X427659Y396003D01*
X426715Y397416D01*
X425303Y398359D01*
X424488Y398521D01*
Y400153D01*
X425303Y400315D01*
X426715Y401259D01*
X427362Y402226D01*
X434316D01*
X434317Y402226D01*
X435124Y402387D01*
X435809Y402845D01*
X443416Y410452D01*
X445017Y409789D01*
Y400037D01*
X456557D01*
Y403696D01*
X464067D01*
Y400037D01*
X475606D01*
Y403696D01*
X482859D01*
Y397401D01*
X493899D01*
Y411941D01*
X482859D01*
Y407917D01*
X475606D01*
Y411577D01*
X475529D01*
Y415869D01*
X475126Y416841D01*
X474154Y417243D01*
X465518D01*
X464546Y416841D01*
X464143Y415869D01*
Y411577D01*
X464067D01*
Y407917D01*
X456557D01*
Y411577D01*
X456480D01*
Y415037D01*
X456557D01*
Y426577D01*
X445017D01*
Y418022D01*
X433442Y406448D01*
X427362D01*
X426715Y407416D01*
X425303Y408359D01*
X424488Y408521D01*
Y410153D01*
X425303Y410315D01*
X426715Y411259D01*
X427659Y412671D01*
X427990Y414337D01*
X427659Y416003D01*
X426715Y417416D01*
X425303Y418359D01*
X424488Y418521D01*
Y420153D01*
X425303Y420315D01*
X426715Y421259D01*
X427659Y422671D01*
X427990Y424337D01*
X427659Y426003D01*
X426715Y427416D01*
X425303Y428359D01*
X424488Y428521D01*
Y430153D01*
X425303Y430315D01*
X426715Y431259D01*
X427659Y432671D01*
X427990Y434337D01*
X427659Y436003D01*
X426715Y437415D01*
X425303Y438359D01*
X424488Y438521D01*
Y440153D01*
X425303Y440315D01*
X426715Y441259D01*
X427659Y442671D01*
X427990Y444337D01*
X427659Y446003D01*
X426715Y447415D01*
X425303Y448359D01*
X424488Y448521D01*
Y450153D01*
X425303Y450315D01*
X426715Y451258D01*
X427659Y452671D01*
X427990Y454337D01*
X427659Y456003D01*
X426715Y457415D01*
X425303Y458359D01*
X424488Y458521D01*
Y460153D01*
X425303Y460315D01*
X426715Y461258D01*
X427659Y462671D01*
X427990Y464337D01*
X427659Y466003D01*
X426715Y467415D01*
X425303Y468359D01*
X424488Y468521D01*
Y470153D01*
X425303Y470315D01*
X426715Y471258D01*
X427659Y472671D01*
X427990Y474337D01*
X427659Y476003D01*
X426715Y477415D01*
X425303Y478359D01*
X424488Y478521D01*
Y480153D01*
X425303Y480315D01*
X426715Y481258D01*
X427362Y482226D01*
X438416D01*
Y478067D01*
X450457D01*
Y478567D01*
X460486D01*
Y478644D01*
X463947D01*
Y478567D01*
X473977D01*
Y478067D01*
X486017D01*
Y478067D01*
X487046Y478567D01*
X498586D01*
Y478644D01*
X502047D01*
Y478567D01*
X513587D01*
Y478567D01*
X513837Y478567D01*
Y478567D01*
X523377D01*
Y490107D01*
X513837D01*
Y490107D01*
X513587Y490107D01*
Y490107D01*
X502047D01*
Y490029D01*
X498586D01*
Y490107D01*
X487046D01*
X485943Y491250D01*
Y493869D01*
X485541Y494841D01*
X484568Y495244D01*
X475424D01*
X474453Y494841D01*
X474050Y493869D01*
Y490607D01*
X473977D01*
Y490107D01*
X463947D01*
Y490029D01*
X460486D01*
Y490107D01*
X450457D01*
Y490607D01*
X450383D01*
Y493869D01*
X449981Y494841D01*
X449008Y495244D01*
X439865D01*
X438893Y494841D01*
X438490Y493869D01*
Y490607D01*
X438416D01*
Y486447D01*
X427362D01*
X426715Y487415D01*
X425303Y488359D01*
X424488Y488521D01*
Y490153D01*
X425303Y490315D01*
X426715Y491258D01*
X427659Y492671D01*
X427990Y494337D01*
X427659Y496003D01*
X426715Y497415D01*
X425303Y498359D01*
X424488Y498521D01*
Y500153D01*
X425303Y500315D01*
X426715Y501258D01*
X427659Y502671D01*
X427990Y504337D01*
X427659Y506003D01*
X426715Y507415D01*
X425303Y508359D01*
X423636Y508690D01*
D02*
G37*
G36*
X902640Y445570D02*
X890600D01*
Y437230D01*
X885277D01*
Y443639D01*
X876737D01*
Y426599D01*
X885277D01*
Y433009D01*
X890673D01*
Y429768D01*
X891076Y428796D01*
X892048Y428393D01*
X901191D01*
X902163Y428796D01*
X902566Y429768D01*
Y433030D01*
X902640D01*
Y445570D01*
D02*
G37*
G36*
X513152Y411887D02*
X502112D01*
Y397347D01*
X513152D01*
Y402506D01*
X521272D01*
Y395527D01*
X537781D01*
Y410767D01*
X521272D01*
Y406727D01*
X513152D01*
Y411887D01*
D02*
G37*
G36*
X537781Y353617D02*
X521272D01*
Y348307D01*
X513152D01*
Y353467D01*
X502112D01*
Y338927D01*
X513152D01*
Y344086D01*
X521272D01*
Y338377D01*
X537781D01*
Y353617D01*
D02*
G37*
G36*
X685979Y345597D02*
X682335D01*
X678760Y344886D01*
X675394Y343491D01*
X672364Y341466D01*
X669787Y338890D01*
X667762Y335860D01*
X666368Y332493D01*
X665657Y328919D01*
Y325275D01*
X666368Y321700D01*
X667762Y318334D01*
X669787Y315304D01*
X672364Y312727D01*
X675394Y310702D01*
X678760Y309308D01*
X682335Y308597D01*
X685979D01*
X689553Y309308D01*
X692920Y310702D01*
X695950Y312727D01*
X698527Y315304D01*
X700551Y318334D01*
X701946Y321700D01*
X702657Y325275D01*
Y328919D01*
X701946Y332493D01*
X700551Y335860D01*
X698527Y338890D01*
X695950Y341466D01*
X692920Y343491D01*
X689553Y344886D01*
X685979Y345597D01*
D02*
G37*
G36*
X290620Y198030D02*
X272580D01*
Y169490D01*
X290620D01*
Y198030D01*
D02*
G37*
G36*
X952097Y84039D02*
X947903D01*
X947771Y84013D01*
X947636Y84022D01*
X943477Y83474D01*
X943350Y83431D01*
X943216Y83422D01*
X939164Y82337D01*
X939043Y82277D01*
X938912Y82251D01*
X935036Y80646D01*
X934924Y80571D01*
X934797Y80528D01*
X931164Y78430D01*
X931063Y78342D01*
X930942Y78282D01*
X927614Y75729D01*
X927526Y75627D01*
X927414Y75553D01*
X924448Y72586D01*
X924373Y72475D01*
X924272Y72386D01*
X921718Y69058D01*
X921659Y68937D01*
X921570Y68836D01*
X919473Y65203D01*
X919429Y65076D01*
X919354Y64964D01*
X917749Y61089D01*
X917723Y60957D01*
X917663Y60836D01*
X916578Y56784D01*
X916569Y56650D01*
X916526Y56523D01*
X915978Y52364D01*
X915987Y52229D01*
X915961Y52098D01*
Y47903D01*
X915987Y47771D01*
X915978Y47637D01*
X916526Y43478D01*
X916569Y43350D01*
X916578Y43216D01*
X917663Y39164D01*
X917723Y39044D01*
X917749Y38912D01*
X919354Y35036D01*
X919429Y34924D01*
X919473Y34797D01*
X921570Y31164D01*
X921659Y31063D01*
X921718Y30942D01*
X924272Y27614D01*
X924373Y27526D01*
X924448Y27414D01*
X927414Y24448D01*
X927526Y24373D01*
X927614Y24272D01*
X930942Y21718D01*
X931063Y21659D01*
X931164Y21570D01*
X934797Y19473D01*
X934924Y19429D01*
X935036Y19355D01*
X938912Y17749D01*
X939043Y17723D01*
X939164Y17664D01*
X943216Y16578D01*
X943350Y16569D01*
X943477Y16526D01*
X947636Y15978D01*
X947771Y15987D01*
X947903Y15961D01*
X952097D01*
X952229Y15987D01*
X952364Y15978D01*
X956522Y16526D01*
X956650Y16569D01*
X956784Y16578D01*
X960836Y17664D01*
X960956Y17723D01*
X961088Y17749D01*
X964964Y19355D01*
X965076Y19429D01*
X965203Y19473D01*
X968836Y21570D01*
X968937Y21659D01*
X969058Y21718D01*
X972386Y24272D01*
X972474Y24373D01*
X972586Y24448D01*
X975552Y27414D01*
X975627Y27526D01*
X975728Y27614D01*
X978282Y30942D01*
X978341Y31063D01*
X978430Y31164D01*
X980527Y34797D01*
X980571Y34924D01*
X980646Y35036D01*
X982251Y38912D01*
X982277Y39044D01*
X982337Y39164D01*
X983422Y43216D01*
X983431Y43350D01*
X983474Y43478D01*
X984022Y47637D01*
X984013Y47771D01*
X984039Y47903D01*
Y52098D01*
X984013Y52229D01*
X984022Y52364D01*
X983474Y56523D01*
X983431Y56650D01*
X983422Y56784D01*
X982337Y60836D01*
X982277Y60957D01*
X982251Y61089D01*
X980646Y64964D01*
X980571Y65076D01*
X980527Y65203D01*
X978430Y68836D01*
X978341Y68937D01*
X978282Y69058D01*
X975728Y72386D01*
X975627Y72475D01*
X975552Y72586D01*
X972586Y75553D01*
X972474Y75627D01*
X972386Y75729D01*
X969058Y78282D01*
X968937Y78342D01*
X968836Y78430D01*
X965203Y80528D01*
X965076Y80571D01*
X964964Y80646D01*
X961088Y82251D01*
X960957Y82277D01*
X960836Y82337D01*
X956784Y83422D01*
X956650Y83431D01*
X956522Y83474D01*
X952364Y84022D01*
X952229Y84013D01*
X952097Y84039D01*
D02*
G37*
G36*
X52097D02*
X47903D01*
X47771Y84013D01*
X47636Y84022D01*
X43478Y83474D01*
X43350Y83431D01*
X43216Y83422D01*
X39164Y82337D01*
X39043Y82277D01*
X38911Y82251D01*
X35036Y80646D01*
X34924Y80571D01*
X34797Y80528D01*
X31164Y78430D01*
X31063Y78342D01*
X30942Y78282D01*
X27614Y75729D01*
X27526Y75627D01*
X27414Y75553D01*
X24448Y72586D01*
X24373Y72475D01*
X24272Y72386D01*
X21718Y69058D01*
X21659Y68937D01*
X21570Y68836D01*
X19473Y65203D01*
X19429Y65076D01*
X19354Y64964D01*
X17749Y61089D01*
X17723Y60957D01*
X17664Y60836D01*
X16578Y56784D01*
X16569Y56650D01*
X16526Y56523D01*
X15978Y52364D01*
X15987Y52229D01*
X15961Y52098D01*
Y47903D01*
X15987Y47771D01*
X15978Y47637D01*
X16526Y43478D01*
X16569Y43350D01*
X16578Y43216D01*
X17664Y39164D01*
X17723Y39044D01*
X17749Y38912D01*
X19354Y35036D01*
X19429Y34924D01*
X19473Y34797D01*
X21570Y31164D01*
X21659Y31063D01*
X21718Y30942D01*
X24272Y27614D01*
X24373Y27526D01*
X24448Y27414D01*
X27414Y24448D01*
X27526Y24373D01*
X27614Y24272D01*
X30942Y21718D01*
X31063Y21659D01*
X31164Y21570D01*
X34797Y19473D01*
X34924Y19429D01*
X35036Y19355D01*
X38911Y17749D01*
X39043Y17723D01*
X39164Y17664D01*
X43216Y16578D01*
X43350Y16569D01*
X43478Y16526D01*
X47636Y15978D01*
X47771Y15987D01*
X47903Y15961D01*
X52097D01*
X52229Y15987D01*
X52364Y15978D01*
X56522Y16526D01*
X56650Y16569D01*
X56784Y16578D01*
X60836Y17664D01*
X60957Y17723D01*
X61089Y17749D01*
X64964Y19355D01*
X65076Y19429D01*
X65203Y19473D01*
X68836Y21570D01*
X68937Y21659D01*
X69058Y21718D01*
X72386Y24272D01*
X72474Y24373D01*
X72586Y24448D01*
X75552Y27414D01*
X75627Y27526D01*
X75728Y27614D01*
X78282Y30942D01*
X78341Y31063D01*
X78430Y31164D01*
X80527Y34797D01*
X80571Y34924D01*
X80646Y35036D01*
X82251Y38912D01*
X82277Y39044D01*
X82337Y39164D01*
X83422Y43216D01*
X83431Y43350D01*
X83474Y43478D01*
X84022Y47637D01*
X84013Y47771D01*
X84039Y47903D01*
Y52098D01*
X84013Y52229D01*
X84022Y52364D01*
X83474Y56523D01*
X83431Y56650D01*
X83422Y56784D01*
X82337Y60836D01*
X82277Y60957D01*
X82251Y61089D01*
X80646Y64964D01*
X80571Y65076D01*
X80527Y65203D01*
X78430Y68836D01*
X78341Y68937D01*
X78282Y69058D01*
X75728Y72386D01*
X75627Y72475D01*
X75552Y72586D01*
X72586Y75553D01*
X72474Y75627D01*
X72386Y75729D01*
X69058Y78282D01*
X68937Y78342D01*
X68836Y78430D01*
X65203Y80528D01*
X65076Y80571D01*
X64964Y80646D01*
X61089Y82251D01*
X60957Y82277D01*
X60836Y82337D01*
X56784Y83422D01*
X56650Y83431D01*
X56522Y83474D01*
X52364Y84022D01*
X52229Y84013D01*
X52097Y84039D01*
D02*
G37*
G36*
X290620Y71830D02*
X272580D01*
Y43290D01*
X290620D01*
Y71830D01*
D02*
G37*
G36*
X132620D02*
X114580D01*
Y43290D01*
X132620D01*
Y71830D01*
D02*
G37*
%LPD*%
G36*
X614387Y978214D02*
Y956603D01*
X565730D01*
X563674Y956194D01*
X562635Y955500D01*
X557210D01*
Y946960D01*
X562635D01*
X563674Y946266D01*
X565730Y945857D01*
X614387D01*
Y923290D01*
X614796Y921234D01*
X615961Y919491D01*
X623581Y911870D01*
X625324Y910706D01*
X627380Y910297D01*
X837907D01*
Y872067D01*
X819827D01*
Y870770D01*
X759745D01*
X757689Y870361D01*
X755946Y869196D01*
X747588Y860839D01*
X463483D01*
Y861736D01*
X463410D01*
Y864998D01*
X463007Y865971D01*
X462035Y866373D01*
X452891D01*
X451919Y865971D01*
X450307Y865971D01*
X449335Y866373D01*
X440191D01*
X439219Y865971D01*
X437614Y865986D01*
X436642Y866388D01*
X427498D01*
X426526Y865986D01*
X424907Y866090D01*
X423935Y866493D01*
X414791D01*
X413819Y866090D01*
X412227Y865971D01*
X411255Y866373D01*
X402111D01*
X401139Y865971D01*
X400736Y864998D01*
Y863060D01*
X399675Y861848D01*
X399274Y861659D01*
X398882Y861496D01*
X398470Y861399D01*
X398409Y861300D01*
X398302Y861256D01*
X363921Y826875D01*
X354731D01*
X353326Y827347D01*
Y839887D01*
X353167D01*
Y871550D01*
X356670D01*
Y883590D01*
X358023Y884187D01*
X359877D01*
Y897527D01*
X341036D01*
Y884187D01*
X339865Y883156D01*
X339462Y882184D01*
Y873040D01*
X339865Y872068D01*
X340836Y871665D01*
X344130D01*
Y871550D01*
X348946D01*
Y842539D01*
X347346Y841547D01*
X347229Y841596D01*
X347229Y841596D01*
X342149D01*
X342149Y841596D01*
X341167Y842921D01*
Y845221D01*
X341191Y845343D01*
X341191Y845343D01*
Y861212D01*
X341031Y862019D01*
X340573Y862704D01*
X340573Y862704D01*
X305641Y897637D01*
Y922020D01*
X305480Y922828D01*
X305022Y923512D01*
X305022Y923512D01*
X270597Y957938D01*
X270993Y959930D01*
Y967930D01*
X270584Y969986D01*
X269419Y971730D01*
X267676Y972894D01*
X265620Y973303D01*
X257620D01*
X255564Y972894D01*
X253820Y971730D01*
X252656Y969986D01*
X252247Y967930D01*
Y959930D01*
X252656Y957874D01*
X253820Y956131D01*
X255564Y954966D01*
X257620Y954557D01*
X265620D01*
X267612Y954953D01*
X301419Y921146D01*
Y896763D01*
X301419Y896762D01*
X301580Y895955D01*
X302038Y895270D01*
X306087Y891220D01*
X305424Y889621D01*
X295942D01*
X295279Y891220D01*
X295720Y891661D01*
X296370Y893231D01*
Y894929D01*
X295720Y896499D01*
X294519Y897700D01*
X292949Y898350D01*
X291251D01*
X290130Y899099D01*
Y899850D01*
X278590D01*
Y899773D01*
X275130D01*
Y899850D01*
X263590D01*
Y897358D01*
X261990Y896695D01*
X249761Y908924D01*
Y948690D01*
X249600Y949498D01*
X249142Y950182D01*
X242362Y956963D01*
X243638Y958238D01*
X244858Y960352D01*
X245490Y962710D01*
Y965150D01*
X244858Y967508D01*
X243638Y969622D01*
X241912Y971348D01*
X239798Y972568D01*
X237440Y973200D01*
X235000D01*
X232642Y972568D01*
X230528Y971348D01*
X228802Y969622D01*
X227582Y967508D01*
X226950Y965150D01*
Y962710D01*
X227582Y960352D01*
X228802Y958238D01*
X230528Y956512D01*
X232642Y955292D01*
X235000Y954660D01*
X237440D01*
X238430Y954925D01*
X245539Y947816D01*
Y909058D01*
X243939Y908395D01*
X218699Y933636D01*
X219458Y934952D01*
X220090Y937310D01*
Y939750D01*
X219458Y942108D01*
X218238Y944222D01*
X216512Y945948D01*
X214398Y947168D01*
X212040Y947800D01*
X209600D01*
X207242Y947168D01*
X205128Y945948D01*
X203402Y944222D01*
X202182Y942108D01*
X201550Y939750D01*
Y937310D01*
X202182Y934952D01*
X203402Y932838D01*
X205128Y931112D01*
X207242Y929892D01*
X209600Y929260D01*
X212040D01*
X214398Y929892D01*
X215714Y930651D01*
X260348Y886018D01*
X261032Y885560D01*
X261840Y885399D01*
X261840Y885399D01*
X275561D01*
X275879Y883799D01*
X275711Y883730D01*
X274510Y882529D01*
X273860Y880959D01*
Y879261D01*
X274510Y877691D01*
X275711Y876490D01*
X276298Y876247D01*
X276424Y875987D01*
X276551Y874410D01*
X275780Y873639D01*
X275130Y872069D01*
Y870371D01*
X275780Y868801D01*
X276981Y867600D01*
X277446Y867408D01*
X278284Y866076D01*
X278117Y865529D01*
X277670Y864449D01*
Y862751D01*
X278320Y861181D01*
X279521Y859980D01*
X281091Y859330D01*
X282780D01*
X283425Y858685D01*
Y856446D01*
X281825Y855783D01*
X281819Y855790D01*
X280249Y856440D01*
X278551D01*
X276981Y855790D01*
X275780Y854589D01*
X275130Y853019D01*
Y851321D01*
X275258Y851012D01*
X273449Y849204D01*
X271971Y849816D01*
Y868060D01*
X271810Y868868D01*
X271352Y869552D01*
X271352Y869552D01*
X268713Y872192D01*
X268028Y872650D01*
X267220Y872810D01*
X267220Y872810D01*
X247620D01*
Y875470D01*
X229080D01*
Y873331D01*
X222015D01*
X221406Y874931D01*
X221725Y875700D01*
Y883700D01*
X221322Y884672D01*
X220350Y885074D01*
X180350D01*
X179378Y884672D01*
X178975Y883700D01*
Y875700D01*
X177809Y874334D01*
X172724D01*
X172334Y874724D01*
Y895050D01*
X172799Y895360D01*
X173964Y897104D01*
X174373Y899160D01*
X173964Y901216D01*
X172799Y902960D01*
X171056Y904124D01*
X169000Y904533D01*
X158154D01*
X158050Y906090D01*
X158050Y906090D01*
X158050Y906090D01*
Y917520D01*
Y928950D01*
Y940380D01*
Y951810D01*
Y963350D01*
X158050D01*
Y964510D01*
X158050D01*
Y976050D01*
X157773D01*
Y982687D01*
X609914D01*
X614387Y978214D01*
D02*
G37*
G36*
X267750Y867186D02*
Y826561D01*
X267465Y826371D01*
X258321D01*
X257348Y825968D01*
X257330Y825923D01*
X255730Y826242D01*
Y827619D01*
X255080Y829189D01*
X253879Y830390D01*
X252309Y831040D01*
X250611D01*
X249220Y830464D01*
X248403Y830768D01*
X247620Y831231D01*
Y831470D01*
X229080D01*
Y828881D01*
X219710D01*
X218902Y828720D01*
X218218Y828262D01*
X215629Y825674D01*
X214151Y826286D01*
Y841086D01*
X219654Y846589D01*
X229080D01*
Y843930D01*
X247620D01*
Y843930D01*
X248956Y844568D01*
X249220Y844666D01*
X250611Y844090D01*
X252309D01*
X253879Y844740D01*
X255080Y845941D01*
X255730Y847511D01*
Y849209D01*
X255080Y850779D01*
X253879Y851980D01*
X252309Y852630D01*
X250611D01*
X249220Y852054D01*
X248611Y852280D01*
X247620Y853470D01*
Y854930D01*
X248802Y855940D01*
X249220Y856096D01*
X250611Y855520D01*
X252309D01*
X253879Y856170D01*
X255080Y857371D01*
X255730Y858941D01*
Y860639D01*
X255080Y862209D01*
X253879Y863410D01*
X252309Y864060D01*
X250611D01*
X249220Y863484D01*
X248866Y863616D01*
X247620Y864470D01*
Y865930D01*
X247620D01*
Y868589D01*
X266346D01*
X267750Y867186D01*
D02*
G37*
G36*
X819827Y858727D02*
X837907D01*
Y851005D01*
X810260Y851005D01*
X809288Y850602D01*
X806748Y848062D01*
X806748Y848062D01*
X806345Y847090D01*
X806345Y847090D01*
Y831811D01*
X568567D01*
Y834747D01*
X556526D01*
Y831301D01*
X553326D01*
Y834747D01*
X550131D01*
Y836839D01*
X550024Y837376D01*
X549916Y837919D01*
X549916Y837920D01*
X549916Y837920D01*
X549623Y838358D01*
X549304Y838836D01*
X547547Y840593D01*
X547547Y840594D01*
X547546Y840594D01*
X547055Y840922D01*
X546631Y841206D01*
X546630Y841206D01*
X546630Y841206D01*
X546178Y841296D01*
X545550Y841421D01*
X545550Y841421D01*
X545549Y841421D01*
X500867D01*
X500867Y841421D01*
X500867Y841421D01*
X500375Y841323D01*
X499786Y841206D01*
X499786Y841206D01*
X499786Y841206D01*
X499381Y840935D01*
X498870Y840594D01*
X498870Y840594D01*
X498870Y840593D01*
X497113Y838836D01*
X497113Y838836D01*
X497113Y838836D01*
X497113Y838836D01*
X496825Y838405D01*
X496501Y837920D01*
X496501Y837920D01*
X496501Y837919D01*
X496373Y837276D01*
X496286Y836839D01*
Y836839D01*
X496286Y836839D01*
X496286Y836839D01*
Y833986D01*
X495697Y833869D01*
X494970Y833384D01*
X494772Y833087D01*
X487100D01*
Y836230D01*
X475560D01*
Y836230D01*
X474400D01*
Y836230D01*
X462860D01*
Y824690D01*
X462935D01*
Y821230D01*
X462860D01*
Y809690D01*
X463611D01*
X464360Y808569D01*
Y806871D01*
X465010Y805301D01*
X466211Y804100D01*
X467781Y803450D01*
X469479D01*
X469787Y803578D01*
X472217Y801148D01*
X472218Y801148D01*
X472902Y800690D01*
X473710Y800529D01*
X473710Y800529D01*
X504190D01*
X504190Y800529D01*
X504998Y800690D01*
X505682Y801148D01*
X506952Y802418D01*
X506952Y802418D01*
X507410Y803102D01*
X507571Y803910D01*
X507571Y803910D01*
X507928Y804223D01*
X509171Y804910D01*
X509654Y804814D01*
X511299D01*
X512156Y804984D01*
X512883Y805470D01*
X513070D01*
X513797Y804984D01*
X514654Y804814D01*
X516299D01*
X517157Y804984D01*
X517883Y805470D01*
X518369Y806197D01*
X520078Y806896D01*
X520616Y806568D01*
Y800461D01*
X518556Y798401D01*
X500380D01*
X499572Y798240D01*
X498888Y797782D01*
X498887Y797782D01*
X465832Y764727D01*
X353326D01*
Y768644D01*
X353860Y769313D01*
X354529Y769847D01*
X366827D01*
Y781847D01*
Y794093D01*
X372208D01*
X372300Y793871D01*
X373501Y792670D01*
X375071Y792020D01*
X376769D01*
X378339Y792670D01*
X379540Y793871D01*
X380190Y795441D01*
Y797139D01*
X379540Y798709D01*
X379194Y799055D01*
X378470Y800100D01*
X379194Y801145D01*
X379540Y801491D01*
X380190Y803061D01*
Y804759D01*
X379540Y806329D01*
X378339Y807530D01*
X376769Y808180D01*
X375071D01*
X373501Y807530D01*
X372300Y806329D01*
X371650Y804759D01*
Y803061D01*
X370267Y802219D01*
X366827D01*
Y810006D01*
X414317D01*
X419985Y804338D01*
Y792877D01*
X418717Y792077D01*
X415798D01*
X414827Y791674D01*
X414424Y790702D01*
Y781558D01*
X414827Y780586D01*
X415798Y780183D01*
X419060D01*
Y780110D01*
X431600D01*
Y792150D01*
X431600D01*
X430915Y792877D01*
Y807323D01*
X422970D01*
X416684Y813609D01*
X416119Y813987D01*
X415089Y814805D01*
X414915Y815789D01*
Y829389D01*
X414915D01*
X415452Y830767D01*
X415966D01*
Y830845D01*
X419226D01*
X420198Y831247D01*
X420601Y832219D01*
Y841363D01*
X420198Y842335D01*
X419226Y842738D01*
X415966D01*
Y842807D01*
X403426D01*
Y830767D01*
X403448D01*
X403985Y829389D01*
X403985D01*
Y824277D01*
X385286D01*
X384478Y824116D01*
X383794Y823658D01*
X378363Y818227D01*
X369044D01*
X368381Y819827D01*
X397467Y848913D01*
X402069D01*
X402552Y849113D01*
X402754Y849196D01*
X411793D01*
X412683Y849196D01*
X412683Y849196D01*
X413343Y849316D01*
Y849316D01*
X425383D01*
Y849316D01*
X426043Y849196D01*
X426043Y849196D01*
X426934Y849196D01*
X438083D01*
Y849196D01*
X438743D01*
Y849196D01*
X450783D01*
Y849196D01*
X451443D01*
Y849196D01*
X463483D01*
Y850093D01*
X749814D01*
X751870Y850502D01*
X753614Y851666D01*
X761971Y860024D01*
X819827D01*
Y858727D01*
D02*
G37*
G36*
X131510Y893390D02*
X143050D01*
Y893465D01*
X146510D01*
Y893390D01*
X158050D01*
Y893787D01*
X165666D01*
Y873343D01*
X165920Y872067D01*
X166642Y870986D01*
X168986Y868643D01*
X170067Y867920D01*
X171343Y867666D01*
X171851D01*
X172975Y866200D01*
X172975Y866066D01*
Y776200D01*
X173378Y775228D01*
X174350Y774825D01*
X194350D01*
X195322Y775228D01*
X195725Y776200D01*
Y810974D01*
X197325Y811637D01*
X197581Y811380D01*
X199151Y810730D01*
X200849D01*
X202419Y811380D01*
X202589Y811551D01*
X204189Y810888D01*
Y758820D01*
X202158Y756789D01*
X126651D01*
X126391Y757050D01*
Y768790D01*
X127991Y769453D01*
X128745Y768699D01*
X130455Y767711D01*
X132363Y767200D01*
X134337D01*
X136245Y767711D01*
X137955Y768699D01*
X139352Y770095D01*
X140339Y771805D01*
X140850Y773713D01*
Y775687D01*
X140339Y777595D01*
X139352Y779305D01*
X137955Y780702D01*
X136245Y781689D01*
X134337Y782200D01*
X132363D01*
X130455Y781689D01*
X128745Y780702D01*
X127991Y779947D01*
X126391Y780610D01*
Y848790D01*
X127991Y849453D01*
X128745Y848698D01*
X130455Y847711D01*
X132363Y847200D01*
X134337D01*
X136245Y847711D01*
X137955Y848698D01*
X139352Y850095D01*
X140339Y851805D01*
X140850Y853712D01*
Y855687D01*
X140339Y857595D01*
X139352Y859305D01*
X137955Y860701D01*
X136245Y861689D01*
X134337Y862200D01*
X132363D01*
X130455Y861689D01*
X128745Y860701D01*
X127991Y859947D01*
X126391Y860610D01*
Y896789D01*
X126651Y897049D01*
X131510D01*
Y893390D01*
D02*
G37*
G36*
X508797Y829484D02*
X509654Y829314D01*
X511299D01*
X512696Y828067D01*
Y813887D01*
X511299Y812640D01*
X509654D01*
X508797Y812469D01*
X508070Y811984D01*
X507883D01*
X507157Y812469D01*
X506299Y812640D01*
X504654D01*
X503797Y812469D01*
X503070Y811984D01*
X502584Y811257D01*
X502414Y810399D01*
Y807054D01*
X502554Y806351D01*
X502507Y806081D01*
X501626Y804751D01*
X486454D01*
X485385Y806351D01*
X485600Y806871D01*
Y808569D01*
X486349Y809690D01*
X487100D01*
Y813867D01*
X494772D01*
X494970Y813570D01*
X495697Y813085D01*
X496554Y812914D01*
X499899D01*
X500756Y813085D01*
X501483Y813570D01*
X501969Y814297D01*
X502140Y815154D01*
Y816799D01*
X501969Y817657D01*
X501483Y818384D01*
Y818570D01*
X501969Y819297D01*
X502140Y820154D01*
Y821799D01*
X501969Y822657D01*
X501533Y823477D01*
X501969Y824297D01*
X502140Y825154D01*
Y826799D01*
X501969Y827657D01*
X501799Y827911D01*
X502336Y828893D01*
X503797Y829484D01*
X504654Y829314D01*
X506299D01*
X507157Y829484D01*
X507883Y829970D01*
X508070D01*
X508797Y829484D01*
D02*
G37*
G36*
X401130Y859983D02*
X401139Y859962D01*
X402105Y859562D01*
X402069Y850288D01*
X396898D01*
X365760Y819150D01*
X346326D01*
Y819387D01*
X341630D01*
Y839703D01*
X342149Y840221D01*
X347229D01*
X347980Y839470D01*
Y826770D01*
X349250Y825500D01*
X364490D01*
X399274Y860284D01*
X401130Y859983D01*
D02*
G37*
G36*
X868680Y848360D02*
Y847343D01*
X868575Y847090D01*
X868575Y847090D01*
Y821690D01*
X868575Y821690D01*
X868606Y821616D01*
X867095Y820106D01*
X865331Y820346D01*
X865323Y820366D01*
X864351Y820769D01*
X855207D01*
X854235Y820366D01*
X853940Y819656D01*
X849221D01*
Y819659D01*
X848818Y820631D01*
X847846Y821034D01*
X838702D01*
X837730Y820631D01*
X837328Y819659D01*
Y819656D01*
X835230D01*
X834829Y820623D01*
X833857Y821026D01*
X824713D01*
X823741Y820623D01*
X823340Y819656D01*
X821261D01*
X820859Y820628D01*
X819887Y821030D01*
X810743D01*
X809771Y820628D01*
X808946Y820464D01*
X807720Y821690D01*
Y847090D01*
X810260Y849630D01*
X867410Y849630D01*
X868680Y848360D01*
D02*
G37*
G36*
X340255Y819387D02*
X340658Y818415D01*
X341630Y818012D01*
X345755D01*
X346326Y817775D01*
X348409D01*
Y785797D01*
X348409Y785797D01*
X348570Y784990D01*
X349028Y784305D01*
X350708Y782625D01*
X350708Y782624D01*
X351393Y782167D01*
X352201Y782006D01*
X354287D01*
Y770089D01*
X353753Y769420D01*
X353084Y768887D01*
X298255D01*
X298058Y768887D01*
X297499Y768938D01*
X297406Y768966D01*
X296455Y769345D01*
X296360Y769421D01*
X296285Y769515D01*
X295906Y770466D01*
X295878Y770560D01*
X295826Y771118D01*
X295826Y777847D01*
Y789847D01*
Y802006D01*
X298657D01*
X298657Y802006D01*
X299464Y802167D01*
X300149Y802624D01*
X302482Y804958D01*
X302482Y804958D01*
X302940Y805642D01*
X303101Y806450D01*
X303101Y806450D01*
Y820849D01*
X340255D01*
Y819387D01*
D02*
G37*
G36*
X836930Y633730D02*
Y515620D01*
X849630Y496570D01*
Y478790D01*
X825500Y454660D01*
Y445770D01*
X824279Y444549D01*
X822493D01*
X822091Y445521D01*
X821118Y445923D01*
X811974D01*
X811003Y445521D01*
X810600Y444549D01*
X796241D01*
X793750Y447040D01*
Y631190D01*
X800100Y637540D01*
X833120D01*
X836930Y633730D01*
D02*
G37*
G36*
X845820Y443230D02*
Y427990D01*
X844550Y426720D01*
X811530D01*
X810260Y427990D01*
Y438296D01*
X811666Y439238D01*
X811974Y439110D01*
X821118D01*
X821867Y439420D01*
X834390D01*
X839470Y444500D01*
X844550D01*
X845820Y443230D01*
D02*
G37*
G36*
X42427Y576327D02*
X42504D01*
Y572867D01*
X42427D01*
Y561327D01*
X44879D01*
Y547370D01*
X44879Y547370D01*
X45040Y546562D01*
X45498Y545878D01*
X47001Y544374D01*
X47685Y543917D01*
X48493Y543756D01*
X49587D01*
Y533097D01*
X67126D01*
Y543756D01*
X82867D01*
X82867Y543756D01*
X83674Y543917D01*
X84289Y544328D01*
X84993Y544185D01*
X85889Y543814D01*
Y426694D01*
X82526Y423330D01*
X67126D01*
Y434177D01*
X50151D01*
X49316Y435665D01*
X49817Y436867D01*
X52696D01*
Y440526D01*
X63766D01*
Y436367D01*
X75806D01*
Y448907D01*
X75733D01*
Y452250D01*
X75331Y453222D01*
X74359Y453625D01*
X65215D01*
X64243Y453222D01*
X63840Y452250D01*
Y448907D01*
X63766D01*
Y444747D01*
X52696D01*
Y448407D01*
X52619D01*
Y451867D01*
X52696D01*
Y463407D01*
X41157D01*
Y463407D01*
X39663Y463665D01*
Y576724D01*
X42427D01*
Y576327D01*
D02*
G37*
G36*
X949867Y867797D02*
X949979Y867880D01*
X989330Y855583D01*
Y106680D01*
X984250Y101600D01*
X910590D01*
X900430Y91440D01*
X900430Y11430D01*
X895350Y6350D01*
X722630D01*
X713740Y15240D01*
X713740Y125730D01*
X716280Y128270D01*
X762000Y128270D01*
D01*
X764540Y130810D01*
Y170180D01*
X768350Y173990D01*
X781050D01*
X786130Y179070D01*
X795020D01*
X797560Y176530D01*
Y156210D01*
X795020Y153670D01*
X786130D01*
X783590Y151130D01*
Y104140D01*
X778510Y99060D01*
X767080D01*
X764540Y96520D01*
Y52070D01*
X820420D01*
X826262Y57912D01*
Y76033D01*
X828262D01*
X829234Y76436D01*
X829637Y77408D01*
Y86552D01*
X829234Y87524D01*
X828262Y87927D01*
X826262D01*
Y126064D01*
X827348Y126922D01*
X827977D01*
Y127418D01*
X872490Y162560D01*
X946150D01*
X948690Y165100D01*
Y215900D01*
X942340Y222250D01*
X915670D01*
X908050Y229870D01*
X907599Y268980D01*
X908450Y269333D01*
X908853Y270305D01*
Y279449D01*
X909847Y281114D01*
X915670Y283210D01*
Y290591D01*
X916897Y291589D01*
X917638Y291282D01*
X926274D01*
X927246Y291685D01*
X927419Y292100D01*
X943610D01*
X948690Y297180D01*
Y354330D01*
X938530Y364490D01*
X854710D01*
X847090Y372110D01*
X848360Y373380D01*
Y443230D01*
X850900Y445770D01*
X858520D01*
X863600Y440690D01*
Y421640D01*
X866140Y419100D01*
X873760D01*
X876300Y416560D01*
Y403860D01*
X877570Y402590D01*
X877910D01*
Y402385D01*
X878313Y401413D01*
X879285Y401010D01*
X888428D01*
X889400Y401413D01*
X891012Y401413D01*
X891984Y401010D01*
X901128D01*
X902101Y401413D01*
X902503Y402385D01*
Y402590D01*
X939800Y402590D01*
X948690Y411480D01*
Y784675D01*
X939800Y795020D01*
X929640Y805180D01*
X915670Y820420D01*
X888586D01*
Y820664D01*
X888183Y821636D01*
X887211Y822039D01*
X878067D01*
X877095Y821636D01*
X876692Y820664D01*
Y820420D01*
X871220D01*
X869950Y821690D01*
Y847090D01*
X871220Y848360D01*
X891540D01*
X892810Y849630D01*
Y858520D01*
X891540Y859790D01*
X875030D01*
X873760Y861060D01*
Y867410D01*
X875030Y868680D01*
X948690D01*
X949867Y867797D01*
D02*
G37*
G36*
X871848Y306505D02*
X871054Y304905D01*
X798830D01*
X798830Y304905D01*
X797858Y304502D01*
X794048Y300692D01*
X793645Y299720D01*
X793645Y299720D01*
Y257810D01*
X794048Y256838D01*
X794048Y256838D01*
X824528Y226358D01*
X825500Y225955D01*
X825500Y225955D01*
X883920D01*
X883920Y225955D01*
X884892Y226358D01*
X884892Y226358D01*
X889972Y231438D01*
X890375Y232410D01*
X890375Y232410D01*
Y278831D01*
X893782Y282238D01*
X894185Y283210D01*
X894185Y283210D01*
Y297180D01*
X893782Y298152D01*
X893782Y298152D01*
X891242Y300692D01*
X890270Y301095D01*
X890270Y301095D01*
X878768D01*
X878213Y301825D01*
X879006Y303425D01*
X907778D01*
X908441Y301825D01*
X905834Y299219D01*
X905377Y298534D01*
X905216Y297727D01*
X904019Y296857D01*
X903057D01*
Y284317D01*
X909961D01*
X910240Y282717D01*
X909382Y282408D01*
X909039Y282096D01*
X908667Y281819D01*
X908117Y280897D01*
X906677D01*
Y280823D01*
X903415D01*
X902442Y280421D01*
X902040Y279449D01*
Y270305D01*
X902442Y269333D01*
X903415Y268930D01*
X906225D01*
X906675Y229854D01*
X906879Y229378D01*
X907078Y228898D01*
X914698Y221278D01*
X915670Y220875D01*
X915670Y220875D01*
X941771D01*
X947315Y215331D01*
Y165669D01*
X945581Y163935D01*
X872490D01*
X872073Y163762D01*
X871638Y163639D01*
X829416Y130306D01*
X827977Y131004D01*
Y152295D01*
X835660D01*
X836632Y152698D01*
X837035Y153670D01*
Y183283D01*
X838962D01*
X839934Y183686D01*
X840337Y184658D01*
Y193802D01*
X839934Y194774D01*
X838962Y195177D01*
X837035D01*
Y197507D01*
X838660D01*
Y197430D01*
X850200D01*
X850200Y197430D01*
X851557Y196844D01*
Y193040D01*
X851960Y192068D01*
X852932Y191665D01*
X861568D01*
X862540Y192068D01*
X862943Y193040D01*
Y197310D01*
X863020D01*
Y208850D01*
X851480D01*
Y208850D01*
X850200Y208970D01*
X848979Y209884D01*
X848542Y210570D01*
X848820Y211241D01*
Y212939D01*
X848170Y214509D01*
X846969Y215710D01*
X845399Y216360D01*
X843701D01*
X842131Y215710D01*
X840930Y214509D01*
X840280Y212939D01*
Y211241D01*
X840558Y210570D01*
X839541Y208970D01*
X838660D01*
Y208893D01*
X837035D01*
Y210820D01*
X837035Y210820D01*
X836632Y211792D01*
X836632Y211792D01*
X788775Y259649D01*
Y304231D01*
X791779Y307235D01*
X871292D01*
X871848Y306505D01*
D02*
G37*
G36*
X901700Y347980D02*
Y336703D01*
X899604D01*
X898633Y336301D01*
X898230Y335329D01*
Y326185D01*
X898633Y325213D01*
X899604Y324810D01*
X902010D01*
X902970Y323850D01*
X911860D01*
X913130Y322580D01*
Y311150D01*
Y308610D01*
X909320Y304800D01*
X876300D01*
X872490Y308610D01*
X791210D01*
X787400Y304800D01*
Y259080D01*
X835660Y210820D01*
Y208893D01*
X834390D01*
X833418Y208490D01*
X833015Y207518D01*
Y198882D01*
X833418Y197910D01*
X834390Y197507D01*
X835660D01*
Y195177D01*
X834898D01*
X833926Y194774D01*
X833523Y193802D01*
Y184658D01*
X833926Y183686D01*
X834898Y183283D01*
X835660D01*
Y153670D01*
X824230D01*
X822960Y154940D01*
Y180340D01*
X782320Y220980D01*
X666750D01*
X661670Y226060D01*
Y256540D01*
X663148Y258018D01*
X685800Y280670D01*
X721360D01*
X777240Y336550D01*
Y353060D01*
X782320Y358140D01*
X891540D01*
X901700Y347980D01*
D02*
G37*
G36*
X877570Y299720D02*
X890270D01*
X892810Y297180D01*
Y283210D01*
X889000Y279400D01*
Y232410D01*
X883920Y227330D01*
X825500D01*
X795020Y257810D01*
Y299720D01*
X798830Y303530D01*
X873760D01*
X877570Y299720D01*
D02*
G37*
G36*
X588413Y144272D02*
Y135128D01*
X588816Y134156D01*
X589788Y133753D01*
X590550D01*
Y133350D01*
X591820Y132080D01*
X604520D01*
X605790Y130810D01*
Y121920D01*
X604520Y120650D01*
X585470D01*
X584200Y119380D01*
Y90423D01*
X584095Y90170D01*
X584095Y90170D01*
Y78740D01*
X584200Y78487D01*
Y31750D01*
X572770Y20320D01*
X361950D01*
X354330Y27940D01*
Y83820D01*
X363220Y92710D01*
X487680D01*
X504190Y76200D01*
Y60960D01*
X509270Y55880D01*
X549910D01*
X553223Y59193D01*
Y117770D01*
X553291Y118110D01*
Y124031D01*
X554990Y125730D01*
X554992Y125728D01*
X557528D01*
X557530Y125730D01*
X560070D01*
X579120Y144780D01*
X588074D01*
X588413Y144272D01*
D02*
G37*
G36*
X792417Y128267D02*
X792417Y126922D01*
X790922Y126667D01*
X788896D01*
X788108Y126510D01*
X787440Y126063D01*
X786994Y125395D01*
X786837Y124607D01*
Y106407D01*
X786994Y105619D01*
X787440Y104951D01*
X788108Y104504D01*
X788896Y104347D01*
X790506D01*
X790685Y104107D01*
X791100Y102747D01*
X790508Y102155D01*
X790050Y101470D01*
X789889Y100663D01*
X789889Y100663D01*
Y95130D01*
Y87750D01*
X786290D01*
Y76210D01*
X797830D01*
Y76287D01*
X802100D01*
X803072Y76690D01*
X803475Y77662D01*
Y86298D01*
X803072Y87270D01*
X802100Y87673D01*
X797830D01*
Y87750D01*
X794111D01*
Y99489D01*
X802640D01*
X802640Y99489D01*
X803448Y99650D01*
X804132Y100108D01*
X805402Y101377D01*
X805402Y101378D01*
X805860Y102062D01*
X806021Y102870D01*
X806134Y104355D01*
X806885Y104504D01*
X807553Y104951D01*
X807999Y105619D01*
X808156Y106407D01*
Y124607D01*
X808014Y125322D01*
X808008Y125409D01*
X808904Y126922D01*
X823490D01*
X823943Y126698D01*
X824887Y126064D01*
Y87927D01*
X824198D01*
X823226Y87524D01*
X822823Y86552D01*
Y77408D01*
X823226Y76436D01*
X824198Y76033D01*
X824887D01*
Y58481D01*
X819851Y53445D01*
X765915D01*
Y95951D01*
X767649Y97685D01*
X778510D01*
X778510Y97685D01*
X779482Y98088D01*
X779482Y98088D01*
X784562Y103168D01*
X784965Y104140D01*
X784965Y104140D01*
Y150561D01*
X786699Y152295D01*
X792417D01*
Y128267D01*
D02*
G37*
G36*
X483870Y144780D02*
X525780Y102870D01*
Y93980D01*
X548640D01*
X551180Y91440D01*
X551180Y82550D01*
X549910Y81280D01*
X504190D01*
X488950Y96520D01*
X361950D01*
X354330Y104140D01*
Y144780D01*
X361950Y152400D01*
X483870D01*
Y144780D01*
D02*
G37*
G36*
X687070Y185420D02*
Y157480D01*
X675640Y146050D01*
Y120650D01*
X646430Y91440D01*
Y78740D01*
X640080Y72390D01*
X608330D01*
X604520Y76200D01*
X588010D01*
X585470Y78740D01*
Y90170D01*
X588010Y92710D01*
X609600D01*
X617220Y100330D01*
X629920D01*
X651510Y121920D01*
X651510Y151130D01*
X661670Y161290D01*
Y184150D01*
X665480Y187960D01*
X684530D01*
X687070Y185420D01*
D02*
G37*
G36*
X708660Y78740D02*
Y53340D01*
X704850Y49530D01*
X675640D01*
X657860Y67310D01*
Y97790D01*
X661670Y101600D01*
X685800D01*
X708660Y78740D01*
D02*
G37*
%LPC*%
G36*
X574250Y980900D02*
X557210D01*
Y972360D01*
X574250D01*
Y980900D01*
D02*
G37*
G36*
Y968200D02*
X557210D01*
Y959660D01*
X574250D01*
Y968200D01*
D02*
G37*
G36*
X212040Y973200D02*
X209600D01*
X207242Y972568D01*
X205128Y971348D01*
X203402Y969622D01*
X202182Y967508D01*
X201550Y965150D01*
Y962710D01*
X202182Y960352D01*
X203402Y958238D01*
X205128Y956512D01*
X207242Y955292D01*
X209600Y954660D01*
X212040D01*
X214398Y955292D01*
X216512Y956512D01*
X218238Y958238D01*
X219458Y960352D01*
X220090Y962710D01*
Y965150D01*
X219458Y967508D01*
X218238Y969622D01*
X216512Y971348D01*
X214398Y972568D01*
X212040Y973200D01*
D02*
G37*
G36*
X519750Y955500D02*
X502710D01*
Y953341D01*
X497840D01*
X497032Y953180D01*
X496348Y952722D01*
X496348Y952722D01*
X493808Y950182D01*
X493350Y949498D01*
X493189Y948690D01*
X493189Y948690D01*
Y895115D01*
X477755Y879681D01*
X473648D01*
X473520Y879989D01*
X472319Y881190D01*
X470749Y881840D01*
X469051D01*
X467481Y881190D01*
X466280Y879989D01*
X465630Y878419D01*
Y876721D01*
X466280Y875151D01*
X467481Y873950D01*
X469051Y873300D01*
X470749D01*
X472319Y873950D01*
X473520Y875151D01*
X473648Y875459D01*
X478629D01*
X478629Y875459D01*
X479437Y875620D01*
X480121Y876078D01*
X496792Y892749D01*
X496792Y892749D01*
X497250Y893434D01*
X497411Y894241D01*
X497411Y894241D01*
Y920706D01*
X499011Y921775D01*
X499531Y921560D01*
X501229D01*
X502799Y922210D01*
X504000Y923411D01*
X504650Y924981D01*
Y926679D01*
X504000Y928249D01*
X502799Y929450D01*
X502491Y929578D01*
Y932751D01*
X502710Y934260D01*
X519750D01*
Y942800D01*
X502710D01*
Y941783D01*
X502517Y940238D01*
X501710Y940077D01*
X501025Y939620D01*
X501025Y939620D01*
X499011Y937605D01*
X498492Y937662D01*
X497411Y938152D01*
Y947816D01*
X498714Y949119D01*
X502710D01*
Y946960D01*
X519750D01*
Y955500D01*
D02*
G37*
G36*
X371726Y963057D02*
X361185D01*
Y940517D01*
X371726D01*
Y963057D01*
D02*
G37*
G36*
X339728D02*
X329187D01*
Y940517D01*
X339728D01*
Y963057D01*
D02*
G37*
G36*
X574250Y942800D02*
X557210D01*
Y934260D01*
X574250D01*
Y942800D01*
D02*
G37*
G36*
X466860Y939807D02*
X464573D01*
X462459Y938931D01*
X460842Y937314D01*
X459967Y935200D01*
Y932913D01*
X460375Y931927D01*
X459306Y930327D01*
X446611D01*
Y932180D01*
X446611Y932180D01*
X446450Y932988D01*
X445992Y933672D01*
X445992Y933672D01*
X444722Y934942D01*
X444038Y935400D01*
X443230Y935561D01*
X443230Y935561D01*
X435610D01*
X435610Y935561D01*
X434802Y935400D01*
X434118Y934942D01*
X434118Y934942D01*
X432824Y933649D01*
X432367Y932964D01*
X432206Y932157D01*
X432206Y932157D01*
Y930327D01*
X414327D01*
X413258Y931927D01*
X413666Y932913D01*
Y935200D01*
X412791Y937314D01*
X411174Y938931D01*
X409060Y939807D01*
X406773D01*
X404659Y938931D01*
X403042Y937314D01*
X402166Y935200D01*
Y932913D01*
X403042Y930799D01*
X404659Y929182D01*
X406773Y928307D01*
X408547D01*
Y916387D01*
X417206D01*
Y910679D01*
X415807D01*
Y899139D01*
X415895D01*
Y894881D01*
X416297Y893909D01*
X417269Y893506D01*
X425905D01*
X426877Y893909D01*
X427280Y894881D01*
Y899139D01*
X427346D01*
Y910679D01*
X421427D01*
Y916387D01*
X425869D01*
X427206Y915726D01*
X427366Y914919D01*
X427824Y914234D01*
X430097Y911961D01*
X429776Y911187D01*
X429776D01*
Y899647D01*
X429857D01*
Y896187D01*
X429776D01*
Y884647D01*
X438332D01*
X443091Y879888D01*
X443776Y879430D01*
X444583Y879269D01*
X444583Y879269D01*
X453452D01*
X453580Y878961D01*
X454781Y877760D01*
X456351Y877110D01*
X458049D01*
X459619Y877760D01*
X460820Y878961D01*
X461470Y880531D01*
Y882229D01*
X460820Y883799D01*
X459619Y885000D01*
X458049Y885650D01*
X456351D01*
X455286Y886361D01*
Y895679D01*
X455213D01*
Y899139D01*
X455286D01*
Y906648D01*
X456822Y907339D01*
X457716Y906658D01*
Y899139D01*
X457783D01*
Y894872D01*
X458186Y893900D01*
X459158Y893497D01*
X467794D01*
X468766Y893900D01*
X469169Y894872D01*
Y899139D01*
X469257D01*
Y910679D01*
X459992D01*
X459817Y910714D01*
X455622Y914908D01*
X456235Y916387D01*
X465086D01*
Y928307D01*
X466860D01*
X468974Y929182D01*
X470591Y930799D01*
X471467Y932913D01*
Y935200D01*
X470591Y937314D01*
X468974Y938931D01*
X466860Y939807D01*
D02*
G37*
G36*
X262840Y947800D02*
X260400D01*
X258042Y947168D01*
X255928Y945948D01*
X254202Y944222D01*
X252982Y942108D01*
X252350Y939750D01*
Y937310D01*
X252982Y934952D01*
X254202Y932838D01*
X255928Y931112D01*
X258042Y929892D01*
X260400Y929260D01*
X262840D01*
X265198Y929892D01*
X267312Y931112D01*
X269038Y932838D01*
X270258Y934952D01*
X270890Y937310D01*
Y939750D01*
X270258Y942108D01*
X269038Y944222D01*
X267312Y945948D01*
X265198Y947168D01*
X262840Y947800D01*
D02*
G37*
G36*
X356226Y940557D02*
X344687D01*
Y931850D01*
X344370D01*
Y920327D01*
X341036D01*
Y906987D01*
X359877D01*
Y919916D01*
X360147D01*
X361119Y920319D01*
X361521Y921291D01*
Y930435D01*
X361119Y931407D01*
X360147Y931810D01*
X356910D01*
Y931850D01*
X356226D01*
Y940557D01*
D02*
G37*
G36*
X685979Y901797D02*
X682335D01*
X678760Y901086D01*
X675394Y899691D01*
X672364Y897667D01*
X669787Y895090D01*
X667762Y892060D01*
X666368Y888693D01*
X665657Y885119D01*
Y881475D01*
X666368Y877900D01*
X667762Y874534D01*
X669787Y871504D01*
X672364Y868927D01*
X675394Y866902D01*
X678760Y865508D01*
X682335Y864797D01*
X685979D01*
X689553Y865508D01*
X692920Y866902D01*
X695950Y868927D01*
X698527Y871504D01*
X700551Y874534D01*
X701946Y877900D01*
X702657Y881475D01*
Y885119D01*
X701946Y888693D01*
X700551Y892060D01*
X698527Y895090D01*
X695950Y897667D01*
X692920Y899691D01*
X689553Y901086D01*
X685979Y901797D01*
D02*
G37*
G36*
X519750Y968200D02*
X502710D01*
Y959660D01*
X511909D01*
X512230Y959596D01*
X523326D01*
X523716Y959206D01*
Y877570D01*
X523970Y876294D01*
X524692Y875212D01*
X528503Y871403D01*
X529584Y870680D01*
X530860Y870426D01*
X538100D01*
Y864490D01*
X556640D01*
Y883030D01*
X538100D01*
Y877094D01*
X532241D01*
X530384Y878951D01*
Y960587D01*
X530266Y961179D01*
X530130Y961862D01*
X530130Y961863D01*
X530130Y961863D01*
X529767Y962406D01*
X529408Y962944D01*
X527065Y965287D01*
X527065Y965288D01*
X527065Y965288D01*
X526553Y965630D01*
X525983Y966010D01*
X525983Y966010D01*
X525983Y966011D01*
X525391Y966128D01*
X524707Y966264D01*
X524707Y966264D01*
X524707Y966264D01*
X519750D01*
Y968200D01*
D02*
G37*
G36*
X816649Y437230D02*
X815841Y437069D01*
X815157Y436612D01*
X815054Y436509D01*
X814597Y435824D01*
X814436Y435017D01*
X814597Y434209D01*
X815054Y433524D01*
X815739Y433067D01*
X816546Y432906D01*
X817354Y433067D01*
X818039Y433524D01*
X818141Y433627D01*
X818599Y434312D01*
X818760Y435119D01*
X818599Y435927D01*
X818141Y436612D01*
X817457Y437069D01*
X816649Y437230D01*
D02*
G37*
G36*
X891335Y324055D02*
X882855D01*
X881380Y322580D01*
Y311150D01*
X892810D01*
Y322580D01*
X892596Y322794D01*
Y323857D01*
X891533D01*
X891335Y324055D01*
D02*
G37*
%LPD*%
G36*
X848360Y787400D02*
Y706120D01*
X861060Y693420D01*
X929640D01*
X935990Y687070D01*
Y576580D01*
X932180Y572770D01*
X900430D01*
X897890Y575310D01*
Y662940D01*
X895350Y665480D01*
X811530D01*
X805180Y671830D01*
Y786130D01*
X811530Y792480D01*
X843280D01*
X848360Y787400D01*
D02*
G37*
G36*
X65053Y289560D02*
Y280416D01*
X65456Y279444D01*
X66428Y279041D01*
X69690D01*
Y278968D01*
X79245D01*
X88209Y270004D01*
Y268280D01*
X87050D01*
Y253440D01*
X90605D01*
X92965Y251080D01*
X92302Y249480D01*
X87050D01*
Y234640D01*
X93590D01*
Y239949D01*
X97066D01*
X109908Y227108D01*
X110592Y226650D01*
X111400Y226489D01*
X187086D01*
X188389Y225186D01*
Y215030D01*
X185170D01*
X184730Y215030D01*
X183570D01*
X183130Y215030D01*
X179911D01*
Y217170D01*
X179911Y217170D01*
X179750Y217978D01*
X179292Y218662D01*
X179292Y218662D01*
X176244Y221710D01*
X175560Y222168D01*
X174752Y222329D01*
X174752Y222329D01*
X83000D01*
Y225988D01*
X79431D01*
Y234640D01*
X80590D01*
Y249480D01*
X74050D01*
Y234640D01*
X75210D01*
Y225988D01*
X71460D01*
Y225910D01*
X68000D01*
Y225988D01*
X56460D01*
Y225988D01*
X54860Y225627D01*
X54181Y226153D01*
Y288958D01*
X55190Y290140D01*
X64666D01*
X65053Y289560D01*
D02*
G37*
G36*
X54388Y219488D02*
X55072Y219030D01*
X55880Y218869D01*
X56460Y217479D01*
Y214448D01*
X65044D01*
X66323Y213356D01*
Y204212D01*
X66726Y203239D01*
X67698Y202837D01*
X70960D01*
Y202768D01*
X83500D01*
Y214808D01*
X83000D01*
Y218107D01*
X173878D01*
X175355Y216630D01*
X174883Y215030D01*
X172470D01*
X172030Y215030D01*
X170870D01*
X170430Y215030D01*
X159770D01*
X159330Y215030D01*
X158170D01*
X157730Y215030D01*
X146630D01*
Y198990D01*
X150289D01*
Y195518D01*
X149981Y195390D01*
X148780Y194189D01*
X148130Y192619D01*
Y190921D01*
X148780Y189351D01*
X149981Y188150D01*
X151551Y187500D01*
X153249D01*
X154819Y188150D01*
X156020Y189351D01*
X156670Y190921D01*
Y192619D01*
X156020Y194189D01*
X154819Y195390D01*
X154511Y195518D01*
Y198990D01*
X157730D01*
X158170Y198990D01*
X159330D01*
X159770Y198990D01*
X170430D01*
X170870Y198990D01*
X172030D01*
X172470Y198990D01*
X183130D01*
X183570Y198990D01*
X184730D01*
X185170Y198990D01*
X188389D01*
Y174864D01*
X183276Y169751D01*
X132620D01*
Y198030D01*
X114580D01*
Y169751D01*
X82350D01*
Y173660D01*
X81850D01*
Y184840D01*
X70310D01*
Y184763D01*
X66850D01*
Y184840D01*
X55310D01*
Y181181D01*
X53064D01*
X49101Y185145D01*
Y222628D01*
X50182Y223118D01*
X50701Y223175D01*
X54388Y219488D01*
D02*
G37*
G36*
X356235Y258445D02*
Y236855D01*
X360045Y233045D01*
X404495Y233045D01*
X406400Y231140D01*
X406400Y214630D01*
X404495Y212725D01*
X347513Y212725D01*
Y213409D01*
X347110Y214381D01*
X346138Y214783D01*
X336995D01*
X336022Y214381D01*
X335620Y213409D01*
Y212725D01*
X306705Y212725D01*
X305435Y213995D01*
Y231775D01*
X306705Y233045D01*
X334645D01*
X338455Y236855D01*
Y258445D01*
X339725Y259715D01*
X354965D01*
X356235Y258445D01*
D02*
G37*
%LPC*%
G36*
X63079Y276050D02*
X61381D01*
X59811Y275400D01*
X58610Y274199D01*
X57960Y272629D01*
Y270931D01*
X58610Y269361D01*
X59811Y268160D01*
X60119Y268032D01*
Y266500D01*
X56210D01*
Y253960D01*
X56283D01*
Y250698D01*
X56686Y249726D01*
X57658Y249323D01*
X66802D01*
X67774Y249726D01*
X68177Y250698D01*
Y253960D01*
X68250D01*
Y266500D01*
X64341D01*
Y268032D01*
X64649Y268160D01*
X65850Y269361D01*
X65978Y269669D01*
X73542D01*
X74050Y268280D01*
X74050D01*
Y253440D01*
X80590D01*
Y268280D01*
X79431D01*
Y270660D01*
X79431Y270660D01*
X79270Y271467D01*
X78812Y272152D01*
X78812Y272152D01*
X77692Y273272D01*
X77008Y273730D01*
X76200Y273891D01*
X76200Y273891D01*
X65978D01*
X65850Y274199D01*
X64649Y275400D01*
X63079Y276050D01*
D02*
G37*
%LPD*%
G36*
X347980Y603250D02*
Y600863D01*
X347171D01*
X346199Y600461D01*
X345796Y599489D01*
Y590345D01*
X346199Y589373D01*
X347171Y588970D01*
X347980D01*
Y571500D01*
X356870Y562610D01*
Y539750D01*
X354330Y537210D01*
X340360D01*
X337820Y539750D01*
Y565150D01*
X334010Y568960D01*
Y584200D01*
X331470Y586740D01*
X273050D01*
X270510Y589280D01*
Y601980D01*
X273050Y604520D01*
X346710D01*
X347980Y603250D01*
D02*
G37*
D23*
X515520Y808727D02*
Y838597D01*
X587000Y681000D02*
Y828477D01*
X582790Y676790D02*
X587000Y681000D01*
X427990Y676790D02*
X582790D01*
X412750D02*
X427990D01*
X815315Y825124D02*
Y825227D01*
X812065Y828477D02*
X815315Y825227D01*
X547307Y828477D02*
X562547D01*
X499110Y836839D02*
X500867Y838597D01*
X545549D02*
X547307Y836839D01*
Y828477D02*
Y836839D01*
X499110Y831227D02*
Y836839D01*
X515520Y838597D02*
X545549D01*
X498860Y830977D02*
X499110Y831227D01*
X500867Y838597D02*
X515520D01*
X518160Y68580D02*
X541140D01*
X609600Y139700D02*
X610870Y138430D01*
X599320Y139700D02*
X609600D01*
X608887Y112317D02*
X610870Y114300D01*
X595626Y112317D02*
X608887D01*
X610870Y114300D02*
Y138430D01*
X599320Y139700D02*
Y151130D01*
D47*
X425450Y800100D02*
D03*
X409450Y822166D02*
D03*
Y800100D02*
D03*
X425450Y822166D02*
D03*
D59*
X819150Y601980D02*
D03*
X918210D02*
D03*
D91*
X364460Y577850D02*
D03*
X341660D02*
D03*
X182019Y664004D02*
D03*
X159219D02*
D03*
X182019Y619554D02*
D03*
X159219D02*
D03*
X181516Y573327D02*
D03*
X158716D02*
D03*
D92*
X463487Y904909D02*
D03*
Y889909D02*
D03*
X449516D02*
D03*
Y904909D02*
D03*
X435546Y890417D02*
D03*
Y905417D02*
D03*
X421576Y904909D02*
D03*
Y889909D02*
D03*
X481330Y815460D02*
D03*
Y830460D02*
D03*
X468630Y815460D02*
D03*
Y830460D02*
D03*
X546848Y739481D02*
D03*
Y724481D02*
D03*
X532130Y740290D02*
D03*
Y725290D02*
D03*
X469900Y740290D02*
D03*
Y725290D02*
D03*
X455930Y740290D02*
D03*
Y725290D02*
D03*
X565150Y646310D02*
D03*
Y631310D02*
D03*
X504190Y646310D02*
D03*
Y631310D02*
D03*
X486410Y645280D02*
D03*
Y660280D02*
D03*
X412750Y661790D02*
D03*
Y676790D02*
D03*
X408940Y647580D02*
D03*
Y632580D02*
D03*
X351790Y647580D02*
D03*
Y632580D02*
D03*
X49467Y697907D02*
D03*
Y712907D02*
D03*
X48197Y567097D02*
D03*
Y582097D02*
D03*
X46926Y442637D02*
D03*
Y457637D02*
D03*
X921956Y315637D02*
D03*
Y330637D02*
D03*
Y302697D02*
D03*
Y287697D02*
D03*
X857250Y203080D02*
D03*
Y188080D02*
D03*
X552387Y180777D02*
D03*
Y165777D02*
D03*
X540956Y180777D02*
D03*
Y165777D02*
D03*
X523240Y153670D02*
D03*
Y138670D02*
D03*
X551116Y364927D02*
D03*
Y349927D02*
D03*
X467296Y347387D02*
D03*
Y362387D02*
D03*
X449516Y347387D02*
D03*
Y362387D02*
D03*
X549846Y422077D02*
D03*
Y407077D02*
D03*
X469837Y405807D02*
D03*
Y420807D02*
D03*
X450787Y405807D02*
D03*
Y420807D02*
D03*
D93*
X457463Y855466D02*
D03*
Y870466D02*
D03*
X444763Y855466D02*
D03*
Y870466D02*
D03*
X432063Y855466D02*
D03*
Y870466D02*
D03*
X419363Y855586D02*
D03*
Y870586D02*
D03*
X406663Y855466D02*
D03*
Y870466D02*
D03*
X262890Y815460D02*
D03*
Y830460D02*
D03*
X562547Y828477D02*
D03*
Y813477D02*
D03*
X547307Y828477D02*
D03*
Y813477D02*
D03*
X487158Y739481D02*
D03*
Y724481D02*
D03*
X410892Y738698D02*
D03*
Y723697D02*
D03*
X518160Y631310D02*
D03*
Y646310D02*
D03*
X473710Y660280D02*
D03*
Y645280D02*
D03*
X427990Y661790D02*
D03*
Y676790D02*
D03*
X364490Y632580D02*
D03*
Y647580D02*
D03*
X247467Y706806D02*
D03*
Y691807D02*
D03*
X234767Y706806D02*
D03*
Y691807D02*
D03*
X182049Y633644D02*
D03*
Y648644D02*
D03*
Y589194D02*
D03*
Y604194D02*
D03*
X74866Y697907D02*
D03*
Y712907D02*
D03*
X69787Y567097D02*
D03*
Y582097D02*
D03*
Y442637D02*
D03*
Y457637D02*
D03*
X62230Y260230D02*
D03*
Y245230D02*
D03*
X882639Y811132D02*
D03*
Y826133D02*
D03*
X859779Y824863D02*
D03*
Y809862D02*
D03*
X843255Y825124D02*
D03*
Y810124D02*
D03*
X829285Y825124D02*
D03*
Y810124D02*
D03*
X815315Y825124D02*
D03*
Y810124D02*
D03*
X896620Y439300D02*
D03*
Y424300D02*
D03*
X816546Y435017D02*
D03*
Y450017D02*
D03*
X896556Y411917D02*
D03*
Y396917D02*
D03*
X883857Y411917D02*
D03*
Y396917D02*
D03*
X341567Y218877D02*
D03*
Y203877D02*
D03*
X479996Y293807D02*
D03*
Y278807D02*
D03*
X444436Y293807D02*
D03*
Y278807D02*
D03*
Y484337D02*
D03*
Y499337D02*
D03*
X479996D02*
D03*
Y484337D02*
D03*
D94*
X350640Y925830D02*
D03*
X365640D02*
D03*
X350400Y877570D02*
D03*
X335400D02*
D03*
X409696Y836787D02*
D03*
X424696D02*
D03*
X425330Y786130D02*
D03*
X410330D02*
D03*
X75960Y284988D02*
D03*
X60960D02*
D03*
X77230Y208788D02*
D03*
X62230D02*
D03*
X76080Y167640D02*
D03*
X61080D02*
D03*
X926267Y454724D02*
D03*
X911267D02*
D03*
Y440754D02*
D03*
X926267D02*
D03*
X894136Y330757D02*
D03*
X909137D02*
D03*
X897946Y274877D02*
D03*
X912947D02*
D03*
X829430Y189230D02*
D03*
X844430D02*
D03*
X818730Y81980D02*
D03*
X833730D02*
D03*
X599320Y139700D02*
D03*
X584320D02*
D03*
X356687Y594917D02*
D03*
X341686D02*
D03*
D95*
X137280Y899160D02*
D03*
X152280D02*
D03*
Y911860D02*
D03*
X137280D02*
D03*
X137280Y923290D02*
D03*
X152280D02*
D03*
Y934720D02*
D03*
X137280D02*
D03*
X152280Y946150D02*
D03*
X137280D02*
D03*
X137280Y957580D02*
D03*
X152280D02*
D03*
Y970280D02*
D03*
X137280D02*
D03*
X284360Y894080D02*
D03*
X269360D02*
D03*
X547091Y775369D02*
D03*
X562091D02*
D03*
X133076Y664048D02*
D03*
X148075D02*
D03*
X60960Y295910D02*
D03*
X75960D02*
D03*
X62230Y220218D02*
D03*
X77230D02*
D03*
X61080Y179070D02*
D03*
X76080D02*
D03*
X926980Y491490D02*
D03*
X911980D02*
D03*
Y480060D02*
D03*
X926980D02*
D03*
X911980Y468630D02*
D03*
X926980D02*
D03*
X844430Y203200D02*
D03*
X829430D02*
D03*
X735147Y201217D02*
D03*
X720146D02*
D03*
X735210Y184150D02*
D03*
X720210D02*
D03*
X792060Y81980D02*
D03*
X807060D02*
D03*
X599320Y151130D02*
D03*
X584320D02*
D03*
X539806Y140257D02*
D03*
X554807D02*
D03*
X539870Y152400D02*
D03*
X554870D02*
D03*
X541140Y68580D02*
D03*
X556140D02*
D03*
X491546Y293927D02*
D03*
X506547D02*
D03*
X454716D02*
D03*
X469717D02*
D03*
X492816Y484337D02*
D03*
X507817D02*
D03*
X454716D02*
D03*
X469717D02*
D03*
D96*
X238350Y859700D02*
D03*
Y870700D02*
D03*
Y848700D02*
D03*
Y826700D02*
D03*
Y804700D02*
D03*
Y815700D02*
D03*
Y793700D02*
D03*
Y782700D02*
D03*
Y837700D02*
D03*
D97*
X137350Y727700D02*
D03*
Y882700D02*
D03*
D98*
X233350Y736700D02*
D03*
D99*
X232350Y882700D02*
D03*
D100*
X511230Y938530D02*
D03*
Y951230D02*
D03*
Y963930D02*
D03*
X565730D02*
D03*
Y938530D02*
D03*
Y976630D02*
D03*
Y951230D02*
D03*
X511230Y976630D02*
D03*
D101*
X454317Y923356D02*
D03*
X449316D02*
D03*
X429316D02*
D03*
X434317D02*
D03*
X424317D02*
D03*
X444317D02*
D03*
X439316D02*
D03*
X419316D02*
D03*
D102*
X460816D02*
D03*
X412817D02*
D03*
X404817D02*
D03*
X468816D02*
D03*
D103*
X350457Y935787D02*
D03*
X182049Y678485D02*
D03*
D104*
X334457Y951787D02*
D03*
X366456D02*
D03*
X198048Y694484D02*
D03*
X166049D02*
D03*
D105*
X350457Y913657D02*
D03*
Y890857D02*
D03*
X829247Y865397D02*
D03*
Y842597D02*
D03*
D106*
X522726Y820977D02*
D03*
Y810977D02*
D03*
X498227Y815977D02*
D03*
X522726D02*
D03*
Y830977D02*
D03*
X498227Y825977D02*
D03*
Y820977D02*
D03*
Y830977D02*
D03*
Y810977D02*
D03*
X522726Y825977D02*
D03*
D107*
X505477Y808727D02*
D03*
X510476Y833227D02*
D03*
Y808727D02*
D03*
X505477Y833227D02*
D03*
X515477D02*
D03*
Y808727D02*
D03*
D108*
X499803Y743186D02*
D03*
X519057Y743132D02*
D03*
X509607Y718186D02*
D03*
X443848Y743184D02*
D03*
X424595Y743239D02*
D03*
X434399Y718238D02*
D03*
X541211Y657751D02*
D03*
X531762Y632805D02*
D03*
X551015Y632751D02*
D03*
X440983Y658667D02*
D03*
X450787Y633666D02*
D03*
X460235Y658612D02*
D03*
X386068Y659487D02*
D03*
X376618Y634541D02*
D03*
X395872Y634487D02*
D03*
X488378Y346251D02*
D03*
X507632Y346197D02*
D03*
X497828Y371197D02*
D03*
X488378Y404671D02*
D03*
X507632Y404617D02*
D03*
X497828Y429617D02*
D03*
D109*
X263977Y659997D02*
D03*
X289377D02*
D03*
X276677D02*
D03*
X263977Y730997D02*
D03*
X289377D02*
D03*
X276677D02*
D03*
X302077D02*
D03*
Y659997D02*
D03*
D110*
X317746Y632084D02*
D03*
X318000Y595000D02*
D03*
X285000Y632000D02*
D03*
X285254Y594916D02*
D03*
X364000Y182000D02*
D03*
X363746Y219084D02*
D03*
X319254Y181916D02*
D03*
X319000Y219000D02*
D03*
D111*
X115637Y324337D02*
D03*
Y314337D02*
D03*
Y304337D02*
D03*
Y294337D02*
D03*
Y364337D02*
D03*
Y384337D02*
D03*
Y374337D02*
D03*
Y334337D02*
D03*
Y354337D02*
D03*
Y344337D02*
D03*
Y444337D02*
D03*
Y464337D02*
D03*
Y454337D02*
D03*
Y414337D02*
D03*
Y404337D02*
D03*
Y434337D02*
D03*
Y424337D02*
D03*
Y494337D02*
D03*
Y484337D02*
D03*
Y474337D02*
D03*
Y394337D02*
D03*
X417636Y304337D02*
D03*
Y324337D02*
D03*
Y314337D02*
D03*
Y294337D02*
D03*
Y364337D02*
D03*
Y354337D02*
D03*
Y384337D02*
D03*
Y374337D02*
D03*
Y344337D02*
D03*
Y334337D02*
D03*
Y444337D02*
D03*
Y434337D02*
D03*
Y464337D02*
D03*
Y454337D02*
D03*
Y404337D02*
D03*
Y394337D02*
D03*
Y424337D02*
D03*
Y414337D02*
D03*
Y494337D02*
D03*
Y484337D02*
D03*
Y504337D02*
D03*
Y474337D02*
D03*
D112*
X231636Y248337D02*
D03*
X241636D02*
D03*
X171636D02*
D03*
X181636D02*
D03*
X161637D02*
D03*
X211636D02*
D03*
X221636D02*
D03*
X191636D02*
D03*
X201636D02*
D03*
X241636Y550337D02*
D03*
X221636D02*
D03*
X231636D02*
D03*
X161637D02*
D03*
X171636D02*
D03*
X201636D02*
D03*
X211636D02*
D03*
X181636D02*
D03*
X191636D02*
D03*
X351637Y248337D02*
D03*
X331637D02*
D03*
X341637D02*
D03*
X371637D02*
D03*
X361637D02*
D03*
X271637D02*
D03*
X281637D02*
D03*
X251636D02*
D03*
X261637D02*
D03*
X311637D02*
D03*
X321637D02*
D03*
X291637D02*
D03*
X301637D02*
D03*
X341637Y550337D02*
D03*
X321637D02*
D03*
X331637D02*
D03*
X361637D02*
D03*
X371637D02*
D03*
X351637D02*
D03*
X271637D02*
D03*
X281637D02*
D03*
X251636D02*
D03*
X261637D02*
D03*
X301637D02*
D03*
X311637D02*
D03*
X291637D02*
D03*
D113*
X59876Y673943D02*
D03*
Y606943D02*
D03*
X58356Y545867D02*
D03*
Y478867D02*
D03*
Y421407D02*
D03*
Y354407D02*
D03*
D114*
X123600Y57560D02*
D03*
Y183760D02*
D03*
X281600Y57560D02*
D03*
Y183760D02*
D03*
D115*
X152400Y207010D02*
D03*
X165100D02*
D03*
X190500D02*
D03*
X177800D02*
D03*
X215900D02*
D03*
X203200D02*
D03*
X139700D02*
D03*
D116*
X77320Y260860D02*
D03*
X90320D02*
D03*
X77320Y242060D02*
D03*
X90320D02*
D03*
X83820Y260860D02*
D03*
D117*
X859359Y863692D02*
D03*
Y844692D02*
D03*
X883059Y854192D02*
D03*
Y863692D02*
D03*
Y844692D02*
D03*
D118*
X825254Y744935D02*
D03*
X885254Y744933D02*
D03*
X885000Y709998D02*
D03*
X825000Y710000D02*
D03*
X804807Y404419D02*
D03*
X864807Y404417D02*
D03*
D119*
X817720Y516890D02*
D03*
X861220D02*
D03*
D120*
X881007Y435119D02*
D03*
X842907D02*
D03*
X868307D02*
D03*
X881007Y489619D02*
D03*
X868307D02*
D03*
X842907D02*
D03*
X855607D02*
D03*
Y435119D02*
D03*
D121*
X836867Y284567D02*
D03*
Y334567D02*
D03*
D122*
X907327Y290587D02*
D03*
X888326D02*
D03*
Y317587D02*
D03*
X897827D02*
D03*
X907327D02*
D03*
X897827Y290587D02*
D03*
D123*
X876117Y243127D02*
D03*
X924616D02*
D03*
X695840Y64770D02*
D03*
X744340D02*
D03*
X675760Y170180D02*
D03*
X627260D02*
D03*
D124*
X750507Y184707D02*
D03*
X773366D02*
D03*
X750507Y201217D02*
D03*
X773366D02*
D03*
X508991Y775369D02*
D03*
X531851D02*
D03*
D125*
X744156Y153827D02*
D03*
Y103827D02*
D03*
X458470Y120250D02*
D03*
Y70250D02*
D03*
D126*
X791146Y115507D02*
D03*
X803847D02*
D03*
Y165007D02*
D03*
X816546D02*
D03*
X829247D02*
D03*
X816546Y115507D02*
D03*
X791146Y165007D02*
D03*
X829247Y115507D02*
D03*
D127*
X810197Y140257D02*
D03*
D128*
X662450Y137160D02*
D03*
X632950D02*
D03*
D129*
X671220Y86360D02*
D03*
X626720D02*
D03*
D130*
X393700Y222410D02*
D03*
Y178910D02*
D03*
X506666Y272497D02*
D03*
Y228997D02*
D03*
D131*
X524957Y293927D02*
D03*
X518607Y484337D02*
D03*
D132*
X540956Y277927D02*
D03*
Y309926D02*
D03*
X534607Y468337D02*
D03*
Y500336D02*
D03*
D133*
X529526Y368857D02*
D03*
Y345997D02*
D03*
Y426007D02*
D03*
Y403147D02*
D03*
X518160Y91440D02*
D03*
Y68580D02*
D03*
D134*
X325056Y798117D02*
D03*
D135*
X539627Y99617D02*
D03*
X595626Y112317D02*
D03*
Y125017D02*
D03*
Y86917D02*
D03*
Y99617D02*
D03*
X539627Y125017D02*
D03*
Y112317D02*
D03*
Y86917D02*
D03*
D136*
X567626Y105967D02*
D03*
D137*
X289556Y808117D02*
D03*
Y816117D02*
D03*
Y824117D02*
D03*
Y820117D02*
D03*
Y812117D02*
D03*
Y804117D02*
D03*
X360557D02*
D03*
Y820117D02*
D03*
Y824117D02*
D03*
Y808117D02*
D03*
Y816117D02*
D03*
Y812117D02*
D03*
X289556Y784117D02*
D03*
Y788117D02*
D03*
Y772117D02*
D03*
Y780117D02*
D03*
Y776117D02*
D03*
Y800117D02*
D03*
Y792117D02*
D03*
Y796117D02*
D03*
X360557Y780117D02*
D03*
Y776117D02*
D03*
Y796117D02*
D03*
Y800117D02*
D03*
Y784117D02*
D03*
Y792117D02*
D03*
Y788117D02*
D03*
Y772117D02*
D03*
D138*
X319056Y833617D02*
D03*
X307057D02*
D03*
X299057D02*
D03*
X303057D02*
D03*
X315056D02*
D03*
X311056D02*
D03*
X339057D02*
D03*
X343056D02*
D03*
X327057D02*
D03*
X335056D02*
D03*
X331057D02*
D03*
X351056D02*
D03*
X347057D02*
D03*
X323056D02*
D03*
X303057Y762617D02*
D03*
X307057D02*
D03*
X299057D02*
D03*
X319056D02*
D03*
X323056D02*
D03*
X315056D02*
D03*
X311056D02*
D03*
X339057D02*
D03*
X343056D02*
D03*
X327057D02*
D03*
X335056D02*
D03*
X331057D02*
D03*
X351056D02*
D03*
X347057D02*
D03*
D139*
X111400Y228600D02*
X187960D01*
X97940Y242060D02*
X111400Y228600D01*
X90320Y242060D02*
X97940D01*
X90320Y256710D02*
X110810Y236220D01*
X196850D01*
X90320Y260860D02*
Y270878D01*
Y256710D02*
Y260860D01*
X792937Y101600D02*
X802640D01*
X792000Y100663D02*
X792937Y101600D01*
X792000Y82000D02*
Y95130D01*
Y100663D01*
X458470Y155273D02*
X459407Y156210D01*
X520700D01*
X458470Y120250D02*
Y155273D01*
X88000Y564000D02*
X107950Y583950D01*
Y712470D01*
X918210Y601980D02*
X926980Y593210D01*
Y491490D02*
Y593210D01*
X133076Y521937D02*
X134013Y521000D01*
X133076Y521937D02*
Y664048D01*
X134013Y521000D02*
X393700D01*
X291868Y564918D02*
X292100Y565150D01*
X291868Y550568D02*
Y564918D01*
X251328Y565516D02*
X251482Y565362D01*
Y550491D02*
Y565362D01*
X261628Y550345D02*
Y565142D01*
X261620Y565150D02*
X261628Y565142D01*
X141663Y354337D02*
X142000Y354000D01*
X88000Y425820D02*
Y564000D01*
X100330Y582930D02*
Y704850D01*
X85090Y567690D02*
X100330Y582930D01*
X85090Y548090D02*
Y567690D01*
X58356Y545867D02*
X82867D01*
X85090Y548090D01*
X83400Y421220D02*
X88000Y425820D01*
X57983Y421033D02*
X58356Y421407D01*
X58170Y421220D02*
X83400D01*
X321340Y848779D02*
Y859309D01*
Y848779D02*
X323056Y847064D01*
X339081Y845343D02*
Y861212D01*
X303530Y896762D02*
X339081Y861212D01*
X339057Y845319D02*
X339081Y845343D01*
X339057Y833617D02*
Y845319D01*
X318470Y846130D02*
Y853858D01*
Y846130D02*
X319056Y845544D01*
X335056Y833617D02*
Y858576D01*
X327660Y858520D02*
X331480Y854699D01*
X306123Y887510D02*
X335056Y858576D01*
X304800Y867529D02*
X318470Y853858D01*
X331480Y846214D02*
Y854699D01*
X303850Y876800D02*
X321340Y859309D01*
X331057Y845790D02*
X331480Y846214D01*
X285825Y880110D02*
X315056Y850878D01*
X327156Y833717D02*
Y850461D01*
X315056Y833617D02*
Y850878D01*
X326410Y851207D02*
X327156Y850461D01*
X331057Y833617D02*
Y845790D01*
X323056Y833617D02*
Y847064D01*
X319056Y833617D02*
Y845544D01*
X261840Y887510D02*
X306123D01*
X327057Y833617D02*
X327156Y833717D01*
X533877Y99617D02*
X539627D01*
X523240Y110253D02*
X533877Y99617D01*
X523240Y110253D02*
Y138670D01*
X525187Y165777D02*
X540956D01*
X523240Y163830D02*
X525187Y165777D01*
X523240Y153670D02*
Y163830D01*
X520700Y156210D02*
X523240Y153670D01*
X246380Y766678D02*
X279819Y800117D01*
X246380Y744220D02*
Y766678D01*
X87630Y679450D02*
Y703580D01*
X82123Y673943D02*
X87630Y679450D01*
X540520Y180340D02*
X540956Y180777D01*
X532130Y180340D02*
X540520D01*
X275600Y824220D02*
Y839480D01*
X272730Y823031D02*
Y845500D01*
X269860Y819800D02*
Y868060D01*
X280670Y826324D02*
Y836930D01*
X298450Y877570D02*
X299220Y876800D01*
X303850D01*
X278130Y880110D02*
X285825D01*
X285536Y852090D02*
Y859559D01*
X298857Y833817D02*
Y838769D01*
X285536Y852090D02*
X298857Y838769D01*
Y833817D02*
X299057Y833617D01*
X289110Y871220D02*
X311056Y849274D01*
X279400Y871220D02*
X289110D01*
X281940Y863155D02*
Y863600D01*
X295910Y855980D02*
X307057Y844834D01*
X311056Y833617D02*
Y849274D01*
X281940Y863155D02*
X285536Y859559D01*
X289560Y853440D02*
Y863600D01*
Y853440D02*
X303057Y839943D01*
Y833617D02*
Y839943D01*
X304800Y867529D02*
Y868680D01*
X307057Y833617D02*
Y844834D01*
X223520Y779183D02*
X226060Y781723D01*
X223520Y749300D02*
Y779183D01*
X226060Y781723D02*
Y782320D01*
X220650Y788340D02*
X226060Y793750D01*
X220650Y750489D02*
Y788340D01*
X275600Y839480D02*
X280670Y844550D01*
X272730Y845500D02*
X279400Y852170D01*
X269860Y819800D02*
X277543Y812117D01*
X272730Y823031D02*
X275260Y820501D01*
X275600Y824220D02*
X279503Y820317D01*
X267220Y870700D02*
X269860Y868060D01*
X62230Y260230D02*
Y271780D01*
X76200D01*
X303530Y896762D02*
Y922020D01*
X844430Y203200D02*
X844550Y203320D01*
Y212090D01*
X98090Y304280D02*
X115580D01*
X97907Y304097D02*
X98090Y304280D01*
X274522Y764168D02*
X275247Y764893D01*
Y767879D02*
X283424Y776055D01*
X275247Y764893D02*
Y767879D01*
X289495Y776055D02*
X289556Y776117D01*
X283424Y776055D02*
X289495D01*
X275937Y788117D02*
X289556D01*
X279819Y800117D02*
X289556D01*
X266668Y762253D02*
Y778848D01*
X278851Y782671D02*
X280329Y784148D01*
X282077Y779917D02*
X289356D01*
X260125Y757145D02*
Y776364D01*
X280329Y784148D02*
X289525D01*
X266668Y778848D02*
X275937Y788117D01*
X277310Y775150D02*
X282077Y779917D01*
X273500Y775150D02*
X277310D01*
X277661Y782671D02*
X278851D01*
X275878Y792117D02*
X289556D01*
X260125Y776364D02*
X275878Y792117D01*
X273050Y774700D02*
X273500Y775150D01*
X270301Y758249D02*
Y758621D01*
X266668Y762253D02*
X270301Y758621D01*
X315056Y746037D02*
Y762617D01*
X308610Y747951D02*
X311056Y750397D01*
X313680Y736600D02*
X319056Y741977D01*
X311056Y750397D02*
Y762617D01*
X291325Y740743D02*
X292262Y741680D01*
X289377Y730997D02*
X291325Y732945D01*
Y740743D01*
X310700Y741680D02*
X315056Y746037D01*
X292262Y741680D02*
X310700D01*
X308610Y746760D02*
Y747951D01*
X260125Y757145D02*
X264160Y753110D01*
X289356Y779917D02*
X289556Y780117D01*
X289525Y784148D02*
X289556Y784117D01*
X59876Y673943D02*
X82123D01*
X280670Y826324D02*
X282877Y824117D01*
X508322Y774700D02*
X508991Y775369D01*
X497840Y774700D02*
X508322D01*
X526610Y820860D02*
X529590Y817880D01*
Y800100D02*
Y817880D01*
X522726Y820977D02*
X522843Y820860D01*
X526610D01*
X522726Y799586D02*
Y810977D01*
X519430Y796290D02*
X522726Y799586D01*
X466707Y762617D02*
X500380Y796290D01*
X519430D01*
X521970Y792480D02*
X529590Y800100D01*
X468917Y759747D02*
X501650Y792480D01*
X521970D01*
X351056Y762617D02*
X466707D01*
X358427Y759747D02*
X468917D01*
X284360Y894080D02*
X292100D01*
X505460Y808710D02*
X505477Y808727D01*
X505460Y803910D02*
Y808710D01*
X504190Y802640D02*
X505460Y803910D01*
X473710Y802640D02*
X504190D01*
X468630Y807720D02*
X473710Y802640D01*
X481847Y815977D02*
X498227D01*
X481330Y815460D02*
X481847Y815977D01*
X481330Y807720D02*
Y815460D01*
X468630Y807720D02*
Y815460D01*
X478629Y877570D02*
X495300Y894241D01*
X469900Y877570D02*
X478629D01*
X510827Y938127D02*
X511230Y938530D01*
X500380Y935990D02*
X502517Y938127D01*
X510827D01*
X500380Y925830D02*
Y935990D01*
X497840Y951230D02*
X511230D01*
X495300Y948690D02*
X497840Y951230D01*
X495300Y894241D02*
Y948690D01*
X375833Y796203D02*
X375920Y796290D01*
X360643Y796203D02*
X375833D01*
X360565Y800108D02*
X372085D01*
X375886Y803910D02*
X375920D01*
X372085Y800108D02*
X375886Y803910D01*
X360557Y796117D02*
X360643Y796203D01*
X360557Y800117D02*
X360565Y800108D01*
X360557Y812117D02*
X415191D01*
X425450Y801858D01*
X261620Y963930D02*
X303530Y922020D01*
X261620Y894080D02*
X269360D01*
X247650Y908050D02*
X261620Y894080D01*
X247650Y908050D02*
Y948690D01*
X210820Y938530D02*
X261840Y887510D01*
X236220Y960120D02*
Y963930D01*
Y960120D02*
X247650Y948690D01*
X435546Y890417D02*
X444583Y881380D01*
X457200D01*
X360557Y816117D02*
X379237D01*
X385286Y822166D01*
X409450D01*
X350520Y819150D02*
X351487Y820117D01*
X360557D01*
X352201Y784117D02*
X360557D01*
X350520Y785797D02*
Y819150D01*
Y785797D02*
X352201Y784117D01*
X342900Y823897D02*
Y833460D01*
X298657Y804117D02*
X300990Y806450D01*
Y822023D01*
X301927Y822960D02*
X341963D01*
X342900Y833460D02*
X343056Y833617D01*
X341963Y822960D02*
X342900Y823897D01*
X300990Y822023D02*
X301927Y822960D01*
X115637Y464337D02*
X115878Y464578D01*
X133108D01*
X133350Y464820D01*
X349250Y706120D02*
X471170D01*
X478790Y713740D01*
Y738544D01*
X479727Y739481D01*
X487158D01*
X115637Y474337D02*
X115958Y474658D01*
X133028D01*
X133350Y474980D01*
X349250Y716280D02*
X359410D01*
X381828Y738698D01*
X410892D01*
X291637Y550337D02*
X291868Y550568D01*
X551015Y618655D02*
X551180Y618490D01*
X551015Y618655D02*
Y632751D01*
X261628Y550345D02*
X261637Y550337D01*
X450787Y619823D02*
X450850Y619760D01*
X450787Y619823D02*
Y633666D01*
X251482Y550491D02*
X251636Y550337D01*
X394802Y620069D02*
Y633417D01*
X395872Y634487D01*
X289556Y804117D02*
X298657D01*
X237970Y782320D02*
X238350Y782700D01*
X226060Y782320D02*
X237970D01*
X541102Y657860D02*
X541211Y657751D01*
X530860Y657860D02*
X541102D01*
X289560Y748030D02*
X300990D01*
X285896Y758417D02*
X298856D01*
X263977Y736497D02*
X285896Y758417D01*
X263977Y730997D02*
Y736497D01*
X283210Y741680D02*
X289560Y748030D01*
X288041Y754380D02*
X300990D01*
X289560Y659997D02*
Y683260D01*
X276677Y743016D02*
X288041Y754380D01*
X298856Y758417D02*
X299057Y758617D01*
X283210Y689610D02*
Y741680D01*
X276677Y730997D02*
Y743016D01*
X299057Y758617D02*
Y762617D01*
X412630Y661670D02*
X412750Y661790D01*
X403860Y661670D02*
X412630D01*
X386068Y659487D02*
X386170Y659590D01*
Y671404D01*
X262650Y815700D02*
X262890Y815460D01*
X302077Y730997D02*
X315707D01*
X339257Y756470D02*
Y762417D01*
X343256Y756528D02*
Y762417D01*
Y756528D02*
X347108Y752677D01*
X339257Y756470D02*
X345919Y749807D01*
X356604D01*
X347108Y752677D02*
X355415D01*
X347057Y762617D02*
X347257Y762417D01*
X348297Y755547D02*
X354227D01*
X347257Y756587D02*
X348297Y755547D01*
X347257Y756587D02*
Y762417D01*
X455930Y740290D02*
Y751467D01*
X453390Y754007D02*
X455930Y751467D01*
X360804Y754007D02*
X453390D01*
X356604Y749807D02*
X360804Y754007D01*
X339057Y762617D02*
X339257Y762417D01*
X355415Y752677D02*
X359616Y756877D01*
X354227Y755547D02*
X358427Y759747D01*
X532130Y740290D02*
Y753110D01*
X528363Y756877D02*
X532130Y753110D01*
X359616Y756877D02*
X528363D01*
X343056Y762617D02*
X343256Y762417D01*
X152400Y191770D02*
Y207010D01*
X77230Y220218D02*
X174752D01*
X115580Y304280D02*
X115637Y304337D01*
X76200Y271780D02*
X77320Y270660D01*
Y260860D02*
Y270660D01*
X76080Y167640D02*
X184150D01*
X190500Y173990D02*
Y207010D01*
X184150Y167640D02*
X190500Y173990D01*
Y207010D02*
Y226060D01*
X177800Y207010D02*
Y217170D01*
X174752Y220218D02*
X177800Y217170D01*
X77320Y220308D02*
Y242060D01*
X77230Y220218D02*
X77320Y220308D01*
X187960Y228600D02*
X190500Y226060D01*
X203200Y207010D02*
Y229870D01*
X196850Y236220D02*
X203200Y229870D01*
X76210Y284988D02*
X90320Y270878D01*
X75960Y284988D02*
X76210D01*
X75960Y284988D02*
X75960Y284988D01*
X75960Y284988D02*
Y295910D01*
X52190Y179070D02*
X61080D01*
X46990Y184270D02*
X52190Y179070D01*
X61468Y220980D02*
X62230Y220218D01*
X55880Y220980D02*
X61468D01*
X52070Y224790D02*
X55880Y220980D01*
X52070Y224790D02*
Y300990D01*
X75417Y324337D01*
X115637D01*
X77230Y220218D02*
X77230Y220218D01*
X77230Y208788D02*
Y220218D01*
X76080Y179070D02*
X76080Y179070D01*
Y167640D02*
Y179070D01*
X46990Y184270D02*
Y303530D01*
X77797Y334337D01*
X115637D01*
X60960Y295910D02*
Y303530D01*
X71767Y314337D01*
X115637D01*
X289356Y820317D02*
X289556Y820117D01*
X277543Y812117D02*
X289556D01*
X279445Y816317D02*
X285356D01*
X282877Y824117D02*
X289556D01*
X275260Y820501D02*
X279445Y816317D01*
X238350Y870700D02*
X267220D01*
X279503Y820317D02*
X289356D01*
X350457Y913657D02*
Y935787D01*
Y913657D02*
Y935787D01*
Y877570D02*
Y890857D01*
Y877570D02*
Y890857D01*
Y877570D02*
Y890857D01*
X289560Y659997D02*
Y683260D01*
X350457Y913657D02*
Y935787D01*
X425450Y800100D02*
Y801858D01*
X481847Y830977D02*
X498227D01*
X481330Y830460D02*
X481847Y830977D01*
X468630Y830460D02*
X481330D01*
X419316Y907169D02*
X421576Y904909D01*
X419316Y907169D02*
Y923356D01*
X450016Y917529D02*
X458937Y908609D01*
X459787D02*
X463487Y904909D01*
X458937Y908609D02*
X459787D01*
X445017Y916309D02*
X449516Y911809D01*
X445017Y916309D02*
Y922656D01*
X444317Y923356D02*
X445017Y922656D01*
X450016Y917529D02*
Y922656D01*
X449516Y904909D02*
Y911809D01*
X444317Y923356D02*
X444500Y923540D01*
Y932180D01*
X443230Y933450D02*
X444500Y932180D01*
X435610Y933450D02*
X443230D01*
X434317Y932157D02*
X435610Y933450D01*
X434317Y923356D02*
Y932157D01*
X435502Y905462D02*
Y909541D01*
X438616Y912655D01*
X429316Y915726D02*
X435502Y909541D01*
X438616Y912655D02*
Y922656D01*
X429316Y915726D02*
Y923356D01*
X438616Y922656D02*
X439316Y923356D01*
X449316D02*
X450016Y922656D01*
X285356Y816317D02*
X285557Y816117D01*
X289556D01*
X618324Y951230D02*
X619760Y952667D01*
X107617Y970280D02*
X137280D01*
X106680Y737537D02*
Y969343D01*
X107617Y970280D01*
X106680Y737537D02*
X107617Y736600D01*
X210820D01*
X115670Y747566D02*
X117167Y746069D01*
X118540Y750436D02*
Y921793D01*
X117167Y746069D02*
X206599D01*
X121410Y753337D02*
X122938Y751808D01*
X117167Y934720D02*
X137280D01*
X122907Y911860D02*
X137280D01*
X115670Y933223D02*
X117167Y934720D01*
X124280Y897663D02*
X125777Y899160D01*
X115670Y747566D02*
Y933223D01*
X124280Y756176D02*
X125777Y754679D01*
X121410Y910363D02*
X122907Y911860D01*
X112800Y745717D02*
X115318Y743198D01*
X207788D01*
X114298Y946150D02*
X137280D01*
X111427Y740329D02*
X210490D01*
X109930Y741826D02*
Y956083D01*
X118540Y921793D02*
X120037Y923290D01*
X109930Y956083D02*
X111427Y957580D01*
X121410Y753337D02*
Y910363D01*
X111427Y957580D02*
X137280D01*
X112800Y745717D02*
Y944653D01*
X124280Y756176D02*
Y897663D01*
X122938Y751808D02*
X204221D01*
X112800Y944653D02*
X114298Y946150D01*
X109930Y741826D02*
X111427Y740329D01*
X125777Y754679D02*
X203032D01*
X125777Y899160D02*
X137280D01*
X120037Y748939D02*
X205410D01*
X120037Y923290D02*
X137280D01*
X118540Y750436D02*
X120037Y748939D01*
X207788Y743198D02*
Y743199D01*
X209301D01*
X217780Y751677D01*
X203032Y754679D02*
X206300Y757946D01*
X205410Y748939D02*
X212040Y755569D01*
X205903Y753490D02*
X209170Y756757D01*
Y854330D01*
X214540Y859700D01*
X204221Y751808D02*
X205903Y753490D01*
X300990Y748030D02*
X307057Y754097D01*
Y762617D01*
X319056Y741977D02*
Y762617D01*
X283210Y689610D02*
X289560Y683260D01*
X300990Y754380D02*
X303044Y756434D01*
Y762605D01*
X303057Y762617D01*
X276677Y659997D02*
X276860Y660180D01*
Y675640D01*
X263977Y659997D02*
X264160Y660180D01*
Y675640D01*
X323056Y738346D02*
Y762617D01*
X315707Y730997D02*
X323056Y738346D01*
X259080Y730997D02*
X263977D01*
X247467Y706806D02*
Y719383D01*
X259080Y730997D01*
X234767Y706806D02*
X247467D01*
X238440Y859790D02*
X251460D01*
X238350Y859700D02*
X238440Y859790D01*
X214540Y859700D02*
X238350D01*
Y826700D02*
X238420Y826770D01*
X238280D02*
X238350Y826700D01*
X238420Y826770D02*
X251460D01*
X214910Y821970D02*
X219710Y826770D01*
X238280D01*
X214910Y754380D02*
Y821970D01*
X206599Y746069D02*
X214910Y754380D01*
X238690Y848360D02*
X251460D01*
X218780Y848700D02*
X238350D01*
X238690Y848360D01*
X212040Y755569D02*
Y841960D01*
X218780Y848700D01*
X237830Y871220D02*
X238350Y870700D01*
X206300Y864160D02*
X213360Y871220D01*
X351056Y833617D02*
Y876914D01*
X350400Y877570D02*
X351056Y876914D01*
X213360Y871220D02*
X237830D01*
X206300Y757946D02*
Y864160D01*
X217780Y751677D02*
Y798170D01*
X210820Y736600D02*
X223520Y749300D01*
X210490Y740329D02*
X220650Y750489D01*
X226060Y793750D02*
X238300D01*
X217780Y798170D02*
X224790Y805180D01*
X237870D01*
X238300Y793750D02*
X238350Y793700D01*
X237870Y805180D02*
X238350Y804700D01*
X563709Y632751D02*
X565150Y631310D01*
X48197Y567097D02*
X69787D01*
X46926Y442637D02*
X69787D01*
X531851Y775369D02*
X547091D01*
X466200Y736590D02*
X469900Y740290D01*
X466200Y735560D02*
Y736590D01*
X455930Y725290D02*
X466200Y735560D01*
X447298Y733922D02*
X455930Y725290D01*
X447298Y733922D02*
Y739734D01*
X443848Y743184D02*
X447298Y739734D01*
X542621Y735781D02*
X543148D01*
X532130Y725290D02*
X542621Y735781D01*
X543148D02*
X546848Y739481D01*
X532010Y725170D02*
X532130Y725290D01*
X524510Y725170D02*
X532010D01*
X522506Y727174D02*
X524510Y725170D01*
X522506Y727174D02*
Y739681D01*
X519057Y743132D02*
X522506Y739681D01*
X499803Y742931D02*
Y743186D01*
X496353Y739481D02*
X499803Y742931D01*
X487158Y739481D02*
X496353D01*
X424595Y742148D02*
Y743239D01*
X421145Y738698D02*
X424595Y742148D01*
X410892Y738698D02*
X421145D01*
X551015Y632751D02*
X563709D01*
X530267Y631310D02*
X531762Y632805D01*
X518160Y631310D02*
X530267D01*
X504190D02*
X518160D01*
X437859Y661790D02*
X440983Y658667D01*
X427990Y661790D02*
X437859D01*
X412750D02*
X427990D01*
X473710Y660280D02*
X486410D01*
X472043Y658612D02*
X473710Y660280D01*
X460235Y658612D02*
X472043D01*
X407033Y634487D02*
X408940Y632580D01*
X395872Y634487D02*
X407033D01*
X374658Y632580D02*
X376618Y634541D01*
X364490Y632580D02*
X374658D01*
X351790D02*
X364490D01*
X425330Y799980D02*
X425450Y800100D01*
X425330Y786130D02*
Y799980D01*
X409450Y822166D02*
X409696Y822412D01*
Y836787D01*
X49467Y697907D02*
X74866D01*
X49467Y674880D02*
Y697907D01*
Y674880D02*
X50404Y673943D01*
X59876D01*
X46990Y565890D02*
X48197Y567097D01*
X46990Y547370D02*
Y565890D01*
Y547370D02*
X48493Y545867D01*
X58356D01*
X48867Y421033D02*
X57983D01*
X46926Y422974D02*
X48867Y421033D01*
X46926Y422974D02*
Y442637D01*
X159175Y664048D02*
X159219Y664004D01*
X148075Y664048D02*
X159175D01*
X181516Y573327D02*
X181636Y573207D01*
Y550337D02*
Y573207D01*
X181516Y573327D02*
X182049Y573859D01*
Y589194D01*
X182019Y604224D02*
X182049Y604194D01*
X182019Y604224D02*
Y619554D01*
X182049Y619584D01*
Y633644D01*
X182019Y648674D02*
X182049Y648644D01*
X182019Y648674D02*
Y664004D01*
X182049Y664034D01*
Y678485D01*
X547187Y368857D02*
X551116Y364927D01*
X529526Y368857D02*
X547187D01*
X529326Y346197D02*
X529526Y345997D01*
X507632Y346197D02*
X529326D01*
X487243Y347387D02*
X488378Y346251D01*
X467296Y347387D02*
X487243D01*
X449516D02*
X467296D01*
X449516Y362387D02*
X449580Y362450D01*
Y373380D01*
X438624Y384337D02*
X449580Y373380D01*
X417636Y384337D02*
X438624D01*
X545917Y426007D02*
X549846Y422077D01*
X529526Y426007D02*
X545917D01*
X528056Y404617D02*
X529526Y403147D01*
X507632Y404617D02*
X528056D01*
X487243Y405807D02*
X488378Y404671D01*
X469837Y405807D02*
X487243D01*
X450787D02*
X469837D01*
X434317Y404337D02*
X450787Y420807D01*
X417636Y404337D02*
X434317D01*
X507817Y484337D02*
X518607D01*
X479996D02*
X492816D01*
X469717D02*
X479996D01*
X444436D02*
X454716D01*
X417636D02*
X444436D01*
X506547Y293927D02*
X506666Y293807D01*
Y272497D02*
Y293807D01*
X506547Y293927D02*
X524957D01*
X491427Y293807D02*
X491546Y293927D01*
X479996Y293807D02*
X491427D01*
X479877Y293927D02*
X479996Y293807D01*
X469717Y293927D02*
X479877D01*
X444436Y293807D02*
X444556Y293927D01*
X454716D01*
X443907Y294337D02*
X444436Y293807D01*
X417636Y294337D02*
X443907D01*
X896620Y439070D02*
Y439300D01*
X892670Y435119D02*
X896620Y439070D01*
X881007Y435119D02*
X892670D01*
X868307Y479163D02*
Y489619D01*
X892810Y454660D02*
X911203D01*
X868307Y479163D02*
X892810Y454660D01*
X914487Y461543D02*
X919197D01*
X913363Y462667D02*
X914487Y461543D01*
X913363Y462667D02*
Y467247D01*
X911980Y468630D02*
X913363Y467247D01*
X919197Y461543D02*
X926017Y454724D01*
X911203Y454660D02*
X911267Y454724D01*
X910109Y489619D02*
X911980Y491490D01*
X881007Y489619D02*
X910109D01*
X911980Y480060D02*
Y491490D01*
X926017Y454724D02*
X926267D01*
X911267Y440754D02*
Y454724D01*
X816546Y435017D02*
X816649Y435119D01*
X912297Y302697D02*
X921956D01*
X907327Y297727D02*
X912297Y302697D01*
X907327Y290587D02*
Y297727D01*
X921956Y302697D02*
Y315637D01*
X553720Y130810D02*
X558800D01*
X577850Y149860D01*
X551180Y128270D02*
X553720Y130810D01*
X551180Y118110D02*
Y128270D01*
X547587Y114517D02*
X551180Y118110D01*
X541827Y114517D02*
X547587D01*
X539627Y112317D02*
X541827Y114517D01*
X583050Y149860D02*
X584320Y151130D01*
X577850Y149860D02*
X583050D01*
X539806Y140257D02*
X539870Y140320D01*
Y152400D01*
X539627Y140077D02*
X539806Y140257D01*
X539627Y125017D02*
Y140077D01*
X803847Y115507D02*
X803910Y115443D01*
Y102870D02*
Y115443D01*
X802640Y101600D02*
X803910Y102870D01*
X857130Y203200D02*
X857250Y203080D01*
X844430Y203200D02*
X857130D01*
X795225Y200455D02*
X816546Y179133D01*
Y165007D02*
Y179133D01*
X774128Y200455D02*
X795225D01*
X773366Y201217D02*
X774128Y200455D01*
X803847Y165007D02*
X803910Y165070D01*
Y179070D01*
X798273Y184707D02*
X803910Y179070D01*
X773366Y184707D02*
X798273D01*
X749950Y184150D02*
X750507Y184707D01*
X735210Y184150D02*
X749950D01*
X735147Y201217D02*
X750507D01*
X540956Y180777D02*
X552387D01*
D140*
X152280Y911860D02*
Y923290D01*
Y899160D02*
Y911860D01*
Y899160D02*
X169000D01*
X457463Y855466D02*
X749814D01*
X759745Y865397D01*
X444763Y855466D02*
X457463D01*
X49467Y712907D02*
X49622Y713062D01*
X91834Y730250D02*
X96520Y734936D01*
Y979170D01*
X57150Y730250D02*
X91834D01*
X49622Y713062D02*
Y722722D01*
X57150Y730250D01*
X406663Y855466D02*
X419363D01*
X619760Y952667D02*
Y980440D01*
X612140Y988060D02*
X619760Y980440D01*
X153670Y988060D02*
X612140D01*
X565730Y951230D02*
X618324D01*
X96520Y979170D02*
X105410Y988060D01*
X36393Y457637D02*
X46926D01*
X34290Y459740D02*
X36393Y457637D01*
X34290Y459740D02*
Y584200D01*
X36393Y582097D02*
X48197D01*
X34290Y584200D02*
X36393Y582097D01*
X34290Y584200D02*
Y711970D01*
X35227Y712907D01*
X49467D01*
X105410Y988060D02*
X153670D01*
X152280Y957580D02*
Y970280D01*
Y946150D02*
Y957580D01*
Y923290D02*
Y934720D01*
Y946150D01*
Y970280D02*
X152400Y970400D01*
Y986790D01*
X153670Y988060D01*
X619760Y923290D02*
Y952667D01*
Y923290D02*
X627380Y915670D01*
X842343D01*
X843280Y914733D01*
Y845820D02*
Y914733D01*
Y845820D02*
X844408Y844692D01*
X859359D01*
X432063Y855466D02*
X444763D01*
X759745Y865397D02*
X829247D01*
X419483Y855466D02*
X432063D01*
D141*
X587000Y828477D02*
X812065D01*
X562547D02*
X587000D01*
X169000Y873343D02*
X171343Y871000D01*
X199000D01*
X169000Y873343D02*
Y899160D01*
X169000Y899160D01*
X200000Y815000D02*
Y870000D01*
X199000Y871000D02*
X200000Y870000D01*
X238350Y815700D02*
X262650D01*
X720146Y184150D02*
Y201217D01*
Y184150D02*
Y201217D01*
Y184150D02*
Y201217D01*
Y184150D02*
Y201217D01*
Y184150D02*
Y201217D01*
Y184150D02*
Y201217D01*
X524707Y962930D02*
X527050Y960587D01*
Y877570D02*
X530860Y873760D01*
X512230Y962930D02*
X524707D01*
X527050Y877570D02*
Y960587D01*
X511230Y963930D02*
X512230Y962930D01*
X530860Y873760D02*
X547370D01*
X720210Y125850D02*
X727033Y119026D01*
X736957D01*
X720210Y125850D02*
Y184150D01*
X571500Y176530D02*
X596187Y201217D01*
X571500Y149860D02*
Y176530D01*
X562964Y141324D02*
X571500Y149860D01*
X596187Y201217D02*
X720146D01*
X554807Y140257D02*
X555873Y141324D01*
X562964D01*
X736957Y119026D02*
X744156Y111826D01*
Y103827D02*
Y111826D01*
X632950Y123680D02*
Y137160D01*
X595626Y99617D02*
X608887D01*
X632950Y123680D01*
D142*
X393700Y521000D02*
Y563880D01*
X629920Y343000D02*
Y353060D01*
X748745Y744935D02*
X825254D01*
X379730Y577850D02*
X393700Y563880D01*
X420210Y222410D02*
X438150Y204470D01*
X393700Y222410D02*
X420210D01*
X364460Y577850D02*
X379730D01*
X393700Y222410D02*
Y521000D01*
X629920Y353060D02*
X736600Y459740D01*
X629920Y273050D02*
Y343000D01*
X561340Y204470D02*
X629920Y273050D01*
X438150Y204470D02*
X561340D01*
X736600Y459740D02*
Y732790D01*
X748745Y744935D01*
D143*
X471410Y647580D02*
X473710Y645280D01*
X408940Y647580D02*
X471410D01*
X364490D02*
X408940D01*
X351790D02*
X364490D01*
X473710Y645280D02*
X486410D01*
X487440Y646310D01*
X504190D01*
X518160D01*
X565150D01*
X565840Y647000D02*
X578000D01*
X565150Y646310D02*
X565840Y647000D01*
X115637Y354337D02*
X141663D01*
D144*
X550923Y406000D02*
X577213D01*
X586000Y397213D01*
Y343000D02*
Y397213D01*
Y343000D02*
X629920D01*
X551116Y349927D02*
X558043Y343000D01*
X586000D01*
D145*
X210820Y963930D02*
D03*
X236220D02*
D03*
X210820Y938530D02*
D03*
X261620D02*
D03*
X236220D02*
D03*
X547370Y899160D02*
D03*
D146*
X261620Y963930D02*
D03*
D147*
X133350Y854700D02*
D03*
Y774700D02*
D03*
D148*
X684157Y327097D02*
D03*
Y883297D02*
D03*
D149*
Y239197D02*
D03*
Y968197D02*
D03*
D150*
X547370Y873760D02*
D03*
D151*
X465717Y934057D02*
D03*
X407916D02*
D03*
D152*
X393617Y929057D02*
D03*
X480016D02*
D03*
D153*
X393617Y970857D02*
D03*
X480016D02*
D03*
D154*
X381000Y72460D02*
D03*
D155*
Y127460D02*
D03*
D156*
X656000Y15000D02*
D03*
Y26000D02*
D03*
Y37000D02*
D03*
X666000Y15000D02*
D03*
Y26000D02*
D03*
X666057Y36876D02*
D03*
X635000Y15000D02*
D03*
Y26000D02*
D03*
Y37000D02*
D03*
X645000Y15000D02*
D03*
Y26000D02*
D03*
X645057Y36876D02*
D03*
X615000Y15000D02*
D03*
Y26000D02*
D03*
Y37000D02*
D03*
X625000Y15000D02*
D03*
Y26000D02*
D03*
X625057Y36876D02*
D03*
X317000Y319000D02*
D03*
Y330000D02*
D03*
Y341000D02*
D03*
X327000Y319000D02*
D03*
Y330000D02*
D03*
X327057Y340876D02*
D03*
X296000Y319000D02*
D03*
Y330000D02*
D03*
Y341000D02*
D03*
X306000Y319000D02*
D03*
Y330000D02*
D03*
X306057Y340876D02*
D03*
X276000Y319000D02*
D03*
Y330000D02*
D03*
Y341000D02*
D03*
X286000Y319000D02*
D03*
Y330000D02*
D03*
X286057Y340876D02*
D03*
X675000Y619000D02*
D03*
Y630000D02*
D03*
Y641000D02*
D03*
X685000Y619000D02*
D03*
Y630000D02*
D03*
X685057Y640876D02*
D03*
X654000Y619000D02*
D03*
Y630000D02*
D03*
Y641000D02*
D03*
X664000Y619000D02*
D03*
Y630000D02*
D03*
X664057Y640876D02*
D03*
X634000Y619000D02*
D03*
Y630000D02*
D03*
Y641000D02*
D03*
X644000Y619000D02*
D03*
Y630000D02*
D03*
X644057Y640876D02*
D03*
X675000Y653000D02*
D03*
Y664000D02*
D03*
Y675000D02*
D03*
X685000Y653000D02*
D03*
Y664000D02*
D03*
X685057Y674876D02*
D03*
X654000Y653000D02*
D03*
Y664000D02*
D03*
Y675000D02*
D03*
X664000Y653000D02*
D03*
Y664000D02*
D03*
X664057Y674876D02*
D03*
X634000Y653000D02*
D03*
Y664000D02*
D03*
Y675000D02*
D03*
X644000Y653000D02*
D03*
Y664000D02*
D03*
X644057Y674876D02*
D03*
X209000Y629000D02*
D03*
X220000D02*
D03*
X231000D02*
D03*
X209000Y619000D02*
D03*
X220000D02*
D03*
X230876Y618943D02*
D03*
X209000Y650000D02*
D03*
X220000D02*
D03*
X231000D02*
D03*
X209000Y640000D02*
D03*
X220000D02*
D03*
X230876Y639943D02*
D03*
X209000Y670000D02*
D03*
X220000D02*
D03*
X231000D02*
D03*
X209000Y660000D02*
D03*
X220000D02*
D03*
X230876Y659943D02*
D03*
X87000Y625000D02*
D03*
Y636000D02*
D03*
X747943Y358124D02*
D03*
X748000Y369000D02*
D03*
Y380000D02*
D03*
X758000Y358000D02*
D03*
Y369000D02*
D03*
Y380000D02*
D03*
X727943Y358124D02*
D03*
X728000Y369000D02*
D03*
Y380000D02*
D03*
X738000Y358000D02*
D03*
Y369000D02*
D03*
Y380000D02*
D03*
X706943Y358124D02*
D03*
X707000Y369000D02*
D03*
Y380000D02*
D03*
X717000Y358000D02*
D03*
Y369000D02*
D03*
Y380000D02*
D03*
X843943Y931124D02*
D03*
X844000Y942000D02*
D03*
Y953000D02*
D03*
X854000Y931000D02*
D03*
Y942000D02*
D03*
Y953000D02*
D03*
X843943Y966124D02*
D03*
X844000Y977000D02*
D03*
Y988000D02*
D03*
X854000Y966000D02*
D03*
Y977000D02*
D03*
Y988000D02*
D03*
X819943Y931124D02*
D03*
X820000Y942000D02*
D03*
Y953000D02*
D03*
X830000Y931000D02*
D03*
Y942000D02*
D03*
Y953000D02*
D03*
X820943Y966124D02*
D03*
X821000Y977000D02*
D03*
Y988000D02*
D03*
X831000Y966000D02*
D03*
Y977000D02*
D03*
Y988000D02*
D03*
X797943Y931124D02*
D03*
X798000Y942000D02*
D03*
Y953000D02*
D03*
X808000Y931000D02*
D03*
Y942000D02*
D03*
Y953000D02*
D03*
X797943Y966124D02*
D03*
X798000Y977000D02*
D03*
Y988000D02*
D03*
X808000Y966000D02*
D03*
Y977000D02*
D03*
Y988000D02*
D03*
X916943Y712124D02*
D03*
X917000Y723000D02*
D03*
Y734000D02*
D03*
X927000Y712000D02*
D03*
Y723000D02*
D03*
Y734000D02*
D03*
X916943Y744124D02*
D03*
X917000Y755000D02*
D03*
Y766000D02*
D03*
X927000Y744000D02*
D03*
Y755000D02*
D03*
Y766000D02*
D03*
X906124Y787057D02*
D03*
X917000Y787000D02*
D03*
X928000D02*
D03*
X906000Y777000D02*
D03*
X917000D02*
D03*
X928000D02*
D03*
X873124Y787057D02*
D03*
X884000Y787000D02*
D03*
X895000D02*
D03*
X873000Y777000D02*
D03*
X884000D02*
D03*
X895000D02*
D03*
X848124Y465057D02*
D03*
X859000Y465000D02*
D03*
X870000D02*
D03*
X859000Y455000D02*
D03*
X870000D02*
D03*
X914124Y425057D02*
D03*
X925000Y425000D02*
D03*
X936000D02*
D03*
X914000Y415000D02*
D03*
X925000D02*
D03*
X936000D02*
D03*
X913124Y355057D02*
D03*
X924000Y355000D02*
D03*
X935000D02*
D03*
X913000Y345000D02*
D03*
X924000D02*
D03*
X935000D02*
D03*
X741057Y164876D02*
D03*
X741000Y154000D02*
D03*
Y143000D02*
D03*
X731000Y165000D02*
D03*
Y154000D02*
D03*
Y143000D02*
D03*
X702057Y140876D02*
D03*
X702000Y130000D02*
D03*
Y119000D02*
D03*
X692000Y141000D02*
D03*
Y130000D02*
D03*
Y119000D02*
D03*
X607876Y164943D02*
D03*
X597000Y165000D02*
D03*
X586000D02*
D03*
X608000Y175000D02*
D03*
X597000D02*
D03*
X586000D02*
D03*
X221000Y837000D02*
D03*
X152000Y816000D02*
D03*
X141000D02*
D03*
X152000Y826000D02*
D03*
X141000D02*
D03*
X192000Y915000D02*
D03*
X181000D02*
D03*
X192000Y925000D02*
D03*
X181000D02*
D03*
X507000Y820000D02*
D03*
X448000Y793000D02*
D03*
X459000D02*
D03*
X470000D02*
D03*
X448000Y783000D02*
D03*
X459000D02*
D03*
X469876Y782943D02*
D03*
X890000Y527000D02*
D03*
X901000D02*
D03*
X912000D02*
D03*
X890000Y517000D02*
D03*
X901000D02*
D03*
X911876Y516943D02*
D03*
X787000Y69000D02*
D03*
X798000D02*
D03*
X809000D02*
D03*
X787000Y59000D02*
D03*
X798000D02*
D03*
X808876Y58943D02*
D03*
X916124Y183057D02*
D03*
X905124D02*
D03*
X894124D02*
D03*
X916000Y193000D02*
D03*
X905124Y193057D02*
D03*
X894124D02*
D03*
X916124Y203057D02*
D03*
X905124D02*
D03*
X894124D02*
D03*
X69124Y194057D02*
D03*
X58124D02*
D03*
X93792Y228663D02*
D03*
X70124Y231057D02*
D03*
X77124Y514057D02*
D03*
Y503057D02*
D03*
X60000Y609000D02*
D03*
X578000Y647000D02*
D03*
X142000Y354000D02*
D03*
X325056Y798117D02*
D03*
D157*
X169000Y899160D02*
D03*
X200000Y815000D02*
D03*
X292100Y565150D02*
D03*
X251328Y565516D02*
D03*
X261620Y565150D02*
D03*
X326410Y851207D02*
D03*
X327660Y858520D02*
D03*
X107950Y712470D02*
D03*
X100330Y704850D02*
D03*
X87630Y703580D02*
D03*
X532130Y180340D02*
D03*
X280670Y836930D02*
D03*
X298450Y877570D02*
D03*
X278130Y880110D02*
D03*
X295910Y855980D02*
D03*
X289560Y863600D02*
D03*
X279400Y871220D02*
D03*
X304800Y868680D02*
D03*
X226060Y782320D02*
D03*
Y793750D02*
D03*
X280670Y844550D02*
D03*
X62230Y271780D02*
D03*
X844550Y212090D02*
D03*
X97907Y304097D02*
D03*
X277661Y782671D02*
D03*
X273050Y774700D02*
D03*
X270301Y758249D02*
D03*
X274522Y764168D02*
D03*
X313680Y736600D02*
D03*
X308610Y746760D02*
D03*
X264160Y753110D02*
D03*
X246380Y744220D02*
D03*
X279400Y852170D02*
D03*
X281940Y863600D02*
D03*
X497840Y774700D02*
D03*
X292100Y894080D02*
D03*
X481330Y807720D02*
D03*
X468630D02*
D03*
X469900Y877570D02*
D03*
X500380Y925830D02*
D03*
X375920Y796290D02*
D03*
Y803910D02*
D03*
X457200Y881380D02*
D03*
X449580Y890270D02*
D03*
X133350Y464820D02*
D03*
X349250Y706120D02*
D03*
X133350Y474980D02*
D03*
X349250Y716280D02*
D03*
X551180Y618490D02*
D03*
X450850Y619760D02*
D03*
X394802Y620069D02*
D03*
X530860Y657860D02*
D03*
X403860Y661670D02*
D03*
X386170Y671404D02*
D03*
X224790Y805180D02*
D03*
X152400Y191770D02*
D03*
X238350Y815700D02*
D03*
X264160Y675640D02*
D03*
X276860D02*
D03*
X251460Y859790D02*
D03*
Y826770D02*
D03*
Y848360D02*
D03*
X330557Y803617D02*
D03*
X332835Y798117D02*
D03*
X325056Y805895D02*
D03*
X330557Y792617D02*
D03*
X325056Y790339D02*
D03*
X319556Y792617D02*
D03*
Y803617D02*
D03*
X317278Y798117D02*
D03*
M02*
