G04*
G04 #@! TF.GenerationSoftware,Altium Limited,Altium Designer Agile,26.0.0 (14)*
G04*
G04 Layer_Color=8388736*
%FSLAX44Y44*%
%MOMM*%
G71*
G04*
G04 #@! TF.SameCoordinates,AA4D6D32-D7F5-4280-AC7C-52558C787E6E*
G04*
G04*
G04 #@! TF.FilePolarity,Negative*
G04*
G01*
G75*
%ADD32R,1.1054X1.6554*%
%ADD33R,0.9254X0.9254*%
%ADD34R,0.9754X1.0254*%
%ADD35R,1.0254X0.9754*%
%ADD36R,0.9254X0.9254*%
%ADD37R,1.6254X0.7254*%
%ADD38R,2.2254X1.2254*%
%ADD39R,1.4254X1.6254*%
%ADD40R,1.6254X1.2254*%
%ADD41R,1.4754X0.6254*%
%ADD42R,0.3254X1.1654*%
%ADD43R,0.6254X1.1654*%
%ADD44R,0.9253X0.7254*%
%ADD45R,0.8255X2.0254*%
%ADD46R,1.6554X1.1054*%
%ADD47R,0.8390X1.1906*%
%ADD48R,0.8754X1.2254*%
%ADD49R,0.6254X1.7254*%
%ADD50R,2.3254X1.2254*%
%ADD51O,1.8254X0.6254*%
%ADD52O,0.6254X1.8254*%
%ADD53R,1.5254X2.3254*%
%ADD54R,1.5754X2.6254*%
%ADD55R,0.9254X1.3754*%
%ADD56R,0.4254X1.2554*%
G04:AMPARAMS|DCode=57|XSize=0.6254mm|YSize=1.3754mm|CornerRadius=0.0577mm|HoleSize=0mm|Usage=FLASHONLY|Rotation=90.000|XOffset=0mm|YOffset=0mm|HoleType=Round|Shape=RoundedRectangle|*
%AMROUNDEDRECTD57*
21,1,0.6254,1.2600,0,0,90.0*
21,1,0.5100,1.3754,0,0,90.0*
1,1,0.1154,0.6300,0.2550*
1,1,0.1154,0.6300,-0.2550*
1,1,0.1154,-0.6300,-0.2550*
1,1,0.1154,-0.6300,0.2550*
%
%ADD57ROUNDEDRECTD57*%
%ADD58R,1.7254X2.3254*%
%ADD59R,2.8956X5.4102*%
%ADD60R,1.8254X1.7754*%
%ADD61R,0.6254X1.4754*%
%ADD62R,7.5254X3.0254*%
%ADD63R,0.6254X1.0254*%
%ADD64R,1.8254X2.2754*%
%ADD65R,1.2954X1.4224*%
%ADD66R,1.6254X3.2254*%
G04:AMPARAMS|DCode=67|XSize=1.9954mm|YSize=0.6254mm|CornerRadius=0.0877mm|HoleSize=0mm|Usage=FLASHONLY|Rotation=90.000|XOffset=0mm|YOffset=0mm|HoleType=Round|Shape=RoundedRectangle|*
%AMROUNDEDRECTD67*
21,1,1.9954,0.4500,0,0,90.0*
21,1,1.8200,0.6254,0,0,90.0*
1,1,0.1754,0.2250,0.9100*
1,1,0.1754,0.2250,-0.9100*
1,1,0.1754,-0.2250,-0.9100*
1,1,0.1754,-0.2250,0.9100*
%
%ADD67ROUNDEDRECTD67*%
%ADD68R,3.3274X2.4384*%
%ADD69R,1.5754X1.9254*%
%ADD70R,1.9754X2.2254*%
%ADD71R,1.7754X1.8254*%
%ADD72R,0.7254X0.9253*%
%ADD73R,2.0254X0.8255*%
%ADD74R,1.4224X1.2954*%
%ADD75R,4.0254X4.0254*%
%ADD76R,1.7754X0.6254*%
%ADD77R,2.4354X3.3254*%
%ADD78R,1.0254X0.2254*%
%ADD79R,0.2254X1.0254*%
%ADD80C,1.6254*%
G04:AMPARAMS|DCode=81|XSize=1.6254mm|YSize=1.6254mm|CornerRadius=0.4127mm|HoleSize=0mm|Usage=FLASHONLY|Rotation=180.000|XOffset=0mm|YOffset=0mm|HoleType=Round|Shape=RoundedRectangle|*
%AMROUNDEDRECTD81*
21,1,1.6254,0.8000,0,0,180.0*
21,1,0.8000,1.6254,0,0,180.0*
1,1,0.8254,-0.4000,0.4000*
1,1,0.8254,0.4000,0.4000*
1,1,0.8254,0.4000,-0.4000*
1,1,0.8254,-0.4000,-0.4000*
%
%ADD81ROUNDEDRECTD81*%
%ADD82C,1.0254*%
%ADD83C,3.2254*%
%ADD84R,3.0254X3.0254*%
%ADD85R,1.6254X1.6254*%
%ADD86C,0.6754*%
%ADD87O,1.0254X2.1254*%
%ADD88O,1.0254X1.8254*%
G04:AMPARAMS|DCode=89|XSize=2.7254mm|YSize=2.7254mm|CornerRadius=0.6877mm|HoleSize=0mm|Usage=FLASHONLY|Rotation=0.000|XOffset=0mm|YOffset=0mm|HoleType=Round|Shape=RoundedRectangle|*
%AMROUNDEDRECTD89*
21,1,2.7254,1.3500,0,0,0.0*
21,1,1.3500,2.7254,0,0,0.0*
1,1,1.3754,0.6750,-0.6750*
1,1,1.3754,-0.6750,-0.6750*
1,1,1.3754,-0.6750,0.6750*
1,1,1.3754,0.6750,0.6750*
%
%ADD89ROUNDEDRECTD89*%
%ADD90C,2.7254*%
G36*
X518526Y831060D02*
X513526D01*
Y831043D01*
X508526D01*
Y831035D01*
X502420D01*
Y835427D01*
X518526D01*
Y831060D01*
D02*
G37*
G36*
X501277Y828793D02*
X495144D01*
Y833177D01*
X501277D01*
Y828793D01*
D02*
G37*
G36*
X525776Y828791D02*
X519694D01*
Y833177D01*
X525776D01*
Y828791D01*
D02*
G37*
G36*
Y823786D02*
X519707D01*
Y828177D01*
X525776D01*
Y823786D01*
D02*
G37*
G36*
X501277Y823783D02*
X495142D01*
Y828177D01*
X501277D01*
Y823783D01*
D02*
G37*
G36*
Y818775D02*
X495164D01*
Y823177D01*
X501277D01*
Y818775D01*
D02*
G37*
G36*
X525776Y818773D02*
X519693D01*
Y823177D01*
X525776D01*
Y818773D01*
D02*
G37*
G36*
X501277Y813770D02*
X495162D01*
Y818177D01*
X501277D01*
Y813770D01*
D02*
G37*
G36*
X525776Y813753D02*
X519707D01*
Y818177D01*
X525776D01*
Y813753D01*
D02*
G37*
G36*
Y808752D02*
X519695D01*
Y813177D01*
X525776D01*
Y808752D01*
D02*
G37*
G36*
X501277Y808751D02*
X495143D01*
Y813177D01*
X501277D01*
Y808751D01*
D02*
G37*
G36*
X518526Y806514D02*
X513526D01*
Y806490D01*
X507419D01*
Y806517D01*
X502421D01*
Y810927D01*
X518526D01*
Y806514D01*
D02*
G37*
D32*
X364460Y577850D02*
D03*
X341660D02*
D03*
X182019Y664004D02*
D03*
X159219D02*
D03*
X182019Y619554D02*
D03*
X159219D02*
D03*
X181516Y573327D02*
D03*
X158716D02*
D03*
D33*
X463487Y904909D02*
D03*
Y889909D02*
D03*
X449516D02*
D03*
Y904909D02*
D03*
X435546Y890417D02*
D03*
Y905417D02*
D03*
X421576Y904909D02*
D03*
Y889909D02*
D03*
X481330Y815460D02*
D03*
Y830460D02*
D03*
X468630Y815460D02*
D03*
Y830460D02*
D03*
X546848Y739481D02*
D03*
Y724481D02*
D03*
X532130Y740290D02*
D03*
Y725290D02*
D03*
X469900Y740290D02*
D03*
Y725290D02*
D03*
X455930Y740290D02*
D03*
Y725290D02*
D03*
X565150Y646310D02*
D03*
Y631310D02*
D03*
X504190Y646310D02*
D03*
Y631310D02*
D03*
X486410Y645280D02*
D03*
Y660280D02*
D03*
X412750Y661790D02*
D03*
Y676790D02*
D03*
X408940Y647580D02*
D03*
Y632580D02*
D03*
X351790Y647580D02*
D03*
Y632580D02*
D03*
X49467Y697907D02*
D03*
Y712907D02*
D03*
X48197Y567097D02*
D03*
Y582097D02*
D03*
X46926Y442637D02*
D03*
Y457637D02*
D03*
X921956Y315637D02*
D03*
Y330637D02*
D03*
Y302697D02*
D03*
Y287697D02*
D03*
X857250Y203080D02*
D03*
Y188080D02*
D03*
X552387Y180777D02*
D03*
Y165777D02*
D03*
X540956Y180777D02*
D03*
Y165777D02*
D03*
X523240Y153670D02*
D03*
Y138670D02*
D03*
X551116Y364927D02*
D03*
Y349927D02*
D03*
X467296Y347387D02*
D03*
Y362387D02*
D03*
X449516Y347387D02*
D03*
Y362387D02*
D03*
X549846Y422077D02*
D03*
Y407077D02*
D03*
X469837Y405807D02*
D03*
Y420807D02*
D03*
X450787Y405807D02*
D03*
Y420807D02*
D03*
D34*
X457463Y855466D02*
D03*
Y870466D02*
D03*
X444763Y855466D02*
D03*
Y870466D02*
D03*
X432063Y855466D02*
D03*
Y870466D02*
D03*
X419363Y855586D02*
D03*
Y870586D02*
D03*
X406663Y855466D02*
D03*
Y870466D02*
D03*
X262890Y815460D02*
D03*
Y830460D02*
D03*
X562547Y828477D02*
D03*
Y813477D02*
D03*
X547307Y828477D02*
D03*
Y813477D02*
D03*
X487158Y739481D02*
D03*
Y724481D02*
D03*
X410892Y738698D02*
D03*
Y723697D02*
D03*
X518160Y631310D02*
D03*
Y646310D02*
D03*
X473710Y660280D02*
D03*
Y645280D02*
D03*
X427990Y661790D02*
D03*
Y676790D02*
D03*
X364490Y632580D02*
D03*
Y647580D02*
D03*
X247467Y706806D02*
D03*
Y691807D02*
D03*
X234767Y706806D02*
D03*
Y691807D02*
D03*
X182049Y633644D02*
D03*
Y648644D02*
D03*
Y589194D02*
D03*
Y604194D02*
D03*
X74866Y697907D02*
D03*
Y712907D02*
D03*
X69787Y567097D02*
D03*
Y582097D02*
D03*
Y442637D02*
D03*
Y457637D02*
D03*
X62230Y260230D02*
D03*
Y245230D02*
D03*
X882639Y811132D02*
D03*
Y826133D02*
D03*
X859779Y824863D02*
D03*
Y809862D02*
D03*
X843255Y825124D02*
D03*
Y810124D02*
D03*
X829285Y825124D02*
D03*
Y810124D02*
D03*
X815315Y825124D02*
D03*
Y810124D02*
D03*
X896620Y439300D02*
D03*
Y424300D02*
D03*
X816546Y435017D02*
D03*
Y450017D02*
D03*
X896556Y411917D02*
D03*
Y396917D02*
D03*
X883857Y411917D02*
D03*
Y396917D02*
D03*
X341567Y218877D02*
D03*
Y203877D02*
D03*
X479996Y293807D02*
D03*
Y278807D02*
D03*
X444436Y293807D02*
D03*
Y278807D02*
D03*
Y484337D02*
D03*
Y499337D02*
D03*
X479996D02*
D03*
Y484337D02*
D03*
D35*
X350640Y925830D02*
D03*
X365640D02*
D03*
X350400Y877570D02*
D03*
X335400D02*
D03*
X409696Y836787D02*
D03*
X424696D02*
D03*
X425330Y786130D02*
D03*
X410330D02*
D03*
X75960Y284988D02*
D03*
X60960D02*
D03*
X77230Y208788D02*
D03*
X62230D02*
D03*
X76080Y167640D02*
D03*
X61080D02*
D03*
X926267Y454724D02*
D03*
X911267D02*
D03*
Y440754D02*
D03*
X926267D02*
D03*
X894136Y330757D02*
D03*
X909137D02*
D03*
X897946Y274877D02*
D03*
X912947D02*
D03*
X829430Y189230D02*
D03*
X844430D02*
D03*
X818730Y81980D02*
D03*
X833730D02*
D03*
X599320Y139700D02*
D03*
X584320D02*
D03*
X356687Y594917D02*
D03*
X341686D02*
D03*
D36*
X137280Y899160D02*
D03*
X152280D02*
D03*
Y911860D02*
D03*
X137280D02*
D03*
X137280Y923290D02*
D03*
X152280D02*
D03*
Y934720D02*
D03*
X137280D02*
D03*
X152280Y946150D02*
D03*
X137280D02*
D03*
X137280Y957580D02*
D03*
X152280D02*
D03*
Y970280D02*
D03*
X137280D02*
D03*
X284360Y894080D02*
D03*
X269360D02*
D03*
X547091Y775369D02*
D03*
X562091D02*
D03*
X133076Y664048D02*
D03*
X148075D02*
D03*
X60960Y295910D02*
D03*
X75960D02*
D03*
X62230Y220218D02*
D03*
X77230D02*
D03*
X61080Y179070D02*
D03*
X76080D02*
D03*
X926980Y491490D02*
D03*
X911980D02*
D03*
Y480060D02*
D03*
X926980D02*
D03*
X911980Y468630D02*
D03*
X926980D02*
D03*
X844430Y203200D02*
D03*
X829430D02*
D03*
X735147Y201217D02*
D03*
X720146D02*
D03*
X735210Y184150D02*
D03*
X720210D02*
D03*
X792060Y81980D02*
D03*
X807060D02*
D03*
X599320Y151130D02*
D03*
X584320D02*
D03*
X539806Y140257D02*
D03*
X554807D02*
D03*
X539870Y152400D02*
D03*
X554870D02*
D03*
X541140Y68580D02*
D03*
X556140D02*
D03*
X491546Y293927D02*
D03*
X506547D02*
D03*
X454716D02*
D03*
X469717D02*
D03*
X492816Y484337D02*
D03*
X507817D02*
D03*
X454716D02*
D03*
X469717D02*
D03*
D37*
X238350Y859700D02*
D03*
Y870700D02*
D03*
Y848700D02*
D03*
Y826700D02*
D03*
Y804700D02*
D03*
Y815700D02*
D03*
Y793700D02*
D03*
Y782700D02*
D03*
Y837700D02*
D03*
D38*
X137350Y727700D02*
D03*
Y882700D02*
D03*
D39*
X233350Y736700D02*
D03*
D40*
X232350Y882700D02*
D03*
D41*
X511230Y938530D02*
D03*
Y951230D02*
D03*
Y963930D02*
D03*
X565730D02*
D03*
Y938530D02*
D03*
Y976630D02*
D03*
Y951230D02*
D03*
X511230Y976630D02*
D03*
D42*
X454317Y923356D02*
D03*
X449316D02*
D03*
X429316D02*
D03*
X434317D02*
D03*
X424317D02*
D03*
X444317D02*
D03*
X439316D02*
D03*
X419316D02*
D03*
D43*
X460816D02*
D03*
X412817D02*
D03*
X404817D02*
D03*
X468816D02*
D03*
D44*
X350457Y935787D02*
D03*
X182049Y678485D02*
D03*
D45*
X334457Y951787D02*
D03*
X366456D02*
D03*
X198048Y694484D02*
D03*
X166049D02*
D03*
D46*
X350457Y913657D02*
D03*
Y890857D02*
D03*
X829247Y865397D02*
D03*
Y842597D02*
D03*
D47*
X425450Y800100D02*
D03*
X409450Y822166D02*
D03*
Y800100D02*
D03*
X425450Y822166D02*
D03*
D48*
X499803Y743186D02*
D03*
X519057Y743132D02*
D03*
X509607Y718186D02*
D03*
X443848Y743184D02*
D03*
X424595Y743239D02*
D03*
X434399Y718238D02*
D03*
X541211Y657751D02*
D03*
X531762Y632805D02*
D03*
X551015Y632751D02*
D03*
X440983Y658667D02*
D03*
X450787Y633666D02*
D03*
X460235Y658612D02*
D03*
X386068Y659487D02*
D03*
X376618Y634541D02*
D03*
X395872Y634487D02*
D03*
X488378Y346251D02*
D03*
X507632Y346197D02*
D03*
X497828Y371197D02*
D03*
X488378Y404671D02*
D03*
X507632Y404617D02*
D03*
X497828Y429617D02*
D03*
D49*
X263977Y659997D02*
D03*
X289377D02*
D03*
X276677D02*
D03*
X263977Y730997D02*
D03*
X289377D02*
D03*
X276677D02*
D03*
X302077D02*
D03*
Y659997D02*
D03*
D50*
X317746Y632084D02*
D03*
X318000Y595000D02*
D03*
X285000Y632000D02*
D03*
X285254Y594916D02*
D03*
X364000Y182000D02*
D03*
X363746Y219084D02*
D03*
X319254Y181916D02*
D03*
X319000Y219000D02*
D03*
D51*
X115637Y324337D02*
D03*
Y314337D02*
D03*
Y304337D02*
D03*
Y294337D02*
D03*
Y364337D02*
D03*
Y384337D02*
D03*
Y374337D02*
D03*
Y334337D02*
D03*
Y354337D02*
D03*
Y344337D02*
D03*
Y444337D02*
D03*
Y464337D02*
D03*
Y454337D02*
D03*
Y414337D02*
D03*
Y404337D02*
D03*
Y434337D02*
D03*
Y424337D02*
D03*
Y494337D02*
D03*
Y484337D02*
D03*
Y474337D02*
D03*
Y394337D02*
D03*
X417636Y304337D02*
D03*
Y324337D02*
D03*
Y314337D02*
D03*
Y294337D02*
D03*
Y364337D02*
D03*
Y354337D02*
D03*
Y384337D02*
D03*
Y374337D02*
D03*
Y344337D02*
D03*
Y334337D02*
D03*
Y444337D02*
D03*
Y434337D02*
D03*
Y464337D02*
D03*
Y454337D02*
D03*
Y404337D02*
D03*
Y394337D02*
D03*
Y424337D02*
D03*
Y414337D02*
D03*
Y494337D02*
D03*
Y484337D02*
D03*
Y504337D02*
D03*
Y474337D02*
D03*
D52*
X231636Y248337D02*
D03*
X241636D02*
D03*
X171636D02*
D03*
X181636D02*
D03*
X161637D02*
D03*
X211636D02*
D03*
X221636D02*
D03*
X191636D02*
D03*
X201636D02*
D03*
X241636Y550337D02*
D03*
X221636D02*
D03*
X231636D02*
D03*
X161637D02*
D03*
X171636D02*
D03*
X201636D02*
D03*
X211636D02*
D03*
X181636D02*
D03*
X191636D02*
D03*
X351637Y248337D02*
D03*
X331637D02*
D03*
X341637D02*
D03*
X371637D02*
D03*
X361637D02*
D03*
X271637D02*
D03*
X281637D02*
D03*
X251636D02*
D03*
X261637D02*
D03*
X311637D02*
D03*
X321637D02*
D03*
X291637D02*
D03*
X301637D02*
D03*
X341637Y550337D02*
D03*
X321637D02*
D03*
X331637D02*
D03*
X361637D02*
D03*
X371637D02*
D03*
X351637D02*
D03*
X271637D02*
D03*
X281637D02*
D03*
X251636D02*
D03*
X261637D02*
D03*
X301637D02*
D03*
X311637D02*
D03*
X291637D02*
D03*
D53*
X59876Y673943D02*
D03*
Y606943D02*
D03*
X58356Y545867D02*
D03*
Y478867D02*
D03*
Y421407D02*
D03*
Y354407D02*
D03*
D54*
X123600Y57560D02*
D03*
Y183760D02*
D03*
X281600Y57560D02*
D03*
Y183760D02*
D03*
D55*
X152400Y207010D02*
D03*
X165100D02*
D03*
X190500D02*
D03*
X177800D02*
D03*
X215900D02*
D03*
X203200D02*
D03*
X139700D02*
D03*
D56*
X77320Y260860D02*
D03*
X90320D02*
D03*
X77320Y242060D02*
D03*
X90320D02*
D03*
X83820Y260860D02*
D03*
D57*
X859359Y863692D02*
D03*
Y844692D02*
D03*
X883059Y854192D02*
D03*
Y863692D02*
D03*
Y844692D02*
D03*
D58*
X825254Y744935D02*
D03*
X885254Y744933D02*
D03*
X885000Y709998D02*
D03*
X825000Y710000D02*
D03*
X804807Y404419D02*
D03*
X864807Y404417D02*
D03*
D59*
X819150Y601980D02*
D03*
X918210D02*
D03*
D60*
X817720Y516890D02*
D03*
X861220D02*
D03*
D61*
X881007Y435119D02*
D03*
X842907D02*
D03*
X868307D02*
D03*
X881007Y489619D02*
D03*
X868307D02*
D03*
X842907D02*
D03*
X855607D02*
D03*
Y435119D02*
D03*
D62*
X836867Y284567D02*
D03*
Y334567D02*
D03*
D63*
X907327Y290587D02*
D03*
X888326D02*
D03*
Y317587D02*
D03*
X897827D02*
D03*
X907327D02*
D03*
X897827Y290587D02*
D03*
D64*
X876117Y243127D02*
D03*
X924616D02*
D03*
X695840Y64770D02*
D03*
X744340D02*
D03*
X675760Y170180D02*
D03*
X627260D02*
D03*
D65*
X750507Y184707D02*
D03*
X773366D02*
D03*
X750507Y201217D02*
D03*
X773366D02*
D03*
X508991Y775369D02*
D03*
X531851D02*
D03*
D66*
X744156Y153827D02*
D03*
Y103827D02*
D03*
X458470Y120250D02*
D03*
Y70250D02*
D03*
D67*
X791146Y115507D02*
D03*
X803847D02*
D03*
Y165007D02*
D03*
X816546D02*
D03*
X829247D02*
D03*
X816546Y115507D02*
D03*
X791146Y165007D02*
D03*
X829247Y115507D02*
D03*
D68*
X810197Y140257D02*
D03*
D69*
X662450Y137160D02*
D03*
X632950D02*
D03*
D70*
X671220Y86360D02*
D03*
X626720D02*
D03*
D71*
X393700Y222410D02*
D03*
Y178910D02*
D03*
X506666Y272497D02*
D03*
Y228997D02*
D03*
D72*
X524957Y293927D02*
D03*
X518607Y484337D02*
D03*
D73*
X540956Y277927D02*
D03*
Y309926D02*
D03*
X534607Y468337D02*
D03*
Y500336D02*
D03*
D74*
X529526Y368857D02*
D03*
Y345997D02*
D03*
Y426007D02*
D03*
Y403147D02*
D03*
X518160Y91440D02*
D03*
Y68580D02*
D03*
D75*
X325056Y798117D02*
D03*
D76*
X539627Y99617D02*
D03*
X595626Y112317D02*
D03*
Y125017D02*
D03*
Y86917D02*
D03*
Y99617D02*
D03*
X539627Y125017D02*
D03*
Y112317D02*
D03*
Y86917D02*
D03*
D77*
X567626Y105967D02*
D03*
D78*
X289556Y808117D02*
D03*
Y816117D02*
D03*
Y824117D02*
D03*
Y820117D02*
D03*
Y812117D02*
D03*
Y804117D02*
D03*
X360557D02*
D03*
Y820117D02*
D03*
Y824117D02*
D03*
Y808117D02*
D03*
Y816117D02*
D03*
Y812117D02*
D03*
X289556Y784117D02*
D03*
Y788117D02*
D03*
Y772117D02*
D03*
Y780117D02*
D03*
Y776117D02*
D03*
Y800117D02*
D03*
Y792117D02*
D03*
Y796117D02*
D03*
X360557Y780117D02*
D03*
Y776117D02*
D03*
Y796117D02*
D03*
Y800117D02*
D03*
Y784117D02*
D03*
Y792117D02*
D03*
Y788117D02*
D03*
Y772117D02*
D03*
D79*
X319056Y833617D02*
D03*
X307057D02*
D03*
X299057D02*
D03*
X303057D02*
D03*
X315056D02*
D03*
X311056D02*
D03*
X339057D02*
D03*
X343056D02*
D03*
X327057D02*
D03*
X335056D02*
D03*
X331057D02*
D03*
X351056D02*
D03*
X347057D02*
D03*
X323056D02*
D03*
X303057Y762617D02*
D03*
X307057D02*
D03*
X299057D02*
D03*
X319056D02*
D03*
X323056D02*
D03*
X315056D02*
D03*
X311056D02*
D03*
X339057D02*
D03*
X343056D02*
D03*
X327057D02*
D03*
X335056D02*
D03*
X331057D02*
D03*
X351056D02*
D03*
X347057D02*
D03*
D80*
X210820Y963930D02*
D03*
X236220D02*
D03*
X210820Y938530D02*
D03*
X261620D02*
D03*
X236220D02*
D03*
X547370Y899160D02*
D03*
D81*
X261620Y963930D02*
D03*
D82*
X133350Y854700D02*
D03*
Y774700D02*
D03*
D83*
X684157Y327097D02*
D03*
Y883297D02*
D03*
D84*
Y239197D02*
D03*
Y968197D02*
D03*
D85*
X547370Y873760D02*
D03*
D86*
X465717Y934057D02*
D03*
X407916D02*
D03*
D87*
X393617Y929057D02*
D03*
X480016D02*
D03*
D88*
X393617Y970857D02*
D03*
X480016D02*
D03*
D89*
X381000Y72460D02*
D03*
D90*
Y127460D02*
D03*
M02*
