G04*
G04 #@! TF.GenerationSoftware,Altium Limited,Altium Designer Agile,26.0.0 (14)*
G04*
G04 Layer_Color=16711935*
%FSLAX44Y44*%
%MOMM*%
G71*
G04*
G04 #@! TF.SameCoordinates,AA4D6D32-D7F5-4280-AC7C-52558C787E6E*
G04*
G04*
G04 #@! TF.FilePolarity,Negative*
G04*
G01*
G75*
%ADD80C,1.6254*%
G04:AMPARAMS|DCode=81|XSize=1.6254mm|YSize=1.6254mm|CornerRadius=0.4127mm|HoleSize=0mm|Usage=FLASHONLY|Rotation=180.000|XOffset=0mm|YOffset=0mm|HoleType=Round|Shape=RoundedRectangle|*
%AMROUNDEDRECTD81*
21,1,1.6254,0.8000,0,0,180.0*
21,1,0.8000,1.6254,0,0,180.0*
1,1,0.8254,-0.4000,0.4000*
1,1,0.8254,0.4000,0.4000*
1,1,0.8254,0.4000,-0.4000*
1,1,0.8254,-0.4000,-0.4000*
%
%ADD81ROUNDEDRECTD81*%
%ADD82C,1.0254*%
%ADD83C,3.2254*%
%ADD84R,3.0254X3.0254*%
%ADD85R,1.6254X1.6254*%
%ADD86C,0.6754*%
%ADD87O,1.0254X2.1254*%
%ADD88O,1.0254X1.8254*%
G04:AMPARAMS|DCode=89|XSize=2.7254mm|YSize=2.7254mm|CornerRadius=0.6877mm|HoleSize=0mm|Usage=FLASHONLY|Rotation=0.000|XOffset=0mm|YOffset=0mm|HoleType=Round|Shape=RoundedRectangle|*
%AMROUNDEDRECTD89*
21,1,2.7254,1.3500,0,0,0.0*
21,1,1.3500,2.7254,0,0,0.0*
1,1,1.3754,0.6750,-0.6750*
1,1,1.3754,-0.6750,-0.6750*
1,1,1.3754,-0.6750,0.6750*
1,1,1.3754,0.6750,0.6750*
%
%ADD89ROUNDEDRECTD89*%
%ADD90C,2.7254*%
D80*
X210820Y963930D02*
D03*
X236220D02*
D03*
X210820Y938530D02*
D03*
X261620D02*
D03*
X236220D02*
D03*
X547370Y899160D02*
D03*
D81*
X261620Y963930D02*
D03*
D82*
X133350Y854700D02*
D03*
Y774700D02*
D03*
D83*
X684157Y327097D02*
D03*
Y883297D02*
D03*
D84*
Y239197D02*
D03*
Y968197D02*
D03*
D85*
X547370Y873760D02*
D03*
D86*
X465717Y934057D02*
D03*
X407916D02*
D03*
D87*
X393617Y929057D02*
D03*
X480016D02*
D03*
D88*
X393617Y970857D02*
D03*
X480016D02*
D03*
D89*
X381000Y72460D02*
D03*
D90*
Y127460D02*
D03*
M02*
