<?xml version="1.0" encoding="UTF-8"?>
<svg xmlns="http://www.w3.org/2000/svg" width="512" height="512" viewBox="0 0 512 512" fill="none">
  
  <g transform="translate(0 4)"><path d="M256 78 380 126v94c0 102-60 178-124 228-64-50-124-126-124-228v-94L256 78Z" fill="#0f172a" fill-opacity="0.08" stroke="#22c55e" stroke-width="22" stroke-linejoin="round"/><path d="M184 250c0-38 32-70 70-70h4c38 0 70 32 70 70v56c0 14-12 26-26 26H210c-14 0-26-12-26-26v-56Z" fill="none" stroke="#f8fafc" stroke-width="18"/><path d="M214 216h84" stroke="#14b8a6" stroke-width="14" stroke-linecap="round"/><path d="M208 262h96" stroke="#f8fafc" stroke-width="16" stroke-linecap="round"/><path d="M218 294h28M266 294h28" stroke="#f8fafc" stroke-width="16" stroke-linecap="round"/><circle cx="216" cy="332" r="24" fill="#0f172a" stroke="#f8fafc" stroke-width="10"/><circle cx="296" cy="332" r="24" fill="#0f172a" stroke="#f8fafc" stroke-width="10"/><path d="M154 208a122 122 0 0 1 204 0" stroke="#14b8a6" stroke-width="14" stroke-linecap="round"/><path d="M184 184a90 90 0 0 1 144 0" stroke="#f59e0b" stroke-width="12" stroke-linecap="round"/></g>
</svg>
