<svg id="my-svg" width="100%" xmlns="http://www.w3.org/2000/svg" xmlns:xlink="http://www.w3.org/1999/xlink" class="erDiagram" style="max-width: 661.852px; background-color: white;" viewBox="0 0 661.8515625 976" role="graphics-document document" aria-roledescription="er"><style>#my-svg{font-family:Noto Sans,Segoe UI,Arial,sans-serif;font-size:18px;fill:#111827;}@keyframes edge-animation-frame{from{stroke-dashoffset:0;}}@keyframes dash{to{stroke-dashoffset:0;}}#my-svg .edge-animation-slow{stroke-dasharray:9,5!important;stroke-dashoffset:900;animation:dash 50s linear infinite;stroke-linecap:round;}#my-svg .edge-animation-fast{stroke-dasharray:9,5!important;stroke-dashoffset:900;animation:dash 20s linear infinite;stroke-linecap:round;}#my-svg .error-icon{fill:#eef2ff;}#my-svg .error-text{fill:#110d00;stroke:#110d00;}#my-svg .edge-thickness-normal{stroke-width:1px;}#my-svg .edge-thickness-thick{stroke-width:3.5px;}#my-svg .edge-pattern-solid{stroke-dasharray:0;}#my-svg .edge-thickness-invisible{stroke-width:0;fill:none;}#my-svg .edge-pattern-dashed{stroke-dasharray:3;}#my-svg .edge-pattern-dotted{stroke-dasharray:2;}#my-svg .marker{fill:#1f2937;stroke:#1f2937;}#my-svg .marker.cross{stroke:#1f2937;}#my-svg svg{font-family:Noto Sans,Segoe UI,Arial,sans-serif;font-size:18px;}#my-svg p{margin:0;}#my-svg .entityBox{fill:#f8fafc;stroke:#1f2937;}#my-svg .relationshipLabelBox{fill:#eef2ff;opacity:0.7;background-color:#eef2ff;}#my-svg .relationshipLabelBox rect{opacity:0.5;}#my-svg .labelBkg{background-color:rgba(238, 242, 255, 0.5);}#my-svg .edgeLabel .label{fill:#1f2937;font-size:14px;}#my-svg .label{font-family:Noto Sans,Segoe UI,Arial,sans-serif;color:#111827;}#my-svg .edge-pattern-dashed{stroke-dasharray:8,8;}#my-svg .node rect,#my-svg .node circle,#my-svg .node ellipse,#my-svg .node polygon{fill:#f8fafc;stroke:#1f2937;stroke-width:1px;}#my-svg .relationshipLine{stroke:#1f2937;stroke-width:1;fill:none;}#my-svg .marker{fill:none!important;stroke:#1f2937!important;stroke-width:1;}#my-svg :root{--mermaid-font-family:Noto Sans,Segoe UI,Arial,sans-serif;}</style><g><defs><marker id="my-svg_er-onlyOneStart" class="marker onlyOne er" refX="0" refY="9" markerWidth="18" markerHeight="18" orient="auto"><path d="M9,0 L9,18 M15,0 L15,18"/></marker></defs><defs><marker id="my-svg_er-onlyOneEnd" class="marker onlyOne er" refX="18" refY="9" markerWidth="18" markerHeight="18" orient="auto"><path d="M3,0 L3,18 M9,0 L9,18"/></marker></defs><defs><marker id="my-svg_er-zeroOrOneStart" class="marker zeroOrOne er" refX="0" refY="9" markerWidth="30" markerHeight="18" orient="auto"><circle fill="white" cx="21" cy="9" r="6"/><path d="M9,0 L9,18"/></marker></defs><defs><marker id="my-svg_er-zeroOrOneEnd" class="marker zeroOrOne er" refX="30" refY="9" markerWidth="30" markerHeight="18" orient="auto"><circle fill="white" cx="9" cy="9" r="6"/><path d="M21,0 L21,18"/></marker></defs><defs><marker id="my-svg_er-oneOrMoreStart" class="marker oneOrMore er" refX="18" refY="18" markerWidth="45" markerHeight="36" orient="auto"><path d="M0,18 Q 18,0 36,18 Q 18,36 0,18 M42,9 L42,27"/></marker></defs><defs><marker id="my-svg_er-oneOrMoreEnd" class="marker oneOrMore er" refX="27" refY="18" markerWidth="45" markerHeight="36" orient="auto"><path d="M3,9 L3,27 M9,18 Q27,0 45,18 Q27,36 9,18"/></marker></defs><defs><marker id="my-svg_er-zeroOrMoreStart" class="marker zeroOrMore er" refX="18" refY="18" markerWidth="57" markerHeight="36" orient="auto"><circle fill="white" cx="48" cy="18" r="6"/><path d="M0,18 Q18,0 36,18 Q18,36 0,18"/></marker></defs><defs><marker id="my-svg_er-zeroOrMoreEnd" class="marker zeroOrMore er" refX="39" refY="18" markerWidth="57" markerHeight="36" orient="auto"><circle fill="white" cx="9" cy="18" r="6"/><path d="M21,18 Q39,0 57,18 Q39,36 21,18"/></marker></defs><g class="root"><g class="clusters"/><g class="edgePaths"><path d="M363.852,191L363.852,200C363.852,209,363.852,227,363.852,245C363.852,263,363.852,281,363.852,290L363.852,299" id="id_entity-USERS-0_entity-VEHICLES-1_0" class="edge-thickness-normal edge-pattern-solid relationshipLine" style="undefined;;;undefined" data-edge="true" data-et="edge" data-id="id_entity-USERS-0_entity-VEHICLES-1_0" data-points="W3sieCI6MzYzLjg1MTU2MjUsInkiOjE5MX0seyJ4IjozNjMuODUxNTYyNSwieSI6MjQ1fSx7IngiOjM2My44NTE1NjI1LCJ5IjoyOTl9XQ==" marker-start="url(#my-svg_er-onlyOneStart)" marker-end="url(#my-svg_er-zeroOrMoreEnd)"/><path d="M265.891,440.699L234.895,456.582C203.898,472.466,141.906,504.233,110.91,529.116C79.914,554,79.914,572,79.914,581L79.914,590" id="id_entity-VEHICLES-1_entity-DEVICES-2_1" class="edge-thickness-normal edge-pattern-solid relationshipLine" style="undefined;;;undefined" data-edge="true" data-et="edge" data-id="id_entity-VEHICLES-1_entity-DEVICES-2_1" data-points="W3sieCI6MjY1Ljg5MDYyNSwieSI6NDQwLjY5ODc4MTA5MTc4OTU2fSx7IngiOjc5LjkxNDA2MjUsInkiOjUzNn0seyJ4Ijo3OS45MTQwNjI1LCJ5Ijo1OTB9XQ==" marker-start="url(#my-svg_er-onlyOneStart)" marker-end="url(#my-svg_er-zeroOrMoreEnd)"/><path d="M363.852,482L363.852,491C363.852,500,363.852,518,363.852,544C363.852,570,363.852,604,363.852,621L363.852,638" id="id_entity-VEHICLES-1_entity-TRIPS-3_2" class="edge-thickness-normal edge-pattern-solid relationshipLine" style="undefined;;;undefined" data-edge="true" data-et="edge" data-id="id_entity-VEHICLES-1_entity-TRIPS-3_2" data-points="W3sieCI6MzYzLjg1MTU2MjUsInkiOjQ4Mn0seyJ4IjozNjMuODUxNTYyNSwieSI6NTM2fSx7IngiOjM2My44NTE1NjI1LCJ5Ijo2Mzh9XQ==" marker-start="url(#my-svg_er-onlyOneStart)" marker-end="url(#my-svg_er-zeroOrMoreEnd)"/><path d="M363.852,725L363.852,742C363.852,759,363.852,793,363.852,819C363.852,845,363.852,863,363.852,872L363.852,881" id="id_entity-TRIPS-3_entity-TRIP_EVENTS-4_3" class="edge-thickness-normal edge-pattern-solid relationshipLine" style="undefined;;;undefined" data-edge="true" data-et="edge" data-id="id_entity-TRIPS-3_entity-TRIP_EVENTS-4_3" data-points="W3sieCI6MzYzLjg1MTU2MjUsInkiOjcyNX0seyJ4IjozNjMuODUxNTYyNSwieSI6ODI3fSx7IngiOjM2My44NTE1NjI1LCJ5Ijo4ODF9XQ==" marker-start="url(#my-svg_er-onlyOneStart)" marker-end="url(#my-svg_er-zeroOrMoreEnd)"/><path d="M461.813,449.889L485.486,464.241C509.159,478.593,556.505,507.296,580.178,538.648C603.852,570,603.852,604,603.852,621L603.852,638" id="id_entity-VEHICLES-1_entity-ALERTS-5_4" class="edge-thickness-normal edge-pattern-solid relationshipLine" style="undefined;;;undefined" data-edge="true" data-et="edge" data-id="id_entity-VEHICLES-1_entity-ALERTS-5_4" data-points="W3sieCI6NDYxLjgxMjUsInkiOjQ0OS44ODg4MTgzNTkzNzV9LHsieCI6NjAzLjg1MTU2MjUsInkiOjUzNn0seyJ4Ijo2MDMuODUxNTYyNSwieSI6NjM4fV0=" marker-start="url(#my-svg_er-onlyOneStart)" marker-end="url(#my-svg_er-zeroOrMoreEnd)"/><path d="M79.914,773L79.914,782C79.914,791,79.914,809,79.914,827C79.914,845,79.914,863,79.914,872L79.914,881" id="id_entity-DEVICES-2_entity-COMMANDS-6_5" class="edge-thickness-normal edge-pattern-solid relationshipLine" style="undefined;;;undefined" data-edge="true" data-et="edge" data-id="id_entity-DEVICES-2_entity-COMMANDS-6_5" data-points="W3sieCI6NzkuOTE0MDYyNSwieSI6NzczfSx7IngiOjc5LjkxNDA2MjUsInkiOjgyN30seyJ4Ijo3OS45MTQwNjI1LCJ5Ijo4ODF9XQ==" marker-start="url(#my-svg_er-onlyOneStart)" marker-end="url(#my-svg_er-zeroOrMoreEnd)"/></g><g class="edgeLabels"><g class="edgeLabel" transform="translate(363.8515625, 245)"><g class="label" data-id="id_entity-USERS-0_entity-VEHICLES-1_0" transform="translate(-32.48046875, -14)"><g><rect class="background" style="" x="-2" y="-2.999998092651367" width="64.9609375" height="28"/><text y="-10.1" style=""><tspan class="text-outer-tspan" x="0" y="-0.1em" dy="1.1em"><tspan font-style="normal" class="text-inner-tspan" font-weight="normal">quản_lý</tspan></tspan></text></g></g></g><g class="edgeLabel" transform="translate(79.9140625, 536)"><g class="label" data-id="id_entity-VEHICLES-1_entity-DEVICES-2_1" transform="translate(-16.9765625, -14)"><g><rect class="background" style="" x="-2" y="-2.999998092651367" width="33.953125" height="28"/><text y="-10.1" style=""><tspan class="text-outer-tspan" x="0" y="-0.1em" dy="1.1em"><tspan font-style="normal" class="text-inner-tspan" font-weight="normal">gắn</tspan></tspan></text></g></g></g><g class="edgeLabel" transform="translate(363.8515625, 536)"><g class="label" data-id="id_entity-VEHICLES-1_entity-TRIPS-3_2" transform="translate(-39.9375, -14)"><g><rect class="background" style="" x="-2" y="-2.999998092651367" width="79.875" height="28"/><text y="-10.1" style=""><tspan class="text-outer-tspan" x="0" y="-0.1em" dy="1.1em"><tspan font-style="normal" class="text-inner-tspan" font-weight="normal">phát_sinh</tspan></tspan></text></g></g></g><g class="edgeLabel" transform="translate(363.8515625, 827)"><g class="label" data-id="id_entity-TRIPS-3_entity-TRIP_EVENTS-4_3" transform="translate(-20.328125, -14)"><g><rect class="background" style="" x="-2" y="-2.999998092651367" width="40.65625" height="28"/><text y="-10.1" style=""><tspan class="text-outer-tspan" x="0" y="-0.1em" dy="1.1em"><tspan font-style="normal" class="text-inner-tspan" font-weight="normal">gồm</tspan></tspan></text></g></g></g><g class="edgeLabel" transform="translate(603.8515625, 536)"><g class="label" data-id="id_entity-VEHICLES-1_entity-ALERTS-5_4" transform="translate(-26.3515625, -14)"><g><rect class="background" style="" x="-2" y="-2.999998092651367" width="52.703125" height="28"/><text y="-10.1" style=""><tspan class="text-outer-tspan" x="0" y="-0.1em" dy="1.1em"><tspan font-style="normal" class="text-inner-tspan" font-weight="normal">tạo_ra</tspan></tspan></text></g></g></g><g class="edgeLabel" transform="translate(79.9140625, 827)"><g class="label" data-id="id_entity-DEVICES-2_entity-COMMANDS-6_5" transform="translate(-21.859375, -14)"><g><rect class="background" style="" x="-2" y="-2.999998092651367" width="43.71875" height="28"/><text y="-10.1" style=""><tspan class="text-outer-tspan" x="0" y="-0.1em" dy="1.1em"><tspan font-style="normal" class="text-inner-tspan" font-weight="normal">nhận</tspan></tspan></text></g></g></g></g><g class="nodes"><g class="node default" id="entity-USERS-0" transform="translate(363.8515625, 99.5)"><g style=""><path d="M-68.96875 -91.5 L68.96875 -91.5 L68.96875 91.5 L-68.96875 91.5" stroke="none" stroke-width="0" fill="#f8fafc"/><path d="M-68.96875 -91.5 C-28.554357290724532 -91.5, 11.860035418550936 -91.5, 68.96875 -91.5 M-68.96875 -91.5 C-35.62650229696697 -91.5, -2.2842545939339374 -91.5, 68.96875 -91.5 M68.96875 -91.5 C68.96875 -48.62359604080346, 68.96875 -5.747192081606926, 68.96875 91.5 M68.96875 -91.5 C68.96875 -43.32257247823891, 68.96875 4.8548550435221784, 68.96875 91.5 M68.96875 91.5 C15.451521897287847 91.5, -38.065706205424306 91.5, -68.96875 91.5 M68.96875 91.5 C21.24585030807753 91.5, -26.477049383844943 91.5, -68.96875 91.5 M-68.96875 91.5 C-68.96875 35.573911358351104, -68.96875 -20.35217728329779, -68.96875 -91.5 M-68.96875 91.5 C-68.96875 35.72564587522252, -68.96875 -20.048708249554963, -68.96875 -91.5" stroke="#1f2937" stroke-width="1.3" fill="none" stroke-dasharray="0 0"/></g><g style="" class="row-rect-odd"><path d="M-68.96875 -45.75 L68.96875 -45.75 L68.96875 0 L-68.96875 0" stroke="none" stroke-width="0" fill="hsl(210, 40%, 100%)"/><path d="M-68.96875 -45.75 C-15.542887975211357 -45.75, 37.882974049577285 -45.75, 68.96875 -45.75 M-68.96875 -45.75 C-18.28374870513582 -45.75, 32.40125258972836 -45.75, 68.96875 -45.75 M68.96875 -45.75 C68.96875 -31.3588841869948, 68.96875 -16.9677683739896, 68.96875 0 M68.96875 -45.75 C68.96875 -32.21108541959971, 68.96875 -18.67217083919943, 68.96875 0 M68.96875 0 C34.50549077362581 0, 0.042231547251617485 0, -68.96875 0 M68.96875 0 C38.255976569436434 0, 7.543203138872869 0, -68.96875 0 M-68.96875 0 C-68.96875 -17.13173903016075, -68.96875 -34.2634780603215, -68.96875 -45.75 M-68.96875 0 C-68.96875 -15.033835125992447, -68.96875 -30.067670251984893, -68.96875 -45.75" stroke="#1f2937" stroke-width="1.3" fill="none" stroke-dasharray="0 0"/></g><g style="" class="row-rect-even"><path d="M-68.96875 0 L68.96875 0 L68.96875 45.75 L-68.96875 45.75" stroke="none" stroke-width="0" fill="hsl(210, 40%, 100%)"/><path d="M-68.96875 0 C-26.711861954574772 0, 15.545026090850456 0, 68.96875 0 M-68.96875 0 C-30.51113196746298 0, 7.9464860650740405 0, 68.96875 0 M68.96875 0 C68.96875 16.266254428026816, 68.96875 32.53250885605363, 68.96875 45.75 M68.96875 0 C68.96875 17.127700006588736, 68.96875 34.25540001317747, 68.96875 45.75 M68.96875 45.75 C16.585255674470275 45.75, -35.79823865105945 45.75, -68.96875 45.75 M68.96875 45.75 C18.605140058431168 45.75, -31.758469883137664 45.75, -68.96875 45.75 M-68.96875 45.75 C-68.96875 35.49501986602278, -68.96875 25.240039732045563, -68.96875 0 M-68.96875 45.75 C-68.96875 36.27717175969383, -68.96875 26.80434351938766, -68.96875 0" stroke="#1f2937" stroke-width="1.3" fill="none" stroke-dasharray="0 0"/></g><g style="" class="row-rect-odd"><path d="M-68.96875 45.75 L68.96875 45.75 L68.96875 91.5 L-68.96875 91.5" stroke="none" stroke-width="0" fill="hsl(210, 40%, 100%)"/><path d="M-68.96875 45.75 C-32.15259181613401 45.75, 4.663566367731974 45.75, 68.96875 45.75 M-68.96875 45.75 C-39.39858264045537 45.75, -9.828415280910747 45.75, 68.96875 45.75 M68.96875 45.75 C68.96875 59.08480376214078, 68.96875 72.41960752428156, 68.96875 91.5 M68.96875 45.75 C68.96875 62.61647309578562, 68.96875 79.48294619157124, 68.96875 91.5 M68.96875 91.5 C14.234325814327633 91.5, -40.500098371344734 91.5, -68.96875 91.5 M68.96875 91.5 C18.211727950596426 91.5, -32.54529409880715 91.5, -68.96875 91.5 M-68.96875 91.5 C-68.96875 79.15627110087361, -68.96875 66.81254220174722, -68.96875 45.75 M-68.96875 91.5 C-68.96875 74.40089761759229, -68.96875 57.30179523518458, -68.96875 45.75" stroke="#1f2937" stroke-width="1.3" fill="none" stroke-dasharray="0 0"/></g><g class="label name" transform="translate(-25.6875, -82.125)" style=""><foreignObject width="51.375" height="27"><div xmlns="http://www.w3.org/1999/xhtml" style="display: table-cell; white-space: nowrap; line-height: 1.5; max-width: 146px; text-align: start;"><span class="nodeLabel"><p>USERS</p></span></div></foreignObject></g><g class="label attribute-type" transform="translate(-56.46875, -36.375)" style=""><foreignObject width="35.34375" height="27"><div xmlns="http://www.w3.org/1999/xhtml" style="display: table-cell; white-space: nowrap; line-height: 1.5; max-width: 131px; text-align: start;"><span class="nodeLabel"><p>uuid</p></span></div></foreignObject></g><g class="label attribute-name" transform="translate(13.671875, -36.375)" style=""><foreignObject width="14.96875" height="27"><div xmlns="http://www.w3.org/1999/xhtml" style="display: table-cell; white-space: nowrap; line-height: 1.5; max-width: 113px; text-align: start;"><span class="nodeLabel"><p>id</p></span></div></foreignObject></g><g class="label attribute-keys" transform="translate(81.46875, -36.375)" style=""><foreignObject width="0" height="0"><div xmlns="http://www.w3.org/1999/xhtml" style="display: table-cell; white-space: nowrap; line-height: 1.5; max-width: 100px; text-align: start;"><span class="nodeLabel"></span></div></foreignObject></g><g class="label attribute-comment" transform="translate(81.46875, -36.375)" style=""><foreignObject width="0" height="0"><div xmlns="http://www.w3.org/1999/xhtml" style="display: table-cell; white-space: nowrap; line-height: 1.5; max-width: 100px; text-align: start;"><span class="nodeLabel"></span></div></foreignObject></g><g class="label attribute-type" transform="translate(-56.46875, 9.375)" style=""><foreignObject width="45.140625" height="27"><div xmlns="http://www.w3.org/1999/xhtml" style="display: table-cell; white-space: nowrap; line-height: 1.5; max-width: 140px; text-align: start;"><span class="nodeLabel"><p>string</p></span></div></foreignObject></g><g class="label attribute-name" transform="translate(13.671875, 9.375)" style=""><foreignObject width="42.796875" height="27"><div xmlns="http://www.w3.org/1999/xhtml" style="display: table-cell; white-space: nowrap; line-height: 1.5; max-width: 138px; text-align: start;"><span class="nodeLabel"><p>email</p></span></div></foreignObject></g><g class="label attribute-keys" transform="translate(81.46875, 9.375)" style=""><foreignObject width="0" height="0"><div xmlns="http://www.w3.org/1999/xhtml" style="display: table-cell; white-space: nowrap; line-height: 1.5; max-width: 100px; text-align: start;"><span class="nodeLabel"></span></div></foreignObject></g><g class="label attribute-comment" transform="translate(81.46875, 9.375)" style=""><foreignObject width="0" height="0"><div xmlns="http://www.w3.org/1999/xhtml" style="display: table-cell; white-space: nowrap; line-height: 1.5; max-width: 100px; text-align: start;"><span class="nodeLabel"></span></div></foreignObject></g><g class="label attribute-type" transform="translate(-56.46875, 55.125)" style=""><foreignObject width="45.140625" height="27"><div xmlns="http://www.w3.org/1999/xhtml" style="display: table-cell; white-space: nowrap; line-height: 1.5; max-width: 140px; text-align: start;"><span class="nodeLabel"><p>string</p></span></div></foreignObject></g><g class="label attribute-name" transform="translate(13.671875, 55.125)" style=""><foreignObject width="30.578125" height="27"><div xmlns="http://www.w3.org/1999/xhtml" style="display: table-cell; white-space: nowrap; line-height: 1.5; max-width: 127px; text-align: start;"><span class="nodeLabel"><p>role</p></span></div></foreignObject></g><g class="label attribute-keys" transform="translate(81.46875, 55.125)" style=""><foreignObject width="0" height="0"><div xmlns="http://www.w3.org/1999/xhtml" style="display: table-cell; white-space: nowrap; line-height: 1.5; max-width: 100px; text-align: start;"><span class="nodeLabel"></span></div></foreignObject></g><g class="label attribute-comment" transform="translate(81.46875, 55.125)" style=""><foreignObject width="0" height="0"><div xmlns="http://www.w3.org/1999/xhtml" style="display: table-cell; white-space: nowrap; line-height: 1.5; max-width: 100px; text-align: start;"><span class="nodeLabel"></span></div></foreignObject></g><g class="divider"><path d="M-68.96875 -45.75 C-21.867044482545502 -45.75, 25.234661034908996 -45.75, 68.96875 -45.75 M-68.96875 -45.75 C-14.863023933565977 -45.75, 39.24270213286805 -45.75, 68.96875 -45.75" stroke="#1f2937" stroke-width="1.3" fill="none" stroke-dasharray="0 0"/></g><g class="divider"><path d="M1.171875 -45.75 C1.171875 -1.9774721535090052, 1.171875 41.79505569298199, 1.171875 91.5 M1.171875 -45.75 C1.171875 5.5623273748691275, 1.171875 56.874654749738255, 1.171875 91.5" stroke="#1f2937" stroke-width="1.3" fill="none" stroke-dasharray="0 0"/></g><g class="divider"><path d="M-68.96875 -45.75 C-14.682030366869867 -45.75, 39.604689266260266 -45.75, 68.96875 -45.75 M-68.96875 -45.75 C-32.0417313323652 -45.75, 4.885287335269595 -45.75, 68.96875 -45.75" stroke="#1f2937" stroke-width="1.3" fill="none" stroke-dasharray="0 0"/></g></g><g class="node default" id="entity-VEHICLES-1" transform="translate(363.8515625, 390.5)"><g style=""><path d="M-97.9609375 -91.5 L97.9609375 -91.5 L97.9609375 91.5 L-97.9609375 91.5" stroke="none" stroke-width="0" fill="#f8fafc"/><path d="M-97.9609375 -91.5 C-56.689195399888156 -91.5, -15.417453299776312 -91.5, 97.9609375 -91.5 M-97.9609375 -91.5 C-35.343563823154035 -91.5, 27.27380985369193 -91.5, 97.9609375 -91.5 M97.9609375 -91.5 C97.9609375 -39.61909795421779, 97.9609375 12.261804091564414, 97.9609375 91.5 M97.9609375 -91.5 C97.9609375 -53.50301030611905, 97.9609375 -15.506020612238103, 97.9609375 91.5 M97.9609375 91.5 C54.517260760895205 91.5, 11.07358402179041 91.5, -97.9609375 91.5 M97.9609375 91.5 C45.18211545732046 91.5, -7.596706585359087 91.5, -97.9609375 91.5 M-97.9609375 91.5 C-97.9609375 53.91595336203934, -97.9609375 16.331906724078678, -97.9609375 -91.5 M-97.9609375 91.5 C-97.9609375 45.06113093316565, -97.9609375 -1.3777381336687, -97.9609375 -91.5" stroke="#1f2937" stroke-width="1.3" fill="none" stroke-dasharray="0 0"/></g><g style="" class="row-rect-odd"><path d="M-97.9609375 -45.75 L97.9609375 -45.75 L97.9609375 0 L-97.9609375 0" stroke="none" stroke-width="0" fill="hsl(210, 40%, 100%)"/><path d="M-97.9609375 -45.75 C-25.486903654865145 -45.75, 46.98713019026971 -45.75, 97.9609375 -45.75 M-97.9609375 -45.75 C-41.67173455524391 -45.75, 14.617468389512183 -45.75, 97.9609375 -45.75 M97.9609375 -45.75 C97.9609375 -30.203734639353925, 97.9609375 -14.65746927870785, 97.9609375 0 M97.9609375 -45.75 C97.9609375 -27.460189067386295, 97.9609375 -9.17037813477259, 97.9609375 0 M97.9609375 0 C24.197357582933023 0, -49.566222334133954 0, -97.9609375 0 M97.9609375 0 C44.33534577651005 0, -9.290245946979894 0, -97.9609375 0 M-97.9609375 0 C-97.9609375 -13.382343654648462, -97.9609375 -26.764687309296924, -97.9609375 -45.75 M-97.9609375 0 C-97.9609375 -13.186635240733697, -97.9609375 -26.373270481467394, -97.9609375 -45.75" stroke="#1f2937" stroke-width="1.3" fill="none" stroke-dasharray="0 0"/></g><g style="" class="row-rect-even"><path d="M-97.9609375 0 L97.9609375 0 L97.9609375 45.75 L-97.9609375 45.75" stroke="none" stroke-width="0" fill="hsl(210, 40%, 100%)"/><path d="M-97.9609375 0 C-20.664568831892538 0, 56.631799836214924 0, 97.9609375 0 M-97.9609375 0 C-53.29676952845461 0, -8.632601556909222 0, 97.9609375 0 M97.9609375 0 C97.9609375 9.288994393042847, 97.9609375 18.577988786085694, 97.9609375 45.75 M97.9609375 0 C97.9609375 10.820345932091948, 97.9609375 21.640691864183896, 97.9609375 45.75 M97.9609375 45.75 C42.53514844020592 45.75, -12.890640619588154 45.75, -97.9609375 45.75 M97.9609375 45.75 C38.02735129889378 45.75, -21.906234902212447 45.75, -97.9609375 45.75 M-97.9609375 45.75 C-97.9609375 33.72610652288156, -97.9609375 21.70221304576312, -97.9609375 0 M-97.9609375 45.75 C-97.9609375 34.6620001985069, -97.9609375 23.5740003970138, -97.9609375 0" stroke="#1f2937" stroke-width="1.3" fill="none" stroke-dasharray="0 0"/></g><g style="" class="row-rect-odd"><path d="M-97.9609375 45.75 L97.9609375 45.75 L97.9609375 91.5 L-97.9609375 91.5" stroke="none" stroke-width="0" fill="hsl(210, 40%, 100%)"/><path d="M-97.9609375 45.75 C-38.88521219024409 45.75, 20.19051311951182 45.75, 97.9609375 45.75 M-97.9609375 45.75 C-30.61456884879705 45.75, 36.7317998024059 45.75, 97.9609375 45.75 M97.9609375 45.75 C97.9609375 61.11863464296261, 97.9609375 76.48726928592522, 97.9609375 91.5 M97.9609375 45.75 C97.9609375 57.56231176116482, 97.9609375 69.37462352232964, 97.9609375 91.5 M97.9609375 91.5 C24.582517718272342 91.5, -48.795902063455316 91.5, -97.9609375 91.5 M97.9609375 91.5 C35.1673987492916 91.5, -27.6261400014168 91.5, -97.9609375 91.5 M-97.9609375 91.5 C-97.9609375 77.51336698532496, -97.9609375 63.52673397064992, -97.9609375 45.75 M-97.9609375 91.5 C-97.9609375 76.79657019791313, -97.9609375 62.09314039582626, -97.9609375 45.75" stroke="#1f2937" stroke-width="1.3" fill="none" stroke-dasharray="0 0"/></g><g class="label name" transform="translate(-38.0703125, -82.125)" style=""><foreignObject width="76.140625" height="27"><div xmlns="http://www.w3.org/1999/xhtml" style="display: table-cell; white-space: nowrap; line-height: 1.5; max-width: 169px; text-align: start;"><span class="nodeLabel"><p>VEHICLES</p></span></div></foreignObject></g><g class="label attribute-type" transform="translate(-85.4609375, -36.375)" style=""><foreignObject width="35.34375" height="27"><div xmlns="http://www.w3.org/1999/xhtml" style="display: table-cell; white-space: nowrap; line-height: 1.5; max-width: 131px; text-align: start;"><span class="nodeLabel"><p>uuid</p></span></div></foreignObject></g><g class="label attribute-name" transform="translate(-15.3203125, -36.375)" style=""><foreignObject width="14.96875" height="27"><div xmlns="http://www.w3.org/1999/xhtml" style="display: table-cell; white-space: nowrap; line-height: 1.5; max-width: 113px; text-align: start;"><span class="nodeLabel"><p>id</p></span></div></foreignObject></g><g class="label attribute-keys" transform="translate(110.4609375, -36.375)" style=""><foreignObject width="0" height="0"><div xmlns="http://www.w3.org/1999/xhtml" style="display: table-cell; white-space: nowrap; line-height: 1.5; max-width: 100px; text-align: start;"><span class="nodeLabel"></span></div></foreignObject></g><g class="label attribute-comment" transform="translate(110.4609375, -36.375)" style=""><foreignObject width="0" height="0"><div xmlns="http://www.w3.org/1999/xhtml" style="display: table-cell; white-space: nowrap; line-height: 1.5; max-width: 100px; text-align: start;"><span class="nodeLabel"></span></div></foreignObject></g><g class="label attribute-type" transform="translate(-85.4609375, 9.375)" style=""><foreignObject width="45.140625" height="27"><div xmlns="http://www.w3.org/1999/xhtml" style="display: table-cell; white-space: nowrap; line-height: 1.5; max-width: 140px; text-align: start;"><span class="nodeLabel"><p>string</p></span></div></foreignObject></g><g class="label attribute-name" transform="translate(-15.3203125, 9.375)" style=""><foreignObject width="100.78125" height="27"><div xmlns="http://www.w3.org/1999/xhtml" style="display: table-cell; white-space: nowrap; line-height: 1.5; max-width: 190px; text-align: start;"><span class="nodeLabel"><p>license_plate</p></span></div></foreignObject></g><g class="label attribute-keys" transform="translate(110.4609375, 9.375)" style=""><foreignObject width="0" height="0"><div xmlns="http://www.w3.org/1999/xhtml" style="display: table-cell; white-space: nowrap; line-height: 1.5; max-width: 100px; text-align: start;"><span class="nodeLabel"></span></div></foreignObject></g><g class="label attribute-comment" transform="translate(110.4609375, 9.375)" style=""><foreignObject width="0" height="0"><div xmlns="http://www.w3.org/1999/xhtml" style="display: table-cell; white-space: nowrap; line-height: 1.5; max-width: 100px; text-align: start;"><span class="nodeLabel"></span></div></foreignObject></g><g class="label attribute-type" transform="translate(-85.4609375, 55.125)" style=""><foreignObject width="45.140625" height="27"><div xmlns="http://www.w3.org/1999/xhtml" style="display: table-cell; white-space: nowrap; line-height: 1.5; max-width: 140px; text-align: start;"><span class="nodeLabel"><p>string</p></span></div></foreignObject></g><g class="label attribute-name" transform="translate(-15.3203125, 55.125)" style=""><foreignObject width="46.828125" height="27"><div xmlns="http://www.w3.org/1999/xhtml" style="display: table-cell; white-space: nowrap; line-height: 1.5; max-width: 142px; text-align: start;"><span class="nodeLabel"><p>status</p></span></div></foreignObject></g><g class="label attribute-keys" transform="translate(110.4609375, 55.125)" style=""><foreignObject width="0" height="0"><div xmlns="http://www.w3.org/1999/xhtml" style="display: table-cell; white-space: nowrap; line-height: 1.5; max-width: 100px; text-align: start;"><span class="nodeLabel"></span></div></foreignObject></g><g class="label attribute-comment" transform="translate(110.4609375, 55.125)" style=""><foreignObject width="0" height="0"><div xmlns="http://www.w3.org/1999/xhtml" style="display: table-cell; white-space: nowrap; line-height: 1.5; max-width: 100px; text-align: start;"><span class="nodeLabel"></span></div></foreignObject></g><g class="divider"><path d="M-97.9609375 -45.75 C-25.631844702229827 -45.75, 46.697248095540346 -45.75, 97.9609375 -45.75 M-97.9609375 -45.75 C-30.73150969853218 -45.75, 36.49791810293564 -45.75, 97.9609375 -45.75" stroke="#1f2937" stroke-width="1.3" fill="none" stroke-dasharray="0 0"/></g><g class="divider"><path d="M-27.8203125 -45.75 C-27.8203125 -13.472336474241175, -27.8203125 18.80532705151765, -27.8203125 91.5 M-27.8203125 -45.75 C-27.8203125 -4.7538051406619175, -27.8203125 36.242389718676165, -27.8203125 91.5" stroke="#1f2937" stroke-width="1.3" fill="none" stroke-dasharray="0 0"/></g><g class="divider"><path d="M-97.9609375 -45.75 C-46.52702811689486 -45.75, 4.906881266210277 -45.75, 97.9609375 -45.75 M-97.9609375 -45.75 C-44.831744502331254 -45.75, 8.297448495337491 -45.75, 97.9609375 -45.75" stroke="#1f2937" stroke-width="1.3" fill="none" stroke-dasharray="0 0"/></g></g><g class="node default" id="entity-DEVICES-2" transform="translate(79.9140625, 681.5)"><g style=""><path d="M-68.1640625 -91.5 L68.1640625 -91.5 L68.1640625 91.5 L-68.1640625 91.5" stroke="none" stroke-width="0" fill="#f8fafc"/><path d="M-68.1640625 -91.5 C-37.556091964286594 -91.5, -6.948121428573188 -91.5, 68.1640625 -91.5 M-68.1640625 -91.5 C-30.00446494728137 -91.5, 8.15513260543726 -91.5, 68.1640625 -91.5 M68.1640625 -91.5 C68.1640625 -40.865803499996815, 68.1640625 9.76839300000637, 68.1640625 91.5 M68.1640625 -91.5 C68.1640625 -50.69026162244409, 68.1640625 -9.880523244888181, 68.1640625 91.5 M68.1640625 91.5 C17.35790087996981 91.5, -33.44826074006038 91.5, -68.1640625 91.5 M68.1640625 91.5 C30.04430926043318 91.5, -8.075443979133638 91.5, -68.1640625 91.5 M-68.1640625 91.5 C-68.1640625 31.66255025066583, -68.1640625 -28.17489949866834, -68.1640625 -91.5 M-68.1640625 91.5 C-68.1640625 27.7597337720254, -68.1640625 -35.9805324559492, -68.1640625 -91.5" stroke="#1f2937" stroke-width="1.3" fill="none" stroke-dasharray="0 0"/></g><g style="" class="row-rect-odd"><path d="M-68.1640625 -45.75 L68.1640625 -45.75 L68.1640625 0 L-68.1640625 0" stroke="none" stroke-width="0" fill="hsl(210, 40%, 100%)"/><path d="M-68.1640625 -45.75 C-33.38453418153625 -45.75, 1.3949941369274939 -45.75, 68.1640625 -45.75 M-68.1640625 -45.75 C-32.35372673439155 -45.75, 3.4566090312168996 -45.75, 68.1640625 -45.75 M68.1640625 -45.75 C68.1640625 -32.09905269892012, 68.1640625 -18.448105397840244, 68.1640625 0 M68.1640625 -45.75 C68.1640625 -35.84669160616844, 68.1640625 -25.943383212336883, 68.1640625 0 M68.1640625 0 C15.540127933922456 0, -37.08380663215509 0, -68.1640625 0 M68.1640625 0 C15.784663511974593 0, -36.594735476050815 0, -68.1640625 0 M-68.1640625 0 C-68.1640625 -9.32286059108177, -68.1640625 -18.64572118216354, -68.1640625 -45.75 M-68.1640625 0 C-68.1640625 -15.005448613125306, -68.1640625 -30.010897226250613, -68.1640625 -45.75" stroke="#1f2937" stroke-width="1.3" fill="none" stroke-dasharray="0 0"/></g><g style="" class="row-rect-even"><path d="M-68.1640625 0 L68.1640625 0 L68.1640625 45.75 L-68.1640625 45.75" stroke="none" stroke-width="0" fill="hsl(210, 40%, 100%)"/><path d="M-68.1640625 0 C-37.44810052828659 0, -6.732138556573169 0, 68.1640625 0 M-68.1640625 0 C-37.45381316997174 0, -6.743563839943469 0, 68.1640625 0 M68.1640625 0 C68.1640625 17.482276311588116, 68.1640625 34.96455262317623, 68.1640625 45.75 M68.1640625 0 C68.1640625 15.854859875461862, 68.1640625 31.709719750923725, 68.1640625 45.75 M68.1640625 45.75 C39.79530333688322 45.75, 11.426544173766452 45.75, -68.1640625 45.75 M68.1640625 45.75 C37.021117791667265 45.75, 5.878173083334524 45.75, -68.1640625 45.75 M-68.1640625 45.75 C-68.1640625 33.80801729130931, -68.1640625 21.86603458261863, -68.1640625 0 M-68.1640625 45.75 C-68.1640625 28.73034859961347, -68.1640625 11.710697199226942, -68.1640625 0" stroke="#1f2937" stroke-width="1.3" fill="none" stroke-dasharray="0 0"/></g><g style="" class="row-rect-odd"><path d="M-68.1640625 45.75 L68.1640625 45.75 L68.1640625 91.5 L-68.1640625 91.5" stroke="none" stroke-width="0" fill="hsl(210, 40%, 100%)"/><path d="M-68.1640625 45.75 C-19.865591812088866 45.75, 28.43287887582227 45.75, 68.1640625 45.75 M-68.1640625 45.75 C-14.379770985167397 45.75, 39.404520529665206 45.75, 68.1640625 45.75 M68.1640625 45.75 C68.1640625 60.81501352404671, 68.1640625 75.88002704809342, 68.1640625 91.5 M68.1640625 45.75 C68.1640625 57.55023639026878, 68.1640625 69.35047278053756, 68.1640625 91.5 M68.1640625 91.5 C23.71152285187589 91.5, -20.741016796248218 91.5, -68.1640625 91.5 M68.1640625 91.5 C23.238106469479902 91.5, -21.687849561040196 91.5, -68.1640625 91.5 M-68.1640625 91.5 C-68.1640625 79.55151889416803, -68.1640625 67.60303778833605, -68.1640625 45.75 M-68.1640625 91.5 C-68.1640625 79.6568789156941, -68.1640625 67.81375783138817, -68.1640625 45.75" stroke="#1f2937" stroke-width="1.3" fill="none" stroke-dasharray="0 0"/></g><g class="label name" transform="translate(-33.7578125, -82.125)" style=""><foreignObject width="67.515625" height="27"><div xmlns="http://www.w3.org/1999/xhtml" style="display: table-cell; white-space: nowrap; line-height: 1.5; max-width: 160px; text-align: start;"><span class="nodeLabel"><p>DEVICES</p></span></div></foreignObject></g><g class="label attribute-type" transform="translate(-55.6640625, -36.375)" style=""><foreignObject width="35.34375" height="27"><div xmlns="http://www.w3.org/1999/xhtml" style="display: table-cell; white-space: nowrap; line-height: 1.5; max-width: 131px; text-align: start;"><span class="nodeLabel"><p>uuid</p></span></div></foreignObject></g><g class="label attribute-name" transform="translate(14.4765625, -36.375)" style=""><foreignObject width="14.96875" height="27"><div xmlns="http://www.w3.org/1999/xhtml" style="display: table-cell; white-space: nowrap; line-height: 1.5; max-width: 113px; text-align: start;"><span class="nodeLabel"><p>id</p></span></div></foreignObject></g><g class="label attribute-keys" transform="translate(80.6640625, -36.375)" style=""><foreignObject width="0" height="0"><div xmlns="http://www.w3.org/1999/xhtml" style="display: table-cell; white-space: nowrap; line-height: 1.5; max-width: 100px; text-align: start;"><span class="nodeLabel"></span></div></foreignObject></g><g class="label attribute-comment" transform="translate(80.6640625, -36.375)" style=""><foreignObject width="0" height="0"><div xmlns="http://www.w3.org/1999/xhtml" style="display: table-cell; white-space: nowrap; line-height: 1.5; max-width: 100px; text-align: start;"><span class="nodeLabel"></span></div></foreignObject></g><g class="label attribute-type" transform="translate(-55.6640625, 9.375)" style=""><foreignObject width="45.140625" height="27"><div xmlns="http://www.w3.org/1999/xhtml" style="display: table-cell; white-space: nowrap; line-height: 1.5; max-width: 140px; text-align: start;"><span class="nodeLabel"><p>string</p></span></div></foreignObject></g><g class="label attribute-name" transform="translate(14.4765625, 9.375)" style=""><foreignObject width="41.1875" height="27"><div xmlns="http://www.w3.org/1999/xhtml" style="display: table-cell; white-space: nowrap; line-height: 1.5; max-width: 137px; text-align: start;"><span class="nodeLabel"><p>serial</p></span></div></foreignObject></g><g class="label attribute-keys" transform="translate(80.6640625, 9.375)" style=""><foreignObject width="0" height="0"><div xmlns="http://www.w3.org/1999/xhtml" style="display: table-cell; white-space: nowrap; line-height: 1.5; max-width: 100px; text-align: start;"><span class="nodeLabel"></span></div></foreignObject></g><g class="label attribute-comment" transform="translate(80.6640625, 9.375)" style=""><foreignObject width="0" height="0"><div xmlns="http://www.w3.org/1999/xhtml" style="display: table-cell; white-space: nowrap; line-height: 1.5; max-width: 100px; text-align: start;"><span class="nodeLabel"></span></div></foreignObject></g><g class="label attribute-type" transform="translate(-55.6640625, 55.125)" style=""><foreignObject width="45.140625" height="27"><div xmlns="http://www.w3.org/1999/xhtml" style="display: table-cell; white-space: nowrap; line-height: 1.5; max-width: 140px; text-align: start;"><span class="nodeLabel"><p>string</p></span></div></foreignObject></g><g class="label attribute-name" transform="translate(14.4765625, 55.125)" style=""><foreignObject width="33.640625" height="27"><div xmlns="http://www.w3.org/1999/xhtml" style="display: table-cell; white-space: nowrap; line-height: 1.5; max-width: 130px; text-align: start;"><span class="nodeLabel"><p>imei</p></span></div></foreignObject></g><g class="label attribute-keys" transform="translate(80.6640625, 55.125)" style=""><foreignObject width="0" height="0"><div xmlns="http://www.w3.org/1999/xhtml" style="display: table-cell; white-space: nowrap; line-height: 1.5; max-width: 100px; text-align: start;"><span class="nodeLabel"></span></div></foreignObject></g><g class="label attribute-comment" transform="translate(80.6640625, 55.125)" style=""><foreignObject width="0" height="0"><div xmlns="http://www.w3.org/1999/xhtml" style="display: table-cell; white-space: nowrap; line-height: 1.5; max-width: 100px; text-align: start;"><span class="nodeLabel"></span></div></foreignObject></g><g class="divider"><path d="M-68.1640625 -45.75 C-28.986716754036415 -45.75, 10.19062899192717 -45.75, 68.1640625 -45.75 M-68.1640625 -45.75 C-31.051192229411804 -45.75, 6.061678041176393 -45.75, 68.1640625 -45.75" stroke="#1f2937" stroke-width="1.3" fill="none" stroke-dasharray="0 0"/></g><g class="divider"><path d="M1.9765625 -45.75 C1.9765625 -2.355328605949353, 1.9765625 41.039342788101294, 1.9765625 91.5 M1.9765625 -45.75 C1.9765625 -4.892209911451118, 1.9765625 35.96558017709776, 1.9765625 91.5" stroke="#1f2937" stroke-width="1.3" fill="none" stroke-dasharray="0 0"/></g><g class="divider"><path d="M-68.1640625 -45.75 C-24.618321222922965 -45.75, 18.92742005415407 -45.75, 68.1640625 -45.75 M-68.1640625 -45.75 C-25.930253711938903 -45.75, 16.303555076122194 -45.75, 68.1640625 -45.75" stroke="#1f2937" stroke-width="1.3" fill="none" stroke-dasharray="0 0"/></g></g><g class="node default" id="entity-TRIPS-3" transform="translate(363.8515625, 681.5)"><rect class="basic label-container" style="" x="-50" y="-43.5" width="100" height="87"/><g class="label" style="" transform="translate(-22.3203125, -13.5)"><rect/><foreignObject width="44.640625" height="27"><div xmlns="http://www.w3.org/1999/xhtml" style="display: table-cell; white-space: nowrap; line-height: 1.5; max-width: 100px; text-align: center;"><span class="nodeLabel"><p>TRIPS</p></span></div></foreignObject></g></g><g class="node default" id="entity-TRIP_EVENTS-4" transform="translate(363.8515625, 924.5)"><rect class="basic label-container" style="" x="-72.0234375" y="-43.5" width="144.046875" height="87"/><g class="label" style="" transform="translate(-52.0234375, -13.5)"><rect/><foreignObject width="104.046875" height="27"><div xmlns="http://www.w3.org/1999/xhtml" style="display: table-cell; white-space: nowrap; line-height: 1.5; max-width: 220px; text-align: center;"><span class="nodeLabel"><p>TRIP_EVENTS</p></span></div></foreignObject></g></g><g class="node default" id="entity-ALERTS-5" transform="translate(603.8515625, 681.5)"><rect class="basic label-container" style="" x="-50" y="-43.5" width="100" height="87"/><g class="label" style="" transform="translate(-28.8984375, -13.5)"><rect/><foreignObject width="57.796875" height="27"><div xmlns="http://www.w3.org/1999/xhtml" style="display: table-cell; white-space: nowrap; line-height: 1.5; max-width: 100px; text-align: center;"><span class="nodeLabel"><p>ALERTS</p></span></div></foreignObject></g></g><g class="node default" id="entity-COMMANDS-6" transform="translate(79.9140625, 924.5)"><rect class="basic label-container" style="" x="-71.9140625" y="-43.5" width="143.828125" height="87"/><g class="label" style="" transform="translate(-51.9140625, -13.5)"><rect/><foreignObject width="103.828125" height="27"><div xmlns="http://www.w3.org/1999/xhtml" style="display: table-cell; white-space: nowrap; line-height: 1.5; max-width: 220px; text-align: center;"><span class="nodeLabel"><p>COMMANDS</p></span></div></foreignObject></g></g></g></g></g></svg>