<?xml version="1.0" encoding="UTF-8"?>
<svg xmlns="http://www.w3.org/2000/svg" viewBox="0 0 1600 1000" width="1600" height="1000">
  <defs>
    <filter id="shadow" x="-20%" y="-20%" width="140%" height="140%">
      <feDropShadow dx="0" dy="12" stdDeviation="12" flood-color="rgba(18, 32, 51, 0.14)"/>
    </filter>
    <marker id="arrow" markerWidth="12" markerHeight="12" refX="10" refY="6" orient="auto">
      <path d="M1,1 L11,6 L1,11 Z" fill="#1d4ed8"/>
    </marker>
    <marker id="arrow-slate" markerWidth="12" markerHeight="12" refX="10" refY="6" orient="auto">
      <path d="M1,1 L11,6 L1,11 Z" fill="#64748b"/>
    </marker>
  </defs>
  <style>
    text {
      fill: #122033;
      font-family: "Segoe UI", "Noto Sans", Arial, sans-serif;
    }
    .title { font-size: 40px; font-weight: 750; letter-spacing: -0.02em; }
    .subtitle { font-size: 22px; fill: #52637a; }
    .section-title { font-size: 24px; font-weight: 700; }
    .card-title { font-size: 26px; font-weight: 700; letter-spacing: -0.01em; }
    .body { font-size: 20px; }
    .small { font-size: 18px; fill: #52637a; }
    .tiny { font-size: 15px; fill: #52637a; }
    .chip { font-size: 15px; font-weight: 700; letter-spacing: 0.04em; text-transform: uppercase; }
    .metric { font-size: 42px; font-weight: 760; }
    .mono { font-family: "Consolas", "Courier New", monospace; font-size: 18px; }
    .sidebar { fill: #f8fafc; font-size: 18px; font-weight: 600; }
  </style>
  <rect width="100%" height="100%" fill="#f4f7fb"/>
  <rect x="32" y="32" width="1536" height="936" rx="30" fill="none" stroke="rgba(29, 78, 216, 0.12)" stroke-width="2"/>
  <rect x="56" y="56" width="1488" height="888" rx="28" fill="rgba(255, 255, 255, 0.45)" stroke="none"/>
  <text x="84" y="106" class="title">Đồ thị dòng tiêu thụ theo chu kỳ hoạt động</text>
  <text x="84" y="142" class="subtitle">Chuỗi Driving -&gt; Parking -&gt; Alert -&gt; Parking với đỉnh 4G phát ở pha cảnh báo.</text>
  
    <rect x="122" y="190" width="1336" height="630" rx="28" fill="#ffffff" stroke="#cbd5e1" stroke-width="2" filter="url(#shadow)"/>
    <text x="150" y="232" class="card-title" text-anchor="start" fill="#122033"><tspan x="150" dy="0">Dòng tiêu thụ theo thời gian</tspan></text>
    <text x="150" y="262" class="small" text-anchor="start" fill="#122033"><tspan x="150" dy="0">Thiết bị giảm sâu khi Parking và tăng mạnh khi kích hoạt cảnh báo ưu tiên.</tspan></text>
    <line x1="150" y1="750" x2="1430" y2="750" stroke="rgba(203, 213, 225, 0.88)" stroke-width="2" stroke-dasharray="10 10"/><text x="134" y="757" class="small" text-anchor="end" fill="#122033"><tspan x="134" dy="0">0</tspan></text><line x1="150" y1="662.7272727272727" x2="1430" y2="662.7272727272727" stroke="rgba(203, 213, 225, 0.88)" stroke-width="2" stroke-dasharray="10 10"/><text x="134" y="669.7272727272727" class="small" text-anchor="end" fill="#122033"><tspan x="134" dy="0">100</tspan></text><line x1="150" y1="575.4545454545455" x2="1430" y2="575.4545454545455" stroke="rgba(203, 213, 225, 0.88)" stroke-width="2" stroke-dasharray="10 10"/><text x="134" y="582.4545454545455" class="small" text-anchor="end" fill="#122033"><tspan x="134" dy="0">200</tspan></text><line x1="150" y1="488.1818181818182" x2="1430" y2="488.1818181818182" stroke="rgba(203, 213, 225, 0.88)" stroke-width="2" stroke-dasharray="10 10"/><text x="134" y="495.1818181818182" class="small" text-anchor="end" fill="#122033"><tspan x="134" dy="0">300</tspan></text><line x1="150" y1="400.9090909090909" x2="1430" y2="400.9090909090909" stroke="rgba(203, 213, 225, 0.88)" stroke-width="2" stroke-dasharray="10 10"/><text x="134" y="407.9090909090909" class="small" text-anchor="end" fill="#122033"><tspan x="134" dy="0">400</tspan></text><line x1="150" y1="313.6363636363636" x2="1430" y2="313.6363636363636" stroke="rgba(203, 213, 225, 0.88)" stroke-width="2" stroke-dasharray="10 10"/><text x="134" y="320.6363636363636" class="small" text-anchor="end" fill="#122033"><tspan x="134" dy="0">500</tspan></text>
    <polyline points="150,444.54545454545456 363.3333333333333,435.8181818181818 576.6666666666666,592.9090909090909 790,736.9090909090909 1003.3333333333333,749.5636363636364 1216.6666666666667,418.3636363636364 1430,736.9090909090909" fill="none" stroke="#1d4ed8" stroke-width="6" stroke-linecap="round" stroke-linejoin="round"/>
    <polygon points="150,750 150,444.54545454545456 363.3333333333333,435.8181818181818 576.6666666666666,592.9090909090909 790,736.9090909090909 1003.3333333333333,749.5636363636364 1216.6666666666667,418.3636363636364 1430,736.9090909090909 1430,750" fill="rgba(29, 78, 216, 0.12)" stroke="none"/>
    <text x="150" y="782" class="small" text-anchor="middle" fill="#122033"><tspan x="150" dy="0">Drive 0'</tspan></text><text x="363.3333333333333" y="782" class="small" text-anchor="middle" fill="#122033"><tspan x="363.3333333333333" dy="0">Drive 5'</tspan></text><text x="576.6666666666666" y="782" class="small" text-anchor="middle" fill="#122033"><tspan x="576.6666666666666" dy="0">Idle 10'</tspan></text><text x="790" y="782" class="small" text-anchor="middle" fill="#122033"><tspan x="790" dy="0">Sleep 20'</tspan></text><text x="1003.3333333333333" y="782" class="small" text-anchor="middle" fill="#122033"><tspan x="1003.3333333333333" dy="0">Deep 25'</tspan></text><text x="1216.6666666666667" y="782" class="small" text-anchor="middle" fill="#122033"><tspan x="1216.6666666666667" dy="0">Alert 32'</tspan></text><text x="1430" y="782" class="small" text-anchor="middle" fill="#122033"><tspan x="1430" dy="0">Park 40'</tspan></text>
    <circle cx="150" cy="444.54545454545456" r="7" fill="#1d4ed8" stroke="#fff" stroke-width="4"/><text x="150" y="428.54545454545456" class="tiny" text-anchor="middle">350</text><circle cx="363.3333333333333" cy="435.8181818181818" r="7" fill="#1d4ed8" stroke="#fff" stroke-width="4"/><text x="363.3333333333333" y="419.8181818181818" class="tiny" text-anchor="middle">360</text><circle cx="576.6666666666666" cy="592.9090909090909" r="7" fill="#1d4ed8" stroke="#fff" stroke-width="4"/><text x="576.6666666666666" y="576.9090909090909" class="tiny" text-anchor="middle">180</text><circle cx="790" cy="736.9090909090909" r="7" fill="#1d4ed8" stroke="#fff" stroke-width="4"/><text x="790" y="720.9090909090909" class="tiny" text-anchor="middle">15</text><circle cx="1003.3333333333333" cy="749.5636363636364" r="7" fill="#1d4ed8" stroke="#fff" stroke-width="4"/><text x="1003.3333333333333" y="733.5636363636364" class="tiny" text-anchor="middle">0.5</text><circle cx="1216.6666666666667" cy="418.3636363636364" r="7" fill="#1d4ed8" stroke="#fff" stroke-width="4"/><text x="1216.6666666666667" y="402.3636363636364" class="tiny" text-anchor="middle">380</text><circle cx="1430" cy="736.9090909090909" r="7" fill="#1d4ed8" stroke="#fff" stroke-width="4"/><text x="1430" y="720.9090909090909" class="tiny" text-anchor="middle">15</text>
  
</svg>