<svg id="my-svg" width="100%" xmlns="http://www.w3.org/2000/svg" xmlns:xlink="http://www.w3.org/1999/xlink" class="erDiagram" style="max-width: 661.852px; background-color: white;" viewBox="0 0 661.8515625 976" role="graphics-document document" aria-roledescription="er"><style>#my-svg{font-family:Noto Sans,Segoe UI,Arial,sans-serif;font-size:18px;fill:#111827;}@keyframes edge-animation-frame{from{stroke-dashoffset:0;}}@keyframes dash{to{stroke-dashoffset:0;}}#my-svg .edge-animation-slow{stroke-dasharray:9,5!important;stroke-dashoffset:900;animation:dash 50s linear infinite;stroke-linecap:round;}#my-svg .edge-animation-fast{stroke-dasharray:9,5!important;stroke-dashoffset:900;animation:dash 20s linear infinite;stroke-linecap:round;}#my-svg .error-icon{fill:#eef2ff;}#my-svg .error-text{fill:#110d00;stroke:#110d00;}#my-svg .edge-thickness-normal{stroke-width:1px;}#my-svg .edge-thickness-thick{stroke-width:3.5px;}#my-svg .edge-pattern-solid{stroke-dasharray:0;}#my-svg .edge-thickness-invisible{stroke-width:0;fill:none;}#my-svg .edge-pattern-dashed{stroke-dasharray:3;}#my-svg .edge-pattern-dotted{stroke-dasharray:2;}#my-svg .marker{fill:#1f2937;stroke:#1f2937;}#my-svg .marker.cross{stroke:#1f2937;}#my-svg svg{font-family:Noto Sans,Segoe UI,Arial,sans-serif;font-size:18px;}#my-svg p{margin:0;}#my-svg .entityBox{fill:#f8fafc;stroke:#1f2937;}#my-svg .relationshipLabelBox{fill:#eef2ff;opacity:0.7;background-color:#eef2ff;}#my-svg .relationshipLabelBox rect{opacity:0.5;}#my-svg .labelBkg{background-color:rgba(238, 242, 255, 0.5);}#my-svg .edgeLabel .label{fill:#1f2937;font-size:14px;}#my-svg .label{font-family:Noto Sans,Segoe UI,Arial,sans-serif;color:#111827;}#my-svg .edge-pattern-dashed{stroke-dasharray:8,8;}#my-svg .node rect,#my-svg .node circle,#my-svg .node ellipse,#my-svg .node polygon{fill:#f8fafc;stroke:#1f2937;stroke-width:1px;}#my-svg .relationshipLine{stroke:#1f2937;stroke-width:1;fill:none;}#my-svg .marker{fill:none!important;stroke:#1f2937!important;stroke-width:1;}#my-svg :root{--mermaid-font-family:Noto Sans,Segoe UI,Arial,sans-serif;}</style><g><defs><marker id="my-svg_er-onlyOneStart" class="marker onlyOne er" refX="0" refY="9" markerWidth="18" markerHeight="18" orient="auto"><path d="M9,0 L9,18 M15,0 L15,18"/></marker></defs><defs><marker id="my-svg_er-onlyOneEnd" class="marker onlyOne er" refX="18" refY="9" markerWidth="18" markerHeight="18" orient="auto"><path d="M3,0 L3,18 M9,0 L9,18"/></marker></defs><defs><marker id="my-svg_er-zeroOrOneStart" class="marker zeroOrOne er" refX="0" refY="9" markerWidth="30" markerHeight="18" orient="auto"><circle fill="white" cx="21" cy="9" r="6"/><path d="M9,0 L9,18"/></marker></defs><defs><marker id="my-svg_er-zeroOrOneEnd" class="marker zeroOrOne er" refX="30" refY="9" markerWidth="30" markerHeight="18" orient="auto"><circle fill="white" cx="9" cy="9" r="6"/><path d="M21,0 L21,18"/></marker></defs><defs><marker id="my-svg_er-oneOrMoreStart" class="marker oneOrMore er" refX="18" refY="18" markerWidth="45" markerHeight="36" orient="auto"><path d="M0,18 Q 18,0 36,18 Q 18,36 0,18 M42,9 L42,27"/></marker></defs><defs><marker id="my-svg_er-oneOrMoreEnd" class="marker oneOrMore er" refX="27" refY="18" markerWidth="45" markerHeight="36" orient="auto"><path d="M3,9 L3,27 M9,18 Q27,0 45,18 Q27,36 9,18"/></marker></defs><defs><marker id="my-svg_er-zeroOrMoreStart" class="marker zeroOrMore er" refX="18" refY="18" markerWidth="57" markerHeight="36" orient="auto"><circle fill="white" cx="48" cy="18" r="6"/><path d="M0,18 Q18,0 36,18 Q18,36 0,18"/></marker></defs><defs><marker id="my-svg_er-zeroOrMoreEnd" class="marker zeroOrMore er" refX="39" refY="18" markerWidth="57" markerHeight="36" orient="auto"><circle fill="white" cx="9" cy="18" r="6"/><path d="M21,18 Q39,0 57,18 Q39,36 21,18"/></marker></defs><g class="root"><g class="clusters"/><g class="edgePaths"><path d="M363.852,191L363.852,200C363.852,209,363.852,227,363.852,245C363.852,263,363.852,281,363.852,290L363.852,299" id="id_entity-USERS-0_entity-VEHICLES-1_0" class="edge-thickness-normal edge-pattern-solid relationshipLine" style="undefined;;;undefined" data-edge="true" data-et="edge" data-id="id_entity-USERS-0_entity-VEHICLES-1_0" data-points="W3sieCI6MzYzLjg1MTU2MjUsInkiOjE5MX0seyJ4IjozNjMuODUxNTYyNSwieSI6MjQ1fSx7IngiOjM2My44NTE1NjI1LCJ5IjoyOTl9XQ==" marker-start="url(#my-svg_er-onlyOneStart)" marker-end="url(#my-svg_er-zeroOrMoreEnd)"/><path d="M265.891,440.699L234.895,456.582C203.898,472.466,141.906,504.233,110.91,529.116C79.914,554,79.914,572,79.914,581L79.914,590" id="id_entity-VEHICLES-1_entity-DEVICES-2_1" class="edge-thickness-normal edge-pattern-solid relationshipLine" style="undefined;;;undefined" data-edge="true" data-et="edge" data-id="id_entity-VEHICLES-1_entity-DEVICES-2_1" data-points="W3sieCI6MjY1Ljg5MDYyNSwieSI6NDQwLjY5ODc4MTA5MTc4OTU2fSx7IngiOjc5LjkxNDA2MjUsInkiOjUzNn0seyJ4Ijo3OS45MTQwNjI1LCJ5Ijo1OTB9XQ==" marker-start="url(#my-svg_er-onlyOneStart)" marker-end="url(#my-svg_er-zeroOrMoreEnd)"/><path d="M363.852,482L363.852,491C363.852,500,363.852,518,363.852,544C363.852,570,363.852,604,363.852,621L363.852,638" id="id_entity-VEHICLES-1_entity-TRIPS-3_2" class="edge-thickness-normal edge-pattern-solid relationshipLine" style="undefined;;;undefined" data-edge="true" data-et="edge" data-id="id_entity-VEHICLES-1_entity-TRIPS-3_2" data-points="W3sieCI6MzYzLjg1MTU2MjUsInkiOjQ4Mn0seyJ4IjozNjMuODUxNTYyNSwieSI6NTM2fSx7IngiOjM2My44NTE1NjI1LCJ5Ijo2Mzh9XQ==" marker-start="url(#my-svg_er-onlyOneStart)" marker-end="url(#my-svg_er-zeroOrMoreEnd)"/><path d="M363.852,725L363.852,742C363.852,759,363.852,793,363.852,819C363.852,845,363.852,863,363.852,872L363.852,881" id="id_entity-TRIPS-3_entity-TRIP_EVENTS-4_3" class="edge-thickness-normal edge-pattern-solid relationshipLine" style="undefined;;;undefined" data-edge="true" data-et="edge" data-id="id_entity-TRIPS-3_entity-TRIP_EVENTS-4_3" data-points="W3sieCI6MzYzLjg1MTU2MjUsInkiOjcyNX0seyJ4IjozNjMuODUxNTYyNSwieSI6ODI3fSx7IngiOjM2My44NTE1NjI1LCJ5Ijo4ODF9XQ==" marker-start="url(#my-svg_er-onlyOneStart)" marker-end="url(#my-svg_er-zeroOrMoreEnd)"/><path d="M461.813,449.889L485.486,464.241C509.159,478.593,556.505,507.296,580.178,538.648C603.852,570,603.852,604,603.852,621L603.852,638" id="id_entity-VEHICLES-1_entity-ALERTS-5_4" class="edge-thickness-normal edge-pattern-solid relationshipLine" style="undefined;;;undefined" data-edge="true" data-et="edge" data-id="id_entity-VEHICLES-1_entity-ALERTS-5_4" data-points="W3sieCI6NDYxLjgxMjUsInkiOjQ0OS44ODg4MTgzNTkzNzV9LHsieCI6NjAzLjg1MTU2MjUsInkiOjUzNn0seyJ4Ijo2MDMuODUxNTYyNSwieSI6NjM4fV0=" marker-start="url(#my-svg_er-onlyOneStart)" marker-end="url(#my-svg_er-zeroOrMoreEnd)"/><path d="M79.914,773L79.914,782C79.914,791,79.914,809,79.914,827C79.914,845,79.914,863,79.914,872L79.914,881" id="id_entity-DEVICES-2_entity-COMMANDS-6_5" class="edge-thickness-normal edge-pattern-solid relationshipLine" style="undefined;;;undefined" data-edge="true" data-et="edge" data-id="id_entity-DEVICES-2_entity-COMMANDS-6_5" data-points="W3sieCI6NzkuOTE0MDYyNSwieSI6NzczfSx7IngiOjc5LjkxNDA2MjUsInkiOjgyN30seyJ4Ijo3OS45MTQwNjI1LCJ5Ijo4ODF9XQ==" marker-start="url(#my-svg_er-onlyOneStart)" marker-end="url(#my-svg_er-zeroOrMoreEnd)"/></g><g class="edgeLabels"><g class="edgeLabel" transform="translate(363.8515625, 245)"><g class="label" data-id="id_entity-USERS-0_entity-VEHICLES-1_0" transform="translate(-32.48046875, -14)"><g><rect class="background" style="" x="-2" y="-2.999998092651367" width="64.9609375" height="28"/><text y="-10.1" style=""><tspan class="text-outer-tspan" x="0" y="-0.1em" dy="1.1em"><tspan font-style="normal" class="text-inner-tspan" font-weight="normal">quản_lý</tspan></tspan></text></g></g></g><g class="edgeLabel" transform="translate(79.9140625, 536)"><g class="label" data-id="id_entity-VEHICLES-1_entity-DEVICES-2_1" transform="translate(-16.9765625, -14)"><g><rect class="background" style="" x="-2" y="-2.999998092651367" width="33.953125" height="28"/><text y="-10.1" style=""><tspan class="text-outer-tspan" x="0" y="-0.1em" dy="1.1em"><tspan font-style="normal" class="text-inner-tspan" font-weight="normal">gắn</tspan></tspan></text></g></g></g><g class="edgeLabel" transform="translate(363.8515625, 536)"><g class="label" data-id="id_entity-VEHICLES-1_entity-TRIPS-3_2" transform="translate(-39.9375, -14)"><g><rect class="background" style="" x="-2" y="-2.999998092651367" width="79.875" height="28"/><text y="-10.1" style=""><tspan class="text-outer-tspan" x="0" y="-0.1em" dy="1.1em"><tspan font-style="normal" class="text-inner-tspan" font-weight="normal">phát_sinh</tspan></tspan></text></g></g></g><g class="edgeLabel" transform="translate(363.8515625, 827)"><g class="label" data-id="id_entity-TRIPS-3_entity-TRIP_EVENTS-4_3" transform="translate(-20.328125, -14)"><g><rect class="background" style="" x="-2" y="-2.999998092651367" width="40.65625" height="28"/><text y="-10.1" style=""><tspan class="text-outer-tspan" x="0" y="-0.1em" dy="1.1em"><tspan font-style="normal" class="text-inner-tspan" font-weight="normal">gồm</tspan></tspan></text></g></g></g><g class="edgeLabel" transform="translate(603.8515625, 536)"><g class="label" data-id="id_entity-VEHICLES-1_entity-ALERTS-5_4" transform="translate(-26.3515625, -14)"><g><rect class="background" style="" x="-2" y="-2.999998092651367" width="52.703125" height="28"/><text y="-10.1" style=""><tspan class="text-outer-tspan" x="0" y="-0.1em" dy="1.1em"><tspan font-style="normal" class="text-inner-tspan" font-weight="normal">tạo_ra</tspan></tspan></text></g></g></g><g class="edgeLabel" transform="translate(79.9140625, 827)"><g class="label" data-id="id_entity-DEVICES-2_entity-COMMANDS-6_5" transform="translate(-21.859375, -14)"><g><rect class="background" style="" x="-2" y="-2.999998092651367" width="43.71875" height="28"/><text y="-10.1" style=""><tspan class="text-outer-tspan" x="0" y="-0.1em" dy="1.1em"><tspan font-style="normal" class="text-inner-tspan" font-weight="normal">nhận</tspan></tspan></text></g></g></g></g><g class="nodes"><g class="node default" id="entity-USERS-0" transform="translate(363.8515625, 99.5)"><g style=""><path d="M-68.96875 -91.5 L68.96875 -91.5 L68.96875 91.5 L-68.96875 91.5" stroke="none" stroke-width="0" fill="#f8fafc"/><path d="M-68.96875 -91.5 C-29.268916369796322 -91.5, 10.430917260407355 -91.5, 68.96875 -91.5 M-68.96875 -91.5 C-23.012851308526976 -91.5, 22.943047382946048 -91.5, 68.96875 -91.5 M68.96875 -91.5 C68.96875 -31.04174898701548, 68.96875 29.416502025969038, 68.96875 91.5 M68.96875 -91.5 C68.96875 -22.966408948844474, 68.96875 45.56718210231105, 68.96875 91.5 M68.96875 91.5 C25.802344272129112 91.5, -17.364061455741776 91.5, -68.96875 91.5 M68.96875 91.5 C39.09599632918311 91.5, 9.22324265836621 91.5, -68.96875 91.5 M-68.96875 91.5 C-68.96875 42.39385703130863, -68.96875 -6.712285937382745, -68.96875 -91.5 M-68.96875 91.5 C-68.96875 44.79848823098541, -68.96875 -1.9030235380291742, -68.96875 -91.5" stroke="#1f2937" stroke-width="1.3" fill="none" stroke-dasharray="0 0"/></g><g style="" class="row-rect-odd"><path d="M-68.96875 -45.75 L68.96875 -45.75 L68.96875 0 L-68.96875 0" stroke="none" stroke-width="0" fill="hsl(210, 40%, 100%)"/><path d="M-68.96875 -45.75 C-29.167138996945127 -45.75, 10.634472006109746 -45.75, 68.96875 -45.75 M-68.96875 -45.75 C-29.3482272807231 -45.75, 10.272295438553797 -45.75, 68.96875 -45.75 M68.96875 -45.75 C68.96875 -31.66196593158461, 68.96875 -17.573931863169225, 68.96875 0 M68.96875 -45.75 C68.96875 -36.45737553562623, 68.96875 -27.16475107125245, 68.96875 0 M68.96875 0 C29.385876701916274 0, -10.196996596167452 0, -68.96875 0 M68.96875 0 C33.50570085775657 0, -1.957348284486855 0, -68.96875 0 M-68.96875 0 C-68.96875 -16.131485206867993, -68.96875 -32.262970413735985, -68.96875 -45.75 M-68.96875 0 C-68.96875 -12.807158905952267, -68.96875 -25.614317811904534, -68.96875 -45.75" stroke="#1f2937" stroke-width="1.3" fill="none" stroke-dasharray="0 0"/></g><g style="" class="row-rect-even"><path d="M-68.96875 0 L68.96875 0 L68.96875 45.75 L-68.96875 45.75" stroke="none" stroke-width="0" fill="hsl(210, 40%, 100%)"/><path d="M-68.96875 0 C-37.262202606561466 0, -5.555655213122932 0, 68.96875 0 M-68.96875 0 C-17.411163065144123 0, 34.146423869711754 0, 68.96875 0 M68.96875 0 C68.96875 17.04389804518662, 68.96875 34.08779609037324, 68.96875 45.75 M68.96875 0 C68.96875 9.358109863263758, 68.96875 18.716219726527516, 68.96875 45.75 M68.96875 45.75 C31.041005097616583 45.75, -6.886739804766833 45.75, -68.96875 45.75 M68.96875 45.75 C17.14058053385012 45.75, -34.68758893229976 45.75, -68.96875 45.75 M-68.96875 45.75 C-68.96875 28.033615017636915, -68.96875 10.31723003527383, -68.96875 0 M-68.96875 45.75 C-68.96875 30.847758467096583, -68.96875 15.945516934193162, -68.96875 0" stroke="#1f2937" stroke-width="1.3" fill="none" stroke-dasharray="0 0"/></g><g style="" class="row-rect-odd"><path d="M-68.96875 45.75 L68.96875 45.75 L68.96875 91.5 L-68.96875 91.5" stroke="none" stroke-width="0" fill="hsl(210, 40%, 100%)"/><path d="M-68.96875 45.75 C-26.578746807192807 45.75, 15.811256385614385 45.75, 68.96875 45.75 M-68.96875 45.75 C-14.270505844686205 45.75, 40.42773831062759 45.75, 68.96875 45.75 M68.96875 45.75 C68.96875 56.55934497891645, 68.96875 67.3686899578329, 68.96875 91.5 M68.96875 45.75 C68.96875 58.932171030933276, 68.96875 72.11434206186655, 68.96875 91.5 M68.96875 91.5 C39.55543547701337 91.5, 10.142120954026737 91.5, -68.96875 91.5 M68.96875 91.5 C14.969593432743096 91.5, -39.02956313451381 91.5, -68.96875 91.5 M-68.96875 91.5 C-68.96875 73.9723847343638, -68.96875 56.4447694687276, -68.96875 45.75 M-68.96875 91.5 C-68.96875 80.83744676866178, -68.96875 70.17489353732354, -68.96875 45.75" stroke="#1f2937" stroke-width="1.3" fill="none" stroke-dasharray="0 0"/></g><g class="label name" transform="translate(-25.6875, -82.125)" style=""><foreignObject width="51.375" height="27"><div xmlns="http://www.w3.org/1999/xhtml" style="display: table-cell; white-space: nowrap; line-height: 1.5; max-width: 146px; text-align: start;"><span class="nodeLabel"><p>USERS</p></span></div></foreignObject></g><g class="label attribute-type" transform="translate(-56.46875, -36.375)" style=""><foreignObject width="35.34375" height="27"><div xmlns="http://www.w3.org/1999/xhtml" style="display: table-cell; white-space: nowrap; line-height: 1.5; max-width: 131px; text-align: start;"><span class="nodeLabel"><p>uuid</p></span></div></foreignObject></g><g class="label attribute-name" transform="translate(13.671875, -36.375)" style=""><foreignObject width="14.96875" height="27"><div xmlns="http://www.w3.org/1999/xhtml" style="display: table-cell; white-space: nowrap; line-height: 1.5; max-width: 113px; text-align: start;"><span class="nodeLabel"><p>id</p></span></div></foreignObject></g><g class="label attribute-keys" transform="translate(81.46875, -36.375)" style=""><foreignObject width="0" height="0"><div xmlns="http://www.w3.org/1999/xhtml" style="display: table-cell; white-space: nowrap; line-height: 1.5; max-width: 100px; text-align: start;"><span class="nodeLabel"></span></div></foreignObject></g><g class="label attribute-comment" transform="translate(81.46875, -36.375)" style=""><foreignObject width="0" height="0"><div xmlns="http://www.w3.org/1999/xhtml" style="display: table-cell; white-space: nowrap; line-height: 1.5; max-width: 100px; text-align: start;"><span class="nodeLabel"></span></div></foreignObject></g><g class="label attribute-type" transform="translate(-56.46875, 9.375)" style=""><foreignObject width="45.140625" height="27"><div xmlns="http://www.w3.org/1999/xhtml" style="display: table-cell; white-space: nowrap; line-height: 1.5; max-width: 140px; text-align: start;"><span class="nodeLabel"><p>string</p></span></div></foreignObject></g><g class="label attribute-name" transform="translate(13.671875, 9.375)" style=""><foreignObject width="42.796875" height="27"><div xmlns="http://www.w3.org/1999/xhtml" style="display: table-cell; white-space: nowrap; line-height: 1.5; max-width: 138px; text-align: start;"><span class="nodeLabel"><p>email</p></span></div></foreignObject></g><g class="label attribute-keys" transform="translate(81.46875, 9.375)" style=""><foreignObject width="0" height="0"><div xmlns="http://www.w3.org/1999/xhtml" style="display: table-cell; white-space: nowrap; line-height: 1.5; max-width: 100px; text-align: start;"><span class="nodeLabel"></span></div></foreignObject></g><g class="label attribute-comment" transform="translate(81.46875, 9.375)" style=""><foreignObject width="0" height="0"><div xmlns="http://www.w3.org/1999/xhtml" style="display: table-cell; white-space: nowrap; line-height: 1.5; max-width: 100px; text-align: start;"><span class="nodeLabel"></span></div></foreignObject></g><g class="label attribute-type" transform="translate(-56.46875, 55.125)" style=""><foreignObject width="45.140625" height="27"><div xmlns="http://www.w3.org/1999/xhtml" style="display: table-cell; white-space: nowrap; line-height: 1.5; max-width: 140px; text-align: start;"><span class="nodeLabel"><p>string</p></span></div></foreignObject></g><g class="label attribute-name" transform="translate(13.671875, 55.125)" style=""><foreignObject width="30.578125" height="27"><div xmlns="http://www.w3.org/1999/xhtml" style="display: table-cell; white-space: nowrap; line-height: 1.5; max-width: 127px; text-align: start;"><span class="nodeLabel"><p>role</p></span></div></foreignObject></g><g class="label attribute-keys" transform="translate(81.46875, 55.125)" style=""><foreignObject width="0" height="0"><div xmlns="http://www.w3.org/1999/xhtml" style="display: table-cell; white-space: nowrap; line-height: 1.5; max-width: 100px; text-align: start;"><span class="nodeLabel"></span></div></foreignObject></g><g class="label attribute-comment" transform="translate(81.46875, 55.125)" style=""><foreignObject width="0" height="0"><div xmlns="http://www.w3.org/1999/xhtml" style="display: table-cell; white-space: nowrap; line-height: 1.5; max-width: 100px; text-align: start;"><span class="nodeLabel"></span></div></foreignObject></g><g class="divider"><path d="M-68.96875 -45.75 C-35.133297485447414 -45.75, -1.297844970894829 -45.75, 68.96875 -45.75 M-68.96875 -45.75 C-16.494022457147445 -45.75, 35.98070508570511 -45.75, 68.96875 -45.75" stroke="#1f2937" stroke-width="1.3" fill="none" stroke-dasharray="0 0"/></g><g class="divider"><path d="M1.171875 -45.75 C1.171875 -9.76057971479559, 1.171875 26.22884057040882, 1.171875 91.5 M1.171875 -45.75 C1.171875 -8.305679341083767, 1.171875 29.138641317832466, 1.171875 91.5" stroke="#1f2937" stroke-width="1.3" fill="none" stroke-dasharray="0 0"/></g><g class="divider"><path d="M-68.96875 -45.75 C-32.796957428004006 -45.75, 3.3748351439919873 -45.75, 68.96875 -45.75 M-68.96875 -45.75 C-18.58557471194848 -45.75, 31.797600576103036 -45.75, 68.96875 -45.75" stroke="#1f2937" stroke-width="1.3" fill="none" stroke-dasharray="0 0"/></g></g><g class="node default" id="entity-VEHICLES-1" transform="translate(363.8515625, 390.5)"><g style=""><path d="M-97.9609375 -91.5 L97.9609375 -91.5 L97.9609375 91.5 L-97.9609375 91.5" stroke="none" stroke-width="0" fill="#f8fafc"/><path d="M-97.9609375 -91.5 C-26.334085770653473 -91.5, 45.29276595869305 -91.5, 97.9609375 -91.5 M-97.9609375 -91.5 C-53.413340919219955 -91.5, -8.86574433843991 -91.5, 97.9609375 -91.5 M97.9609375 -91.5 C97.9609375 -27.043662704276244, 97.9609375 37.41267459144751, 97.9609375 91.5 M97.9609375 -91.5 C97.9609375 -48.70998710328848, 97.9609375 -5.919974206576967, 97.9609375 91.5 M97.9609375 91.5 C23.518413613975355 91.5, -50.92411027204929 91.5, -97.9609375 91.5 M97.9609375 91.5 C32.31507930151881 91.5, -33.330778896962386 91.5, -97.9609375 91.5 M-97.9609375 91.5 C-97.9609375 26.820168180995168, -97.9609375 -37.859663638009664, -97.9609375 -91.5 M-97.9609375 91.5 C-97.9609375 41.78959952147421, -97.9609375 -7.920800957051583, -97.9609375 -91.5" stroke="#1f2937" stroke-width="1.3" fill="none" stroke-dasharray="0 0"/></g><g style="" class="row-rect-odd"><path d="M-97.9609375 -45.75 L97.9609375 -45.75 L97.9609375 0 L-97.9609375 0" stroke="none" stroke-width="0" fill="hsl(210, 40%, 100%)"/><path d="M-97.9609375 -45.75 C-38.225656774837425 -45.75, 21.50962395032515 -45.75, 97.9609375 -45.75 M-97.9609375 -45.75 C-25.102635734449137 -45.75, 47.755666031101725 -45.75, 97.9609375 -45.75 M97.9609375 -45.75 C97.9609375 -32.56971918703489, 97.9609375 -19.38943837406979, 97.9609375 0 M97.9609375 -45.75 C97.9609375 -31.271180940662347, 97.9609375 -16.792361881324698, 97.9609375 0 M97.9609375 0 C42.07601159582025 0, -13.808914308359505 0, -97.9609375 0 M97.9609375 0 C44.315557982115116 0, -9.329821535769767 0, -97.9609375 0 M-97.9609375 0 C-97.9609375 -10.620187015916581, -97.9609375 -21.240374031833163, -97.9609375 -45.75 M-97.9609375 0 C-97.9609375 -15.876092342563132, -97.9609375 -31.752184685126263, -97.9609375 -45.75" stroke="#1f2937" stroke-width="1.3" fill="none" stroke-dasharray="0 0"/></g><g style="" class="row-rect-even"><path d="M-97.9609375 0 L97.9609375 0 L97.9609375 45.75 L-97.9609375 45.75" stroke="none" stroke-width="0" fill="hsl(210, 40%, 100%)"/><path d="M-97.9609375 0 C-42.74971716661779 0, 12.461503166764416 0, 97.9609375 0 M-97.9609375 0 C-40.630253955324434 0, 16.70042958935113 0, 97.9609375 0 M97.9609375 0 C97.9609375 13.636466354892814, 97.9609375 27.27293270978563, 97.9609375 45.75 M97.9609375 0 C97.9609375 17.546375925522824, 97.9609375 35.09275185104565, 97.9609375 45.75 M97.9609375 45.75 C51.2419603554676 45.75, 4.522983210935195 45.75, -97.9609375 45.75 M97.9609375 45.75 C35.475886448257164 45.75, -27.009164603485672 45.75, -97.9609375 45.75 M-97.9609375 45.75 C-97.9609375 29.31556696905439, -97.9609375 12.881133938108782, -97.9609375 0 M-97.9609375 45.75 C-97.9609375 36.12381385182617, -97.9609375 26.497627703652345, -97.9609375 0" stroke="#1f2937" stroke-width="1.3" fill="none" stroke-dasharray="0 0"/></g><g style="" class="row-rect-odd"><path d="M-97.9609375 45.75 L97.9609375 45.75 L97.9609375 91.5 L-97.9609375 91.5" stroke="none" stroke-width="0" fill="hsl(210, 40%, 100%)"/><path d="M-97.9609375 45.75 C-47.30835585516264 45.75, 3.3442257896747236 45.75, 97.9609375 45.75 M-97.9609375 45.75 C-20.34443863143258 45.75, 57.27206023713484 45.75, 97.9609375 45.75 M97.9609375 45.75 C97.9609375 61.19006602614088, 97.9609375 76.63013205228177, 97.9609375 91.5 M97.9609375 45.75 C97.9609375 62.906671726854654, 97.9609375 80.06334345370931, 97.9609375 91.5 M97.9609375 91.5 C40.08552479386812 91.5, -17.789887912263765 91.5, -97.9609375 91.5 M97.9609375 91.5 C42.773393634305066 91.5, -12.414150231389868 91.5, -97.9609375 91.5 M-97.9609375 91.5 C-97.9609375 74.80050328307352, -97.9609375 58.10100656614704, -97.9609375 45.75 M-97.9609375 91.5 C-97.9609375 75.59700862874027, -97.9609375 59.69401725748055, -97.9609375 45.75" stroke="#1f2937" stroke-width="1.3" fill="none" stroke-dasharray="0 0"/></g><g class="label name" transform="translate(-38.0703125, -82.125)" style=""><foreignObject width="76.140625" height="27"><div xmlns="http://www.w3.org/1999/xhtml" style="display: table-cell; white-space: nowrap; line-height: 1.5; max-width: 169px; text-align: start;"><span class="nodeLabel"><p>VEHICLES</p></span></div></foreignObject></g><g class="label attribute-type" transform="translate(-85.4609375, -36.375)" style=""><foreignObject width="35.34375" height="27"><div xmlns="http://www.w3.org/1999/xhtml" style="display: table-cell; white-space: nowrap; line-height: 1.5; max-width: 131px; text-align: start;"><span class="nodeLabel"><p>uuid</p></span></div></foreignObject></g><g class="label attribute-name" transform="translate(-15.3203125, -36.375)" style=""><foreignObject width="14.96875" height="27"><div xmlns="http://www.w3.org/1999/xhtml" style="display: table-cell; white-space: nowrap; line-height: 1.5; max-width: 113px; text-align: start;"><span class="nodeLabel"><p>id</p></span></div></foreignObject></g><g class="label attribute-keys" transform="translate(110.4609375, -36.375)" style=""><foreignObject width="0" height="0"><div xmlns="http://www.w3.org/1999/xhtml" style="display: table-cell; white-space: nowrap; line-height: 1.5; max-width: 100px; text-align: start;"><span class="nodeLabel"></span></div></foreignObject></g><g class="label attribute-comment" transform="translate(110.4609375, -36.375)" style=""><foreignObject width="0" height="0"><div xmlns="http://www.w3.org/1999/xhtml" style="display: table-cell; white-space: nowrap; line-height: 1.5; max-width: 100px; text-align: start;"><span class="nodeLabel"></span></div></foreignObject></g><g class="label attribute-type" transform="translate(-85.4609375, 9.375)" style=""><foreignObject width="45.140625" height="27"><div xmlns="http://www.w3.org/1999/xhtml" style="display: table-cell; white-space: nowrap; line-height: 1.5; max-width: 140px; text-align: start;"><span class="nodeLabel"><p>string</p></span></div></foreignObject></g><g class="label attribute-name" transform="translate(-15.3203125, 9.375)" style=""><foreignObject width="100.78125" height="27"><div xmlns="http://www.w3.org/1999/xhtml" style="display: table-cell; white-space: nowrap; line-height: 1.5; max-width: 190px; text-align: start;"><span class="nodeLabel"><p>license_plate</p></span></div></foreignObject></g><g class="label attribute-keys" transform="translate(110.4609375, 9.375)" style=""><foreignObject width="0" height="0"><div xmlns="http://www.w3.org/1999/xhtml" style="display: table-cell; white-space: nowrap; line-height: 1.5; max-width: 100px; text-align: start;"><span class="nodeLabel"></span></div></foreignObject></g><g class="label attribute-comment" transform="translate(110.4609375, 9.375)" style=""><foreignObject width="0" height="0"><div xmlns="http://www.w3.org/1999/xhtml" style="display: table-cell; white-space: nowrap; line-height: 1.5; max-width: 100px; text-align: start;"><span class="nodeLabel"></span></div></foreignObject></g><g class="label attribute-type" transform="translate(-85.4609375, 55.125)" style=""><foreignObject width="45.140625" height="27"><div xmlns="http://www.w3.org/1999/xhtml" style="display: table-cell; white-space: nowrap; line-height: 1.5; max-width: 140px; text-align: start;"><span class="nodeLabel"><p>string</p></span></div></foreignObject></g><g class="label attribute-name" transform="translate(-15.3203125, 55.125)" style=""><foreignObject width="46.828125" height="27"><div xmlns="http://www.w3.org/1999/xhtml" style="display: table-cell; white-space: nowrap; line-height: 1.5; max-width: 142px; text-align: start;"><span class="nodeLabel"><p>status</p></span></div></foreignObject></g><g class="label attribute-keys" transform="translate(110.4609375, 55.125)" style=""><foreignObject width="0" height="0"><div xmlns="http://www.w3.org/1999/xhtml" style="display: table-cell; white-space: nowrap; line-height: 1.5; max-width: 100px; text-align: start;"><span class="nodeLabel"></span></div></foreignObject></g><g class="label attribute-comment" transform="translate(110.4609375, 55.125)" style=""><foreignObject width="0" height="0"><div xmlns="http://www.w3.org/1999/xhtml" style="display: table-cell; white-space: nowrap; line-height: 1.5; max-width: 100px; text-align: start;"><span class="nodeLabel"></span></div></foreignObject></g><g class="divider"><path d="M-97.9609375 -45.75 C-23.09369483965625 -45.75, 51.7735478206875 -45.75, 97.9609375 -45.75 M-97.9609375 -45.75 C-56.317083410447815 -45.75, -14.67322932089563 -45.75, 97.9609375 -45.75" stroke="#1f2937" stroke-width="1.3" fill="none" stroke-dasharray="0 0"/></g><g class="divider"><path d="M-27.8203125 -45.75 C-27.8203125 -14.304209312838868, -27.8203125 17.141581374322264, -27.8203125 91.5 M-27.8203125 -45.75 C-27.8203125 -0.9760397517977921, -27.8203125 43.797920496404416, -27.8203125 91.5" stroke="#1f2937" stroke-width="1.3" fill="none" stroke-dasharray="0 0"/></g><g class="divider"><path d="M-97.9609375 -45.75 C-57.339994137929004 -45.75, -16.71905077585801 -45.75, 97.9609375 -45.75 M-97.9609375 -45.75 C-26.852091943273066 -45.75, 44.25675361345387 -45.75, 97.9609375 -45.75" stroke="#1f2937" stroke-width="1.3" fill="none" stroke-dasharray="0 0"/></g></g><g class="node default" id="entity-DEVICES-2" transform="translate(79.9140625, 681.5)"><g style=""><path d="M-68.1640625 -91.5 L68.1640625 -91.5 L68.1640625 91.5 L-68.1640625 91.5" stroke="none" stroke-width="0" fill="#f8fafc"/><path d="M-68.1640625 -91.5 C-18.480388673576442 -91.5, 31.203285152847116 -91.5, 68.1640625 -91.5 M-68.1640625 -91.5 C-15.971780773161235 -91.5, 36.22050095367753 -91.5, 68.1640625 -91.5 M68.1640625 -91.5 C68.1640625 -51.626333921875776, 68.1640625 -11.752667843751553, 68.1640625 91.5 M68.1640625 -91.5 C68.1640625 -34.70874756981654, 68.1640625 22.082504860366925, 68.1640625 91.5 M68.1640625 91.5 C33.12645976260366 91.5, -1.911142974792682 91.5, -68.1640625 91.5 M68.1640625 91.5 C34.61190960180922 91.5, 1.059756703618433 91.5, -68.1640625 91.5 M-68.1640625 91.5 C-68.1640625 19.716001517267685, -68.1640625 -52.06799696546463, -68.1640625 -91.5 M-68.1640625 91.5 C-68.1640625 19.138235213371118, -68.1640625 -53.223529573257764, -68.1640625 -91.5" stroke="#1f2937" stroke-width="1.3" fill="none" stroke-dasharray="0 0"/></g><g style="" class="row-rect-odd"><path d="M-68.1640625 -45.75 L68.1640625 -45.75 L68.1640625 0 L-68.1640625 0" stroke="none" stroke-width="0" fill="hsl(210, 40%, 100%)"/><path d="M-68.1640625 -45.75 C-35.73986405903965 -45.75, -3.3156656180792936 -45.75, 68.1640625 -45.75 M-68.1640625 -45.75 C-28.420244192495915 -45.75, 11.32357411500817 -45.75, 68.1640625 -45.75 M68.1640625 -45.75 C68.1640625 -28.234006706731954, 68.1640625 -10.718013413463908, 68.1640625 0 M68.1640625 -45.75 C68.1640625 -35.572470518243215, 68.1640625 -25.394941036486426, 68.1640625 0 M68.1640625 0 C34.69035450048671 0, 1.2166465009734253 0, -68.1640625 0 M68.1640625 0 C39.41258319037866 0, 10.661103880757324 0, -68.1640625 0 M-68.1640625 0 C-68.1640625 -9.383088392193471, -68.1640625 -18.766176784386943, -68.1640625 -45.75 M-68.1640625 0 C-68.1640625 -14.1306347971481, -68.1640625 -28.2612695942962, -68.1640625 -45.75" stroke="#1f2937" stroke-width="1.3" fill="none" stroke-dasharray="0 0"/></g><g style="" class="row-rect-even"><path d="M-68.1640625 0 L68.1640625 0 L68.1640625 45.75 L-68.1640625 45.75" stroke="none" stroke-width="0" fill="hsl(210, 40%, 100%)"/><path d="M-68.1640625 0 C-20.93140455710875 0, 26.301253385782502 0, 68.1640625 0 M-68.1640625 0 C-37.906028718106185 0, -7.647994936212378 0, 68.1640625 0 M68.1640625 0 C68.1640625 16.077769604736577, 68.1640625 32.155539209473154, 68.1640625 45.75 M68.1640625 0 C68.1640625 9.438625636162511, 68.1640625 18.877251272325022, 68.1640625 45.75 M68.1640625 45.75 C39.91715240272863 45.75, 11.670242305457258 45.75, -68.1640625 45.75 M68.1640625 45.75 C33.575156519576645 45.75, -1.0137494608467108 45.75, -68.1640625 45.75 M-68.1640625 45.75 C-68.1640625 33.94608142777378, -68.1640625 22.14216285554755, -68.1640625 0 M-68.1640625 45.75 C-68.1640625 29.8495695429641, -68.1640625 13.949139085928202, -68.1640625 0" stroke="#1f2937" stroke-width="1.3" fill="none" stroke-dasharray="0 0"/></g><g style="" class="row-rect-odd"><path d="M-68.1640625 45.75 L68.1640625 45.75 L68.1640625 91.5 L-68.1640625 91.5" stroke="none" stroke-width="0" fill="hsl(210, 40%, 100%)"/><path d="M-68.1640625 45.75 C-36.95300281228613 45.75, -5.741943124572266 45.75, 68.1640625 45.75 M-68.1640625 45.75 C-29.7314266478065 45.75, 8.701209204386998 45.75, 68.1640625 45.75 M68.1640625 45.75 C68.1640625 63.25650906234442, 68.1640625 80.76301812468884, 68.1640625 91.5 M68.1640625 45.75 C68.1640625 57.56255778153485, 68.1640625 69.3751155630697, 68.1640625 91.5 M68.1640625 91.5 C40.33228222485867 91.5, 12.50050194971734 91.5, -68.1640625 91.5 M68.1640625 91.5 C32.66502240575238 91.5, -2.834017688495237 91.5, -68.1640625 91.5 M-68.1640625 91.5 C-68.1640625 78.70092232613602, -68.1640625 65.90184465227205, -68.1640625 45.75 M-68.1640625 91.5 C-68.1640625 73.7248320214429, -68.1640625 55.949664042885786, -68.1640625 45.75" stroke="#1f2937" stroke-width="1.3" fill="none" stroke-dasharray="0 0"/></g><g class="label name" transform="translate(-33.7578125, -82.125)" style=""><foreignObject width="67.515625" height="27"><div xmlns="http://www.w3.org/1999/xhtml" style="display: table-cell; white-space: nowrap; line-height: 1.5; max-width: 160px; text-align: start;"><span class="nodeLabel"><p>DEVICES</p></span></div></foreignObject></g><g class="label attribute-type" transform="translate(-55.6640625, -36.375)" style=""><foreignObject width="35.34375" height="27"><div xmlns="http://www.w3.org/1999/xhtml" style="display: table-cell; white-space: nowrap; line-height: 1.5; max-width: 131px; text-align: start;"><span class="nodeLabel"><p>uuid</p></span></div></foreignObject></g><g class="label attribute-name" transform="translate(14.4765625, -36.375)" style=""><foreignObject width="14.96875" height="27"><div xmlns="http://www.w3.org/1999/xhtml" style="display: table-cell; white-space: nowrap; line-height: 1.5; max-width: 113px; text-align: start;"><span class="nodeLabel"><p>id</p></span></div></foreignObject></g><g class="label attribute-keys" transform="translate(80.6640625, -36.375)" style=""><foreignObject width="0" height="0"><div xmlns="http://www.w3.org/1999/xhtml" style="display: table-cell; white-space: nowrap; line-height: 1.5; max-width: 100px; text-align: start;"><span class="nodeLabel"></span></div></foreignObject></g><g class="label attribute-comment" transform="translate(80.6640625, -36.375)" style=""><foreignObject width="0" height="0"><div xmlns="http://www.w3.org/1999/xhtml" style="display: table-cell; white-space: nowrap; line-height: 1.5; max-width: 100px; text-align: start;"><span class="nodeLabel"></span></div></foreignObject></g><g class="label attribute-type" transform="translate(-55.6640625, 9.375)" style=""><foreignObject width="45.140625" height="27"><div xmlns="http://www.w3.org/1999/xhtml" style="display: table-cell; white-space: nowrap; line-height: 1.5; max-width: 140px; text-align: start;"><span class="nodeLabel"><p>string</p></span></div></foreignObject></g><g class="label attribute-name" transform="translate(14.4765625, 9.375)" style=""><foreignObject width="41.1875" height="27"><div xmlns="http://www.w3.org/1999/xhtml" style="display: table-cell; white-space: nowrap; line-height: 1.5; max-width: 137px; text-align: start;"><span class="nodeLabel"><p>serial</p></span></div></foreignObject></g><g class="label attribute-keys" transform="translate(80.6640625, 9.375)" style=""><foreignObject width="0" height="0"><div xmlns="http://www.w3.org/1999/xhtml" style="display: table-cell; white-space: nowrap; line-height: 1.5; max-width: 100px; text-align: start;"><span class="nodeLabel"></span></div></foreignObject></g><g class="label attribute-comment" transform="translate(80.6640625, 9.375)" style=""><foreignObject width="0" height="0"><div xmlns="http://www.w3.org/1999/xhtml" style="display: table-cell; white-space: nowrap; line-height: 1.5; max-width: 100px; text-align: start;"><span class="nodeLabel"></span></div></foreignObject></g><g class="label attribute-type" transform="translate(-55.6640625, 55.125)" style=""><foreignObject width="45.140625" height="27"><div xmlns="http://www.w3.org/1999/xhtml" style="display: table-cell; white-space: nowrap; line-height: 1.5; max-width: 140px; text-align: start;"><span class="nodeLabel"><p>string</p></span></div></foreignObject></g><g class="label attribute-name" transform="translate(14.4765625, 55.125)" style=""><foreignObject width="33.640625" height="27"><div xmlns="http://www.w3.org/1999/xhtml" style="display: table-cell; white-space: nowrap; line-height: 1.5; max-width: 130px; text-align: start;"><span class="nodeLabel"><p>imei</p></span></div></foreignObject></g><g class="label attribute-keys" transform="translate(80.6640625, 55.125)" style=""><foreignObject width="0" height="0"><div xmlns="http://www.w3.org/1999/xhtml" style="display: table-cell; white-space: nowrap; line-height: 1.5; max-width: 100px; text-align: start;"><span class="nodeLabel"></span></div></foreignObject></g><g class="label attribute-comment" transform="translate(80.6640625, 55.125)" style=""><foreignObject width="0" height="0"><div xmlns="http://www.w3.org/1999/xhtml" style="display: table-cell; white-space: nowrap; line-height: 1.5; max-width: 100px; text-align: start;"><span class="nodeLabel"></span></div></foreignObject></g><g class="divider"><path d="M-68.1640625 -45.75 C-40.26069348270055 -45.75, -12.357324465401106 -45.75, 68.1640625 -45.75 M-68.1640625 -45.75 C-27.681890767448245 -45.75, 12.80028096510351 -45.75, 68.1640625 -45.75" stroke="#1f2937" stroke-width="1.3" fill="none" stroke-dasharray="0 0"/></g><g class="divider"><path d="M1.9765625 -45.75 C1.9765625 -15.671731330023924, 1.9765625 14.406537339952152, 1.9765625 91.5 M1.9765625 -45.75 C1.9765625 7.146894143190892, 1.9765625 60.04378828638178, 1.9765625 91.5" stroke="#1f2937" stroke-width="1.3" fill="none" stroke-dasharray="0 0"/></g><g class="divider"><path d="M-68.1640625 -45.75 C-39.36739604960987 -45.75, -10.570729599219746 -45.75, 68.1640625 -45.75 M-68.1640625 -45.75 C-36.81378234285225 -45.75, -5.463502185704506 -45.75, 68.1640625 -45.75" stroke="#1f2937" stroke-width="1.3" fill="none" stroke-dasharray="0 0"/></g></g><g class="node default" id="entity-TRIPS-3" transform="translate(363.8515625, 681.5)"><rect class="basic label-container" style="" x="-50" y="-43.5" width="100" height="87"/><g class="label" style="" transform="translate(-22.3203125, -13.5)"><rect/><foreignObject width="44.640625" height="27"><div xmlns="http://www.w3.org/1999/xhtml" style="display: table-cell; white-space: nowrap; line-height: 1.5; max-width: 100px; text-align: center;"><span class="nodeLabel"><p>TRIPS</p></span></div></foreignObject></g></g><g class="node default" id="entity-TRIP_EVENTS-4" transform="translate(363.8515625, 924.5)"><rect class="basic label-container" style="" x="-72.0234375" y="-43.5" width="144.046875" height="87"/><g class="label" style="" transform="translate(-52.0234375, -13.5)"><rect/><foreignObject width="104.046875" height="27"><div xmlns="http://www.w3.org/1999/xhtml" style="display: table-cell; white-space: nowrap; line-height: 1.5; max-width: 260px; text-align: center;"><span class="nodeLabel"><p>TRIP_EVENTS</p></span></div></foreignObject></g></g><g class="node default" id="entity-ALERTS-5" transform="translate(603.8515625, 681.5)"><rect class="basic label-container" style="" x="-50" y="-43.5" width="100" height="87"/><g class="label" style="" transform="translate(-28.8984375, -13.5)"><rect/><foreignObject width="57.796875" height="27"><div xmlns="http://www.w3.org/1999/xhtml" style="display: table-cell; white-space: nowrap; line-height: 1.5; max-width: 100px; text-align: center;"><span class="nodeLabel"><p>ALERTS</p></span></div></foreignObject></g></g><g class="node default" id="entity-COMMANDS-6" transform="translate(79.9140625, 924.5)"><rect class="basic label-container" style="" x="-71.9140625" y="-43.5" width="143.828125" height="87"/><g class="label" style="" transform="translate(-51.9140625, -13.5)"><rect/><foreignObject width="103.828125" height="27"><div xmlns="http://www.w3.org/1999/xhtml" style="display: table-cell; white-space: nowrap; line-height: 1.5; max-width: 260px; text-align: center;"><span class="nodeLabel"><p>COMMANDS</p></span></div></foreignObject></g></g></g></g></g></svg>