G04*
G04 #@! TF.GenerationSoftware,Altium Limited,Altium Designer Agile,26.0.0 (14)*
G04*
G04 Layer_Color=65535*
%FSLAX44Y44*%
%MOMM*%
G71*
G04*
G04 #@! TF.SameCoordinates,AA4D6D32-D7F5-4280-AC7C-52558C787E6E*
G04*
G04*
G04 #@! TF.FilePolarity,Positive*
G04*
G01*
G75*
%ADD10C,0.1270*%
%ADD11C,0.0000*%
%ADD12C,0.2000*%
%ADD13C,0.2540*%
%ADD14C,0.2500*%
%ADD15C,0.0500*%
%ADD16C,0.6350*%
%ADD17C,0.1524*%
%ADD18C,0.2032*%
%ADD19C,0.1500*%
%ADD20C,0.3810*%
%ADD21C,0.1016*%
%ADD22C,0.3048*%
%ADD23C,0.3000*%
%ADD24R,4.5000X0.8000*%
%ADD25R,0.6350X0.5080*%
%ADD26R,0.6350X0.4826*%
%ADD27R,0.0400X1.2190*%
%ADD28R,0.7620X0.8128*%
%ADD29R,0.7620X0.7874*%
%ADD30R,0.5080X0.6350*%
%ADD31R,0.4826X0.6350*%
G36*
X527558Y78232D02*
X509270D01*
Y75946D01*
X527558D01*
Y78232D01*
D02*
G37*
G36*
X766001Y192327D02*
Y175817D01*
X763715D01*
Y192327D01*
Y210615D01*
X766001D01*
Y192327D01*
D02*
G37*
G36*
X538924Y355649D02*
X520636D01*
Y353363D01*
X538924D01*
Y355649D01*
D02*
G37*
G36*
Y412799D02*
X520636D01*
Y410513D01*
X538924D01*
Y412799D01*
D02*
G37*
G36*
X522199Y784767D02*
Y766479D01*
X524485D01*
Y784767D01*
X522199D01*
D02*
G37*
D10*
X360957Y938787D02*
G03*
X363456Y941286I0J2499D01*
G01*
X359755Y951787D02*
G03*
X359755Y951787I-9299J0D01*
G01*
X337457Y941286D02*
G03*
X339956Y938787I2499J0D01*
G01*
X363456Y962287D02*
G03*
X360957Y964787I-2499J0D01*
G01*
X339956D02*
G03*
X337457Y962287I0J-2499D01*
G01*
X353042Y951787D02*
G03*
X353042Y951787I-2586J0D01*
G01*
X184635Y694484D02*
G03*
X184635Y694484I-2586J0D01*
G01*
X171549Y707484D02*
G03*
X169049Y704985I0J-2499D01*
G01*
X195049D02*
G03*
X192549Y707484I-2499J0D01*
G01*
X169049Y683984D02*
G03*
X171549Y681485I2499J0D01*
G01*
X191348Y694484D02*
G03*
X191348Y694484I-9299J0D01*
G01*
X192549Y681485D02*
G03*
X195049Y683984I0J2499D01*
G01*
X543542Y293927D02*
G03*
X543542Y293927I-2586J0D01*
G01*
X553956Y304427D02*
G03*
X551457Y306926I-2499J0D01*
G01*
Y280927D02*
G03*
X553956Y283426I0J2499D01*
G01*
X530456Y306926D02*
G03*
X527957Y304427I0J-2499D01*
G01*
X550255Y293927D02*
G03*
X550255Y293927I-9299J0D01*
G01*
X527957Y283426D02*
G03*
X530456Y280927I2499J0D01*
G01*
X537192Y484337D02*
G03*
X537192Y484337I-2586J0D01*
G01*
X547606Y494837D02*
G03*
X545107Y497337I-2499J0D01*
G01*
Y471337D02*
G03*
X547606Y473836I0J2499D01*
G01*
X524106Y497337D02*
G03*
X521607Y494837I0J-2499D01*
G01*
X543905Y484337D02*
G03*
X543905Y484337I-9299J0D01*
G01*
X521607Y473836D02*
G03*
X524106Y471337I2499J0D01*
G01*
X365458Y942787D02*
Y960786D01*
X363456Y941286D02*
Y962287D01*
X353456Y936288D02*
Y938787D01*
Y964787D02*
Y967286D01*
X347457Y936288D02*
Y938787D01*
Y964787D02*
Y967286D01*
X337457Y941286D02*
Y962287D01*
X335455Y942787D02*
Y960786D01*
X347457Y936288D02*
X353456D01*
X359456Y938787D02*
X360957D01*
X339956D02*
X360957D01*
X339956D02*
X341457D01*
X363456Y942787D02*
X365458D01*
X335455D02*
X337457D01*
X363456Y960786D02*
X365458D01*
X335455D02*
X337457D01*
X339956Y964787D02*
X360957D01*
X347457Y967286D02*
X353456D01*
X525477Y833977D02*
Y835977D01*
X519477D02*
X525477D01*
Y805976D02*
Y807977D01*
X518476Y805976D02*
X525477D01*
X495476Y835977D02*
X501476D01*
X495476Y833977D02*
Y835977D01*
Y805976D02*
X502477D01*
X495476D02*
Y807977D01*
X179049Y709983D02*
X185049D01*
X171549Y707484D02*
X192549D01*
X167048Y703484D02*
X169049D01*
X195049D02*
X197050D01*
X167048Y685485D02*
X169049D01*
X195049D02*
X197050D01*
X171549Y681485D02*
X173050D01*
X171549D02*
X192549D01*
X191048D02*
X192549D01*
X179049Y678985D02*
X185049D01*
X167048Y685485D02*
Y703484D01*
X169049Y683984D02*
Y704985D01*
X179049Y707484D02*
Y709983D01*
Y678985D02*
Y681485D01*
X185049Y707484D02*
Y709983D01*
Y678985D02*
Y681485D01*
X195049Y683984D02*
Y704985D01*
X197050Y685485D02*
Y703484D01*
X116636Y249337D02*
Y288137D01*
Y249337D02*
X155436D01*
X116636Y500537D02*
Y549337D01*
X155436D01*
X377837Y249337D02*
X416637D01*
Y288137D01*
X377837Y549337D02*
X416637D01*
Y510537D02*
Y549337D01*
X70376Y610443D02*
X77376D01*
Y670443D01*
X42376Y610443D02*
Y670443D01*
Y610443D02*
X49377D01*
X70376Y670443D02*
X77376D01*
X42376D02*
X49377D01*
X68856Y482367D02*
X75857D01*
X68856Y542367D02*
X75857D01*
X40856D02*
X47857D01*
X40856Y482367D02*
X47857D01*
X75857D02*
Y542367D01*
X40856Y482367D02*
Y542367D01*
X68856Y357907D02*
X75857D01*
X68856Y417907D02*
X75857D01*
X40856D02*
X47857D01*
X40856Y357907D02*
X47857D01*
X75857D02*
Y417907D01*
X40856Y357907D02*
Y417907D01*
X72120Y244660D02*
Y258260D01*
X95520Y244660D02*
Y258260D01*
X879709Y838692D02*
Y839693D01*
X862709Y838692D02*
Y839693D01*
Y868692D02*
Y869692D01*
X879709Y868692D02*
Y869692D01*
X862709D02*
X879709D01*
X862709Y838692D02*
X879709D01*
X784696Y120257D02*
Y160257D01*
X835697Y120257D02*
Y160257D01*
X556456Y290927D02*
Y296926D01*
X553956Y283426D02*
Y304427D01*
X549956Y306926D02*
Y308928D01*
Y278925D02*
Y280927D01*
X531957Y306926D02*
Y308928D01*
Y278925D02*
Y280927D01*
X527957Y302926D02*
Y304427D01*
Y283426D02*
Y304427D01*
Y283426D02*
Y284928D01*
X525457Y290927D02*
Y296926D01*
X531957Y308928D02*
X549956D01*
X530456Y306926D02*
X551457D01*
X553956Y296926D02*
X556456D01*
X525457D02*
X527957D01*
X553956Y290927D02*
X556456D01*
X525457D02*
X527957D01*
X530456Y280927D02*
X551457D01*
X531957Y278925D02*
X549956D01*
X550106Y481337D02*
Y487337D01*
X547606Y473837D02*
Y494837D01*
X543606Y497337D02*
Y499338D01*
Y469336D02*
Y471337D01*
X525607Y497337D02*
Y499338D01*
Y469336D02*
Y471337D01*
X521607Y493336D02*
Y494837D01*
Y473837D02*
Y494837D01*
Y473837D02*
Y475338D01*
X519107Y481337D02*
Y487337D01*
X525607Y499338D02*
X543606D01*
X524106Y497337D02*
X545107D01*
X547606Y487337D02*
X550106D01*
X519107D02*
X521607D01*
X547606Y481337D02*
X550106D01*
X519107D02*
X521607D01*
X524106Y471337D02*
X545107D01*
X525607Y469336D02*
X543606D01*
D11*
X493735Y830977D02*
G03*
X493735Y830977I-1258J0D01*
G01*
D12*
X95136Y494337D02*
G03*
X95136Y494337I-1000J0D01*
G01*
X91820Y272960D02*
G03*
X91820Y272960I-1000J0D01*
G01*
X896899Y844692D02*
G03*
X896899Y844692I-1000J0D01*
G01*
X786146Y95807D02*
G03*
X786146Y95807I-1000J0D01*
G01*
X158820Y996230D02*
X313620D01*
X158820Y906230D02*
Y996230D01*
X313620Y906230D02*
Y996230D01*
X158820Y906230D02*
X313620D01*
X351060Y585000D02*
X355060D01*
X351060Y570700D02*
X355060D01*
X100350Y878700D02*
X122850D01*
X100350Y789200D02*
Y878700D01*
X151850D02*
X220850D01*
X93355Y763699D02*
X100350Y789200D01*
X93350Y731700D02*
Y763700D01*
Y731700D02*
X122850D01*
X151850D02*
X222850D01*
X239850Y748200D02*
Y775700D01*
X522480Y932580D02*
X554480D01*
X522480D02*
Y982580D01*
X554480Y932580D02*
Y982580D01*
X522480D02*
X554480D01*
X481516Y982957D02*
Y997057D01*
Y942457D02*
Y958756D01*
X392117Y997057D02*
X481516D01*
X392117Y982957D02*
Y997057D01*
Y942457D02*
Y958756D01*
X357607Y900257D02*
Y904257D01*
X343306Y900257D02*
Y904257D01*
X256026Y672496D02*
Y718496D01*
Y672496D02*
X310026D01*
X256026Y718496D02*
X310026D01*
Y672496D02*
Y718496D01*
X168619Y656854D02*
X172619D01*
X168619Y671154D02*
X172619D01*
X168619Y612404D02*
X172619D01*
X168619Y626704D02*
X172619D01*
X168116Y580477D02*
X172117D01*
X168116Y566177D02*
X172117D01*
X822096Y851997D02*
Y855997D01*
X836397Y851997D02*
Y855997D01*
X816470Y530890D02*
X862470D01*
X816470Y502890D02*
X862470D01*
X816470Y529640D02*
Y530890D01*
X862470Y529640D02*
Y530890D01*
X816470Y503202D02*
Y503827D01*
X862470Y502890D02*
Y504140D01*
X816470Y502890D02*
Y503202D01*
Y503827D02*
Y504140D01*
X886956Y446369D02*
Y478369D01*
X836956D02*
X886956D01*
X836956Y446369D02*
X886956D01*
X836956D02*
Y478369D01*
X796227Y265987D02*
X877506D01*
Y266241D02*
X877617Y334567D01*
X796227Y265987D02*
Y353363D01*
X877617Y334567D02*
Y353363D01*
X796227D02*
X877617D01*
X882587Y285037D02*
Y296467D01*
X912827Y299587D02*
Y308587D01*
X882826Y299587D02*
X912827D01*
X882826Y308587D02*
X912827D01*
X882826Y299587D02*
Y308587D01*
X877366Y223127D02*
X923367D01*
Y227877D01*
X877366Y223127D02*
Y227877D01*
Y263127D02*
X923367D01*
Y258377D02*
Y263127D01*
X877366Y258377D02*
Y263127D01*
X697090Y44770D02*
Y49520D01*
Y44770D02*
X743090D01*
X697090Y80020D02*
Y84770D01*
X743090D01*
Y44770D02*
Y49520D01*
Y80020D02*
Y84770D01*
X628510Y150180D02*
X674510D01*
X628510Y190180D02*
X674510D01*
Y150180D02*
Y154930D01*
X628510Y150180D02*
Y154930D01*
X674510Y185430D02*
Y190180D01*
X628510Y185430D02*
Y190180D01*
X644700Y128660D02*
X650700D01*
X644700Y145660D02*
X650700D01*
X621970Y56860D02*
Y71360D01*
Y56860D02*
X675970D01*
X621970Y101360D02*
Y115860D01*
X675970D01*
Y56860D02*
Y71360D01*
Y101360D02*
Y115860D01*
X379700Y177660D02*
X380950D01*
X380012Y223660D02*
X380637D01*
X380950D01*
X379700Y177660D02*
Y223660D01*
X380012D01*
X406450Y177660D02*
X407700D01*
Y223660D01*
X406450D02*
X407700D01*
X352000Y-67540D02*
Y62460D01*
Y-67540D02*
X410000D01*
X352000Y62460D02*
X364500D01*
X410000Y-67540D02*
Y62460D01*
X397500D02*
X410000D01*
X493604Y273747D02*
X493917D01*
X492667D02*
X492979D01*
X492667Y227747D02*
X493917D01*
X492979Y273747D02*
X493604D01*
X519416Y227747D02*
X520667D01*
X519416Y273747D02*
X520667D01*
X492667Y227747D02*
Y273747D01*
X520667Y227747D02*
Y273747D01*
X288307Y834867D02*
X294056D01*
X288307Y829117D02*
Y834867D01*
X356057D02*
X361807D01*
Y829117D02*
Y834867D01*
X288307Y761367D02*
X294056D01*
X288307D02*
Y767117D01*
X361807Y761367D02*
Y767117D01*
X356057Y761367D02*
X361807D01*
D13*
X239200Y42010D02*
G03*
X143200Y42010I-48000J-87697D01*
G01*
X581306Y993197D02*
X581806Y993697D01*
X581306Y217197D02*
Y993197D01*
Y217197D02*
X581806Y216696D01*
X558800Y932180D02*
X572770D01*
X127200Y42009D02*
Y199009D01*
X127201Y42010D02*
X143200D01*
X127200Y199009D02*
X238200D01*
X239200Y42010D02*
X279200D01*
X238200Y199009D02*
Y214010D01*
X279200Y42010D02*
Y214010D01*
X238200D02*
X279200D01*
X764156Y96327D02*
X776656Y108827D01*
X754156Y96327D02*
X764156D01*
X754156Y161327D02*
X776656D01*
X711657Y108827D02*
X724156Y96327D01*
X734156D01*
X776656Y108827D02*
Y161327D01*
X711657Y108827D02*
Y161327D01*
X734156D01*
X425970Y62750D02*
X448470D01*
X425970D02*
Y115250D01*
X438470Y127750D01*
X448470D01*
X468470Y62750D02*
X490970D01*
X478470Y127750D02*
X490970Y115250D01*
Y62750D02*
Y115250D01*
X468470Y127750D02*
X478470D01*
D14*
X361557Y841367D02*
G03*
X361557Y841367I-1250J0D01*
G01*
X788707Y216696D02*
Y993697D01*
X581806D02*
X788707D01*
X581806Y216696D02*
X788707D01*
D15*
X457136Y883693D02*
Y911125D01*
Y883693D02*
X469837D01*
X457136Y911125D02*
X469837D01*
Y883693D02*
Y911125D01*
X455867Y883693D02*
Y911125D01*
X443167D02*
X455867D01*
X443167Y883693D02*
X455867D01*
X443167D02*
Y911125D01*
X441897Y884201D02*
Y911633D01*
X429197D02*
X441897D01*
X429197Y884201D02*
X441897D01*
X429197D02*
Y911633D01*
X415227Y883693D02*
Y911125D01*
Y883693D02*
X427926D01*
X415227Y911125D02*
X427926D01*
Y883693D02*
Y911125D01*
X131064Y892810D02*
X158496D01*
X131064D02*
Y905510D01*
X158496Y892810D02*
Y905510D01*
X131064D02*
X158496D01*
X131064D02*
X158496D01*
X131064D02*
Y918210D01*
X158496Y905510D02*
Y918210D01*
X131064D02*
X158496D01*
X131064Y916940D02*
X158496D01*
X131064D02*
Y929640D01*
X158496Y916940D02*
Y929640D01*
X131064D02*
X158496D01*
X131064Y928370D02*
X158496D01*
X131064D02*
Y941070D01*
X158496Y928370D02*
Y941070D01*
X131064D02*
X158496D01*
X131064Y939800D02*
X158496D01*
X131064D02*
Y952500D01*
X158496Y939800D02*
Y952500D01*
X131064D02*
X158496D01*
X131064Y951230D02*
X158496D01*
X131064D02*
Y963930D01*
X158496Y951230D02*
Y963930D01*
X131064D02*
X158496D01*
X131064D02*
X158496D01*
X131064D02*
Y976630D01*
X158496Y963930D02*
Y976630D01*
X131064D02*
X158496D01*
X263144Y900430D02*
X290576D01*
X263144Y887730D02*
Y900430D01*
X290576Y887730D02*
Y900430D01*
X263144Y887730D02*
X290576D01*
X487680Y809244D02*
Y836676D01*
X474980D02*
X487680D01*
X474980Y809244D02*
X487680D01*
X474980D02*
Y836676D01*
X462280Y809244D02*
Y836676D01*
Y809244D02*
X474980D01*
X462280Y836676D02*
X474980D01*
Y809244D02*
Y836676D01*
X540875Y781719D02*
X568307D01*
X540875Y769019D02*
Y781719D01*
X568307Y769019D02*
Y781719D01*
X540875Y769019D02*
X568307D01*
X540498Y718265D02*
Y745697D01*
Y718265D02*
X553198D01*
X540498Y745697D02*
X553198D01*
Y718265D02*
Y745697D01*
X525780Y719074D02*
Y746506D01*
Y719074D02*
X538480D01*
X525780Y746506D02*
X538480D01*
Y719074D02*
Y746506D01*
X463550Y719074D02*
Y746506D01*
Y719074D02*
X476250D01*
X463550Y746506D02*
X476250D01*
Y719074D02*
Y746506D01*
X462280Y719074D02*
Y746506D01*
X449580D02*
X462280D01*
X449580Y719074D02*
X462280D01*
X449580D02*
Y746506D01*
X558800Y625094D02*
Y652526D01*
Y625094D02*
X571500D01*
X558800Y652526D02*
X571500D01*
Y625094D02*
Y652526D01*
X497840Y625094D02*
Y652526D01*
Y625094D02*
X510540D01*
X497840Y652526D02*
X510540D01*
Y625094D02*
Y652526D01*
X492760Y639064D02*
Y666496D01*
X480060D02*
X492760D01*
X480060Y639064D02*
X492760D01*
X480060D02*
Y666496D01*
X419100Y655574D02*
Y683006D01*
X406400D02*
X419100D01*
X406400Y655574D02*
X419100D01*
X406400D02*
Y683006D01*
X402590Y626364D02*
Y653796D01*
Y626364D02*
X415290D01*
X402590Y653796D02*
X415290D01*
Y626364D02*
Y653796D01*
X345440Y626364D02*
Y653796D01*
Y626364D02*
X358140D01*
X345440Y653796D02*
X358140D01*
Y626364D02*
Y653796D01*
X126860Y657699D02*
X154292D01*
Y670398D01*
X126860Y657699D02*
Y670398D01*
X154292D01*
X43116Y691691D02*
Y719123D01*
Y691691D02*
X55816D01*
X43116Y719123D02*
X55816D01*
Y691691D02*
Y719123D01*
X41846Y560881D02*
Y588313D01*
Y560881D02*
X54546D01*
X41846Y588313D02*
X54546D01*
Y560881D02*
Y588313D01*
X40577Y436421D02*
Y463853D01*
Y436421D02*
X53277D01*
X40577Y463853D02*
X53277D01*
Y436421D02*
Y463853D01*
X54744Y302260D02*
X82176D01*
Y289560D02*
Y302260D01*
X54744Y289560D02*
Y302260D01*
Y289560D02*
X82176D01*
X56014Y226568D02*
X83446D01*
Y213868D02*
Y226568D01*
X56014Y213868D02*
Y226568D01*
Y213868D02*
X83446D01*
X54864Y185420D02*
X82296D01*
Y172720D02*
Y185420D01*
X54864Y172720D02*
Y185420D01*
Y172720D02*
X82296D01*
X905764Y497840D02*
X933196D01*
X905764Y485140D02*
Y497840D01*
X933196Y485140D02*
Y497840D01*
X905764Y485140D02*
X933196D01*
X905764Y473710D02*
X933196D01*
Y486410D01*
X905764Y473710D02*
Y486410D01*
X933196D01*
X905764Y462280D02*
X933196D01*
Y474980D01*
X905764Y462280D02*
Y474980D01*
X933196D01*
X928307Y309421D02*
Y336853D01*
X915607D02*
X928307D01*
X915607Y309421D02*
X928307D01*
X915607D02*
Y336853D01*
X928307Y281481D02*
Y308913D01*
X915607D02*
X928307D01*
X915607Y281481D02*
X928307D01*
X915607D02*
Y308913D01*
X863600Y181864D02*
Y209296D01*
X850900D02*
X863600D01*
X850900Y181864D02*
X863600D01*
X850900D02*
Y209296D01*
X823214Y209550D02*
X850646D01*
X823214Y196850D02*
Y209550D01*
X850646Y196850D02*
Y209550D01*
X823214Y196850D02*
X850646D01*
X713931Y194867D02*
X741363D01*
Y207567D01*
X713931Y194867D02*
Y207567D01*
X741363D01*
X713994Y177800D02*
X741426D01*
Y190500D01*
X713994Y177800D02*
Y190500D01*
X741426D01*
X785844Y88330D02*
X813276D01*
X785844Y75630D02*
Y88330D01*
X813276Y75630D02*
Y88330D01*
X785844Y75630D02*
X813276D01*
X578104Y157480D02*
X605536D01*
X578104Y144780D02*
Y157480D01*
X605536Y144780D02*
Y157480D01*
X578104Y144780D02*
X605536D01*
X533591Y146607D02*
X561022D01*
X533591Y133907D02*
Y146607D01*
X561022Y133907D02*
Y146607D01*
X533591Y133907D02*
X561022D01*
X533654Y146050D02*
X561086D01*
Y158750D01*
X533654Y146050D02*
Y158750D01*
X561086D01*
X558736Y159561D02*
Y186993D01*
X546036D02*
X558736D01*
X546036Y159561D02*
X558736D01*
X546036D02*
Y186993D01*
X534607Y159561D02*
Y186993D01*
Y159561D02*
X547307D01*
X534607Y186993D02*
X547307D01*
Y159561D02*
Y186993D01*
X516890Y132454D02*
Y159886D01*
Y132454D02*
X529590D01*
X516890Y159886D02*
X529590D01*
Y132454D02*
Y159886D01*
X534924Y74930D02*
X562356D01*
X534924Y62230D02*
Y74930D01*
X562356Y62230D02*
Y74930D01*
X534924Y62230D02*
X562356D01*
X485331Y287577D02*
X512762D01*
Y300277D01*
X485331Y287577D02*
Y300277D01*
X512762D01*
X448501Y287577D02*
X475933D01*
Y300277D01*
X448501Y287577D02*
Y300277D01*
X475933D01*
X544767Y343711D02*
Y371143D01*
Y343711D02*
X557467D01*
X544767Y371143D02*
X557467D01*
Y343711D02*
Y371143D01*
X460947Y341171D02*
Y368603D01*
Y341171D02*
X473647D01*
X460947Y368603D02*
X473647D01*
Y341171D02*
Y368603D01*
X455867Y341171D02*
Y368603D01*
X443167D02*
X455867D01*
X443167Y341171D02*
X455867D01*
X443167D02*
Y368603D01*
X543497Y400861D02*
Y428293D01*
Y400861D02*
X556197D01*
X543497Y428293D02*
X556197D01*
Y400861D02*
Y428293D01*
X463487Y399591D02*
Y427023D01*
Y399591D02*
X476186D01*
X463487Y427023D02*
X476186D01*
Y399591D02*
Y427023D01*
X457136Y399591D02*
Y427023D01*
X444436D02*
X457136D01*
X444436Y399591D02*
X457136D01*
X444436D02*
Y427023D01*
X486600Y477987D02*
X514033D01*
Y490687D01*
X486600Y477987D02*
Y490687D01*
X514033D01*
X448501Y477987D02*
X475933D01*
Y490687D01*
X448501Y477987D02*
Y490687D01*
X475933D01*
D16*
X512770Y848960D02*
X569970D01*
X512770D02*
Y923960D01*
X569970D01*
Y848960D02*
Y923960D01*
D17*
X430150Y807166D02*
Y815100D01*
X414656Y815197D02*
Y826627D01*
X404847Y815197D02*
X414656D01*
X404750Y807166D02*
Y815100D01*
X806450Y539750D02*
X930910D01*
Y571602D01*
X806450Y664210D02*
X930910D01*
X806450Y632358D02*
Y664210D01*
Y539750D02*
Y571602D01*
X930910Y632358D02*
Y664210D01*
D18*
X493149Y717986D02*
X503309D01*
X493098D02*
Y727496D01*
X516009Y717986D02*
X526118D01*
Y727496D01*
Y738306D02*
Y747816D01*
X440800Y718038D02*
X450910D01*
X417940D02*
X428100D01*
X417890D02*
Y727548D01*
X450910Y718038D02*
Y727548D01*
Y738358D02*
Y747868D01*
X524701Y657951D02*
X534810D01*
X547510D02*
X557670D01*
X557720Y648441D02*
Y657951D01*
X524701Y648441D02*
Y657951D01*
Y628121D02*
Y637631D01*
X457187Y633466D02*
X467297D01*
X434327D02*
X444487D01*
X434277D02*
Y642976D01*
X467297Y633466D02*
Y642976D01*
Y653786D02*
Y663296D01*
X369557Y659687D02*
X379666D01*
X392366D02*
X402527D01*
X402577Y650177D02*
Y659687D01*
X369557Y650177D02*
Y659687D01*
Y629857D02*
Y639367D01*
X481317Y371397D02*
X491427D01*
X504127D02*
X514286D01*
X514337Y361887D02*
Y371397D01*
X481317Y361887D02*
Y371397D01*
Y341567D02*
Y351077D01*
Y429817D02*
X491427D01*
X504127D02*
X514286D01*
X514337Y420307D02*
Y429817D01*
X481317Y420307D02*
Y429817D01*
Y399987D02*
Y409497D01*
D19*
X256357Y652317D02*
Y668827D01*
X302760Y607700D02*
X333240D01*
X302760Y605160D02*
X333240D01*
X302760Y602620D02*
X333240D01*
X330700Y631830D02*
X333240D01*
Y595000D02*
Y631830D01*
X330700Y595000D02*
X333240D01*
X302760Y631830D02*
X305300D01*
X302760Y595000D02*
Y631830D01*
Y595000D02*
X305300D01*
X270014Y607616D02*
X300494D01*
X270014Y605076D02*
X300494D01*
X270014Y602536D02*
X300494D01*
X297954Y631746D02*
X300494D01*
Y594916D02*
Y631746D01*
X297954Y594916D02*
X300494D01*
X270014Y631746D02*
X272554D01*
X270014Y594916D02*
Y631746D01*
Y594916D02*
X272554D01*
X825254Y728425D02*
Y732235D01*
Y728425D02*
X886214D01*
Y732235D01*
X825254Y757635D02*
Y761445D01*
X886214D01*
Y757635D02*
Y761445D01*
X836684Y728425D02*
Y761445D01*
X839224Y728425D02*
Y761445D01*
X841764Y728425D02*
Y761445D01*
X825000Y693490D02*
Y697300D01*
Y693490D02*
X885960D01*
Y697300D01*
X825000Y722700D02*
Y726510D01*
X885960D01*
Y722700D02*
Y726510D01*
X836430Y693490D02*
Y726510D01*
X838970Y693490D02*
Y726510D01*
X841510Y693490D02*
Y726510D01*
X803847Y420927D02*
X864807D01*
X803847Y417117D02*
Y420927D01*
X848297Y387907D02*
Y420927D01*
X864807Y417117D02*
Y420927D01*
X850836Y387907D02*
Y420927D01*
X853376Y387907D02*
Y420927D01*
X803847Y387907D02*
Y391717D01*
Y387907D02*
X864807D01*
Y391717D01*
X348506Y206384D02*
X378986D01*
X348506Y208924D02*
X378986D01*
X348506Y211464D02*
X378986D01*
X348506Y182254D02*
X351046D01*
X348506D02*
Y219084D01*
X351046D01*
X376446Y182254D02*
X378986D01*
Y219084D01*
X376446D02*
X378986D01*
X303760Y206300D02*
X334240D01*
X303760Y208840D02*
X334240D01*
X303760Y211380D02*
X334240D01*
X303760Y182170D02*
X306300D01*
X303760D02*
Y219000D01*
X306300D01*
X331700Y182170D02*
X334240D01*
Y219000D01*
X331700D02*
X334240D01*
X139502Y982502D02*
Y991499D01*
X144001D01*
X145500Y989999D01*
Y987000D01*
X144001Y985500D01*
X139502D01*
X154498Y982502D02*
X148499D01*
X154498Y988500D01*
Y989999D01*
X152998Y991499D01*
X149999D01*
X148499Y989999D01*
X313502Y581498D02*
Y572501D01*
X319501D01*
X322500Y574001D02*
X323999Y572501D01*
X326998D01*
X328498Y574001D01*
Y579999D01*
X326998Y581498D01*
X323999D01*
X322500Y579999D01*
Y578499D01*
X323999Y577000D01*
X328498D01*
X414498Y886004D02*
X405501D01*
Y890502D01*
X407001Y892002D01*
X410000D01*
X411499Y890502D01*
Y886004D01*
Y889003D02*
X414498Y892002D01*
Y900999D02*
Y895001D01*
X408501Y900999D01*
X407001D01*
X405501Y899500D01*
Y896500D01*
X407001Y895001D01*
Y903998D02*
X405501Y905498D01*
Y908497D01*
X407001Y909996D01*
X412999D01*
X414498Y908497D01*
Y905498D01*
X412999Y903998D01*
X407001D01*
X402499Y886004D02*
X393501D01*
Y890502D01*
X395001Y892002D01*
X398000D01*
X399500Y890502D01*
Y886004D01*
Y889003D02*
X402499Y892002D01*
Y900999D02*
Y895001D01*
X396500Y900999D01*
X395001D01*
X393501Y899500D01*
Y896500D01*
X395001Y895001D01*
X402499Y908497D02*
X393501D01*
X398000Y903998D01*
Y909996D01*
X390499Y886004D02*
X381501D01*
Y890502D01*
X383001Y892002D01*
X386000D01*
X387500Y890502D01*
Y886004D01*
Y889003D02*
X390499Y892002D01*
Y900999D02*
Y895001D01*
X384501Y900999D01*
X383001D01*
X381501Y899500D01*
Y896500D01*
X383001Y895001D01*
Y903998D02*
X381501Y905498D01*
Y908497D01*
X383001Y909996D01*
X384501D01*
X386000Y908497D01*
Y906997D01*
Y908497D01*
X387500Y909996D01*
X388999D01*
X390499Y908497D01*
Y905498D01*
X388999Y903998D01*
X379498Y885503D02*
X370501D01*
Y890002D01*
X372001Y891501D01*
X375000D01*
X376499Y890002D01*
Y885503D01*
Y888503D02*
X379498Y891501D01*
Y900499D02*
Y894501D01*
X373501Y900499D01*
X372001D01*
X370501Y898999D01*
Y896000D01*
X372001Y894501D01*
X379498Y903498D02*
Y906497D01*
Y904997D01*
X370501D01*
X372001Y903498D01*
X390001Y853002D02*
X388501Y851502D01*
Y848503D01*
X390001Y847004D01*
X395999D01*
X397499Y848503D01*
Y851502D01*
X395999Y853002D01*
X397499Y861999D02*
Y856001D01*
X391501Y861999D01*
X390001D01*
X388501Y860499D01*
Y857501D01*
X390001Y856001D01*
X388501Y870996D02*
Y864998D01*
X393000D01*
X391501Y867997D01*
Y869497D01*
X393000Y870996D01*
X395999D01*
X397499Y869497D01*
Y866498D01*
X395999Y864998D01*
X379001Y853502D02*
X377501Y852002D01*
Y849003D01*
X379001Y847503D01*
X384999D01*
X386498Y849003D01*
Y852002D01*
X384999Y853502D01*
X379001Y856500D02*
X377501Y858000D01*
Y860999D01*
X379001Y862499D01*
X380500D01*
X382000Y860999D01*
Y859500D01*
Y860999D01*
X383499Y862499D01*
X384999D01*
X386498Y860999D01*
Y858000D01*
X384999Y856500D01*
X386498Y865498D02*
Y868497D01*
Y866997D01*
X377501D01*
X379001Y865498D01*
X367001Y853002D02*
X365501Y851502D01*
Y848503D01*
X367001Y847004D01*
X372999D01*
X374498Y848503D01*
Y851502D01*
X372999Y853002D01*
X374498Y861999D02*
Y856001D01*
X368501Y861999D01*
X367001D01*
X365501Y860499D01*
Y857501D01*
X367001Y856001D01*
X365501Y870996D02*
X367001Y867997D01*
X370000Y864998D01*
X372999D01*
X374498Y866498D01*
Y869497D01*
X372999Y870996D01*
X371499D01*
X370000Y869497D01*
Y864998D01*
X354001Y853002D02*
X352501Y851502D01*
Y848503D01*
X354001Y847004D01*
X359999D01*
X361498Y848503D01*
Y851502D01*
X359999Y853002D01*
X361498Y861999D02*
Y856001D01*
X355500Y861999D01*
X354001D01*
X352501Y860499D01*
Y857501D01*
X354001Y856001D01*
X361498Y869497D02*
X352501D01*
X357000Y864998D01*
Y870996D01*
X327501Y930999D02*
X326002Y932498D01*
X323003D01*
X321503Y930999D01*
Y925001D01*
X323003Y923502D01*
X326002D01*
X327501Y925001D01*
X336498Y923502D02*
X330500D01*
X336498Y929500D01*
Y930999D01*
X334999Y932498D01*
X332000D01*
X330500Y930999D01*
X339498Y923502D02*
X342497D01*
X340997D01*
Y932498D01*
X339498Y930999D01*
X102004Y892502D02*
Y901499D01*
X106502D01*
X108002Y899999D01*
Y897000D01*
X106502Y895500D01*
X102004D01*
X105003D02*
X108002Y892502D01*
X111001Y899999D02*
X112500Y901499D01*
X115499D01*
X116999Y899999D01*
Y898500D01*
X115499Y897000D01*
X114000D01*
X115499D01*
X116999Y895500D01*
Y894001D01*
X115499Y892502D01*
X112500D01*
X111001Y894001D01*
X125996Y892502D02*
X119998D01*
X125996Y898500D01*
Y899999D01*
X124497Y901499D01*
X121498D01*
X119998Y899999D01*
X103503Y904501D02*
Y913499D01*
X108002D01*
X109501Y911999D01*
Y909000D01*
X108002Y907501D01*
X103503D01*
X106502D02*
X109501Y904501D01*
X112500Y911999D02*
X114000Y913499D01*
X116999D01*
X118498Y911999D01*
Y910499D01*
X116999Y909000D01*
X115499D01*
X116999D01*
X118498Y907501D01*
Y906001D01*
X116999Y904501D01*
X114000D01*
X112500Y906001D01*
X121498Y904501D02*
X124497D01*
X122997D01*
Y913499D01*
X121498Y911999D01*
X80500Y879499D02*
X77501D01*
X79001D01*
Y872001D01*
X77501Y870501D01*
X76002D01*
X74502Y872001D01*
X87998Y870501D02*
Y879499D01*
X83499Y875000D01*
X89498D01*
X102004Y917502D02*
Y926499D01*
X106502D01*
X108002Y924999D01*
Y922000D01*
X106502Y920500D01*
X102004D01*
X105003D02*
X108002Y917502D01*
X111001Y924999D02*
X112500Y926499D01*
X115499D01*
X116999Y924999D01*
Y923500D01*
X115499Y922000D01*
X114000D01*
X115499D01*
X116999Y920500D01*
Y919001D01*
X115499Y917502D01*
X112500D01*
X111001Y919001D01*
X119998Y924999D02*
X121498Y926499D01*
X124497D01*
X125996Y924999D01*
Y919001D01*
X124497Y917502D01*
X121498D01*
X119998Y919001D01*
Y924999D01*
X103004Y928501D02*
Y937498D01*
X107502D01*
X109002Y935999D01*
Y933000D01*
X107502Y931500D01*
X103004D01*
X106003D02*
X109002Y928501D01*
X117999D02*
X112001D01*
X117999Y934500D01*
Y935999D01*
X116500Y937498D01*
X113500D01*
X112001Y935999D01*
X120998Y930001D02*
X122498Y928501D01*
X125497D01*
X126996Y930001D01*
Y935999D01*
X125497Y937498D01*
X122498D01*
X120998Y935999D01*
Y934500D01*
X122498Y933000D01*
X126996D01*
X103004Y940501D02*
Y949499D01*
X107502D01*
X109002Y947999D01*
Y945000D01*
X107502Y943501D01*
X103004D01*
X106003D02*
X109002Y940501D01*
X117999D02*
X112001D01*
X117999Y946499D01*
Y947999D01*
X116500Y949499D01*
X113500D01*
X112001Y947999D01*
X120998D02*
X122498Y949499D01*
X125497D01*
X126996Y947999D01*
Y946499D01*
X125497Y945000D01*
X126996Y943501D01*
Y942001D01*
X125497Y940501D01*
X122498D01*
X120998Y942001D01*
Y943501D01*
X122498Y945000D01*
X120998Y946499D01*
Y947999D01*
X122498Y945000D02*
X125497D01*
X103004Y952501D02*
Y961498D01*
X107502D01*
X109002Y959999D01*
Y957000D01*
X107502Y955500D01*
X103004D01*
X106003D02*
X109002Y952501D01*
X117999D02*
X112001D01*
X117999Y958500D01*
Y959999D01*
X116500Y961498D01*
X113500D01*
X112001Y959999D01*
X120998Y961498D02*
X126996D01*
Y959999D01*
X120998Y954001D01*
Y952501D01*
X103004Y966501D02*
Y975499D01*
X107502D01*
X109002Y973999D01*
Y971000D01*
X107502Y969501D01*
X103004D01*
X106003D02*
X109002Y966501D01*
X117999D02*
X112001D01*
X117999Y972499D01*
Y973999D01*
X116500Y975499D01*
X113500D01*
X112001Y973999D01*
X126996Y975499D02*
X123997Y973999D01*
X120998Y971000D01*
Y968001D01*
X122498Y966501D01*
X125497D01*
X126996Y968001D01*
Y969501D01*
X125497Y971000D01*
X120998D01*
X688501Y705002D02*
X697498D01*
Y709501D01*
X695999Y711000D01*
X694500D01*
X693000Y709501D01*
Y705002D01*
Y709501D01*
X691500Y711000D01*
X690001D01*
X688501Y709501D01*
Y705002D01*
X697498Y713999D02*
Y716998D01*
Y715499D01*
X688501D01*
X690001Y713999D01*
X496501Y886500D02*
Y883501D01*
Y885001D01*
X503999D01*
X505499Y883501D01*
Y882002D01*
X503999Y880502D01*
X498001Y889500D02*
X496501Y890999D01*
Y893998D01*
X498001Y895498D01*
X499500D01*
X501000Y893998D01*
Y892498D01*
Y893998D01*
X502500Y895498D01*
X503999D01*
X505499Y893998D01*
Y890999D01*
X503999Y889500D01*
X489501Y936502D02*
X496999D01*
X498498Y938002D01*
Y941001D01*
X496999Y942501D01*
X489501D01*
Y945499D02*
Y951497D01*
X491001D01*
X496999Y945499D01*
X498498D01*
X377000Y990499D02*
X374001D01*
X375500D01*
Y983001D01*
X374001Y981501D01*
X372501D01*
X371002Y983001D01*
X379999Y981501D02*
X382998D01*
X381499D01*
Y990499D01*
X379999Y988999D01*
X348501Y982498D02*
X345502D01*
X347001D01*
Y975001D01*
X345502Y973502D01*
X344002D01*
X342502Y975001D01*
X357498Y973502D02*
X351499D01*
X357498Y979500D01*
Y980999D01*
X355998Y982498D01*
X352999D01*
X351499Y980999D01*
X323502Y910499D02*
Y901501D01*
X329501D01*
X336998D02*
Y910499D01*
X332500Y906000D01*
X338498D01*
X343001Y852002D02*
X341501Y850502D01*
Y847503D01*
X343001Y846004D01*
X348999D01*
X350499Y847503D01*
Y850502D01*
X348999Y852002D01*
X343001Y855001D02*
X341501Y856500D01*
Y859500D01*
X343001Y860999D01*
X344501D01*
X346000Y859500D01*
Y858000D01*
Y859500D01*
X347500Y860999D01*
X348999D01*
X350499Y859500D01*
Y856500D01*
X348999Y855001D01*
X343001Y863998D02*
X341501Y865498D01*
Y868497D01*
X343001Y869996D01*
X348999D01*
X350499Y868497D01*
Y865498D01*
X348999Y863998D01*
X343001D01*
X309002Y880999D02*
X307502Y882498D01*
X304503D01*
X303004Y880999D01*
Y875001D01*
X304503Y873502D01*
X307502D01*
X309002Y875001D01*
X317999Y873502D02*
X312001D01*
X317999Y879500D01*
Y880999D01*
X316500Y882498D01*
X313500D01*
X312001Y880999D01*
X320998D02*
X322498Y882498D01*
X325497D01*
X326996Y880999D01*
Y875001D01*
X325497Y873502D01*
X322498D01*
X320998Y875001D01*
Y880999D01*
X236004Y889501D02*
Y898499D01*
X240502D01*
X242002Y896999D01*
Y894000D01*
X240502Y892501D01*
X236004D01*
X239003D02*
X242002Y889501D01*
X250999D02*
X245001D01*
X250999Y895499D01*
Y896999D01*
X249499Y898499D01*
X246500D01*
X245001Y896999D01*
X259996Y889501D02*
X253998D01*
X259996Y895499D01*
Y896999D01*
X258497Y898499D01*
X255498D01*
X253998Y896999D01*
X261001Y847002D02*
X259501Y845502D01*
Y842503D01*
X261001Y841004D01*
X266999D01*
X268498Y842503D01*
Y845502D01*
X266999Y847002D01*
X261001Y850001D02*
X259501Y851500D01*
Y854500D01*
X261001Y855999D01*
X262500D01*
X264000Y854500D01*
Y853000D01*
Y854500D01*
X265499Y855999D01*
X266999D01*
X268498Y854500D01*
Y851500D01*
X266999Y850001D01*
X268498Y863497D02*
X259501D01*
X264000Y858998D01*
Y864996D01*
X571001Y815501D02*
X569501Y814002D01*
Y811003D01*
X571001Y809503D01*
X576999D01*
X578498Y811003D01*
Y814002D01*
X576999Y815501D01*
X569501Y824499D02*
X571001Y821499D01*
X574000Y818501D01*
X576999D01*
X578498Y820000D01*
Y822999D01*
X576999Y824499D01*
X575499D01*
X574000Y822999D01*
Y818501D01*
X578498Y827498D02*
Y830497D01*
Y828997D01*
X569501D01*
X571001Y827498D01*
X531001Y817002D02*
X529501Y815502D01*
Y812503D01*
X531001Y811004D01*
X536999D01*
X538498Y812503D01*
Y815502D01*
X536999Y817002D01*
X529501Y825999D02*
X531001Y823000D01*
X534000Y820001D01*
X536999D01*
X538498Y821500D01*
Y824500D01*
X536999Y825999D01*
X535499D01*
X534000Y824500D01*
Y820001D01*
X531001Y828998D02*
X529501Y830498D01*
Y833497D01*
X531001Y834996D01*
X536999D01*
X538498Y833497D01*
Y830498D01*
X536999Y828998D01*
X531001D01*
X495501Y840754D02*
X502999D01*
X504498Y842253D01*
Y845252D01*
X502999Y846752D01*
X495501D01*
X504498Y849751D02*
Y852750D01*
Y851250D01*
X495501D01*
X497001Y849751D01*
Y857248D02*
X495501Y858748D01*
Y861747D01*
X497001Y863246D01*
X502999D01*
X504498Y861747D01*
Y858748D01*
X502999Y857248D01*
X497001D01*
X486498Y840754D02*
X477501D01*
Y845252D01*
X479001Y846752D01*
X482000D01*
X483499Y845252D01*
Y840754D01*
Y843753D02*
X486498Y846752D01*
Y849751D02*
Y852750D01*
Y851250D01*
X477501D01*
X479001Y849751D01*
X484999Y857248D02*
X486498Y858748D01*
Y861747D01*
X484999Y863246D01*
X479001D01*
X477501Y861747D01*
Y858748D01*
X479001Y857248D01*
X480500D01*
X482000Y858748D01*
Y863246D01*
X473498Y840754D02*
X464501D01*
Y845252D01*
X466001Y846752D01*
X469000D01*
X470499Y845252D01*
Y840754D01*
Y843753D02*
X473498Y846752D01*
Y849751D02*
Y852750D01*
Y851250D01*
X464501D01*
X466001Y849751D01*
Y857248D02*
X464501Y858748D01*
Y861747D01*
X466001Y863246D01*
X467500D01*
X469000Y861747D01*
X470499Y863246D01*
X471999D01*
X473498Y861747D01*
Y858748D01*
X471999Y857248D01*
X470499D01*
X469000Y858748D01*
X467500Y857248D01*
X466001D01*
X469000Y858748D02*
Y861747D01*
X438002Y824999D02*
X436502Y826499D01*
X433503D01*
X432004Y824999D01*
Y819001D01*
X433503Y817502D01*
X436502D01*
X438002Y819001D01*
X446999Y817502D02*
X441001D01*
X446999Y823500D01*
Y824999D01*
X445499Y826499D01*
X442500D01*
X441001Y824999D01*
X455996Y817502D02*
X449998D01*
X455996Y823500D01*
Y824999D01*
X454497Y826499D01*
X451498D01*
X449998Y824999D01*
X433501Y799002D02*
X435001D01*
X438000Y802001D01*
X435001Y805000D01*
X433501D01*
X438000Y802001D02*
X442499D01*
Y807999D02*
Y810998D01*
Y809499D01*
X433501D01*
X435001Y807999D01*
X440002Y788999D02*
X438502Y790499D01*
X435503D01*
X434004Y788999D01*
Y783001D01*
X435503Y781501D01*
X438502D01*
X440002Y783001D01*
X448999Y781501D02*
X443001D01*
X448999Y787499D01*
Y788999D01*
X447500Y790499D01*
X444501D01*
X443001Y788999D01*
X451998D02*
X453498Y790499D01*
X456497D01*
X457996Y788999D01*
Y787499D01*
X456497Y786000D01*
X454997D01*
X456497D01*
X457996Y784501D01*
Y783001D01*
X456497Y781501D01*
X453498D01*
X451998Y783001D01*
X542004Y786501D02*
Y795499D01*
X546502D01*
X548002Y793999D01*
Y791000D01*
X546502Y789501D01*
X542004D01*
X545003D02*
X548002Y786501D01*
X556999D02*
X551001D01*
X556999Y792499D01*
Y793999D01*
X555499Y795499D01*
X552500D01*
X551001Y793999D01*
X565996Y795499D02*
X559998D01*
Y791000D01*
X562997Y792499D01*
X564497D01*
X565996Y791000D01*
Y788001D01*
X564497Y786501D01*
X561498D01*
X559998Y788001D01*
X551498Y692004D02*
X542501D01*
Y696502D01*
X544001Y698002D01*
X547000D01*
X548499Y696502D01*
Y692004D01*
Y695003D02*
X551498Y698002D01*
X542501Y706999D02*
Y701001D01*
X547000D01*
X545500Y704000D01*
Y705499D01*
X547000Y706999D01*
X549999D01*
X551498Y705499D01*
Y702501D01*
X549999Y701001D01*
X551498Y715996D02*
Y709998D01*
X545500Y715996D01*
X544001D01*
X542501Y714497D01*
Y711498D01*
X544001Y709998D01*
X536498Y691004D02*
X527501D01*
Y695502D01*
X529001Y697002D01*
X532000D01*
X533499Y695502D01*
Y691004D01*
Y694003D02*
X536498Y697002D01*
X527501Y705999D02*
Y700001D01*
X532000D01*
X530500Y703000D01*
Y704500D01*
X532000Y705999D01*
X534999D01*
X536498Y704500D01*
Y701500D01*
X534999Y700001D01*
X527501Y714996D02*
X529001Y711997D01*
X532000Y708998D01*
X534999D01*
X536498Y710498D01*
Y713497D01*
X534999Y714996D01*
X533499D01*
X532000Y713497D01*
Y708998D01*
X508501Y754001D02*
Y759999D01*
X507001Y761499D01*
X504002D01*
X502502Y759999D01*
Y754001D01*
X504002Y752502D01*
X507001D01*
X505502Y755500D02*
X508501Y752502D01*
X507001D02*
X508501Y754001D01*
X515998Y752502D02*
Y761499D01*
X511499Y757000D01*
X517498D01*
X483001Y757002D02*
X481501Y755502D01*
Y752503D01*
X483001Y751004D01*
X488999D01*
X490499Y752503D01*
Y755502D01*
X488999Y757002D01*
X481501Y765999D02*
Y760001D01*
X486000D01*
X484501Y763000D01*
Y764500D01*
X486000Y765999D01*
X488999D01*
X490499Y764500D01*
Y761500D01*
X488999Y760001D01*
X483001Y768998D02*
X481501Y770498D01*
Y773497D01*
X483001Y774996D01*
X484501D01*
X486000Y773497D01*
X487500Y774996D01*
X488999D01*
X490499Y773497D01*
Y770498D01*
X488999Y768998D01*
X487500D01*
X486000Y770498D01*
X484501Y768998D01*
X483001D01*
X486000Y770498D02*
Y773497D01*
X474498Y753004D02*
X465501D01*
Y757502D01*
X467001Y759002D01*
X470000D01*
X471499Y757502D01*
Y753004D01*
Y756003D02*
X474498Y759002D01*
X465501Y767999D02*
Y762001D01*
X470000D01*
X468501Y765000D01*
Y766499D01*
X470000Y767999D01*
X472999D01*
X474498Y766499D01*
Y763501D01*
X472999Y762001D01*
X467001Y770998D02*
X465501Y772497D01*
Y775497D01*
X467001Y776996D01*
X468501D01*
X470000Y775497D01*
Y773997D01*
Y775497D01*
X471499Y776996D01*
X472999D01*
X474498Y775497D01*
Y772497D01*
X472999Y770998D01*
X460499Y753004D02*
X451502D01*
Y757502D01*
X453001Y759002D01*
X456000D01*
X457500Y757502D01*
Y753004D01*
Y756003D02*
X460499Y759002D01*
X451502Y767999D02*
Y762001D01*
X456000D01*
X454501Y765000D01*
Y766499D01*
X456000Y767999D01*
X458999D01*
X460499Y766499D01*
Y763501D01*
X458999Y762001D01*
X451502Y770998D02*
Y776996D01*
X453001D01*
X458999Y770998D01*
X460499D01*
X432500Y757001D02*
Y762999D01*
X431001Y764499D01*
X428002D01*
X426502Y762999D01*
Y757001D01*
X428002Y755501D01*
X431001D01*
X429501Y758501D02*
X432500Y755501D01*
X431001D02*
X432500Y757001D01*
X441498Y764499D02*
X435499D01*
Y760000D01*
X438498Y761499D01*
X439998D01*
X441498Y760000D01*
Y757001D01*
X439998Y755501D01*
X436999D01*
X435499Y757001D01*
X407001Y757002D02*
X405501Y755502D01*
Y752503D01*
X407001Y751004D01*
X412999D01*
X414498Y752503D01*
Y755502D01*
X412999Y757002D01*
X405501Y765999D02*
Y760001D01*
X410000D01*
X408501Y763000D01*
Y764500D01*
X410000Y765999D01*
X412999D01*
X414498Y764500D01*
Y761500D01*
X412999Y760001D01*
Y768998D02*
X414498Y770498D01*
Y773497D01*
X412999Y774996D01*
X407001D01*
X405501Y773497D01*
Y770498D01*
X407001Y768998D01*
X408501D01*
X410000Y770498D01*
Y774996D01*
X570499Y658004D02*
X561501D01*
Y662502D01*
X563001Y664002D01*
X566000D01*
X567500Y662502D01*
Y658004D01*
Y661003D02*
X570499Y664002D01*
Y671499D02*
X561501D01*
X566000Y667001D01*
Y672999D01*
X561501Y681996D02*
X563001Y678997D01*
X566000Y675998D01*
X568999D01*
X570499Y677498D01*
Y680497D01*
X568999Y681996D01*
X567500D01*
X566000Y680497D01*
Y675998D01*
X514001Y663002D02*
X512501Y661502D01*
Y658503D01*
X514001Y657004D01*
X519999D01*
X521498Y658503D01*
Y661502D01*
X519999Y663002D01*
X512501Y671999D02*
Y666001D01*
X517000D01*
X515500Y669000D01*
Y670499D01*
X517000Y671999D01*
X519999D01*
X521498Y670499D01*
Y667501D01*
X519999Y666001D01*
X512501Y680996D02*
X514001Y677997D01*
X517000Y674998D01*
X519999D01*
X521498Y676498D01*
Y679497D01*
X519999Y680996D01*
X518499D01*
X517000Y679497D01*
Y674998D01*
X538501Y671001D02*
Y676999D01*
X537001Y678499D01*
X534002D01*
X532502Y676999D01*
Y671001D01*
X534002Y669501D01*
X537001D01*
X535502Y672501D02*
X538501Y669501D01*
X537001D02*
X538501Y671001D01*
X547498Y669501D02*
X541499D01*
X547498Y675499D01*
Y676999D01*
X545998Y678499D01*
X542999D01*
X541499Y676999D01*
X508498Y657004D02*
X499501D01*
Y661503D01*
X501001Y663002D01*
X504000D01*
X505499Y661503D01*
Y657004D01*
Y660003D02*
X508498Y663002D01*
Y670499D02*
X499501D01*
X504000Y666001D01*
Y671999D01*
X501001Y674998D02*
X499501Y676498D01*
Y679497D01*
X501001Y680996D01*
X502500D01*
X504000Y679497D01*
X505499Y680996D01*
X506999D01*
X508498Y679497D01*
Y676498D01*
X506999Y674998D01*
X505499D01*
X504000Y676498D01*
X502500Y674998D01*
X501001D01*
X504000Y676498D02*
Y679497D01*
X491498Y671004D02*
X482501D01*
Y675502D01*
X484001Y677002D01*
X487000D01*
X488499Y675502D01*
Y671004D01*
Y674003D02*
X491498Y677002D01*
Y684500D02*
X482501D01*
X487000Y680001D01*
Y685999D01*
X489999Y688998D02*
X491498Y690498D01*
Y693497D01*
X489999Y694996D01*
X484001D01*
X482501Y693497D01*
Y690498D01*
X484001Y688998D01*
X485500D01*
X487000Y690498D01*
Y694996D01*
X470001Y677002D02*
X468501Y675502D01*
Y672503D01*
X470001Y671004D01*
X475999D01*
X477499Y672503D01*
Y675502D01*
X475999Y677002D01*
X468501Y685999D02*
Y680001D01*
X473000D01*
X471501Y683000D01*
Y684500D01*
X473000Y685999D01*
X475999D01*
X477499Y684500D01*
Y681500D01*
X475999Y680001D01*
X468501Y688998D02*
Y694996D01*
X470001D01*
X475999Y688998D01*
X477499D01*
X448501Y671001D02*
Y676999D01*
X447001Y678499D01*
X444002D01*
X442502Y676999D01*
Y671001D01*
X444002Y669501D01*
X447001D01*
X445501Y672501D02*
X448501Y669501D01*
X447001D02*
X448501Y671001D01*
X451499Y676999D02*
X452999Y678499D01*
X455998D01*
X457498Y676999D01*
Y675499D01*
X455998Y674000D01*
X454498D01*
X455998D01*
X457498Y672501D01*
Y671001D01*
X455998Y669501D01*
X452999D01*
X451499Y671001D01*
X426001Y693002D02*
X424501Y691503D01*
Y688503D01*
X426001Y687004D01*
X431999D01*
X433498Y688503D01*
Y691503D01*
X431999Y693002D01*
X424501Y701999D02*
Y696001D01*
X429000D01*
X427500Y699000D01*
Y700499D01*
X429000Y701999D01*
X431999D01*
X433498Y700499D01*
Y697501D01*
X431999Y696001D01*
X433498Y709497D02*
X424501D01*
X429000Y704998D01*
Y710996D01*
X417499Y689004D02*
X408501D01*
Y693502D01*
X410001Y695002D01*
X413000D01*
X414500Y693502D01*
Y689004D01*
Y692003D02*
X417499Y695002D01*
Y702499D02*
X408501D01*
X413000Y698001D01*
Y703999D01*
X417499Y711497D02*
X408501D01*
X413000Y706998D01*
Y712996D01*
X414498Y598004D02*
X405501D01*
Y602502D01*
X407001Y604002D01*
X410000D01*
X411499Y602502D01*
Y598004D01*
Y601003D02*
X414498Y604002D01*
Y611499D02*
X405501D01*
X410000Y607001D01*
Y612999D01*
X405501Y621996D02*
Y615998D01*
X410000D01*
X408501Y618997D01*
Y620497D01*
X410000Y621996D01*
X412999D01*
X414498Y620497D01*
Y617498D01*
X412999Y615998D01*
X361001Y668002D02*
X359501Y666502D01*
Y663503D01*
X361001Y662004D01*
X366999D01*
X368498Y663503D01*
Y666502D01*
X366999Y668002D01*
X359501Y676999D02*
Y671001D01*
X364000D01*
X362500Y674000D01*
Y675499D01*
X364000Y676999D01*
X366999D01*
X368498Y675499D01*
Y672501D01*
X366999Y671001D01*
X359501Y685996D02*
Y679998D01*
X364000D01*
X362500Y682997D01*
Y684497D01*
X364000Y685996D01*
X366999D01*
X368498Y684497D01*
Y681498D01*
X366999Y679998D01*
X386000Y673001D02*
Y678999D01*
X384501Y680499D01*
X381501D01*
X380002Y678999D01*
Y673001D01*
X381501Y671501D01*
X384501D01*
X383001Y674501D02*
X386000Y671501D01*
X384501D02*
X386000Y673001D01*
X388999Y671501D02*
X391998D01*
X390499D01*
Y680499D01*
X388999Y678999D01*
X355499Y658004D02*
X346501D01*
Y662503D01*
X348001Y664002D01*
X351000D01*
X352500Y662503D01*
Y658004D01*
Y661003D02*
X355499Y664002D01*
Y671499D02*
X346501D01*
X351000Y667001D01*
Y672999D01*
X346501Y675998D02*
Y681996D01*
X348001D01*
X353999Y675998D01*
X355499D01*
X247502Y630502D02*
X254999D01*
X256499Y632002D01*
Y635001D01*
X254999Y636501D01*
X247502D01*
X249001Y639500D02*
X247502Y640999D01*
Y643998D01*
X249001Y645498D01*
X250501D01*
X252000Y643998D01*
X253500Y645498D01*
X254999D01*
X256499Y643998D01*
Y640999D01*
X254999Y639500D01*
X253500D01*
X252000Y640999D01*
X250501Y639500D01*
X249001D01*
X252000Y640999D02*
Y643998D01*
X313002Y648999D02*
X311502Y650499D01*
X308503D01*
X307004Y648999D01*
Y643001D01*
X308503Y641501D01*
X311502D01*
X313002Y643001D01*
X320499Y641501D02*
Y650499D01*
X316001Y646000D01*
X321999D01*
X324998Y643001D02*
X326498Y641501D01*
X329497D01*
X330996Y643001D01*
Y648999D01*
X329497Y650499D01*
X326498D01*
X324998Y648999D01*
Y647499D01*
X326498Y646000D01*
X330996D01*
X277002Y648999D02*
X275502Y650499D01*
X272503D01*
X271004Y648999D01*
Y643001D01*
X272503Y641501D01*
X275502D01*
X277002Y643001D01*
X285999Y650499D02*
X280001D01*
Y646000D01*
X283000Y647499D01*
X284499D01*
X285999Y646000D01*
Y643001D01*
X284499Y641501D01*
X281500D01*
X280001Y643001D01*
X288998Y648999D02*
X290498Y650499D01*
X293497D01*
X294996Y648999D01*
Y643001D01*
X293497Y641501D01*
X290498D01*
X288998Y643001D01*
Y648999D01*
X244001Y664002D02*
X242501Y662502D01*
Y659503D01*
X244001Y658004D01*
X249999D01*
X251499Y659503D01*
Y662502D01*
X249999Y664002D01*
X244001Y667001D02*
X242501Y668501D01*
Y671499D01*
X244001Y672999D01*
X245500D01*
X247000Y671499D01*
Y670000D01*
Y671499D01*
X248500Y672999D01*
X249999D01*
X251499Y671499D01*
Y668501D01*
X249999Y667001D01*
X242501Y681996D02*
X244001Y678997D01*
X247000Y675998D01*
X249999D01*
X251499Y677498D01*
Y680497D01*
X249999Y681996D01*
X248500D01*
X247000Y680497D01*
Y675998D01*
X231001Y665002D02*
X229501Y663503D01*
Y660503D01*
X231001Y659004D01*
X236999D01*
X238498Y660503D01*
Y663503D01*
X236999Y665002D01*
X231001Y668001D02*
X229501Y669501D01*
Y672499D01*
X231001Y673999D01*
X232500D01*
X234000Y672499D01*
Y671000D01*
Y672499D01*
X235499Y673999D01*
X236999D01*
X238498Y672499D01*
Y669501D01*
X236999Y668001D01*
X229501Y682996D02*
Y676998D01*
X234000D01*
X232500Y679997D01*
Y681497D01*
X234000Y682996D01*
X236999D01*
X238498Y681497D01*
Y678498D01*
X236999Y676998D01*
X205501Y692501D02*
Y689501D01*
Y691001D01*
X212999D01*
X214499Y689501D01*
Y688002D01*
X212999Y686502D01*
X205501Y701498D02*
X207001Y698499D01*
X210000Y695499D01*
X212999D01*
X214499Y696999D01*
Y699998D01*
X212999Y701498D01*
X211500D01*
X210000Y699998D01*
Y695499D01*
X192502Y667498D02*
Y658502D01*
X198500D01*
X207498Y667498D02*
X204499Y665999D01*
X201500Y663000D01*
Y660001D01*
X202999Y658502D01*
X205998D01*
X207498Y660001D01*
Y661500D01*
X205998Y663000D01*
X201500D01*
X98004Y659501D02*
Y668499D01*
X102502D01*
X104002Y666999D01*
Y664000D01*
X102502Y662501D01*
X98004D01*
X101003D02*
X104002Y659501D01*
X107001Y666999D02*
X108500Y668499D01*
X111500D01*
X112999Y666999D01*
Y665499D01*
X111500Y664000D01*
X110000D01*
X111500D01*
X112999Y662501D01*
Y661001D01*
X111500Y659501D01*
X108500D01*
X107001Y661001D01*
X115998Y666999D02*
X117498Y668499D01*
X120497D01*
X121996Y666999D01*
Y665499D01*
X120497Y664000D01*
X121996Y662501D01*
Y661001D01*
X120497Y659501D01*
X117498D01*
X115998Y661001D01*
Y662501D01*
X117498Y664000D01*
X115998Y665499D01*
Y666999D01*
X117498Y664000D02*
X120497D01*
X199501Y643999D02*
X198002Y645499D01*
X195003D01*
X193503Y643999D01*
Y638001D01*
X195003Y636501D01*
X198002D01*
X199501Y638001D01*
X206999Y636501D02*
Y645499D01*
X202500Y641000D01*
X208498D01*
X211498Y636501D02*
X214497D01*
X212997D01*
Y645499D01*
X211498Y643999D01*
X193502Y623498D02*
Y614501D01*
X199501D01*
X202500Y621999D02*
X203999Y623498D01*
X206998D01*
X208498Y621999D01*
Y620499D01*
X206998Y619000D01*
X208498Y617500D01*
Y616001D01*
X206998Y614501D01*
X203999D01*
X202500Y616001D01*
Y617500D01*
X203999Y619000D01*
X202500Y620499D01*
Y621999D01*
X203999Y619000D02*
X206998D01*
X198002Y598999D02*
X196502Y600499D01*
X193503D01*
X192004Y598999D01*
Y593001D01*
X193503Y591502D01*
X196502D01*
X198002Y593001D01*
X205499Y591502D02*
Y600499D01*
X201001Y596000D01*
X206999D01*
X209998Y598999D02*
X211498Y600499D01*
X214497D01*
X215996Y598999D01*
Y593001D01*
X214497Y591502D01*
X211498D01*
X209998Y593001D01*
Y598999D01*
X192502Y577499D02*
Y568502D01*
X198500D01*
X201500Y577499D02*
X207498D01*
Y575999D01*
X201500Y570001D01*
Y568502D01*
X119502Y564498D02*
Y557001D01*
X121002Y555502D01*
X124001D01*
X125500Y557001D01*
Y564498D01*
X128499Y557001D02*
X129999Y555502D01*
X132998D01*
X134498Y557001D01*
Y562999D01*
X132998Y564498D01*
X129999D01*
X128499Y562999D01*
Y561499D01*
X129999Y560000D01*
X134498D01*
X86001Y700002D02*
X84501Y698502D01*
Y695503D01*
X86001Y694004D01*
X91999D01*
X93498Y695503D01*
Y698502D01*
X91999Y700002D01*
X86001Y703001D02*
X84501Y704501D01*
Y707499D01*
X86001Y708999D01*
X87500D01*
X89000Y707499D01*
Y706000D01*
Y707499D01*
X90499Y708999D01*
X91999D01*
X93498Y707499D01*
Y704501D01*
X91999Y703001D01*
X93498Y717996D02*
Y711998D01*
X87500Y717996D01*
X86001D01*
X84501Y716497D01*
Y713498D01*
X86001Y711998D01*
X40498Y694004D02*
X31501D01*
Y698502D01*
X33001Y700002D01*
X36000D01*
X37499Y698502D01*
Y694004D01*
Y697003D02*
X40498Y700002D01*
X33001Y703001D02*
X31501Y704501D01*
Y707499D01*
X33001Y708999D01*
X34501D01*
X36000Y707499D01*
Y706000D01*
Y707499D01*
X37499Y708999D01*
X38999D01*
X40498Y707499D01*
Y704501D01*
X38999Y703001D01*
X33001Y711998D02*
X31501Y713498D01*
Y716497D01*
X33001Y717996D01*
X34501D01*
X36000Y716497D01*
Y714997D01*
Y716497D01*
X37499Y717996D01*
X38999D01*
X40498Y716497D01*
Y713498D01*
X38999Y711998D01*
X83001Y634501D02*
X81501Y633002D01*
Y630003D01*
X83001Y628503D01*
X84501D01*
X86000Y630003D01*
Y633002D01*
X87500Y634501D01*
X88999D01*
X90499Y633002D01*
Y630003D01*
X88999Y628503D01*
X81501Y637500D02*
X90499D01*
X87500Y640499D01*
X90499Y643499D01*
X81501D01*
X90499Y646497D02*
Y649497D01*
Y647997D01*
X81501D01*
X83001Y646497D01*
X79001Y569002D02*
X77501Y567502D01*
Y564503D01*
X79001Y563004D01*
X84999D01*
X86498Y564503D01*
Y567502D01*
X84999Y569002D01*
X79001Y572001D02*
X77501Y573501D01*
Y576499D01*
X79001Y577999D01*
X80500D01*
X82000Y576499D01*
Y575000D01*
Y576499D01*
X83499Y577999D01*
X84999D01*
X86498Y576499D01*
Y573501D01*
X84999Y572001D01*
X79001Y580998D02*
X77501Y582498D01*
Y585497D01*
X79001Y586996D01*
X80500D01*
X82000Y585497D01*
Y583997D01*
Y585497D01*
X83499Y586996D01*
X84999D01*
X86498Y585497D01*
Y582498D01*
X84999Y580998D01*
X36498Y567004D02*
X27501D01*
Y571502D01*
X29001Y573002D01*
X32000D01*
X33500Y571502D01*
Y567004D01*
Y570003D02*
X36498Y573002D01*
X29001Y576001D02*
X27501Y577500D01*
Y580499D01*
X29001Y581999D01*
X30501D01*
X32000Y580499D01*
Y579000D01*
Y580499D01*
X33500Y581999D01*
X34999D01*
X36498Y580499D01*
Y577500D01*
X34999Y576001D01*
X36498Y589497D02*
X27501D01*
X32000Y584998D01*
Y590996D01*
X83001Y519002D02*
X81501Y517502D01*
Y514503D01*
X83001Y513004D01*
X84500D01*
X86000Y514503D01*
Y517502D01*
X87500Y519002D01*
X88999D01*
X90499Y517502D01*
Y514503D01*
X88999Y513004D01*
X81501Y522001D02*
X90499D01*
X87500Y525000D01*
X90499Y527999D01*
X81501D01*
X90499Y536996D02*
Y530998D01*
X84500Y536996D01*
X83001D01*
X81501Y535497D01*
Y532498D01*
X83001Y530998D01*
X80001Y444002D02*
X78501Y442502D01*
Y439503D01*
X80001Y438004D01*
X85999D01*
X87499Y439503D01*
Y442502D01*
X85999Y444002D01*
X80001Y447001D02*
X78501Y448501D01*
Y451499D01*
X80001Y452999D01*
X81500D01*
X83000Y451499D01*
Y450000D01*
Y451499D01*
X84500Y452999D01*
X85999D01*
X87499Y451499D01*
Y448501D01*
X85999Y447001D01*
X78501Y455998D02*
Y461996D01*
X80001D01*
X85999Y455998D01*
X87499D01*
X36498Y438004D02*
X27501D01*
Y442502D01*
X29001Y444002D01*
X32000D01*
X33500Y442502D01*
Y438004D01*
Y441003D02*
X36498Y444002D01*
X29001Y447001D02*
X27501Y448501D01*
Y451499D01*
X29001Y452999D01*
X30500D01*
X32000Y451499D01*
Y450000D01*
Y451499D01*
X33500Y452999D01*
X34999D01*
X36498Y451499D01*
Y448501D01*
X34999Y447001D01*
X27501Y461996D02*
Y455998D01*
X32000D01*
X30500Y458997D01*
Y460497D01*
X32000Y461996D01*
X34999D01*
X36498Y460497D01*
Y457498D01*
X34999Y455998D01*
X83001Y381002D02*
X81501Y379502D01*
Y376503D01*
X83001Y375004D01*
X84501D01*
X86000Y376503D01*
Y379502D01*
X87500Y381002D01*
X88999D01*
X90499Y379502D01*
Y376503D01*
X88999Y375004D01*
X81501Y384001D02*
X90499D01*
X87500Y387000D01*
X90499Y389999D01*
X81501D01*
X83001Y392998D02*
X81501Y394497D01*
Y397497D01*
X83001Y398996D01*
X84501D01*
X86000Y397497D01*
Y395997D01*
Y397497D01*
X87500Y398996D01*
X88999D01*
X90499Y397497D01*
Y394497D01*
X88999Y392998D01*
X129501Y227499D02*
X126501D01*
X128001D01*
Y220001D01*
X126501Y218501D01*
X125002D01*
X123502Y220001D01*
X132500Y225999D02*
X133999Y227499D01*
X136998D01*
X138498Y225999D01*
Y224499D01*
X136998Y223000D01*
X138498Y221500D01*
Y220001D01*
X136998Y218501D01*
X133999D01*
X132500Y220001D01*
Y221500D01*
X133999Y223000D01*
X132500Y224499D01*
Y225999D01*
X133999Y223000D02*
X136998D01*
X26004Y292501D02*
Y301499D01*
X30502D01*
X32002Y299999D01*
Y297000D01*
X30502Y295501D01*
X26004D01*
X29003D02*
X32002Y292501D01*
X39499D02*
Y301499D01*
X35001Y297000D01*
X40999D01*
X49996Y292501D02*
X43998D01*
X49996Y298500D01*
Y299999D01*
X48497Y301499D01*
X45498D01*
X43998Y299999D01*
X31002Y285999D02*
X29502Y287498D01*
X26503D01*
X25004Y285999D01*
Y280001D01*
X26503Y278501D01*
X29502D01*
X31002Y280001D01*
X38500Y278501D02*
Y287498D01*
X34001Y283000D01*
X39999D01*
X48996Y287498D02*
X42998D01*
Y283000D01*
X45997Y284499D01*
X47497D01*
X48996Y283000D01*
Y280001D01*
X47497Y278501D01*
X44498D01*
X42998Y280001D01*
X100501Y251253D02*
X109499D01*
Y255752D01*
X107999Y257251D01*
X102001D01*
X100501Y255752D01*
Y251253D01*
X109499Y260250D02*
Y263249D01*
Y261750D01*
X100501D01*
X102001Y260250D01*
X109499Y267748D02*
Y270747D01*
Y269247D01*
X100501D01*
X102001Y267748D01*
X35002Y252999D02*
X33502Y254499D01*
X30503D01*
X29004Y252999D01*
Y247001D01*
X30503Y245501D01*
X33502D01*
X35002Y247001D01*
X42499Y245501D02*
Y254499D01*
X38001Y250000D01*
X43999D01*
X46998Y254499D02*
X52996D01*
Y252999D01*
X46998Y247001D01*
Y245501D01*
X27004Y216501D02*
Y225499D01*
X31502D01*
X33002Y223999D01*
Y221000D01*
X31502Y219501D01*
X27004D01*
X30003D02*
X33002Y216501D01*
X40500D02*
Y225499D01*
X36001Y221000D01*
X41999D01*
X44998Y223999D02*
X46498Y225499D01*
X49497D01*
X50996Y223999D01*
Y222500D01*
X49497Y221000D01*
X47997D01*
X49497D01*
X50996Y219501D01*
Y218001D01*
X49497Y216501D01*
X46498D01*
X44998Y218001D01*
X34002Y211999D02*
X32502Y213498D01*
X29503D01*
X28004Y211999D01*
Y206001D01*
X29503Y204501D01*
X32502D01*
X34002Y206001D01*
X41500Y204501D02*
Y213498D01*
X37001Y209000D01*
X42999D01*
X50497Y204501D02*
Y213498D01*
X45998Y209000D01*
X51996D01*
X29503Y177501D02*
Y186499D01*
X34002D01*
X35501Y184999D01*
Y182000D01*
X34002Y180501D01*
X29503D01*
X32502D02*
X35501Y177501D01*
X42999D02*
Y186499D01*
X38500Y182000D01*
X44499D01*
X47498Y177501D02*
X50497D01*
X48997D01*
Y186499D01*
X47498Y184999D01*
X33002Y170999D02*
X31502Y172498D01*
X28503D01*
X27004Y170999D01*
Y165001D01*
X28503Y163501D01*
X31502D01*
X33002Y165001D01*
X40500Y163501D02*
Y172498D01*
X36001Y168000D01*
X41999D01*
X50996Y172498D02*
X47997Y170999D01*
X44998Y168000D01*
Y165001D01*
X46498Y163501D01*
X49497D01*
X50996Y165001D01*
Y166500D01*
X49497Y168000D01*
X44998D01*
X902502Y847498D02*
Y840001D01*
X904002Y838501D01*
X907001D01*
X908501Y840001D01*
Y847498D01*
X911499Y845999D02*
X912999Y847498D01*
X915998D01*
X917498Y845999D01*
Y844500D01*
X915998Y843000D01*
X914499D01*
X915998D01*
X917498Y841500D01*
Y840001D01*
X915998Y838501D01*
X912999D01*
X911499Y840001D01*
X807501Y847502D02*
X816498D01*
Y853501D01*
X807501Y862498D02*
Y856499D01*
X812000D01*
X810500Y859499D01*
Y860998D01*
X812000Y862498D01*
X814999D01*
X816498Y860998D01*
Y857999D01*
X814999Y856499D01*
X893001Y814501D02*
X891501Y813001D01*
Y810002D01*
X893001Y808502D01*
X898999D01*
X900499Y810002D01*
Y813001D01*
X898999Y814501D01*
X893001Y817499D02*
X891501Y818999D01*
Y821998D01*
X893001Y823497D01*
X894501D01*
X896000Y821998D01*
X897499Y823497D01*
X898999D01*
X900499Y821998D01*
Y818999D01*
X898999Y817499D01*
X897499D01*
X896000Y818999D01*
X894501Y817499D01*
X893001D01*
X896000Y818999D02*
Y821998D01*
X857001Y787501D02*
X855501Y786001D01*
Y783002D01*
X857001Y781502D01*
X862999D01*
X864499Y783002D01*
Y786001D01*
X862999Y787501D01*
Y790499D02*
X864499Y791999D01*
Y794998D01*
X862999Y796498D01*
X857001D01*
X855501Y794998D01*
Y791999D01*
X857001Y790499D01*
X858501D01*
X860000Y791999D01*
Y796498D01*
X840001Y783002D02*
X838501Y781502D01*
Y778503D01*
X840001Y777004D01*
X845999D01*
X847498Y778503D01*
Y781502D01*
X845999Y783002D01*
X847498Y791999D02*
Y786001D01*
X841500Y791999D01*
X840001D01*
X838501Y790499D01*
Y787501D01*
X840001Y786001D01*
X845999Y794998D02*
X847498Y796498D01*
Y799497D01*
X845999Y800996D01*
X840001D01*
X838501Y799497D01*
Y796498D01*
X840001Y794998D01*
X841500D01*
X843000Y796498D01*
Y800996D01*
X826001Y783002D02*
X824501Y781502D01*
Y778503D01*
X826001Y777004D01*
X831999D01*
X833499Y778503D01*
Y781502D01*
X831999Y783002D01*
X833499Y791999D02*
Y786001D01*
X827501Y791999D01*
X826001D01*
X824501Y790499D01*
Y787501D01*
X826001Y786001D01*
Y794998D02*
X824501Y796497D01*
Y799497D01*
X826001Y800996D01*
X827501D01*
X829000Y799497D01*
X830499Y800996D01*
X831999D01*
X833499Y799497D01*
Y796497D01*
X831999Y794998D01*
X830499D01*
X829000Y796497D01*
X827501Y794998D01*
X826001D01*
X829000Y796497D02*
Y799497D01*
X812001Y784002D02*
X810501Y782502D01*
Y779503D01*
X812001Y778004D01*
X817999D01*
X819499Y779503D01*
Y782502D01*
X817999Y784002D01*
X819499Y792999D02*
Y787001D01*
X813501Y792999D01*
X812001D01*
X810501Y791499D01*
Y788501D01*
X812001Y787001D01*
X810501Y795998D02*
Y801996D01*
X812001D01*
X817999Y795998D01*
X819499D01*
X904752Y746999D02*
X903252Y748499D01*
X900253D01*
X898754Y746999D01*
Y741001D01*
X900253Y739501D01*
X903252D01*
X904752Y741001D01*
X907751Y739501D02*
X910750D01*
X909250D01*
Y748499D01*
X907751Y746999D01*
X921246Y739501D02*
X915248D01*
X921246Y745499D01*
Y746999D01*
X919747Y748499D01*
X916748D01*
X915248Y746999D01*
X905752Y712999D02*
X904252Y714499D01*
X901253D01*
X899754Y712999D01*
Y707001D01*
X901253Y705501D01*
X904252D01*
X905752Y707001D01*
X908751Y705501D02*
X911750D01*
X910250D01*
Y714499D01*
X908751Y712999D01*
X916248D02*
X917748Y714499D01*
X920747D01*
X922246Y712999D01*
Y711499D01*
X920747Y710000D01*
X919247D01*
X920747D01*
X922246Y708501D01*
Y707001D01*
X920747Y705501D01*
X917748D01*
X916248Y707001D01*
X807502Y679499D02*
Y670501D01*
X813501D01*
X816499Y677999D02*
X817999Y679499D01*
X820998D01*
X822498Y677999D01*
Y676499D01*
X820998Y675000D01*
X819499D01*
X820998D01*
X822498Y673501D01*
Y672001D01*
X820998Y670501D01*
X817999D01*
X816499Y672001D01*
X845820Y575310D02*
Y584307D01*
X850319D01*
X851818Y582808D01*
Y579809D01*
X850319Y578309D01*
X845820D01*
X848819D02*
X851818Y575310D01*
X859316D02*
X856317D01*
X854817Y576810D01*
Y579809D01*
X856317Y581308D01*
X859316D01*
X860815Y579809D01*
Y578309D01*
X854817D01*
X865314Y575310D02*
Y582808D01*
Y579809D01*
X863814D01*
X866813D01*
X865314D01*
Y582808D01*
X866813Y584307D01*
X871312D02*
Y575310D01*
X875810D01*
X877310Y576810D01*
Y582808D01*
X875810Y584307D01*
X871312D01*
X884807Y575310D02*
X881808D01*
X880309Y576810D01*
Y579809D01*
X881808Y581308D01*
X884807D01*
X886307Y579809D01*
Y578309D01*
X880309D01*
X889306Y575310D02*
X893804D01*
X895304Y576810D01*
X893804Y578309D01*
X890805D01*
X889306Y579809D01*
X890805Y581308D01*
X895304D01*
X846455Y595630D02*
Y604627D01*
X850954D01*
X852453Y603128D01*
Y600129D01*
X850954Y598629D01*
X846455D01*
X849454D02*
X852453Y595630D01*
X861450Y604627D02*
X855452D01*
Y595630D01*
X861450D01*
X855452Y600129D02*
X858451D01*
X870447Y604627D02*
X864449D01*
Y600129D01*
X867448D01*
X864449D01*
Y595630D01*
X873446Y604627D02*
Y595630D01*
X877945D01*
X879444Y597130D01*
Y603128D01*
X877945Y604627D01*
X873446D01*
X888441D02*
X882443D01*
Y595630D01*
X888441D01*
X882443Y600129D02*
X885442D01*
X897439Y603128D02*
X895939Y604627D01*
X892940D01*
X891440Y603128D01*
Y601628D01*
X892940Y600129D01*
X895939D01*
X897439Y598629D01*
Y597130D01*
X895939Y595630D01*
X892940D01*
X891440Y597130D01*
X875501Y510502D02*
X884499D01*
Y515001D01*
X882999Y516501D01*
X877001D01*
X875501Y515001D01*
Y510502D01*
Y519500D02*
Y525498D01*
X877001D01*
X882999Y519500D01*
X884499D01*
X825501Y447502D02*
X832999D01*
X834499Y449002D01*
Y452001D01*
X832999Y453501D01*
X825501D01*
Y462498D02*
Y456499D01*
X830000D01*
X828501Y459498D01*
Y460998D01*
X830000Y462498D01*
X832999D01*
X834499Y460998D01*
Y457999D01*
X832999Y456499D01*
X937754Y490502D02*
Y499498D01*
X942252D01*
X943752Y497999D01*
Y495000D01*
X942252Y493501D01*
X937754D01*
X940753D02*
X943752Y490502D01*
X946751D02*
X949750D01*
X948250D01*
Y499498D01*
X946751Y497999D01*
X960246Y499498D02*
X954248D01*
Y495000D01*
X957247Y496499D01*
X958747D01*
X960246Y495000D01*
Y492001D01*
X958747Y490502D01*
X955748D01*
X954248Y492001D01*
X937754Y477501D02*
Y486498D01*
X942252D01*
X943752Y484999D01*
Y482000D01*
X942252Y480500D01*
X937754D01*
X940753D02*
X943752Y477501D01*
X946751D02*
X949750D01*
X948250D01*
Y486498D01*
X946751Y484999D01*
X954248Y486498D02*
X960246D01*
Y484999D01*
X954248Y479001D01*
Y477501D01*
X937754Y464501D02*
Y473498D01*
X942252D01*
X943752Y471999D01*
Y469000D01*
X942252Y467500D01*
X937754D01*
X940753D02*
X943752Y464501D01*
X946751D02*
X949750D01*
X948250D01*
Y473498D01*
X946751Y471999D01*
X960246Y473498D02*
X957247Y471999D01*
X954248Y469000D01*
Y466001D01*
X955748Y464501D01*
X958747D01*
X960246Y466001D01*
Y467500D01*
X958747Y469000D01*
X954248D01*
X943752Y457999D02*
X942252Y459498D01*
X939253D01*
X937754Y457999D01*
Y452001D01*
X939253Y450502D01*
X942252D01*
X943752Y452001D01*
X946751Y450502D02*
X949750D01*
X948250D01*
Y459498D01*
X946751Y457999D01*
X960246Y459498D02*
X954248D01*
Y455000D01*
X957247Y456499D01*
X958747D01*
X960246Y455000D01*
Y452001D01*
X958747Y450502D01*
X955748D01*
X954248Y452001D01*
X944752Y442999D02*
X943252Y444499D01*
X940253D01*
X938754Y442999D01*
Y437001D01*
X940253Y435502D01*
X943252D01*
X944752Y437001D01*
X947751Y435502D02*
X950750D01*
X949250D01*
Y444499D01*
X947751Y442999D01*
X959747Y435502D02*
Y444499D01*
X955248Y440000D01*
X961246D01*
X911752Y428999D02*
X910252Y430499D01*
X907253D01*
X905754Y428999D01*
Y423001D01*
X907253Y421502D01*
X910252D01*
X911752Y423001D01*
X914751Y421502D02*
X917750D01*
X916250D01*
Y430499D01*
X914751Y428999D01*
X922248Y423001D02*
X923748Y421502D01*
X926747D01*
X928246Y423001D01*
Y428999D01*
X926747Y430499D01*
X923748D01*
X922248Y428999D01*
Y427500D01*
X923748Y426000D01*
X928246D01*
X801001Y439251D02*
X799501Y437752D01*
Y434753D01*
X801001Y433253D01*
X806999D01*
X808499Y434753D01*
Y437752D01*
X806999Y439251D01*
X808499Y442250D02*
Y445249D01*
Y443750D01*
X799501D01*
X801001Y442250D01*
X808499Y449748D02*
Y452747D01*
Y451247D01*
X799501D01*
X801001Y449748D01*
X894001Y370752D02*
X892501Y369252D01*
Y366253D01*
X894001Y364754D01*
X899999D01*
X901498Y366253D01*
Y369252D01*
X899999Y370752D01*
X901498Y373751D02*
Y376750D01*
Y375250D01*
X892501D01*
X894001Y373751D01*
X892501Y381248D02*
Y387246D01*
X894001D01*
X899999Y381248D01*
X901498D01*
X880001Y370752D02*
X878502Y369252D01*
Y366253D01*
X880001Y364754D01*
X885999D01*
X887499Y366253D01*
Y369252D01*
X885999Y370752D01*
X887499Y373751D02*
Y376750D01*
Y375250D01*
X878502D01*
X880001Y373751D01*
X878502Y387246D02*
X880001Y384247D01*
X883000Y381248D01*
X885999D01*
X887499Y382748D01*
Y385747D01*
X885999Y387246D01*
X884500D01*
X883000Y385747D01*
Y381248D01*
X823752Y379999D02*
X822252Y381499D01*
X819253D01*
X817754Y379999D01*
Y374001D01*
X819253Y372501D01*
X822252D01*
X823752Y374001D01*
X826751Y372501D02*
X829750D01*
X828250D01*
Y381499D01*
X826751Y379999D01*
X834248D02*
X835748Y381499D01*
X838747D01*
X840246Y379999D01*
Y378499D01*
X838747Y377000D01*
X840246Y375500D01*
Y374001D01*
X838747Y372501D01*
X835748D01*
X834248Y374001D01*
Y375500D01*
X835748Y377000D01*
X834248Y378499D01*
Y379999D01*
X835748Y377000D02*
X838747D01*
X796501Y361002D02*
X805499D01*
Y367000D01*
Y369999D02*
Y372998D01*
Y371498D01*
X796501D01*
X798001Y369999D01*
X897501Y345999D02*
X896001Y347499D01*
X893002D01*
X891502Y345999D01*
Y340001D01*
X893002Y338502D01*
X896001D01*
X897501Y340001D01*
X904998Y338502D02*
Y347499D01*
X900499Y343000D01*
X906498D01*
X882502Y266502D02*
X889999D01*
X891498Y268002D01*
Y271001D01*
X889999Y272500D01*
X882502D01*
X891498Y281498D02*
Y275499D01*
X885500Y281498D01*
X884001D01*
X882502Y279998D01*
Y276999D01*
X884001Y275499D01*
X941498Y315502D02*
X932501D01*
Y320001D01*
X934001Y321501D01*
X937000D01*
X938500Y320001D01*
Y315502D01*
Y318501D02*
X941498Y321501D01*
X932501Y330498D02*
X934001Y327499D01*
X937000Y324500D01*
X939999D01*
X941498Y325999D01*
Y328998D01*
X939999Y330498D01*
X938500D01*
X937000Y328998D01*
Y324500D01*
X941498Y287502D02*
X932501D01*
Y292001D01*
X934001Y293500D01*
X937000D01*
X938500Y292001D01*
Y287502D01*
Y290501D02*
X941498Y293500D01*
X934001Y296500D02*
X932501Y297999D01*
Y300998D01*
X934001Y302498D01*
X935500D01*
X937000Y300998D01*
Y299499D01*
Y300998D01*
X938500Y302498D01*
X939999D01*
X941498Y300998D01*
Y297999D01*
X939999Y296500D01*
X929501Y276999D02*
X928001Y278499D01*
X925002D01*
X923502Y276999D01*
Y271001D01*
X925002Y269501D01*
X928001D01*
X929501Y271001D01*
X938498Y278499D02*
X932499D01*
Y274000D01*
X935499Y275499D01*
X936998D01*
X938498Y274000D01*
Y271001D01*
X936998Y269501D01*
X933999D01*
X932499Y271001D01*
X940501Y232002D02*
X949499D01*
Y236500D01*
X947999Y238000D01*
X942001D01*
X940501Y236500D01*
Y232002D01*
X949499Y240999D02*
Y243998D01*
Y242499D01*
X940501D01*
X942001Y240999D01*
X876498Y186253D02*
X867501D01*
Y190752D01*
X869001Y192251D01*
X872000D01*
X873500Y190752D01*
Y186253D01*
Y189252D02*
X876498Y192251D01*
Y195250D02*
Y198249D01*
Y196750D01*
X867501D01*
X869001Y195250D01*
X876498Y202748D02*
Y205747D01*
Y204247D01*
X867501D01*
X869001Y202748D01*
X798754Y199501D02*
Y208498D01*
X803252D01*
X804752Y206999D01*
Y204000D01*
X803252Y202500D01*
X798754D01*
X801753D02*
X804752Y199501D01*
X807751D02*
X810750D01*
X809250D01*
Y208498D01*
X807751Y206999D01*
X815248D02*
X816748Y208498D01*
X819747D01*
X821246Y206999D01*
Y201001D01*
X819747Y199501D01*
X816748D01*
X815248Y201001D01*
Y206999D01*
X805752Y192999D02*
X804252Y194499D01*
X801253D01*
X799754Y192999D01*
Y187001D01*
X801253Y185501D01*
X804252D01*
X805752Y187001D01*
X808751Y185501D02*
X811750D01*
X810250D01*
Y194499D01*
X808751Y192999D01*
X816248D02*
X817748Y194499D01*
X820747D01*
X822246Y192999D01*
Y187001D01*
X820747Y185501D01*
X817748D01*
X816248Y187001D01*
Y192999D01*
X782502Y176502D02*
X791498D01*
Y181001D01*
X789999Y182500D01*
X784001D01*
X782502Y181001D01*
Y176502D01*
Y191498D02*
X784001Y188498D01*
X787000Y185499D01*
X789999D01*
X791498Y186999D01*
Y189998D01*
X789999Y191498D01*
X788500D01*
X787000Y189998D01*
Y185499D01*
X782502Y197502D02*
X791498D01*
Y202001D01*
X789999Y203500D01*
X784001D01*
X782502Y202001D01*
Y197502D01*
Y212498D02*
Y206500D01*
X787000D01*
X785500Y209499D01*
Y210998D01*
X787000Y212498D01*
X789999D01*
X791498Y210998D01*
Y207999D01*
X789999Y206500D01*
X686754Y196502D02*
Y205499D01*
X691252D01*
X692752Y203999D01*
Y201000D01*
X691252Y199501D01*
X686754D01*
X689753D02*
X692752Y196502D01*
X695751D02*
X698750D01*
X697250D01*
Y205499D01*
X695751Y203999D01*
X709246Y196502D02*
X703248D01*
X709246Y202500D01*
Y203999D01*
X707747Y205499D01*
X704748D01*
X703248Y203999D01*
X688754Y179501D02*
Y188498D01*
X693252D01*
X694752Y186999D01*
Y184000D01*
X693252Y182500D01*
X688754D01*
X691753D02*
X694752Y179501D01*
X697751D02*
X700750D01*
X699250D01*
Y188498D01*
X697751Y186999D01*
X705248D02*
X706748Y188498D01*
X709747D01*
X711246Y186999D01*
Y185499D01*
X709747Y184000D01*
X708247D01*
X709747D01*
X711246Y182500D01*
Y181001D01*
X709747Y179501D01*
X706748D01*
X705248Y181001D01*
X699001Y118500D02*
X697501Y117001D01*
Y114002D01*
X699001Y112502D01*
X704999D01*
X706498Y114002D01*
Y117001D01*
X704999Y118500D01*
X697501Y127498D02*
X699001Y124499D01*
X702000Y121500D01*
X704999D01*
X706498Y122999D01*
Y125998D01*
X704999Y127498D01*
X703500D01*
X702000Y125998D01*
Y121500D01*
X843501Y129502D02*
X850999D01*
X852498Y131002D01*
Y134001D01*
X850999Y135500D01*
X843501D01*
X852498Y142998D02*
X843501D01*
X848000Y138499D01*
Y144498D01*
X826500Y71999D02*
X825001Y73499D01*
X822002D01*
X820502Y71999D01*
Y66001D01*
X822002Y64501D01*
X825001D01*
X826500Y66001D01*
X829500Y73499D02*
X835498D01*
Y71999D01*
X829500Y66001D01*
Y64501D01*
X780499Y64754D02*
X771501D01*
Y69252D01*
X773001Y70752D01*
X776000D01*
X777499Y69252D01*
Y64754D01*
Y67753D02*
X780499Y70752D01*
Y73751D02*
Y76750D01*
Y75250D01*
X771501D01*
X773001Y73751D01*
X780499Y85747D02*
X771501D01*
X776000Y81248D01*
Y87246D01*
X707502Y38499D02*
Y29502D01*
X712001D01*
X713501Y31001D01*
Y36999D01*
X712001Y38499D01*
X707502D01*
X722498Y29502D02*
X716499D01*
X722498Y35499D01*
Y36999D01*
X720998Y38499D01*
X717999D01*
X716499Y36999D01*
X688501Y150502D02*
X697498D01*
Y155001D01*
X695999Y156500D01*
X690001D01*
X688501Y155001D01*
Y150502D01*
X690001Y159500D02*
X688501Y160999D01*
Y163998D01*
X690001Y165497D01*
X691500D01*
X693000Y163998D01*
Y162498D01*
Y163998D01*
X694500Y165497D01*
X695999D01*
X697498Y163998D01*
Y160999D01*
X695999Y159500D01*
X675001Y137000D02*
X673501Y135500D01*
Y132501D01*
X675001Y131002D01*
X680999D01*
X682498Y132501D01*
Y135500D01*
X680999Y137000D01*
X682498Y139999D02*
Y142998D01*
Y141498D01*
X673501D01*
X675001Y139999D01*
X607501Y57502D02*
X616498D01*
Y63500D01*
Y72498D02*
Y66500D01*
X610500Y72498D01*
X609001D01*
X607501Y70998D01*
Y67999D01*
X609001Y66500D01*
X619498Y151002D02*
X610501D01*
Y155500D01*
X612001Y157000D01*
X615000D01*
X616499Y155500D01*
Y151002D01*
Y154001D02*
X619498Y157000D01*
Y159999D02*
Y162998D01*
Y161499D01*
X610501D01*
X612001Y159999D01*
X612001Y132500D02*
X610501Y131001D01*
Y128002D01*
X612001Y126503D01*
X617999D01*
X619498Y128002D01*
Y131001D01*
X617999Y132500D01*
X612001Y135500D02*
X610501Y136999D01*
Y139998D01*
X612001Y141498D01*
X613500D01*
X615000Y139998D01*
Y138499D01*
Y139998D01*
X616499Y141498D01*
X617999D01*
X619498Y139998D01*
Y136999D01*
X617999Y135500D01*
X573498Y156502D02*
X564501D01*
Y161001D01*
X566001Y162500D01*
X569000D01*
X570499Y161001D01*
Y156502D01*
Y159501D02*
X573498Y162500D01*
Y171498D02*
Y165499D01*
X567500Y171498D01*
X566001D01*
X564501Y169998D01*
Y166999D01*
X566001Y165499D01*
X573498Y134502D02*
X564501D01*
Y139001D01*
X566001Y140500D01*
X569000D01*
X570499Y139001D01*
Y134502D01*
Y137501D02*
X573498Y140500D01*
X564501Y149498D02*
Y143499D01*
X569000D01*
X567500Y146498D01*
Y147998D01*
X569000Y149498D01*
X571999D01*
X573498Y147998D01*
Y144999D01*
X571999Y143499D01*
X558499Y190502D02*
X549501D01*
Y195001D01*
X551001Y196500D01*
X554000D01*
X555499Y195001D01*
Y190502D01*
Y193501D02*
X558499Y196500D01*
X556999Y199499D02*
X558499Y200999D01*
Y203998D01*
X556999Y205498D01*
X551001D01*
X549501Y203998D01*
Y200999D01*
X551001Y199499D01*
X552500D01*
X554000Y200999D01*
Y205498D01*
X545499Y190502D02*
X536501D01*
Y195001D01*
X538001Y196500D01*
X541000D01*
X542500Y195001D01*
Y190502D01*
Y193501D02*
X545499Y196500D01*
X538001Y199499D02*
X536501Y200999D01*
Y203998D01*
X538001Y205498D01*
X539501D01*
X541000Y203998D01*
X542500Y205498D01*
X543999D01*
X545499Y203998D01*
Y200999D01*
X543999Y199499D01*
X542500D01*
X541000Y200999D01*
X539501Y199499D01*
X538001D01*
X541000Y200999D02*
Y203998D01*
X528498Y163502D02*
X519501D01*
Y168001D01*
X521001Y169501D01*
X524000D01*
X525499Y168001D01*
Y163502D01*
Y166501D02*
X528498Y169501D01*
Y176998D02*
X519501D01*
X524000Y172500D01*
Y178498D01*
X542502Y45501D02*
Y54499D01*
X547001D01*
X548501Y52999D01*
Y50000D01*
X547001Y48500D01*
X542502D01*
X545501D02*
X548501Y45501D01*
X551499Y54499D02*
X557498D01*
Y52999D01*
X551499Y47001D01*
Y45501D01*
X456501Y151999D02*
X455001Y153498D01*
X452002D01*
X450502Y151999D01*
Y146001D01*
X452002Y144501D01*
X455001D01*
X456501Y146001D01*
X465498Y144501D02*
X459500D01*
X465498Y150499D01*
Y151999D01*
X463998Y153498D01*
X460999D01*
X459500Y151999D01*
X382754Y164499D02*
Y155501D01*
X387252D01*
X388752Y157001D01*
Y162999D01*
X387252Y164499D01*
X382754D01*
X391751Y155501D02*
X394750D01*
X393250D01*
Y164499D01*
X391751Y162999D01*
X399248D02*
X400748Y164499D01*
X403747D01*
X405246Y162999D01*
Y157001D01*
X403747Y155501D01*
X400748D01*
X399248Y157001D01*
Y162999D01*
X360001Y155002D02*
X358501Y153502D01*
Y150503D01*
X360001Y149004D01*
X365999D01*
X367499Y150503D01*
Y153502D01*
X365999Y155002D01*
X358501Y163999D02*
Y158001D01*
X363000D01*
X361500Y161000D01*
Y162500D01*
X363000Y163999D01*
X365999D01*
X367499Y162500D01*
Y159501D01*
X365999Y158001D01*
X360001Y166998D02*
X358501Y168498D01*
Y171497D01*
X360001Y172996D01*
X361500D01*
X363000Y171497D01*
Y169997D01*
Y171497D01*
X364500Y172996D01*
X365999D01*
X367499Y171497D01*
Y168498D01*
X365999Y166998D01*
X337001Y160501D02*
X335501Y159002D01*
Y156003D01*
X337001Y154503D01*
X342999D01*
X344498Y156003D01*
Y159002D01*
X342999Y160501D01*
X335501Y169499D02*
Y163500D01*
X340000D01*
X338500Y166500D01*
Y167999D01*
X340000Y169499D01*
X342999D01*
X344498Y167999D01*
Y165000D01*
X342999Y163500D01*
X344498Y172498D02*
Y175497D01*
Y173997D01*
X335501D01*
X337001Y172498D01*
X331002Y41501D02*
Y50499D01*
X335500D01*
X337000Y48999D01*
Y46000D01*
X335500Y44500D01*
X331002D01*
X339999Y41501D02*
X342998D01*
X341499D01*
Y50499D01*
X339999Y48999D01*
X314001Y152002D02*
X312501Y150502D01*
Y147503D01*
X314001Y146004D01*
X319999D01*
X321498Y147503D01*
Y150502D01*
X319999Y152002D01*
X312501Y160999D02*
Y155001D01*
X317000D01*
X315501Y158000D01*
Y159500D01*
X317000Y160999D01*
X319999D01*
X321498Y159500D01*
Y156500D01*
X319999Y155001D01*
X321498Y169996D02*
Y163998D01*
X315501Y169996D01*
X314001D01*
X312501Y168497D01*
Y165497D01*
X314001Y163998D01*
X565500Y296499D02*
X562501D01*
X564001D01*
Y289001D01*
X562501Y287502D01*
X561002D01*
X559502Y289001D01*
X574498Y296499D02*
X568499D01*
Y292000D01*
X571499Y293500D01*
X572998D01*
X574498Y292000D01*
Y289001D01*
X572998Y287502D01*
X569999D01*
X568499Y289001D01*
X478502Y244502D02*
X487499D01*
Y249001D01*
X485999Y250501D01*
X480001D01*
X478502Y249001D01*
Y244502D01*
X485999Y253500D02*
X487499Y254999D01*
Y257998D01*
X485999Y259498D01*
X480001D01*
X478502Y257998D01*
Y254999D01*
X480001Y253500D01*
X481501D01*
X483000Y254999D01*
Y259498D01*
X503498Y305004D02*
X494501D01*
Y309502D01*
X496001Y311002D01*
X499000D01*
X500499Y309502D01*
Y305004D01*
Y308003D02*
X503498Y311002D01*
X496001Y314001D02*
X494501Y315501D01*
Y318500D01*
X496001Y319999D01*
X497500D01*
X499000Y318500D01*
Y317000D01*
Y318500D01*
X500499Y319999D01*
X501999D01*
X503498Y318500D01*
Y315501D01*
X501999Y314001D01*
X494501Y322998D02*
Y328996D01*
X496001D01*
X501999Y322998D01*
X503498D01*
X477001Y310002D02*
X475501Y308503D01*
Y305503D01*
X477001Y304004D01*
X482999D01*
X484498Y305503D01*
Y308503D01*
X482999Y310002D01*
X477001Y313001D02*
X475501Y314501D01*
Y317500D01*
X477001Y318999D01*
X478501D01*
X480000Y317500D01*
Y316000D01*
Y317500D01*
X481499Y318999D01*
X482999D01*
X484498Y317500D01*
Y314501D01*
X482999Y313001D01*
Y321998D02*
X484498Y323498D01*
Y326497D01*
X482999Y327996D01*
X477001D01*
X475501Y326497D01*
Y323498D01*
X477001Y321998D01*
X478501D01*
X480000Y323498D01*
Y327996D01*
X467499Y304004D02*
X458501D01*
Y308503D01*
X460001Y310002D01*
X463000D01*
X464500Y308503D01*
Y304004D01*
Y307003D02*
X467499Y310002D01*
X460001Y313001D02*
X458501Y314501D01*
Y317500D01*
X460001Y318999D01*
X461500D01*
X463000Y317500D01*
Y316000D01*
Y317500D01*
X464500Y318999D01*
X465999D01*
X467499Y317500D01*
Y314501D01*
X465999Y313001D01*
X458501Y327996D02*
X460001Y324997D01*
X463000Y321998D01*
X465999D01*
X467499Y323498D01*
Y326497D01*
X465999Y327996D01*
X464500D01*
X463000Y326497D01*
Y321998D01*
X440001Y309002D02*
X438501Y307502D01*
Y304503D01*
X440001Y303004D01*
X445999D01*
X447499Y304503D01*
Y307502D01*
X445999Y309002D01*
X440001Y312001D02*
X438501Y313500D01*
Y316500D01*
X440001Y317999D01*
X441500D01*
X443000Y316500D01*
Y315000D01*
Y316500D01*
X444500Y317999D01*
X445999D01*
X447499Y316500D01*
Y313500D01*
X445999Y312001D01*
X440001Y320998D02*
X438501Y322498D01*
Y325497D01*
X440001Y326996D01*
X441500D01*
X443000Y325497D01*
X444500Y326996D01*
X445999D01*
X447499Y325497D01*
Y322498D01*
X445999Y320998D01*
X444500D01*
X443000Y322498D01*
X441500Y320998D01*
X440001D01*
X443000Y322498D02*
Y325497D01*
X555499Y373503D02*
X546501D01*
Y378002D01*
X548001Y379501D01*
X551000D01*
X552500Y378002D01*
Y373503D01*
Y376502D02*
X555499Y379501D01*
X546501Y388498D02*
Y382500D01*
X551000D01*
X549501Y385499D01*
Y386999D01*
X551000Y388498D01*
X553999D01*
X555499Y386999D01*
Y384000D01*
X553999Y382500D01*
X555499Y391497D02*
Y394497D01*
Y392997D01*
X546501D01*
X548001Y391497D01*
X516754Y389498D02*
Y380501D01*
X521252D01*
X522752Y382001D01*
Y387999D01*
X521252Y389498D01*
X516754D01*
X525751Y380501D02*
X528750D01*
X527250D01*
Y389498D01*
X525751Y387999D01*
X533248D02*
X534748Y389498D01*
X537747D01*
X539246Y387999D01*
Y386499D01*
X537747Y385000D01*
X536247D01*
X537747D01*
X539246Y383501D01*
Y382001D01*
X537747Y380501D01*
X534748D01*
X533248Y382001D01*
X497500D02*
Y387999D01*
X496001Y389498D01*
X493002D01*
X491502Y387999D01*
Y382001D01*
X493002Y380501D01*
X496001D01*
X494501Y383501D02*
X497500Y380501D01*
X496001D02*
X497500Y382001D01*
X500499Y389498D02*
X506498D01*
Y387999D01*
X500499Y382001D01*
Y380501D01*
X472499Y371004D02*
X463501D01*
Y375502D01*
X465001Y377002D01*
X468000D01*
X469500Y375502D01*
Y371004D01*
Y374003D02*
X472499Y377002D01*
X463501Y385999D02*
Y380001D01*
X468000D01*
X466501Y383000D01*
Y384500D01*
X468000Y385999D01*
X470999D01*
X472499Y384500D01*
Y381501D01*
X470999Y380001D01*
Y388998D02*
X472499Y390498D01*
Y393497D01*
X470999Y394996D01*
X465001D01*
X463501Y393497D01*
Y390498D01*
X465001Y388998D01*
X466501D01*
X468000Y390498D01*
Y394996D01*
X454498Y371004D02*
X445501D01*
Y375502D01*
X447001Y377002D01*
X450000D01*
X451499Y375502D01*
Y371004D01*
Y374003D02*
X454498Y377002D01*
X445501Y385999D02*
Y380001D01*
X450000D01*
X448500Y383000D01*
Y384500D01*
X450000Y385999D01*
X452999D01*
X454498Y384500D01*
Y381501D01*
X452999Y380001D01*
X445501Y394996D02*
Y388998D01*
X450000D01*
X448500Y391997D01*
Y393497D01*
X450000Y394996D01*
X452999D01*
X454498Y393497D01*
Y390498D01*
X452999Y388998D01*
X554498Y433004D02*
X545501D01*
Y437502D01*
X547001Y439002D01*
X550000D01*
X551499Y437502D01*
Y433004D01*
Y436003D02*
X554498Y439002D01*
X545501Y447999D02*
Y442001D01*
X550000D01*
X548500Y445000D01*
Y446499D01*
X550000Y447999D01*
X552999D01*
X554498Y446499D01*
Y443501D01*
X552999Y442001D01*
X547001Y450998D02*
X545501Y452498D01*
Y455497D01*
X547001Y456996D01*
X552999D01*
X554498Y455497D01*
Y452498D01*
X552999Y450998D01*
X547001D01*
X524501Y436754D02*
X533498D01*
Y441252D01*
X531999Y442752D01*
X526001D01*
X524501Y441252D01*
Y436754D01*
X533498Y445751D02*
Y448750D01*
Y447250D01*
X524501D01*
X526001Y445751D01*
X533498Y459246D02*
Y453248D01*
X527500Y459246D01*
X526001D01*
X524501Y457747D01*
Y454748D01*
X526001Y453248D01*
X495500Y442001D02*
Y447999D01*
X494001Y449498D01*
X491002D01*
X489502Y447999D01*
Y442001D01*
X491002Y440502D01*
X494001D01*
X492501Y443501D02*
X495500Y440502D01*
X494001D02*
X495500Y442001D01*
X504498Y449498D02*
X501498Y447999D01*
X498499Y445000D01*
Y442001D01*
X499999Y440502D01*
X502998D01*
X504498Y442001D01*
Y443501D01*
X502998Y445000D01*
X498499D01*
X474498Y431004D02*
X465501D01*
Y435502D01*
X467001Y437002D01*
X470000D01*
X471499Y435502D01*
Y431004D01*
Y434003D02*
X474498Y437002D01*
X465501Y445999D02*
Y440001D01*
X470000D01*
X468500Y443000D01*
Y444500D01*
X470000Y445999D01*
X472999D01*
X474498Y444500D01*
Y441501D01*
X472999Y440001D01*
X467001Y448998D02*
X465501Y450498D01*
Y453497D01*
X467001Y454996D01*
X468500D01*
X470000Y453497D01*
X471499Y454996D01*
X472999D01*
X474498Y453497D01*
Y450498D01*
X472999Y448998D01*
X471499D01*
X470000Y450498D01*
X468500Y448998D01*
X467001D01*
X470000Y450498D02*
Y453497D01*
X455499Y432004D02*
X446501D01*
Y436502D01*
X448001Y438002D01*
X451000D01*
X452500Y436502D01*
Y432004D01*
Y435003D02*
X455499Y438002D01*
X446501Y446999D02*
Y441001D01*
X451000D01*
X449501Y444000D01*
Y445499D01*
X451000Y446999D01*
X453999D01*
X455499Y445499D01*
Y442500D01*
X453999Y441001D01*
X455499Y454497D02*
X446501D01*
X451000Y449998D01*
Y455996D01*
X562500Y486498D02*
X559501D01*
X561001D01*
Y479001D01*
X559501Y477501D01*
X558002D01*
X556502Y479001D01*
X565499Y486498D02*
X571498D01*
Y484999D01*
X565499Y479001D01*
Y477501D01*
X504498Y494004D02*
X495501D01*
Y498502D01*
X497001Y500002D01*
X500000D01*
X501499Y498502D01*
Y494004D01*
Y497003D02*
X504498Y500002D01*
Y507500D02*
X495501D01*
X500000Y503001D01*
Y508999D01*
X497001Y511998D02*
X495501Y513498D01*
Y516497D01*
X497001Y517996D01*
X502999D01*
X504498Y516497D01*
Y513498D01*
X502999Y511998D01*
X497001D01*
X465499Y494004D02*
X456501D01*
Y498502D01*
X458001Y500002D01*
X461000D01*
X462500Y498502D01*
Y494004D01*
Y497003D02*
X465499Y500002D01*
X458001Y503001D02*
X456501Y504501D01*
Y507500D01*
X458001Y508999D01*
X459501D01*
X461000Y507500D01*
Y506000D01*
Y507500D01*
X462500Y508999D01*
X463999D01*
X465499Y507500D01*
Y504501D01*
X463999Y503001D01*
Y511998D02*
X465499Y513498D01*
Y516497D01*
X463999Y517996D01*
X458001D01*
X456501Y516497D01*
Y513498D01*
X458001Y511998D01*
X459501D01*
X461000Y513498D01*
Y517996D01*
X440001Y515002D02*
X438501Y513502D01*
Y510503D01*
X440001Y509004D01*
X445999D01*
X447499Y510503D01*
Y513502D01*
X445999Y515002D01*
X447499Y522500D02*
X438501D01*
X443000Y518001D01*
Y523999D01*
X447499Y532996D02*
Y526998D01*
X441500Y532996D01*
X440001D01*
X438501Y531497D01*
Y528498D01*
X440001Y526998D01*
X503364Y800256D02*
Y791259D01*
X507863D01*
X509363Y792758D01*
Y798756D01*
X507863Y800256D01*
X503364D01*
X512362Y798756D02*
X513861Y800256D01*
X516860D01*
X518360Y798756D01*
Y797257D01*
X516860Y795757D01*
X518360Y794258D01*
Y792758D01*
X516860Y791259D01*
X513861D01*
X512362Y792758D01*
Y794258D01*
X513861Y795757D01*
X512362Y797257D01*
Y798756D01*
X513861Y795757D02*
X516860D01*
X285432Y859438D02*
Y851940D01*
X286932Y850441D01*
X289931D01*
X291431Y851940D01*
Y859438D01*
X300428D02*
X297429Y857938D01*
X294430Y854939D01*
Y851940D01*
X295929Y850441D01*
X298928D01*
X300428Y851940D01*
Y853440D01*
X298928Y854939D01*
X294430D01*
X578002Y76499D02*
Y69001D01*
X579501Y67502D01*
X582500D01*
X584000Y69001D01*
Y76499D01*
X586999Y67502D02*
X589998D01*
X588498D01*
Y76499D01*
X586999Y74999D01*
X510223Y114202D02*
Y105205D01*
X514721D01*
X516221Y106704D01*
Y112702D01*
X514721Y114202D01*
X510223D01*
X523718Y105205D02*
Y114202D01*
X519220Y109703D01*
X525218D01*
X343501Y614606D02*
X342001Y616106D01*
X339002D01*
X337503Y614606D01*
Y608608D01*
X339002Y607109D01*
X342001D01*
X343501Y608608D01*
X350998Y607109D02*
Y616106D01*
X346500Y611607D01*
X352498D01*
X355497Y614606D02*
X356996Y616106D01*
X359995D01*
X361495Y614606D01*
Y613107D01*
X359995Y611607D01*
X361495Y610108D01*
Y608608D01*
X359995Y607109D01*
X356996D01*
X355497Y608608D01*
Y610108D01*
X356996Y611607D01*
X355497Y613107D01*
Y614606D01*
X356996Y611607D02*
X359995D01*
X477001Y514002D02*
X475501Y512503D01*
Y509503D01*
X477001Y508004D01*
X482999D01*
X484498Y509503D01*
Y512503D01*
X482999Y514002D01*
X484498Y521499D02*
X475501D01*
X480000Y517001D01*
Y522999D01*
X477001Y525998D02*
X475501Y527498D01*
Y530497D01*
X477001Y531996D01*
X478501D01*
X480000Y530497D01*
Y528997D01*
Y530497D01*
X481499Y531996D01*
X482999D01*
X484498Y530497D01*
Y527498D01*
X482999Y525998D01*
D20*
X835287Y428079D02*
Y442049D01*
D21*
X750507Y175817D02*
Y177087D01*
Y175817D02*
X773366D01*
X750507Y192327D02*
Y193597D01*
X773366D01*
Y175817D02*
Y177087D01*
Y192327D02*
Y193597D01*
Y208837D02*
Y210107D01*
X750507D02*
X773366D01*
Y192327D02*
Y193597D01*
X750507Y192327D02*
X773366D01*
X750507Y208837D02*
Y210107D01*
Y192327D02*
Y193597D01*
X537146Y345997D02*
X538416D01*
Y368857D01*
X537146D02*
X538416D01*
X520636Y345997D02*
X521907D01*
X520636D02*
Y368857D01*
X521907D01*
X537146Y403147D02*
X538416D01*
Y426007D01*
X537146D02*
X538416D01*
X520636Y403147D02*
X521907D01*
X520636D02*
Y426007D01*
X521907D01*
X531851Y782989D02*
Y784259D01*
X508991D02*
X531851D01*
X508991Y782989D02*
Y784259D01*
X531851Y766479D02*
Y767749D01*
X508991Y766479D02*
X531851D01*
X508991D02*
Y767749D01*
X525780Y68580D02*
X527050D01*
Y91440D01*
X525780D02*
X527050D01*
X509270Y68580D02*
X510540D01*
X509270D02*
Y91440D01*
X510540D01*
D22*
X557467Y85647D02*
X577786D01*
D23*
X804000Y251092D02*
Y226000D01*
X816546D01*
X820728Y230182D01*
Y234364D01*
X816546Y238546D01*
X804000D01*
X816546D01*
X820728Y242728D01*
Y246910D01*
X816546Y251092D01*
X804000D01*
X829092Y238546D02*
X845820D01*
X837456Y246910D02*
Y230182D01*
X802000Y966992D02*
Y942000D01*
X814496D01*
X818661Y946165D01*
Y950331D01*
X814496Y954496D01*
X802000D01*
X814496D01*
X818661Y958661D01*
Y962827D01*
X814496Y966992D01*
X802000D01*
X826992Y954496D02*
X843653D01*
X23003Y342000D02*
X33000D01*
Y346998D01*
X31334Y348665D01*
X29668D01*
X28002Y346998D01*
Y342000D01*
Y346998D01*
X26335Y348665D01*
X24669D01*
X23003Y346998D01*
Y342000D01*
Y351997D02*
X31334D01*
X33000Y353663D01*
Y356995D01*
X31334Y358661D01*
X23003D01*
Y361994D02*
Y368658D01*
Y365326D01*
X33000D01*
X23003Y371990D02*
Y378655D01*
Y375323D01*
X33000D01*
X23003Y386986D02*
Y383653D01*
X24669Y381987D01*
X31334D01*
X33000Y383653D01*
Y386986D01*
X31334Y388652D01*
X24669D01*
X23003Y386986D01*
X33000Y391984D02*
X23003D01*
X33000Y398648D01*
X23003D01*
X33000Y411978D02*
Y415310D01*
Y413644D01*
X23003D01*
X24669Y411978D01*
X23003Y476000D02*
X33000D01*
Y480998D01*
X31334Y482664D01*
X29668D01*
X28002Y480998D01*
Y476000D01*
Y480998D01*
X26335Y482664D01*
X24669D01*
X23003Y480998D01*
Y476000D01*
Y485997D02*
X31334D01*
X33000Y487663D01*
Y490995D01*
X31334Y492661D01*
X23003D01*
Y495993D02*
Y502658D01*
Y499326D01*
X33000D01*
X23003Y505990D02*
Y512655D01*
Y509323D01*
X33000D01*
X23003Y520985D02*
Y517653D01*
X24669Y515987D01*
X31334D01*
X33000Y517653D01*
Y520985D01*
X31334Y522652D01*
X24669D01*
X23003Y520985D01*
X33000Y525984D02*
X23003D01*
X33000Y532648D01*
X23003D01*
X24669Y545977D02*
X23003Y547644D01*
Y550976D01*
X24669Y552642D01*
X31334D01*
X33000Y550976D01*
Y547644D01*
X31334Y545977D01*
X24669D01*
X34000Y619000D02*
X24003D01*
Y623998D01*
X25669Y625664D01*
X29002D01*
X30668Y623998D01*
Y619000D01*
Y622332D02*
X34000Y625664D01*
X24003Y635661D02*
Y628997D01*
X34000D01*
Y635661D01*
X29002Y628997D02*
Y632329D01*
X25669Y645658D02*
X24003Y643992D01*
Y640660D01*
X25669Y638994D01*
X27336D01*
X29002Y640660D01*
Y643992D01*
X30668Y645658D01*
X32334D01*
X34000Y643992D01*
Y640660D01*
X32334Y638994D01*
X24003Y655655D02*
Y648990D01*
X34000D01*
Y655655D01*
X29002Y648990D02*
Y652323D01*
X24003Y658987D02*
Y665652D01*
Y662319D01*
X34000D01*
X170665Y722331D02*
X168998Y723997D01*
X165666D01*
X164000Y722331D01*
Y715666D01*
X165666Y714000D01*
X168998D01*
X170665Y715666D01*
Y718998D01*
X167332D01*
X173997Y714000D02*
Y723997D01*
X180661Y714000D01*
Y723997D01*
X190658Y722331D02*
X188992Y723997D01*
X185660D01*
X183994Y722331D01*
Y720665D01*
X185660Y718998D01*
X188992D01*
X190658Y717332D01*
Y715666D01*
X188992Y714000D01*
X185660D01*
X183994Y715666D01*
X200655Y722331D02*
X198989Y723997D01*
X195657D01*
X193990Y722331D01*
Y720665D01*
X195657Y718998D01*
X198989D01*
X200655Y717332D01*
Y715666D01*
X198989Y714000D01*
X195657D01*
X193990Y715666D01*
X525000Y315000D02*
Y324997D01*
X528332Y321665D01*
X531665Y324997D01*
Y315000D01*
X534997D02*
Y321665D01*
X538329Y324997D01*
X541661Y321665D01*
Y315000D01*
Y319998D01*
X534997D01*
X544994Y324997D02*
X548326D01*
X546660D01*
Y315000D01*
X544994D01*
X548326D01*
X553324D02*
Y324997D01*
X559989Y315000D01*
Y324997D01*
X523000Y508000D02*
Y514664D01*
X526332Y517997D01*
X529664Y514664D01*
Y508000D01*
Y512998D01*
X523000D01*
X532997Y517997D02*
Y509666D01*
X534663Y508000D01*
X537995D01*
X539661Y509666D01*
Y517997D01*
X542994D02*
X549658Y508000D01*
Y517997D02*
X542994Y508000D01*
X111669Y87664D02*
X110003Y85998D01*
Y82666D01*
X111669Y81000D01*
X113336D01*
X115002Y82666D01*
Y85998D01*
X116668Y87664D01*
X118334D01*
X120000Y85998D01*
Y82666D01*
X118334Y81000D01*
X110003Y90997D02*
Y94329D01*
Y92663D01*
X120000D01*
Y90997D01*
Y94329D01*
Y99327D02*
X110003D01*
X113336Y102660D01*
X110003Y105992D01*
X120000D01*
X111669Y125985D02*
X110003Y124319D01*
Y120987D01*
X111669Y119321D01*
X118334D01*
X120000Y120987D01*
Y124319D01*
X118334Y125985D01*
X120000Y129318D02*
X113336D01*
X110003Y132650D01*
X113336Y135982D01*
X120000D01*
X115002D01*
Y129318D01*
X120000Y139314D02*
X110003D01*
Y144313D01*
X111669Y145979D01*
X115002D01*
X116668Y144313D01*
Y139314D01*
Y142647D02*
X120000Y145979D01*
X110003Y149311D02*
X120000D01*
Y154310D01*
X118334Y155976D01*
X111669D01*
X110003Y154310D01*
Y149311D01*
X70669Y777664D02*
X69003Y775998D01*
Y772666D01*
X70669Y771000D01*
X72336D01*
X74002Y772666D01*
Y775998D01*
X75668Y777664D01*
X77334D01*
X79000Y775998D01*
Y772666D01*
X77334Y771000D01*
X69003Y780997D02*
X79000D01*
Y785995D01*
X77334Y787661D01*
X70669D01*
X69003Y785995D01*
Y780997D01*
X70669Y807655D02*
X69003Y805989D01*
Y802656D01*
X70669Y800990D01*
X77334D01*
X79000Y802656D01*
Y805989D01*
X77334Y807655D01*
X79000Y810987D02*
X72336D01*
X69003Y814319D01*
X72336Y817652D01*
X79000D01*
X74002D01*
Y810987D01*
X79000Y820984D02*
X69003D01*
Y825982D01*
X70669Y827648D01*
X74002D01*
X75668Y825982D01*
Y820984D01*
Y824316D02*
X79000Y827648D01*
X69003Y830981D02*
X79000D01*
Y835979D01*
X77334Y837645D01*
X70669D01*
X69003Y835979D01*
Y830981D01*
X359000Y104997D02*
X362332D01*
X360666D01*
Y95000D01*
X359000D01*
X362332D01*
X367331D02*
Y104997D01*
X373995Y95000D01*
Y104997D01*
X377327Y95000D02*
Y104997D01*
X382326D01*
X383992Y103331D01*
Y99998D01*
X382326Y98332D01*
X377327D01*
X387324Y104997D02*
Y96666D01*
X388990Y95000D01*
X392323D01*
X393989Y96666D01*
Y104997D01*
X397321D02*
X403985D01*
X400653D01*
Y95000D01*
X325000Y81331D02*
X326666Y82997D01*
X329998D01*
X331665Y81331D01*
Y74666D01*
X329998Y73000D01*
X326666D01*
X325000Y74666D01*
Y81331D01*
X334997Y82997D02*
Y76332D01*
X338329Y73000D01*
X341661Y76332D01*
Y82997D01*
X290000Y119000D02*
X293332D01*
X291666D01*
Y128997D01*
X290000Y127331D01*
X304995Y119000D02*
X298331D01*
X304995Y125665D01*
Y127331D01*
X303329Y128997D01*
X299997D01*
X298331Y127331D01*
X308327Y123998D02*
X314992D01*
X324989Y119000D02*
X318324D01*
X324989Y125665D01*
Y127331D01*
X323323Y128997D01*
X319990D01*
X318324Y127331D01*
X333319Y119000D02*
Y128997D01*
X328321Y123998D01*
X334986D01*
X338318Y128997D02*
Y122332D01*
X341650Y119000D01*
X344982Y122332D01*
Y128997D01*
D24*
X236220Y992230D02*
D03*
D25*
X818504Y504418D02*
D03*
D26*
Y529437D02*
D03*
D27*
X836760Y452464D02*
D03*
D28*
X920686Y226109D02*
D03*
X740410Y47752D02*
D03*
X671830Y153162D02*
D03*
D29*
X920686Y260272D02*
D03*
X740410Y81915D02*
D03*
X671830Y187325D02*
D03*
D30*
X381254Y221621D02*
D03*
X494221Y271702D02*
D03*
D31*
X406273Y221621D02*
D03*
X519240Y271702D02*
D03*
M02*
