M48
;Layer_Color=9474304
;FILE_FORMAT=4:4
METRIC,LZ
;TYPE=PLATED
T01F00S00C0.3000
T02F00S00C0.5000
T04F00S00C0.8000
T05F00S00C1.1000
T06F00S00C1.8000
;TYPE=NON_PLATED
T07F00S00C0.6500
T08F00S00C1.0000
T09F00S00C3.2000
%
T01
X0006223Y0027178
X00097907Y00304097
X001524Y0019177
X0013335Y0046482
Y0047498
X0053213Y0018034
X0084455Y0021209
X0055118Y0061849
X0053086Y0065786
X0045085Y0061976
X0049784Y007747
X0048133Y0080772
X0046863
X004699Y0087757
X004572Y0088138
X0044958Y0089027
X0032766Y0085852
X0032641Y00851207
X0029591Y0085598
X0028956Y008636
X0028194
X002794Y0087122
X0027813Y0088011
X0029845Y0087757
X003048Y0086868
X002921Y0089408
X002794Y0085217
X0028067Y0084455
Y0083693
X0025146Y0082677
Y0084836
Y0085979
X0023835Y008157
X0022479Y0080518
X0022606Y0079375
Y0078232
X00277661Y00782671
X0027305Y007747
X00274522Y00764168
X00270301Y00758249
X0026416Y0075311
X0024638Y0074422
X0030861Y0074676
X0031368Y007366
X0034925Y0071628
Y0070612
X0038617Y00671404
X0040386Y0066167
X00394802Y00620069
X002921Y0056515
X0026162
X00251328Y00565516
X0026416Y0067564
X0027686
X00319556Y00792617
X00325056Y00790339
X00330557Y00792617
X00332835Y00798117
X00330557Y00803617
X00325056Y00805895
X00319556Y00803617
X00317278Y00798117
X0037592Y0079629
Y0080391
X002Y00815
X00169Y0089916
X0010795Y0071247
X0010033Y0070485
X0008763Y0070358
X0050038Y0092583
T02
X00615Y00015
X00625
X00635
X00645
X00656
X00666
Y00026
X00656
Y00037
X00666057Y00036876
X00645057
X00635Y00037
X00625057Y00036876
X00615Y00037
Y00026
X00625
X00635
X00645
X00787Y00059
Y00069
X00798
Y00059
X00808876Y00058943
X00809Y00069
X00327Y00319
X00317
Y0033
X00327
X00327057Y00340876
X00317Y00341
X00306057Y00340876
X00296Y00341
X00286057Y00340876
X00276Y00341
Y0033
X00286
X00296
X00306
Y00319
X00296
X00286
X00276
X00142Y00354
X00093792Y00228663
X00070124Y00231057
X00069124Y00194057
X00058124
X00077124Y00503057
X00707Y0038
X00717
X00728
X00738
X00748
X00758
Y00369
X00748
X00738
X00728
X00727943Y00358124
X00738Y00358
X00747943Y00358124
X00758Y00358
X00717
X00706943Y00358124
X00707Y00369
X00717
X00731Y00165
X00741057Y00164876
X00741Y00154
X00731
Y00143
X00741
X00702057Y00140876
X00692Y00141
Y0013
X00702
Y00119
X00692
X00607876Y00164943
X00608Y00175
X00597
Y00165
X00586
Y00175
X00894124Y00183057
Y00193057
Y00203057
X00905124
Y00193057
Y00183057
X00916124
X00916Y00193
X00916124Y00203057
X00913Y00345
X00913124Y00355057
X00924Y00355
Y00345
X00935
Y00355
X00936Y00415
Y00425
X00925
Y00415
X00914
X00914124Y00425057
X0087Y00455
Y00465
X00859
Y00455
X00848124Y00465057
X0089Y00517
Y00527
X00901
Y00517
X00911876Y00516943
X00912Y00527
X00916943Y00712124
X00927Y00712
Y00723
X00917
Y00734
X00927
Y00744
X00916943Y00744124
X00917Y00755
X00927
Y00766
X00917
Y00777
Y00787
X00906124Y00787057
X00906Y00777
X00895
Y00787
X00884
Y00777
X00873
X00873124Y00787057
X00928Y00787
Y00777
X00685057Y00674876
X00675Y00675
Y00664
X00685
Y00653
X00675
X00664
X00654
X00644
X00634
Y00664
X00644
X00654
X00664
X00664057Y00674876
X00654Y00675
X00644057Y00674876
X00634Y00675
Y00641
X00644057Y00640876
X00654Y00641
X00664057Y00640876
X00664Y0063
X00654
X00644
X00634
Y00619
X00644
X00654
X00664
X00675
X00685
Y0063
X00675
Y00641
X00685057Y00640876
X00578Y00647
X00507Y0082
X0047Y00793
X00469876Y00782943
X00459Y00783
Y00793
X00448
Y00783
X00325056Y00798117
X00221Y00837
X00152Y00826
Y00816
X00141
Y00826
X00209Y0067
Y0066
Y0065
Y0064
Y00629
Y00619
X0022
Y00629
X00231
X00230876Y00618943
Y00639943
X00231Y0065
X00230876Y00659943
X00231Y0067
X0022
Y0066
Y0065
Y0064
X00087Y00636
Y00625
X0006Y00609
X00077124Y00514057
X00181Y00915
Y00925
X00192
Y00915
X00797943Y00931124
X00808Y00931
Y00942
X00798
Y00953
X00808
X0082
X0083
Y00942
X0082
X00819943Y00931124
X0083Y00931
X00831Y00966
X00820943Y00966124
X00821Y00977
X00831
Y00988
X00821
X00808
X00798
Y00977
X00808
Y00966
X00797943Y00966124
X00843943
X00854Y00966
Y00977
X00844
Y00988
X00854
Y00953
X00844
Y00942
X00854
Y00931
X00843943Y00931124
T04
X0054737Y0087376
Y0089916
T05
X0021082Y0093853
Y0096393
X0023622
X0026162
Y0093853
X0023622
T06
X00381Y0007246
Y0012746
X00684157Y00239197
Y00968197
T07
X00407916Y00934057
X00465717
T08
X0013335Y007747
Y008547
T09
X00684157Y00327097
Y00883297
M30
