<svg id="my-svg" width="100%" xmlns="http://www.w3.org/2000/svg" xmlns:xlink="http://www.w3.org/1999/xlink" style="max-width: 700px; background-color: white;" viewBox="0 0 700 500" role="graphics-document document" aria-roledescription="xychart"><style>#my-svg{font-family:Noto Sans,Segoe UI,Arial,sans-serif;font-size:22px;fill:#111827;}@keyframes edge-animation-frame{from{stroke-dashoffset:0;}}@keyframes dash{to{stroke-dashoffset:0;}}#my-svg .edge-animation-slow{stroke-dasharray:9,5!important;stroke-dashoffset:900;animation:dash 50s linear infinite;stroke-linecap:round;}#my-svg .edge-animation-fast{stroke-dasharray:9,5!important;stroke-dashoffset:900;animation:dash 20s linear infinite;stroke-linecap:round;}#my-svg .error-icon{fill:#eef2ff;}#my-svg .error-text{fill:#110d00;stroke:#110d00;}#my-svg .edge-thickness-normal{stroke-width:1px;}#my-svg .edge-thickness-thick{stroke-width:3.5px;}#my-svg .edge-pattern-solid{stroke-dasharray:0;}#my-svg .edge-thickness-invisible{stroke-width:0;fill:none;}#my-svg .edge-pattern-dashed{stroke-dasharray:3;}#my-svg .edge-pattern-dotted{stroke-dasharray:2;}#my-svg .marker{fill:#1f2937;stroke:#1f2937;}#my-svg .marker.cross{stroke:#1f2937;}#my-svg svg{font-family:Noto Sans,Segoe UI,Arial,sans-serif;font-size:22px;}#my-svg p{margin:0;}#my-svg :root{--mermaid-font-family:Noto Sans,Segoe UI,Arial,sans-serif;}</style><g/><g class="main"><rect width="700" height="500" class="background" fill="#f4f4f4"/><g class="chart-title"><text x="0" y="0" fill="#111827" font-size="20" dominant-baseline="middle" text-anchor="middle" transform="translate(350, 23.5) rotate(0)">So sánh chỉ tiêu thiết kế và kết quả đạt được</text></g><g class="plot"><g class="bar-plot-0"><rect x="72.89883003234863" y="96.29999999999998" width="68.59296875" height="367.70000000000005" fill="#FFF4DD" stroke="#FFF4DD" stroke-width="0"/><rect x="184.2394546508789" y="116.20000000000002" width="68.59296875" height="347.79999999999995" fill="#FFF4DD" stroke="#FFF4DD" stroke-width="0"/><rect x="295.5800792694092" y="104.25999999999999" width="68.59296875" height="359.74" fill="#FFF4DD" stroke="#FFF4DD" stroke-width="0"/><rect x="406.92070388793945" y="136.09999999999997" width="68.59296875" height="327.90000000000003" fill="#FFF4DD" stroke="#FFF4DD" stroke-width="0"/><rect x="518.2613285064698" y="128.14000000000001" width="68.59296875" height="335.86" fill="#FFF4DD" stroke="#FFF4DD" stroke-width="0"/><rect x="629.601953125" y="120.18" width="68.59296875" height="343.82" fill="#FFF4DD" stroke="#FFF4DD" stroke-width="0"/></g><g class="bar-plot-1"><rect x="72.89883003234863" y="104.25999999999999" width="68.59296875" height="359.74" fill="#FFD8B1" stroke="#FFD8B1" stroke-width="0"/><rect x="184.2394546508789" y="136.09999999999997" width="68.59296875" height="327.90000000000003" fill="#FFD8B1" stroke="#FFD8B1" stroke-width="0"/><rect x="295.5800792694092" y="112.22" width="68.59296875" height="351.78" fill="#FFD8B1" stroke="#FFD8B1" stroke-width="0"/><rect x="406.92070388793945" y="144.06" width="68.59296875" height="319.94" fill="#FFD8B1" stroke="#FFD8B1" stroke-width="0"/><rect x="518.2613285064698" y="140.07999999999998" width="68.59296875" height="323.92" fill="#FFD8B1" stroke="#FFD8B1" stroke-width="0"/><rect x="629.601953125" y="132.11999999999998" width="68.59296875" height="331.88" fill="#FFD8B1" stroke="#FFD8B1" stroke-width="0"/></g></g><g class="bottom-axis"><g class="axis-line"><path d="M 71.09375190734863,465 L 700,465" fill="none" stroke="#111827" stroke-width="2"/></g><g class="label"><text x="0" y="0" fill="#111827" font-size="14" dominant-baseline="text-before-edge" text-anchor="middle" transform="translate(107.19531440734863, 476) rotate(0)">GPS</text><text x="0" y="0" fill="#111827" font-size="14" dominant-baseline="text-before-edge" text-anchor="middle" transform="translate(218.53593902587892, 476) rotate(0)">Độ trễ</text><text x="0" y="0" fill="#111827" font-size="14" dominant-baseline="text-before-edge" text-anchor="middle" transform="translate(329.8765636444092, 476) rotate(0)">Độ ổn định</text><text x="0" y="0" fill="#111827" font-size="14" dominant-baseline="text-before-edge" text-anchor="middle" transform="translate(441.21718826293943, 476) rotate(0)">Tiêu thụ</text><text x="0" y="0" fill="#111827" font-size="14" dominant-baseline="text-before-edge" text-anchor="middle" transform="translate(552.5578128814698, 476) rotate(0)">Trải nghiệm</text><text x="0" y="0" fill="#111827" font-size="14" dominant-baseline="text-before-edge" text-anchor="middle" transform="translate(663.8984375, 476) rotate(0)">Bảo mật</text></g><g class="ticks"><path d="M 107.19531440734863,466 L 107.19531440734863,471" fill="none" stroke="#111827" stroke-width="2"/><path d="M 218.53593902587892,466 L 218.53593902587892,471" fill="none" stroke="#111827" stroke-width="2"/><path d="M 329.8765636444092,466 L 329.8765636444092,471" fill="none" stroke="#111827" stroke-width="2"/><path d="M 441.21718826293943,466 L 441.21718826293943,471" fill="none" stroke="#111827" stroke-width="2"/><path d="M 552.5578128814698,466 L 552.5578128814698,471" fill="none" stroke="#111827" stroke-width="2"/><path d="M 663.8984375,466 L 663.8984375,471" fill="none" stroke="#111827" stroke-width="2"/></g></g><g class="left-axis"><g class="axisl-line"><path d="M 70.09375190734863,47 L 70.09375190734863,464" fill="none" stroke="#111827" stroke-width="2"/></g><g class="label"><text x="0" y="0" fill="#111827" font-size="14" dominant-baseline="middle" text-anchor="end" transform="translate(59.09375190734863, 56.5) rotate(0)">100</text><text x="0" y="0" fill="#111827" font-size="14" dominant-baseline="middle" text-anchor="end" transform="translate(59.09375190734863, 96.29999999999998) rotate(0)">90</text><text x="0" y="0" fill="#111827" font-size="14" dominant-baseline="middle" text-anchor="end" transform="translate(59.09375190734863, 136.09999999999997) rotate(0)">80</text><text x="0" y="0" fill="#111827" font-size="14" dominant-baseline="middle" text-anchor="end" transform="translate(59.09375190734863, 175.90000000000003) rotate(0)">70</text><text x="0" y="0" fill="#111827" font-size="14" dominant-baseline="middle" text-anchor="end" transform="translate(59.09375190734863, 215.70000000000002) rotate(0)">60</text><text x="0" y="0" fill="#111827" font-size="14" dominant-baseline="middle" text-anchor="end" transform="translate(59.09375190734863, 255.5) rotate(0)">50</text><text x="0" y="0" fill="#111827" font-size="14" dominant-baseline="middle" text-anchor="end" transform="translate(59.09375190734863, 295.3) rotate(0)">40</text><text x="0" y="0" fill="#111827" font-size="14" dominant-baseline="middle" text-anchor="end" transform="translate(59.09375190734863, 335.09999999999997) rotate(0)">30</text><text x="0" y="0" fill="#111827" font-size="14" dominant-baseline="middle" text-anchor="end" transform="translate(59.09375190734863, 374.90000000000003) rotate(0)">20</text><text x="0" y="0" fill="#111827" font-size="14" dominant-baseline="middle" text-anchor="end" transform="translate(59.09375190734863, 414.7) rotate(0)">10</text><text x="0" y="0" fill="#111827" font-size="14" dominant-baseline="middle" text-anchor="end" transform="translate(59.09375190734863, 454.5) rotate(0)">0</text></g><g class="ticks"><path d="M 69.09375190734863,56.5 L 64.09375190734863,56.5" fill="none" stroke="#111827" stroke-width="2"/><path d="M 69.09375190734863,96.29999999999998 L 64.09375190734863,96.29999999999998" fill="none" stroke="#111827" stroke-width="2"/><path d="M 69.09375190734863,136.09999999999997 L 64.09375190734863,136.09999999999997" fill="none" stroke="#111827" stroke-width="2"/><path d="M 69.09375190734863,175.90000000000003 L 64.09375190734863,175.90000000000003" fill="none" stroke="#111827" stroke-width="2"/><path d="M 69.09375190734863,215.70000000000002 L 64.09375190734863,215.70000000000002" fill="none" stroke="#111827" stroke-width="2"/><path d="M 69.09375190734863,255.5 L 64.09375190734863,255.5" fill="none" stroke="#111827" stroke-width="2"/><path d="M 69.09375190734863,295.3 L 64.09375190734863,295.3" fill="none" stroke="#111827" stroke-width="2"/><path d="M 69.09375190734863,335.09999999999997 L 64.09375190734863,335.09999999999997" fill="none" stroke="#111827" stroke-width="2"/><path d="M 69.09375190734863,374.90000000000003 L 64.09375190734863,374.90000000000003" fill="none" stroke="#111827" stroke-width="2"/><path d="M 69.09375190734863,414.7 L 64.09375190734863,414.7" fill="none" stroke="#111827" stroke-width="2"/><path d="M 69.09375190734863,454.5 L 64.09375190734863,454.5" fill="none" stroke="#111827" stroke-width="2"/></g><g class="title"><text x="0" y="0" fill="#111827" font-size="16" dominant-baseline="text-before-edge" text-anchor="middle" transform="translate(5, 255.5) rotate(270)">Điểm (%)</text></g></g></g><g class="mermaid-tmp-group"/></svg>