<svg xmlns="http://www.w3.org/2000/svg" width="1920" height="1080" viewBox="0 0 1920 1080" role="img" aria-label="Biểu đồ 2x2 so sánh các hướng triển khai">
  <defs>
    <marker id="arrow" markerWidth="12" markerHeight="12" refX="10" refY="6" orient="auto" markerUnits="strokeWidth">
      <path d="M0,0 L12,6 L0,12 Z" fill="#334155"/>
    </marker>
    <filter id="shadow" x="-20%" y="-20%" width="140%" height="140%">
      <feDropShadow dx="8" dy="12" stdDeviation="2" flood-color="#dbe4ee" flood-opacity="0.85"/>
    </filter>
  </defs>
  <rect width="1920" height="1080" fill="#ffffff"/>
  <rect x="250" y="170" width="715" height="365" fill="#f8fafc"/>
  <rect x="965" y="170" width="715" height="365" fill="#edf7ff"/>
  <rect x="250" y="535" width="715" height="365" fill="#f8fafc"/>
  <rect x="965" y="535" width="715" height="365" fill="#f8fafc"/>
  <g stroke="#d7dee7" stroke-width="2">
    <line x1="607.5" y1="170" x2="607.5" y2="900"/>
    <line x1="1322.5" y1="170" x2="1322.5" y2="900"/>
    <line x1="250" y1="352.5" x2="1680" y2="352.5"/>
    <line x1="250" y1="717.5" x2="1680" y2="717.5"/>
  </g>
  <line x1="965" y1="170" x2="965" y2="900" stroke="#94a3b8" stroke-width="3"/>
  <line x1="250" y1="535" x2="1680" y2="535" stroke="#94a3b8" stroke-width="3"/>
  <line x1="250" y1="900" x2="1680" y2="900" stroke="#334155" stroke-width="5" marker-end="url(#arrow)"/>
  <line x1="250" y1="900" x2="250" y2="170" stroke="#334155" stroke-width="5" marker-end="url(#arrow)"/>
  <text x="960" y="975" text-anchor="middle" font-family="Segoe UI, Arial, sans-serif" font-size="34" font-weight="700" fill="#263238">Mức độ tự chủ &amp; tùy biến</text>
  <text x="84" y="540" text-anchor="middle" font-family="Segoe UI, Arial, sans-serif" font-size="34" font-weight="700" fill="#263238" transform="rotate(-90 84 540)">Phạm vi dữ liệu khai thác</text>
  <text x="145" y="160" text-anchor="middle" font-family="Segoe UI, Arial, sans-serif" font-size="28" fill="#6b7280">Rộng</text>
  <text x="145" y="870" text-anchor="middle" font-family="Segoe UI, Arial, sans-serif" font-size="28" fill="#6b7280">Hẹp</text>
  <text x="190" y="952" text-anchor="middle" font-family="Segoe UI, Arial, sans-serif" font-size="28" fill="#6b7280">Thấp</text>
  <text x="1722" y="927" text-anchor="middle" font-family="Segoe UI, Arial, sans-serif" font-size="28" fill="#6b7280">Cao</text>
  <g filter="url(#shadow)">
    <ellipse cx="520" cy="690" rx="185" ry="110" fill="#f1f5f9" stroke="#cbd5e1" stroke-width="4"/>
    <path d="M520 624c-20 0-36 16-36 36 0 27 36 76 36 76s36-49 36-76c0-20-16-36-36-36zm0 49a14 14 0 1 1 0-28 14 14 0 0 1 0 28z" fill="#475569"/>
    <text x="520" y="760" text-anchor="middle" font-family="Segoe UI, Arial, sans-serif" font-size="32" font-weight="700" fill="#334155">Định vị cơ bản</text>
  </g>
  <g filter="url(#shadow)">
    <ellipse cx="1220" cy="705" rx="210" ry="118" fill="#f1f5f9" stroke="#cbd5e1" stroke-width="4"/>
    <path d="M1162 660h120m-98 0 24-24h52l26 24m-100 18a13 13 0 1 0 0 1m82 0a13 13 0 1 0 0 1" fill="none" stroke="#475569" stroke-width="5" stroke-linecap="round" stroke-linejoin="round"/>
    <rect x="1270" y="635" width="48" height="48" rx="6" fill="none" stroke="#475569" stroke-width="4"/>
    <text x="1220" y="780" text-anchor="middle" font-family="Segoe UI, Arial, sans-serif" font-size="32" font-weight="700" fill="#334155">Định vị + OBD-II</text>
  </g>
  <g filter="url(#shadow)">
    <ellipse cx="530" cy="330" rx="220" ry="122" fill="#eef2f7" stroke="#cbd5e1" stroke-width="4"/>
    <path d="M487 283c2-20 21-35 43-30 10-22 42-28 62-10 15 0 28 10 31 25" fill="none" stroke="#475569" stroke-width="4" stroke-linecap="round"/>
    <rect x="499" y="308" width="62" height="16" fill="none" stroke="#475569" stroke-width="4"/>
    <rect x="499" y="332" width="62" height="16" fill="none" stroke="#475569" stroke-width="4"/>
    <text x="530" y="380" text-anchor="middle" font-family="Segoe UI, Arial, sans-serif" font-size="32" font-weight="700" fill="#334155">Nền tảng thương mại</text>
  </g>
  <g filter="url(#shadow)">
    <ellipse cx="1240" cy="330" rx="330" ry="150" fill="#1a5276" stroke="#38bdf8" stroke-width="5"/>
    <path d="M1240 232l14 30 33 5-24 23 6 33-29-16-29 16 6-33-24-23 33-5z" fill="#ffffff"/>
    <text x="1240" y="362" text-anchor="middle" font-family="Segoe UI, Arial, sans-serif" font-size="35" font-weight="800" fill="#ffffff">
      <tspan x="1240" dy="0">HỆ THỐNG GIÁM SÁT XE CHO</tspan>
      <tspan x="1240" dy="48">THUÊ TỰ LÁI</tspan>
    </text>
  </g>
</svg>
