G04*
G04 #@! TF.GenerationSoftware,Altium Limited,Altium Designer Agile,26.0.0 (14)*
G04*
G04 Layer_Physical_Order=2*
G04 Layer_Color=16711680*
%FSLAX44Y44*%
%MOMM*%
G71*
G04*
G04 #@! TF.SameCoordinates,0EC658AE-B92D-4037-890B-B76A4C77EE7A*
G04*
G04*
G04 #@! TF.FilePolarity,Positive*
G04*
G01*
G75*
%ADD153C,0.1600*%
%ADD154C,0.4000*%
%ADD156C,0.8000*%
%ADD157C,0.5000*%
%ADD159C,3.2000*%
%ADD160R,3.0000X3.0000*%
%ADD161C,1.6000*%
%ADD162R,1.6000X1.6000*%
G04:AMPARAMS|DCode=163|XSize=1.6mm|YSize=1.6mm|CornerRadius=0.4mm|HoleSize=0mm|Usage=FLASHONLY|Rotation=180.000|XOffset=0mm|YOffset=0mm|HoleType=Round|Shape=RoundedRectangle|*
%AMROUNDEDRECTD163*
21,1,1.6000,0.8000,0,0,180.0*
21,1,0.8000,1.6000,0,0,180.0*
1,1,0.8000,-0.4000,0.4000*
1,1,0.8000,0.4000,0.4000*
1,1,0.8000,0.4000,-0.4000*
1,1,0.8000,-0.4000,-0.4000*
%
%ADD163ROUNDEDRECTD163*%
%ADD164C,2.7000*%
G04:AMPARAMS|DCode=165|XSize=2.7mm|YSize=2.7mm|CornerRadius=0.675mm|HoleSize=0mm|Usage=FLASHONLY|Rotation=0.000|XOffset=0mm|YOffset=0mm|HoleType=Round|Shape=RoundedRectangle|*
%AMROUNDEDRECTD165*
21,1,2.7000,1.3500,0,0,0.0*
21,1,1.3500,2.7000,0,0,0.0*
1,1,1.3500,0.6750,-0.6750*
1,1,1.3500,-0.6750,-0.6750*
1,1,1.3500,-0.6750,0.6750*
1,1,1.3500,0.6750,0.6750*
%
%ADD165ROUNDEDRECTD165*%
%ADD166C,1.0000*%
%ADD167O,1.0000X1.8000*%
%ADD168O,1.0000X2.1000*%
%ADD169C,0.6500*%
%ADD170C,0.8000*%
%ADD171C,0.5000*%
%ADD172C,0.6000*%
G36*
X967961Y2039D02*
X2039D01*
X2039Y997961D01*
X967961D01*
Y2039D01*
D02*
G37*
%LPC*%
G36*
X240805Y977070D02*
X240805Y977070D01*
X168082D01*
X168082Y977070D01*
X167274Y976910D01*
X166590Y976452D01*
X166590Y976452D01*
X141560Y951422D01*
X141102Y950737D01*
X140941Y949930D01*
X140941Y949930D01*
Y785926D01*
X86158Y731142D01*
X85849Y731270D01*
X84151D01*
X82581Y730620D01*
X81380Y729419D01*
X80730Y727849D01*
Y726151D01*
X81380Y724581D01*
X82581Y723380D01*
X84151Y722730D01*
X85849D01*
X87419Y723380D01*
X87755Y723717D01*
X88577Y723553D01*
X89778Y722352D01*
X91348Y721702D01*
X93046D01*
X94616Y722352D01*
X94706Y722442D01*
X96380Y722581D01*
X97581Y721380D01*
X99151Y720730D01*
X100849D01*
X102419Y721380D01*
X103620Y722581D01*
X104270Y724151D01*
Y725849D01*
X104142Y726158D01*
X167034Y789050D01*
X167034Y789050D01*
X167492Y789734D01*
X167652Y790542D01*
Y873755D01*
X170226Y876329D01*
X251028D01*
X255380Y871977D01*
X255252Y871669D01*
Y869970D01*
X255902Y868401D01*
X257103Y867200D01*
X257568Y867007D01*
X258406Y865676D01*
X258239Y865129D01*
X257792Y864049D01*
Y862350D01*
X258442Y860781D01*
X259643Y859580D01*
X261213Y858930D01*
X262911D01*
X263761Y857550D01*
Y855832D01*
X262161Y855169D01*
X261941Y855390D01*
X260371Y856040D01*
X258673D01*
X258364Y855912D01*
X253394Y860882D01*
X252710Y861340D01*
X251902Y861500D01*
X251902Y861500D01*
X235329D01*
X235202Y861808D01*
X234001Y863010D01*
X232431Y863660D01*
X230733D01*
X229163Y863010D01*
X227962Y861808D01*
X227312Y860239D01*
Y858540D01*
X227962Y856971D01*
X229163Y855770D01*
X230733Y855120D01*
X232431D01*
X234001Y855770D01*
X235202Y856971D01*
X235329Y857279D01*
X251028D01*
X255380Y852927D01*
X255252Y852619D01*
Y850920D01*
X254684Y850070D01*
X235329D01*
X235202Y850378D01*
X234001Y851580D01*
X232431Y852230D01*
X230733D01*
X229163Y851580D01*
X227962Y850378D01*
X227312Y848809D01*
Y847110D01*
X227962Y845541D01*
X229163Y844340D01*
X230733Y843690D01*
X232431D01*
X234001Y844340D01*
X235202Y845541D01*
X235329Y845849D01*
X255288D01*
X256522Y844615D01*
Y843300D01*
X257172Y841731D01*
X257518Y841385D01*
X258242Y840340D01*
X257518Y839295D01*
X257172Y838949D01*
X257044Y838640D01*
X235392D01*
X235392Y838640D01*
X234584Y838480D01*
X233900Y838022D01*
X230090Y834212D01*
X229632Y833527D01*
X229471Y832720D01*
X229471Y832720D01*
Y830117D01*
X229163Y829990D01*
X227962Y828789D01*
X227312Y827219D01*
Y825520D01*
X227962Y823951D01*
X229163Y822750D01*
X230733Y822100D01*
X232431D01*
X233397Y822500D01*
X234303Y821143D01*
X220050Y806890D01*
X208659D01*
X208532Y807198D01*
X207331Y808400D01*
X205761Y809050D01*
X204063D01*
X202493Y808400D01*
X201292Y807198D01*
X200642Y805629D01*
Y803930D01*
X201292Y802361D01*
X202493Y801160D01*
X204063Y800510D01*
X205761D01*
X207331Y801160D01*
X208532Y802361D01*
X208659Y802669D01*
X220414D01*
X221100Y801340D01*
X221129Y801121D01*
X215468Y795460D01*
X209930D01*
X209802Y795769D01*
X208601Y796970D01*
X207031Y797620D01*
X205333D01*
X203763Y796970D01*
X202562Y795769D01*
X201912Y794199D01*
Y792500D01*
X202562Y790931D01*
X203763Y789730D01*
X205333Y789080D01*
X207031D01*
X208601Y789730D01*
X209802Y790931D01*
X209930Y791239D01*
X216342D01*
X216342Y791239D01*
X216669Y791304D01*
X217457Y789830D01*
X211658Y784030D01*
X209930D01*
X209802Y784339D01*
X208601Y785540D01*
X207031Y786190D01*
X205333D01*
X203763Y785540D01*
X202562Y784339D01*
X201912Y782769D01*
Y781070D01*
X202562Y779501D01*
X203763Y778300D01*
X205333Y777650D01*
X207031D01*
X208601Y778300D01*
X209802Y779501D01*
X209930Y779809D01*
X211829D01*
X212492Y778209D01*
X204673Y770390D01*
X160543D01*
X160543Y770390D01*
X159735Y770230D01*
X159051Y769772D01*
X27830Y638551D01*
X27372Y637866D01*
X27211Y637058D01*
X27211Y637058D01*
Y224471D01*
X27211Y224471D01*
X27372Y223663D01*
X27830Y222978D01*
X70300Y180508D01*
X70300Y180508D01*
X70985Y180050D01*
X71793Y179889D01*
X461317D01*
X466110Y175097D01*
X465982Y174789D01*
Y173090D01*
X466632Y171521D01*
X467833Y170320D01*
X469403Y169670D01*
X471101D01*
X472671Y170320D01*
X473872Y171521D01*
X474522Y173090D01*
Y174789D01*
X473872Y176358D01*
X472671Y177560D01*
X471101Y178210D01*
X469403D01*
X469094Y178082D01*
X464587Y182589D01*
X465250Y184189D01*
X673889D01*
Y62000D01*
X673889Y62000D01*
X674050Y61192D01*
X674508Y60508D01*
X682508Y52508D01*
X682508Y52508D01*
X683192Y52050D01*
X684000Y51889D01*
X684000Y51889D01*
X723170D01*
X723532Y51015D01*
X725015Y49532D01*
X726952Y48730D01*
X729048D01*
X730985Y49532D01*
X732468Y51015D01*
X733270Y52952D01*
Y55048D01*
X732468Y56985D01*
X730985Y58468D01*
X729048Y59270D01*
X726952D01*
X725015Y58468D01*
X723532Y56985D01*
X723170Y56111D01*
X684874D01*
X678111Y62874D01*
Y185362D01*
X677950Y186170D01*
X677492Y186855D01*
X677492Y186855D01*
X676555Y187792D01*
X675870Y188250D01*
X675063Y188410D01*
X675063Y188410D01*
X137650D01*
X136581Y190010D01*
X136792Y190520D01*
Y192219D01*
X136142Y193789D01*
X134941Y194990D01*
X133371Y195640D01*
X131673D01*
X130103Y194990D01*
X128902Y193789D01*
X128774Y193480D01*
X72436D01*
X44462Y221454D01*
Y267632D01*
X44771Y267760D01*
X45972Y268961D01*
X46100Y269269D01*
X58862D01*
X58862Y269269D01*
X59670Y269430D01*
X60354Y269887D01*
X79521Y289055D01*
X79522Y289055D01*
X79979Y289739D01*
X80140Y290547D01*
Y299949D01*
X80448Y300077D01*
X81649Y301278D01*
X82299Y302848D01*
Y304546D01*
X81649Y306116D01*
X80448Y307317D01*
X78879Y307967D01*
X77180D01*
X75610Y307317D01*
X74409Y306116D01*
X73759Y304546D01*
Y302848D01*
X74409Y301278D01*
X75610Y300077D01*
X75919Y299949D01*
Y291421D01*
X57988Y273490D01*
X46100D01*
X45972Y273799D01*
X44771Y275000D01*
X43201Y275650D01*
X41503D01*
X39933Y275000D01*
X38732Y273799D01*
X38082Y272229D01*
Y270530D01*
X38732Y268961D01*
X39933Y267760D01*
X40241Y267632D01*
Y222686D01*
X38763Y222073D01*
X34302Y226534D01*
Y634995D01*
X162606Y763299D01*
X207452D01*
X207452Y763299D01*
X208260Y763460D01*
X208944Y763917D01*
X243886Y798859D01*
X255712D01*
X255712Y798859D01*
X256520Y799020D01*
X257204Y799477D01*
X295004Y837277D01*
X296482Y836664D01*
Y824129D01*
X296482Y824129D01*
X296643Y823322D01*
X297100Y822637D01*
X325340Y794397D01*
X325340Y794397D01*
X326024Y793940D01*
X326832Y793779D01*
X352294D01*
X352422Y793471D01*
X353623Y792270D01*
X355193Y791620D01*
X356891D01*
X358461Y792270D01*
X359662Y793471D01*
X360312Y795040D01*
Y796739D01*
X359662Y798308D01*
X359316Y798654D01*
X358592Y799700D01*
X359316Y800745D01*
X359662Y801091D01*
X360312Y802660D01*
Y804359D01*
X360097Y804879D01*
X361166Y806479D01*
X394142D01*
X394142Y806479D01*
X394950Y806640D01*
X395634Y807097D01*
X418494Y829957D01*
X418494Y829957D01*
X418952Y830642D01*
X419113Y831450D01*
Y891535D01*
X422956Y895379D01*
X427106D01*
X427203Y895179D01*
X427283Y893490D01*
X426082Y892289D01*
X425432Y890719D01*
Y889020D01*
X426082Y887451D01*
X427283Y886250D01*
X427591Y886122D01*
Y831417D01*
X378951Y782776D01*
X321076D01*
X320461Y783391D01*
X319776Y783849D01*
X318969Y784009D01*
X318969Y784009D01*
X261684D01*
X261403Y784689D01*
X260201Y785891D01*
X258632Y786541D01*
X256933D01*
X255364Y785891D01*
X254163Y784689D01*
X253513Y783120D01*
Y781421D01*
X254033Y780165D01*
X253570Y779077D01*
X253182Y778570D01*
X252323D01*
X250753Y777920D01*
X249552Y776719D01*
X248902Y775149D01*
Y773450D01*
X249552Y771881D01*
X250124Y771309D01*
X250027Y770330D01*
X227659Y747962D01*
X227351Y748090D01*
X225653D01*
X224083Y747440D01*
X222882Y746238D01*
X222232Y744669D01*
Y742970D01*
X222882Y741401D01*
X224083Y740200D01*
X225653Y739550D01*
X227351D01*
X228921Y740200D01*
X230122Y741401D01*
X230772Y742970D01*
Y744669D01*
X230644Y744977D01*
X238412Y752745D01*
X240012Y752082D01*
Y751860D01*
X240662Y750291D01*
X241863Y749090D01*
X243433Y748440D01*
X245131D01*
X246701Y749090D01*
X247902Y750291D01*
X248058Y750668D01*
X284739D01*
X285401Y749068D01*
X285112Y748779D01*
X284462Y747209D01*
Y745510D01*
X285112Y743941D01*
X286313Y742740D01*
X286621Y742612D01*
Y720564D01*
X245439Y679382D01*
X245131Y679510D01*
X243433D01*
X241863Y678860D01*
X240662Y677658D01*
X240012Y676089D01*
Y674390D01*
X240662Y672821D01*
X241863Y671620D01*
X243433Y670970D01*
X245131D01*
X246701Y671620D01*
X247902Y672821D01*
X248552Y674390D01*
Y676089D01*
X248424Y676397D01*
X290034Y718007D01*
X290811Y717877D01*
X291634Y717428D01*
Y712877D01*
X258139Y679382D01*
X257831Y679510D01*
X256133D01*
X254563Y678860D01*
X253362Y677658D01*
X252712Y676089D01*
Y674390D01*
X253362Y672821D01*
X254563Y671620D01*
X256133Y670970D01*
X257831D01*
X259401Y671620D01*
X260602Y672821D01*
X261252Y674390D01*
Y676089D01*
X261124Y676397D01*
X295237Y710510D01*
X295695Y711195D01*
X295856Y712003D01*
Y732429D01*
X296220Y732580D01*
X297422Y733781D01*
X298072Y735350D01*
Y737049D01*
X297422Y738618D01*
X296220Y739820D01*
X294651Y740470D01*
X292952D01*
X292442Y740258D01*
X291132Y741134D01*
X291145Y742223D01*
X291179Y742768D01*
X292352Y743941D01*
X293002Y745510D01*
Y747209D01*
X292352Y748779D01*
X292062Y749068D01*
X292725Y750668D01*
X319539D01*
X351391Y718816D01*
Y665080D01*
X351391Y665080D01*
X351552Y664272D01*
X352010Y663587D01*
X365979Y649617D01*
X365980Y649617D01*
X366664Y649160D01*
X367472Y648999D01*
X504632D01*
X504632Y648999D01*
X505440Y649160D01*
X506124Y649617D01*
X509824Y653317D01*
X510133Y653190D01*
X511831D01*
X513401Y653840D01*
X514602Y655041D01*
X515252Y656610D01*
Y658309D01*
X514602Y659878D01*
X513401Y661080D01*
X511831Y661730D01*
X510133D01*
X508563Y661080D01*
X507362Y659878D01*
X506712Y658309D01*
Y656610D01*
X506840Y656302D01*
X503758Y653220D01*
X368346D01*
X355612Y665954D01*
Y718914D01*
X357179Y719769D01*
X357741Y719375D01*
Y668557D01*
X357741Y668557D01*
X357902Y667749D01*
X358360Y667065D01*
X365647Y659777D01*
X366331Y659320D01*
X367139Y659159D01*
X367139Y659159D01*
X380234D01*
X380362Y658851D01*
X381563Y657650D01*
X383133Y657000D01*
X384831D01*
X386401Y657650D01*
X387602Y658851D01*
X388252Y660420D01*
Y662119D01*
X387602Y663689D01*
X386401Y664890D01*
X384831Y665540D01*
X383133D01*
X381563Y664890D01*
X380362Y663689D01*
X380234Y663380D01*
X368013D01*
X366259Y665134D01*
X366922Y666734D01*
X367142D01*
X368711Y667384D01*
X369912Y668586D01*
X370562Y670155D01*
Y671854D01*
X369912Y673423D01*
X368711Y674624D01*
X368312Y674789D01*
Y720960D01*
X368312Y720960D01*
X368152Y721767D01*
X367694Y722452D01*
X367694Y722452D01*
X325020Y765127D01*
X325085Y765686D01*
X325571Y766727D01*
X472483D01*
X472483Y766727D01*
X473291Y766888D01*
X473975Y767345D01*
X476793Y770162D01*
X477113Y770030D01*
X478811D01*
X480381Y770680D01*
X481582Y771881D01*
X482232Y773450D01*
Y775149D01*
X481582Y776719D01*
X480381Y777920D01*
X478811Y778570D01*
X477113D01*
X475543Y777920D01*
X474342Y776719D01*
X473692Y775149D01*
Y773450D01*
X473815Y773154D01*
X471609Y770948D01*
X257949D01*
X257068Y772548D01*
X257442Y773450D01*
Y773769D01*
X258683Y774718D01*
X258738Y774729D01*
X381442D01*
X381442Y774729D01*
X382250Y774890D01*
X382934Y775347D01*
X438814Y831227D01*
X439272Y831912D01*
X439432Y832720D01*
X439432Y832720D01*
Y877232D01*
X439741Y877360D01*
X440942Y878561D01*
X441525Y879969D01*
X442267Y880314D01*
X443192Y880565D01*
X445752Y878005D01*
Y876320D01*
X446402Y874751D01*
X447603Y873550D01*
X447911Y873422D01*
Y811590D01*
X447903D01*
X446333Y810940D01*
X445132Y809738D01*
X444482Y808169D01*
Y806470D01*
X445132Y804901D01*
X446333Y803700D01*
X447903Y803050D01*
X449601D01*
X451171Y803700D01*
X452372Y804901D01*
X453022Y806470D01*
Y808169D01*
X452372Y809738D01*
X452053Y810057D01*
X452132Y810457D01*
X452132Y810457D01*
Y873422D01*
X452441Y873550D01*
X453642Y874751D01*
X454292Y876320D01*
Y877812D01*
X454836Y878232D01*
X455770Y878597D01*
X459341Y875025D01*
Y811067D01*
X459033Y810940D01*
X457832Y809738D01*
X457182Y808169D01*
Y806470D01*
X457832Y804901D01*
X459033Y803700D01*
X460603Y803050D01*
X462301D01*
X463871Y803700D01*
X465072Y804901D01*
X465722Y806470D01*
Y808169D01*
X465072Y809738D01*
X463871Y810940D01*
X463563Y811067D01*
Y875025D01*
X481994Y893457D01*
X482452Y894142D01*
X482612Y894950D01*
Y921682D01*
X482921Y921810D01*
X484122Y923011D01*
X484772Y924580D01*
Y926279D01*
X484122Y927849D01*
X482921Y929050D01*
X481351Y929700D01*
X479653D01*
X478083Y929050D01*
X476882Y927849D01*
X476232Y926279D01*
Y924580D01*
X476882Y923011D01*
X478083Y921810D01*
X478391Y921682D01*
Y895824D01*
X461452Y878885D01*
X437544Y902792D01*
X436860Y903250D01*
X436052Y903410D01*
X436052Y903410D01*
X420812D01*
X420004Y903250D01*
X419320Y902792D01*
X411700Y895172D01*
X411242Y894487D01*
X411081Y893680D01*
X411081Y893680D01*
Y834864D01*
X391998Y815780D01*
X323896D01*
X316718Y822958D01*
Y851294D01*
X316718Y851294D01*
X316557Y852102D01*
X316100Y852787D01*
X316100Y852787D01*
X311924Y856962D01*
X312052Y857270D01*
Y858969D01*
X311402Y860538D01*
X310201Y861740D01*
X308631Y862390D01*
X306933D01*
X305363Y861740D01*
X305173Y861550D01*
X303573Y862212D01*
Y869519D01*
X303412Y870327D01*
X302955Y871012D01*
X280683Y893284D01*
Y918630D01*
X280683Y918630D01*
X280522Y919437D01*
X280064Y920122D01*
X280064Y920122D01*
X247864Y952322D01*
X247180Y952780D01*
X247101Y952795D01*
X247101Y954427D01*
X247798Y954566D01*
X249541Y955730D01*
X250706Y957474D01*
X251115Y959530D01*
Y967530D01*
X250706Y969586D01*
X249541Y971329D01*
X247798Y972494D01*
X245742Y972903D01*
X243853D01*
Y974023D01*
X243692Y974830D01*
X243234Y975515D01*
X243234Y975515D01*
X242297Y976452D01*
X241612Y976910D01*
X240805Y977070D01*
D02*
G37*
G36*
X945576Y992039D02*
X942424D01*
X942227Y992000D01*
X942026D01*
X938935Y991385D01*
X938750Y991308D01*
X938553Y991269D01*
X935641Y990063D01*
X935474Y989951D01*
X935288Y989874D01*
X932668Y988123D01*
X932526Y987981D01*
X932359Y987870D01*
X930130Y985641D01*
X930018Y985474D01*
X929876Y985332D01*
X928125Y982712D01*
X928049Y982526D01*
X927937Y982359D01*
X926731Y979447D01*
X926692Y979250D01*
X926615Y979065D01*
X926000Y975974D01*
Y975773D01*
X925961Y975576D01*
Y972424D01*
X926000Y972227D01*
Y972026D01*
X926615Y968935D01*
X926692Y968750D01*
X926731Y968553D01*
X927937Y965641D01*
X928049Y965474D01*
X928125Y965288D01*
X929876Y962668D01*
X930018Y962526D01*
X930130Y962359D01*
X932359Y960130D01*
X932526Y960018D01*
X932668Y959876D01*
X935288Y958126D01*
X935474Y958049D01*
X935641Y957937D01*
X938553Y956731D01*
X938750Y956692D01*
X938935Y956615D01*
X942026Y956000D01*
X942227D01*
X942424Y955961D01*
X945576D01*
X945773Y956000D01*
X945974D01*
X949065Y956615D01*
X949250Y956692D01*
X949447Y956731D01*
X952359Y957937D01*
X952526Y958049D01*
X952712Y958126D01*
X955332Y959876D01*
X955474Y960018D01*
X955641Y960130D01*
X957870Y962359D01*
X957981Y962526D01*
X958123Y962668D01*
X959874Y965288D01*
X959951Y965474D01*
X960063Y965641D01*
X961269Y968553D01*
X961308Y968750D01*
X961385Y968935D01*
X962000Y972026D01*
Y972227D01*
X962039Y972424D01*
Y975576D01*
X962000Y975773D01*
Y975974D01*
X961385Y979065D01*
X961308Y979250D01*
X961269Y979447D01*
X960063Y982359D01*
X959951Y982526D01*
X959874Y982712D01*
X958123Y985332D01*
X957981Y985474D01*
X957870Y985641D01*
X955641Y987870D01*
X955474Y987981D01*
X955332Y988123D01*
X952712Y989874D01*
X952526Y989951D01*
X952359Y990063D01*
X949447Y991269D01*
X949250Y991308D01*
X949065Y991385D01*
X945974Y992000D01*
X945773D01*
X945576Y992039D01*
D02*
G37*
G36*
X27576D02*
X24424D01*
X24227Y992000D01*
X24026D01*
X20935Y991385D01*
X20750Y991308D01*
X20553Y991269D01*
X17641Y990063D01*
X17474Y989951D01*
X17288Y989874D01*
X14668Y988123D01*
X14526Y987981D01*
X14359Y987870D01*
X12130Y985641D01*
X12018Y985474D01*
X11876Y985332D01*
X10125Y982712D01*
X10049Y982526D01*
X9937Y982359D01*
X8731Y979447D01*
X8692Y979250D01*
X8615Y979065D01*
X8000Y975974D01*
Y975773D01*
X7961Y975576D01*
Y972424D01*
X8000Y972227D01*
Y972026D01*
X8615Y968935D01*
X8692Y968750D01*
X8731Y968553D01*
X9937Y965641D01*
X10049Y965474D01*
X10125Y965288D01*
X11876Y962668D01*
X12018Y962526D01*
X12130Y962359D01*
X14359Y960130D01*
X14526Y960018D01*
X14668Y959876D01*
X17288Y958126D01*
X17474Y958049D01*
X17641Y957937D01*
X20553Y956731D01*
X20750Y956692D01*
X20935Y956615D01*
X24026Y956000D01*
X24227D01*
X24424Y955961D01*
X27576D01*
X27773Y956000D01*
X27974D01*
X31065Y956615D01*
X31250Y956692D01*
X31447Y956731D01*
X34359Y957937D01*
X34526Y958049D01*
X34712Y958126D01*
X37332Y959876D01*
X37474Y960018D01*
X37641Y960130D01*
X39870Y962359D01*
X39982Y962526D01*
X40124Y962668D01*
X41874Y965288D01*
X41951Y965474D01*
X42063Y965641D01*
X43269Y968553D01*
X43308Y968750D01*
X43385Y968935D01*
X44000Y972026D01*
Y972227D01*
X44039Y972424D01*
Y975576D01*
X44000Y975773D01*
Y975974D01*
X43385Y979065D01*
X43308Y979250D01*
X43269Y979447D01*
X42063Y982359D01*
X41951Y982526D01*
X41874Y982712D01*
X40124Y985332D01*
X39982Y985474D01*
X39870Y985641D01*
X37641Y987870D01*
X37474Y987981D01*
X37332Y988123D01*
X34712Y989874D01*
X34526Y989951D01*
X34359Y990063D01*
X31447Y991269D01*
X31250Y991308D01*
X31065Y991385D01*
X27974Y992000D01*
X27773D01*
X27576Y992039D01*
D02*
G37*
G36*
X446982Y939406D02*
X444695D01*
X442581Y938531D01*
X440964Y936913D01*
X440089Y934800D01*
Y932513D01*
X440964Y930399D01*
X442581Y928782D01*
X444695Y927906D01*
X446982D01*
X449096Y928782D01*
X450713Y930399D01*
X451589Y932513D01*
Y934800D01*
X450713Y936913D01*
X449096Y938531D01*
X446982Y939406D01*
D02*
G37*
G36*
X389182D02*
X386895D01*
X384781Y938531D01*
X383164Y936913D01*
X382288Y934800D01*
Y932513D01*
X383164Y930399D01*
X384781Y928782D01*
X386895Y927906D01*
X389182D01*
X391296Y928782D01*
X392913Y930399D01*
X393788Y932513D01*
Y934800D01*
X392913Y936913D01*
X391296Y938531D01*
X389182Y939406D01*
D02*
G37*
G36*
X672822Y904600D02*
X669178D01*
X665604Y903889D01*
X662237Y902495D01*
X659207Y900470D01*
X656630Y897893D01*
X654605Y894863D01*
X653211Y891496D01*
X652500Y887922D01*
Y884278D01*
X653211Y880704D01*
X654605Y877337D01*
X656630Y874307D01*
X659207Y871730D01*
X662237Y869706D01*
X665604Y868311D01*
X669178Y867600D01*
X672822D01*
X676396Y868311D01*
X679763Y869706D01*
X682793Y871730D01*
X685370Y874307D01*
X687394Y877337D01*
X688789Y880704D01*
X689500Y884278D01*
Y887922D01*
X688789Y891496D01*
X687394Y894863D01*
X685370Y897893D01*
X682793Y900470D01*
X679763Y902495D01*
X676396Y903889D01*
X672822Y904600D01*
D02*
G37*
G36*
X536762Y882630D02*
X518222D01*
Y864090D01*
X536762D01*
Y882630D01*
D02*
G37*
G36*
X114459Y861799D02*
X112485D01*
X110577Y861288D01*
X108867Y860301D01*
X107471Y858905D01*
X106483Y857195D01*
X105972Y855287D01*
Y853312D01*
X106483Y851405D01*
X107471Y849695D01*
X108867Y848298D01*
X110577Y847311D01*
X112485Y846800D01*
X114459D01*
X116367Y847311D01*
X118077Y848298D01*
X119473Y849695D01*
X120461Y851405D01*
X120972Y853312D01*
Y855287D01*
X120461Y857195D01*
X119473Y858905D01*
X118077Y860301D01*
X116367Y861288D01*
X114459Y861799D01*
D02*
G37*
G36*
X219321Y819569D02*
X217623D01*
X216053Y818919D01*
X215418Y818284D01*
X182386D01*
X180971Y818870D01*
X179273D01*
X177703Y818220D01*
X176502Y817019D01*
X175852Y815449D01*
Y813750D01*
X176502Y812181D01*
X177703Y810980D01*
X179273Y810330D01*
X180971D01*
X182541Y810980D01*
X183176Y811616D01*
X216208D01*
X217623Y811029D01*
X219321D01*
X220891Y811680D01*
X222092Y812881D01*
X222742Y814450D01*
Y816149D01*
X222092Y817718D01*
X220891Y818919D01*
X219321Y819569D01*
D02*
G37*
G36*
X114459Y781800D02*
X112485D01*
X110577Y781289D01*
X108867Y780301D01*
X107471Y778905D01*
X106483Y777195D01*
X105972Y775287D01*
Y773312D01*
X106483Y771405D01*
X107471Y769695D01*
X108867Y768298D01*
X110577Y767311D01*
X112485Y766800D01*
X114459D01*
X116367Y767311D01*
X118077Y768298D01*
X119473Y769695D01*
X120461Y771405D01*
X120972Y773312D01*
Y775287D01*
X120461Y777195D01*
X119473Y778905D01*
X118077Y780301D01*
X116367Y781289D01*
X114459Y781800D01*
D02*
G37*
G36*
X330221Y720150D02*
X328523D01*
X326953Y719500D01*
X325752Y718298D01*
X325102Y716729D01*
Y715030D01*
X325230Y714722D01*
X202150Y591642D01*
X201692Y590957D01*
X201531Y590150D01*
X201531Y590150D01*
Y504664D01*
X173558Y476690D01*
X117219D01*
X117092Y476998D01*
X115891Y478200D01*
X114321Y478850D01*
X112623D01*
X111053Y478200D01*
X109852Y476998D01*
X109202Y475429D01*
Y473730D01*
X109852Y472161D01*
X111053Y470960D01*
X112623Y470310D01*
X114321D01*
X115891Y470960D01*
X117092Y472161D01*
X117219Y472469D01*
X174432D01*
X174432Y472469D01*
X174759Y472534D01*
X175547Y471060D01*
X171018Y466530D01*
X117219D01*
X117092Y466838D01*
X115891Y468040D01*
X114321Y468690D01*
X112623D01*
X111053Y468040D01*
X109852Y466838D01*
X109202Y465269D01*
Y463570D01*
X109852Y462001D01*
X111053Y460800D01*
X112623Y460150D01*
X114321D01*
X115891Y460800D01*
X117092Y462001D01*
X117219Y462309D01*
X171892D01*
X171892Y462309D01*
X172700Y462470D01*
X173384Y462927D01*
X211484Y501027D01*
X211484Y501027D01*
X211942Y501712D01*
X212103Y502520D01*
Y585466D01*
X328214Y701577D01*
X328523Y701450D01*
X330221D01*
X331791Y702100D01*
X332992Y703301D01*
X333642Y704870D01*
Y706569D01*
X332992Y708139D01*
X331791Y709340D01*
X330414Y709910D01*
X330080Y710196D01*
X329772Y710647D01*
X329583Y711590D01*
X329607Y711610D01*
X330221D01*
X331791Y712260D01*
X332992Y713461D01*
X333642Y715030D01*
Y716729D01*
X332992Y718298D01*
X331791Y719500D01*
X330221Y720150D01*
D02*
G37*
G36*
X375773Y623939D02*
X374074D01*
X372505Y623289D01*
X371304Y622088D01*
X370654Y620518D01*
Y618819D01*
X370781Y618511D01*
X348340Y596070D01*
X241742D01*
X240934Y595910D01*
X240250Y595452D01*
X240250Y595452D01*
X230090Y585292D01*
X229632Y584607D01*
X229471Y583800D01*
X229471Y583800D01*
Y568918D01*
X229031Y568736D01*
X227830Y567535D01*
X227180Y565965D01*
Y564267D01*
X227830Y562697D01*
X229031Y561496D01*
X230601Y560846D01*
X232299D01*
X233869Y561496D01*
X235070Y562697D01*
X235720Y564267D01*
Y565965D01*
X235070Y567535D01*
X233869Y568736D01*
X233692Y568809D01*
Y582925D01*
X242616Y591849D01*
X349214D01*
X349215Y591849D01*
X350022Y592010D01*
X350707Y592467D01*
X373766Y615527D01*
X374074Y615399D01*
X375773D01*
X377342Y616049D01*
X378544Y617250D01*
X379194Y618819D01*
Y620518D01*
X378544Y622088D01*
X377342Y623289D01*
X375773Y623939D01*
D02*
G37*
G36*
X431821Y623630D02*
X430123D01*
X428553Y622980D01*
X427352Y621778D01*
X426702Y620209D01*
Y618510D01*
X426830Y618202D01*
X394538Y585910D01*
X244282D01*
X243474Y585750D01*
X242790Y585292D01*
X242789Y585292D01*
X240250Y582752D01*
X239792Y582067D01*
X239631Y581260D01*
X239631Y581260D01*
Y568497D01*
X239323Y568370D01*
X238122Y567169D01*
X237472Y565599D01*
Y563900D01*
X238122Y562331D01*
X239323Y561130D01*
X240893Y560480D01*
X242591D01*
X244161Y561130D01*
X245362Y562331D01*
X246012Y563900D01*
Y565599D01*
X245362Y567169D01*
X244161Y568370D01*
X243853Y568497D01*
Y580386D01*
X245156Y581689D01*
X395412D01*
X395412Y581689D01*
X396220Y581850D01*
X396904Y582307D01*
X429814Y615217D01*
X430123Y615090D01*
X431821D01*
X433391Y615740D01*
X434592Y616941D01*
X435242Y618510D01*
Y620209D01*
X434592Y621778D01*
X433391Y622980D01*
X431821Y623630D01*
D02*
G37*
G36*
X532151Y622360D02*
X530453D01*
X528883Y621710D01*
X527682Y620508D01*
X527032Y618939D01*
Y617240D01*
X527160Y616932D01*
X487248Y577020D01*
X277302D01*
X277302Y577020D01*
X276494Y576860D01*
X275810Y576402D01*
X275809Y576402D01*
X270730Y571322D01*
X270272Y570637D01*
X270111Y569830D01*
X270111Y569830D01*
Y568497D01*
X269803Y568370D01*
X268602Y567169D01*
X267952Y565599D01*
Y563900D01*
X268602Y562331D01*
X269803Y561130D01*
X271373Y560480D01*
X273071D01*
X274641Y561130D01*
X275842Y562331D01*
X276492Y563900D01*
Y565599D01*
X275842Y567169D01*
X274641Y568370D01*
X275233Y569856D01*
X278176Y572799D01*
X488122D01*
X488122Y572799D01*
X488930Y572960D01*
X489614Y573417D01*
X530144Y613947D01*
X530453Y613820D01*
X532151D01*
X533721Y614470D01*
X534922Y615671D01*
X535572Y617240D01*
Y618939D01*
X534922Y620508D01*
X533721Y621710D01*
X532151Y622360D01*
D02*
G37*
G36*
X559170Y651870D02*
X557074D01*
X555137Y651067D01*
X553654Y649585D01*
X552852Y647648D01*
Y645552D01*
X553654Y643615D01*
X555137Y642132D01*
X557074Y641330D01*
X557956D01*
X563477Y635809D01*
Y586192D01*
X508728Y531444D01*
X343321D01*
X343321Y531444D01*
X341850Y531151D01*
X340602Y530318D01*
X167728Y357444D01*
X125731D01*
X125107Y358067D01*
X123170Y358870D01*
X121074D01*
X119137Y358067D01*
X117654Y356585D01*
X116852Y354648D01*
Y352551D01*
X117654Y350615D01*
X119137Y349132D01*
X121074Y348330D01*
X123170D01*
X125107Y349132D01*
X125731Y349756D01*
X169320D01*
X169321Y349756D01*
X170791Y350048D01*
X172038Y350882D01*
X344913Y523756D01*
X510320D01*
X510321Y523756D01*
X511791Y524049D01*
X513038Y524882D01*
X570038Y581882D01*
X570038Y581882D01*
X570872Y583129D01*
X571164Y584600D01*
X571164Y584600D01*
Y637401D01*
X571164Y637401D01*
X570872Y638872D01*
X570038Y640119D01*
X570038Y640119D01*
X563392Y646766D01*
Y647648D01*
X562590Y649585D01*
X561107Y651067D01*
X559170Y651870D01*
D02*
G37*
G36*
X132759Y507311D02*
X108758D01*
X107786Y506908D01*
X107384Y505937D01*
Y481936D01*
X107786Y480965D01*
X108758Y480562D01*
X132759D01*
X133730Y480965D01*
X134133Y481936D01*
Y505937D01*
X133730Y506908D01*
X132759Y507311D01*
D02*
G37*
G36*
X672822Y348400D02*
X669178D01*
X665604Y347689D01*
X662237Y346295D01*
X659207Y344270D01*
X656630Y341693D01*
X654605Y338663D01*
X653211Y335296D01*
X652500Y331722D01*
Y328078D01*
X653211Y324504D01*
X654605Y321137D01*
X656630Y318107D01*
X659207Y315530D01*
X662237Y313505D01*
X665604Y312111D01*
X669178Y311400D01*
X672822D01*
X676396Y312111D01*
X679763Y313505D01*
X682793Y315530D01*
X685370Y318107D01*
X687394Y321137D01*
X688789Y324504D01*
X689500Y328078D01*
Y331722D01*
X688789Y335296D01*
X687394Y338663D01*
X685370Y341693D01*
X682793Y344270D01*
X679763Y346295D01*
X676396Y347689D01*
X672822Y348400D01*
D02*
G37*
G36*
X687270Y258270D02*
X654730D01*
Y225730D01*
X687270D01*
Y258270D01*
D02*
G37*
G36*
X320577Y135830D02*
X317667D01*
X314814Y135262D01*
X312126Y134149D01*
X309707Y132533D01*
X307649Y130475D01*
X306033Y128056D01*
X304920Y125368D01*
X304352Y122515D01*
Y119605D01*
X304920Y116752D01*
X306033Y114064D01*
X307649Y111645D01*
X309707Y109587D01*
X312126Y107971D01*
X314814Y106858D01*
X317667Y106290D01*
X320577D01*
X323430Y106858D01*
X326118Y107971D01*
X328537Y109587D01*
X330595Y111645D01*
X332211Y114064D01*
X333324Y116752D01*
X333892Y119605D01*
Y122515D01*
X333324Y125368D01*
X332211Y128056D01*
X330595Y130475D01*
X328537Y132533D01*
X326118Y134149D01*
X323430Y135262D01*
X320577Y135830D01*
D02*
G37*
G36*
X753048Y210270D02*
X750952D01*
X749015Y209468D01*
X747532Y207985D01*
X746730Y206048D01*
Y203952D01*
X747532Y202015D01*
X749015Y200532D01*
X749889Y200170D01*
Y88830D01*
X749015Y88468D01*
X747532Y86985D01*
X746730Y85048D01*
Y82952D01*
X747532Y81015D01*
X749015Y79532D01*
X750952Y78730D01*
X753048D01*
X754985Y79532D01*
X756468Y81015D01*
X757270Y82952D01*
Y85048D01*
X756468Y86985D01*
X754985Y88468D01*
X754111Y88830D01*
Y200170D01*
X754985Y200532D01*
X756468Y202015D01*
X757270Y203952D01*
Y206048D01*
X756468Y207985D01*
X754985Y209468D01*
X753048Y210270D01*
D02*
G37*
G36*
X687048Y150270D02*
X684952D01*
X683015Y149468D01*
X681532Y147985D01*
X680730Y146048D01*
Y143952D01*
X681532Y142015D01*
X683015Y140532D01*
X683889Y140170D01*
Y77000D01*
X683889Y77000D01*
X684050Y76192D01*
X684508Y75508D01*
X687507Y72508D01*
X687508Y72508D01*
X688192Y72050D01*
X689000Y71889D01*
X689000Y71889D01*
X761658D01*
X763015Y70532D01*
X764952Y69730D01*
X767048D01*
X768985Y70532D01*
X770468Y72015D01*
X771270Y73952D01*
Y76048D01*
X770468Y77985D01*
X768985Y79468D01*
X767048Y80270D01*
X764952D01*
X763015Y79468D01*
X761532Y77985D01*
X760756Y76111D01*
X689874D01*
X688111Y77874D01*
Y140170D01*
X688985Y140532D01*
X690468Y142015D01*
X691270Y143952D01*
Y146048D01*
X690468Y147985D01*
X688985Y149468D01*
X687048Y150270D01*
D02*
G37*
G36*
X945576Y44039D02*
X942424D01*
X942227Y44000D01*
X942026D01*
X938935Y43385D01*
X938750Y43308D01*
X938553Y43269D01*
X935641Y42063D01*
X935474Y41951D01*
X935288Y41874D01*
X932668Y40124D01*
X932526Y39982D01*
X932359Y39870D01*
X930130Y37641D01*
X930018Y37474D01*
X929876Y37332D01*
X928125Y34712D01*
X928049Y34526D01*
X927937Y34359D01*
X926731Y31447D01*
X926692Y31250D01*
X926615Y31065D01*
X926000Y27974D01*
Y27773D01*
X925961Y27576D01*
Y24424D01*
X926000Y24227D01*
Y24026D01*
X926615Y20935D01*
X926692Y20750D01*
X926731Y20553D01*
X927937Y17641D01*
X928049Y17474D01*
X928125Y17288D01*
X929876Y14668D01*
X930018Y14526D01*
X930130Y14359D01*
X932359Y12130D01*
X932526Y12018D01*
X932668Y11876D01*
X935288Y10125D01*
X935474Y10049D01*
X935641Y9937D01*
X938553Y8731D01*
X938750Y8692D01*
X938935Y8615D01*
X942026Y8000D01*
X942227D01*
X942424Y7961D01*
X945576D01*
X945773Y8000D01*
X945974D01*
X949065Y8615D01*
X949250Y8692D01*
X949447Y8731D01*
X952359Y9937D01*
X952526Y10049D01*
X952712Y10125D01*
X955332Y11876D01*
X955474Y12018D01*
X955641Y12130D01*
X957870Y14359D01*
X957981Y14526D01*
X958123Y14668D01*
X959874Y17288D01*
X959951Y17474D01*
X960063Y17641D01*
X961269Y20553D01*
X961308Y20750D01*
X961385Y20935D01*
X962000Y24026D01*
Y24227D01*
X962039Y24424D01*
Y27576D01*
X962000Y27773D01*
Y27974D01*
X961385Y31065D01*
X961308Y31250D01*
X961269Y31447D01*
X960063Y34359D01*
X959951Y34526D01*
X959874Y34712D01*
X958123Y37332D01*
X957981Y37474D01*
X957870Y37641D01*
X955641Y39870D01*
X955474Y39982D01*
X955332Y40124D01*
X952712Y41874D01*
X952526Y41951D01*
X952359Y42063D01*
X949447Y43269D01*
X949250Y43308D01*
X949065Y43385D01*
X945974Y44000D01*
X945773D01*
X945576Y44039D01*
D02*
G37*
G36*
X27576D02*
X24424D01*
X24227Y44000D01*
X24026D01*
X20935Y43385D01*
X20750Y43308D01*
X20553Y43269D01*
X17641Y42063D01*
X17474Y41951D01*
X17288Y41874D01*
X14668Y40124D01*
X14526Y39982D01*
X14359Y39870D01*
X12130Y37641D01*
X12018Y37474D01*
X11876Y37332D01*
X10125Y34712D01*
X10049Y34526D01*
X9937Y34359D01*
X8731Y31447D01*
X8692Y31250D01*
X8615Y31065D01*
X8000Y27974D01*
Y27773D01*
X7961Y27576D01*
Y24424D01*
X8000Y24227D01*
Y24026D01*
X8615Y20935D01*
X8692Y20750D01*
X8731Y20553D01*
X9937Y17641D01*
X10049Y17474D01*
X10125Y17288D01*
X11876Y14668D01*
X12018Y14526D01*
X12130Y14359D01*
X14359Y12130D01*
X14526Y12018D01*
X14668Y11876D01*
X17288Y10125D01*
X17474Y10049D01*
X17641Y9937D01*
X20553Y8731D01*
X20750Y8692D01*
X20935Y8615D01*
X24026Y8000D01*
X24227D01*
X24424Y7961D01*
X27576D01*
X27773Y8000D01*
X27974D01*
X31065Y8615D01*
X31250Y8692D01*
X31447Y8731D01*
X34359Y9937D01*
X34526Y10049D01*
X34712Y10125D01*
X37332Y11876D01*
X37474Y12018D01*
X37641Y12130D01*
X39870Y14359D01*
X39982Y14526D01*
X40124Y14668D01*
X41874Y17288D01*
X41951Y17474D01*
X42063Y17641D01*
X43269Y20553D01*
X43308Y20750D01*
X43385Y20935D01*
X44000Y24026D01*
Y24227D01*
X44039Y24424D01*
Y27576D01*
X44000Y27773D01*
Y27974D01*
X43385Y31065D01*
X43308Y31250D01*
X43269Y31447D01*
X42063Y34359D01*
X41951Y34526D01*
X41874Y34712D01*
X40124Y37332D01*
X39982Y37474D01*
X39870Y37641D01*
X37641Y39870D01*
X37474Y39982D01*
X37332Y40124D01*
X34712Y41874D01*
X34526Y41951D01*
X34359Y42063D01*
X31447Y43269D01*
X31250Y43308D01*
X31065Y43385D01*
X27974Y44000D01*
X27773D01*
X27576Y44039D01*
D02*
G37*
%LPD*%
G36*
X185772Y971249D02*
X185250Y970948D01*
X183524Y969222D01*
X182304Y967108D01*
X181672Y964750D01*
Y962309D01*
X182304Y959952D01*
X183524Y957838D01*
X185250Y956112D01*
X187364Y954892D01*
X189722Y954260D01*
X192162D01*
X192166Y954261D01*
X192205Y954202D01*
X197070Y949337D01*
X197754Y948880D01*
X198562Y948719D01*
X198562Y948719D01*
X239264D01*
X239475Y947119D01*
X238164Y946768D01*
X236050Y945548D01*
X234324Y943822D01*
X233104Y941708D01*
X232472Y939350D01*
Y936909D01*
X233104Y934552D01*
X234324Y932438D01*
X236050Y930712D01*
X236369Y930528D01*
Y908445D01*
X232056Y904133D01*
X149122D01*
X147066Y903724D01*
X146763Y903521D01*
X145162Y904377D01*
Y949055D01*
X168956Y972849D01*
X185344D01*
X185772Y971249D01*
D02*
G37*
%LPC*%
G36*
X192162Y947400D02*
X189722D01*
X187364Y946768D01*
X185250Y945548D01*
X183524Y943822D01*
X182304Y941708D01*
X181672Y939350D01*
Y936909D01*
X182304Y934552D01*
X183524Y932438D01*
X185250Y930712D01*
X187364Y929492D01*
X189722Y928860D01*
X192162D01*
X194520Y929492D01*
X196634Y930712D01*
X198360Y932438D01*
X199580Y934552D01*
X200212Y936909D01*
Y939350D01*
X199580Y941708D01*
X198360Y943822D01*
X196634Y945548D01*
X194520Y946768D01*
X192162Y947400D01*
D02*
G37*
%LPD*%
D153*
X29322Y224471D02*
X71793Y182000D01*
X462192D02*
X470252Y173940D01*
X71793Y182000D02*
X462192D01*
X752000Y84000D02*
Y205000D01*
X765000Y74000D02*
X766000Y75000D01*
X689000Y74000D02*
X765000D01*
X686000Y77000D02*
X689000Y74000D01*
X686000Y77000D02*
Y145000D01*
X676000Y62000D02*
Y185362D01*
X684000Y54000D02*
X728000D01*
X676000Y62000D02*
X684000Y54000D01*
X71552Y186300D02*
X675063D01*
X676000Y185362D01*
X92197Y725972D02*
Y726197D01*
X161732Y795732D01*
X85000Y727000D02*
X143052Y785052D01*
Y949930D01*
X100000Y725000D02*
X165542Y790542D01*
X161732Y795732D02*
Y879021D01*
X165542Y790542D02*
Y874630D01*
X143052Y949930D02*
X168082Y974960D01*
X218122Y814950D02*
X218472Y815299D01*
X180122Y814600D02*
X180472Y814950D01*
X272222Y564750D02*
Y569830D01*
X231450Y565116D02*
X231582Y565248D01*
X241742Y564750D02*
Y581260D01*
X231582Y565248D02*
Y583800D01*
X259765Y817480D02*
X276032Y833747D01*
Y855580D01*
X314608Y822084D02*
Y851294D01*
Y822084D02*
X323022Y813670D01*
X306982Y824630D02*
Y850357D01*
Y824630D02*
X323022Y808590D01*
X306532Y850807D02*
X306982Y850357D01*
X278572Y892410D02*
X301462Y869519D01*
X272222Y893680D02*
X298592Y867309D01*
X301462Y826090D02*
X324043Y803510D01*
X298592Y824129D02*
X326832Y795890D01*
X301462Y826090D02*
Y869519D01*
X298592Y824129D02*
Y867309D01*
X307782Y858120D02*
X314608Y851294D01*
X78029Y290547D02*
Y303697D01*
X42352Y271380D02*
X58862D01*
X78029Y290547D01*
X71562Y191370D02*
X132522D01*
X42352Y220580D02*
X71562Y191370D01*
X42352Y220580D02*
Y271380D01*
X32192Y225660D02*
Y635870D01*
X161732Y765410D01*
X207452D01*
X29322Y637058D02*
X160543Y768280D01*
X205547D01*
X29322Y224471D02*
Y637058D01*
X161732Y879021D02*
X165293Y882582D01*
X165542Y874630D02*
X169352Y878440D01*
X251902D01*
X165293Y882582D02*
X255115D01*
X205547Y768280D02*
X241107Y803840D01*
X253172D01*
X289182Y839850D01*
Y856850D01*
X278572Y867460D02*
X289182Y856850D01*
X278572Y867460D02*
Y877170D01*
X32192Y225660D02*
X71552Y186300D01*
X207452Y765410D02*
X243012Y800970D01*
X255712D01*
X295082Y840340D01*
X206182Y781920D02*
X212532D01*
X248092Y817480D01*
X259765D01*
X244009Y827865D02*
X260567D01*
X265872Y833170D01*
X269682Y832921D02*
Y863200D01*
X259452Y822691D02*
X269682Y832921D01*
X245683Y822691D02*
X259452D01*
X235392Y836530D02*
X260792D01*
X265872Y833170D02*
Y859390D01*
X295082Y840340D02*
Y858120D01*
X284922Y868280D02*
X295082Y858120D01*
X257987Y879710D02*
X258252D01*
X255115Y882582D02*
X257987Y879710D01*
X251902Y878440D02*
X259522Y870820D01*
X262062Y863200D02*
X265872Y859390D01*
X323022Y813670D02*
X392872D01*
X324043Y803510D02*
X356042D01*
X323022Y808590D02*
X394142D01*
X216342Y793350D02*
X245683Y822691D01*
X206182Y793350D02*
X216342D01*
X231582Y847960D02*
X256162D01*
X259972Y844150D01*
X260792D01*
X258155Y781899D02*
X318969D01*
X257783Y782271D02*
X258155Y781899D01*
X253172Y774300D02*
X254363D01*
X258683Y776829D02*
X258694Y776840D01*
X254363Y774300D02*
X256892Y776829D01*
X258683D01*
X318969Y781899D02*
X320202Y780666D01*
X379825D01*
X258694Y776840D02*
X381442D01*
X250634Y757637D02*
X323175D01*
X250422Y757849D02*
X250634Y757637D01*
X244353Y752778D02*
X320413D01*
X254644Y763767D02*
X323394D01*
X244283Y752709D02*
X244353Y752778D01*
X320413D02*
X353502Y719690D01*
X293745Y736143D02*
X293802Y736200D01*
X288732Y719690D02*
Y746360D01*
X293745Y712003D02*
Y736143D01*
X323175Y757637D02*
X359852Y720960D01*
X323394Y763767D02*
X366202Y720960D01*
X472483Y768838D02*
X477945Y774300D01*
X226502Y743820D02*
X251520Y768838D01*
X472483D01*
X379825Y780666D02*
X429702Y830543D01*
X381442Y776840D02*
X437322Y832720D01*
X168082Y974960D02*
X240805D01*
X241742Y974023D01*
Y963530D02*
Y974023D01*
X251902Y859390D02*
X259522Y851770D01*
X231582Y859390D02*
X251902D01*
X231582Y832720D02*
X235392Y836530D01*
X477945Y774300D02*
X477962D01*
X449594Y808162D02*
Y810029D01*
X450022Y810457D01*
Y877170D01*
X449387Y807955D02*
X449594Y808162D01*
X278572Y892410D02*
Y918630D01*
X246372Y950830D02*
X278572Y918630D01*
X193697Y955694D02*
X198562Y950830D01*
X246372D01*
X461452Y807320D02*
Y875900D01*
X429252Y897490D02*
X449572Y877170D01*
X450022D01*
X422082Y897490D02*
X429252D01*
X461452Y875900D02*
X480502Y894950D01*
Y925430D01*
X436052Y901300D02*
X461452Y875900D01*
X420812Y901300D02*
X436052D01*
X413192Y893680D02*
X420812Y901300D01*
X413192Y833990D02*
Y893680D01*
X392872Y813670D02*
X413192Y833990D01*
X417002Y831450D02*
Y892410D01*
X422082Y897490D01*
X394142Y808590D02*
X417002Y831450D01*
X326832Y795890D02*
X356042D01*
X190942Y963530D02*
X193697Y960774D01*
Y955694D02*
Y960774D01*
X437322Y832720D02*
Y880980D01*
X429702Y830543D02*
Y889870D01*
X113472Y464420D02*
X171892D01*
X209992Y502520D01*
Y586340D01*
X329372Y705720D01*
X113472Y474580D02*
X174432D01*
X203642Y503790D01*
Y590150D01*
X329372Y715880D01*
X231582Y583800D02*
X241742Y593960D01*
X349215D01*
X272222Y569830D02*
X277302Y574910D01*
X488122D01*
X531302Y618090D01*
X241742Y581260D02*
X244282Y583800D01*
X395412D01*
X430972Y619360D01*
X349215Y593960D02*
X374924Y619669D01*
X504632Y651110D02*
X510982Y657460D01*
X353502Y665080D02*
X367472Y651110D01*
X504632D01*
X353502Y665080D02*
Y719690D01*
X367139Y661270D02*
X383982D01*
X359852Y668557D02*
Y720960D01*
Y668557D02*
X367139Y661270D01*
X366202Y671095D02*
Y720960D01*
Y671095D02*
X366292Y671004D01*
X204912Y804780D02*
X220924D01*
X244009Y827865D01*
X231582Y826370D02*
Y832720D01*
X256982Y675240D02*
X293745Y712003D01*
X244282Y675240D02*
X288732Y719690D01*
D154*
X180472Y814950D02*
X218122D01*
D156*
X149122Y898760D02*
X234282D01*
X241742Y906220D01*
Y938130D01*
D157*
X558122Y646600D02*
X567321Y637401D01*
X169321Y353600D02*
X343321Y527600D01*
X510321D01*
X122122Y353600D02*
X169321D01*
X510321Y527600D02*
X567321Y584600D01*
Y637401D01*
D159*
X671000Y886100D02*
D03*
Y329900D02*
D03*
D160*
Y242000D02*
D03*
Y971000D02*
D03*
D161*
X527492Y898760D02*
D03*
X216342Y938130D02*
D03*
X241742D02*
D03*
X190942D02*
D03*
X216342Y963530D02*
D03*
X190942D02*
D03*
D162*
X527492Y873360D02*
D03*
D163*
X241742Y963530D02*
D03*
D164*
X319122Y121060D02*
D03*
D165*
Y66060D02*
D03*
D166*
X113472Y774300D02*
D03*
Y854300D02*
D03*
D167*
X460138Y970456D02*
D03*
X373739D02*
D03*
D168*
X460138Y928656D02*
D03*
X373739D02*
D03*
D169*
X388038Y933656D02*
D03*
X445839D02*
D03*
D170*
X172057Y121876D02*
D03*
X172000Y111000D02*
D03*
Y100000D02*
D03*
X162000Y122000D02*
D03*
Y111000D02*
D03*
Y100000D02*
D03*
X192057Y121876D02*
D03*
X192000Y111000D02*
D03*
Y100000D02*
D03*
X182000Y122000D02*
D03*
Y111000D02*
D03*
Y100000D02*
D03*
X213057Y121876D02*
D03*
X213000Y111000D02*
D03*
Y100000D02*
D03*
X203000Y122000D02*
D03*
Y111000D02*
D03*
Y100000D02*
D03*
X865000Y210000D02*
D03*
X864943Y199124D02*
D03*
Y188124D02*
D03*
X854943Y210124D02*
D03*
Y199124D02*
D03*
Y188124D02*
D03*
X885000Y210000D02*
D03*
X884943Y199124D02*
D03*
Y188124D02*
D03*
X874943Y210124D02*
D03*
Y199124D02*
D03*
Y188124D02*
D03*
X906000Y210000D02*
D03*
X905943Y199124D02*
D03*
Y188124D02*
D03*
X895943Y210124D02*
D03*
Y199124D02*
D03*
Y188124D02*
D03*
X752000Y84000D02*
D03*
Y205000D02*
D03*
X836057Y55876D02*
D03*
X836000Y47000D02*
D03*
X826000Y56000D02*
D03*
Y47000D02*
D03*
X846000Y56000D02*
D03*
Y47000D02*
D03*
X704000Y92000D02*
D03*
Y83000D02*
D03*
Y66000D02*
D03*
X810500Y58000D02*
D03*
X764500Y57500D02*
D03*
X766000Y75000D02*
D03*
X686000Y145000D02*
D03*
X728000Y54000D02*
D03*
X537000Y161000D02*
D03*
X537124Y171057D02*
D03*
X305179Y797717D02*
D03*
X594122Y8600D02*
D03*
Y19600D02*
D03*
Y30600D02*
D03*
X604122Y8600D02*
D03*
Y19600D02*
D03*
X604179Y30476D02*
D03*
X573122Y8600D02*
D03*
Y19600D02*
D03*
Y30600D02*
D03*
X583122Y8600D02*
D03*
Y19600D02*
D03*
X583179Y30476D02*
D03*
X553122Y8600D02*
D03*
Y19600D02*
D03*
Y30600D02*
D03*
X563122Y8600D02*
D03*
Y19600D02*
D03*
X563179Y30476D02*
D03*
X297122Y318600D02*
D03*
Y329600D02*
D03*
Y340600D02*
D03*
X307122Y318600D02*
D03*
Y329600D02*
D03*
X307179Y340476D02*
D03*
X276122Y318600D02*
D03*
Y329600D02*
D03*
Y340600D02*
D03*
X286122Y318600D02*
D03*
Y329600D02*
D03*
X286179Y340476D02*
D03*
X256122Y318600D02*
D03*
Y329600D02*
D03*
Y340600D02*
D03*
X266122Y318600D02*
D03*
Y329600D02*
D03*
X266179Y340476D02*
D03*
X655122Y618600D02*
D03*
Y629600D02*
D03*
Y640600D02*
D03*
X665122Y618600D02*
D03*
Y629600D02*
D03*
X665179Y640476D02*
D03*
X634122Y618600D02*
D03*
Y629600D02*
D03*
Y640600D02*
D03*
X644122Y618600D02*
D03*
Y629600D02*
D03*
X644179Y640476D02*
D03*
X614122Y618600D02*
D03*
Y629600D02*
D03*
Y640600D02*
D03*
X624122Y618600D02*
D03*
Y629600D02*
D03*
X624179Y640476D02*
D03*
X655122Y652600D02*
D03*
Y663600D02*
D03*
Y674600D02*
D03*
X665122Y652600D02*
D03*
Y663600D02*
D03*
X665179Y674476D02*
D03*
X634122Y652600D02*
D03*
Y663600D02*
D03*
Y674600D02*
D03*
X644122Y652600D02*
D03*
Y663600D02*
D03*
X644179Y674476D02*
D03*
X614122Y652600D02*
D03*
Y663600D02*
D03*
Y674600D02*
D03*
X624122Y652600D02*
D03*
Y663600D02*
D03*
X624179Y674476D02*
D03*
X189122Y628600D02*
D03*
X200122D02*
D03*
X211122D02*
D03*
X189122Y618600D02*
D03*
X200122D02*
D03*
X210998Y618542D02*
D03*
X189122Y649600D02*
D03*
X200122D02*
D03*
X211122D02*
D03*
X189122Y639600D02*
D03*
X200122D02*
D03*
X210998Y639542D02*
D03*
X189122Y669600D02*
D03*
X200122D02*
D03*
X211122D02*
D03*
X189122Y659600D02*
D03*
X200122D02*
D03*
X210998Y659542D02*
D03*
X72000Y641000D02*
D03*
Y652000D02*
D03*
X728065Y357723D02*
D03*
X728122Y368600D02*
D03*
Y379600D02*
D03*
X738122Y357600D02*
D03*
Y368600D02*
D03*
Y379600D02*
D03*
X708065Y357723D02*
D03*
X708122Y368600D02*
D03*
Y379600D02*
D03*
X718122Y357600D02*
D03*
Y368600D02*
D03*
Y379600D02*
D03*
X687065Y357723D02*
D03*
X687122Y368600D02*
D03*
Y379600D02*
D03*
X697122Y357600D02*
D03*
Y368600D02*
D03*
Y379600D02*
D03*
X824065Y930723D02*
D03*
X824122Y941600D02*
D03*
Y952600D02*
D03*
X834122Y930600D02*
D03*
Y941600D02*
D03*
Y952600D02*
D03*
X824065Y965723D02*
D03*
X824122Y976600D02*
D03*
Y987600D02*
D03*
X834122Y965600D02*
D03*
Y976600D02*
D03*
Y987600D02*
D03*
X800065Y930723D02*
D03*
X800122Y941600D02*
D03*
Y952600D02*
D03*
X810122Y930600D02*
D03*
Y941600D02*
D03*
Y952600D02*
D03*
X801065Y965723D02*
D03*
X801122Y976600D02*
D03*
Y987600D02*
D03*
X811122Y965600D02*
D03*
Y976600D02*
D03*
Y987600D02*
D03*
X778065Y930723D02*
D03*
X778122Y941600D02*
D03*
Y952600D02*
D03*
X788122Y930600D02*
D03*
Y941600D02*
D03*
Y952600D02*
D03*
X778065Y965723D02*
D03*
X778122Y976600D02*
D03*
Y987600D02*
D03*
X788122Y965600D02*
D03*
Y976600D02*
D03*
Y987600D02*
D03*
X897065Y711723D02*
D03*
X897122Y722600D02*
D03*
Y733600D02*
D03*
X907122Y711600D02*
D03*
Y722600D02*
D03*
Y733600D02*
D03*
X897065Y743723D02*
D03*
X897122Y754600D02*
D03*
Y765600D02*
D03*
X907122Y743600D02*
D03*
Y754600D02*
D03*
Y765600D02*
D03*
X886245Y786657D02*
D03*
X897122Y786600D02*
D03*
X908122D02*
D03*
X886122Y776600D02*
D03*
X897122D02*
D03*
X908122D02*
D03*
X853245Y786657D02*
D03*
X864122Y786600D02*
D03*
X875122D02*
D03*
X853122Y776600D02*
D03*
X864122D02*
D03*
X875122D02*
D03*
X828245Y464657D02*
D03*
X839122Y464600D02*
D03*
X850122D02*
D03*
X839122Y454600D02*
D03*
X850122D02*
D03*
X894246Y424657D02*
D03*
X905122Y424600D02*
D03*
X916122D02*
D03*
X894122Y414600D02*
D03*
X905122D02*
D03*
X916122D02*
D03*
X893245Y354657D02*
D03*
X904122Y354600D02*
D03*
X915122D02*
D03*
X893122Y344600D02*
D03*
X904122D02*
D03*
X915122D02*
D03*
X664179Y171476D02*
D03*
X664122Y160600D02*
D03*
Y149600D02*
D03*
X654122Y171600D02*
D03*
Y160600D02*
D03*
Y149600D02*
D03*
X526124Y161057D02*
D03*
X515124D02*
D03*
X526124Y171057D02*
D03*
X515124D02*
D03*
X201122Y836600D02*
D03*
X132122Y815600D02*
D03*
X121122D02*
D03*
X132122Y825600D02*
D03*
X121122D02*
D03*
X172122Y914600D02*
D03*
X161122D02*
D03*
X172122Y924600D02*
D03*
X161122D02*
D03*
X487122Y819600D02*
D03*
X428122Y792600D02*
D03*
X439122D02*
D03*
X450122D02*
D03*
X428122Y782600D02*
D03*
X439122D02*
D03*
X449998Y782542D02*
D03*
X870122Y526600D02*
D03*
X881122D02*
D03*
X892122D02*
D03*
X870122Y516600D02*
D03*
X881122D02*
D03*
X891998Y516542D02*
D03*
X49246Y193657D02*
D03*
X38245D02*
D03*
X73913Y228263D02*
D03*
X50245Y230657D02*
D03*
X69000Y528000D02*
D03*
Y517000D02*
D03*
X56122Y615600D02*
D03*
X558122Y646600D02*
D03*
X122122Y353600D02*
D03*
D171*
X781500Y90500D02*
D03*
Y101500D02*
D03*
X792500Y90500D02*
D03*
Y101500D02*
D03*
D172*
X85000Y727000D02*
D03*
X92197Y725972D02*
D03*
X100000Y725000D02*
D03*
X297400Y797717D02*
D03*
X299678Y803217D02*
D03*
Y792216D02*
D03*
X305179Y789939D02*
D03*
X310679Y792216D02*
D03*
X305179Y805495D02*
D03*
X312956Y797717D02*
D03*
X310679Y803217D02*
D03*
X149122Y898760D02*
D03*
X180122Y814600D02*
D03*
X272222Y564750D02*
D03*
X231450Y565116D02*
D03*
X241742Y564750D02*
D03*
X306532Y850807D02*
D03*
X307782Y858120D02*
D03*
X470252Y173940D02*
D03*
X260792Y836530D02*
D03*
X278572Y877170D02*
D03*
X258252Y879710D02*
D03*
X276032Y855580D02*
D03*
X269682Y863200D02*
D03*
X259522Y870820D02*
D03*
X284922Y868280D02*
D03*
X206182Y781920D02*
D03*
Y793350D02*
D03*
X260792Y844150D02*
D03*
X42352Y271380D02*
D03*
X78029Y303697D02*
D03*
X257783Y782271D02*
D03*
X253172Y774300D02*
D03*
X250422Y757849D02*
D03*
X254644Y763767D02*
D03*
X293802Y736200D02*
D03*
X288732Y746360D02*
D03*
X244282Y752710D02*
D03*
X226502Y743820D02*
D03*
X259522Y851770D02*
D03*
X262062Y863200D02*
D03*
X477962Y774300D02*
D03*
X272222Y893680D02*
D03*
X461452Y807320D02*
D03*
X448752D02*
D03*
X450022Y877170D02*
D03*
X480502Y925430D02*
D03*
X356042Y795890D02*
D03*
Y803510D02*
D03*
X437322Y880980D02*
D03*
X429702Y889870D02*
D03*
X113472Y464420D02*
D03*
X329372Y705720D02*
D03*
X113472Y474580D02*
D03*
X329372Y715880D02*
D03*
X531302Y618090D02*
D03*
X430972Y619360D02*
D03*
X374924Y619669D02*
D03*
X510982Y657460D02*
D03*
X383982Y661270D02*
D03*
X366292Y671004D02*
D03*
X204912Y804780D02*
D03*
X132522Y191370D02*
D03*
X218472Y815299D02*
D03*
X244282Y675240D02*
D03*
X256982D02*
D03*
X231582Y859390D02*
D03*
Y826370D02*
D03*
Y847960D02*
D03*
M02*
