G04*
G04 #@! TF.GenerationSoftware,Altium Limited,Altium Designer Agile,26.0.0 (14)*
G04*
G04 Layer_Color=8388736*
%FSLAX44Y44*%
%MOMM*%
G71*
G04*
G04 #@! TF.SameCoordinates,0EC658AE-B92D-4037-890B-B76A4C77EE7A*
G04*
G04*
G04 #@! TF.FilePolarity,Negative*
G04*
G01*
G75*
%ADD35R,2.6254X2.6254*%
%ADD36R,0.9754X0.3254*%
%ADD37R,0.3254X0.9754*%
%ADD38R,3.3754X3.2254*%
%ADD39R,1.4254X1.7754*%
%ADD40R,1.1254X1.4254*%
%ADD41R,1.8254X1.7754*%
%ADD42R,1.9254X1.5754*%
%ADD43R,0.9254X0.9254*%
%ADD44R,1.8254X2.2754*%
%ADD45R,1.2954X1.4224*%
%ADD46R,0.9254X0.9254*%
%ADD47R,2.8956X5.4102*%
%ADD48R,0.8255X2.0254*%
%ADD49R,0.9253X0.7254*%
%ADD50R,2.0254X0.8255*%
%ADD51R,0.7254X0.9253*%
%ADD52R,1.6254X3.2254*%
%ADD53R,1.5254X2.3254*%
%ADD54R,0.9754X1.0254*%
%ADD55R,0.8390X1.1906*%
%ADD56O,1.8254X0.6254*%
%ADD57O,0.6254X1.8254*%
%ADD58R,0.6254X1.7254*%
%ADD59R,1.4754X0.6254*%
%ADD60R,0.2254X1.0254*%
%ADD61R,1.0254X0.2254*%
%ADD62R,4.0254X4.0254*%
%ADD63R,0.6254X1.4754*%
G04:AMPARAMS|DCode=64|XSize=0.6254mm|YSize=1.3754mm|CornerRadius=0.0577mm|HoleSize=0mm|Usage=FLASHONLY|Rotation=90.000|XOffset=0mm|YOffset=0mm|HoleType=Round|Shape=RoundedRectangle|*
%AMROUNDEDRECTD64*
21,1,0.6254,1.2600,0,0,90.0*
21,1,0.5100,1.3754,0,0,90.0*
1,1,0.1154,0.6300,0.2550*
1,1,0.1154,0.6300,-0.2550*
1,1,0.1154,-0.6300,-0.2550*
1,1,0.1154,-0.6300,0.2550*
%
%ADD64ROUNDEDRECTD64*%
%ADD65R,0.6254X1.0254*%
%ADD66R,1.7754X0.6254*%
%ADD67R,2.4354X3.3254*%
%ADD68R,0.8754X1.2254*%
%ADD69R,1.7254X2.3254*%
%ADD70R,1.0254X0.9754*%
%ADD71R,1.5754X1.9254*%
%ADD72R,1.1054X1.6554*%
%ADD73R,1.6554X1.1054*%
%ADD74R,1.9754X2.2254*%
%ADD75R,7.5254X3.0254*%
%ADD76R,0.9254X1.3754*%
%ADD77R,1.5754X2.6254*%
%ADD78R,2.2254X1.2254*%
%ADD79R,1.6254X1.2254*%
%ADD80R,1.6254X0.7254*%
%ADD81R,1.4254X1.6254*%
%ADD82R,0.6254X1.1654*%
%ADD83R,0.3254X1.1654*%
%ADD84R,1.4224X1.2954*%
%ADD85R,0.4254X1.2554*%
%ADD86R,1.7754X1.8254*%
%ADD87R,2.3254X1.2254*%
%ADD88C,3.2254*%
%ADD89R,3.0254X3.0254*%
%ADD90C,1.6254*%
%ADD91R,1.6254X1.6254*%
G04:AMPARAMS|DCode=92|XSize=1.6254mm|YSize=1.6254mm|CornerRadius=0.4127mm|HoleSize=0mm|Usage=FLASHONLY|Rotation=180.000|XOffset=0mm|YOffset=0mm|HoleType=Round|Shape=RoundedRectangle|*
%AMROUNDEDRECTD92*
21,1,1.6254,0.8000,0,0,180.0*
21,1,0.8000,1.6254,0,0,180.0*
1,1,0.8254,-0.4000,0.4000*
1,1,0.8254,0.4000,0.4000*
1,1,0.8254,0.4000,-0.4000*
1,1,0.8254,-0.4000,-0.4000*
%
%ADD92ROUNDEDRECTD92*%
%ADD93C,2.7254*%
G04:AMPARAMS|DCode=94|XSize=2.7254mm|YSize=2.7254mm|CornerRadius=0.6877mm|HoleSize=0mm|Usage=FLASHONLY|Rotation=0.000|XOffset=0mm|YOffset=0mm|HoleType=Round|Shape=RoundedRectangle|*
%AMROUNDEDRECTD94*
21,1,2.7254,1.3500,0,0,0.0*
21,1,1.3500,2.7254,0,0,0.0*
1,1,1.3754,0.6750,-0.6750*
1,1,1.3754,-0.6750,-0.6750*
1,1,1.3754,-0.6750,0.6750*
1,1,1.3754,0.6750,0.6750*
%
%ADD94ROUNDEDRECTD94*%
%ADD95C,1.0254*%
%ADD96O,1.0254X1.8254*%
%ADD97O,1.0254X2.1254*%
%ADD98C,0.6754*%
%ADD99C,0.5254*%
G36*
X498648Y830660D02*
X493648D01*
Y830643D01*
X488648D01*
Y830635D01*
X482542D01*
Y835026D01*
X498648D01*
Y830660D01*
D02*
G37*
G36*
X481399Y828393D02*
X475266D01*
Y832776D01*
X481399D01*
Y828393D01*
D02*
G37*
G36*
X505899Y828391D02*
X499816D01*
Y832776D01*
X505899D01*
Y828391D01*
D02*
G37*
G36*
Y823386D02*
X499829D01*
Y827776D01*
X505899D01*
Y823386D01*
D02*
G37*
G36*
X481399Y823383D02*
X475264D01*
Y827776D01*
X481399D01*
Y823383D01*
D02*
G37*
G36*
Y818375D02*
X475286D01*
Y822776D01*
X481399D01*
Y818375D01*
D02*
G37*
G36*
X505899Y818373D02*
X499815D01*
Y822776D01*
X505899D01*
Y818373D01*
D02*
G37*
G36*
X481399Y813370D02*
X475284D01*
Y817776D01*
X481399D01*
Y813370D01*
D02*
G37*
G36*
X505899Y813353D02*
X499829D01*
Y817776D01*
X505899D01*
Y813353D01*
D02*
G37*
G36*
Y808352D02*
X499817D01*
Y812776D01*
X505899D01*
Y808352D01*
D02*
G37*
G36*
X481399Y808350D02*
X475265D01*
Y812776D01*
X481399D01*
Y808350D01*
D02*
G37*
G36*
X498648Y806113D02*
X493648D01*
Y806089D01*
X487541D01*
Y806117D01*
X482543D01*
Y810527D01*
X498648D01*
Y806113D01*
D02*
G37*
D35*
X787000Y96000D02*
D03*
D36*
X807000Y105750D02*
D03*
Y99250D02*
D03*
Y92750D02*
D03*
Y86250D02*
D03*
X767000D02*
D03*
Y92750D02*
D03*
Y99250D02*
D03*
Y105750D02*
D03*
D37*
X796750Y76000D02*
D03*
X790250D02*
D03*
X783750D02*
D03*
X777250D02*
D03*
Y116000D02*
D03*
X783750D02*
D03*
X790250D02*
D03*
X796750D02*
D03*
D38*
X784000Y200000D02*
D03*
Y144000D02*
D03*
D39*
X731250Y204000D02*
D03*
X702750D02*
D03*
D40*
X719500Y184500D02*
D03*
X701500D02*
D03*
X719500Y164500D02*
D03*
X701500D02*
D03*
X719500Y146500D02*
D03*
X701500D02*
D03*
X719000Y87000D02*
D03*
X737000D02*
D03*
X719000Y70000D02*
D03*
X737000D02*
D03*
X764500Y57500D02*
D03*
X782500D02*
D03*
D41*
X701250Y122000D02*
D03*
X744750D02*
D03*
X841342Y516490D02*
D03*
X797842D02*
D03*
D42*
X834000Y140250D02*
D03*
Y169750D02*
D03*
X858000Y140250D02*
D03*
Y169750D02*
D03*
D43*
X834000Y121500D02*
D03*
Y106500D02*
D03*
X461362Y132270D02*
D03*
Y147270D02*
D03*
X490508Y159376D02*
D03*
Y174377D02*
D03*
X479078Y159376D02*
D03*
Y174377D02*
D03*
X44318Y588697D02*
D03*
Y573696D02*
D03*
X43048Y464237D02*
D03*
Y449236D02*
D03*
X447419Y361987D02*
D03*
Y346986D02*
D03*
X449958Y420407D02*
D03*
Y405406D02*
D03*
X512252Y724890D02*
D03*
Y739890D02*
D03*
X436052Y724890D02*
D03*
Y739890D02*
D03*
X429638Y361987D02*
D03*
Y346986D02*
D03*
X430909Y420407D02*
D03*
Y405406D02*
D03*
X526970Y724081D02*
D03*
Y739081D02*
D03*
X450022Y724890D02*
D03*
Y739890D02*
D03*
X531239Y349526D02*
D03*
Y364527D02*
D03*
X529968Y406676D02*
D03*
Y421677D02*
D03*
X331912Y632180D02*
D03*
Y647180D02*
D03*
X484312Y630910D02*
D03*
Y645910D02*
D03*
X466532Y659879D02*
D03*
Y644880D02*
D03*
X389062Y632180D02*
D03*
Y647180D02*
D03*
X545272Y630910D02*
D03*
Y645910D02*
D03*
X392872Y676390D02*
D03*
Y661390D02*
D03*
X45588Y719507D02*
D03*
Y704506D02*
D03*
X429638Y904509D02*
D03*
Y889509D02*
D03*
X415668Y905017D02*
D03*
Y890016D02*
D03*
X401698Y889509D02*
D03*
Y904509D02*
D03*
X443609Y889509D02*
D03*
Y904509D02*
D03*
X461452Y830060D02*
D03*
Y815060D02*
D03*
X448752Y830060D02*
D03*
Y815060D02*
D03*
X902078Y330237D02*
D03*
Y315236D02*
D03*
Y287296D02*
D03*
Y302297D02*
D03*
D44*
X916250Y108000D02*
D03*
X867750D02*
D03*
X682462Y58370D02*
D03*
X633962D02*
D03*
X546750Y166000D02*
D03*
X595250D02*
D03*
X904738Y242726D02*
D03*
X856239D02*
D03*
D45*
X826140Y90000D02*
D03*
X849000D02*
D03*
X825140Y70000D02*
D03*
X848000D02*
D03*
X511973Y774969D02*
D03*
X489113D02*
D03*
D46*
X795500Y58000D02*
D03*
X810500D02*
D03*
X749500Y54000D02*
D03*
X734500D02*
D03*
X720500D02*
D03*
X705500D02*
D03*
X542213Y774969D02*
D03*
X527213D02*
D03*
X57352Y219818D02*
D03*
X42352D02*
D03*
X56082Y295510D02*
D03*
X41082D02*
D03*
X56202Y178670D02*
D03*
X41202D02*
D03*
X487939Y483937D02*
D03*
X472938D02*
D03*
X449839D02*
D03*
X434838D02*
D03*
X128197Y663648D02*
D03*
X113198D02*
D03*
X486669Y293526D02*
D03*
X471668D02*
D03*
X449839D02*
D03*
X434838D02*
D03*
X132402Y898760D02*
D03*
X117402D02*
D03*
Y911460D02*
D03*
X132402D02*
D03*
Y922890D02*
D03*
X117402D02*
D03*
X117402Y934320D02*
D03*
X132402D02*
D03*
X117402Y945750D02*
D03*
X132402D02*
D03*
Y957180D02*
D03*
X117402D02*
D03*
Y969880D02*
D03*
X132402D02*
D03*
X249482Y893680D02*
D03*
X264482D02*
D03*
X892102Y479660D02*
D03*
X907102D02*
D03*
X892102Y468230D02*
D03*
X907102D02*
D03*
Y491090D02*
D03*
X892102D02*
D03*
X494262Y62180D02*
D03*
X479262D02*
D03*
X492992Y146000D02*
D03*
X477992D02*
D03*
X492929Y133856D02*
D03*
X477928D02*
D03*
X522442Y144730D02*
D03*
X537442D02*
D03*
D47*
X898332Y601580D02*
D03*
X799272D02*
D03*
D48*
X346578Y951386D02*
D03*
X314579D02*
D03*
X146171Y694084D02*
D03*
X178170D02*
D03*
D49*
X330578Y935387D02*
D03*
X162171Y678084D02*
D03*
D50*
X514729Y499936D02*
D03*
Y467937D02*
D03*
X521078Y309526D02*
D03*
Y277527D02*
D03*
D51*
X498729Y483937D02*
D03*
X505079Y293526D02*
D03*
D52*
X396592Y63850D02*
D03*
Y113850D02*
D03*
X653000Y115000D02*
D03*
Y165000D02*
D03*
D53*
X54478Y485466D02*
D03*
Y552467D02*
D03*
X57478Y361006D02*
D03*
Y428007D02*
D03*
X55998Y613542D02*
D03*
Y680543D02*
D03*
D54*
X65908Y464237D02*
D03*
Y449236D02*
D03*
Y588697D02*
D03*
Y573696D02*
D03*
X876678Y396516D02*
D03*
Y411517D02*
D03*
X863979Y396516D02*
D03*
Y411517D02*
D03*
X796668Y449617D02*
D03*
Y434616D02*
D03*
X839901Y809462D02*
D03*
Y824462D02*
D03*
X862761Y825732D02*
D03*
Y810732D02*
D03*
X542668Y813076D02*
D03*
Y828077D02*
D03*
X527429Y813076D02*
D03*
Y828077D02*
D03*
X467280Y724081D02*
D03*
Y739081D02*
D03*
X391014Y723297D02*
D03*
Y738297D02*
D03*
X344612Y647180D02*
D03*
Y632180D02*
D03*
X498282Y645910D02*
D03*
Y630910D02*
D03*
X453832Y644880D02*
D03*
Y659879D02*
D03*
X408112Y676390D02*
D03*
Y661390D02*
D03*
X291000Y201500D02*
D03*
Y216500D02*
D03*
X42352Y244830D02*
D03*
Y259830D02*
D03*
X460118Y483937D02*
D03*
Y498936D02*
D03*
X424558D02*
D03*
Y483937D02*
D03*
X162171Y648244D02*
D03*
Y633244D02*
D03*
Y603794D02*
D03*
Y588794D02*
D03*
X460118Y278406D02*
D03*
Y293407D02*
D03*
X424558Y278406D02*
D03*
Y293407D02*
D03*
X227589Y691406D02*
D03*
Y706406D02*
D03*
X214889Y691406D02*
D03*
Y706406D02*
D03*
X70988Y719507D02*
D03*
Y704506D02*
D03*
X243012Y830060D02*
D03*
Y815060D02*
D03*
X424885Y870066D02*
D03*
Y855066D02*
D03*
X386785Y870066D02*
D03*
Y855066D02*
D03*
X823377Y809724D02*
D03*
Y824723D02*
D03*
X809407Y809724D02*
D03*
Y824723D02*
D03*
X795437Y809724D02*
D03*
Y824723D02*
D03*
X412185Y870066D02*
D03*
Y855066D02*
D03*
X437585Y870066D02*
D03*
Y855066D02*
D03*
X399485Y870186D02*
D03*
Y855185D02*
D03*
X876742Y423900D02*
D03*
Y438900D02*
D03*
D55*
X405572Y821766D02*
D03*
X389572Y799700D02*
D03*
Y821766D02*
D03*
X405572Y799700D02*
D03*
D56*
X397758Y473937D02*
D03*
Y503937D02*
D03*
Y483937D02*
D03*
Y493937D02*
D03*
Y413937D02*
D03*
Y423937D02*
D03*
Y393937D02*
D03*
Y403937D02*
D03*
Y453937D02*
D03*
Y463937D02*
D03*
Y433937D02*
D03*
Y443937D02*
D03*
Y333936D02*
D03*
Y343936D02*
D03*
Y373936D02*
D03*
Y383936D02*
D03*
Y353936D02*
D03*
Y363936D02*
D03*
Y293936D02*
D03*
Y313936D02*
D03*
Y323936D02*
D03*
Y303936D02*
D03*
X95758Y393937D02*
D03*
Y473937D02*
D03*
Y483937D02*
D03*
Y493937D02*
D03*
Y423937D02*
D03*
Y433937D02*
D03*
Y403937D02*
D03*
Y413937D02*
D03*
Y453937D02*
D03*
Y463937D02*
D03*
Y443937D02*
D03*
Y343936D02*
D03*
Y353936D02*
D03*
Y333936D02*
D03*
Y373936D02*
D03*
Y383936D02*
D03*
Y363936D02*
D03*
Y293936D02*
D03*
Y303936D02*
D03*
Y313936D02*
D03*
Y323936D02*
D03*
D57*
X271759Y549936D02*
D03*
X291759D02*
D03*
X281759D02*
D03*
X241759D02*
D03*
X231758D02*
D03*
X261759D02*
D03*
X251759D02*
D03*
X331758D02*
D03*
X351758D02*
D03*
X341758D02*
D03*
X311759D02*
D03*
X301759D02*
D03*
X321759D02*
D03*
X281759Y247936D02*
D03*
X271759D02*
D03*
X301759D02*
D03*
X291759D02*
D03*
X241759D02*
D03*
X231758D02*
D03*
X261759D02*
D03*
X251759D02*
D03*
X341758D02*
D03*
X351758D02*
D03*
X321759D02*
D03*
X311759D02*
D03*
X331758D02*
D03*
X171758Y549936D02*
D03*
X161758D02*
D03*
X191758D02*
D03*
X181758D02*
D03*
X151758D02*
D03*
X141758D02*
D03*
X211758D02*
D03*
X201758D02*
D03*
X221758D02*
D03*
X181758Y247936D02*
D03*
X171758D02*
D03*
X201758D02*
D03*
X191758D02*
D03*
X141758D02*
D03*
X161758D02*
D03*
X151758D02*
D03*
X221758D02*
D03*
X211758D02*
D03*
D58*
X282199Y659596D02*
D03*
Y730596D02*
D03*
X256799D02*
D03*
X269499D02*
D03*
X244099D02*
D03*
X256799Y659596D02*
D03*
X269499D02*
D03*
X244099D02*
D03*
D59*
X491352Y976230D02*
D03*
X545852Y950830D02*
D03*
Y976230D02*
D03*
Y938130D02*
D03*
Y963530D02*
D03*
X491352D02*
D03*
Y950830D02*
D03*
Y938130D02*
D03*
D60*
X327178Y762216D02*
D03*
X331178D02*
D03*
X311178D02*
D03*
X315178D02*
D03*
X307178D02*
D03*
X323178D02*
D03*
X319178D02*
D03*
X291178D02*
D03*
X295179D02*
D03*
X303179D02*
D03*
X299179D02*
D03*
X279179D02*
D03*
X287178D02*
D03*
X283179D02*
D03*
X303179Y833216D02*
D03*
X327178D02*
D03*
X331178D02*
D03*
X311178D02*
D03*
X315178D02*
D03*
X307178D02*
D03*
X323178D02*
D03*
X319178D02*
D03*
X291178D02*
D03*
X295179D02*
D03*
X283179D02*
D03*
X279179D02*
D03*
X287178D02*
D03*
X299179D02*
D03*
D61*
X340678Y771717D02*
D03*
Y787717D02*
D03*
Y791717D02*
D03*
Y783717D02*
D03*
Y799716D02*
D03*
Y795716D02*
D03*
Y775716D02*
D03*
Y779716D02*
D03*
X269678Y795716D02*
D03*
Y791717D02*
D03*
Y799716D02*
D03*
Y775716D02*
D03*
Y779716D02*
D03*
Y771717D02*
D03*
Y787717D02*
D03*
Y783717D02*
D03*
X340678Y811717D02*
D03*
Y815716D02*
D03*
Y807717D02*
D03*
Y823716D02*
D03*
Y819716D02*
D03*
Y803717D02*
D03*
X269678D02*
D03*
Y811717D02*
D03*
Y819716D02*
D03*
Y823716D02*
D03*
Y815716D02*
D03*
Y807717D02*
D03*
D62*
X305179Y797717D02*
D03*
D63*
X835729Y434719D02*
D03*
Y489219D02*
D03*
X823029D02*
D03*
X848429D02*
D03*
X861129D02*
D03*
X848429Y434719D02*
D03*
X823029D02*
D03*
X861129D02*
D03*
D64*
X863181Y844292D02*
D03*
Y863292D02*
D03*
Y853792D02*
D03*
X839481Y844292D02*
D03*
Y863292D02*
D03*
D65*
X877949Y290186D02*
D03*
X887449Y317187D02*
D03*
X877949D02*
D03*
X868448D02*
D03*
Y290186D02*
D03*
X887449D02*
D03*
D66*
X477748Y80517D02*
D03*
Y105917D02*
D03*
Y118617D02*
D03*
X533748Y93216D02*
D03*
Y80517D02*
D03*
Y118617D02*
D03*
Y105917D02*
D03*
X477748Y93216D02*
D03*
D67*
X505748Y99566D02*
D03*
D68*
X489729Y717786D02*
D03*
X499179Y742732D02*
D03*
X479925Y742786D02*
D03*
X414521Y717838D02*
D03*
X404717Y742838D02*
D03*
X423970Y742784D02*
D03*
X477950Y370797D02*
D03*
X487754Y345797D02*
D03*
X468501Y345850D02*
D03*
X477950Y429217D02*
D03*
X487754Y404217D02*
D03*
X468501Y404271D02*
D03*
X375994Y634087D02*
D03*
X356740Y634141D02*
D03*
X366190Y659087D02*
D03*
X531137Y632350D02*
D03*
X511884Y632405D02*
D03*
X521333Y657350D02*
D03*
X440357Y658212D02*
D03*
X430909Y633266D02*
D03*
X421105Y658266D02*
D03*
D69*
X844929Y404016D02*
D03*
X784929Y404019D02*
D03*
X805122Y709600D02*
D03*
X865122Y709598D02*
D03*
X865376Y744533D02*
D03*
X805376Y744535D02*
D03*
D70*
X891389Y454323D02*
D03*
X906389D02*
D03*
X891389Y440353D02*
D03*
X906389D02*
D03*
X893069Y274477D02*
D03*
X878068D02*
D03*
X522442Y133300D02*
D03*
X537442D02*
D03*
X889259Y330356D02*
D03*
X874258D02*
D03*
X321808Y594516D02*
D03*
X336809D02*
D03*
X41202Y167240D02*
D03*
X56202D02*
D03*
X41082Y284588D02*
D03*
X56082D02*
D03*
X42352Y208388D02*
D03*
X57352D02*
D03*
X390452Y785730D02*
D03*
X405452D02*
D03*
X404818Y836386D02*
D03*
X389818D02*
D03*
X345762Y925430D02*
D03*
X330762D02*
D03*
X315522Y877170D02*
D03*
X330522D02*
D03*
D71*
X571072Y130760D02*
D03*
X600572D02*
D03*
D72*
X321782Y577450D02*
D03*
X344582D02*
D03*
X139341Y619154D02*
D03*
X162141D02*
D03*
X138838Y572926D02*
D03*
X161639D02*
D03*
X139341Y663604D02*
D03*
X162141D02*
D03*
D73*
X809369Y842197D02*
D03*
Y864996D02*
D03*
X330578Y890456D02*
D03*
Y913257D02*
D03*
D74*
X564842Y79960D02*
D03*
X609342D02*
D03*
D75*
X816989Y334166D02*
D03*
Y284167D02*
D03*
D76*
X119822Y206610D02*
D03*
X183322D02*
D03*
X196022D02*
D03*
X157922D02*
D03*
X170622D02*
D03*
X145222D02*
D03*
X132522D02*
D03*
D77*
X261722Y183360D02*
D03*
Y57160D02*
D03*
X103722Y183360D02*
D03*
Y57160D02*
D03*
D78*
X117472Y882299D02*
D03*
Y727300D02*
D03*
D79*
X212472Y882299D02*
D03*
D80*
X218472Y837299D02*
D03*
Y782300D02*
D03*
Y793299D02*
D03*
Y815299D02*
D03*
Y804300D02*
D03*
Y826300D02*
D03*
Y848300D02*
D03*
Y870300D02*
D03*
Y859300D02*
D03*
D81*
X213472Y736300D02*
D03*
D82*
X448938Y922956D02*
D03*
X384939D02*
D03*
X392938D02*
D03*
X440938D02*
D03*
D83*
X399438D02*
D03*
X419438D02*
D03*
X424439D02*
D03*
X404439D02*
D03*
X414439D02*
D03*
X409438D02*
D03*
X429438D02*
D03*
X434439D02*
D03*
D84*
X509649Y345597D02*
D03*
Y368456D02*
D03*
Y402747D02*
D03*
Y425606D02*
D03*
X456282Y62180D02*
D03*
Y85040D02*
D03*
D85*
X63942Y260460D02*
D03*
X70442Y241660D02*
D03*
X57442D02*
D03*
X70442Y260460D02*
D03*
X57442D02*
D03*
D86*
X373822Y178510D02*
D03*
Y222010D02*
D03*
X486788Y228596D02*
D03*
Y272097D02*
D03*
D87*
X343868Y218684D02*
D03*
X344122Y181600D02*
D03*
X312000Y219000D02*
D03*
X312254Y181916D02*
D03*
X265376Y594516D02*
D03*
X265122Y631600D02*
D03*
X298122Y594600D02*
D03*
X297868Y631684D02*
D03*
D88*
X671000Y886100D02*
D03*
Y329900D02*
D03*
D89*
Y242000D02*
D03*
Y971000D02*
D03*
D90*
X527492Y898760D02*
D03*
X216342Y938130D02*
D03*
X241742D02*
D03*
X190942D02*
D03*
X216342Y963530D02*
D03*
X190942D02*
D03*
D91*
X527492Y873360D02*
D03*
D92*
X241742Y963530D02*
D03*
D93*
X319122Y121060D02*
D03*
D94*
Y66060D02*
D03*
D95*
X113472Y774300D02*
D03*
Y854300D02*
D03*
D96*
X460138Y970456D02*
D03*
X373739D02*
D03*
D97*
X460138Y928656D02*
D03*
X373739D02*
D03*
D98*
X388038Y933656D02*
D03*
X445839D02*
D03*
D99*
X781500Y90500D02*
D03*
Y101500D02*
D03*
X792500Y90500D02*
D03*
Y101500D02*
D03*
M02*
