G04*
G04 #@! TF.GenerationSoftware,Altium Limited,Altium Designer Agile,26.0.0 (14)*
G04*
G04 Layer_Physical_Order=1*
G04 Layer_Color=255*
%FSLAX44Y44*%
%MOMM*%
G71*
G04*
G04 #@! TF.SameCoordinates,0EC658AE-B92D-4037-890B-B76A4C77EE7A*
G04*
G04*
G04 #@! TF.FilePolarity,Positive*
G04*
G01*
G75*
%ADD23C,0.3000*%
%ADD47R,2.8956X5.4102*%
%ADD55R,0.8390X1.1906*%
%ADD100R,2.6000X2.6000*%
%ADD101R,0.9500X0.3000*%
%ADD102R,0.3000X0.9500*%
%ADD103R,3.3500X3.2000*%
%ADD104R,1.4000X1.7500*%
%ADD105R,1.1000X1.4000*%
%ADD106R,1.8000X1.7500*%
%ADD107R,1.9000X1.5500*%
%ADD108R,0.9000X0.9000*%
%ADD109R,1.8000X2.2500*%
%ADD110R,1.2700X1.3970*%
%ADD111R,0.9000X0.9000*%
%ADD112R,0.8001X2.0000*%
%ADD113R,0.8999X0.7000*%
%ADD114R,2.0000X0.8001*%
%ADD115R,0.7000X0.8999*%
%ADD116R,1.6000X3.2000*%
%ADD117R,1.5000X2.3000*%
%ADD118R,0.9500X1.0000*%
G04:AMPARAMS|DCode=119|XSize=0.52mm|YSize=0.35mm|CornerRadius=0.0928mm|HoleSize=0mm|Usage=FLASHONLY|Rotation=0.000|XOffset=0mm|YOffset=0mm|HoleType=Round|Shape=RoundedRectangle|*
%AMROUNDEDRECTD119*
21,1,0.5200,0.1645,0,0,0.0*
21,1,0.3345,0.3500,0,0,0.0*
1,1,0.1855,0.1673,-0.0823*
1,1,0.1855,-0.1673,-0.0823*
1,1,0.1855,-0.1673,0.0823*
1,1,0.1855,0.1673,0.0823*
%
%ADD119ROUNDEDRECTD119*%
G04:AMPARAMS|DCode=120|XSize=0.52mm|YSize=0.35mm|CornerRadius=0.0928mm|HoleSize=0mm|Usage=FLASHONLY|Rotation=90.000|XOffset=0mm|YOffset=0mm|HoleType=Round|Shape=RoundedRectangle|*
%AMROUNDEDRECTD120*
21,1,0.5200,0.1645,0,0,90.0*
21,1,0.3345,0.3500,0,0,90.0*
1,1,0.1855,0.0823,0.1673*
1,1,0.1855,0.0823,-0.1673*
1,1,0.1855,-0.0823,-0.1673*
1,1,0.1855,-0.0823,0.1673*
%
%ADD120ROUNDEDRECTD120*%
%ADD121O,1.8000X0.6000*%
%ADD122O,0.6000X1.8000*%
%ADD123R,0.6000X1.7000*%
%ADD124R,1.4500X0.6000*%
%ADD125R,0.2000X1.0000*%
%ADD126R,1.0000X0.2000*%
%ADD127R,4.0000X4.0000*%
%ADD128R,0.6000X1.4500*%
G04:AMPARAMS|DCode=129|XSize=0.6mm|YSize=1.35mm|CornerRadius=0.045mm|HoleSize=0mm|Usage=FLASHONLY|Rotation=90.000|XOffset=0mm|YOffset=0mm|HoleType=Round|Shape=RoundedRectangle|*
%AMROUNDEDRECTD129*
21,1,0.6000,1.2600,0,0,90.0*
21,1,0.5100,1.3500,0,0,90.0*
1,1,0.0900,0.6300,0.2550*
1,1,0.0900,0.6300,-0.2550*
1,1,0.0900,-0.6300,-0.2550*
1,1,0.0900,-0.6300,0.2550*
%
%ADD129ROUNDEDRECTD129*%
%ADD130R,0.6000X1.0000*%
%ADD131R,1.7500X0.6000*%
%ADD132R,2.4100X3.3000*%
%ADD133R,0.8500X1.2000*%
%ADD134R,1.7000X2.3000*%
%ADD135R,1.0000X0.9500*%
%ADD136R,1.5500X1.9000*%
%ADD137R,1.0800X1.6300*%
%ADD138R,1.6300X1.0800*%
%ADD139R,1.9500X2.2000*%
%ADD140R,7.5000X3.0000*%
%ADD141R,0.9000X1.3500*%
%ADD142R,1.5500X2.6000*%
%ADD143R,2.2000X1.2000*%
%ADD144R,1.6000X1.2000*%
%ADD145R,1.6000X0.7000*%
%ADD146R,1.4000X1.6000*%
%ADD147R,0.6000X1.1400*%
%ADD148R,0.3000X1.1400*%
%ADD149R,1.3970X1.2700*%
%ADD150R,0.4000X1.2300*%
%ADD151R,1.7500X1.8000*%
%ADD152R,2.3000X1.2000*%
%ADD153C,0.1600*%
%ADD154C,0.4000*%
%ADD155C,1.5000*%
%ADD156C,0.8000*%
%ADD157C,0.5000*%
%ADD158C,1.0000*%
%ADD159C,3.2000*%
%ADD160R,3.0000X3.0000*%
%ADD161C,1.6000*%
%ADD162R,1.6000X1.6000*%
G04:AMPARAMS|DCode=163|XSize=1.6mm|YSize=1.6mm|CornerRadius=0.4mm|HoleSize=0mm|Usage=FLASHONLY|Rotation=180.000|XOffset=0mm|YOffset=0mm|HoleType=Round|Shape=RoundedRectangle|*
%AMROUNDEDRECTD163*
21,1,1.6000,0.8000,0,0,180.0*
21,1,0.8000,1.6000,0,0,180.0*
1,1,0.8000,-0.4000,0.4000*
1,1,0.8000,0.4000,0.4000*
1,1,0.8000,0.4000,-0.4000*
1,1,0.8000,-0.4000,-0.4000*
%
%ADD163ROUNDEDRECTD163*%
%ADD164C,2.7000*%
G04:AMPARAMS|DCode=165|XSize=2.7mm|YSize=2.7mm|CornerRadius=0.675mm|HoleSize=0mm|Usage=FLASHONLY|Rotation=0.000|XOffset=0mm|YOffset=0mm|HoleType=Round|Shape=RoundedRectangle|*
%AMROUNDEDRECTD165*
21,1,2.7000,1.3500,0,0,0.0*
21,1,1.3500,2.7000,0,0,0.0*
1,1,1.3500,0.6750,-0.6750*
1,1,1.3500,-0.6750,-0.6750*
1,1,1.3500,-0.6750,0.6750*
1,1,1.3500,0.6750,0.6750*
%
%ADD165ROUNDEDRECTD165*%
%ADD166C,1.0000*%
%ADD167O,1.0000X1.8000*%
%ADD168O,1.0000X2.1000*%
%ADD169C,0.6500*%
%ADD170C,0.8000*%
%ADD171C,0.5000*%
%ADD172C,0.6000*%
G36*
X967961Y2039D02*
X2039D01*
X2039Y997961D01*
X967961D01*
Y2039D01*
D02*
G37*
%LPC*%
G36*
X592262Y993033D02*
X85532D01*
X83476Y992624D01*
X81733Y991459D01*
X71156Y980883D01*
X69991Y979140D01*
X69582Y977083D01*
Y739223D01*
X50272D01*
X48216Y738814D01*
X46473Y737649D01*
X41944Y733121D01*
X40780Y731378D01*
X40371Y729322D01*
Y725277D01*
X39818D01*
Y724880D01*
X31349D01*
X29293Y724471D01*
X27550Y723306D01*
X26613Y722369D01*
X25448Y720626D01*
X25039Y718569D01*
Y590800D01*
Y466340D01*
X25448Y464283D01*
X26613Y462540D01*
X28716Y460437D01*
X30459Y459272D01*
X32515Y458863D01*
X37278D01*
Y458467D01*
X37356D01*
Y455006D01*
X37278D01*
Y443466D01*
X40938D01*
Y429573D01*
X40938Y429573D01*
X41098Y428765D01*
X41556Y428081D01*
X43497Y426140D01*
X44181Y425683D01*
X44989Y425522D01*
X44989Y425522D01*
X48709D01*
Y415237D01*
X66248D01*
Y440776D01*
X48709D01*
Y429743D01*
X45863D01*
X45159Y430447D01*
Y443466D01*
X48818D01*
Y447126D01*
X59888D01*
Y442966D01*
X71928D01*
Y445557D01*
X72236Y447126D01*
X73044Y447286D01*
X73729Y447744D01*
X75729Y449744D01*
X75729Y449744D01*
X76186Y450429D01*
X76347Y451236D01*
Y502362D01*
X97492Y523508D01*
X97950Y524192D01*
X98111Y525000D01*
X98111Y525000D01*
Y719499D01*
X99151Y720730D01*
X100849D01*
X102419Y721380D01*
X103620Y722581D01*
X104270Y724151D01*
Y725849D01*
X103620Y727419D01*
X102419Y728620D01*
X100849Y729270D01*
X99151D01*
X97581Y728620D01*
X97491Y728530D01*
X95817Y728391D01*
X94616Y729592D01*
X93046Y730242D01*
X91348D01*
X90207Y729769D01*
X88620Y729419D01*
X87419Y730620D01*
X85849Y731270D01*
X84151D01*
X82581Y730620D01*
X81380Y729419D01*
X80730Y727849D01*
Y726151D01*
X81380Y724581D01*
X82581Y723380D01*
X82889Y723252D01*
Y685172D01*
X80371Y682653D01*
X64768D01*
Y693313D01*
X47699D01*
Y698736D01*
X51358D01*
Y702396D01*
X64968D01*
Y698236D01*
X77008D01*
Y710776D01*
X76935D01*
Y714114D01*
X76533Y715086D01*
X75560Y715488D01*
X66416D01*
X65444Y715086D01*
X65042Y714114D01*
Y710776D01*
X64968D01*
Y706617D01*
X51358D01*
Y710276D01*
X51281D01*
Y713737D01*
X51358D01*
Y725277D01*
X51117D01*
Y727096D01*
X52498Y728476D01*
X74956D01*
X77012Y728885D01*
X78755Y730050D01*
X79920Y731794D01*
X80329Y733850D01*
Y974858D01*
X87758Y982287D01*
X127149D01*
Y975650D01*
X126632D01*
Y975570D01*
X123172D01*
Y975650D01*
X111632D01*
Y971990D01*
X87739D01*
X86932Y971830D01*
X86247Y971372D01*
X86247Y971372D01*
X85310Y970435D01*
X84852Y969750D01*
X84691Y968942D01*
X84691Y968942D01*
Y737137D01*
X84691Y737137D01*
X84852Y736329D01*
X85310Y735645D01*
X86247Y734707D01*
X86247Y734707D01*
X86932Y734250D01*
X87739Y734089D01*
X190942D01*
X190942Y734089D01*
X191750Y734250D01*
X192434Y734707D01*
X205134Y747407D01*
X205134Y747407D01*
X205592Y748092D01*
X205753Y748900D01*
X205753Y748900D01*
Y777650D01*
X207031D01*
X207602Y777886D01*
X209202Y777530D01*
Y777530D01*
X227742D01*
Y787070D01*
X227742D01*
Y788530D01*
X227742D01*
Y798069D01*
X227742D01*
Y799530D01*
X227742D01*
Y809070D01*
X227742D01*
Y810365D01*
X228138Y811965D01*
X236992D01*
Y808790D01*
X249032D01*
Y815274D01*
X250510Y815887D01*
X256173Y810224D01*
X256173Y810224D01*
X256858Y809767D01*
X257665Y809606D01*
X263408D01*
Y801827D01*
X259941D01*
X259941Y801827D01*
X259133Y801666D01*
X258449Y801209D01*
X225010Y767770D01*
X224552Y767085D01*
X224391Y766277D01*
X224391Y766277D01*
Y747567D01*
X224083Y747440D01*
X222882Y746238D01*
X222232Y744669D01*
Y742970D01*
X222882Y741401D01*
X224083Y740200D01*
X225653Y739550D01*
X227351D01*
X228921Y740200D01*
X230122Y741401D01*
X230772Y742970D01*
Y744669D01*
X230122Y746238D01*
X228921Y747440D01*
X228612Y747567D01*
Y765403D01*
X236658Y773449D01*
X238136Y772837D01*
Y756745D01*
X238136Y756745D01*
X238297Y755937D01*
X238755Y755252D01*
X240140Y753867D01*
X240012Y753559D01*
Y751860D01*
X240662Y750291D01*
X241863Y749090D01*
X243433Y748440D01*
X245131D01*
X246701Y749090D01*
X247902Y750291D01*
X248552Y751860D01*
Y752270D01*
X249568Y753572D01*
X250030Y753578D01*
X251272D01*
X252841Y754229D01*
X254042Y755430D01*
X254692Y756999D01*
Y758698D01*
X256005Y759710D01*
X257062Y760148D01*
X258263Y761349D01*
X258914Y762918D01*
Y764617D01*
X258263Y766186D01*
X257663Y766787D01*
X261930Y771055D01*
X263408Y770443D01*
Y769446D01*
X274677Y769446D01*
X275236Y769395D01*
X275329Y769367D01*
X276280Y768988D01*
X276375Y768913D01*
X276450Y768818D01*
X276829Y767867D01*
X276857Y767774D01*
X276908Y767215D01*
X276908Y760127D01*
X266018D01*
X266018Y760127D01*
X265211Y759966D01*
X264526Y759509D01*
X245384Y740367D01*
X239829D01*
Y734066D01*
X239202Y732707D01*
X238394Y732546D01*
X237710Y732089D01*
X237710Y732089D01*
X226096Y720475D01*
X225639Y719791D01*
X225478Y718983D01*
X225478Y718983D01*
Y712676D01*
X221569D01*
Y712676D01*
X220909D01*
Y712676D01*
X208869D01*
Y700136D01*
X208944D01*
Y696870D01*
X209347Y695898D01*
X210319Y695495D01*
X219463D01*
X220435Y695898D01*
X222019D01*
Y695898D01*
X222991Y695495D01*
X223464Y695495D01*
X232135D01*
X233107Y695898D01*
X233509Y696870D01*
Y700136D01*
X233609D01*
Y712676D01*
X229699D01*
Y718109D01*
X238350Y726760D01*
X239829Y726148D01*
Y720826D01*
X248369D01*
Y737382D01*
X250929Y739942D01*
X252529Y739279D01*
Y720826D01*
X261068D01*
X261221Y719290D01*
Y689210D01*
X261221Y689210D01*
X261382Y688402D01*
X261840Y687717D01*
X267571Y681985D01*
Y669366D01*
X265229D01*
Y649826D01*
X273769D01*
Y669366D01*
X271793D01*
Y682860D01*
X271632Y683667D01*
X271174Y684352D01*
X271174Y684352D01*
X265443Y690084D01*
Y720826D01*
X273769D01*
Y739169D01*
X277929D01*
Y720826D01*
X286469D01*
Y728486D01*
X295829D01*
X295829Y728486D01*
X296636Y728647D01*
X297321Y729104D01*
X304671Y736454D01*
X305128Y737139D01*
X305289Y737946D01*
X305289Y737946D01*
Y755946D01*
X317292D01*
X317428Y755262D01*
X317886Y754577D01*
X324549Y747914D01*
X324549Y747914D01*
X325234Y747457D01*
X326041Y747296D01*
X326042Y747296D01*
X336726D01*
X336726Y747296D01*
X337534Y747457D01*
X338219Y747914D01*
X341800Y751496D01*
X398685D01*
X399198Y750108D01*
X399198Y749896D01*
Y740408D01*
X397034D01*
Y744567D01*
X384994D01*
Y740408D01*
X361950D01*
X361950Y740408D01*
X361142Y740247D01*
X360457Y739790D01*
X360457Y739790D01*
X338658Y717990D01*
X333120D01*
X332992Y718298D01*
X331791Y719500D01*
X330221Y720150D01*
X328523D01*
X326953Y719500D01*
X325752Y718298D01*
X325102Y716729D01*
Y715030D01*
X325752Y713461D01*
X326953Y712260D01*
X328523Y711610D01*
X330221D01*
X331791Y712260D01*
X332992Y713461D01*
X333120Y713769D01*
X339532D01*
X339532Y713769D01*
X340340Y713930D01*
X341024Y714387D01*
X362824Y736187D01*
X384994D01*
Y732027D01*
X385068D01*
Y728744D01*
X385470Y727772D01*
X386442Y727370D01*
X395586D01*
X396558Y727772D01*
X396961Y728744D01*
Y732027D01*
X397034D01*
Y736187D01*
X399198D01*
Y735568D01*
X410238D01*
Y749896D01*
X410238Y750108D01*
X410750Y751496D01*
X418069D01*
X418450Y750054D01*
X418450D01*
Y735514D01*
X425309D01*
Y733522D01*
X425309Y733521D01*
X425470Y732714D01*
X425928Y732029D01*
X430282Y727675D01*
Y719120D01*
X441822D01*
Y727675D01*
X443002Y728854D01*
X444733Y728857D01*
X445704Y728454D01*
X454341D01*
X455312Y728857D01*
X456801Y728270D01*
Y714214D01*
X450418Y707830D01*
X333120D01*
X332992Y708139D01*
X331791Y709340D01*
X330221Y709990D01*
X328523D01*
X326953Y709340D01*
X325752Y708139D01*
X325102Y706569D01*
Y704870D01*
X325752Y703301D01*
X326953Y702100D01*
X328523Y701450D01*
X330221D01*
X331791Y702100D01*
X332992Y703301D01*
X333120Y703609D01*
X451292D01*
X451292Y703609D01*
X452100Y703770D01*
X452784Y704227D01*
X460404Y711847D01*
X460862Y712532D01*
X461022Y713340D01*
Y727175D01*
X462622Y728184D01*
X462708Y728149D01*
X471852D01*
X472824Y728552D01*
X473227Y729524D01*
Y732811D01*
X473300D01*
Y734374D01*
X474405Y735516D01*
X485445D01*
Y750056D01*
X474405D01*
Y746493D01*
X473300Y745351D01*
X461260D01*
Y741192D01*
X459849D01*
X459042Y741031D01*
X458357Y740574D01*
X458357Y740573D01*
X457420Y739636D01*
X457392Y739595D01*
X455792Y740080D01*
Y745660D01*
X444252D01*
Y736505D01*
X443870Y736146D01*
X443393Y735838D01*
X441830Y736564D01*
X441822Y736572D01*
Y745660D01*
X438162D01*
Y751066D01*
X438002Y751874D01*
X437544Y752559D01*
X437544Y752559D01*
X437215Y752888D01*
X437828Y754366D01*
X507611D01*
X510141Y751835D01*
Y745660D01*
X506482D01*
Y734120D01*
X506559D01*
Y730660D01*
X506482D01*
Y729937D01*
X504882Y729082D01*
X504739Y729177D01*
Y739281D01*
X504739Y739281D01*
X504699Y739484D01*
Y750002D01*
X493659D01*
Y735462D01*
X500518D01*
Y726773D01*
X500518Y726773D01*
X500678Y725966D01*
X501136Y725281D01*
X503140Y723277D01*
X503824Y722820D01*
X504632Y722659D01*
X506482D01*
Y719120D01*
X518022D01*
Y727675D01*
X519798Y729451D01*
X521394Y728784D01*
X521679Y728094D01*
X522651Y727692D01*
X531287D01*
X532259Y728094D01*
X532662Y729066D01*
Y733311D01*
X532740D01*
Y744851D01*
X521200D01*
Y736822D01*
X519622Y735244D01*
X518022Y735907D01*
Y745660D01*
X514362D01*
Y752710D01*
X514202Y753517D01*
X513744Y754202D01*
X513744Y754202D01*
X509978Y757969D01*
X509293Y758426D01*
X508485Y758587D01*
X508485Y758587D01*
X453355D01*
X452742Y760065D01*
X482646Y789969D01*
X502092D01*
X502092Y789969D01*
X502900Y790130D01*
X503584Y790587D01*
X511204Y798207D01*
X511662Y798892D01*
X511823Y799700D01*
Y817480D01*
X511662Y818287D01*
X511204Y818972D01*
X508225Y821952D01*
X507540Y822409D01*
X506732Y822570D01*
X506732Y822570D01*
X506381D01*
X506105Y822983D01*
X505378Y823469D01*
X504521Y823640D01*
X501176D01*
X500318Y823469D01*
X500067Y823301D01*
X498565Y823920D01*
X498467Y824009D01*
Y827143D01*
X498565Y827233D01*
X500067Y827852D01*
X500318Y827684D01*
X501176Y827513D01*
X504521D01*
X505378Y827684D01*
X506105Y828170D01*
X506591Y828896D01*
X506761Y829754D01*
Y831399D01*
X506591Y832256D01*
X506105Y832983D01*
X505378Y833469D01*
X504521Y833640D01*
X501176D01*
X500638Y834323D01*
X501656Y835372D01*
X520233D01*
X521409Y834347D01*
Y821807D01*
X521483D01*
Y818519D01*
X521886Y817547D01*
X522858Y817144D01*
X532002D01*
X532974Y817547D01*
X533377Y818519D01*
Y821807D01*
X533448D01*
Y825252D01*
X536648D01*
Y821807D01*
X536723D01*
Y818525D01*
X537126Y817553D01*
X538098Y817150D01*
X547242D01*
X548214Y817553D01*
X548617Y818525D01*
Y821807D01*
X548689D01*
Y824743D01*
X564298D01*
Y681770D01*
X561742Y679214D01*
X414132D01*
Y682660D01*
X402092D01*
Y679214D01*
X398642D01*
Y682160D01*
X387102D01*
Y670620D01*
X387180D01*
Y667160D01*
X387102D01*
Y666279D01*
X385502Y665262D01*
X384831Y665540D01*
X383133D01*
X381563Y664890D01*
X380362Y663689D01*
X379712Y662119D01*
Y660420D01*
X380362Y658851D01*
X381563Y657650D01*
X383133Y657000D01*
X384831D01*
X385502Y657278D01*
X387102Y656261D01*
Y655620D01*
X398642D01*
Y659280D01*
X402092D01*
Y655120D01*
X414132D01*
Y655120D01*
X415585Y654764D01*
Y651024D01*
X394832D01*
Y652950D01*
X383292D01*
Y651024D01*
X372981D01*
X371710Y651817D01*
X371710Y652624D01*
Y666357D01*
X369946D01*
X369283Y667957D01*
X369912Y668586D01*
X370562Y670155D01*
Y671854D01*
X369912Y673423D01*
X368711Y674624D01*
X367142Y675274D01*
X365443D01*
X363873Y674624D01*
X362672Y673423D01*
X362022Y671854D01*
Y670155D01*
X362672Y668586D01*
X363301Y667957D01*
X362638Y666357D01*
X360670D01*
Y652624D01*
X360670Y651817D01*
X359398Y651024D01*
X350632D01*
Y653450D01*
X338592D01*
Y653450D01*
X337682Y652950D01*
X326142D01*
Y641410D01*
X326219D01*
Y637950D01*
X326142D01*
Y626410D01*
X337682D01*
X338592Y625910D01*
Y625910D01*
X350632D01*
Y625910D01*
X351221Y626870D01*
X362261D01*
Y641411D01*
X352779D01*
X351926Y642862D01*
X351916Y643010D01*
X352129Y643336D01*
X383292D01*
Y641410D01*
X383369D01*
Y637950D01*
X383292D01*
Y636197D01*
X381514D01*
Y641357D01*
X370474D01*
Y626817D01*
X372813D01*
Y623416D01*
X372505Y623289D01*
X371304Y622088D01*
X370654Y620518D01*
Y618819D01*
X371304Y617250D01*
X372505Y616049D01*
X374074Y615399D01*
X375773D01*
X377342Y616049D01*
X378544Y617250D01*
X379194Y618819D01*
Y620518D01*
X378544Y622088D01*
X377342Y623289D01*
X377034Y623416D01*
Y626817D01*
X381514D01*
Y631976D01*
X383292D01*
Y626410D01*
X394832D01*
Y637950D01*
X394755D01*
Y641410D01*
X394832D01*
Y643336D01*
X447812D01*
Y638610D01*
X459852D01*
Y638610D01*
X460762Y639110D01*
X472302D01*
Y642066D01*
X478542D01*
Y640140D01*
X478619D01*
Y636680D01*
X478542D01*
Y625140D01*
X490082D01*
Y628799D01*
X492262D01*
Y624640D01*
X504302D01*
Y628799D01*
X506364D01*
Y625135D01*
X517404D01*
Y639675D01*
X506364D01*
Y633020D01*
X504302D01*
Y637180D01*
X504229D01*
Y639640D01*
X504302D01*
Y642066D01*
X539502D01*
Y640140D01*
X539579D01*
Y636680D01*
X539502D01*
Y634461D01*
X536657D01*
Y639620D01*
X525617D01*
Y625080D01*
X529026D01*
Y621769D01*
X528883Y621710D01*
X527682Y620508D01*
X527032Y618939D01*
Y617240D01*
X527682Y615671D01*
X528883Y614470D01*
X530453Y613820D01*
X532151D01*
X533721Y614470D01*
X534922Y615671D01*
X535572Y617240D01*
Y618939D01*
X534922Y620508D01*
X533721Y621710D01*
X533247Y621906D01*
Y625080D01*
X536657D01*
Y630240D01*
X539502D01*
Y625140D01*
X551042D01*
Y636680D01*
X550965D01*
Y640140D01*
X551042D01*
Y642756D01*
X554513D01*
X555137Y642132D01*
X557074Y641330D01*
X559170D01*
X561107Y642132D01*
X562590Y643615D01*
X563392Y645552D01*
Y647648D01*
X562590Y649585D01*
X561107Y651067D01*
X559170Y651870D01*
X557074D01*
X555137Y651067D01*
X554513Y650444D01*
X551042D01*
Y651680D01*
X539502D01*
Y649754D01*
X528318D01*
X526853Y650080D01*
X526853Y651354D01*
Y664621D01*
X515813D01*
Y660817D01*
X514213Y660267D01*
X513401Y661080D01*
X511831Y661730D01*
X510133D01*
X508563Y661080D01*
X507362Y659878D01*
X506712Y658309D01*
Y656610D01*
X507362Y655041D01*
X508563Y653840D01*
X510133Y653190D01*
X511831D01*
X513401Y653840D01*
X514213Y654652D01*
X515813Y654102D01*
X515813Y650080D01*
X514348Y649754D01*
X504302D01*
Y652180D01*
X492262D01*
Y649754D01*
X490082D01*
Y651680D01*
X478542D01*
Y649754D01*
X472302D01*
Y650650D01*
X472225D01*
Y654109D01*
X472302D01*
Y665649D01*
X460762D01*
X459852Y666149D01*
Y666149D01*
X447812D01*
Y660323D01*
X445877D01*
Y665482D01*
X434837D01*
Y651024D01*
X426625D01*
Y665536D01*
X415585D01*
Y665536D01*
X414132Y665892D01*
Y667660D01*
X414058D01*
Y670120D01*
X414132D01*
Y673566D01*
X562912D01*
X562912Y673566D01*
X563993Y673781D01*
X564909Y674393D01*
X569119Y678603D01*
X569119Y678603D01*
X569731Y679519D01*
X569946Y680600D01*
Y824743D01*
X786467D01*
Y821290D01*
X786870Y820318D01*
X786870Y820318D01*
X788096Y819091D01*
X788226Y819037D01*
X788305Y818920D01*
X788698Y818842D01*
X789068Y818689D01*
X789485Y817228D01*
X789490Y817177D01*
Y815191D01*
X789893Y814219D01*
X790865Y813817D01*
X800009D01*
X800981Y814219D01*
X801383Y815191D01*
Y817880D01*
X803460D01*
Y815187D01*
X803863Y814215D01*
X804835Y813812D01*
X813979D01*
X814951Y814215D01*
X815353Y815187D01*
Y817880D01*
X817450D01*
Y815195D01*
X817852Y814223D01*
X818824Y813820D01*
X827968D01*
X828940Y814223D01*
X829343Y815195D01*
Y817880D01*
X833954D01*
Y814930D01*
X834357Y813958D01*
X835329Y813555D01*
X844473D01*
X845445Y813958D01*
X845847Y814930D01*
Y816890D01*
X846855Y818126D01*
X847217Y818331D01*
X847624Y818499D01*
X848049Y818611D01*
X848099Y818696D01*
X848189Y818733D01*
X849437Y819981D01*
X850370Y819048D01*
X851342Y818645D01*
X851342Y818645D01*
X856814D01*
Y816200D01*
X857217Y815228D01*
X858189Y814825D01*
X867333D01*
X868305Y815228D01*
X868707Y816200D01*
Y818645D01*
X895187D01*
X908749Y803851D01*
X908778Y803837D01*
X908790Y803808D01*
X918913Y793684D01*
X927437Y783765D01*
X927437Y411649D01*
X919352Y403564D01*
X882625Y403564D01*
Y406049D01*
X882223Y407020D01*
X881251Y407423D01*
X872106D01*
X871134Y407020D01*
X869522Y407020D01*
X868550Y407423D01*
X859407D01*
X859397Y407419D01*
X857797Y408473D01*
Y416160D01*
X857394Y417132D01*
X857394Y417132D01*
X854854Y419672D01*
X853882Y420074D01*
X853882Y420074D01*
X846831D01*
X845097Y421809D01*
Y426199D01*
X852699D01*
Y443239D01*
X844159D01*
Y443239D01*
X843139Y442817D01*
X839614Y446342D01*
X838642Y446744D01*
X838642Y446744D01*
X831022D01*
X830050Y446342D01*
X830050Y446342D01*
X828257Y444549D01*
X828190Y444512D01*
X826234Y444512D01*
X826167Y444549D01*
X825644Y445072D01*
X824672Y445474D01*
X824672Y445474D01*
X819592D01*
X819592Y445475D01*
X818620Y445072D01*
X818620Y445072D01*
X813942Y440394D01*
X802689D01*
Y440886D01*
X802615D01*
Y442774D01*
X804401D01*
X805373Y443176D01*
X805373Y443176D01*
X806594Y444398D01*
X806997Y445370D01*
X806997Y445370D01*
Y453690D01*
X830724Y477418D01*
X831127Y478390D01*
X831127Y478390D01*
Y496170D01*
X830973Y496539D01*
X830896Y496932D01*
X818427Y515636D01*
Y633330D01*
X818427Y633330D01*
X818024Y634302D01*
X814214Y638112D01*
X813242Y638514D01*
X813242Y638514D01*
X780222D01*
X779250Y638112D01*
X779250Y638112D01*
X772900Y631762D01*
X772497Y630790D01*
X772497Y630790D01*
Y446640D01*
X772900Y445668D01*
X775391Y443176D01*
X776363Y442774D01*
X776363Y442774D01*
X790722D01*
Y440886D01*
X790648D01*
Y439729D01*
X789617Y439038D01*
X789539Y438921D01*
X789410Y438868D01*
X789256Y438497D01*
X789033Y438162D01*
X789061Y438025D01*
X789007Y437896D01*
Y427590D01*
X789007Y427590D01*
X789410Y426618D01*
X789410Y426618D01*
X790680Y425348D01*
X791652Y424945D01*
X791652Y424945D01*
X824672D01*
X824672Y424945D01*
X825507Y425291D01*
X826200Y425044D01*
X827107Y424548D01*
Y373549D01*
X826240Y372682D01*
X825837Y371710D01*
X826240Y370738D01*
X833860Y363118D01*
X834832Y362715D01*
X834832Y362715D01*
X918083D01*
X927437Y353360D01*
X927437Y297349D01*
X923163Y293074D01*
X907771D01*
Y296527D01*
X907849D01*
Y308067D01*
X907849D01*
Y309466D01*
X907849D01*
Y321006D01*
X907771D01*
Y325276D01*
X907368Y326249D01*
X906396Y326651D01*
X897760D01*
X896788Y326249D01*
X896386Y325276D01*
Y321006D01*
X896309D01*
Y309466D01*
X896308D01*
Y308067D01*
X896309D01*
Y304407D01*
X893656D01*
X892993Y306007D01*
X894224Y307238D01*
X894627Y308210D01*
X894627Y308210D01*
Y310750D01*
X894627Y310750D01*
X894627Y310750D01*
Y322180D01*
X894627Y322180D01*
X894224Y323152D01*
X894224Y323152D01*
X892954Y324422D01*
X891982Y324824D01*
X891982Y324824D01*
X885807D01*
X885165Y325784D01*
Y334929D01*
X884762Y335900D01*
X883791Y336303D01*
X883197D01*
Y347580D01*
X882794Y348552D01*
X882794Y348552D01*
X872634Y358712D01*
X871662Y359114D01*
X871662Y359114D01*
X762442D01*
X762442Y359114D01*
X761470Y358712D01*
X761470Y358712D01*
X756390Y353632D01*
X755987Y352660D01*
X755987Y352660D01*
Y336719D01*
X700912Y281644D01*
X667270Y281644D01*
X667270Y281644D01*
X666298Y281242D01*
X666298Y281242D01*
X642506Y257450D01*
X642402Y257198D01*
X642208Y257004D01*
Y256731D01*
X642104Y256478D01*
X642154Y256356D01*
X642028Y256229D01*
X641625Y255257D01*
X641625Y255257D01*
Y218000D01*
X642028Y217028D01*
X642028Y217028D01*
X652028Y207028D01*
X653000Y206625D01*
X653000Y206625D01*
X671431D01*
X678625Y199431D01*
Y141000D01*
X678625Y141000D01*
X679028Y140028D01*
X679028Y140028D01*
X682028Y137028D01*
X683000Y136625D01*
X683000Y136625D01*
X705564D01*
X705675Y136671D01*
X705791Y136644D01*
X706148Y136867D01*
X706536Y137028D01*
X706582Y137138D01*
X706683Y137201D01*
X707418Y138230D01*
X708270D01*
Y138520D01*
X713292D01*
X714264Y138923D01*
X714667Y139895D01*
Y153103D01*
X714264Y154075D01*
X713292Y154477D01*
X709079D01*
Y156522D01*
X713292D01*
X714264Y156925D01*
X714667Y157897D01*
Y171105D01*
X714264Y172077D01*
X713292Y172479D01*
X709079D01*
Y176522D01*
X713292D01*
X714264Y176925D01*
X714667Y177897D01*
Y191105D01*
X714264Y192077D01*
X713902Y193958D01*
X714972Y195028D01*
X715375Y196000D01*
X715375Y196000D01*
Y221431D01*
X718569Y224625D01*
X724838D01*
X725157Y223025D01*
X725028Y222972D01*
X725028Y222972D01*
X721028Y218972D01*
X720625Y218000D01*
X720625Y218000D01*
Y196000D01*
X721028Y195028D01*
X721028Y195028D01*
X723028Y193028D01*
X724000Y192625D01*
X724000Y192625D01*
X750431D01*
X762028Y181028D01*
X763000Y180625D01*
X763000Y180625D01*
X804000D01*
X804972Y181028D01*
X805375Y182000D01*
Y219000D01*
X805375Y219000D01*
X804972Y219972D01*
X804972Y219972D01*
X801972Y222972D01*
X801000Y223375D01*
X801000Y223375D01*
X765162D01*
X764843Y224975D01*
X764972Y225028D01*
X768494Y228550D01*
X768897Y229522D01*
X768897Y229522D01*
Y259000D01*
Y303830D01*
X771901Y306835D01*
X851413D01*
X851969Y306104D01*
X851176Y304504D01*
X778952D01*
X778952Y304504D01*
X777980Y304102D01*
X774170Y300292D01*
X773767Y299320D01*
X773767Y299320D01*
Y257410D01*
X774170Y256438D01*
X774170Y256438D01*
X804650Y225958D01*
X805622Y225555D01*
X805622Y225555D01*
X864042D01*
X864042Y225555D01*
X865014Y225958D01*
X865014Y225958D01*
X870094Y231038D01*
X870497Y232010D01*
X870497Y232010D01*
Y278430D01*
X873904Y281838D01*
X874307Y282810D01*
X874307Y282810D01*
Y296780D01*
X873904Y297752D01*
X873904Y297752D01*
X871364Y300292D01*
X870392Y300694D01*
X870392Y300694D01*
X858891D01*
X858335Y301425D01*
X859128Y303025D01*
X887900D01*
X888562Y301425D01*
X885956Y298819D01*
X885499Y298134D01*
X885338Y297326D01*
X884141Y296456D01*
X883179D01*
Y283916D01*
X890083D01*
X890362Y282316D01*
X889504Y282008D01*
X889161Y281696D01*
X888789Y281419D01*
X888239Y280497D01*
X886799D01*
Y280423D01*
X883537D01*
X882564Y280021D01*
X882162Y279049D01*
Y269904D01*
X882564Y268932D01*
X883537Y268530D01*
X886347D01*
X886797Y229454D01*
X887001Y228977D01*
X887200Y228498D01*
X894820Y220878D01*
X895792Y220475D01*
X895792Y220475D01*
X921893D01*
X927437Y214930D01*
Y134381D01*
X920431Y127375D01*
X907000D01*
X906028Y126972D01*
X905625Y126000D01*
Y87000D01*
X906028Y86028D01*
X907000Y85625D01*
X964372D01*
X965344Y86028D01*
X965747Y87000D01*
Y856770D01*
X965620Y857077D01*
X965590Y857408D01*
X965426Y857545D01*
X965344Y857742D01*
X965037Y857869D01*
X964782Y858082D01*
X930511Y868792D01*
X930430Y868785D01*
X929637Y869379D01*
X929214Y869488D01*
X928812Y869654D01*
X855152D01*
X855152Y869654D01*
X854180Y869252D01*
X854180Y869252D01*
X852910Y867982D01*
X852507Y867010D01*
X852507Y867010D01*
Y860660D01*
X852507Y860660D01*
X852910Y859688D01*
X852910Y859688D01*
X854180Y858418D01*
X855152Y858015D01*
X855152Y858015D01*
X871093D01*
X871557Y857550D01*
Y849799D01*
X871093Y849334D01*
X851342D01*
X851342Y849334D01*
X851339Y849333D01*
X850188Y849038D01*
X848941Y849765D01*
X848504Y850202D01*
X847532Y850604D01*
X847532Y850604D01*
X828775Y850604D01*
Y914333D01*
X828366Y916389D01*
X827201Y918132D01*
X826264Y919069D01*
X824521Y920234D01*
X822465Y920643D01*
X609728D01*
X605255Y925115D01*
Y952266D01*
Y980040D01*
X604846Y982096D01*
X603681Y983839D01*
X596061Y991459D01*
X594318Y992624D01*
X592262Y993033D01*
D02*
G37*
G36*
X945576Y992039D02*
X942424D01*
X942227Y992000D01*
X942026D01*
X938935Y991385D01*
X938750Y991308D01*
X938553Y991269D01*
X935641Y990063D01*
X935474Y989951D01*
X935288Y989874D01*
X932668Y988123D01*
X932526Y987981D01*
X932359Y987870D01*
X930130Y985641D01*
X930018Y985474D01*
X929876Y985332D01*
X928125Y982712D01*
X928049Y982526D01*
X927937Y982359D01*
X926731Y979447D01*
X926692Y979250D01*
X926615Y979065D01*
X926000Y975974D01*
Y975773D01*
X925961Y975576D01*
Y972424D01*
X926000Y972227D01*
Y972026D01*
X926615Y968935D01*
X926692Y968750D01*
X926731Y968553D01*
X927937Y965641D01*
X928049Y965474D01*
X928125Y965288D01*
X929876Y962668D01*
X930018Y962526D01*
X930130Y962359D01*
X932359Y960130D01*
X932526Y960018D01*
X932668Y959876D01*
X935288Y958126D01*
X935474Y958049D01*
X935641Y957937D01*
X938553Y956731D01*
X938750Y956692D01*
X938935Y956615D01*
X942026Y956000D01*
X942227D01*
X942424Y955961D01*
X945576D01*
X945773Y956000D01*
X945974D01*
X949065Y956615D01*
X949250Y956692D01*
X949447Y956731D01*
X952359Y957937D01*
X952526Y958049D01*
X952712Y958126D01*
X955332Y959876D01*
X955474Y960018D01*
X955641Y960130D01*
X957870Y962359D01*
X957981Y962526D01*
X958123Y962668D01*
X959874Y965288D01*
X959951Y965474D01*
X960063Y965641D01*
X961269Y968553D01*
X961308Y968750D01*
X961385Y968935D01*
X962000Y972026D01*
Y972227D01*
X962039Y972424D01*
Y975576D01*
X962000Y975773D01*
Y975974D01*
X961385Y979065D01*
X961308Y979250D01*
X961269Y979447D01*
X960063Y982359D01*
X959951Y982526D01*
X959874Y982712D01*
X958123Y985332D01*
X957981Y985474D01*
X957870Y985641D01*
X955641Y987870D01*
X955474Y987981D01*
X955332Y988123D01*
X952712Y989874D01*
X952526Y989951D01*
X952359Y990063D01*
X949447Y991269D01*
X949250Y991308D01*
X949065Y991385D01*
X945974Y992000D01*
X945773D01*
X945576Y992039D01*
D02*
G37*
G36*
X27576D02*
X24424D01*
X24227Y992000D01*
X24026D01*
X20935Y991385D01*
X20750Y991308D01*
X20553Y991269D01*
X17641Y990063D01*
X17474Y989951D01*
X17288Y989874D01*
X14668Y988123D01*
X14526Y987981D01*
X14359Y987870D01*
X12130Y985641D01*
X12018Y985474D01*
X11876Y985332D01*
X10125Y982712D01*
X10049Y982526D01*
X9937Y982359D01*
X8731Y979447D01*
X8692Y979250D01*
X8615Y979065D01*
X8000Y975974D01*
Y975773D01*
X7961Y975576D01*
Y972424D01*
X8000Y972227D01*
Y972026D01*
X8615Y968935D01*
X8692Y968750D01*
X8731Y968553D01*
X9937Y965641D01*
X10049Y965474D01*
X10125Y965288D01*
X11876Y962668D01*
X12018Y962526D01*
X12130Y962359D01*
X14359Y960130D01*
X14526Y960018D01*
X14668Y959876D01*
X17288Y958126D01*
X17474Y958049D01*
X17641Y957937D01*
X20553Y956731D01*
X20750Y956692D01*
X20935Y956615D01*
X24026Y956000D01*
X24227D01*
X24424Y955961D01*
X27576D01*
X27773Y956000D01*
X27974D01*
X31065Y956615D01*
X31250Y956692D01*
X31447Y956731D01*
X34359Y957937D01*
X34526Y958049D01*
X34712Y958126D01*
X37332Y959876D01*
X37474Y960018D01*
X37641Y960130D01*
X39870Y962359D01*
X39982Y962526D01*
X40124Y962668D01*
X41874Y965288D01*
X41951Y965474D01*
X42063Y965641D01*
X43269Y968553D01*
X43308Y968750D01*
X43385Y968935D01*
X44000Y972026D01*
Y972227D01*
X44039Y972424D01*
Y975576D01*
X44000Y975773D01*
Y975974D01*
X43385Y979065D01*
X43308Y979250D01*
X43269Y979447D01*
X42063Y982359D01*
X41951Y982526D01*
X41874Y982712D01*
X40124Y985332D01*
X39982Y985474D01*
X39870Y985641D01*
X37641Y987870D01*
X37474Y987981D01*
X37332Y988123D01*
X34712Y989874D01*
X34526Y989951D01*
X34359Y990063D01*
X31447Y991269D01*
X31250Y991308D01*
X31065Y991385D01*
X27974Y992000D01*
X27773D01*
X27576Y992039D01*
D02*
G37*
G36*
X845781Y867596D02*
X833181D01*
X832510Y867462D01*
X831941Y867082D01*
X831561Y866513D01*
X831427Y865842D01*
Y860742D01*
X831561Y860071D01*
X831941Y859502D01*
X832510Y859122D01*
X833181Y858988D01*
X845781D01*
X846452Y859122D01*
X847021Y859502D01*
X847401Y860071D01*
X847534Y860742D01*
Y865842D01*
X847401Y866513D01*
X847021Y867082D01*
X846452Y867462D01*
X845781Y867596D01*
D02*
G37*
G36*
X496733Y783224D02*
X481493D01*
Y778898D01*
X479893Y778122D01*
X478811Y778570D01*
X477113D01*
X475543Y777920D01*
X474342Y776719D01*
X473692Y775149D01*
Y773450D01*
X474342Y771881D01*
X475543Y770680D01*
X477113Y770030D01*
X478811D01*
X479893Y770478D01*
X481493Y769702D01*
Y766714D01*
X496733D01*
Y783224D01*
D02*
G37*
G36*
X519593D02*
X504353D01*
Y766714D01*
X519593D01*
Y772858D01*
X521443D01*
Y769199D01*
X532983D01*
Y769276D01*
X537253D01*
X538225Y769679D01*
X538628Y770651D01*
Y779287D01*
X538225Y780259D01*
X537253Y780661D01*
X532983D01*
Y780739D01*
X521443D01*
Y777079D01*
X519593D01*
Y783224D01*
D02*
G37*
G36*
X257831Y679510D02*
X256133D01*
X254563Y678860D01*
X253362Y677658D01*
X252712Y676089D01*
Y674390D01*
X253362Y672821D01*
X254563Y671620D01*
X254871Y671492D01*
Y669366D01*
X252529D01*
Y649826D01*
X261069D01*
Y669366D01*
X259093D01*
Y671492D01*
X259401Y671620D01*
X260602Y672821D01*
X261252Y674390D01*
Y676089D01*
X260602Y677658D01*
X259401Y678860D01*
X257831Y679510D01*
D02*
G37*
G36*
X245131D02*
X243433D01*
X241863Y678860D01*
X240662Y677658D01*
X240012Y676089D01*
Y674390D01*
X240662Y672821D01*
X241863Y671620D01*
X242171Y671492D01*
Y669366D01*
X239829D01*
Y649826D01*
X248369D01*
Y669366D01*
X246392D01*
Y671492D01*
X246701Y671620D01*
X247902Y672821D01*
X248552Y674390D01*
Y676089D01*
X247902Y677658D01*
X246701Y678860D01*
X245131Y679510D01*
D02*
G37*
G36*
X436428Y640536D02*
X425388D01*
Y625996D01*
X428798D01*
Y623081D01*
X428553Y622980D01*
X427352Y621778D01*
X426702Y620209D01*
Y618510D01*
X427352Y616941D01*
X428553Y615740D01*
X430123Y615090D01*
X431821D01*
X433391Y615740D01*
X434592Y616941D01*
X435242Y618510D01*
Y620209D01*
X434592Y621778D01*
X433391Y622980D01*
X433019Y623134D01*
Y625996D01*
X436428D01*
Y640536D01*
D02*
G37*
G36*
X828482Y757375D02*
X785302D01*
X784330Y756972D01*
X783927Y756000D01*
Y753381D01*
X728867D01*
X726578Y753079D01*
X724444Y752196D01*
X722612Y750790D01*
X710467Y738644D01*
X709061Y736813D01*
X708178Y734679D01*
X707876Y732390D01*
Y463004D01*
X603787Y358914D01*
X602381Y357082D01*
X601498Y354949D01*
X601196Y352660D01*
Y348993D01*
X572515D01*
Y396813D01*
X572028Y399259D01*
X570642Y401333D01*
X561856Y410120D01*
X559782Y411506D01*
X557335Y411992D01*
X535738D01*
Y412446D01*
X535662D01*
Y415907D01*
X535738D01*
Y427447D01*
X527011D01*
X526846Y427556D01*
X526039Y427717D01*
X526038Y427717D01*
X517904D01*
Y433227D01*
X501394D01*
Y417986D01*
X517904D01*
Y423496D01*
X524198D01*
Y415907D01*
X524276D01*
Y412446D01*
X524198D01*
Y400906D01*
X526783D01*
X528599Y399693D01*
X531045Y399207D01*
X554687D01*
X559729Y394165D01*
Y348993D01*
X540813D01*
X537009Y352797D01*
Y355296D01*
X536931D01*
Y358757D01*
X537009D01*
Y370297D01*
X528281D01*
X528116Y370406D01*
X527309Y370567D01*
X527308Y370567D01*
X517904D01*
Y376077D01*
X501394D01*
Y360836D01*
X517904D01*
Y366346D01*
X525468D01*
Y358757D01*
X525546D01*
Y355296D01*
X525468D01*
Y352177D01*
X525332Y351973D01*
X524846Y349526D01*
X525332Y347080D01*
X525468Y346876D01*
Y343756D01*
X527968D01*
X533645Y338079D01*
X535719Y336693D01*
X538165Y336207D01*
X601196D01*
Y276314D01*
X537798Y212915D01*
X421936D01*
X406587Y228265D01*
X404755Y229670D01*
X402621Y230554D01*
X400332Y230855D01*
X387849D01*
X387494Y231712D01*
X387494Y231712D01*
X385589Y233617D01*
X384617Y234019D01*
X384617Y234019D01*
X382668D01*
Y520600D01*
Y563480D01*
X382366Y565769D01*
X381483Y567902D01*
X380077Y569734D01*
X380077Y569735D01*
X366107Y583704D01*
X364275Y585110D01*
X362141Y585994D01*
X359852Y586295D01*
X351252D01*
Y586870D01*
X337912D01*
Y583163D01*
X336921Y581872D01*
X336038Y579739D01*
X335736Y577450D01*
X336038Y575160D01*
X336921Y573027D01*
X337912Y571736D01*
Y568030D01*
X351252D01*
Y568604D01*
X356188D01*
X364976Y559816D01*
Y522710D01*
X115308D01*
Y657878D01*
X118968D01*
Y657955D01*
X122427D01*
Y657878D01*
X132671D01*
Y654184D01*
X146011D01*
Y673024D01*
X132671D01*
Y669418D01*
X122427D01*
Y669341D01*
X118968D01*
Y669418D01*
X107428D01*
Y657878D01*
X111087D01*
Y521537D01*
X111087Y521537D01*
X111248Y520729D01*
X111705Y520045D01*
X112642Y519107D01*
X112642Y519107D01*
X113327Y518650D01*
X114135Y518489D01*
X364976D01*
Y234019D01*
X340736Y234019D01*
X337732Y237024D01*
Y258045D01*
X337732Y258045D01*
X337329Y259017D01*
X337329Y259017D01*
X336059Y260287D01*
X335087Y260689D01*
X335087Y260689D01*
X319847D01*
X319847Y260690D01*
X318875Y260287D01*
X318875Y260287D01*
X317605Y259017D01*
X317202Y258045D01*
X317202Y258045D01*
Y237024D01*
X314198Y234019D01*
X286827D01*
X286827Y234020D01*
X285855Y233617D01*
X285855Y233617D01*
X284585Y232347D01*
X284182Y231375D01*
X284182Y231375D01*
Y213595D01*
X284182Y213595D01*
X284585Y212623D01*
X284585Y212623D01*
X284980Y212228D01*
Y210230D01*
X285053D01*
Y206969D01*
X285456Y205997D01*
X286428Y205594D01*
X295572D01*
X296544Y205997D01*
X296947Y206969D01*
Y209380D01*
X298249Y210950D01*
X384617Y210950D01*
X384617Y210950D01*
X385589Y211353D01*
X385589Y211353D01*
X387400Y213164D01*
X396668D01*
X412017Y197815D01*
X413849Y196409D01*
X415983Y195525D01*
X418272Y195224D01*
X541462D01*
X543751Y195525D01*
X545885Y196409D01*
X547717Y197815D01*
X616297Y266395D01*
X616297Y266395D01*
X617702Y268227D01*
X618586Y270360D01*
X618888Y272650D01*
X618888Y272650D01*
Y342600D01*
Y348996D01*
X722977Y453085D01*
X724382Y454917D01*
X725266Y457050D01*
X725568Y459340D01*
Y728726D01*
X732531Y735689D01*
X783927D01*
Y671430D01*
X784330Y670458D01*
X784330Y670458D01*
X790680Y664108D01*
X791652Y663705D01*
X791652Y663705D01*
X821041D01*
X822058Y662105D01*
X822027Y662032D01*
Y541128D01*
X822430Y540156D01*
X823402Y539753D01*
X874202D01*
X875174Y540156D01*
X875577Y541128D01*
Y573311D01*
X876543Y573724D01*
X877177Y573801D01*
X879580Y571398D01*
X880552Y570995D01*
X880552Y570995D01*
X904992D01*
Y496860D01*
X901332D01*
Y496782D01*
X897872D01*
Y496860D01*
X886332D01*
Y491329D01*
X865399D01*
Y497739D01*
X856859D01*
Y480699D01*
X865399D01*
Y487108D01*
X886332D01*
Y473890D01*
Y462460D01*
X889829D01*
X889883Y462453D01*
X890135Y461943D01*
X889141Y460343D01*
X885119D01*
Y456370D01*
X873806D01*
X851078Y479099D01*
X851740Y480699D01*
X852699D01*
Y497739D01*
X844159D01*
Y480699D01*
X846318D01*
Y478763D01*
X846318Y478763D01*
X846479Y477955D01*
X846936Y477271D01*
X871440Y452767D01*
X871440Y452767D01*
X872124Y452310D01*
X872932Y452149D01*
X872932Y452149D01*
X885119D01*
Y448303D01*
X889278D01*
Y446373D01*
X885119D01*
Y434333D01*
X897659D01*
Y434406D01*
X900921D01*
X901893Y434809D01*
X902295Y435781D01*
Y444925D01*
X901893Y445897D01*
X900921Y446299D01*
X897659D01*
Y446373D01*
X893499D01*
Y448303D01*
X897659D01*
Y448377D01*
X900119D01*
Y448303D01*
X912659D01*
Y460343D01*
X903703D01*
X902865Y461361D01*
X903114Y462940D01*
X903517Y463912D01*
Y472548D01*
X903114Y473520D01*
Y474370D01*
X903517Y475342D01*
Y483978D01*
X904693Y485320D01*
X912872D01*
Y496860D01*
X909213D01*
Y570995D01*
X912302D01*
X912302Y570995D01*
X913274Y571398D01*
X917084Y575208D01*
X917487Y576180D01*
X917487Y576180D01*
Y686670D01*
X917084Y687642D01*
X917084Y687642D01*
X910734Y693992D01*
X909762Y694394D01*
X909762Y694394D01*
X841751D01*
X829857Y706289D01*
Y756000D01*
X829454Y756972D01*
X828482Y757375D01*
D02*
G37*
G36*
X232299Y569386D02*
X230601D01*
X229031Y568736D01*
X227830Y567535D01*
X227180Y565965D01*
Y564267D01*
X227830Y562697D01*
X229031Y561496D01*
X229494Y561305D01*
Y559559D01*
X228680Y559015D01*
X227736Y557603D01*
X227574Y556788D01*
X225943D01*
X225781Y557603D01*
X224837Y559015D01*
X223424Y559959D01*
X221758Y560290D01*
X220092Y559959D01*
X218680Y559015D01*
X217736Y557603D01*
X217574Y556788D01*
X215943D01*
X215781Y557603D01*
X214837Y559015D01*
X213424Y559959D01*
X211758Y560290D01*
X210092Y559959D01*
X208680Y559015D01*
X207736Y557603D01*
X207574Y556788D01*
X205943D01*
X205781Y557603D01*
X204837Y559015D01*
X203424Y559959D01*
X201758Y560290D01*
X200092Y559959D01*
X198680Y559015D01*
X197736Y557603D01*
X197574Y556788D01*
X195943D01*
X195781Y557603D01*
X194837Y559015D01*
X193424Y559959D01*
X191758Y560290D01*
X190092Y559959D01*
X188680Y559015D01*
X187736Y557603D01*
X187405Y555936D01*
Y543937D01*
X187736Y542270D01*
X188680Y540858D01*
X190092Y539914D01*
X191758Y539583D01*
X193424Y539914D01*
X194837Y540858D01*
X195781Y542270D01*
X195943Y543085D01*
X197574D01*
X197736Y542270D01*
X198680Y540858D01*
X200092Y539914D01*
X201758Y539583D01*
X203424Y539914D01*
X204837Y540858D01*
X205781Y542270D01*
X205943Y543085D01*
X207574D01*
X207736Y542270D01*
X208680Y540858D01*
X210092Y539914D01*
X211758Y539583D01*
X213424Y539914D01*
X214837Y540858D01*
X215781Y542270D01*
X215943Y543085D01*
X217574D01*
X217736Y542270D01*
X218680Y540858D01*
X220092Y539914D01*
X221758Y539583D01*
X223424Y539914D01*
X224837Y540858D01*
X225781Y542270D01*
X225943Y543085D01*
X227574D01*
X227736Y542270D01*
X228680Y540858D01*
X230092Y539914D01*
X231758Y539583D01*
X233424Y539914D01*
X234837Y540858D01*
X235781Y542270D01*
X235943Y543087D01*
X237574D01*
X237736Y542270D01*
X238680Y540858D01*
X240093Y539914D01*
X241759Y539583D01*
X243425Y539914D01*
X244837Y540858D01*
X245781Y542270D01*
X245943Y543085D01*
X247574D01*
X247736Y542270D01*
X248680Y540858D01*
X250093Y539914D01*
X251759Y539583D01*
X253425Y539914D01*
X254837Y540858D01*
X255781Y542270D01*
X255943Y543085D01*
X257574D01*
X257736Y542270D01*
X258680Y540858D01*
X260093Y539914D01*
X261759Y539583D01*
X263425Y539914D01*
X264837Y540858D01*
X265781Y542270D01*
X265943Y543085D01*
X267574D01*
X267736Y542270D01*
X268680Y540858D01*
X270093Y539914D01*
X271759Y539583D01*
X273425Y539914D01*
X274837Y540858D01*
X275781Y542270D01*
X275943Y543085D01*
X277574D01*
X277736Y542270D01*
X278680Y540858D01*
X280093Y539914D01*
X281759Y539583D01*
X283425Y539914D01*
X284837Y540858D01*
X285781Y542270D01*
X285943Y543085D01*
X287574D01*
X287736Y542270D01*
X288680Y540858D01*
X290093Y539914D01*
X291759Y539583D01*
X293425Y539914D01*
X294837Y540858D01*
X295781Y542270D01*
X296112Y543937D01*
Y555936D01*
X295781Y557603D01*
X294837Y559015D01*
X293425Y559959D01*
X291759Y560290D01*
X290093Y559959D01*
X288680Y559015D01*
X287736Y557603D01*
X287574Y556788D01*
X285943D01*
X285781Y557603D01*
X284837Y559015D01*
X283425Y559959D01*
X281759Y560290D01*
X280093Y559959D01*
X278680Y559015D01*
X277736Y557603D01*
X277574Y556788D01*
X275943D01*
X275781Y557603D01*
X274837Y559015D01*
X274219Y559428D01*
X274277Y560979D01*
X274641Y561130D01*
X275842Y562331D01*
X276492Y563900D01*
Y565599D01*
X275842Y567169D01*
X274641Y568370D01*
X273071Y569020D01*
X271373D01*
X269803Y568370D01*
X268602Y567169D01*
X267952Y565599D01*
Y563900D01*
X268602Y562331D01*
X269654Y561279D01*
X269586Y559620D01*
X269586Y559620D01*
X268680Y559015D01*
X267736Y557603D01*
X267574Y556788D01*
X265943D01*
X265781Y557603D01*
X264837Y559015D01*
X263425Y559959D01*
X261759Y560290D01*
X260093Y559959D01*
X258680Y559015D01*
X257736Y557603D01*
X257574Y556788D01*
X255943D01*
X255781Y557603D01*
X254837Y559015D01*
X253425Y559959D01*
X251759Y560290D01*
X250093Y559959D01*
X248680Y559015D01*
X247736Y557603D01*
X247574Y556788D01*
X245943D01*
X245781Y557603D01*
X244837Y559015D01*
X244070Y559527D01*
X244136Y561120D01*
X244161Y561130D01*
X245362Y562331D01*
X246012Y563900D01*
Y565599D01*
X245362Y567169D01*
X244161Y568370D01*
X242591Y569020D01*
X240893D01*
X239323Y568370D01*
X238122Y567169D01*
X237472Y565599D01*
Y563900D01*
X238122Y562331D01*
X239323Y561130D01*
X239371Y561110D01*
X239437Y559520D01*
X238680Y559015D01*
X237736Y557603D01*
X237574Y556786D01*
X235943D01*
X235781Y557603D01*
X234837Y559015D01*
X233715Y559765D01*
Y561432D01*
X233869Y561496D01*
X235070Y562697D01*
X235720Y564267D01*
Y565965D01*
X235070Y567535D01*
X233869Y568736D01*
X232299Y569386D01*
D02*
G37*
G36*
X351758Y560290D02*
X350092Y559959D01*
X348680Y559015D01*
X347736Y557603D01*
X347405Y555936D01*
Y543937D01*
X347736Y542270D01*
X348680Y540858D01*
X350092Y539914D01*
X351758Y539583D01*
X353425Y539914D01*
X354837Y540858D01*
X355781Y542270D01*
X356112Y543937D01*
Y555936D01*
X355781Y557603D01*
X354837Y559015D01*
X353425Y559959D01*
X351758Y560290D01*
D02*
G37*
G36*
X167941Y682855D02*
X156401D01*
Y673314D01*
X155471Y673024D01*
Y654184D01*
X156151D01*
Y641974D01*
X156225D01*
Y639514D01*
X156151D01*
Y628574D01*
X155471D01*
Y609734D01*
X156151D01*
Y597524D01*
X156230D01*
Y595064D01*
X156151D01*
Y582524D01*
X154969Y582346D01*
Y563507D01*
X159648D01*
Y559662D01*
X158680Y559015D01*
X157736Y557603D01*
X157405Y555936D01*
Y543937D01*
X157736Y542270D01*
X158680Y540858D01*
X160092Y539914D01*
X161758Y539583D01*
X163424Y539914D01*
X164837Y540858D01*
X165781Y542270D01*
X166112Y543937D01*
Y555936D01*
X165781Y557603D01*
X164837Y559015D01*
X163869Y559662D01*
Y563507D01*
X168309D01*
Y582346D01*
X168309D01*
X168191Y582524D01*
Y595064D01*
X168123D01*
Y597524D01*
X168191D01*
Y609734D01*
X168811D01*
Y628574D01*
X168191D01*
Y639514D01*
X168118D01*
Y641974D01*
X168191D01*
Y654184D01*
X168811D01*
Y673024D01*
X167941Y673314D01*
Y682855D01*
D02*
G37*
G36*
X141758Y560290D02*
X140092Y559959D01*
X138680Y559015D01*
X137736Y557603D01*
X137405Y555936D01*
Y543937D01*
X137736Y542270D01*
X138680Y540858D01*
X140092Y539914D01*
X141758Y539583D01*
X143425Y539914D01*
X144837Y540858D01*
X145781Y542270D01*
X146112Y543937D01*
Y555936D01*
X145781Y557603D01*
X144837Y559015D01*
X143425Y559959D01*
X141758Y560290D01*
D02*
G37*
G36*
X326832Y605494D02*
X326832Y605494D01*
X253172D01*
X252200Y605092D01*
X252200Y605092D01*
X249660Y602552D01*
X249257Y601580D01*
X249257Y601580D01*
Y588880D01*
X249660Y587908D01*
X249660Y587908D01*
X252200Y585368D01*
X253172Y584965D01*
X253172Y584965D01*
X311023D01*
X312757Y583230D01*
Y568560D01*
X312757Y568560D01*
X313160Y567588D01*
X316567Y564180D01*
Y539350D01*
X316970Y538378D01*
X316970Y538378D01*
X319510Y535838D01*
X320482Y535435D01*
X320482Y535435D01*
X334452D01*
X335424Y535838D01*
X335424Y535838D01*
X337964Y538378D01*
X338367Y539350D01*
X338367Y539350D01*
Y562210D01*
X338367Y562210D01*
X337964Y563182D01*
X337964Y563182D01*
X329477Y571669D01*
Y588570D01*
X331357D01*
X332329Y588973D01*
X332731Y589944D01*
Y599089D01*
X332329Y600061D01*
X331357Y600463D01*
X329477D01*
Y602850D01*
X329477Y602850D01*
X329074Y603822D01*
X329074Y603822D01*
X327804Y605092D01*
X326832Y605494D01*
D02*
G37*
G36*
X403758Y508290D02*
X391758D01*
X390092Y507959D01*
X388680Y507015D01*
X387736Y505603D01*
X387405Y503937D01*
X387736Y502271D01*
X388680Y500858D01*
X390092Y499914D01*
X391758Y499583D01*
X403758D01*
X405424Y499914D01*
X406837Y500858D01*
X407781Y502271D01*
X408112Y503937D01*
X407781Y505603D01*
X406837Y507015D01*
X405424Y507959D01*
X403758Y508290D01*
D02*
G37*
G36*
X464691Y494843D02*
X455546D01*
X454574Y494441D01*
X454172Y493469D01*
Y490207D01*
X454099D01*
Y489707D01*
X444069D01*
Y489629D01*
X440608D01*
Y489707D01*
X430578D01*
Y490207D01*
X430505D01*
Y493469D01*
X430103Y494441D01*
X429131Y494843D01*
X419986D01*
X419014Y494441D01*
X418612Y493469D01*
Y490207D01*
X418539D01*
Y486047D01*
X407484D01*
X406837Y487015D01*
X405424Y487959D01*
X403758Y488290D01*
X391758D01*
X390092Y487959D01*
X388680Y487015D01*
X387736Y485603D01*
X387405Y483937D01*
X387736Y482271D01*
X388680Y480858D01*
X390092Y479914D01*
X391758Y479583D01*
X403758D01*
X405424Y479914D01*
X406837Y480858D01*
X407484Y481826D01*
X418539D01*
Y477667D01*
X430578D01*
Y478167D01*
X440608D01*
Y478244D01*
X444069D01*
Y478167D01*
X454099D01*
Y477667D01*
X466138D01*
Y477667D01*
X467168Y478167D01*
X478708D01*
Y478244D01*
X482169D01*
Y478167D01*
X493708D01*
Y478167D01*
X493959Y478167D01*
Y478167D01*
X503499D01*
Y489706D01*
X493959D01*
Y489706D01*
X493708Y489707D01*
Y489707D01*
X482169D01*
Y489629D01*
X478708D01*
Y489707D01*
X467168D01*
X466065Y490850D01*
Y493469D01*
X465662Y494441D01*
X464691Y494843D01*
D02*
G37*
G36*
X132759Y507311D02*
X108758D01*
X107786Y506908D01*
X107384Y505937D01*
Y481936D01*
X107786Y480965D01*
X108758Y480562D01*
X132759D01*
X133730Y480965D01*
X134133Y481936D01*
Y505937D01*
X133730Y506908D01*
X132759Y507311D01*
D02*
G37*
G36*
X114321Y478850D02*
X112623D01*
X111053Y478200D01*
X109852Y476998D01*
X109591Y476369D01*
X105269D01*
X104837Y477015D01*
X103425Y477959D01*
X101758Y478290D01*
X89759D01*
X88092Y477959D01*
X86680Y477015D01*
X85736Y475603D01*
X85405Y473937D01*
X85736Y472271D01*
X86680Y470858D01*
X88092Y469914D01*
X88907Y469752D01*
Y468121D01*
X88092Y467959D01*
X86680Y467015D01*
X85736Y465603D01*
X85405Y463937D01*
X85736Y462271D01*
X86680Y460858D01*
X88092Y459914D01*
X89759Y459583D01*
X101758D01*
X103425Y459914D01*
X104837Y460858D01*
X105645Y462068D01*
X109824D01*
X109852Y462001D01*
X111053Y460800D01*
X112623Y460150D01*
X114321D01*
X115891Y460800D01*
X117092Y462001D01*
X117742Y463570D01*
Y465269D01*
X117092Y466838D01*
X115891Y468040D01*
X114321Y468690D01*
X112623D01*
X111053Y468040D01*
X109852Y466838D01*
X109624Y466289D01*
X105322D01*
X104837Y467015D01*
X103425Y467959D01*
X102610Y468121D01*
Y469752D01*
X103425Y469914D01*
X104837Y470858D01*
X105699Y472148D01*
X109865D01*
X111053Y470960D01*
X112623Y470310D01*
X114321D01*
X115891Y470960D01*
X117092Y472161D01*
X117742Y473730D01*
Y475429D01*
X117092Y476998D01*
X115891Y478200D01*
X114321Y478850D01*
D02*
G37*
G36*
X882762Y445170D02*
X870722D01*
Y436830D01*
X865399D01*
Y443239D01*
X856859D01*
Y426199D01*
X865399D01*
Y432608D01*
X870795D01*
Y429368D01*
X871197Y428396D01*
X872169Y427993D01*
X881313D01*
X882286Y428396D01*
X882688Y429368D01*
Y432630D01*
X882762D01*
Y445170D01*
D02*
G37*
G36*
X101758Y448290D02*
X89759D01*
X88092Y447959D01*
X86680Y447015D01*
X85736Y445603D01*
X85405Y443937D01*
X85736Y442271D01*
X86680Y440858D01*
X88092Y439914D01*
X88907Y439752D01*
Y438121D01*
X88092Y437959D01*
X86680Y437015D01*
X85736Y435603D01*
X85405Y433937D01*
X85736Y432271D01*
X86680Y430858D01*
X88092Y429914D01*
X88907Y429752D01*
Y428121D01*
X88092Y427959D01*
X86680Y427015D01*
X85736Y425603D01*
X85405Y423937D01*
X85736Y422271D01*
X86680Y420858D01*
X88092Y419915D01*
X88907Y419752D01*
Y418121D01*
X88092Y417959D01*
X86680Y417015D01*
X85736Y415603D01*
X85405Y413937D01*
X85736Y412271D01*
X86680Y410858D01*
X88092Y409915D01*
X89759Y409583D01*
X101758D01*
X103425Y409915D01*
X104837Y410858D01*
X105781Y412271D01*
X106112Y413937D01*
X105781Y415603D01*
X104837Y417015D01*
X103425Y417959D01*
X102610Y418121D01*
Y419752D01*
X103425Y419915D01*
X104837Y420858D01*
X105781Y422271D01*
X106112Y423937D01*
X105781Y425603D01*
X104837Y427015D01*
X103425Y427959D01*
X102610Y428121D01*
Y429752D01*
X103425Y429914D01*
X104837Y430858D01*
X105781Y432271D01*
X106112Y433937D01*
X105781Y435603D01*
X104837Y437015D01*
X103425Y437959D01*
X102610Y438121D01*
Y439752D01*
X103425Y439914D01*
X104837Y440858D01*
X105781Y442271D01*
X106112Y443937D01*
X105781Y445603D01*
X104837Y447015D01*
X103425Y447959D01*
X101758Y448290D01*
D02*
G37*
G36*
X403758Y458290D02*
X391758D01*
X390092Y457959D01*
X388680Y457015D01*
X387736Y455603D01*
X387405Y453937D01*
X387736Y452271D01*
X388680Y450858D01*
X390092Y449914D01*
X390907Y449752D01*
Y448121D01*
X390092Y447959D01*
X388680Y447015D01*
X387736Y445603D01*
X387405Y443937D01*
X387736Y442271D01*
X388680Y440858D01*
X390092Y439914D01*
X390907Y439752D01*
Y438121D01*
X390092Y437959D01*
X388680Y437015D01*
X387736Y435603D01*
X387405Y433937D01*
X387736Y432271D01*
X388680Y430858D01*
X390092Y429914D01*
X390907Y429752D01*
Y428121D01*
X390092Y427959D01*
X388680Y427015D01*
X387736Y425603D01*
X387405Y423937D01*
X387736Y422271D01*
X388680Y420858D01*
X390092Y419915D01*
X390907Y419752D01*
Y418121D01*
X390092Y417959D01*
X388680Y417015D01*
X387736Y415603D01*
X387405Y413937D01*
X387736Y412271D01*
X388680Y410858D01*
X390092Y409915D01*
X390907Y409752D01*
Y408121D01*
X390092Y407959D01*
X388680Y407015D01*
X387736Y405603D01*
X387405Y403937D01*
X387736Y402271D01*
X388680Y400858D01*
X390092Y399915D01*
X390907Y399752D01*
Y398121D01*
X390092Y397959D01*
X388680Y397015D01*
X387736Y395603D01*
X387405Y393937D01*
X387736Y392271D01*
X388680Y390858D01*
X390092Y389915D01*
X390909Y389752D01*
Y388121D01*
X390092Y387958D01*
X388680Y387015D01*
X387736Y385602D01*
X387405Y383936D01*
X387736Y382270D01*
X388680Y380858D01*
X390092Y379914D01*
X390907Y379752D01*
Y378121D01*
X390092Y377958D01*
X388680Y377015D01*
X387736Y375602D01*
X387405Y373936D01*
X387736Y372270D01*
X388680Y370858D01*
X390092Y369914D01*
X390907Y369752D01*
Y368121D01*
X390092Y367958D01*
X388680Y367015D01*
X387736Y365602D01*
X387405Y363936D01*
X387736Y362270D01*
X388680Y360858D01*
X390092Y359914D01*
X390907Y359752D01*
Y358121D01*
X390092Y357959D01*
X388680Y357015D01*
X387736Y355602D01*
X387405Y353936D01*
X387736Y352270D01*
X388680Y350858D01*
X390092Y349914D01*
X390907Y349752D01*
Y348121D01*
X390092Y347959D01*
X388680Y347015D01*
X387736Y345602D01*
X387405Y343936D01*
X387736Y342270D01*
X388680Y340858D01*
X390092Y339914D01*
X390907Y339752D01*
Y338121D01*
X390092Y337959D01*
X388680Y337015D01*
X387736Y335602D01*
X387405Y333936D01*
X387736Y332270D01*
X388680Y330858D01*
X390092Y329914D01*
X391758Y329583D01*
X403758D01*
X405424Y329914D01*
X406837Y330858D01*
X407781Y332270D01*
X408112Y333936D01*
X407781Y335602D01*
X406837Y337015D01*
X405424Y337959D01*
X404610Y338121D01*
Y339752D01*
X405424Y339914D01*
X406837Y340858D01*
X407781Y342270D01*
X408112Y343936D01*
X407781Y345602D01*
X406837Y347015D01*
X405424Y347959D01*
X404610Y348121D01*
Y349752D01*
X405424Y349914D01*
X406837Y350858D01*
X407781Y352270D01*
X408112Y353936D01*
X407781Y355602D01*
X406837Y357015D01*
X405424Y357959D01*
X404610Y358121D01*
Y359752D01*
X405424Y359914D01*
X406837Y360858D01*
X407781Y362270D01*
X408112Y363936D01*
X407781Y365602D01*
X406837Y367015D01*
X405424Y367958D01*
X404610Y368121D01*
Y369752D01*
X405424Y369914D01*
X406837Y370858D01*
X407781Y372270D01*
X408112Y373936D01*
X407781Y375602D01*
X406837Y377015D01*
X405424Y377958D01*
X404610Y378121D01*
Y379752D01*
X405424Y379914D01*
X406837Y380858D01*
X407484Y381826D01*
X417871D01*
X427591Y372105D01*
Y367757D01*
X423868D01*
Y356217D01*
X423946D01*
Y352756D01*
X423868D01*
Y341216D01*
X435409D01*
Y344876D01*
X441648D01*
Y341216D01*
X453189D01*
Y344876D01*
X462980D01*
Y338581D01*
X474021D01*
Y353120D01*
X462980D01*
Y349097D01*
X453189D01*
Y352756D01*
X453111D01*
Y357026D01*
X452709Y357999D01*
X451736Y358401D01*
X443101D01*
X442128Y357999D01*
X441726Y357026D01*
Y352756D01*
X441648D01*
Y349097D01*
X435409D01*
Y352756D01*
X435331D01*
Y356217D01*
X435409D01*
Y367757D01*
X431813D01*
Y372980D01*
X431652Y373787D01*
X431194Y374472D01*
X420238Y385429D01*
X419553Y385886D01*
X418745Y386047D01*
X418745Y386047D01*
X407484D01*
X406837Y387015D01*
X405424Y387958D01*
X404608Y388121D01*
Y389752D01*
X405424Y389915D01*
X406837Y390858D01*
X407781Y392271D01*
X408112Y393937D01*
X407781Y395603D01*
X406837Y397015D01*
X405424Y397959D01*
X404610Y398121D01*
Y399752D01*
X405424Y399915D01*
X406837Y400858D01*
X407484Y401826D01*
X414439D01*
X414439Y401826D01*
X415246Y401987D01*
X415931Y402444D01*
X423539Y410052D01*
X425139Y409389D01*
Y399636D01*
X436679D01*
Y403296D01*
X444188D01*
Y399636D01*
X455728D01*
Y403296D01*
X462980D01*
Y397001D01*
X474021D01*
Y411540D01*
X462980D01*
Y407517D01*
X455728D01*
Y411176D01*
X455651D01*
Y415468D01*
X455248Y416440D01*
X454276Y416843D01*
X445640D01*
X444668Y416440D01*
X444265Y415468D01*
Y411176D01*
X444188D01*
Y407517D01*
X436679D01*
Y411176D01*
X436602D01*
Y414637D01*
X436679D01*
Y426177D01*
X425139D01*
Y417621D01*
X413564Y406047D01*
X407484D01*
X406837Y407015D01*
X405424Y407959D01*
X404610Y408121D01*
Y409752D01*
X405424Y409915D01*
X406837Y410858D01*
X407781Y412271D01*
X408112Y413937D01*
X407781Y415603D01*
X406837Y417015D01*
X405424Y417959D01*
X404610Y418121D01*
Y419752D01*
X405424Y419915D01*
X406837Y420858D01*
X407781Y422271D01*
X408112Y423937D01*
X407781Y425603D01*
X406837Y427015D01*
X405424Y427959D01*
X404610Y428121D01*
Y429752D01*
X405424Y429914D01*
X406837Y430858D01*
X407781Y432271D01*
X408112Y433937D01*
X407781Y435603D01*
X406837Y437015D01*
X405424Y437959D01*
X404610Y438121D01*
Y439752D01*
X405424Y439914D01*
X406837Y440858D01*
X407781Y442271D01*
X408112Y443937D01*
X407781Y445603D01*
X406837Y447015D01*
X405424Y447959D01*
X404610Y448121D01*
Y449752D01*
X405424Y449914D01*
X406837Y450858D01*
X407781Y452271D01*
X408112Y453937D01*
X407781Y455603D01*
X406837Y457015D01*
X405424Y457959D01*
X403758Y458290D01*
D02*
G37*
G36*
X493274Y411487D02*
X482234D01*
Y396947D01*
X493274D01*
Y402106D01*
X501394D01*
Y395126D01*
X517904D01*
Y410367D01*
X501394D01*
Y406327D01*
X493274D01*
Y411487D01*
D02*
G37*
G36*
X101758Y398290D02*
X89759D01*
X88092Y397959D01*
X86680Y397015D01*
X85736Y395603D01*
X85405Y393937D01*
X85736Y392271D01*
X86680Y390858D01*
X88092Y389915D01*
X88909Y389752D01*
Y388121D01*
X88092Y387958D01*
X86680Y387015D01*
X85736Y385602D01*
X85405Y383936D01*
X85736Y382270D01*
X86680Y380858D01*
X88092Y379914D01*
X88907Y379752D01*
Y378121D01*
X88092Y377958D01*
X86680Y377015D01*
X85736Y375602D01*
X85405Y373936D01*
X85736Y372270D01*
X86680Y370858D01*
X88092Y369914D01*
X89759Y369583D01*
X101758D01*
X103425Y369914D01*
X104837Y370858D01*
X105781Y372270D01*
X106112Y373936D01*
X105781Y375602D01*
X104837Y377015D01*
X103425Y377958D01*
X102610Y378121D01*
Y379752D01*
X103425Y379914D01*
X104837Y380858D01*
X105781Y382270D01*
X106112Y383936D01*
X105781Y385602D01*
X104837Y387015D01*
X103425Y387958D01*
X102608Y388121D01*
Y389752D01*
X103425Y389915D01*
X104837Y390858D01*
X105781Y392271D01*
X106112Y393937D01*
X105781Y395603D01*
X104837Y397015D01*
X103425Y397959D01*
X101758Y398290D01*
D02*
G37*
G36*
X123170Y358870D02*
X121074D01*
X119137Y358067D01*
X118849Y357780D01*
X103692D01*
X103425Y357959D01*
X101758Y358290D01*
X89759D01*
X88092Y357959D01*
X86680Y357015D01*
X85736Y355602D01*
X85405Y353936D01*
X85736Y352270D01*
X86680Y350858D01*
X88092Y349914D01*
X88907Y349752D01*
Y348121D01*
X88092Y347959D01*
X86680Y347015D01*
X85736Y345602D01*
X85405Y343936D01*
X85736Y342270D01*
X86680Y340858D01*
X88092Y339914D01*
X88907Y339752D01*
Y338121D01*
X88092Y337959D01*
X86680Y337015D01*
X86033Y336047D01*
X57919D01*
X57111Y335886D01*
X56426Y335429D01*
X25620Y304622D01*
X25162Y303937D01*
X25001Y303130D01*
X25001Y303130D01*
Y183870D01*
X25001Y183870D01*
X25162Y183062D01*
X25620Y182378D01*
X30820Y177177D01*
X30820Y177177D01*
X31504Y176720D01*
X32312Y176559D01*
X32312Y176559D01*
X35432D01*
Y172900D01*
X44014D01*
X45295Y171812D01*
Y162668D01*
X45698Y161696D01*
X46670Y161293D01*
X49932D01*
Y161220D01*
X62472D01*
Y165129D01*
X164272D01*
X164272Y165129D01*
X165080Y165290D01*
X165764Y165747D01*
X172114Y172097D01*
X172114Y172097D01*
X172572Y172782D01*
X172733Y173590D01*
Y198590D01*
X175952D01*
X176392Y198590D01*
X177552D01*
X177992Y198590D01*
X188652D01*
X189092Y198590D01*
X190252D01*
X190692Y198590D01*
X201792D01*
Y214630D01*
X190692D01*
X190252Y214630D01*
X189092D01*
X188652Y214630D01*
X185432D01*
Y229470D01*
X185272Y230277D01*
X184814Y230962D01*
X184814Y230962D01*
X179171Y236606D01*
X180092Y237914D01*
X181758Y237583D01*
X183424Y237914D01*
X184837Y238858D01*
X185781Y240271D01*
X185943Y241085D01*
X187574D01*
X187736Y240271D01*
X188680Y238858D01*
X190092Y237914D01*
X191758Y237583D01*
X193424Y237914D01*
X194837Y238858D01*
X195781Y240271D01*
X195943Y241085D01*
X197574D01*
X197736Y240271D01*
X198680Y238858D01*
X200092Y237914D01*
X201758Y237583D01*
X203424Y237914D01*
X204837Y238858D01*
X205781Y240271D01*
X205943Y241085D01*
X207574D01*
X207736Y240271D01*
X208680Y238858D01*
X210092Y237914D01*
X211758Y237583D01*
X213424Y237914D01*
X214837Y238858D01*
X215781Y240271D01*
X215943Y241085D01*
X217574D01*
X217736Y240271D01*
X218680Y238858D01*
X220092Y237914D01*
X221758Y237583D01*
X223424Y237914D01*
X224837Y238858D01*
X225781Y240271D01*
X225943Y241085D01*
X227574D01*
X227736Y240271D01*
X228680Y238858D01*
X230092Y237914D01*
X231758Y237583D01*
X233424Y237914D01*
X234837Y238858D01*
X235781Y240271D01*
X235943Y241087D01*
X237574D01*
X237736Y240271D01*
X238680Y238858D01*
X240093Y237914D01*
X241759Y237583D01*
X243425Y237914D01*
X244837Y238858D01*
X245781Y240271D01*
X245943Y241085D01*
X247574D01*
X247736Y240271D01*
X248680Y238858D01*
X250093Y237914D01*
X251759Y237583D01*
X253425Y237914D01*
X254837Y238858D01*
X255781Y240271D01*
X255943Y241085D01*
X257574D01*
X257736Y240271D01*
X258680Y238858D01*
X260093Y237914D01*
X261759Y237583D01*
X263425Y237914D01*
X264837Y238858D01*
X265781Y240271D01*
X265943Y241085D01*
X267574D01*
X267736Y240271D01*
X268680Y238858D01*
X270093Y237914D01*
X271759Y237583D01*
X273425Y237914D01*
X274837Y238858D01*
X275781Y240271D01*
X275943Y241085D01*
X277574D01*
X277736Y240271D01*
X278680Y238858D01*
X280093Y237914D01*
X281759Y237583D01*
X283425Y237914D01*
X284837Y238858D01*
X285781Y240271D01*
X285943Y241085D01*
X287574D01*
X287736Y240271D01*
X288680Y238858D01*
X290093Y237914D01*
X291759Y237583D01*
X293425Y237914D01*
X294837Y238858D01*
X295781Y240271D01*
X295943Y241085D01*
X297574D01*
X297736Y240271D01*
X298680Y238858D01*
X300093Y237914D01*
X301759Y237583D01*
X303425Y237914D01*
X304837Y238858D01*
X305781Y240271D01*
X306112Y241936D01*
Y253937D01*
X305781Y255603D01*
X304837Y257015D01*
X303425Y257959D01*
X301759Y258290D01*
X300093Y257959D01*
X298680Y257015D01*
X297736Y255603D01*
X297574Y254788D01*
X295943D01*
X295781Y255603D01*
X294837Y257015D01*
X293425Y257959D01*
X291759Y258290D01*
X290093Y257959D01*
X288680Y257015D01*
X287736Y255603D01*
X287574Y254788D01*
X285943D01*
X285781Y255603D01*
X284837Y257015D01*
X283425Y257959D01*
X281759Y258290D01*
X280093Y257959D01*
X278680Y257015D01*
X277736Y255603D01*
X277574Y254788D01*
X275943D01*
X275781Y255603D01*
X274837Y257015D01*
X273425Y257959D01*
X271759Y258290D01*
X270093Y257959D01*
X268680Y257015D01*
X267736Y255603D01*
X267574Y254788D01*
X265943D01*
X265781Y255603D01*
X264837Y257015D01*
X263425Y257959D01*
X261759Y258290D01*
X260093Y257959D01*
X258680Y257015D01*
X257736Y255603D01*
X257574Y254788D01*
X255943D01*
X255781Y255603D01*
X254837Y257015D01*
X253425Y257959D01*
X251759Y258290D01*
X250093Y257959D01*
X248680Y257015D01*
X247736Y255603D01*
X247574Y254788D01*
X245943D01*
X245781Y255603D01*
X244837Y257015D01*
X243425Y257959D01*
X241759Y258290D01*
X240093Y257959D01*
X238680Y257015D01*
X237736Y255603D01*
X237574Y254786D01*
X235943D01*
X235781Y255603D01*
X234837Y257015D01*
X233424Y257959D01*
X231758Y258290D01*
X230092Y257959D01*
X228680Y257015D01*
X227736Y255603D01*
X227574Y254788D01*
X225943D01*
X225781Y255603D01*
X224837Y257015D01*
X223424Y257959D01*
X221758Y258290D01*
X220092Y257959D01*
X218680Y257015D01*
X217736Y255603D01*
X217574Y254788D01*
X215943D01*
X215781Y255603D01*
X214837Y257015D01*
X213424Y257959D01*
X211758Y258290D01*
X210092Y257959D01*
X208680Y257015D01*
X207736Y255603D01*
X207574Y254788D01*
X205943D01*
X205781Y255603D01*
X204837Y257015D01*
X203424Y257959D01*
X201758Y258290D01*
X200092Y257959D01*
X198680Y257015D01*
X197736Y255603D01*
X197574Y254788D01*
X195943D01*
X195781Y255603D01*
X194837Y257015D01*
X193424Y257959D01*
X191758Y258290D01*
X190092Y257959D01*
X188680Y257015D01*
X187736Y255603D01*
X187574Y254788D01*
X185943D01*
X185781Y255603D01*
X184837Y257015D01*
X183424Y257959D01*
X181758Y258290D01*
X180092Y257959D01*
X178680Y257015D01*
X177736Y255603D01*
X177574Y254788D01*
X175943D01*
X175781Y255603D01*
X174837Y257015D01*
X173424Y257959D01*
X171758Y258290D01*
X170092Y257959D01*
X168680Y257015D01*
X167736Y255603D01*
X167574Y254788D01*
X165943D01*
X165781Y255603D01*
X164837Y257015D01*
X163424Y257959D01*
X161758Y258290D01*
X160092Y257959D01*
X158680Y257015D01*
X157736Y255603D01*
X157574Y254788D01*
X155943D01*
X155781Y255603D01*
X154837Y257015D01*
X153425Y257959D01*
X151758Y258290D01*
X150092Y257959D01*
X148680Y257015D01*
X147736Y255603D01*
X147574Y254788D01*
X145943D01*
X145781Y255603D01*
X144837Y257015D01*
X143425Y257959D01*
X141758Y258290D01*
X140092Y257959D01*
X138680Y257015D01*
X137736Y255603D01*
X137405Y253937D01*
Y241936D01*
X137736Y240271D01*
X138231Y239530D01*
X137408Y237930D01*
X91806D01*
X73712Y256025D01*
Y267880D01*
X72552D01*
Y270478D01*
X72552Y270478D01*
X72392Y271286D01*
X71934Y271970D01*
X71934Y271970D01*
X62352Y281553D01*
Y290608D01*
X61852D01*
Y301280D01*
X50312D01*
Y301202D01*
X46852D01*
Y301280D01*
X44479D01*
X43817Y302880D01*
X52763Y311826D01*
X86033D01*
X86680Y310858D01*
X88092Y309914D01*
X88907Y309752D01*
Y308121D01*
X88092Y307959D01*
X86680Y307015D01*
X85996Y305990D01*
X81701D01*
X81649Y306116D01*
X80448Y307317D01*
X78879Y307967D01*
X77180D01*
X75610Y307317D01*
X74409Y306116D01*
X73759Y304546D01*
Y302848D01*
X74409Y301278D01*
X75610Y300077D01*
X77180Y299427D01*
X78879D01*
X80448Y300077D01*
X81649Y301278D01*
X81853Y301769D01*
X86071D01*
X86680Y300858D01*
X88092Y299914D01*
X89759Y299583D01*
X101758D01*
X103425Y299914D01*
X104837Y300858D01*
X105781Y302270D01*
X106112Y303936D01*
X105781Y305602D01*
X104837Y307015D01*
X103425Y307959D01*
X102610Y308121D01*
Y309752D01*
X103425Y309914D01*
X104837Y310858D01*
X105781Y312270D01*
X106112Y313936D01*
X105781Y315602D01*
X104837Y317015D01*
X103425Y317959D01*
X102610Y318121D01*
Y319752D01*
X103425Y319914D01*
X104837Y320858D01*
X105781Y322270D01*
X106112Y323936D01*
X105781Y325602D01*
X104837Y327015D01*
X103425Y327959D01*
X102610Y328121D01*
Y329752D01*
X103425Y329914D01*
X104837Y330858D01*
X105781Y332270D01*
X106112Y333936D01*
X105781Y335602D01*
X104837Y337015D01*
X103425Y337959D01*
X102610Y338121D01*
Y339752D01*
X103425Y339914D01*
X104837Y340858D01*
X105781Y342270D01*
X106112Y343936D01*
X105781Y345602D01*
X104837Y347015D01*
X103708Y347769D01*
X103428Y348963D01*
X103431Y349589D01*
X104069Y350093D01*
X118176D01*
X119137Y349132D01*
X121074Y348330D01*
X123170D01*
X125107Y349132D01*
X126590Y350615D01*
X127392Y352551D01*
Y354648D01*
X126590Y356585D01*
X125107Y358067D01*
X123170Y358870D01*
D02*
G37*
G36*
X517904Y353217D02*
X501394D01*
Y347907D01*
X493274D01*
Y353067D01*
X482234D01*
Y338527D01*
X493274D01*
Y343686D01*
X501394D01*
Y337976D01*
X517904D01*
Y353217D01*
D02*
G37*
G36*
X672822Y348400D02*
X669178D01*
X665604Y347689D01*
X662237Y346295D01*
X659207Y344270D01*
X656630Y341693D01*
X654605Y338663D01*
X653211Y335296D01*
X652500Y331722D01*
Y328078D01*
X653211Y324504D01*
X654605Y321137D01*
X656630Y318107D01*
X659207Y315530D01*
X662237Y313505D01*
X665604Y312111D01*
X669178Y311400D01*
X672822D01*
X676396Y312111D01*
X679763Y313505D01*
X682793Y315530D01*
X685370Y318107D01*
X687394Y321137D01*
X688789Y324504D01*
X689500Y328078D01*
Y331722D01*
X688789Y335296D01*
X687394Y338663D01*
X685370Y341693D01*
X682793Y344270D01*
X679763Y346295D01*
X676396Y347689D01*
X672822Y348400D01*
D02*
G37*
G36*
X403758Y318290D02*
X391758D01*
X390092Y317959D01*
X388680Y317015D01*
X387736Y315602D01*
X387405Y313936D01*
X387736Y312270D01*
X388680Y310858D01*
X390092Y309914D01*
X391758Y309583D01*
X403758D01*
X405424Y309914D01*
X406837Y310858D01*
X407781Y312270D01*
X408112Y313936D01*
X407781Y315602D01*
X406837Y317015D01*
X405424Y317959D01*
X403758Y318290D01*
D02*
G37*
G36*
X466138Y299677D02*
X454099D01*
Y299296D01*
X444069D01*
Y299219D01*
X440608D01*
Y299296D01*
X430578D01*
Y299677D01*
X418539D01*
Y296047D01*
X407484D01*
X406837Y297015D01*
X405424Y297959D01*
X403758Y298290D01*
X391758D01*
X390092Y297959D01*
X388680Y297015D01*
X387736Y295602D01*
X387405Y293936D01*
X387736Y292270D01*
X388680Y290858D01*
X390092Y289914D01*
X391758Y289583D01*
X403758D01*
X405424Y289914D01*
X406837Y290858D01*
X407484Y291826D01*
X418539D01*
Y287137D01*
X418612D01*
Y283874D01*
X419014Y282903D01*
X419986Y282500D01*
X429131D01*
X430103Y282903D01*
X430505Y283874D01*
Y287137D01*
X430578D01*
Y287757D01*
X440608D01*
Y287834D01*
X444069D01*
Y287757D01*
X454099D01*
Y287137D01*
X454172D01*
Y283874D01*
X454574Y282903D01*
X455546Y282500D01*
X464691D01*
X465662Y282903D01*
X466065Y283874D01*
Y287137D01*
X466138D01*
Y287757D01*
X477438D01*
Y287834D01*
X480899D01*
Y287757D01*
X484678D01*
Y282367D01*
X476768D01*
Y261826D01*
X496809D01*
Y282367D01*
X488899D01*
Y287757D01*
X492439D01*
Y291416D01*
X500309D01*
Y287757D01*
X509849D01*
Y299296D01*
X500309D01*
Y295637D01*
X492439D01*
Y299296D01*
X480899D01*
Y299219D01*
X477438D01*
Y299296D01*
X466138D01*
Y299677D01*
D02*
G37*
G36*
X351758Y258290D02*
X350092Y257959D01*
X348680Y257015D01*
X347736Y255603D01*
X347405Y253937D01*
Y241936D01*
X347736Y240271D01*
X348680Y238858D01*
X350092Y237914D01*
X351758Y237583D01*
X353425Y237914D01*
X354837Y238858D01*
X355781Y240271D01*
X356112Y241936D01*
Y253937D01*
X355781Y255603D01*
X354837Y257015D01*
X353425Y257959D01*
X351758Y258290D01*
D02*
G37*
G36*
X270742Y197630D02*
X252702D01*
Y169090D01*
X270742D01*
Y197630D01*
D02*
G37*
G36*
X613762Y179375D02*
X589632D01*
X588660Y178972D01*
X588473Y178520D01*
X584980D01*
Y153480D01*
X588257D01*
Y144730D01*
X588257Y116089D01*
X567472Y95304D01*
X556074D01*
X555412Y96904D01*
X573430Y114922D01*
X574152Y116004D01*
X574406Y117280D01*
Y119990D01*
X580092D01*
Y141530D01*
X562052D01*
Y119990D01*
X567083D01*
X567467Y118390D01*
X545628Y96551D01*
X543768D01*
Y97486D01*
X523728D01*
Y88947D01*
X524998D01*
X525316Y87346D01*
X525160Y87282D01*
X525160Y87282D01*
X522620Y84742D01*
X522217Y83770D01*
X522217Y83770D01*
Y72340D01*
X522620Y71368D01*
X522620Y71368D01*
X525160Y68828D01*
X526132Y68425D01*
X526132Y68425D01*
X542073D01*
X545480Y65018D01*
X546452Y64615D01*
X546452Y64615D01*
X578202D01*
X579174Y65018D01*
X579174Y65018D01*
X585524Y71368D01*
X585927Y72340D01*
X585927Y72340D01*
Y84470D01*
X593121Y91665D01*
X594607Y90888D01*
Y60910D01*
X595010Y59938D01*
X595010Y59938D01*
X612790Y42158D01*
X613762Y41755D01*
X613762Y41755D01*
X642972D01*
X642972Y41755D01*
X643944Y42158D01*
X647754Y45968D01*
X648157Y46940D01*
X648157Y46940D01*
Y72340D01*
X647754Y73312D01*
X647754Y73312D01*
X624894Y96172D01*
X623922Y96574D01*
X623922Y96574D01*
X600293D01*
X599517Y98060D01*
X614734Y113278D01*
X615137Y114250D01*
X615137Y114250D01*
Y139650D01*
Y178000D01*
X614734Y178972D01*
X613762Y179375D01*
D02*
G37*
G36*
X464537Y69800D02*
X448027D01*
Y54560D01*
X464537D01*
Y59355D01*
X473492D01*
Y56410D01*
X485032D01*
Y56487D01*
X489302D01*
X490274Y56890D01*
X490677Y57862D01*
Y66498D01*
X490274Y67470D01*
X489302Y67872D01*
X485032D01*
Y67950D01*
X473492D01*
Y65004D01*
X464537D01*
Y69800D01*
D02*
G37*
G36*
X270742Y71430D02*
X252702D01*
Y42890D01*
X270742D01*
Y71430D01*
D02*
G37*
G36*
X112742D02*
X94702D01*
Y42890D01*
X112742D01*
Y71430D01*
D02*
G37*
G36*
X945576Y44039D02*
X942424D01*
X942227Y44000D01*
X942026D01*
X938935Y43385D01*
X938750Y43308D01*
X938553Y43269D01*
X935641Y42063D01*
X935474Y41951D01*
X935288Y41874D01*
X932668Y40124D01*
X932526Y39982D01*
X932359Y39870D01*
X930130Y37641D01*
X930018Y37474D01*
X929876Y37332D01*
X928125Y34712D01*
X928049Y34526D01*
X927937Y34359D01*
X926731Y31447D01*
X926692Y31250D01*
X926615Y31065D01*
X926000Y27974D01*
Y27773D01*
X925961Y27576D01*
Y24424D01*
X926000Y24227D01*
Y24026D01*
X926615Y20935D01*
X926692Y20750D01*
X926731Y20553D01*
X927937Y17641D01*
X928049Y17474D01*
X928125Y17288D01*
X929876Y14668D01*
X930018Y14526D01*
X930130Y14359D01*
X932359Y12130D01*
X932526Y12018D01*
X932668Y11876D01*
X935288Y10125D01*
X935474Y10049D01*
X935641Y9937D01*
X938553Y8731D01*
X938750Y8692D01*
X938935Y8615D01*
X942026Y8000D01*
X942227D01*
X942424Y7961D01*
X945576D01*
X945773Y8000D01*
X945974D01*
X949065Y8615D01*
X949250Y8692D01*
X949447Y8731D01*
X952359Y9937D01*
X952526Y10049D01*
X952712Y10125D01*
X955332Y11876D01*
X955474Y12018D01*
X955641Y12130D01*
X957870Y14359D01*
X957981Y14526D01*
X958123Y14668D01*
X959874Y17288D01*
X959951Y17474D01*
X960063Y17641D01*
X961269Y20553D01*
X961308Y20750D01*
X961385Y20935D01*
X962000Y24026D01*
Y24227D01*
X962039Y24424D01*
Y27576D01*
X962000Y27773D01*
Y27974D01*
X961385Y31065D01*
X961308Y31250D01*
X961269Y31447D01*
X960063Y34359D01*
X959951Y34526D01*
X959874Y34712D01*
X958123Y37332D01*
X957981Y37474D01*
X957870Y37641D01*
X955641Y39870D01*
X955474Y39982D01*
X955332Y40124D01*
X952712Y41874D01*
X952526Y41951D01*
X952359Y42063D01*
X949447Y43269D01*
X949250Y43308D01*
X949065Y43385D01*
X945974Y44000D01*
X945773D01*
X945576Y44039D01*
D02*
G37*
G36*
X27576D02*
X24424D01*
X24227Y44000D01*
X24026D01*
X20935Y43385D01*
X20750Y43308D01*
X20553Y43269D01*
X17641Y42063D01*
X17474Y41951D01*
X17288Y41874D01*
X14668Y40124D01*
X14526Y39982D01*
X14359Y39870D01*
X12130Y37641D01*
X12018Y37474D01*
X11876Y37332D01*
X10125Y34712D01*
X10049Y34526D01*
X9937Y34359D01*
X8731Y31447D01*
X8692Y31250D01*
X8615Y31065D01*
X8000Y27974D01*
Y27773D01*
X7961Y27576D01*
Y24424D01*
X8000Y24227D01*
Y24026D01*
X8615Y20935D01*
X8692Y20750D01*
X8731Y20553D01*
X9937Y17641D01*
X10049Y17474D01*
X10125Y17288D01*
X11876Y14668D01*
X12018Y14526D01*
X12130Y14359D01*
X14359Y12130D01*
X14526Y12018D01*
X14668Y11876D01*
X17288Y10125D01*
X17474Y10049D01*
X17641Y9937D01*
X20553Y8731D01*
X20750Y8692D01*
X20935Y8615D01*
X24026Y8000D01*
X24227D01*
X24424Y7961D01*
X27576D01*
X27773Y8000D01*
X27974D01*
X31065Y8615D01*
X31250Y8692D01*
X31447Y8731D01*
X34359Y9937D01*
X34526Y10049D01*
X34712Y10125D01*
X37332Y11876D01*
X37474Y12018D01*
X37641Y12130D01*
X39870Y14359D01*
X39982Y14526D01*
X40124Y14668D01*
X41874Y17288D01*
X41951Y17474D01*
X42063Y17641D01*
X43269Y20553D01*
X43308Y20750D01*
X43385Y20935D01*
X44000Y24026D01*
Y24227D01*
X44039Y24424D01*
Y27576D01*
X44000Y27773D01*
Y27974D01*
X43385Y31065D01*
X43308Y31250D01*
X43269Y31447D01*
X42063Y34359D01*
X41951Y34526D01*
X41874Y34712D01*
X40124Y37332D01*
X39982Y37474D01*
X39870Y37641D01*
X37641Y39870D01*
X37474Y39982D01*
X37332Y40124D01*
X34712Y41874D01*
X34526Y41951D01*
X34359Y42063D01*
X31447Y43269D01*
X31250Y43308D01*
X31065Y43385D01*
X27974Y44000D01*
X27773D01*
X27576Y44039D01*
D02*
G37*
G36*
X624000Y188334D02*
X512000D01*
X510724Y188080D01*
X509642Y187358D01*
X502643Y180357D01*
X501920Y179276D01*
X501666Y178000D01*
Y139381D01*
X500299Y138014D01*
X498699Y138676D01*
Y139627D01*
X490011D01*
X489218Y141227D01*
X489407Y141682D01*
Y150318D01*
X489004Y151290D01*
X488032Y151692D01*
X483762D01*
Y151770D01*
X472222D01*
Y140230D01*
X472222D01*
X472158Y139626D01*
X472158D01*
X472158Y138656D01*
Y128087D01*
X475638D01*
Y122886D01*
X467729D01*
Y114347D01*
X487191D01*
Y112584D01*
X484835Y110227D01*
X479949D01*
X479744Y110187D01*
X467729D01*
Y102734D01*
X466129Y102071D01*
X463473Y104727D01*
Y126500D01*
X467132D01*
Y138040D01*
X467055D01*
Y141500D01*
X467132D01*
Y153040D01*
X463473D01*
Y156556D01*
X464183Y157266D01*
X473308D01*
Y153606D01*
X484849D01*
Y161786D01*
X486190Y162962D01*
X494827D01*
X495798Y163364D01*
X496201Y164336D01*
Y168607D01*
X496278D01*
Y180147D01*
X473308D01*
Y179012D01*
X471708Y177958D01*
X471101Y178210D01*
X469403D01*
X467833Y177560D01*
X466632Y176358D01*
X465982Y174789D01*
Y173090D01*
X466632Y171521D01*
X467833Y170320D01*
X469403Y169670D01*
X471101D01*
X471708Y169921D01*
X473308Y168867D01*
Y168607D01*
X473386D01*
Y165146D01*
X473308D01*
Y161487D01*
X463309D01*
X462501Y161326D01*
X461816Y160869D01*
X461816Y160869D01*
X459870Y158922D01*
X459412Y158237D01*
X459251Y157430D01*
X459251Y157430D01*
Y153040D01*
X455592D01*
Y151920D01*
X397529D01*
X396722Y151760D01*
X396037Y151302D01*
X396037Y151302D01*
X395100Y150365D01*
X394642Y149680D01*
X394481Y148872D01*
X394435Y147374D01*
X300072D01*
X299100Y146972D01*
X291480Y139352D01*
X291077Y138380D01*
X291077Y138380D01*
Y97740D01*
X291480Y96768D01*
X299100Y89148D01*
X300072Y88745D01*
X300072Y88745D01*
X426503D01*
X441340Y73908D01*
X442312Y73505D01*
X442312Y73505D01*
X488032D01*
X488032Y73505D01*
X489004Y73908D01*
X489004Y73908D01*
X490274Y75178D01*
X490677Y76150D01*
X490677Y76150D01*
X490677Y85040D01*
X490677Y85040D01*
X490274Y86012D01*
X490274Y86012D01*
X488596Y87689D01*
X487769Y88947D01*
Y97486D01*
X470713D01*
X468153Y100047D01*
X468816Y101646D01*
X487769D01*
Y107191D01*
X490794Y110217D01*
X490794Y110217D01*
X491252Y110902D01*
X491413Y111710D01*
X491413Y111710D01*
Y120996D01*
X492716Y122299D01*
X498922D01*
X498922Y122299D01*
X499730Y122460D01*
X500414Y122917D01*
X516416Y138919D01*
X518742D01*
X518742Y138919D01*
X518946Y138960D01*
X525254D01*
X526535Y137872D01*
Y128728D01*
X526938Y127756D01*
X527910Y127353D01*
X531172D01*
Y127280D01*
X543712D01*
Y130475D01*
X546168D01*
Y109070D01*
X545839Y108741D01*
X543768D01*
Y110187D01*
X523728D01*
Y101646D01*
X543768D01*
Y103092D01*
X547009D01*
X547009Y103092D01*
X548090Y103307D01*
X549006Y103919D01*
X550989Y105903D01*
X550989Y105903D01*
X551601Y106819D01*
X551816Y107900D01*
X551816Y107900D01*
Y132030D01*
X551816Y132030D01*
X551601Y133111D01*
X550989Y134027D01*
X550989Y134027D01*
X549719Y135297D01*
X548803Y135909D01*
X547722Y136124D01*
X547722Y136124D01*
X543712D01*
Y139320D01*
X543212D01*
Y150500D01*
X531672D01*
Y150422D01*
X528212D01*
Y150500D01*
X516672D01*
Y143140D01*
X515542D01*
X514734Y142980D01*
X514049Y142522D01*
X514049Y142522D01*
X509934Y138407D01*
X508334Y139069D01*
Y176619D01*
X513381Y181666D01*
X622619D01*
X626666Y177619D01*
Y118000D01*
X626920Y116724D01*
X627643Y115642D01*
X630643Y112642D01*
X631724Y111919D01*
X633000Y111666D01*
X642625D01*
Y99000D01*
X642625Y99000D01*
X643028Y98028D01*
X643028Y98028D01*
X661625Y79431D01*
Y16000D01*
X662028Y15028D01*
X670028Y7028D01*
X670028Y7028D01*
X671000Y6625D01*
X671000Y6625D01*
X885000Y6625D01*
X885000Y6625D01*
X885972Y7028D01*
X890972Y12028D01*
X891375Y13000D01*
X891375Y13000D01*
Y149000D01*
X891375Y149000D01*
X890972Y149972D01*
X890972Y149972D01*
X886213Y154731D01*
X885241Y155134D01*
X885241Y155134D01*
X817581D01*
X817000Y155375D01*
X816028Y154972D01*
X816028Y154972D01*
X813028Y151972D01*
X812625Y151000D01*
X812625Y151000D01*
Y125569D01*
X810431Y123375D01*
X803792D01*
X803375Y124000D01*
Y161000D01*
X802972Y161972D01*
X802972Y161972D01*
X800972Y163972D01*
X800000Y164375D01*
X800000Y164375D01*
X763000D01*
X762028Y163972D01*
X762028Y163972D01*
X752028Y153972D01*
X751625Y153000D01*
X751625Y153000D01*
Y143569D01*
X748431Y140375D01*
X736000D01*
X736000Y140375D01*
X735028Y139972D01*
X735028Y139972D01*
X732028Y136972D01*
X731625Y136000D01*
X731625Y136000D01*
Y114000D01*
X732028Y113028D01*
X732028Y113028D01*
X733081Y111975D01*
X732419Y110375D01*
X669569D01*
X664375Y115569D01*
Y133000D01*
X663972Y133972D01*
X663000Y134375D01*
X644000D01*
X643028Y133972D01*
X642625Y133000D01*
Y118334D01*
X634381D01*
X633334Y119381D01*
Y179000D01*
X633080Y180276D01*
X632357Y181357D01*
X626357Y187358D01*
X625276Y188080D01*
X624000Y188334D01*
D02*
G37*
%LPD*%
G36*
X594509Y977814D02*
Y956203D01*
X545852D01*
X543796Y955794D01*
X542757Y955100D01*
X537332D01*
Y946560D01*
X542757D01*
X543796Y945865D01*
X545852Y945456D01*
X594509D01*
Y922890D01*
X594918Y920834D01*
X596082Y919090D01*
X603703Y911470D01*
X605446Y910305D01*
X607502Y909896D01*
X818029D01*
Y871666D01*
X799949D01*
Y870370D01*
X739867D01*
X737811Y869961D01*
X736068Y868796D01*
X727710Y860439D01*
X443605D01*
Y861336D01*
X443532D01*
Y864598D01*
X443129Y865570D01*
X442157Y865973D01*
X433013D01*
X432041Y865570D01*
X430429Y865570D01*
X429457Y865973D01*
X420313D01*
X419341Y865570D01*
X417736Y865585D01*
X416764Y865988D01*
X407620D01*
X406648Y865585D01*
X405029Y865690D01*
X404057Y866093D01*
X394913D01*
X393941Y865690D01*
X392349Y865570D01*
X391377Y865973D01*
X382233D01*
X381261Y865570D01*
X380858Y864598D01*
Y862660D01*
X379797Y861448D01*
X379396Y861258D01*
X379004Y861096D01*
X378592Y860999D01*
X378531Y860900D01*
X378424Y860856D01*
X344043Y826474D01*
X334853D01*
X333448Y826947D01*
Y839486D01*
X333289D01*
Y871150D01*
X336792D01*
Y883190D01*
X338145Y883786D01*
X339999D01*
Y897126D01*
X321158D01*
Y883786D01*
X319986Y882756D01*
X319584Y881784D01*
Y872640D01*
X319986Y871668D01*
X320959Y871265D01*
X324252D01*
Y871150D01*
X329068D01*
Y842138D01*
X327468Y841147D01*
X327351Y841196D01*
X327351Y841196D01*
X322271D01*
X322271Y841196D01*
X321289Y842521D01*
Y844821D01*
X321313Y844943D01*
X321313Y844943D01*
Y860811D01*
X321153Y861619D01*
X320695Y862304D01*
X320695Y862304D01*
X285763Y897236D01*
Y921620D01*
X285602Y922427D01*
X285144Y923112D01*
X285144Y923112D01*
X250719Y957538D01*
X251115Y959530D01*
Y967530D01*
X250706Y969586D01*
X249541Y971329D01*
X247798Y972494D01*
X245742Y972903D01*
X237742D01*
X235686Y972494D01*
X233943Y971329D01*
X232778Y969586D01*
X232369Y967530D01*
Y959530D01*
X232778Y957474D01*
X233943Y955730D01*
X235686Y954566D01*
X237742Y954156D01*
X245742D01*
X247734Y954553D01*
X281541Y920745D01*
Y896362D01*
X281541Y896362D01*
X281702Y895555D01*
X282160Y894870D01*
X286209Y890820D01*
X285546Y889220D01*
X276064D01*
X275401Y890820D01*
X275842Y891261D01*
X276492Y892830D01*
Y894529D01*
X275842Y896098D01*
X274641Y897300D01*
X273071Y897950D01*
X271373D01*
X270252Y898699D01*
Y899450D01*
X258712D01*
Y899372D01*
X255252D01*
Y899450D01*
X243712D01*
Y896957D01*
X242112Y896295D01*
X229883Y908524D01*
Y948290D01*
X229722Y949097D01*
X229264Y949782D01*
X222484Y956562D01*
X223760Y957838D01*
X224980Y959952D01*
X225612Y962309D01*
Y964750D01*
X224980Y967108D01*
X223760Y969222D01*
X222034Y970948D01*
X219920Y972168D01*
X217562Y972800D01*
X215121D01*
X212764Y972168D01*
X210650Y970948D01*
X208924Y969222D01*
X207704Y967108D01*
X207072Y964750D01*
Y962309D01*
X207704Y959952D01*
X208924Y957838D01*
X210650Y956112D01*
X212764Y954892D01*
X215121Y954260D01*
X217562D01*
X218552Y954525D01*
X225661Y947415D01*
Y908658D01*
X224061Y907995D01*
X198821Y933236D01*
X199580Y934552D01*
X200212Y936909D01*
Y939350D01*
X199580Y941708D01*
X198360Y943822D01*
X196634Y945548D01*
X194520Y946768D01*
X192162Y947400D01*
X189722D01*
X187364Y946768D01*
X185250Y945548D01*
X183524Y943822D01*
X182304Y941708D01*
X181672Y939350D01*
Y936909D01*
X182304Y934552D01*
X183524Y932438D01*
X185250Y930712D01*
X187364Y929492D01*
X189722Y928860D01*
X192162D01*
X194520Y929492D01*
X195836Y930251D01*
X240470Y885617D01*
X241154Y885160D01*
X241962Y884999D01*
X241962Y884999D01*
X255683D01*
X256001Y883399D01*
X255833Y883330D01*
X254632Y882129D01*
X253982Y880559D01*
Y878860D01*
X254632Y877291D01*
X255833Y876090D01*
X256420Y875847D01*
X256546Y875587D01*
X256674Y874010D01*
X255902Y873239D01*
X255252Y871669D01*
Y869970D01*
X255902Y868401D01*
X257103Y867200D01*
X257568Y867007D01*
X258406Y865676D01*
X258239Y865129D01*
X257792Y864049D01*
Y862350D01*
X258442Y860781D01*
X259643Y859580D01*
X261213Y858930D01*
X262902D01*
X263547Y858285D01*
Y856046D01*
X261947Y855383D01*
X261941Y855390D01*
X260371Y856040D01*
X258673D01*
X257103Y855390D01*
X255902Y854189D01*
X255252Y852619D01*
Y850920D01*
X255380Y850612D01*
X253571Y848803D01*
X252092Y849416D01*
Y867660D01*
X251932Y868467D01*
X251474Y869152D01*
X251474Y869152D01*
X248835Y871792D01*
X248150Y872249D01*
X247342Y872410D01*
X247342Y872410D01*
X227742D01*
Y875070D01*
X209202D01*
Y872930D01*
X202137D01*
X201528Y874530D01*
X201847Y875300D01*
Y883300D01*
X201444Y884272D01*
X200472Y884674D01*
X160472D01*
X159500Y884272D01*
X159097Y883300D01*
Y875300D01*
X157931Y873934D01*
X152846D01*
X152456Y874324D01*
Y894649D01*
X152921Y894960D01*
X154086Y896703D01*
X154495Y898760D01*
X154086Y900816D01*
X152921Y902559D01*
X151178Y903724D01*
X149122Y904133D01*
X138277D01*
X138172Y905690D01*
X138172Y905690D01*
X138172Y905690D01*
Y917120D01*
Y928550D01*
Y939980D01*
Y951410D01*
Y962950D01*
X138172D01*
Y964110D01*
X138172D01*
Y975650D01*
X137895D01*
Y982287D01*
X590036D01*
X594509Y977814D01*
D02*
G37*
G36*
X247871Y866786D02*
Y826161D01*
X247586Y825970D01*
X238442D01*
X237470Y825568D01*
X237452Y825523D01*
X235852Y825841D01*
Y827219D01*
X235202Y828789D01*
X234001Y829990D01*
X232431Y830640D01*
X230733D01*
X229342Y830064D01*
X228525Y830368D01*
X227742Y830831D01*
Y831070D01*
X209202D01*
Y828480D01*
X199832D01*
X199024Y828320D01*
X198340Y827862D01*
X195751Y825274D01*
X194273Y825886D01*
Y840686D01*
X199776Y846189D01*
X209202D01*
Y843530D01*
X227742D01*
Y843530D01*
X229078Y844167D01*
X229342Y844266D01*
X230733Y843690D01*
X232431D01*
X234001Y844340D01*
X235202Y845541D01*
X235852Y847110D01*
Y848809D01*
X235202Y850378D01*
X234001Y851580D01*
X232431Y852230D01*
X230733D01*
X229342Y851654D01*
X228733Y851880D01*
X227742Y853070D01*
Y854530D01*
X228923Y855540D01*
X229342Y855696D01*
X230733Y855120D01*
X232431D01*
X234001Y855770D01*
X235202Y856971D01*
X235852Y858540D01*
Y860239D01*
X235202Y861808D01*
X234001Y863010D01*
X232431Y863660D01*
X230733D01*
X229342Y863084D01*
X228988Y863215D01*
X227742Y864070D01*
Y865530D01*
X227742D01*
Y868189D01*
X246468D01*
X247871Y866786D01*
D02*
G37*
G36*
X799949Y858326D02*
X818029D01*
Y850604D01*
X790382Y850604D01*
X789410Y850202D01*
X786870Y847662D01*
X786870Y847662D01*
X786467Y846690D01*
X786467Y846690D01*
Y831411D01*
X548689D01*
Y834347D01*
X536648D01*
Y830901D01*
X533448D01*
Y834347D01*
X530253D01*
Y836439D01*
X530146Y836976D01*
X530038Y837519D01*
X530038Y837519D01*
X530038Y837520D01*
X529745Y837958D01*
X529426Y838436D01*
X527669Y840193D01*
X527668Y840193D01*
X527668Y840193D01*
X527177Y840522D01*
X526753Y840806D01*
X526752Y840806D01*
X526752Y840806D01*
X526300Y840896D01*
X525672Y841021D01*
X525671Y841021D01*
X525671Y841021D01*
X480989D01*
X480989Y841021D01*
X480989Y841021D01*
X480497Y840923D01*
X479908Y840806D01*
X479908Y840806D01*
X479908Y840806D01*
X479503Y840535D01*
X478992Y840193D01*
X478992Y840193D01*
X478992Y840193D01*
X477235Y838436D01*
X477235Y838436D01*
X477235Y838436D01*
X477235Y838436D01*
X476946Y838004D01*
X476623Y837520D01*
X476623Y837519D01*
X476623Y837519D01*
X476494Y836875D01*
X476408Y836439D01*
Y836439D01*
X476408Y836438D01*
X476408Y836438D01*
Y833586D01*
X475819Y833469D01*
X475092Y832983D01*
X474894Y832687D01*
X467222D01*
Y835830D01*
X455682D01*
Y835830D01*
X454522D01*
Y835830D01*
X442982D01*
Y824290D01*
X443057D01*
Y820830D01*
X442982D01*
Y809290D01*
X443733D01*
X444482Y808169D01*
Y806470D01*
X445132Y804901D01*
X446333Y803700D01*
X447903Y803050D01*
X449601D01*
X449910Y803177D01*
X452340Y800747D01*
X452340Y800747D01*
X453024Y800290D01*
X453832Y800129D01*
X453832Y800129D01*
X484312D01*
X484312Y800129D01*
X485120Y800290D01*
X485804Y800747D01*
X487074Y802017D01*
X487074Y802017D01*
X487532Y802702D01*
X487692Y803510D01*
X487693Y803510D01*
X488050Y803823D01*
X489292Y804510D01*
X489776Y804414D01*
X491421D01*
X492278Y804584D01*
X493005Y805070D01*
X493192D01*
X493919Y804584D01*
X494776Y804414D01*
X496421D01*
X497279Y804584D01*
X498005Y805070D01*
X498491Y805797D01*
X500200Y806496D01*
X500738Y806168D01*
Y800060D01*
X498678Y798000D01*
X480502D01*
X479694Y797840D01*
X479010Y797382D01*
X479010Y797382D01*
X445954Y764327D01*
X333448D01*
Y768244D01*
X333982Y768913D01*
X334651Y769446D01*
X346949D01*
Y781447D01*
Y793692D01*
X352330D01*
X352422Y793471D01*
X353623Y792270D01*
X355193Y791620D01*
X356891D01*
X358461Y792270D01*
X359662Y793471D01*
X360312Y795040D01*
Y796739D01*
X359662Y798308D01*
X359316Y798654D01*
X358592Y799700D01*
X359316Y800745D01*
X359662Y801091D01*
X360312Y802660D01*
Y804359D01*
X359662Y805928D01*
X358461Y807130D01*
X356891Y807780D01*
X355193D01*
X353623Y807130D01*
X352422Y805928D01*
X351772Y804359D01*
Y802660D01*
X350389Y801819D01*
X346949D01*
Y809606D01*
X394439D01*
X400107Y803938D01*
Y792477D01*
X398839Y791676D01*
X395920D01*
X394948Y791274D01*
X394546Y790302D01*
Y781158D01*
X394948Y780186D01*
X395920Y779783D01*
X399182D01*
Y779710D01*
X411722D01*
Y791750D01*
X411722D01*
X411037Y792477D01*
Y806923D01*
X403092D01*
X396806Y813209D01*
X396241Y813586D01*
X395211Y814404D01*
X395037Y815389D01*
Y828989D01*
X395037D01*
X395574Y830367D01*
X396088D01*
Y830444D01*
X399348D01*
X400320Y830847D01*
X400723Y831819D01*
Y840963D01*
X400320Y841935D01*
X399348Y842338D01*
X396088D01*
Y842406D01*
X383548D01*
Y830367D01*
X383570D01*
X384107Y828989D01*
X384107D01*
Y823876D01*
X365408D01*
X364600Y823716D01*
X363916Y823258D01*
X358484Y817827D01*
X349166D01*
X348503Y819427D01*
X377589Y848513D01*
X382191D01*
X382674Y848713D01*
X382876Y848796D01*
X391915D01*
X392805Y848796D01*
X392805Y848796D01*
X393465Y848915D01*
Y848915D01*
X405505D01*
Y848915D01*
X406165Y848796D01*
X406165Y848796D01*
X407055Y848796D01*
X418205D01*
Y848796D01*
X418865D01*
Y848796D01*
X430905D01*
Y848796D01*
X431565D01*
Y848796D01*
X443605D01*
Y849692D01*
X729936D01*
X731992Y850101D01*
X733736Y851266D01*
X742093Y859623D01*
X799949D01*
Y858326D01*
D02*
G37*
G36*
X111632Y892990D02*
X123172D01*
Y893065D01*
X126632D01*
Y892990D01*
X138172D01*
Y893387D01*
X145788D01*
Y872943D01*
X146042Y871667D01*
X146764Y870585D01*
X149108Y868242D01*
X150189Y867520D01*
X151465Y867266D01*
X151973D01*
X153097Y865800D01*
X153097Y865666D01*
Y775799D01*
X153500Y774827D01*
X154472Y774425D01*
X174472D01*
X175444Y774827D01*
X175847Y775799D01*
Y810574D01*
X177447Y811236D01*
X177703Y810980D01*
X179273Y810330D01*
X180971D01*
X182541Y810980D01*
X182711Y811150D01*
X184311Y810488D01*
Y758420D01*
X182280Y756389D01*
X106773D01*
X106513Y756650D01*
Y768390D01*
X108113Y769052D01*
X108867Y768298D01*
X110577Y767311D01*
X112485Y766800D01*
X114459D01*
X116367Y767311D01*
X118077Y768298D01*
X119473Y769695D01*
X120461Y771405D01*
X120972Y773312D01*
Y775287D01*
X120461Y777195D01*
X119473Y778905D01*
X118077Y780301D01*
X116367Y781289D01*
X114459Y781800D01*
X112485D01*
X110577Y781289D01*
X108867Y780301D01*
X108113Y779547D01*
X106513Y780210D01*
Y848390D01*
X108113Y849052D01*
X108867Y848298D01*
X110577Y847311D01*
X112485Y846800D01*
X114459D01*
X116367Y847311D01*
X118077Y848298D01*
X119473Y849695D01*
X120461Y851405D01*
X120972Y853312D01*
Y855287D01*
X120461Y857195D01*
X119473Y858905D01*
X118077Y860301D01*
X116367Y861288D01*
X114459Y861799D01*
X112485D01*
X110577Y861288D01*
X108867Y860301D01*
X108113Y859547D01*
X106513Y860210D01*
Y896388D01*
X106773Y896649D01*
X111632D01*
Y892990D01*
D02*
G37*
G36*
X488918Y829084D02*
X489776Y828913D01*
X491421D01*
X492818Y827667D01*
Y813486D01*
X491421Y812240D01*
X489776D01*
X488918Y812069D01*
X488192Y811583D01*
X488005D01*
X487279Y812069D01*
X486421Y812240D01*
X484776D01*
X483919Y812069D01*
X483192Y811583D01*
X482706Y810856D01*
X482536Y809999D01*
Y806654D01*
X482676Y805950D01*
X482629Y805680D01*
X481748Y804350D01*
X466576D01*
X465507Y805950D01*
X465722Y806470D01*
Y808169D01*
X466471Y809290D01*
X467222D01*
Y813466D01*
X474894D01*
X475092Y813170D01*
X475819Y812684D01*
X476676Y812514D01*
X480021D01*
X480878Y812684D01*
X481605Y813170D01*
X482091Y813897D01*
X482262Y814754D01*
Y816399D01*
X482091Y817257D01*
X481605Y817983D01*
Y818170D01*
X482091Y818897D01*
X482262Y819754D01*
Y821399D01*
X482091Y822256D01*
X481655Y823077D01*
X482091Y823897D01*
X482262Y824754D01*
Y826399D01*
X482091Y827257D01*
X481921Y827511D01*
X482458Y828493D01*
X483919Y829084D01*
X484776Y828913D01*
X486421D01*
X487279Y829084D01*
X488005Y829570D01*
X488192D01*
X488918Y829084D01*
D02*
G37*
G36*
X381252Y859583D02*
X381261Y859562D01*
X382228Y859162D01*
X382191Y849887D01*
X377020D01*
X345882Y818750D01*
X326448D01*
Y818987D01*
X321752D01*
Y839302D01*
X322271Y839821D01*
X327351D01*
X328102Y839070D01*
Y826370D01*
X329372Y825100D01*
X344612D01*
X379396Y859884D01*
X381252Y859583D01*
D02*
G37*
G36*
X848802Y847960D02*
Y846942D01*
X848697Y846690D01*
X848697Y846690D01*
Y821290D01*
X848697Y821290D01*
X848728Y821216D01*
X847217Y819705D01*
X845453Y819946D01*
X845445Y819966D01*
X844473Y820369D01*
X835329D01*
X834357Y819966D01*
X834062Y819255D01*
X829343D01*
Y819259D01*
X828940Y820231D01*
X827968Y820633D01*
X818824D01*
X817852Y820231D01*
X817450Y819259D01*
Y819255D01*
X815351D01*
X814951Y820223D01*
X813979Y820626D01*
X804835D01*
X803863Y820223D01*
X803462Y819255D01*
X801383D01*
X800981Y820227D01*
X800009Y820630D01*
X790865D01*
X789893Y820227D01*
X789068Y820063D01*
X787842Y821290D01*
Y846690D01*
X790382Y849230D01*
X847532Y849230D01*
X848802Y847960D01*
D02*
G37*
G36*
X320377Y818987D02*
X320780Y818014D01*
X321752Y817612D01*
X325877D01*
X326448Y817375D01*
X328531D01*
Y785397D01*
X328531Y785397D01*
X328692Y784589D01*
X329150Y783905D01*
X330830Y782224D01*
X330830Y782224D01*
X331515Y781767D01*
X332322Y781606D01*
X334408D01*
Y769689D01*
X333875Y769020D01*
X333206Y768486D01*
X278377D01*
X278180Y768486D01*
X277621Y768538D01*
X277528Y768566D01*
X276577Y768945D01*
X276482Y769020D01*
X276407Y769115D01*
X276028Y770066D01*
X276000Y770159D01*
X275948Y770718D01*
X275948Y777447D01*
Y789446D01*
Y801606D01*
X278779D01*
X278779Y801606D01*
X279586Y801767D01*
X280271Y802224D01*
X282604Y804557D01*
X282604Y804557D01*
X283062Y805242D01*
X283223Y806050D01*
X283223Y806050D01*
Y820449D01*
X320377D01*
Y818987D01*
D02*
G37*
G36*
X89778Y722352D02*
X89889Y722306D01*
Y566874D01*
X77592Y554577D01*
X63248D01*
Y565237D01*
X46329D01*
X45526Y566761D01*
X46052Y567926D01*
X50088D01*
Y571586D01*
X59888D01*
Y567426D01*
X71928D01*
Y579966D01*
X71855D01*
Y583312D01*
X71452Y584284D01*
X70480Y584687D01*
X61336D01*
X60364Y584284D01*
X59962Y583312D01*
Y579966D01*
X59888D01*
Y575807D01*
X50088D01*
Y579466D01*
X50011D01*
Y582927D01*
X50088D01*
Y594467D01*
X38548D01*
Y594070D01*
X35785D01*
Y714133D01*
X39818D01*
Y713737D01*
X39896D01*
Y710276D01*
X39818D01*
Y698736D01*
X43478D01*
Y681480D01*
X43478Y681480D01*
X43639Y680672D01*
X44096Y679987D01*
X45033Y679050D01*
X45033Y679050D01*
X45718Y678593D01*
X46526Y678432D01*
X47228D01*
Y667773D01*
X64768D01*
Y678432D01*
X81245D01*
X81245Y678432D01*
X82052Y678593D01*
X82737Y679050D01*
X86492Y682805D01*
X86492Y682805D01*
X86950Y683490D01*
X87111Y684298D01*
X87111Y684298D01*
Y722929D01*
X88492Y723517D01*
X88592Y723538D01*
X89778Y722352D01*
D02*
G37*
G36*
X38548Y582927D02*
X38626D01*
Y579466D01*
X38548D01*
Y567926D01*
X41001D01*
Y553970D01*
X41001Y553970D01*
X41162Y553162D01*
X41620Y552477D01*
X43123Y550974D01*
X43807Y550517D01*
X44615Y550356D01*
X45708D01*
Y539697D01*
X63248D01*
Y550356D01*
X78466D01*
X78467Y550356D01*
X79274Y550517D01*
X79959Y550974D01*
X92289Y563305D01*
X93889Y562642D01*
Y525874D01*
X72744Y504729D01*
X72286Y504044D01*
X72126Y503236D01*
X72126Y503236D01*
Y461243D01*
X70526Y460210D01*
X70480Y460229D01*
X61336D01*
X60364Y459826D01*
X59962Y458854D01*
Y455506D01*
X59888D01*
Y451347D01*
X48818D01*
Y455006D01*
X48741D01*
Y458467D01*
X48818D01*
Y470007D01*
X37278D01*
Y470007D01*
X35785Y470264D01*
Y583323D01*
X38548D01*
Y582927D01*
D02*
G37*
G36*
X817052Y633330D02*
Y515220D01*
X829752Y496170D01*
Y478390D01*
X805622Y454260D01*
Y445370D01*
X804401Y444148D01*
X802615D01*
X802213Y445121D01*
X801240Y445523D01*
X792096D01*
X791124Y445121D01*
X790722Y444148D01*
X776363D01*
X773872Y446640D01*
Y630790D01*
X780222Y637140D01*
X813242D01*
X817052Y633330D01*
D02*
G37*
G36*
X825942Y442830D02*
Y427590D01*
X824672Y426320D01*
X791652D01*
X790382Y427590D01*
Y437896D01*
X791788Y438838D01*
X792096Y438710D01*
X801240D01*
X801989Y439020D01*
X814512D01*
X819592Y444100D01*
X824672D01*
X825942Y442830D01*
D02*
G37*
G36*
X929989Y867397D02*
X930101Y867480D01*
X964372Y856770D01*
Y87000D01*
X907000D01*
Y126000D01*
X921000D01*
X928812Y133812D01*
Y215500D01*
X922462Y221850D01*
X895792D01*
X888172Y229470D01*
X887721Y268580D01*
X888572Y268932D01*
X888975Y269904D01*
Y279049D01*
X889969Y280714D01*
X895792Y282810D01*
Y290190D01*
X897019Y291189D01*
X897760Y290882D01*
X906396D01*
X907368Y291285D01*
X907541Y291700D01*
X923732D01*
X928812Y296780D01*
X928812Y353930D01*
X918652Y364090D01*
X834832D01*
X827212Y371710D01*
X828482Y372980D01*
Y442830D01*
X831022Y445370D01*
X838642D01*
X843722Y440290D01*
Y421240D01*
X846262Y418700D01*
X853882D01*
X856422Y416160D01*
Y403460D01*
X857692Y402190D01*
X858032D01*
Y401984D01*
X858434Y401012D01*
X859407Y400610D01*
X868550D01*
X869522Y401012D01*
X871134Y401012D01*
X872106Y400610D01*
X881251D01*
X882223Y401012D01*
X882625Y401984D01*
Y402190D01*
X919922Y402190D01*
X928812Y411080D01*
X928812Y784274D01*
X919922Y794620D01*
X909762Y804780D01*
X895792Y820020D01*
X868707D01*
Y820264D01*
X868305Y821236D01*
X867333Y821639D01*
X858189D01*
X857217Y821236D01*
X856814Y820264D01*
Y820020D01*
X851342D01*
X850072Y821290D01*
Y846690D01*
X851342Y847960D01*
X871662D01*
X872932Y849230D01*
Y858120D01*
X871662Y859390D01*
X855152D01*
X853882Y860660D01*
Y867010D01*
X855152Y868280D01*
X928812D01*
X929989Y867397D01*
D02*
G37*
G36*
X881822Y347580D02*
Y336303D01*
X879726D01*
X878754Y335900D01*
X878352Y334929D01*
Y325784D01*
X878754Y324813D01*
X879726Y324410D01*
X882132D01*
X883092Y323450D01*
X891982D01*
X893252Y322180D01*
Y310750D01*
Y308210D01*
X889442Y304400D01*
X856422D01*
X852612Y308210D01*
X771332D01*
X767522Y304400D01*
Y255000D01*
Y229522D01*
X764000Y226000D01*
X718000D01*
X714000Y222000D01*
Y196000D01*
X711000Y193000D01*
X709600D01*
X709079Y192479D01*
X707704D01*
X706732Y192077D01*
X706330Y191105D01*
Y177897D01*
X706732Y176925D01*
X707704Y176522D01*
Y172479D01*
X707704D01*
X706732Y172077D01*
X706329Y171105D01*
Y157897D01*
X706732Y156925D01*
X707704Y156522D01*
X707704D01*
Y154477D01*
X706732Y154075D01*
X706330Y153103D01*
Y139895D01*
X706545Y139374D01*
X705564Y138000D01*
X683000D01*
X680000Y141000D01*
Y200000D01*
X672000Y208000D01*
X653000D01*
X643000Y218000D01*
Y255257D01*
X643696Y255953D01*
X643478Y256478D01*
X667270Y280270D01*
X701482Y280270D01*
X757362Y336150D01*
Y352660D01*
X762442Y357740D01*
X871662D01*
X881822Y347580D01*
D02*
G37*
G36*
X857692Y299320D02*
X870392D01*
X872932Y296780D01*
Y282810D01*
X869122Y279000D01*
Y232010D01*
X864042Y226930D01*
X805622D01*
X775142Y257410D01*
Y299320D01*
X778952Y303130D01*
X853882D01*
X857692Y299320D01*
D02*
G37*
G36*
X804000Y219000D02*
Y182000D01*
X763000D01*
X751000Y194000D01*
X724000D01*
X722000Y196000D01*
Y218000D01*
X726000Y222000D01*
X801000D01*
X804000Y219000D01*
D02*
G37*
%LPC*%
G36*
X554372Y980500D02*
X537332D01*
Y971960D01*
X554372D01*
Y980500D01*
D02*
G37*
G36*
Y967800D02*
X537332D01*
Y959260D01*
X554372D01*
Y967800D01*
D02*
G37*
G36*
X192162Y972800D02*
X189722D01*
X187364Y972168D01*
X185250Y970948D01*
X183524Y969222D01*
X182304Y967108D01*
X181672Y964750D01*
Y962309D01*
X182304Y959952D01*
X183524Y957838D01*
X185250Y956112D01*
X187364Y954892D01*
X189722Y954260D01*
X192162D01*
X194520Y954892D01*
X196634Y956112D01*
X198360Y957838D01*
X199580Y959952D01*
X200212Y962309D01*
Y964750D01*
X199580Y967108D01*
X198360Y969222D01*
X196634Y970948D01*
X194520Y972168D01*
X192162Y972800D01*
D02*
G37*
G36*
X499872Y955100D02*
X482832D01*
Y952940D01*
X477962D01*
X477154Y952780D01*
X476470Y952322D01*
X476469Y952322D01*
X473930Y949782D01*
X473472Y949097D01*
X473311Y948290D01*
X473311Y948290D01*
Y894715D01*
X457877Y879280D01*
X453769D01*
X453642Y879588D01*
X452441Y880790D01*
X450871Y881440D01*
X449173D01*
X447603Y880790D01*
X446402Y879588D01*
X445752Y878019D01*
Y876320D01*
X446402Y874751D01*
X447603Y873550D01*
X449173Y872900D01*
X450871D01*
X452441Y873550D01*
X453642Y874751D01*
X453769Y875059D01*
X458751D01*
X458751Y875059D01*
X459558Y875220D01*
X460243Y875677D01*
X476914Y892348D01*
X476914Y892348D01*
X477372Y893033D01*
X477533Y893841D01*
X477533Y893841D01*
Y920306D01*
X479132Y921375D01*
X479653Y921160D01*
X481351D01*
X482921Y921810D01*
X484122Y923011D01*
X484772Y924580D01*
Y926279D01*
X484122Y927849D01*
X482921Y929050D01*
X482612Y929177D01*
Y932351D01*
X482832Y933860D01*
X499872D01*
Y942400D01*
X482832D01*
Y941383D01*
X482639Y939837D01*
X481831Y939677D01*
X481147Y939219D01*
X481147Y939219D01*
X479132Y937205D01*
X478614Y937262D01*
X477533Y937751D01*
Y947415D01*
X478836Y948719D01*
X482832D01*
Y946560D01*
X499872D01*
Y955100D01*
D02*
G37*
G36*
X351848Y962656D02*
X341307D01*
Y940117D01*
X351848D01*
Y962656D01*
D02*
G37*
G36*
X319849D02*
X309308D01*
Y940117D01*
X319849D01*
Y962656D01*
D02*
G37*
G36*
X554372Y942400D02*
X537332D01*
Y933860D01*
X554372D01*
Y942400D01*
D02*
G37*
G36*
X446982Y939406D02*
X444695D01*
X442581Y938531D01*
X440964Y936913D01*
X440089Y934800D01*
Y932513D01*
X440497Y931526D01*
X439428Y929926D01*
X426732D01*
Y931780D01*
X426732Y931780D01*
X426572Y932587D01*
X426114Y933272D01*
X426114Y933272D01*
X424844Y934542D01*
X424160Y935000D01*
X423352Y935160D01*
X423352Y935160D01*
X415732D01*
X415732Y935160D01*
X414924Y935000D01*
X414240Y934542D01*
X414240Y934542D01*
X412946Y933249D01*
X412489Y932564D01*
X412328Y931756D01*
X412328Y931756D01*
Y929926D01*
X394449D01*
X393380Y931526D01*
X393788Y932513D01*
Y934800D01*
X392913Y936913D01*
X391296Y938531D01*
X389182Y939406D01*
X386895D01*
X384781Y938531D01*
X383164Y936913D01*
X382288Y934800D01*
Y932513D01*
X383164Y930399D01*
X384781Y928782D01*
X386895Y927906D01*
X388669D01*
Y915986D01*
X397328D01*
Y910279D01*
X395928D01*
Y898739D01*
X396017D01*
Y894482D01*
X396419Y893510D01*
X397391Y893107D01*
X406027D01*
X406999Y893510D01*
X407402Y894482D01*
Y898739D01*
X407468D01*
Y910279D01*
X401549D01*
Y915986D01*
X405991D01*
X407328Y915326D01*
X407488Y914518D01*
X407946Y913834D01*
X410219Y911561D01*
X409898Y910787D01*
X409898D01*
Y899247D01*
X409981D01*
Y895787D01*
X409898D01*
Y884247D01*
X418454D01*
X423213Y879487D01*
X423898Y879030D01*
X424705Y878869D01*
X424705Y878869D01*
X433574D01*
X433702Y878561D01*
X434903Y877360D01*
X436473Y876710D01*
X438171D01*
X439741Y877360D01*
X440942Y878561D01*
X441592Y880130D01*
Y881829D01*
X440942Y883399D01*
X439741Y884600D01*
X438171Y885250D01*
X436473D01*
X435409Y885961D01*
Y895278D01*
X435336D01*
Y898739D01*
X435409D01*
Y906247D01*
X436944Y906939D01*
X437839Y906258D01*
Y898739D01*
X437905D01*
Y894473D01*
X438308Y893501D01*
X439280Y893099D01*
X447916D01*
X448888Y893501D01*
X449290Y894473D01*
Y898739D01*
X449379D01*
Y910279D01*
X440114D01*
X439939Y910314D01*
X435744Y914508D01*
X436357Y915986D01*
X445208D01*
Y927906D01*
X446982D01*
X449096Y928782D01*
X450713Y930399D01*
X451589Y932513D01*
Y934800D01*
X450713Y936913D01*
X449096Y938531D01*
X446982Y939406D01*
D02*
G37*
G36*
X242962Y947400D02*
X240522D01*
X238164Y946768D01*
X236050Y945548D01*
X234324Y943822D01*
X233104Y941708D01*
X232472Y939350D01*
Y936909D01*
X233104Y934552D01*
X234324Y932438D01*
X236050Y930712D01*
X238164Y929492D01*
X240522Y928860D01*
X242962D01*
X245320Y929492D01*
X247434Y930712D01*
X249160Y932438D01*
X250380Y934552D01*
X251012Y936909D01*
Y939350D01*
X250380Y941708D01*
X249160Y943822D01*
X247434Y945548D01*
X245320Y946768D01*
X242962Y947400D01*
D02*
G37*
G36*
X336348Y940157D02*
X324809D01*
Y931450D01*
X324492D01*
Y919927D01*
X321158D01*
Y906587D01*
X339999D01*
Y919516D01*
X340269D01*
X341241Y919919D01*
X341643Y920891D01*
Y930035D01*
X341241Y931007D01*
X340269Y931409D01*
X337032D01*
Y931450D01*
X336348D01*
Y940157D01*
D02*
G37*
G36*
X672822Y904600D02*
X669178D01*
X665604Y903889D01*
X662237Y902495D01*
X659207Y900470D01*
X656630Y897893D01*
X654605Y894863D01*
X653211Y891496D01*
X652500Y887922D01*
Y884278D01*
X653211Y880704D01*
X654605Y877337D01*
X656630Y874307D01*
X659207Y871730D01*
X662237Y869706D01*
X665604Y868311D01*
X669178Y867600D01*
X672822D01*
X676396Y868311D01*
X679763Y869706D01*
X682793Y871730D01*
X685370Y874307D01*
X687394Y877337D01*
X688789Y880704D01*
X689500Y884278D01*
Y887922D01*
X688789Y891496D01*
X687394Y894863D01*
X685370Y897893D01*
X682793Y900470D01*
X679763Y902495D01*
X676396Y903889D01*
X672822Y904600D01*
D02*
G37*
G36*
X499872Y967800D02*
X482832D01*
Y959260D01*
X492031D01*
X492352Y959196D01*
X503448D01*
X503838Y958806D01*
Y877170D01*
X504092Y875894D01*
X504814Y874812D01*
X508624Y871002D01*
X509706Y870279D01*
X510982Y870026D01*
X518222D01*
Y864090D01*
X536762D01*
Y882630D01*
X518222D01*
Y876694D01*
X512363D01*
X510506Y878551D01*
Y960187D01*
X510388Y960778D01*
X510252Y961462D01*
X510252Y961462D01*
X510252Y961462D01*
X509889Y962006D01*
X509530Y962544D01*
X507187Y964887D01*
X507187Y964887D01*
X507187Y964887D01*
X506674Y965230D01*
X506105Y965610D01*
X506105Y965610D01*
X506105Y965610D01*
X505513Y965728D01*
X504829Y965864D01*
X504829Y965864D01*
X504829Y965864D01*
X499872D01*
Y967800D01*
D02*
G37*
G36*
X796771Y436830D02*
X795963Y436669D01*
X795279Y436211D01*
X795176Y436109D01*
X794719Y435424D01*
X794558Y434616D01*
X794719Y433809D01*
X795176Y433124D01*
X795861Y432667D01*
X796668Y432506D01*
X797476Y432667D01*
X798161Y433124D01*
X798263Y433227D01*
X798721Y433911D01*
X798882Y434719D01*
X798721Y435527D01*
X798263Y436211D01*
X797579Y436669D01*
X796771Y436830D01*
D02*
G37*
G36*
X871457Y323655D02*
X862977D01*
X861502Y322180D01*
Y310750D01*
X872932D01*
Y322180D01*
X872718Y322393D01*
Y323457D01*
X871655D01*
X871457Y323655D01*
D02*
G37*
%LPD*%
G36*
X828482Y705720D02*
X841182Y693020D01*
X909762D01*
X916112Y686670D01*
Y576180D01*
X912302Y572370D01*
X880552D01*
X878012Y574910D01*
Y662540D01*
X875472Y665080D01*
X791652D01*
X785302Y671430D01*
Y756000D01*
X828482D01*
Y705720D01*
D02*
G37*
G36*
X336357Y258045D02*
Y236455D01*
X340167Y232645D01*
X384617Y232645D01*
X386522Y230740D01*
X386522Y214230D01*
X384617Y212325D01*
X286827Y212325D01*
X285557Y213595D01*
Y231375D01*
X286827Y232645D01*
X314767D01*
X318577Y236455D01*
Y258045D01*
X319847Y259315D01*
X335087D01*
X336357Y258045D01*
D02*
G37*
G36*
X328102Y602850D02*
Y600463D01*
X327293D01*
X326321Y600061D01*
X325918Y599089D01*
Y589944D01*
X326321Y588973D01*
X327293Y588570D01*
X328102D01*
Y571100D01*
X336992Y562210D01*
Y539350D01*
X334452Y536810D01*
X320482D01*
X317942Y539350D01*
Y564750D01*
X314132Y568560D01*
Y583800D01*
X311592Y586340D01*
X253172D01*
X250632Y588880D01*
Y601580D01*
X253172Y604120D01*
X326832D01*
X328102Y602850D01*
D02*
G37*
G36*
X45175Y289160D02*
Y280016D01*
X45578Y279044D01*
X46550Y278641D01*
X49812D01*
Y278568D01*
X59367D01*
X68331Y269604D01*
Y267880D01*
X67172D01*
Y253040D01*
X70727D01*
X73087Y250680D01*
X72424Y249080D01*
X67172D01*
Y234240D01*
X73712D01*
Y239549D01*
X77188D01*
X90030Y226707D01*
X90714Y226250D01*
X91522Y226089D01*
X167208D01*
X168511Y224785D01*
Y214630D01*
X165292D01*
X164852Y214630D01*
X163692D01*
X163252Y214630D01*
X160033D01*
Y216770D01*
X160033Y216770D01*
X159872Y217577D01*
X159414Y218262D01*
X159414Y218262D01*
X156366Y221310D01*
X155682Y221768D01*
X154874Y221928D01*
X154874Y221928D01*
X63122D01*
Y225588D01*
X59553D01*
Y234240D01*
X60712D01*
Y249080D01*
X54172D01*
Y234240D01*
X55332D01*
Y225588D01*
X51582D01*
Y225510D01*
X48122D01*
Y225588D01*
X36582D01*
Y225588D01*
X34982Y225227D01*
X34302Y225752D01*
Y288558D01*
X35312Y289740D01*
X44788D01*
X45175Y289160D01*
D02*
G37*
G36*
X34510Y219087D02*
X35194Y218630D01*
X36002Y218469D01*
X36582Y217079D01*
Y214048D01*
X45166D01*
X46445Y212955D01*
Y203811D01*
X46848Y202839D01*
X47820Y202437D01*
X51082D01*
Y202368D01*
X63622D01*
Y214408D01*
X63122D01*
Y217707D01*
X154000D01*
X155477Y216230D01*
X155005Y214630D01*
X152592D01*
X152152Y214630D01*
X150992D01*
X150552Y214630D01*
X139892D01*
X139452Y214630D01*
X138292D01*
X137852Y214630D01*
X126752D01*
Y198590D01*
X130411D01*
Y195117D01*
X130103Y194990D01*
X128902Y193789D01*
X128252Y192219D01*
Y190520D01*
X128902Y188951D01*
X130103Y187750D01*
X131673Y187100D01*
X133371D01*
X134941Y187750D01*
X136142Y188951D01*
X136792Y190520D01*
Y192219D01*
X136142Y193789D01*
X134941Y194990D01*
X134633Y195117D01*
Y198590D01*
X137852D01*
X138292Y198590D01*
X139452D01*
X139892Y198590D01*
X150552D01*
X150992Y198590D01*
X152152D01*
X152592Y198590D01*
X163252D01*
X163692Y198590D01*
X164852D01*
X165292Y198590D01*
X168511D01*
Y174464D01*
X163398Y169350D01*
X112742D01*
Y197630D01*
X94702D01*
Y169350D01*
X62472D01*
Y173260D01*
X61972D01*
Y184440D01*
X50432D01*
Y184363D01*
X46972D01*
Y184440D01*
X35432D01*
Y180780D01*
X33186D01*
X29223Y184744D01*
Y222228D01*
X30304Y222718D01*
X30823Y222774D01*
X34510Y219087D01*
D02*
G37*
%LPC*%
G36*
X43201Y275650D02*
X41503D01*
X39933Y275000D01*
X38732Y273799D01*
X38082Y272229D01*
Y270530D01*
X38732Y268961D01*
X39933Y267760D01*
X40241Y267632D01*
Y266100D01*
X36332D01*
Y253560D01*
X36405D01*
Y250298D01*
X36808Y249326D01*
X37780Y248923D01*
X46924D01*
X47896Y249326D01*
X48299Y250298D01*
Y253560D01*
X48372D01*
Y266100D01*
X44462D01*
Y267632D01*
X44771Y267760D01*
X45972Y268961D01*
X46100Y269269D01*
X53664D01*
X54172Y267880D01*
X54172D01*
Y253040D01*
X60712D01*
Y267880D01*
X59553D01*
Y270259D01*
X59553Y270260D01*
X59392Y271067D01*
X58934Y271752D01*
X58934Y271752D01*
X57814Y272872D01*
X57130Y273330D01*
X56322Y273490D01*
X56322Y273490D01*
X46100D01*
X45972Y273799D01*
X44771Y275000D01*
X43201Y275650D01*
D02*
G37*
%LPD*%
G36*
X613762Y139650D02*
Y114250D01*
X584552Y85040D01*
Y72340D01*
X578202Y65990D01*
X546452D01*
X542642Y69800D01*
X526132D01*
X523592Y72340D01*
Y83770D01*
X526132Y86310D01*
X547722D01*
X555342Y93930D01*
X568042D01*
X589632Y115520D01*
X589632Y144730D01*
Y178000D01*
X613762D01*
Y139650D01*
D02*
G37*
G36*
X646782Y72340D02*
Y46940D01*
X642972Y43130D01*
X613762D01*
X595982Y60910D01*
Y91390D01*
X599792Y95200D01*
X623922D01*
X646782Y72340D01*
D02*
G37*
G36*
X802000Y161000D02*
Y124000D01*
X801375Y123375D01*
X795000D01*
X794096Y123000D01*
X793000D01*
X792000Y122000D01*
Y111000D01*
X782000D01*
Y122000D01*
X781000Y123000D01*
X774000D01*
X763000Y112000D01*
X735000D01*
X733000Y114000D01*
Y136000D01*
X736000Y139000D01*
X749000D01*
X753000Y143000D01*
Y153000D01*
X763000Y163000D01*
X800000D01*
X802000Y161000D01*
D02*
G37*
G36*
X782000Y109625D02*
X792000D01*
X792395Y109789D01*
X792541Y109822D01*
X793500Y109927D01*
X794550Y109812D01*
X795000Y109625D01*
X799431D01*
X799758Y109298D01*
X800140Y109140D01*
X800298Y108758D01*
X800625Y108431D01*
Y104000D01*
X800812Y103550D01*
X800980Y102020D01*
X800980Y101316D01*
Y97120D01*
X800980Y96480D01*
X800980D01*
Y95520D01*
X800980Y95520D01*
X800980Y89020D01*
X800980Y88380D01*
Y83480D01*
X813020Y83480D01*
X813159Y81938D01*
Y80505D01*
X813159Y80505D01*
X813320Y79697D01*
X813778Y79013D01*
X817520Y75270D01*
Y61745D01*
X832760D01*
Y78255D01*
X820505D01*
X818615Y80145D01*
X819278Y81745D01*
X833760D01*
Y98255D01*
X818520D01*
Y97555D01*
X817042Y96943D01*
X813942Y100042D01*
X813258Y100500D01*
X813046Y100542D01*
X813158Y102082D01*
X814369Y102625D01*
X822000D01*
X822972Y103028D01*
X822972Y103028D01*
X826630Y106686D01*
X828211Y106208D01*
X828230Y106195D01*
Y100730D01*
X839770D01*
Y102155D01*
X841248Y102767D01*
X844282Y99733D01*
X843670Y98255D01*
X841380D01*
Y81745D01*
X846889D01*
Y78255D01*
X840380D01*
Y61745D01*
X855620D01*
Y78255D01*
X851111D01*
Y81745D01*
X856025D01*
X857625Y80561D01*
X857625Y40375D01*
X698569D01*
X695375Y43569D01*
Y100625D01*
X760980D01*
Y96480D01*
X773020D01*
Y100765D01*
X773702Y101048D01*
X774105Y102020D01*
Y108895D01*
X779270D01*
X779270Y108895D01*
X780242Y109298D01*
X780242Y109298D01*
X780980Y109980D01*
X781144D01*
X782000Y109625D01*
D02*
G37*
G36*
X467638Y87580D02*
X486762D01*
X489302Y85040D01*
X489302Y76150D01*
X488032Y74880D01*
X442312D01*
X427072Y90120D01*
X300072D01*
X292452Y97740D01*
Y138380D01*
X300072Y146000D01*
X426084D01*
X467638Y87580D01*
D02*
G37*
G36*
X817241Y153759D02*
X885241D01*
X890000Y149000D01*
Y13000D01*
X885000Y8000D01*
X671000Y8000D01*
X663000Y16000D01*
Y80000D01*
X644000Y99000D01*
Y111666D01*
X653000D01*
X654276Y111919D01*
X655358Y112642D01*
X656080Y113724D01*
X656334Y115000D01*
X656080Y116276D01*
X655358Y117357D01*
X654276Y118080D01*
X653000Y118334D01*
X644000D01*
Y133000D01*
X663000D01*
Y115000D01*
X669000Y109000D01*
X763000D01*
X775000Y121000D01*
X778869Y121000D01*
X780000Y119869D01*
Y111000D01*
X779270Y110270D01*
X772730D01*
Y102020D01*
X760980D01*
Y102000D01*
X694000D01*
Y43000D01*
X698000Y39000D01*
X859000D01*
X859000Y117000D01*
X839502D01*
X839290Y117513D01*
X838317Y117916D01*
X829681D01*
X828709Y117513D01*
X828497Y117000D01*
X826000D01*
Y108000D01*
X822000Y104000D01*
X802000D01*
Y109000D01*
X801270Y109730D01*
Y110270D01*
X800730D01*
X800000Y111000D01*
X795000D01*
Y122000D01*
X811000D01*
X814000Y125000D01*
Y151000D01*
X817000Y154000D01*
X817241Y153759D01*
D02*
G37*
%LPC*%
G36*
X743000Y97375D02*
X743000Y97375D01*
X732433D01*
X732158Y97261D01*
X731860Y97249D01*
X731691Y97067D01*
X731461Y96972D01*
X731347Y96697D01*
X731144Y96478D01*
X730696Y95270D01*
X730230D01*
Y94979D01*
X725206D01*
X724234Y94576D01*
X723831Y93604D01*
Y80396D01*
X724234Y79424D01*
X724374Y79366D01*
Y77634D01*
X724234Y77576D01*
X723831Y76604D01*
Y63396D01*
X724234Y62424D01*
X725206Y62021D01*
X730230D01*
Y61730D01*
X730771D01*
X731217Y61370D01*
X731094Y60659D01*
X730378Y59770D01*
X728730D01*
Y59270D01*
X726952D01*
X726270Y59725D01*
Y59770D01*
X714730D01*
Y59693D01*
X710460D01*
X709488Y59290D01*
X709086Y58318D01*
Y49682D01*
X709488Y48710D01*
X710460Y48307D01*
X714730D01*
Y48230D01*
X726270D01*
Y48274D01*
X726952Y48730D01*
X728730D01*
Y48230D01*
X740270D01*
Y48310D01*
X743730D01*
Y48230D01*
X755270D01*
Y59770D01*
X755270D01*
X754826Y60841D01*
X764077Y70092D01*
X764952Y69730D01*
X767048D01*
X768985Y70532D01*
X770468Y72015D01*
X770830Y72889D01*
X774480D01*
Y69980D01*
X780980Y69980D01*
X781639Y69321D01*
Y65770D01*
X775730D01*
Y65478D01*
X770708D01*
X769736Y65076D01*
X769333Y64104D01*
Y50896D01*
X769736Y49924D01*
X770708Y49521D01*
X775730D01*
Y49230D01*
X789270D01*
Y50821D01*
X789730Y52230D01*
X790870Y52230D01*
X801270D01*
Y52308D01*
X805539D01*
X806511Y52710D01*
X806913Y53682D01*
Y62318D01*
X806511Y63290D01*
X805539Y63693D01*
X801270D01*
Y63770D01*
X798861D01*
Y69980D01*
X799520D01*
Y82020D01*
X793980D01*
Y69980D01*
X794640D01*
Y63770D01*
X789730Y63770D01*
X789270Y65179D01*
Y65770D01*
X785861D01*
Y69980D01*
X786520D01*
Y82020D01*
X780020Y82020D01*
X779380Y82020D01*
X774480D01*
Y77111D01*
X770830D01*
X770468Y77985D01*
X768985Y79468D01*
X767048Y80270D01*
X764952D01*
X763015Y79468D01*
X761532Y77985D01*
X760730Y76048D01*
Y73952D01*
X761092Y73077D01*
X749508Y61492D01*
X749050Y60808D01*
X748889Y60000D01*
X747337Y59770D01*
X744805D01*
X744409Y60662D01*
X744314Y61370D01*
X758972Y76028D01*
X759375Y77000D01*
X759375Y77000D01*
Y82431D01*
X759569Y82625D01*
X771000D01*
X771000Y82625D01*
X771972Y83028D01*
X771972Y83028D01*
X772424Y83480D01*
X773020D01*
Y84144D01*
X773375Y85000D01*
X773375Y85000D01*
Y87567D01*
X773375Y88000D01*
X773375Y88000D01*
X773020Y89020D01*
X772924D01*
X771972Y89972D01*
X771000Y90375D01*
X771000Y90375D01*
X747569D01*
X747375Y90569D01*
Y93000D01*
X746972Y93972D01*
X746972Y93972D01*
X743972Y96972D01*
X743000Y97375D01*
D02*
G37*
%LPD*%
G36*
X746000Y93000D02*
Y90000D01*
X747000Y89000D01*
X771000D01*
X772000Y88000D01*
Y85000D01*
X771000Y84000D01*
X759000D01*
X758000Y83000D01*
Y77000D01*
X743190Y62190D01*
X733401D01*
X732169Y63396D01*
Y76604D01*
X731766Y77576D01*
X731626Y77634D01*
Y79366D01*
X731766Y79424D01*
X732169Y80396D01*
Y93604D01*
X731839Y94400D01*
X732433Y96000D01*
X743000D01*
X746000Y93000D01*
D02*
G37*
D23*
X495642Y808327D02*
Y838196D01*
X567122Y680600D02*
Y828077D01*
X562912Y676390D02*
X567122Y680600D01*
X408112Y676390D02*
X562912D01*
X392872D02*
X408112D01*
X795437Y824723D02*
Y824827D01*
X792187Y828077D02*
X795437Y824827D01*
X527429Y828077D02*
X542668D01*
X479232Y836439D02*
X480989Y838196D01*
X525671D02*
X527429Y836439D01*
Y828077D02*
Y836439D01*
X479232Y830826D02*
Y836439D01*
X495642Y838196D02*
X525671D01*
X478982Y830576D02*
X479232Y830826D01*
X480989Y838196D02*
X495642D01*
X456282Y62180D02*
X479262D01*
X547722Y133300D02*
X548992Y132030D01*
X537442Y133300D02*
X547722D01*
X547009Y105917D02*
X548992Y107900D01*
X533748Y105917D02*
X547009D01*
X548992Y107900D02*
Y132030D01*
X537442Y133300D02*
Y144730D01*
D47*
X898332Y601580D02*
D03*
X799272D02*
D03*
D55*
X405572Y821766D02*
D03*
X389572Y799700D02*
D03*
Y821766D02*
D03*
X405572Y799700D02*
D03*
D100*
X787000Y96000D02*
D03*
D101*
X807000Y105750D02*
D03*
Y99250D02*
D03*
Y92750D02*
D03*
Y86250D02*
D03*
X767000D02*
D03*
Y92750D02*
D03*
Y99250D02*
D03*
Y105750D02*
D03*
D102*
X796750Y76000D02*
D03*
X790250D02*
D03*
X783750D02*
D03*
X777250D02*
D03*
Y116000D02*
D03*
X783750D02*
D03*
X790250D02*
D03*
X796750D02*
D03*
D103*
X784000Y200000D02*
D03*
Y144000D02*
D03*
D104*
X731250Y204000D02*
D03*
X702750D02*
D03*
D105*
X719500Y184500D02*
D03*
X701500D02*
D03*
X719500Y164500D02*
D03*
X701500D02*
D03*
X719500Y146500D02*
D03*
X701500D02*
D03*
X719000Y87000D02*
D03*
X737000D02*
D03*
X719000Y70000D02*
D03*
X737000D02*
D03*
X764500Y57500D02*
D03*
X782500D02*
D03*
D106*
X701250Y122000D02*
D03*
X744750D02*
D03*
X841342Y516490D02*
D03*
X797842D02*
D03*
D107*
X834000Y140250D02*
D03*
Y169750D02*
D03*
X858000Y140250D02*
D03*
Y169750D02*
D03*
D108*
X834000Y121500D02*
D03*
Y106500D02*
D03*
X461362Y132270D02*
D03*
Y147270D02*
D03*
X490508Y159376D02*
D03*
Y174377D02*
D03*
X479078Y159376D02*
D03*
Y174377D02*
D03*
X44318Y588697D02*
D03*
Y573696D02*
D03*
X43048Y464237D02*
D03*
Y449236D02*
D03*
X447419Y361987D02*
D03*
Y346986D02*
D03*
X449958Y420407D02*
D03*
Y405406D02*
D03*
X512252Y724890D02*
D03*
Y739890D02*
D03*
X436052Y724890D02*
D03*
Y739890D02*
D03*
X429638Y361987D02*
D03*
Y346986D02*
D03*
X430909Y420407D02*
D03*
Y405406D02*
D03*
X526970Y724081D02*
D03*
Y739081D02*
D03*
X450022Y724890D02*
D03*
Y739890D02*
D03*
X531239Y349526D02*
D03*
Y364527D02*
D03*
X529968Y406676D02*
D03*
Y421677D02*
D03*
X331912Y632180D02*
D03*
Y647180D02*
D03*
X484312Y630910D02*
D03*
Y645910D02*
D03*
X466532Y659879D02*
D03*
Y644880D02*
D03*
X389062Y632180D02*
D03*
Y647180D02*
D03*
X545272Y630910D02*
D03*
Y645910D02*
D03*
X392872Y676390D02*
D03*
Y661390D02*
D03*
X45588Y719507D02*
D03*
Y704506D02*
D03*
X429638Y904509D02*
D03*
Y889509D02*
D03*
X415668Y905017D02*
D03*
Y890016D02*
D03*
X401698Y889509D02*
D03*
Y904509D02*
D03*
X443609Y889509D02*
D03*
Y904509D02*
D03*
X461452Y830060D02*
D03*
Y815060D02*
D03*
X448752Y830060D02*
D03*
Y815060D02*
D03*
X902078Y330237D02*
D03*
Y315236D02*
D03*
Y287296D02*
D03*
Y302297D02*
D03*
D109*
X916250Y108000D02*
D03*
X867750D02*
D03*
X682462Y58370D02*
D03*
X633962D02*
D03*
X546750Y166000D02*
D03*
X595250D02*
D03*
X904738Y242726D02*
D03*
X856239D02*
D03*
D110*
X826140Y90000D02*
D03*
X849000D02*
D03*
X825140Y70000D02*
D03*
X848000D02*
D03*
X511973Y774969D02*
D03*
X489113D02*
D03*
D111*
X795500Y58000D02*
D03*
X810500D02*
D03*
X749500Y54000D02*
D03*
X734500D02*
D03*
X720500D02*
D03*
X705500D02*
D03*
X542213Y774969D02*
D03*
X527213D02*
D03*
X57352Y219818D02*
D03*
X42352D02*
D03*
X56082Y295510D02*
D03*
X41082D02*
D03*
X56202Y178670D02*
D03*
X41202D02*
D03*
X487939Y483937D02*
D03*
X472938D02*
D03*
X449839D02*
D03*
X434838D02*
D03*
X128197Y663648D02*
D03*
X113198D02*
D03*
X486669Y293526D02*
D03*
X471668D02*
D03*
X449839D02*
D03*
X434838D02*
D03*
X132402Y898760D02*
D03*
X117402D02*
D03*
Y911460D02*
D03*
X132402D02*
D03*
Y922890D02*
D03*
X117402D02*
D03*
X117402Y934320D02*
D03*
X132402D02*
D03*
X117402Y945750D02*
D03*
X132402D02*
D03*
Y957180D02*
D03*
X117402D02*
D03*
Y969880D02*
D03*
X132402D02*
D03*
X249482Y893680D02*
D03*
X264482D02*
D03*
X892102Y479660D02*
D03*
X907102D02*
D03*
X892102Y468230D02*
D03*
X907102D02*
D03*
Y491090D02*
D03*
X892102D02*
D03*
X494262Y62180D02*
D03*
X479262D02*
D03*
X492992Y146000D02*
D03*
X477992D02*
D03*
X492929Y133856D02*
D03*
X477928D02*
D03*
X522442Y144730D02*
D03*
X537442D02*
D03*
D112*
X346578Y951386D02*
D03*
X314579D02*
D03*
X146171Y694084D02*
D03*
X178170D02*
D03*
D113*
X330578Y935387D02*
D03*
X162171Y678084D02*
D03*
D114*
X514729Y499936D02*
D03*
Y467937D02*
D03*
X521078Y309526D02*
D03*
Y277527D02*
D03*
D115*
X498729Y483937D02*
D03*
X505079Y293526D02*
D03*
D116*
X396592Y63850D02*
D03*
Y113850D02*
D03*
X653000Y115000D02*
D03*
Y165000D02*
D03*
D117*
X54478Y485466D02*
D03*
Y552467D02*
D03*
X57478Y361006D02*
D03*
Y428007D02*
D03*
X55998Y613542D02*
D03*
Y680543D02*
D03*
D118*
X65908Y464237D02*
D03*
Y449236D02*
D03*
Y588697D02*
D03*
Y573696D02*
D03*
X876678Y396516D02*
D03*
Y411517D02*
D03*
X863979Y396516D02*
D03*
Y411517D02*
D03*
X796668Y449617D02*
D03*
Y434616D02*
D03*
X839901Y809462D02*
D03*
Y824462D02*
D03*
X862761Y825732D02*
D03*
Y810732D02*
D03*
X542668Y813076D02*
D03*
Y828077D02*
D03*
X527429Y813076D02*
D03*
Y828077D02*
D03*
X467280Y724081D02*
D03*
Y739081D02*
D03*
X391014Y723297D02*
D03*
Y738297D02*
D03*
X344612Y647180D02*
D03*
Y632180D02*
D03*
X498282Y645910D02*
D03*
Y630910D02*
D03*
X453832Y644880D02*
D03*
Y659879D02*
D03*
X408112Y676390D02*
D03*
Y661390D02*
D03*
X291000Y201500D02*
D03*
Y216500D02*
D03*
X42352Y244830D02*
D03*
Y259830D02*
D03*
X460118Y483937D02*
D03*
Y498936D02*
D03*
X424558D02*
D03*
Y483937D02*
D03*
X162171Y648244D02*
D03*
Y633244D02*
D03*
Y603794D02*
D03*
Y588794D02*
D03*
X460118Y278406D02*
D03*
Y293407D02*
D03*
X424558Y278406D02*
D03*
Y293407D02*
D03*
X227589Y691406D02*
D03*
Y706406D02*
D03*
X214889Y691406D02*
D03*
Y706406D02*
D03*
X70988Y719507D02*
D03*
Y704506D02*
D03*
X243012Y830060D02*
D03*
Y815060D02*
D03*
X424885Y870066D02*
D03*
Y855066D02*
D03*
X386785Y870066D02*
D03*
Y855066D02*
D03*
X823377Y809724D02*
D03*
Y824723D02*
D03*
X809407Y809724D02*
D03*
Y824723D02*
D03*
X795437Y809724D02*
D03*
Y824723D02*
D03*
X412185Y870066D02*
D03*
Y855066D02*
D03*
X437585Y870066D02*
D03*
Y855066D02*
D03*
X399485Y870186D02*
D03*
Y855185D02*
D03*
X876742Y423900D02*
D03*
Y438900D02*
D03*
D119*
X502848Y825577D02*
D03*
X478349Y810576D02*
D03*
Y830576D02*
D03*
Y820576D02*
D03*
Y825577D02*
D03*
X502848Y830576D02*
D03*
Y815577D02*
D03*
X478349D02*
D03*
X502848Y810576D02*
D03*
Y820576D02*
D03*
D120*
X495599Y808327D02*
D03*
Y832826D02*
D03*
X485599D02*
D03*
X490598Y808327D02*
D03*
Y832826D02*
D03*
X485599Y808327D02*
D03*
D121*
X397758Y473937D02*
D03*
Y503937D02*
D03*
Y483937D02*
D03*
Y493937D02*
D03*
Y413937D02*
D03*
Y423937D02*
D03*
Y393937D02*
D03*
Y403937D02*
D03*
Y453937D02*
D03*
Y463937D02*
D03*
Y433937D02*
D03*
Y443937D02*
D03*
Y333936D02*
D03*
Y343936D02*
D03*
Y373936D02*
D03*
Y383936D02*
D03*
Y353936D02*
D03*
Y363936D02*
D03*
Y293936D02*
D03*
Y313936D02*
D03*
Y323936D02*
D03*
Y303936D02*
D03*
X95758Y393937D02*
D03*
Y473937D02*
D03*
Y483937D02*
D03*
Y493937D02*
D03*
Y423937D02*
D03*
Y433937D02*
D03*
Y403937D02*
D03*
Y413937D02*
D03*
Y453937D02*
D03*
Y463937D02*
D03*
Y443937D02*
D03*
Y343936D02*
D03*
Y353936D02*
D03*
Y333936D02*
D03*
Y373936D02*
D03*
Y383936D02*
D03*
Y363936D02*
D03*
Y293936D02*
D03*
Y303936D02*
D03*
Y313936D02*
D03*
Y323936D02*
D03*
D122*
X271759Y549936D02*
D03*
X291759D02*
D03*
X281759D02*
D03*
X241759D02*
D03*
X231758D02*
D03*
X261759D02*
D03*
X251759D02*
D03*
X331758D02*
D03*
X351758D02*
D03*
X341758D02*
D03*
X311759D02*
D03*
X301759D02*
D03*
X321759D02*
D03*
X281759Y247936D02*
D03*
X271759D02*
D03*
X301759D02*
D03*
X291759D02*
D03*
X241759D02*
D03*
X231758D02*
D03*
X261759D02*
D03*
X251759D02*
D03*
X341758D02*
D03*
X351758D02*
D03*
X321759D02*
D03*
X311759D02*
D03*
X331758D02*
D03*
X171758Y549936D02*
D03*
X161758D02*
D03*
X191758D02*
D03*
X181758D02*
D03*
X151758D02*
D03*
X141758D02*
D03*
X211758D02*
D03*
X201758D02*
D03*
X221758D02*
D03*
X181758Y247936D02*
D03*
X171758D02*
D03*
X201758D02*
D03*
X191758D02*
D03*
X141758D02*
D03*
X161758D02*
D03*
X151758D02*
D03*
X221758D02*
D03*
X211758D02*
D03*
D123*
X282199Y659596D02*
D03*
Y730596D02*
D03*
X256799D02*
D03*
X269499D02*
D03*
X244099D02*
D03*
X256799Y659596D02*
D03*
X269499D02*
D03*
X244099D02*
D03*
D124*
X491352Y976230D02*
D03*
X545852Y950830D02*
D03*
Y976230D02*
D03*
Y938130D02*
D03*
Y963530D02*
D03*
X491352D02*
D03*
Y950830D02*
D03*
Y938130D02*
D03*
D125*
X327178Y762216D02*
D03*
X331178D02*
D03*
X311178D02*
D03*
X315178D02*
D03*
X307178D02*
D03*
X323178D02*
D03*
X319178D02*
D03*
X291178D02*
D03*
X295179D02*
D03*
X303179D02*
D03*
X299179D02*
D03*
X279179D02*
D03*
X287178D02*
D03*
X283179D02*
D03*
X303179Y833216D02*
D03*
X327178D02*
D03*
X331178D02*
D03*
X311178D02*
D03*
X315178D02*
D03*
X307178D02*
D03*
X323178D02*
D03*
X319178D02*
D03*
X291178D02*
D03*
X295179D02*
D03*
X283179D02*
D03*
X279179D02*
D03*
X287178D02*
D03*
X299179D02*
D03*
D126*
X340678Y771717D02*
D03*
Y787717D02*
D03*
Y791717D02*
D03*
Y783717D02*
D03*
Y799716D02*
D03*
Y795716D02*
D03*
Y775716D02*
D03*
Y779716D02*
D03*
X269678Y795716D02*
D03*
Y791717D02*
D03*
Y799716D02*
D03*
Y775716D02*
D03*
Y779716D02*
D03*
Y771717D02*
D03*
Y787717D02*
D03*
Y783717D02*
D03*
X340678Y811717D02*
D03*
Y815716D02*
D03*
Y807717D02*
D03*
Y823716D02*
D03*
Y819716D02*
D03*
Y803717D02*
D03*
X269678D02*
D03*
Y811717D02*
D03*
Y819716D02*
D03*
Y823716D02*
D03*
Y815716D02*
D03*
Y807717D02*
D03*
D127*
X305179Y797717D02*
D03*
D128*
X835729Y434719D02*
D03*
Y489219D02*
D03*
X823029D02*
D03*
X848429D02*
D03*
X861129D02*
D03*
X848429Y434719D02*
D03*
X823029D02*
D03*
X861129D02*
D03*
D129*
X863181Y844292D02*
D03*
Y863292D02*
D03*
Y853792D02*
D03*
X839481Y844292D02*
D03*
Y863292D02*
D03*
D130*
X877949Y290186D02*
D03*
X887449Y317187D02*
D03*
X877949D02*
D03*
X868448D02*
D03*
Y290186D02*
D03*
X887449D02*
D03*
D131*
X477748Y80517D02*
D03*
Y105917D02*
D03*
Y118617D02*
D03*
X533748Y93216D02*
D03*
Y80517D02*
D03*
Y118617D02*
D03*
Y105917D02*
D03*
X477748Y93216D02*
D03*
D132*
X505748Y99566D02*
D03*
D133*
X489729Y717786D02*
D03*
X499179Y742732D02*
D03*
X479925Y742786D02*
D03*
X414521Y717838D02*
D03*
X404717Y742838D02*
D03*
X423970Y742784D02*
D03*
X477950Y370797D02*
D03*
X487754Y345797D02*
D03*
X468501Y345850D02*
D03*
X477950Y429217D02*
D03*
X487754Y404217D02*
D03*
X468501Y404271D02*
D03*
X375994Y634087D02*
D03*
X356740Y634141D02*
D03*
X366190Y659087D02*
D03*
X531137Y632350D02*
D03*
X511884Y632405D02*
D03*
X521333Y657350D02*
D03*
X440357Y658212D02*
D03*
X430909Y633266D02*
D03*
X421105Y658266D02*
D03*
D134*
X844929Y404016D02*
D03*
X784929Y404019D02*
D03*
X805122Y709600D02*
D03*
X865122Y709598D02*
D03*
X865376Y744533D02*
D03*
X805376Y744535D02*
D03*
D135*
X891389Y454323D02*
D03*
X906389D02*
D03*
X891389Y440353D02*
D03*
X906389D02*
D03*
X893069Y274477D02*
D03*
X878068D02*
D03*
X522442Y133300D02*
D03*
X537442D02*
D03*
X889259Y330356D02*
D03*
X874258D02*
D03*
X321808Y594516D02*
D03*
X336809D02*
D03*
X41202Y167240D02*
D03*
X56202D02*
D03*
X41082Y284588D02*
D03*
X56082D02*
D03*
X42352Y208388D02*
D03*
X57352D02*
D03*
X390452Y785730D02*
D03*
X405452D02*
D03*
X404818Y836386D02*
D03*
X389818D02*
D03*
X345762Y925430D02*
D03*
X330762D02*
D03*
X315522Y877170D02*
D03*
X330522D02*
D03*
D136*
X571072Y130760D02*
D03*
X600572D02*
D03*
D137*
X321782Y577450D02*
D03*
X344582D02*
D03*
X139341Y619154D02*
D03*
X162141D02*
D03*
X138838Y572926D02*
D03*
X161639D02*
D03*
X139341Y663604D02*
D03*
X162141D02*
D03*
D138*
X809369Y842197D02*
D03*
Y864996D02*
D03*
X330578Y890456D02*
D03*
Y913257D02*
D03*
D139*
X564842Y79960D02*
D03*
X609342D02*
D03*
D140*
X816989Y334166D02*
D03*
Y284167D02*
D03*
D141*
X119822Y206610D02*
D03*
X183322D02*
D03*
X196022D02*
D03*
X157922D02*
D03*
X170622D02*
D03*
X145222D02*
D03*
X132522D02*
D03*
D142*
X261722Y183360D02*
D03*
Y57160D02*
D03*
X103722Y183360D02*
D03*
Y57160D02*
D03*
D143*
X117472Y882299D02*
D03*
Y727300D02*
D03*
D144*
X212472Y882299D02*
D03*
D145*
X218472Y837299D02*
D03*
Y782300D02*
D03*
Y793299D02*
D03*
Y815299D02*
D03*
Y804300D02*
D03*
Y826300D02*
D03*
Y848300D02*
D03*
Y870300D02*
D03*
Y859300D02*
D03*
D146*
X213472Y736300D02*
D03*
D147*
X448938Y922956D02*
D03*
X384939D02*
D03*
X392938D02*
D03*
X440938D02*
D03*
D148*
X399438D02*
D03*
X419438D02*
D03*
X424439D02*
D03*
X404439D02*
D03*
X414439D02*
D03*
X409438D02*
D03*
X429438D02*
D03*
X434439D02*
D03*
D149*
X509649Y345597D02*
D03*
Y368456D02*
D03*
Y402747D02*
D03*
Y425606D02*
D03*
X456282Y62180D02*
D03*
Y85040D02*
D03*
D150*
X63942Y260460D02*
D03*
X70442Y241660D02*
D03*
X57442D02*
D03*
X70442Y260460D02*
D03*
X57442D02*
D03*
D151*
X373822Y178510D02*
D03*
Y222010D02*
D03*
X486788Y228596D02*
D03*
Y272097D02*
D03*
D152*
X343868Y218684D02*
D03*
X344122Y181600D02*
D03*
X312000Y219000D02*
D03*
X312254Y181916D02*
D03*
X265376Y594516D02*
D03*
X265122Y631600D02*
D03*
X298122Y594600D02*
D03*
X297868Y631684D02*
D03*
D153*
X751000Y60000D02*
X766000Y75000D01*
X749500Y54000D02*
X751000Y55500D01*
Y60000D01*
X777250Y75700D02*
Y76000D01*
X776550Y75000D02*
X777250Y75700D01*
X766000Y75000D02*
X776550D01*
X728000Y54000D02*
X734500D01*
X720500D02*
X728000D01*
X840998Y106002D02*
X848552Y98448D01*
Y90448D02*
X849000Y90000D01*
X848552Y90448D02*
Y98448D01*
X807000Y92750D02*
X813250D01*
X815270Y90730D01*
Y80505D02*
Y90730D01*
X807700Y98550D02*
X812450D01*
X818327Y92673D02*
X823467D01*
X812450Y98550D02*
X818327Y92673D01*
X823467D02*
X826140Y90000D01*
X807000Y99250D02*
X807700Y98550D01*
X815270Y80505D02*
X825140Y70635D01*
Y70000D02*
Y70635D01*
X848000Y70000D02*
X849000Y71000D01*
Y90000D01*
X840500Y106500D02*
X840998Y106002D01*
X834000Y106500D02*
X840500D01*
X795500Y58000D02*
X796750Y59250D01*
Y76000D01*
X782500Y57500D02*
X783750Y58750D01*
Y76000D01*
X81245Y680543D02*
X85000Y684298D01*
X43048Y449236D02*
X72236D01*
X74236Y451236D02*
Y503236D01*
X72236Y449236D02*
X74236Y451236D01*
Y503236D02*
X96000Y525000D01*
Y721000D01*
X78467Y552467D02*
X92000Y566000D01*
X54478Y552467D02*
X78467D01*
X85000Y684298D02*
Y727000D01*
X92000Y566000D02*
Y725775D01*
X92197Y725972D01*
X96000Y721000D02*
X100000Y725000D01*
X54104Y427633D02*
X54478Y428007D01*
X44615Y552467D02*
X54478D01*
X43112Y553970D02*
X44615Y552467D01*
X43112Y553970D02*
Y572490D01*
X44318Y573696D01*
X491842Y124410D02*
X498922D01*
X518742Y141030D02*
X522442Y144730D01*
X498922Y124410D02*
X515542Y141030D01*
X518742D01*
X91522Y228200D02*
X168082D01*
X78062Y241660D02*
X91522Y228200D01*
X70442Y241660D02*
X78062D01*
X70442Y256310D02*
X90932Y235820D01*
X176972D01*
X70442Y260460D02*
Y270478D01*
Y256310D02*
Y260460D01*
X396592Y148872D02*
X397529Y149810D01*
X458822D01*
X396592Y113850D02*
Y148872D01*
X898332Y601580D02*
X907102Y592810D01*
Y491090D02*
Y592810D01*
X113198Y521537D02*
X114135Y520600D01*
X113198Y521537D02*
Y663648D01*
X114135Y520600D02*
X373822D01*
X271990Y564518D02*
X272222Y564750D01*
X271990Y550168D02*
Y564518D01*
X231450Y565116D02*
X231604Y564962D01*
Y550090D02*
Y564962D01*
X241750Y549945D02*
Y564741D01*
X241742Y564750D02*
X241750Y564741D01*
X121785Y353936D02*
X122122Y353600D01*
X301462Y848379D02*
Y858909D01*
Y848379D02*
X303179Y846663D01*
X319203Y844943D02*
Y860811D01*
X283652Y896362D02*
X319203Y860811D01*
X319178Y844919D02*
X319203Y844943D01*
X319178Y833216D02*
Y844919D01*
X298592Y845730D02*
Y853458D01*
Y845730D02*
X299179Y845144D01*
X315178Y833216D02*
Y858176D01*
X307782Y858120D02*
X311602Y854299D01*
X286245Y887110D02*
X315178Y858176D01*
X284922Y867128D02*
X298592Y853458D01*
X311602Y845814D02*
Y854299D01*
X283972Y876400D02*
X301462Y858909D01*
X311178Y845390D02*
X311602Y845814D01*
X265947Y879710D02*
X295179Y850478D01*
X307278Y833316D02*
Y850061D01*
X295179Y833216D02*
Y850478D01*
X306532Y850807D02*
X307278Y850061D01*
X311178Y833216D02*
Y845390D01*
X303179Y833216D02*
Y846663D01*
X299179Y833216D02*
Y845144D01*
X241962Y887110D02*
X286245D01*
X307178Y833216D02*
X307278Y833316D01*
X471998Y93216D02*
X477748D01*
X461362Y103853D02*
X471998Y93216D01*
X461362Y103853D02*
Y132270D01*
X463309Y159376D02*
X479078D01*
X461362Y157430D02*
X463309Y159376D01*
X461362Y147270D02*
Y157430D01*
X458822Y149810D02*
X461362Y147270D01*
X226502Y766277D02*
X259941Y799716D01*
X226502Y743820D02*
Y766277D01*
X478642Y173940D02*
X479078Y174377D01*
X470252Y173940D02*
X478642D01*
X255722Y823820D02*
Y839080D01*
X252852Y822631D02*
Y845100D01*
X249982Y819400D02*
Y867660D01*
X260792Y825924D02*
Y836530D01*
X278572Y877170D02*
X279342Y876400D01*
X283972D01*
X258252Y879710D02*
X265947D01*
X265658Y851690D02*
Y859159D01*
X278979Y833417D02*
Y838369D01*
X265658Y851690D02*
X278979Y838369D01*
Y833417D02*
X279179Y833216D01*
X269232Y870820D02*
X291178Y848873D01*
X259522Y870820D02*
X269232D01*
X262062Y862755D02*
Y863200D01*
X276032Y855580D02*
X287178Y844433D01*
X291178Y833216D02*
Y848873D01*
X262062Y862755D02*
X265658Y859159D01*
X269682Y853040D02*
Y863200D01*
Y853040D02*
X283179Y839543D01*
Y833216D02*
Y839543D01*
X284922Y867128D02*
Y868280D01*
X287178Y833216D02*
Y844433D01*
X203642Y778783D02*
X206182Y781322D01*
X203642Y748900D02*
Y778783D01*
X206182Y781322D02*
Y781920D01*
X200772Y787940D02*
X206182Y793350D01*
X200772Y750088D02*
Y787940D01*
X255722Y839080D02*
X260792Y844150D01*
X252852Y845100D02*
X259522Y851770D01*
X249982Y819400D02*
X257665Y811717D01*
X252852Y822631D02*
X255382Y820101D01*
X255722Y823820D02*
X259625Y819917D01*
X247342Y870300D02*
X249982Y867660D01*
X42352Y259830D02*
Y271380D01*
X56322D01*
X283652Y896362D02*
Y921620D01*
X78212Y303880D02*
X95702D01*
X78029Y303697D02*
X78212Y303880D01*
X254644Y763767D02*
X255369Y764493D01*
Y767479D02*
X263546Y775655D01*
X255369Y764493D02*
Y767479D01*
X269617Y775655D02*
X269678Y775716D01*
X263546Y775655D02*
X269617D01*
X256059Y787717D02*
X269678D01*
X259941Y799716D02*
X269678D01*
X246790Y761853D02*
Y778448D01*
X258973Y782271D02*
X260451Y783748D01*
X262199Y779517D02*
X269478D01*
X240247Y756745D02*
Y775964D01*
X260451Y783748D02*
X269647D01*
X246790Y778448D02*
X256059Y787717D01*
X257432Y774749D02*
X262199Y779517D01*
X253622Y774749D02*
X257432D01*
X257783Y782271D02*
X258973D01*
X256000Y791717D02*
X269678D01*
X240247Y775964D02*
X256000Y791717D01*
X253172Y774300D02*
X253622Y774749D01*
X250422Y757849D02*
Y758221D01*
X246790Y761853D02*
X250422Y758221D01*
X295179Y745636D02*
Y762216D01*
X288732Y747551D02*
X291178Y749997D01*
X293802Y736200D02*
X299179Y741576D01*
X291178Y749997D02*
Y762216D01*
X271447Y740342D02*
X272384Y741280D01*
X269499Y730596D02*
X271447Y732545D01*
Y740342D01*
X290822Y741280D02*
X295179Y745636D01*
X272384Y741280D02*
X290822D01*
X288732Y746360D02*
Y747551D01*
X240247Y756745D02*
X244282Y752710D01*
X269478Y779517D02*
X269678Y779716D01*
X269647Y783748D02*
X269678Y783717D01*
X55998Y680543D02*
X81245D01*
X260792Y825924D02*
X262999Y823716D01*
X488444Y774300D02*
X489113Y774969D01*
X477962Y774300D02*
X488444D01*
X506732Y820460D02*
X509712Y817480D01*
Y799700D02*
Y817480D01*
X502848Y820576D02*
X502965Y820460D01*
X506732D01*
X502848Y799186D02*
Y810576D01*
X499552Y795890D02*
X502848Y799186D01*
X446829Y762216D02*
X480502Y795890D01*
X499552D01*
X502092Y792080D02*
X509712Y799700D01*
X449039Y759346D02*
X481772Y792080D01*
X502092D01*
X331178Y762216D02*
X446829D01*
X338549Y759346D02*
X449039D01*
X264482Y893680D02*
X272222D01*
X485582Y808310D02*
X485599Y808327D01*
X485582Y803510D02*
Y808310D01*
X484312Y802240D02*
X485582Y803510D01*
X453832Y802240D02*
X484312D01*
X448752Y807320D02*
X453832Y802240D01*
X461969Y815577D02*
X478349D01*
X461452Y815060D02*
X461969Y815577D01*
X461452Y807320D02*
Y815060D01*
X448752Y807320D02*
Y815060D01*
X458751Y877170D02*
X475422Y893841D01*
X450022Y877170D02*
X458751D01*
X490949Y937727D02*
X491352Y938130D01*
X480502Y935590D02*
X482639Y937727D01*
X490949D01*
X480502Y925430D02*
Y935590D01*
X477962Y950830D02*
X491352D01*
X475422Y948290D02*
X477962Y950830D01*
X475422Y893841D02*
Y948290D01*
X355955Y795803D02*
X356042Y795890D01*
X340765Y795803D02*
X355955D01*
X340687Y799708D02*
X352207D01*
X356008Y803510D02*
X356042D01*
X352207Y799708D02*
X356008Y803510D01*
X340678Y795716D02*
X340765Y795803D01*
X340678Y799716D02*
X340687Y799708D01*
X340678Y811717D02*
X395313D01*
X405572Y801458D01*
X241742Y963530D02*
X283652Y921620D01*
X241742Y893680D02*
X249482D01*
X227772Y907650D02*
X241742Y893680D01*
X227772Y907650D02*
Y948290D01*
X190942Y938130D02*
X241962Y887110D01*
X216342Y959720D02*
Y963530D01*
Y959720D02*
X227772Y948290D01*
X415668Y890016D02*
X424705Y880980D01*
X437322D01*
X340678Y815716D02*
X359359D01*
X365408Y821766D01*
X389572D01*
X330642Y818750D02*
X331609Y819716D01*
X340678D01*
X332322Y783717D02*
X340678D01*
X330642Y785397D02*
Y818750D01*
Y785397D02*
X332322Y783717D01*
X323022Y823497D02*
Y833060D01*
X278779Y803717D02*
X281112Y806050D01*
Y821622D01*
X282049Y822560D02*
X322085D01*
X323022Y833060D02*
X323178Y833216D01*
X322085Y822560D02*
X323022Y823497D01*
X281112Y821622D02*
X282049Y822560D01*
X95758Y463937D02*
X96000Y464178D01*
X113230D01*
X113472Y464420D01*
X329372Y705720D02*
X451292D01*
X458912Y713340D01*
Y738144D01*
X459849Y739081D01*
X467280D01*
X95758Y473937D02*
X96080Y474258D01*
X113150D01*
X113472Y474580D01*
X329372Y715880D02*
X339532D01*
X361950Y738297D01*
X391014D01*
X271759Y549936D02*
X271990Y550168D01*
X531137Y618255D02*
X531302Y618090D01*
X531137Y618255D02*
Y632350D01*
X241750Y549945D02*
X241759Y549936D01*
X430909Y619423D02*
X430972Y619360D01*
X430909Y619423D02*
Y633266D01*
X231604Y550090D02*
X231758Y549936D01*
X374924Y619669D02*
Y633017D01*
X375994Y634087D01*
X269678Y803717D02*
X278779D01*
X218092Y781920D02*
X218472Y782300D01*
X206182Y781920D02*
X218092D01*
X521224Y657460D02*
X521333Y657350D01*
X510982Y657460D02*
X521224D01*
X269682Y747630D02*
X281112D01*
X266018Y758016D02*
X278978D01*
X244099Y736097D02*
X266018Y758016D01*
X244099Y730596D02*
Y736097D01*
X263332Y741280D02*
X269682Y747630D01*
X268163Y753980D02*
X281112D01*
X269682Y659596D02*
Y682860D01*
X256799Y742615D02*
X268163Y753980D01*
X278978Y758016D02*
X279179Y758216D01*
X263332Y689210D02*
Y741280D01*
X256799Y730596D02*
Y742615D01*
X279179Y758216D02*
Y762216D01*
X392752Y661270D02*
X392872Y661390D01*
X383982Y661270D02*
X392752D01*
X366190Y659087D02*
X366292Y659189D01*
Y671004D01*
X242772Y815299D02*
X243012Y815060D01*
X282199Y730596D02*
X295829D01*
X319378Y756069D02*
Y762016D01*
X323378Y756128D02*
Y762016D01*
Y756128D02*
X327230Y752276D01*
X319378Y756069D02*
X326041Y749406D01*
X336726D01*
X327230Y752276D02*
X335537D01*
X327178Y762216D02*
X327378Y762016D01*
X328419Y755146D02*
X334349D01*
X327378Y756187D02*
X328419Y755146D01*
X327378Y756187D02*
Y762016D01*
X436052Y739890D02*
Y751066D01*
X433512Y753606D02*
X436052Y751066D01*
X340926Y753606D02*
X433512D01*
X336726Y749406D02*
X340926Y753606D01*
X319178Y762216D02*
X319378Y762016D01*
X335537Y752276D02*
X339737Y756476D01*
X334349Y755146D02*
X338549Y759346D01*
X512252Y739890D02*
Y752710D01*
X508485Y756476D02*
X512252Y752710D01*
X339737Y756476D02*
X508485D01*
X323178Y762216D02*
X323378Y762016D01*
X132522Y191370D02*
Y206610D01*
X57352Y219818D02*
X154874D01*
X95702Y303880D02*
X95758Y303936D01*
X56322Y271380D02*
X57442Y270260D01*
Y260460D02*
Y270260D01*
X56202Y167240D02*
X164272D01*
X170622Y173590D02*
Y206610D01*
X164272Y167240D02*
X170622Y173590D01*
Y206610D02*
Y225660D01*
X157922Y206610D02*
Y216770D01*
X154874Y219818D02*
X157922Y216770D01*
X57442Y219908D02*
Y241660D01*
X57352Y219818D02*
X57442Y219908D01*
X168082Y228200D02*
X170622Y225660D01*
X183322Y206610D02*
Y229470D01*
X176972Y235820D02*
X183322Y229470D01*
X56332Y284588D02*
X70442Y270478D01*
X56082Y284588D02*
X56332D01*
X56082Y284588D02*
X56082Y284588D01*
X56082Y284588D02*
Y295510D01*
X32312Y178670D02*
X41202D01*
X27112Y183870D02*
X32312Y178670D01*
X41590Y220580D02*
X42352Y219818D01*
X36002Y220580D02*
X41590D01*
X32192Y224390D02*
X36002Y220580D01*
X32192Y224390D02*
Y300590D01*
X55539Y323936D01*
X95758D01*
X57352Y219818D02*
X57352Y219818D01*
X57352Y208388D02*
Y219818D01*
X56202Y178670D02*
X56202Y178670D01*
Y167240D02*
Y178670D01*
X27112Y183870D02*
Y303130D01*
X57919Y333936D01*
X95758D01*
X41082Y295510D02*
Y303130D01*
X51889Y313936D01*
X95758D01*
X269478Y819917D02*
X269678Y819716D01*
X257665Y811717D02*
X269678D01*
X259567Y815917D02*
X265478D01*
X262999Y823716D02*
X269678D01*
X255382Y820101D02*
X259567Y815917D01*
X218472Y870300D02*
X247342D01*
X259625Y819917D02*
X269478D01*
X330578Y913257D02*
Y935387D01*
Y913257D02*
Y935387D01*
Y877170D02*
Y890456D01*
Y877170D02*
Y890456D01*
Y877170D02*
Y890456D01*
X269682Y659596D02*
Y682860D01*
X330578Y913257D02*
Y935387D01*
X405572Y799700D02*
Y801458D01*
X461969Y830576D02*
X478349D01*
X461452Y830060D02*
X461969Y830576D01*
X448752Y830060D02*
X461452D01*
X399438Y906769D02*
X401698Y904509D01*
X399438Y906769D02*
Y922956D01*
X430138Y917129D02*
X439059Y908209D01*
X439909D02*
X443609Y904509D01*
X439059Y908209D02*
X439909D01*
X425139Y915909D02*
X429638Y911409D01*
X425139Y915909D02*
Y922256D01*
X424439Y922956D02*
X425139Y922256D01*
X430138Y917129D02*
Y922256D01*
X429638Y904509D02*
Y911409D01*
X424439Y922956D02*
X424622Y923140D01*
Y931780D01*
X423352Y933050D02*
X424622Y931780D01*
X415732Y933050D02*
X423352D01*
X414439Y931756D02*
X415732Y933050D01*
X414439Y922956D02*
Y931756D01*
X415624Y905061D02*
Y909141D01*
X418738Y912255D01*
X409438Y915326D02*
X415624Y909141D01*
X418738Y912255D02*
Y922256D01*
X409438Y915326D02*
Y922956D01*
X418738Y922256D02*
X419438Y922956D01*
X429438D02*
X430138Y922256D01*
X265478Y815917D02*
X265678Y815716D01*
X269678D01*
X598446Y950830D02*
X599882Y952266D01*
X87739Y969880D02*
X117402D01*
X86802Y737137D02*
Y968942D01*
X87739Y969880D01*
X86802Y737137D02*
X87739Y736200D01*
X190942D01*
X95792Y747165D02*
X97289Y745668D01*
X98662Y750036D02*
Y921393D01*
X97289Y745668D02*
X186721D01*
X101532Y752937D02*
X103061Y751408D01*
X97289Y934320D02*
X117402D01*
X103029Y911460D02*
X117402D01*
X95792Y932823D02*
X97289Y934320D01*
X104402Y897263D02*
X105899Y898760D01*
X95792Y747165D02*
Y932823D01*
X104402Y755776D02*
X105899Y754278D01*
X101532Y909963D02*
X103029Y911460D01*
X92922Y745317D02*
X95441Y742798D01*
X187910D01*
X94419Y945750D02*
X117402D01*
X91549Y739928D02*
X190612D01*
X90052Y741425D02*
Y955683D01*
X98662Y921393D02*
X100159Y922890D01*
X90052Y955683D02*
X91549Y957180D01*
X101532Y752937D02*
Y909963D01*
X91549Y957180D02*
X117402D01*
X92922Y745317D02*
Y944253D01*
X104402Y755776D02*
Y897263D01*
X103061Y751408D02*
X184343D01*
X92922Y944253D02*
X94419Y945750D01*
X90052Y741425D02*
X91549Y739928D01*
X105899Y754278D02*
X183154D01*
X105899Y898760D02*
X117402D01*
X100159Y748539D02*
X185532D01*
X100159Y922890D02*
X117402D01*
X98662Y750036D02*
X100159Y748539D01*
X187910Y742798D02*
Y742799D01*
X189423D01*
X197902Y751277D01*
X183154Y754278D02*
X186422Y757546D01*
X185532Y748539D02*
X192162Y755168D01*
X186024Y753090D02*
X189292Y756357D01*
Y853930D01*
X194662Y859300D01*
X184343Y751408D02*
X186024Y753090D01*
X281112Y747630D02*
X287178Y753696D01*
Y762216D01*
X299179Y741576D02*
Y762216D01*
X263332Y689210D02*
X269682Y682860D01*
X281112Y753980D02*
X283166Y756034D01*
Y762204D01*
X283179Y762216D01*
X256799Y659596D02*
X256982Y659780D01*
Y675240D01*
X244099Y659596D02*
X244282Y659780D01*
Y675240D01*
X303179Y737946D02*
Y762216D01*
X295829Y730596D02*
X303179Y737946D01*
X239202Y730596D02*
X244099D01*
X227589Y706406D02*
Y718983D01*
X239202Y730596D01*
X214889Y706406D02*
X227589D01*
X218562Y859390D02*
X231582D01*
X218472Y859300D02*
X218562Y859390D01*
X194662Y859300D02*
X218472D01*
Y826300D02*
X218542Y826370D01*
X218402D02*
X218472Y826300D01*
X218542Y826370D02*
X231582D01*
X195032Y821570D02*
X199832Y826370D01*
X218402D01*
X195032Y753980D02*
Y821570D01*
X186721Y745668D02*
X195032Y753980D01*
X218812Y847960D02*
X231582D01*
X198902Y848300D02*
X218472D01*
X218812Y847960D01*
X192162Y755168D02*
Y841560D01*
X198902Y848300D01*
X217952Y870820D02*
X218472Y870300D01*
X186422Y863760D02*
X193482Y870820D01*
X331178Y833216D02*
Y876513D01*
X330522Y877170D02*
X331178Y876513D01*
X193482Y870820D02*
X217952D01*
X186422Y757546D02*
Y863760D01*
X197902Y751277D02*
Y797770D01*
X190942Y736200D02*
X203642Y748900D01*
X190612Y739928D02*
X200772Y750088D01*
X206182Y793350D02*
X218422D01*
X197902Y797770D02*
X204912Y804780D01*
X217992D01*
X218422Y793350D02*
X218472Y793299D01*
X217992Y804780D02*
X218472Y804300D01*
X543831Y632350D02*
X545272Y630910D01*
X44318Y573696D02*
X65908D01*
X511973Y774969D02*
X527213D01*
X446322Y736190D02*
X450022Y739890D01*
X446322Y735160D02*
Y736190D01*
X436052Y724890D02*
X446322Y735160D01*
X427420Y733521D02*
X436052Y724890D01*
X427420Y733521D02*
Y739334D01*
X423970Y742784D02*
X427420Y739334D01*
X522743Y735381D02*
X523270D01*
X512252Y724890D02*
X522743Y735381D01*
X523270D02*
X526970Y739081D01*
X512132Y724770D02*
X512252Y724890D01*
X504632Y724770D02*
X512132D01*
X502628Y726773D02*
X504632Y724770D01*
X502628Y726773D02*
Y739281D01*
X499179Y742732D02*
X502628Y739281D01*
X479925Y742531D02*
Y742786D01*
X476475Y739081D02*
X479925Y742531D01*
X467280Y739081D02*
X476475D01*
X404717Y741748D02*
Y742838D01*
X401267Y738297D02*
X404717Y741748D01*
X391014Y738297D02*
X401267D01*
X531137Y632350D02*
X543831D01*
X510389Y630910D02*
X511884Y632405D01*
X498282Y630910D02*
X510389D01*
X484312D02*
X498282D01*
X417981Y661390D02*
X421105Y658266D01*
X408112Y661390D02*
X417981D01*
X392872D02*
X408112D01*
X453832Y659879D02*
X466532D01*
X452165Y658212D02*
X453832Y659879D01*
X440357Y658212D02*
X452165D01*
X387155Y634087D02*
X389062Y632180D01*
X375994Y634087D02*
X387155D01*
X354780Y632180D02*
X356740Y634141D01*
X344612Y632180D02*
X354780D01*
X331912D02*
X344612D01*
X405452Y799580D02*
X405572Y799700D01*
X405452Y785730D02*
Y799580D01*
X389572Y821766D02*
X389818Y822012D01*
Y836386D01*
X45588Y704506D02*
X70988D01*
X45588Y681480D02*
Y704506D01*
Y681480D02*
X46526Y680543D01*
X55998D01*
X44989Y427633D02*
X54104D01*
X43048Y429573D02*
X44989Y427633D01*
X43048Y429573D02*
Y449236D01*
X139297Y663648D02*
X139341Y663604D01*
X128197Y663648D02*
X139297D01*
X161639Y572926D02*
X161758Y572807D01*
Y549936D02*
Y572807D01*
X161639Y572926D02*
X162171Y573459D01*
Y588794D01*
X162141Y603824D02*
X162171Y603794D01*
X162141Y603824D02*
Y619154D01*
X162171Y619184D01*
Y633244D01*
X162141Y648274D02*
X162171Y648244D01*
X162141Y648274D02*
Y663604D01*
X162171Y663634D01*
Y678084D01*
X527309Y368456D02*
X531239Y364527D01*
X509649Y368456D02*
X527309D01*
X509448Y345797D02*
X509649Y345597D01*
X487754Y345797D02*
X509448D01*
X467365Y346986D02*
X468501Y345850D01*
X447419Y346986D02*
X467365D01*
X429638D02*
X447419D01*
X429638Y361987D02*
X429702Y362050D01*
Y372980D01*
X418745Y383936D02*
X429702Y372980D01*
X397758Y383936D02*
X418745D01*
X526039Y425606D02*
X529968Y421677D01*
X509649Y425606D02*
X526039D01*
X508178Y404217D02*
X509649Y402747D01*
X487754Y404217D02*
X508178D01*
X467365Y405406D02*
X468501Y404271D01*
X449958Y405406D02*
X467365D01*
X430909D02*
X449958D01*
X414439Y403937D02*
X430909Y420407D01*
X397758Y403937D02*
X414439D01*
X487939Y483937D02*
X498729D01*
X460118D02*
X472938D01*
X449839D02*
X460118D01*
X424558D02*
X434838D01*
X397758D02*
X424558D01*
X486669Y293526D02*
X486788Y293407D01*
Y272097D02*
Y293407D01*
X486669Y293526D02*
X505079D01*
X471549Y293407D02*
X471668Y293526D01*
X460118Y293407D02*
X471549D01*
X459999Y293526D02*
X460118Y293407D01*
X449839Y293526D02*
X459999D01*
X424558Y293407D02*
X424678Y293526D01*
X434838D01*
X424029Y293936D02*
X424558Y293407D01*
X397758Y293936D02*
X424029D01*
X876742Y438669D02*
Y438900D01*
X872792Y434719D02*
X876742Y438669D01*
X861129Y434719D02*
X872792D01*
X848429Y478763D02*
Y489219D01*
X872932Y454260D02*
X891325D01*
X848429Y478763D02*
X872932Y454260D01*
X894609Y461143D02*
X899319D01*
X893485Y462267D02*
X894609Y461143D01*
X893485Y462267D02*
Y466846D01*
X892102Y468230D02*
X893485Y466846D01*
X899319Y461143D02*
X906139Y454323D01*
X891325Y454260D02*
X891389Y454323D01*
X890231Y489219D02*
X892102Y491090D01*
X861129Y489219D02*
X890231D01*
X892102Y479660D02*
Y491090D01*
X906139Y454323D02*
X906389D01*
X891389Y440353D02*
Y454323D01*
X796668Y434616D02*
X796771Y434719D01*
X892419Y302297D02*
X902078D01*
X887449Y297326D02*
X892419Y302297D01*
X887449Y290186D02*
Y297326D01*
X902078Y302297D02*
Y315236D01*
X489302Y121870D02*
X491842Y124410D01*
X489302Y111710D02*
Y121870D01*
X485709Y108117D02*
X489302Y111710D01*
X479949Y108117D02*
X485709D01*
X477748Y105917D02*
X479949Y108117D01*
X477928Y133856D02*
X477992Y133920D01*
Y146000D01*
X477748Y133677D02*
X477928Y133856D01*
X477748Y118617D02*
Y133677D01*
X479078Y174377D02*
X490508D01*
D154*
X512000Y185000D02*
X624000D01*
X630000Y118000D02*
Y179000D01*
X624000Y185000D02*
X630000Y179000D01*
X633000Y115000D02*
X653000D01*
X630000Y118000D02*
X633000Y115000D01*
X505000Y178000D02*
X512000Y185000D01*
X505000Y138000D02*
Y178000D01*
X501085Y134085D02*
X505000Y138000D01*
X492929Y133856D02*
X493158Y134085D01*
X501085D01*
X567122Y828077D02*
X792187D01*
X542668D02*
X567122D01*
X149122Y872943D02*
X151465Y870600D01*
X179122D01*
X149122Y872943D02*
Y898760D01*
X149122Y898760D01*
X180122Y814600D02*
Y869600D01*
X179122Y870600D02*
X180122Y869600D01*
X218472Y815299D02*
X242772D01*
X504829Y962530D02*
X507172Y960187D01*
Y877170D02*
X510982Y873360D01*
X492352Y962530D02*
X504829D01*
X507172Y877170D02*
Y960187D01*
X491352Y963530D02*
X492352Y962530D01*
X510982Y873360D02*
X527492D01*
X571072Y117280D02*
Y130760D01*
X533748Y93216D02*
X547009D01*
X571072Y117280D01*
D155*
X541462Y204070D02*
X610042Y272650D01*
X418272Y204070D02*
X541462D01*
X400332Y222010D02*
X418272Y204070D01*
X373822Y520600D02*
Y563480D01*
X610042Y342600D02*
Y352660D01*
X728867Y744535D02*
X805376D01*
X359852Y577450D02*
X373822Y563480D01*
Y222010D02*
X400332D01*
X344582Y577450D02*
X359852D01*
X373822Y222010D02*
Y520600D01*
X610042Y352660D02*
X716722Y459340D01*
X610042Y272650D02*
Y342600D01*
X716722Y459340D02*
Y732390D01*
X728867Y744535D01*
D156*
X74956Y733850D02*
Y977083D01*
X50272Y733850D02*
X74956D01*
Y977083D02*
X85532Y987660D01*
X45744Y729322D02*
X50272Y733850D01*
X132402Y911460D02*
Y922890D01*
Y898760D02*
Y911460D01*
Y898760D02*
X149122D01*
X437585Y855066D02*
X729936D01*
X739867Y864996D01*
X424885Y855066D02*
X437585D01*
X45588Y719507D02*
X45744Y719662D01*
Y729322D01*
X386785Y855066D02*
X399485D01*
X599882Y952266D02*
Y980040D01*
X592262Y987660D02*
X599882Y980040D01*
X133792Y987660D02*
X592262D01*
X545852Y950830D02*
X598446D01*
X32515Y464237D02*
X43048D01*
X30412Y466340D02*
X32515Y464237D01*
X30412Y466340D02*
Y590800D01*
X32515Y588697D02*
X44318D01*
X30412Y590800D02*
X32515Y588697D01*
X30412Y590800D02*
Y718569D01*
X31349Y719507D01*
X45588D01*
X85532Y987660D02*
X133792D01*
X132402Y957180D02*
Y969880D01*
Y945750D02*
Y957180D01*
Y922890D02*
Y934320D01*
Y945750D01*
Y969880D02*
X132522Y970000D01*
Y986390D01*
X133792Y987660D01*
X599882Y922890D02*
Y952266D01*
Y922890D02*
X607502Y915270D01*
X822465D01*
X823402Y914333D01*
Y845420D02*
Y914333D01*
Y845420D02*
X824530Y844292D01*
X839481D01*
X412185Y855066D02*
X424885D01*
X739867Y864996D02*
X809369D01*
X399605Y855066D02*
X412185D01*
D157*
X451532Y647180D02*
X453832Y644880D01*
X389062Y647180D02*
X451532D01*
X344612D02*
X389062D01*
X331912D02*
X344612D01*
X453832Y644880D02*
X466532D01*
X467562Y645910D01*
X484312D01*
X498282D01*
X545272D01*
X545962Y646600D02*
X558122D01*
X545272Y645910D02*
X545962Y646600D01*
X95758Y353936D02*
X121785D01*
D158*
X531045Y405600D02*
X557335D01*
X566122Y396813D01*
Y342600D02*
Y396813D01*
Y342600D02*
X610042D01*
X531239Y349526D02*
X538165Y342600D01*
X566122D01*
D159*
X671000Y886100D02*
D03*
Y329900D02*
D03*
D160*
Y242000D02*
D03*
Y971000D02*
D03*
D161*
X527492Y898760D02*
D03*
X216342Y938130D02*
D03*
X241742D02*
D03*
X190942D02*
D03*
X216342Y963530D02*
D03*
X190942D02*
D03*
D162*
X527492Y873360D02*
D03*
D163*
X241742Y963530D02*
D03*
D164*
X319122Y121060D02*
D03*
D165*
Y66060D02*
D03*
D166*
X113472Y774300D02*
D03*
Y854300D02*
D03*
D167*
X460138Y970456D02*
D03*
X373739D02*
D03*
D168*
X460138Y928656D02*
D03*
X373739D02*
D03*
D169*
X388038Y933656D02*
D03*
X445839D02*
D03*
D170*
X172057Y121876D02*
D03*
X172000Y111000D02*
D03*
Y100000D02*
D03*
X162000Y122000D02*
D03*
Y111000D02*
D03*
Y100000D02*
D03*
X192057Y121876D02*
D03*
X192000Y111000D02*
D03*
Y100000D02*
D03*
X182000Y122000D02*
D03*
Y111000D02*
D03*
Y100000D02*
D03*
X213057Y121876D02*
D03*
X213000Y111000D02*
D03*
Y100000D02*
D03*
X203000Y122000D02*
D03*
Y111000D02*
D03*
Y100000D02*
D03*
X865000Y210000D02*
D03*
X864943Y199124D02*
D03*
Y188124D02*
D03*
X854943Y210124D02*
D03*
Y199124D02*
D03*
Y188124D02*
D03*
X885000Y210000D02*
D03*
X884943Y199124D02*
D03*
Y188124D02*
D03*
X874943Y210124D02*
D03*
Y199124D02*
D03*
Y188124D02*
D03*
X906000Y210000D02*
D03*
X905943Y199124D02*
D03*
Y188124D02*
D03*
X895943Y210124D02*
D03*
Y199124D02*
D03*
Y188124D02*
D03*
X752000Y84000D02*
D03*
Y205000D02*
D03*
X836057Y55876D02*
D03*
X836000Y47000D02*
D03*
X826000Y56000D02*
D03*
Y47000D02*
D03*
X846000Y56000D02*
D03*
Y47000D02*
D03*
X704000Y92000D02*
D03*
Y83000D02*
D03*
Y66000D02*
D03*
X810500Y58000D02*
D03*
X764500Y57500D02*
D03*
X766000Y75000D02*
D03*
X686000Y145000D02*
D03*
X728000Y54000D02*
D03*
X537000Y161000D02*
D03*
X537124Y171057D02*
D03*
X305179Y797717D02*
D03*
X594122Y8600D02*
D03*
Y19600D02*
D03*
Y30600D02*
D03*
X604122Y8600D02*
D03*
Y19600D02*
D03*
X604179Y30476D02*
D03*
X573122Y8600D02*
D03*
Y19600D02*
D03*
Y30600D02*
D03*
X583122Y8600D02*
D03*
Y19600D02*
D03*
X583179Y30476D02*
D03*
X553122Y8600D02*
D03*
Y19600D02*
D03*
Y30600D02*
D03*
X563122Y8600D02*
D03*
Y19600D02*
D03*
X563179Y30476D02*
D03*
X297122Y318600D02*
D03*
Y329600D02*
D03*
Y340600D02*
D03*
X307122Y318600D02*
D03*
Y329600D02*
D03*
X307179Y340476D02*
D03*
X276122Y318600D02*
D03*
Y329600D02*
D03*
Y340600D02*
D03*
X286122Y318600D02*
D03*
Y329600D02*
D03*
X286179Y340476D02*
D03*
X256122Y318600D02*
D03*
Y329600D02*
D03*
Y340600D02*
D03*
X266122Y318600D02*
D03*
Y329600D02*
D03*
X266179Y340476D02*
D03*
X655122Y618600D02*
D03*
Y629600D02*
D03*
Y640600D02*
D03*
X665122Y618600D02*
D03*
Y629600D02*
D03*
X665179Y640476D02*
D03*
X634122Y618600D02*
D03*
Y629600D02*
D03*
Y640600D02*
D03*
X644122Y618600D02*
D03*
Y629600D02*
D03*
X644179Y640476D02*
D03*
X614122Y618600D02*
D03*
Y629600D02*
D03*
Y640600D02*
D03*
X624122Y618600D02*
D03*
Y629600D02*
D03*
X624179Y640476D02*
D03*
X655122Y652600D02*
D03*
Y663600D02*
D03*
Y674600D02*
D03*
X665122Y652600D02*
D03*
Y663600D02*
D03*
X665179Y674476D02*
D03*
X634122Y652600D02*
D03*
Y663600D02*
D03*
Y674600D02*
D03*
X644122Y652600D02*
D03*
Y663600D02*
D03*
X644179Y674476D02*
D03*
X614122Y652600D02*
D03*
Y663600D02*
D03*
Y674600D02*
D03*
X624122Y652600D02*
D03*
Y663600D02*
D03*
X624179Y674476D02*
D03*
X189122Y628600D02*
D03*
X200122D02*
D03*
X211122D02*
D03*
X189122Y618600D02*
D03*
X200122D02*
D03*
X210998Y618542D02*
D03*
X189122Y649600D02*
D03*
X200122D02*
D03*
X211122D02*
D03*
X189122Y639600D02*
D03*
X200122D02*
D03*
X210998Y639542D02*
D03*
X189122Y669600D02*
D03*
X200122D02*
D03*
X211122D02*
D03*
X189122Y659600D02*
D03*
X200122D02*
D03*
X210998Y659542D02*
D03*
X72000Y641000D02*
D03*
Y652000D02*
D03*
X728065Y357723D02*
D03*
X728122Y368600D02*
D03*
Y379600D02*
D03*
X738122Y357600D02*
D03*
Y368600D02*
D03*
Y379600D02*
D03*
X708065Y357723D02*
D03*
X708122Y368600D02*
D03*
Y379600D02*
D03*
X718122Y357600D02*
D03*
Y368600D02*
D03*
Y379600D02*
D03*
X687065Y357723D02*
D03*
X687122Y368600D02*
D03*
Y379600D02*
D03*
X697122Y357600D02*
D03*
Y368600D02*
D03*
Y379600D02*
D03*
X824065Y930723D02*
D03*
X824122Y941600D02*
D03*
Y952600D02*
D03*
X834122Y930600D02*
D03*
Y941600D02*
D03*
Y952600D02*
D03*
X824065Y965723D02*
D03*
X824122Y976600D02*
D03*
Y987600D02*
D03*
X834122Y965600D02*
D03*
Y976600D02*
D03*
Y987600D02*
D03*
X800065Y930723D02*
D03*
X800122Y941600D02*
D03*
Y952600D02*
D03*
X810122Y930600D02*
D03*
Y941600D02*
D03*
Y952600D02*
D03*
X801065Y965723D02*
D03*
X801122Y976600D02*
D03*
Y987600D02*
D03*
X811122Y965600D02*
D03*
Y976600D02*
D03*
Y987600D02*
D03*
X778065Y930723D02*
D03*
X778122Y941600D02*
D03*
Y952600D02*
D03*
X788122Y930600D02*
D03*
Y941600D02*
D03*
Y952600D02*
D03*
X778065Y965723D02*
D03*
X778122Y976600D02*
D03*
Y987600D02*
D03*
X788122Y965600D02*
D03*
Y976600D02*
D03*
Y987600D02*
D03*
X897065Y711723D02*
D03*
X897122Y722600D02*
D03*
Y733600D02*
D03*
X907122Y711600D02*
D03*
Y722600D02*
D03*
Y733600D02*
D03*
X897065Y743723D02*
D03*
X897122Y754600D02*
D03*
Y765600D02*
D03*
X907122Y743600D02*
D03*
Y754600D02*
D03*
Y765600D02*
D03*
X886245Y786657D02*
D03*
X897122Y786600D02*
D03*
X908122D02*
D03*
X886122Y776600D02*
D03*
X897122D02*
D03*
X908122D02*
D03*
X853245Y786657D02*
D03*
X864122Y786600D02*
D03*
X875122D02*
D03*
X853122Y776600D02*
D03*
X864122D02*
D03*
X875122D02*
D03*
X828245Y464657D02*
D03*
X839122Y464600D02*
D03*
X850122D02*
D03*
X839122Y454600D02*
D03*
X850122D02*
D03*
X894246Y424657D02*
D03*
X905122Y424600D02*
D03*
X916122D02*
D03*
X894122Y414600D02*
D03*
X905122D02*
D03*
X916122D02*
D03*
X893245Y354657D02*
D03*
X904122Y354600D02*
D03*
X915122D02*
D03*
X893122Y344600D02*
D03*
X904122D02*
D03*
X915122D02*
D03*
X664179Y171476D02*
D03*
X664122Y160600D02*
D03*
Y149600D02*
D03*
X654122Y171600D02*
D03*
Y160600D02*
D03*
Y149600D02*
D03*
X526124Y161057D02*
D03*
X515124D02*
D03*
X526124Y171057D02*
D03*
X515124D02*
D03*
X201122Y836600D02*
D03*
X132122Y815600D02*
D03*
X121122D02*
D03*
X132122Y825600D02*
D03*
X121122D02*
D03*
X172122Y914600D02*
D03*
X161122D02*
D03*
X172122Y924600D02*
D03*
X161122D02*
D03*
X487122Y819600D02*
D03*
X428122Y792600D02*
D03*
X439122D02*
D03*
X450122D02*
D03*
X428122Y782600D02*
D03*
X439122D02*
D03*
X449998Y782542D02*
D03*
X870122Y526600D02*
D03*
X881122D02*
D03*
X892122D02*
D03*
X870122Y516600D02*
D03*
X881122D02*
D03*
X891998Y516542D02*
D03*
X49246Y193657D02*
D03*
X38245D02*
D03*
X73913Y228263D02*
D03*
X50245Y230657D02*
D03*
X69000Y528000D02*
D03*
Y517000D02*
D03*
X56122Y615600D02*
D03*
X558122Y646600D02*
D03*
X122122Y353600D02*
D03*
D171*
X781500Y90500D02*
D03*
Y101500D02*
D03*
X792500Y90500D02*
D03*
Y101500D02*
D03*
D172*
X85000Y727000D02*
D03*
X92197Y725972D02*
D03*
X100000Y725000D02*
D03*
X297400Y797717D02*
D03*
X299678Y803217D02*
D03*
Y792216D02*
D03*
X305179Y789939D02*
D03*
X310679Y792216D02*
D03*
X305179Y805495D02*
D03*
X312956Y797717D02*
D03*
X310679Y803217D02*
D03*
X149122Y898760D02*
D03*
X180122Y814600D02*
D03*
X272222Y564750D02*
D03*
X231450Y565116D02*
D03*
X241742Y564750D02*
D03*
X306532Y850807D02*
D03*
X307782Y858120D02*
D03*
X470252Y173940D02*
D03*
X260792Y836530D02*
D03*
X278572Y877170D02*
D03*
X258252Y879710D02*
D03*
X276032Y855580D02*
D03*
X269682Y863200D02*
D03*
X259522Y870820D02*
D03*
X284922Y868280D02*
D03*
X206182Y781920D02*
D03*
Y793350D02*
D03*
X260792Y844150D02*
D03*
X42352Y271380D02*
D03*
X78029Y303697D02*
D03*
X257783Y782271D02*
D03*
X253172Y774300D02*
D03*
X250422Y757849D02*
D03*
X254644Y763767D02*
D03*
X293802Y736200D02*
D03*
X288732Y746360D02*
D03*
X244282Y752710D02*
D03*
X226502Y743820D02*
D03*
X259522Y851770D02*
D03*
X262062Y863200D02*
D03*
X477962Y774300D02*
D03*
X272222Y893680D02*
D03*
X461452Y807320D02*
D03*
X448752D02*
D03*
X450022Y877170D02*
D03*
X480502Y925430D02*
D03*
X356042Y795890D02*
D03*
Y803510D02*
D03*
X437322Y880980D02*
D03*
X429702Y889870D02*
D03*
X113472Y464420D02*
D03*
X329372Y705720D02*
D03*
X113472Y474580D02*
D03*
X329372Y715880D02*
D03*
X531302Y618090D02*
D03*
X430972Y619360D02*
D03*
X374924Y619669D02*
D03*
X510982Y657460D02*
D03*
X383982Y661270D02*
D03*
X366292Y671004D02*
D03*
X204912Y804780D02*
D03*
X132522Y191370D02*
D03*
X218472Y815299D02*
D03*
X244282Y675240D02*
D03*
X256982D02*
D03*
X231582Y859390D02*
D03*
Y826370D02*
D03*
Y847960D02*
D03*
M02*
