M48
;Layer_Color=9474304
;FILE_FORMAT=4:4
METRIC,LZ
;TYPE=PLATED
T01F00S00C0.2000
T02F00S00C0.3000
T03F00S00C0.5000
T05F00S00C0.8000
T06F00S00C1.1000
T07F00S00C1.8000
;TYPE=NON_PLATED
T08F00S00C0.6500
T09F00S00C1.0000
T10F00S00C3.2000
%
T01
X007815Y000905
Y001015
X007925
Y000905
T02
X00042352Y0027138
X00078029Y00303697
X00132522Y0019137
X00113472Y0046442
Y0047458
X00470252Y0017394
X00430972Y0061936
X00531302Y0061809
X00510982Y0065746
X00477962Y007743
X00461452Y0080732
X00448752
X00450022Y0087717
X00437322Y0088098
X00429702Y0088987
X00307782Y0085812
X00306532Y00850807
X00276032Y0085558
X00269682Y008632
X00262062
X00259522Y0087082
X00258252Y0087971
X00278572Y0087717
X00284922Y0086828
X00272222Y0089368
X00259522Y0085177
X00260792Y0084415
Y0083653
X00231582Y0082637
Y0084796
Y0085939
X00218472Y00815299
X00204912Y0080478
X00206182Y0079335
Y0078192
X00257783Y00782271
X00253172Y007743
X00254644Y00763767
X00250422Y00757849
X00244282Y0075271
X00226502Y0074382
X00288732Y0074636
X00293802Y007362
X00329372Y0071588
Y0070572
X00366292Y00671004
X00383982Y0066127
X00374924Y00619669
X00272222Y0056475
X00241742
X0023145Y00565116
X00244282Y0067524
X00256982
X00299678Y00792216
X002974Y00797717
X00299678Y00803217
X00305179Y00805495
X00310679Y00803217
X00312956Y00797717
X00310679Y00792216
X00305179Y00789939
X00356042Y0079589
Y0080351
X00180122Y008146
X00149122Y0089876
X001Y00725
X00092197Y00725972
X00085Y00727
X00480502Y0092543
T03
X00826Y00047
Y00056
X00836057Y00055876
X00836Y00047
X00846
Y00056
X008105Y00058
X007645Y000575
X00766Y00075
X00752Y00084
X00704Y00083
Y00092
Y00066
X00728Y00054
X00604179Y00030476
X00594122Y000306
Y000196
X00604122
Y000086
X00594122
X00583122
X00573122
X00563122
X00553122
Y000196
X00563122
X00573122
X00583122
X00583179Y00030476
X00573122Y000306
X00563179Y00030476
X00553122Y000306
X00213Y001
X00203
X00192
X00182
X00172
X00162
Y00111
X00172
X00182
X00192
X00203
X00213
X00213057Y00121876
X00203Y00122
X00192057Y00121876
X00182Y00122
X00172057Y00121876
X00162Y00122
X00049246Y00193657
X00038245
X00050245Y00230657
X00073913Y00228263
X00122122Y003536
X00256122Y003406
X00266179Y00340476
X00276122Y003406
X00286179Y00340476
X00286122Y003296
X00276122
X00266122
X00256122
Y003186
X00266122
X00276122
X00286122
X00297122
X00307122
Y003296
X00297122
Y003406
X00307179Y00340476
X00515124Y00171057
Y00161057
X00526124
Y00171057
X00537124
X00537Y00161
X00654122Y001606
X00664122
X00664179Y00171476
X00654122Y001716
Y001496
X00664122
X00686Y00145
X00752Y00205
X00738122Y003576
X00728065Y00357723
X00718122Y003576
X00708065Y00357723
X00708122Y003686
X00718122
X00728122
X00738122
Y003796
X00728122
X00718122
X00708122
X00697122
X00687122
Y003686
X00697122
Y003576
X00687065Y00357723
X00893245Y00354657
X00893122Y003446
X00904122
Y003546
X00915122
Y003446
X00916122Y004146
Y004246
X00905122
Y004146
X00894122
X00894246Y00424657
X00850122Y004546
Y004646
X00839122
Y004546
X00828245Y00464657
X00854943Y00210124
X00865Y0021
X00874943Y00210124
X00885Y0021
X00884943Y00199124
X00874943
X00864943
X00854943
Y00188124
X00864943
X00874943
X00884943
X00895943
X00905943
Y00199124
X00895943
Y00210124
X00906Y0021
X00891998Y00516542
X00892122Y005266
X00881122
Y005166
X00870122
Y005266
X00897065Y00711723
X00907122Y007116
Y007226
X00897122
Y007336
X00907122
Y007436
X00897065Y00743723
X00897122Y007546
X00907122
Y007656
X00897122
Y007766
Y007866
X00886245Y00786657
X00886122Y007766
X00875122
Y007866
X00864122
Y007766
X00853122
X00853245Y00786657
X00908122Y007866
Y007766
X00665179Y00674476
X00655122Y006746
Y006636
X00665122
Y006526
X00655122
X00644122
X00634122
X00624122
X00614122
Y006636
X00624122
X00634122
X00644122
X00644179Y00674476
X00634122Y006746
X00624179Y00674476
X00614122Y006746
Y006406
X00624179Y00640476
X00634122Y006406
X00644179Y00640476
X00644122Y006296
X00634122
X00624122
X00614122
Y006186
X00624122
X00634122
X00644122
X00655122
X00665122
Y006296
X00655122
Y006406
X00665179Y00640476
X00558122Y006466
X00487122Y008196
X00450122Y007926
X00449998Y00782542
X00439122Y007826
Y007926
X00428122
Y007826
X00305179Y00797717
X00201122Y008366
X00132122Y008256
Y008156
X00121122
Y008256
X00072Y00652
Y00641
X00056122Y006156
X00069Y00528
Y00517
X00189122Y006186
Y006286
X00200122
Y006186
X00210998Y00618542
X00211122Y006286
X00210998Y00639542
X00211122Y006496
X00210998Y00659542
X00211122Y006696
X00200122
Y006596
Y006496
Y006396
X00189122
Y006496
Y006596
Y006696
X00172122Y009146
Y009246
X00161122
Y009146
X00778065Y00930723
X00788122Y009306
Y009416
X00778122
Y009526
X00788122
X00800122
X00810122
Y009416
X00800122
X00800065Y00930723
X00810122Y009306
X00811122Y009656
X00801065Y00965723
X00801122Y009766
X00811122
Y009876
X00801122
X00788122
X00778122
Y009766
X00788122
Y009656
X00778065Y00965723
X00824065
X00834122Y009656
Y009766
X00824122
Y009876
X00834122
Y009526
X00824122
Y009416
X00834122
Y009306
X00824065Y00930723
T05
X00527492Y0087336
Y0089876
T06
X00190942Y0093813
X00216342
X00241742
Y0096353
X00216342
X00190942
T07
X00319122Y0006606
Y0012106
X00671Y00242
Y00971
T08
X00388038Y00933656
X00445839
T09
X00113472Y007743
Y008543
T10
X00671Y003299
Y008861
M30
